<?xml version="1.0" encoding="UTF-8" standalone="no"?>
<svg
   xmlns:dc="http://purl.org/dc/elements/1.1/"
   xmlns:cc="http://creativecommons.org/ns#"
   xmlns:rdf="http://www.w3.org/1999/02/22-rdf-syntax-ns#"
   xmlns:svg="http://www.w3.org/2000/svg"
   xmlns="http://www.w3.org/2000/svg"
   xmlns:sodipodi="http://sodipodi.sourceforge.net/DTD/sodipodi-0.dtd"
   xmlns:inkscape="http://www.inkscape.org/namespaces/inkscape"
   width="117px"
   height="18px"
   viewBox="0 0 117 18"
   version="1.1"
   id="svg12"
   sodipodi:docname="system.svg"
   inkscape:version="0.92.4 (5da689c313, 2019-01-14)">
  <metadata
     id="metadata16">
    <rdf:RDF>
      <cc:Work
         rdf:about="">
        <dc:format>image/svg+xml</dc:format>
        <dc:type
           rdf:resource="http://purl.org/dc/dcmitype/StillImage" />
        <dc:title>system</dc:title>
      </cc:Work>
    </rdf:RDF>
  </metadata>
  <sodipodi:namedview
     pagecolor="#ffffff"
     bordercolor="#666666"
     borderopacity="1"
     objecttolerance="10"
     gridtolerance="10"
     guidetolerance="10"
     inkscape:pageopacity="0"
     inkscape:pageshadow="2"
     inkscape:window-width="1920"
     inkscape:window-height="1018"
     id="namedview14"
     showgrid="false"
     inkscape:zoom="3.2478632"
     inkscape:cx="94.880589"
     inkscape:cy="8.9999999"
     inkscape:window-x="-8"
     inkscape:window-y="-8"
     inkscape:window-maximized="1"
     inkscape:current-layer="svg12" />
  <!-- Generator: Sketch 45 (43475) - http://www.bohemiancoding.com/sketch -->
  <title
     id="title2">system</title>
  <desc
     id="desc4">Created with Sketch.</desc>
  <defs
     id="defs6" />
  <g
     id="text1217"
     style="font-style:normal;font-variant:normal;font-weight:normal;font-stretch:normal;font-size:21.38528824px;line-height:1.25;font-family:sans-serif;-inkscape-font-specification:sans-serif;letter-spacing:0px;word-spacing:0px;fill:#ffffff;fill-opacity:1;stroke:none;stroke-width:0.53463221"
     aria-label="ATOMISWAVE">
    <path
       inkscape:connector-curvature="0"
       id="path1225"
       style="font-style:normal;font-variant:normal;font-weight:bold;font-stretch:normal;font-size:14.25685883px;font-family:sans-serif;-inkscape-font-specification:'sans-serif Bold';fill:#ffffff;stroke-width:0.53463221"
       d="M 16.128493,14.032578 H 13.364834 L 12.647814,11.93721 H 8.8051453 L 8.0881255,14.032578 H 5.3940804 L 9.2228267,3.6671181 H 12.299746 Z M 12.000408,10.03676 10.72648,6.3193951 9.4525515,10.03676 Z" />
    <path
       inkscape:connector-curvature="0"
       id="path1227"
       style="font-style:normal;font-variant:normal;font-weight:bold;font-stretch:normal;font-size:14.25685883px;font-family:sans-serif;-inkscape-font-specification:'sans-serif Bold';fill:#ffffff;stroke-width:0.53463221"
       d="M 25.742127,5.6719889 H 22.505096 V 14.032578 H 19.831935 V 5.6719889 H 16.594904 V 3.6671181 h 9.147223 z" />
    <path
       inkscape:connector-curvature="0"
       id="path1229"
       style="font-style:normal;font-variant:normal;font-weight:bold;font-stretch:normal;font-size:14.25685883px;font-family:sans-serif;-inkscape-font-specification:'sans-serif Bold';fill:#ffffff;stroke-width:0.53463221"
       d="m 37.430244,8.853329 q 0,2.478243 -1.420117,3.940128 -1.420117,1.454924 -3.926205,1.454924 -2.499127,0 -3.919244,-1.454924 -1.420117,-1.461885 -1.420117,-3.940128 0,-2.4991271 1.420117,-3.9470894 1.420117,-1.4549235 3.919244,-1.4549235 2.492165,0 3.919244,1.4549235 1.427078,1.4479623 1.427078,3.9470894 z m -3.543331,2.624432 q 0.389836,-0.473373 0.577793,-1.113818 0.187956,-0.6474058 0.187956,-1.5175754 0,-0.9328218 -0.215802,-1.5871893 Q 34.221058,6.6048107 33.87299,6.201052 33.517961,5.7833706 33.05155,5.595414 32.592101,5.4074573 32.090883,5.4074573 q -0.508179,0 -0.960667,0.1809953 -0.445527,0.1809953 -0.82144,0.5986767 -0.348068,0.389836 -0.570832,1.0790103 -0.215802,0.682213 -0.215802,1.5871894 0,0.9258604 0.208841,1.580228 0.215802,0.647406 0.56387,1.058126 0.348068,0.41072 0.814479,0.605638 0.466411,0.194918 0.981551,0.194918 0.51514,0 0.981551,-0.194918 0.466411,-0.201879 0.814479,-0.61956 z" />
    <path
       inkscape:connector-curvature="0"
       id="path1231"
       style="font-style:normal;font-variant:normal;font-weight:bold;font-stretch:normal;font-size:14.25685883px;font-family:sans-serif;-inkscape-font-specification:'sans-serif Bold';fill:#ffffff;stroke-width:0.53463221"
       d="M 50.329639,14.032578 H 47.670401 V 7.0921057 l -1.921334,4.5039983 h -1.84476 L 41.982973,7.0921057 V 14.032578 H 39.462961 V 3.6671181 h 3.104766 l 2.332054,5.2001336 2.325093,-5.2001336 h 3.104765 z" />
    <path
       inkscape:connector-curvature="0"
       id="path1233"
       style="font-style:normal;font-variant:normal;font-weight:bold;font-stretch:normal;font-size:14.25685883px;font-family:sans-serif;-inkscape-font-specification:'sans-serif Bold';fill:#ffffff;stroke-width:0.53463221"
       d="M 58.571885,14.032578 H 52.501582 V 12.19478 h 1.698571 V 5.5049163 H 52.501582 V 3.6671181 h 6.070303 V 5.5049163 H 56.873314 V 12.19478 h 1.698571 z" />
    <path
       inkscape:connector-curvature="0"
       id="path1235"
       style="font-style:normal;font-variant:normal;font-weight:bold;font-stretch:normal;font-size:14.25685883px;font-family:sans-serif;-inkscape-font-specification:'sans-serif Bold';fill:#ffffff;stroke-width:0.53463221"
       d="m 69.062649,10.774663 q 0,1.531499 -1.301774,2.492166 -1.294812,0.953706 -3.522446,0.953706 -1.287851,0 -2.248519,-0.222763 -0.953705,-0.229725 -1.789068,-0.577793 v -2.485204 h 0.292377 q 0.828401,0.661329 1.851721,1.016358 1.03028,0.355029 1.977025,0.355029 0.243647,0 0.640445,-0.04177 0.396797,-0.04177 0.647406,-0.139227 0.3063,-0.125305 0.501218,-0.313261 0.201879,-0.187957 0.201879,-0.556909 0,-0.341106 -0.292377,-0.584754 Q 65.73512,10.419634 65.178212,10.287368 64.593458,10.148141 63.93909,10.029798 63.291684,9.9044939 62.720853,9.7165372 61.412118,9.2918945 60.834325,8.5679133 60.263494,7.8369709 60.263494,6.7579606 q 0,-1.4479623 1.294812,-2.3599 1.301774,-0.9188991 3.341452,-0.9188991 1.023319,0 2.018793,0.2018793 1.002435,0.194918 1.733378,0.4942564 V 6.5630426 H 68.366513 Q 67.739991,6.0618249 66.828053,5.7276797 65.923077,5.3865733 64.976332,5.3865733 q -0.334145,0 -0.66829,0.048729 -0.327184,0.041768 -0.633483,0.1670725 -0.271493,0.1044204 -0.466411,0.3202224 -0.194918,0.2088407 -0.194918,0.4803337 0,0.41072 0.313261,0.6334834 0.313261,0.2158021 1.183431,0.3967974 0.570831,0.118343 1.092933,0.2297248 0.529063,0.1113817 1.134701,0.3062997 1.190392,0.3898359 1.754262,1.0650876 0.570831,0.6682902 0.570831,1.7403392 z" />
    <path
       inkscape:connector-curvature="0"
       id="path1237"
       style="font-style:normal;font-variant:normal;font-weight:bold;font-stretch:normal;font-size:14.25685883px;font-family:sans-serif;-inkscape-font-specification:'sans-serif Bold';fill:#ffffff;stroke-width:0.53463221"
       d="M 85.206038,3.6671181 82.414534,14.032578 H 79.455958 L 77.597275,7.2800623 75.787322,14.032578 H 72.828746 L 70.037242,3.6671181 h 2.791504 l 1.594151,7.1353909 1.907411,-7.1353909 h 2.6662 l 1.816914,7.1353909 1.670726,-7.1353909 z" />
    <path
       inkscape:connector-curvature="0"
       id="path1239"
       style="font-style:normal;font-variant:normal;font-weight:bold;font-stretch:normal;font-size:14.25685883px;font-family:sans-serif;-inkscape-font-specification:'sans-serif Bold';fill:#ffffff;stroke-width:0.53463221"
       d="m 96.573935,14.032578 h -2.763659 l -0.71702,-2.095368 h -3.842669 l -0.717019,2.095368 H 85.839523 L 89.668269,3.6671181 h 3.07692 z M 92.44585,10.03676 91.171922,6.3193951 89.897994,10.03676 Z" />
    <path
       inkscape:connector-curvature="0"
       id="path1241"
       style="font-style:normal;font-variant:normal;font-weight:bold;font-stretch:normal;font-size:14.25685883px;font-family:sans-serif;-inkscape-font-specification:'sans-serif Bold';fill:#ffffff;stroke-width:0.53463221"
       d="M 107.47542,3.6671181 103.6954,14.032578 h -2.99338 L 96.922004,3.6671181 h 2.805427 l 2.506089,7.2815789 2.50609,-7.2815789 z" />
    <path
       inkscape:connector-curvature="0"
       id="path1243"
       style="font-style:normal;font-variant:normal;font-weight:bold;font-stretch:normal;font-size:14.25685883px;font-family:sans-serif;-inkscape-font-specification:'sans-serif Bold';fill:#ffffff;stroke-width:0.53463221"
       d="m 116.46253,14.032578 h -7.49738 V 3.6671181 h 7.49738 v 2.0048708 h -4.83814 v 1.7890687 h 4.49007 v 2.0048708 h -4.49007 v 2.5617796 h 4.83814 z" />
  </g>
</svg>
