<?xml version="1.0" encoding="UTF-8" standalone="no"?>
<svg
   xmlns:dc="http://purl.org/dc/elements/1.1/"
   xmlns:cc="http://creativecommons.org/ns#"
   xmlns:rdf="http://www.w3.org/1999/02/22-rdf-syntax-ns#"
   xmlns:svg="http://www.w3.org/2000/svg"
   xmlns="http://www.w3.org/2000/svg"
   xmlns:sodipodi="http://sodipodi.sourceforge.net/DTD/sodipodi-0.dtd"
   xmlns:inkscape="http://www.inkscape.org/namespaces/inkscape"
   width="179"
   height="18"
   viewBox="0 0 179 18"
   version="1.1"
   id="svg12"
   sodipodi:docname="system.svg"
   inkscape:version="0.92.4 (5da689c313, 2019-01-14)">
  <metadata
     id="metadata16">
    <rdf:RDF>
      <cc:Work
         rdf:about="">
        <dc:format>image/svg+xml</dc:format>
        <dc:type
           rdf:resource="http://purl.org/dc/dcmitype/StillImage" />
        <dc:title>system</dc:title>
      </cc:Work>
    </rdf:RDF>
  </metadata>
  <sodipodi:namedview
     pagecolor="#ffffff"
     bordercolor="#666666"
     borderopacity="1"
     objecttolerance="10"
     gridtolerance="10"
     guidetolerance="10"
     inkscape:pageopacity="0"
     inkscape:pageshadow="2"
     inkscape:window-width="1920"
     inkscape:window-height="1018"
     id="namedview14"
     showgrid="false"
     inkscape:zoom="3.04"
     inkscape:cx="32.006089"
     inkscape:cy="9"
     inkscape:window-x="-8"
     inkscape:window-y="-8"
     inkscape:window-maximized="1"
     inkscape:current-layer="svg12" />
  <!-- Generator: Sketch 45 (43475) - http://www.bohemiancoding.com/sketch -->
  <title
     id="title2">system</title>
  <desc
     id="desc4">Created with Sketch.</desc>
  <defs
     id="defs6" />
  <g
     id="text1050"
     style="font-style:normal;font-variant:normal;font-weight:normal;font-stretch:normal;font-size:22.62475204px;line-height:1.25;font-family:sans-serif;-inkscape-font-specification:sans-serif;letter-spacing:0px;word-spacing:0px;fill:#000000;fill-opacity:1;stroke:none;stroke-width:0.56561887"
     aria-label="GAME BOY COLOR HACKS">
    <path
       inkscape:connector-curvature="0"
       id="path1064"
       style="fill:#ffffff;stroke-width:0.56561887"
       d="m 14.937193,13.336828 q -0.589186,0.229782 -1.561343,0.459565 -0.972158,0.223891 -1.938423,0.223891 -2.2389083,0 -3.5056589,-1.213724 -1.2667506,-1.219616 -1.2667506,-3.364254 0,-2.0444765 1.2785343,-3.2935516 1.2785343,-1.2549668 3.5645772,-1.2549668 0.866104,0 1.649722,0.1590803 0.783618,0.1531884 1.743991,0.6186456 v 2.0562603 h -0.25335 Q 14.48352,7.6040447 14.165359,7.3801539 13.847199,7.1503712 13.552606,6.9912909 13.210878,6.8027513 12.751312,6.6672384 12.297639,6.5317256 11.785047,6.5317256 q -0.60097,0 -1.089995,0.1767559 Q 10.206027,6.8852374 9.8171643,7.2505329 9.4459769,7.6040447 9.227978,8.151988 9.0158709,8.6940394 9.0158709,9.4069548 q 0,1.4552902 0.7718341,2.2271242 0.771834,0.771834 2.280151,0.771834 0.129621,0 0.282809,-0.0059 0.159081,-0.0059 0.288702,-0.01768 V 10.661922 H 10.889483 V 9.0063081 h 4.04771 z" />
    <path
       inkscape:connector-curvature="0"
       id="path1066"
       style="fill:#ffffff;stroke-width:0.56561887"
       d="m 25.065306,13.837636 h -2.33907 l -0.606861,-1.773451 h -3.252309 l -0.606862,1.773451 h -2.280151 l 3.240525,-8.7729844 h 2.604203 z M 21.571431,10.455706 20.49322,7.3094515 19.415009,10.455706 Z" />
    <path
       inkscape:connector-curvature="0"
       id="path1068"
       style="fill:#ffffff;stroke-width:0.56561887"
       d="M 35.535147,13.837636 H 33.284456 V 7.9634483 L 31.658301,11.775484 H 30.096958 L 28.470803,7.9634483 V 13.837636 H 26.337949 V 5.0646516 h 2.627771 l 1.973774,4.4012219 1.967882,-4.4012219 h 2.627771 z" />
    <path
       inkscape:connector-curvature="0"
       id="path1070"
       style="fill:#ffffff;stroke-width:0.56561887"
       d="M 44.1137,13.837636 H 37.768163 V 5.0646516 H 44.1137 v 1.6968566 h -4.094845 v 1.5142089 h 3.800251 V 9.9725737 H 40.018855 V 12.140779 H 44.1137 Z" />
    <path
       inkscape:connector-curvature="0"
       id="path1072"
       style="fill:#ffffff;stroke-width:0.56561887"
       d="m 57.64731,11.150946 q 0,0.636322 -0.259242,1.13713 -0.25335,0.500808 -0.701132,0.830753 -0.518484,0.388863 -1.143021,0.553835 -0.618646,0.164972 -1.573128,0.164972 H 50.141076 V 5.0646516 h 3.405497 q 1.060536,0 1.54956,0.070702 0.494917,0.070702 0.978049,0.3122687 0.500809,0.2533501 0.742375,0.6834562 0.247459,0.4242141 0.247459,0.9721574 0,0.6363212 -0.335837,1.1253459 -0.335836,0.4831328 -0.94859,0.7541585 v 0.047135 q 0.860212,0.170864 1.361021,0.7070236 0.5067,0.5361601 0.5067,1.4140471 z m -2.898797,-3.60582 q 0,-0.2179989 -0.111945,-0.4359978 Q 54.530514,6.8911292 54.253597,6.7850757 54.006138,6.6908057 53.634951,6.684914 53.269656,6.67313 52.603875,6.67313 h -0.212107 v 1.8559369 h 0.353512 q 0.536159,0 0.913239,-0.017676 0.377079,-0.017676 0.595078,-0.1178373 0.306377,-0.1355128 0.400646,-0.3476199 0.09427,-0.2179989 0.09427,-0.5008077 z m 0.553835,3.570469 q 0,-0.418322 -0.164972,-0.642213 -0.15908,-0.229783 -0.547943,-0.341728 -0.265134,-0.07659 -0.730591,-0.08249 -0.465457,-0.0059 -0.972158,-0.0059 h -0.494916 v 2.185881 h 0.164972 q 0.954482,0 1.366912,-0.0059 0.412431,-0.0059 0.760051,-0.153188 0.353512,-0.147297 0.483133,-0.388863 0.135512,-0.247458 0.135512,-0.565619 z" />
    <path
       inkscape:connector-curvature="0"
       id="path1074"
       style="fill:#ffffff;stroke-width:0.56561887"
       d="m 67.863801,9.4540897 q 0,2.0975033 -1.20194,3.3347943 -1.20194,1.2314 -3.323011,1.2314 -2.115179,0 -3.317119,-1.2314 -1.20194,-1.237291 -1.20194,-3.3347943 0,-2.1151789 1.20194,-3.3406864 1.20194,-1.2313995 3.317119,-1.2313995 2.109287,0 3.317119,1.2313995 1.207832,1.2255075 1.207832,3.3406864 z m -2.998958,2.2212323 q 0.329944,-0.400647 0.489025,-0.942698 0.15908,-0.547943 0.15908,-1.2844261 0,-0.7895097 -0.182648,-1.3433449 Q 65.147652,7.5510179 64.853059,7.2092898 64.552574,6.855778 64.157819,6.6966977 63.768956,6.5376174 63.344742,6.5376174 q -0.430106,0 -0.813077,0.1531885 -0.377079,0.1531884 -0.69524,0.5067002 -0.294593,0.3299443 -0.483133,0.9132388 -0.182647,0.5774026 -0.182647,1.3433448 0,0.7836183 0.176756,1.3374533 0.182647,0.547943 0.47724,0.895563 0.294594,0.34762 0.689348,0.512592 0.394755,0.164972 0.830753,0.164972 0.435998,0 0.830753,-0.164972 0.394755,-0.170864 0.689348,-0.524376 z" />
    <path
       inkscape:connector-curvature="0"
       id="path1076"
       style="fill:#ffffff;stroke-width:0.56561887"
       d="m 77.302567,5.0646516 -3.234633,5.3792714 v 3.393713 h -2.262476 v -3.28766 L 68.517799,5.0646516 h 2.568852 l 1.89718,3.3937132 1.832369,-3.3937132 z" />
    <path
       inkscape:connector-curvature="0"
       id="path1078"
       style="fill:#ffffff;stroke-width:0.56561887"
       d="m 86.558681,14.0085 q -0.978049,0 -1.808802,-0.288701 -0.824861,-0.288702 -1.419939,-0.860212 -0.595078,-0.571511 -0.925022,-1.425831 -0.324053,-0.85432 -0.324053,-1.9737744 0,-1.0428598 0.312269,-1.8912881 0.312269,-0.8484283 0.907347,-1.4552902 0.571511,-0.5832945 1.414047,-0.9014551 0.848428,-0.3181606 1.850045,-0.3181606 0.553835,0 0.995725,0.064811 0.447782,0.058919 0.824861,0.1590803 0.394755,0.1119454 0.712915,0.2533501 0.324053,0.1355128 0.565619,0.2533501 V 7.7513412 H 89.404451 Q 89.239479,7.6099365 88.986129,7.415505 88.738671,7.2210736 88.42051,7.0325339 88.096458,6.8439943 87.719378,6.7143733 q -0.377079,-0.129621 -0.807185,-0.129621 -0.477241,0 -0.907347,0.1531885 -0.430106,0.1472966 -0.795401,0.4949165 -0.34762,0.3358362 -0.565619,0.8896713 -0.212107,0.5538352 -0.212107,1.3433449 0,0.8248605 0.229782,1.3786955 0.235675,0.553836 0.589187,0.871996 0.359403,0.324053 0.801293,0.465457 0.44189,0.135513 0.871996,0.135513 0.41243,0 0.813077,-0.123729 0.406539,-0.123729 0.748267,-0.335836 0.288701,-0.170864 0.536159,-0.365296 0.247458,-0.194431 0.406539,-0.335836 h 0.235674 v 2.097504 q -0.329944,0.147296 -0.630429,0.276917 -0.300485,0.129621 -0.630429,0.223891 -0.430107,0.123729 -0.807186,0.18854 -0.377079,0.06481 -1.036968,0.06481 z" />
    <path
       inkscape:connector-curvature="0"
       id="path1080"
       style="fill:#ffffff;stroke-width:0.56561887"
       d="m 99.868406,9.4540897 q 0,2.0975033 -1.201941,3.3347943 -1.20194,1.2314 -3.32301,1.2314 -2.115179,0 -3.317119,-1.2314 -1.20194,-1.237291 -1.20194,-3.3347943 0,-2.1151789 1.20194,-3.3406864 1.20194,-1.2313995 3.317119,-1.2313995 2.109287,0 3.317119,1.2313995 1.207832,1.2255075 1.207832,3.3406864 z m -2.998959,2.2212323 q 0.329945,-0.400647 0.489025,-0.942698 0.15908,-0.547943 0.15908,-1.2844261 0,-0.7895097 -0.182648,-1.3433449 Q 97.152257,7.5510179 96.857663,7.2092898 96.557178,6.855778 96.162424,6.6966977 95.773561,6.5376174 95.349346,6.5376174 q -0.430106,0 -0.813077,0.1531885 -0.377079,0.1531884 -0.69524,0.5067002 -0.294593,0.3299443 -0.483132,0.9132388 -0.182648,0.5774026 -0.182648,1.3433448 0,0.7836183 0.176756,1.3374533 0.182648,0.547943 0.477241,0.895563 0.294593,0.34762 0.689348,0.512592 0.394755,0.164972 0.830752,0.164972 0.435998,0 0.830753,-0.164972 0.394755,-0.170864 0.689348,-0.524376 z" />
    <path
       inkscape:connector-curvature="0"
       id="path1082"
       style="fill:#ffffff;stroke-width:0.56561887"
       d="m 107.91669,13.837636 h -6.32786 V 5.0646516 h 2.26247 v 7.0761274 h 4.06539 z" />
    <path
       inkscape:connector-curvature="0"
       id="path1084"
       style="fill:#ffffff;stroke-width:0.56561887"
       d="m 117.80324,9.4540897 q 0,2.0975033 -1.20194,3.3347943 -1.20194,1.2314 -3.32302,1.2314 -2.11517,0 -3.31711,-1.2314 -1.20194,-1.237291 -1.20194,-3.3347943 0,-2.1151789 1.20194,-3.3406864 1.20194,-1.2313995 3.31711,-1.2313995 2.10929,0 3.31712,1.2313995 1.20784,1.2255075 1.20784,3.3406864 z m -2.99896,2.2212323 q 0.32994,-0.400647 0.48902,-0.942698 0.15908,-0.547943 0.15908,-1.2844261 0,-0.7895097 -0.18265,-1.3433449 -0.18264,-0.5538351 -0.47724,-0.8955632 -0.30048,-0.3535118 -0.69524,-0.5125921 -0.38886,-0.1590803 -0.81307,-0.1590803 -0.43011,0 -0.81308,0.1531885 -0.37708,0.1531884 -0.69524,0.5067002 -0.29459,0.3299443 -0.48313,0.9132388 -0.18265,0.5774026 -0.18265,1.3433448 0,0.7836183 0.17675,1.3374533 0.18265,0.547943 0.47725,0.895563 0.29459,0.34762 0.68934,0.512592 0.39476,0.164972 0.83076,0.164972 0.43599,0 0.83075,-0.164972 0.39475,-0.170864 0.68935,-0.524376 z" />
    <path
       inkscape:connector-curvature="0"
       id="path1086"
       style="fill:#ffffff;stroke-width:0.56561887"
       d="m 124.44337,7.7513412 q 0,-0.3299443 -0.13551,-0.5656188 -0.13552,-0.2356746 -0.46546,-0.3711874 -0.22978,-0.09427 -0.53616,-0.1119454 -0.30638,-0.023567 -0.71292,-0.023567 h -0.81896 v 2.3626372 h 0.69524 q 0.54205,0 0.90734,-0.053027 0.3653,-0.053027 0.61276,-0.2415664 0.23567,-0.1826477 0.34172,-0.4006467 0.11195,-0.2238908 0.11195,-0.5950785 z m 3.52923,6.0862948 h -2.76329 l -2.39209,-3.216957 h -1.04286 v 3.216957 h -2.2507 V 5.0646516 h 3.79436 q 0.77773,0 1.33746,0.088378 0.55972,0.088378 1.04875,0.3829711 0.49491,0.2945931 0.78362,0.7659422 0.29459,0.4654572 0.29459,1.1724808 0,0.9721574 -0.45367,1.5849112 -0.44779,0.6127538 -1.28443,1.0192921 z" />
    <path
       inkscape:connector-curvature="0"
       id="path1088"
       style="fill:#ff0000;stroke-width:0.56561887"
       d="m 140.96415,13.837636 h -2.26247 V 9.9725737 h -3.34069 v 3.8650623 h -2.26247 V 5.0646516 h 2.26247 v 3.2110655 h 3.34069 V 5.0646516 h 2.26247 z" />
    <path
       inkscape:connector-curvature="0"
       id="path1090"
       style="fill:#ff0000;stroke-width:0.56561887"
       d="m 151.31615,13.837636 h -2.33906 l -0.60687,-1.773451 h -3.25231 l -0.60686,1.773451 h -2.28015 l 3.24053,-8.7729844 h 2.6042 z m -3.49387,-3.38193 -1.07821,-3.1462545 -1.07821,3.1462545 z" />
    <path
       inkscape:connector-curvature="0"
       id="path1092"
       style="fill:#ff0000;stroke-width:0.56561887"
       d="m 156.55403,14.0085 q -0.97805,0 -1.8088,-0.288701 -0.82487,-0.288702 -1.41994,-0.860212 -0.59508,-0.571511 -0.92503,-1.425831 -0.32405,-0.85432 -0.32405,-1.9737744 0,-1.0428598 0.31227,-1.8912881 0.31227,-0.8484283 0.90735,-1.4552902 0.57151,-0.5832945 1.41404,-0.9014551 0.84843,-0.3181606 1.85005,-0.3181606 0.55383,0 0.99572,0.064811 0.44779,0.058919 0.82486,0.1590803 0.39476,0.1119454 0.71292,0.2533501 0.32405,0.1355128 0.56562,0.2533501 v 2.1269626 h -0.25924 q -0.16497,-0.1414047 -0.41832,-0.3358362 -0.24746,-0.1944314 -0.56562,-0.3829711 -0.32406,-0.1885396 -0.70114,-0.3181606 -0.37707,-0.129621 -0.80718,-0.129621 -0.47724,0 -0.90735,0.1531885 -0.4301,0.1472966 -0.7954,0.4949165 -0.34762,0.3358362 -0.56562,0.8896713 -0.21211,0.5538352 -0.21211,1.3433449 0,0.824861 0.22979,1.378696 0.23567,0.553836 0.58918,0.871996 0.35941,0.324053 0.8013,0.465457 0.44189,0.135513 0.87199,0.135513 0.41243,0 0.81308,-0.123729 0.40654,-0.123729 0.74827,-0.335836 0.2887,-0.170864 0.53616,-0.365296 0.24745,-0.194431 0.40653,-0.335837 h 0.23568 v 2.097505 q -0.32995,0.147296 -0.63043,0.276916 -0.30049,0.129621 -0.63043,0.223891 -0.43011,0.12373 -0.80718,0.18854 -0.37708,0.06481 -1.03697,0.06481 z" />
    <path
       inkscape:connector-curvature="0"
       id="path1094"
       style="fill:#ff0000;stroke-width:0.56561887"
       d="m 169.52201,13.837636 h -2.77507 l -2.62188,-3.511551 -0.53027,0.642214 v 2.869337 h -2.26247 V 5.0646516 h 2.26247 v 3.9711158 l 3.13448,-3.9711158 h 2.62187 l -3.42906,4.0594938 z" />
    <path
       inkscape:connector-curvature="0"
       id="path1096"
       style="fill:#ff0000;stroke-width:0.56561887"
       d="m 177.66456,11.080244 q 0,1.29621 -1.10178,2.109287 -1.09588,0.807185 -2.98128,0.807185 -1.08999,0 -1.90307,-0.188539 -0.80719,-0.194432 -1.51421,-0.489025 v -2.103395 h 0.24746 q 0.70113,0.559727 1.56723,0.860212 0.872,0.300485 1.67329,0.300485 0.20622,0 0.54206,-0.03535 0.33583,-0.03535 0.54794,-0.117838 0.25924,-0.106053 0.42421,-0.265133 0.17087,-0.159081 0.17087,-0.471349 0,-0.288702 -0.24746,-0.494917 -0.24157,-0.212107 -0.71292,-0.324052 -0.49491,-0.117838 -1.04875,-0.217999 -0.54794,-0.106054 -1.03107,-0.265134 -1.10768,-0.3594039 -1.5967,-0.9721577 -0.48313,-0.6186456 -0.48313,-1.5318844 0,-1.2255076 1.09588,-1.9973417 1.10178,-0.7777259 2.8281,-0.7777259 0.8661,0 1.70864,0.170864 0.84843,0.1649722 1.46707,0.4183223 v 2.0209091 h -0.24156 q -0.53027,-0.4242141 -1.30211,-0.7070236 -0.76594,-0.2887013 -1.56723,-0.2887013 -0.28281,0 -0.56562,0.041243 -0.27692,0.035351 -0.53616,0.1414047 -0.22978,0.088378 -0.39475,0.2710257 -0.16498,0.1767559 -0.16498,0.4065386 0,0.3476199 0.26514,0.5361595 0.26513,0.1826478 1.00161,0.3358362 0.48314,0.1001617 0.92503,0.1944315 0.44778,0.09427 0.96037,0.259242 1.00751,0.3299443 1.48475,0.9014551 0.48313,0.5656189 0.48313,1.4729649 z" />
  </g>
</svg>
