<?xml version="1.0" encoding="UTF-8" standalone="no"?>
<svg
   xmlns:dc="http://purl.org/dc/elements/1.1/"
   xmlns:cc="http://creativecommons.org/ns#"
   xmlns:rdf="http://www.w3.org/1999/02/22-rdf-syntax-ns#"
   xmlns:svg="http://www.w3.org/2000/svg"
   xmlns="http://www.w3.org/2000/svg"
   xmlns:sodipodi="http://sodipodi.sourceforge.net/DTD/sodipodi-0.dtd"
   xmlns:inkscape="http://www.inkscape.org/namespaces/inkscape"
   width="92"
   height="18"
   viewBox="0 0 92 18"
   version="1.1"
   id="svg12"
   sodipodi:docname="system.svg"
   inkscape:version="0.92.4 (5da689c313, 2019-01-14)">
  <metadata
     id="metadata16">
    <rdf:RDF>
      <cc:Work
         rdf:about="">
        <dc:format>image/svg+xml</dc:format>
        <dc:type
           rdf:resource="http://purl.org/dc/dcmitype/StillImage" />
        <dc:title>system</dc:title>
      </cc:Work>
    </rdf:RDF>
  </metadata>
  <sodipodi:namedview
     pagecolor="#ffffff"
     bordercolor="#666666"
     borderopacity="1"
     objecttolerance="10"
     gridtolerance="10"
     guidetolerance="10"
     inkscape:pageopacity="0"
     inkscape:pageshadow="2"
     inkscape:window-width="1920"
     inkscape:window-height="1018"
     id="namedview14"
     showgrid="false"
     inkscape:zoom="6.2295082"
     inkscape:cx="0.88289475"
     inkscape:cy="9"
     inkscape:window-x="-8"
     inkscape:window-y="-8"
     inkscape:window-maximized="1"
     inkscape:current-layer="svg12" />
  <!-- Generator: Sketch 45 (43475) - http://www.bohemiancoding.com/sketch -->
  <title
     id="title2">system</title>
  <desc
     id="desc4">Created with Sketch.</desc>
  <defs
     id="defs6" />
  <g
     id="g885"
     transform="translate(0,2)"
     style="fill:#ffffff">
    <path
       inkscape:connector-curvature="0"
       id="path836"
       style="font-style:normal;font-variant:normal;font-weight:bold;font-stretch:normal;font-size:10.33764553px;line-height:1.25;font-family:sans-serif;-inkscape-font-specification:'sans-serif Bold';letter-spacing:0px;word-spacing:0px;fill:#ffffff;fill-opacity:1;stroke:none;stroke-width:0.58163619"
       d="m 17.316446,7.6178634 q 0,2.6961256 -1.544971,4.2865366 -1.544971,1.582838 -4.27139,1.582838 -2.718846,0 -4.2638169,-1.582838 -1.5449709,-1.590411 -1.5449709,-4.2865366 0,-2.718846 1.5449709,-4.2941104 1.5449709,-1.5828378 4.2638169,-1.5828378 2.711272,0 4.263816,1.5828378 1.552545,1.5752644 1.552545,4.2941104 z M 13.461592,10.47303 q 0.42411,-0.5149899 0.628591,-1.2117423 0.204482,-0.7043249 0.204482,-1.6509977 0,-1.0148339 -0.234775,-1.7267323 Q 13.825115,5.1716595 13.446445,4.732403 13.060203,4.2779998 12.552786,4.0735184 12.052942,3.8690369 11.507658,3.8690369 q -0.552857,0 -1.045127,0.196908 Q 9.9778341,4.2628531 9.5688713,4.7172563 9.190202,5.141366 8.9478535,5.8911312 q -0.234775,0.7421919 -0.234775,1.7267322 0,1.0072598 0.2272017,1.7191585 0.234775,0.7043251 0.6134443,1.1511541 0.3786693,0.44683 0.8860865,0.658885 0.507417,0.212055 1.067847,0.212055 0.560431,0 1.067848,-0.212055 0.507417,-0.219627 0.886086,-0.674031 z" />
    <g
       id="g875"
       style="fill:#ffffff">
      <path
         d="m 28.835568,5.535182 q 0,0.7573387 -0.265068,1.4843838 -0.265069,0.7194718 -0.757339,1.2117417 -0.674031,0.6664585 -1.507104,1.0072601 -0.8255,0.3408031 -2.059961,0.3408031 h -1.81004 v 3.6730923 h -2.90818 V 1.9756903 h 4.786381 q 1.07542,0 1.810039,0.1893345 0.742191,0.1817613 1.310195,0.5528572 0.681605,0.44683 1.037554,1.1435815 0.363523,0.6967516 0.363523,1.6737185 z m -3.006635,0.06816 q 0,-0.4771233 -0.257495,-0.8179257 -0.257495,-0.3483756 -0.598297,-0.4846967 -0.454403,-0.1817612 -0.886087,-0.196908 -0.431682,-0.02272 -1.151155,-0.02272 h -0.499843 v 3.3777305 h 0.833073 q 0.742191,0 1.219315,-0.09088 0.484697,-0.09088 0.810353,-0.3635225 0.280215,-0.2423483 0.401389,-0.5755774 0.128747,-0.3408024 0.128747,-0.8255002 z"
         style="font-style:normal;font-variant:normal;font-weight:bold;font-stretch:normal;font-size:10.33764553px;line-height:1.25;font-family:sans-serif;-inkscape-font-specification:'sans-serif Bold';letter-spacing:0px;word-spacing:0px;fill:#ffffff;fill-opacity:1;stroke:none;stroke-width:0.58163619"
         id="path838"
         inkscape:connector-curvature="0" />
      <path
         d="M 39.044493,13.252463 H 30.887957 V 1.9756903 h 8.156536 V 4.1568257 H 33.78099 V 6.103186 h 4.884835 V 8.2843216 H 33.78099 v 2.7870064 h 5.263503 z"
         style="font-style:normal;font-variant:normal;font-weight:bold;font-stretch:normal;font-size:10.33764553px;line-height:1.25;font-family:sans-serif;-inkscape-font-specification:'sans-serif Bold';letter-spacing:0px;word-spacing:0px;fill:#ffffff;fill-opacity:1;stroke:none;stroke-width:0.58163619"
         id="path840"
         inkscape:connector-curvature="0" />
      <path
         d="M 51.745063,13.252463 H 48.94291 L 44.156529,5.5124618 V 13.252463 H 41.490697 V 1.9756903 h 3.476185 l 4.112349,6.4600981 V 1.9756903 h 2.665832 z"
         style="font-style:normal;font-variant:normal;font-weight:bold;font-stretch:normal;font-size:10.33764553px;line-height:1.25;font-family:sans-serif;-inkscape-font-specification:'sans-serif Bold';letter-spacing:0px;word-spacing:0px;fill:#ffffff;fill-opacity:1;stroke:none;stroke-width:0.58163619"
         id="path842"
         inkscape:connector-curvature="0" />
      <path
         d="m 64.286591,9.7989994 q 0,0.8179256 -0.333228,1.4616636 -0.325657,0.643737 -0.901233,1.067847 -0.666459,0.499844 -1.469238,0.711898 -0.795205,0.212055 -2.022094,0.212055 H 54.638097 V 1.9756903 h 4.377417 q 1.36321,0 1.991802,0.09088 0.636164,0.09088 1.257181,0.4013895 0.643738,0.3256556 0.954247,0.8785129 0.318082,0.5452838 0.318082,1.2496088 0,0.8179258 -0.431682,1.4465169 -0.431684,0.6210177 -1.219317,0.9693934 v 0.060587 q 1.105715,0.2196281 1.749453,0.9088064 0.651311,0.6891783 0.651311,1.8176142 z M 60.560486,5.1640861 q 0,-0.2802153 -0.143901,-0.5604307 Q 60.280269,4.3234401 59.924321,4.1871192 59.606238,4.0659449 59.129115,4.0583715 58.659565,4.0432248 57.803773,4.0432248 H 57.53113 v 2.3856169 h 0.454404 q 0.689178,0 1.173875,-0.02272 0.484697,-0.02272 0.764912,-0.1514678 0.393816,-0.1741879 0.51499,-0.4468298 0.12117,-0.2802153 0.12117,-0.6437379 z m 0.711897,4.5894731 q 0,-0.5377117 -0.212055,-0.8254993 -0.204481,-0.2953629 -0.704325,-0.4392574 -0.340801,-0.098454 -0.939099,-0.1060311 -0.598297,-0.0075 -1.249609,-0.0075 H 57.53113 v 2.8097266 h 0.212055 q 1.226889,0 1.757027,-0.0075 0.530136,-0.0075 0.976966,-0.196909 0.454403,-0.189333 0.621018,-0.499842 0.174187,-0.318083 0.174187,-0.7270454 z"
         style="font-style:normal;font-variant:normal;font-weight:bold;font-stretch:normal;font-size:10.33764553px;line-height:1.25;font-family:sans-serif;-inkscape-font-specification:'sans-serif Bold';letter-spacing:0px;word-spacing:0px;fill:#ffffff;fill-opacity:1;stroke:none;stroke-width:0.58163619"
         id="path844"
         inkscape:connector-curvature="0" />
      <path
         d="m 77.418845,7.6178634 q 0,2.6961256 -1.544972,4.2865366 -1.54497,1.582838 -4.271389,1.582838 -2.718847,0 -4.263817,-1.582838 -1.544972,-1.590411 -1.544972,-4.2865366 0,-2.718846 1.544972,-4.2941104 1.54497,-1.5828378 4.263817,-1.5828378 2.711271,0 4.263816,1.5828378 1.552545,1.5752644 1.552545,4.2941104 z M 73.56399,10.47303 q 0.424109,-0.5149899 0.628592,-1.2117423 0.204481,-0.7043249 0.204481,-1.6509977 0,-1.0148339 -0.234775,-1.7267323 Q 73.927513,5.1716595 73.548843,4.732403 73.1626,4.2779998 72.655184,4.0735184 72.15534,3.8690369 71.610056,3.8690369 q -0.552856,0 -1.045126,0.196908 -0.484698,0.1969082 -0.89366,0.6513114 -0.378669,0.4241097 -0.621018,1.1738749 -0.234775,0.7421919 -0.234775,1.7267322 0,1.0072598 0.227201,1.7191585 0.234775,0.7043251 0.613444,1.1511541 0.37867,0.44683 0.886087,0.658885 0.507417,0.212055 1.067847,0.212055 0.56043,0 1.067848,-0.212055 0.507416,-0.219627 0.886086,-0.674031 z"
         style="font-style:normal;font-variant:normal;font-weight:bold;font-stretch:normal;font-size:10.33764553px;line-height:1.25;font-family:sans-serif;-inkscape-font-specification:'sans-serif Bold';letter-spacing:0px;word-spacing:0px;fill:#ffffff;fill-opacity:1;stroke:none;stroke-width:0.58163619"
         id="path846"
         inkscape:connector-curvature="0" />
      <path
         d="m 85.954055,5.4291545 q 0,-0.4241096 -0.174188,-0.7270451 Q 85.605678,4.399174 85.181569,4.2249861 84.886207,4.1038119 84.492391,4.0810918 84.098574,4.0507983 83.576012,4.0507983 H 82.52331 v 3.036928 h 0.893659 q 0.696753,0 1.166303,-0.06816 0.46955,-0.06816 0.787631,-0.3105089 0.302936,-0.2347749 0.439258,-0.5149902 0.1439,-0.2877888 0.1439,-0.7649122 z m 4.536458,7.8233085 H 86.938595 L 83.863799,9.1173947 H 82.52331 V 13.252463 H 79.630276 V 1.9756903 h 4.877262 q 0.999687,0 1.719158,0.1136005 0.719472,0.1136005 1.348064,0.4922701 0.636164,0.3786695 1.00726,0.9845403 0.378669,0.5982976 0.378669,1.5071041 0,1.2496088 -0.58315,2.0372411 -0.575578,0.7876321 -1.650999,1.3101958 z"
         style="font-style:normal;font-variant:normal;font-weight:bold;font-stretch:normal;font-size:10.33764553px;line-height:1.25;font-family:sans-serif;-inkscape-font-specification:'sans-serif Bold';letter-spacing:0px;word-spacing:0px;fill:#ffffff;fill-opacity:1;stroke:none;stroke-width:0.58163619"
         id="path848"
         inkscape:connector-curvature="0" />
    </g>
  </g>
</svg>
