<?xml version="1.0" encoding="UTF-8" standalone="no"?>
<svg
   xmlns:dc="http://purl.org/dc/elements/1.1/"
   xmlns:cc="http://creativecommons.org/ns#"
   xmlns:rdf="http://www.w3.org/1999/02/22-rdf-syntax-ns#"
   xmlns:svg="http://www.w3.org/2000/svg"
   xmlns="http://www.w3.org/2000/svg"
   xmlns:sodipodi="http://sodipodi.sourceforge.net/DTD/sodipodi-0.dtd"
   xmlns:inkscape="http://www.inkscape.org/namespaces/inkscape"
   width="117px"
   height="18px"
   viewBox="0 0 117 18"
   version="1.1"
   id="svg12"
   sodipodi:docname="system.svg"
   inkscape:version="0.92.4 (5da689c313, 2019-01-14)">
  <metadata
     id="metadata16">
    <rdf:RDF>
      <cc:Work
         rdf:about="">
        <dc:format>image/svg+xml</dc:format>
        <dc:type
           rdf:resource="http://purl.org/dc/dcmitype/StillImage" />
        <dc:title>system</dc:title>
      </cc:Work>
    </rdf:RDF>
  </metadata>
  <sodipodi:namedview
     pagecolor="#ffffff"
     bordercolor="#666666"
     borderopacity="1"
     objecttolerance="10"
     gridtolerance="10"
     guidetolerance="10"
     inkscape:pageopacity="0"
     inkscape:pageshadow="2"
     inkscape:window-width="1920"
     inkscape:window-height="1018"
     id="namedview14"
     showgrid="false"
     inkscape:zoom="3.2478632"
     inkscape:cx="5.1944251"
     inkscape:cy="8.9999999"
     inkscape:window-x="-8"
     inkscape:window-y="-8"
     inkscape:window-maximized="1"
     inkscape:current-layer="svg12" />
  <!-- Generator: Sketch 45 (43475) - http://www.bohemiancoding.com/sketch -->
  <title
     id="title2">system</title>
  <desc
     id="desc4">Created with Sketch.</desc>
  <defs
     id="defs6" />
  <g
     id="text2301"
     style="font-style:normal;font-variant:normal;font-weight:normal;font-stretch:normal;font-size:18.08088493px;line-height:1.25;font-family:sans-serif;-inkscape-font-specification:sans-serif;letter-spacing:0px;word-spacing:0px;fill:#ffffff;fill-opacity:1;stroke:none;stroke-width:0.84754151"
     aria-label="VIDEOPAC">
    <path
       inkscape:connector-curvature="0"
       id="path2308"
       style="font-style:normal;font-variant:normal;font-weight:bold;font-stretch:normal;font-family:sans-serif;-inkscape-font-specification:'sans-serif Bold';fill:#ffffff;stroke-width:0.84754151"
       d="M 21.023566,2.7482471 16.229659,15.893969 H 12.43338 L 7.6394734,2.7482471 h 3.5579086 l 3.17828,9.2346709 3.178281,-9.2346709 z" />
    <path
       inkscape:connector-curvature="0"
       id="path2310"
       style="font-style:normal;font-variant:normal;font-weight:bold;font-stretch:normal;font-family:sans-serif;-inkscape-font-specification:'sans-serif Bold';fill:#ffffff;stroke-width:0.84754151"
       d="M 30.019866,15.893969 H 22.321364 V 13.56323 h 2.154168 V 5.0789861 h -2.154168 v -2.330739 h 7.698502 v 2.330739 H 27.865698 V 13.56323 h 2.154168 z" />
    <path
       inkscape:connector-curvature="0"
       id="path2312"
       style="font-style:normal;font-variant:normal;font-weight:bold;font-stretch:normal;font-family:sans-serif;-inkscape-font-specification:'sans-serif Bold';fill:#ffffff;stroke-width:0.84754151"
       d="m 45.22264,9.3343507 q 0,1.8363403 -0.838713,3.2930513 -0.838713,1.447884 -2.118853,2.224797 -0.962313,0.582685 -2.110026,0.812227 -1.147712,0.229543 -2.719195,0.229543 H 32.80086 V 2.7482471 h 4.767421 q 1.606798,0 2.772167,0.2736852 1.16537,0.2648567 1.95994,0.7592559 1.359598,0.8298844 2.136511,2.2424535 0.785741,1.4037406 0.785741,3.310709 z M 41.717703,9.307865 q 0,-1.2977979 -0.476742,-2.2159678 Q 40.773047,6.1648987 39.748935,5.6440138 39.22805,5.3879856 38.680679,5.2997001 38.142137,5.2025859 37.047396,5.2025859 h -0.85637 v 8.2282151 h 0.85637 q 1.209513,0 1.77454,-0.105943 0.565028,-0.114771 1.10357,-0.406113 0.926998,-0.529714 1.359598,-1.412569 0.432599,-0.891685 0.432599,-2.198311 z" />
    <path
       inkscape:connector-curvature="0"
       id="path2314"
       style="font-style:normal;font-variant:normal;font-weight:bold;font-stretch:normal;font-family:sans-serif;-inkscape-font-specification:'sans-serif Bold';fill:#ffffff;stroke-width:0.84754151"
       d="M 57.317765,15.893969 H 47.809409 V 2.7482471 h 9.508356 v 2.5426244 h -6.135847 v 2.2689392 h 5.694419 v 2.5426243 h -5.694419 v 3.248909 h 6.135847 z" />
    <path
       inkscape:connector-curvature="0"
       id="path2316"
       style="font-style:normal;font-variant:normal;font-weight:bold;font-stretch:normal;font-family:sans-serif;-inkscape-font-specification:'sans-serif Bold';fill:#ffffff;stroke-width:0.84754151"
       d="m 72.953138,9.3255221 q 0,3.1429659 -1.801026,4.9969629 -1.801026,1.845169 -4.979306,1.845169 -3.169452,0 -4.970478,-1.845169 -1.801026,-1.853997 -1.801026,-4.9969629 0,-3.169452 1.801026,-5.0057919 1.801026,-1.8451684 4.970478,-1.8451684 3.160623,0 4.970477,1.8451684 1.809855,1.8363399 1.809855,5.0057919 z m -4.493736,3.3283659 q 0.494399,-0.600342 0.73277,-1.412569 0.238371,-0.821056 0.238371,-1.9246255 0,-1.1830266 -0.273685,-2.012911 Q 68.883173,6.4738982 68.441745,5.9618418 67.991488,5.4321284 67.399975,5.1937574 66.81729,4.9553863 66.181634,4.9553863 q -0.644484,0 -1.218341,0.2295425 -0.565027,0.2295425 -1.041769,0.7592559 -0.441428,0.4943992 -0.723942,1.3684264 -0.273685,0.8651986 -0.273685,2.012911 0,1.1741979 0.264856,2.0040829 0.273686,0.821055 0.715114,1.34194 0.441427,0.520885 1.032941,0.768085 0.591513,0.247199 1.244826,0.247199 0.653313,0 1.244827,-0.247199 0.591513,-0.256028 1.032941,-0.785742 z" />
    <path
       inkscape:connector-curvature="0"
       id="path2318"
       style="font-style:normal;font-variant:normal;font-weight:bold;font-stretch:normal;font-family:sans-serif;-inkscape-font-specification:'sans-serif Bold';fill:#ffffff;stroke-width:0.84754151"
       d="m 86.381374,6.8976689 q 0,0.8828557 -0.308999,1.7303972 -0.309,0.8387129 -0.882856,1.4125689 -0.785742,0.776913 -1.756883,1.174198 -0.962313,0.397285 -2.401368,0.397285 h -2.110025 v 4.281851 H 75.531077 V 2.7482471 h 5.579648 q 1.253656,0 2.110026,0.2207139 0.865198,0.2118854 1.52734,0.6444847 0.79457,0.5208848 1.209512,1.3331121 0.423771,0.8122272 0.423771,1.9511111 z m -3.504937,0.079457 q 0,-0.5561991 -0.300171,-0.9534842 Q 82.276095,5.6175281 81.87881,5.4586141 81.349096,5.2467287 80.845869,5.2290716 80.342641,5.2025859 79.503928,5.2025859 h -0.582685 v 3.9375365 h 0.971142 q 0.865198,0 1.421397,-0.1059427 0.565028,-0.1059427 0.944656,-0.4237707 0.326656,-0.2825138 0.467913,-0.6709704 0.150086,-0.397285 0.150086,-0.9623127 z" />
    <path
       inkscape:connector-curvature="0"
       id="path2320"
       style="font-style:normal;font-variant:normal;font-weight:bold;font-stretch:normal;font-family:sans-serif;-inkscape-font-specification:'sans-serif Bold';fill:#ffffff;stroke-width:0.84754151"
       d="m 100.92201,15.893969 h -3.504939 l -0.909342,-2.657396 h -4.873363 l -0.909342,2.657396 H 87.308373 L 92.164079,2.7482471 h 3.902223 z M 95.686674,10.826377 94.071048,6.1119273 92.455422,10.826377 Z" />
    <path
       inkscape:connector-curvature="0"
       id="path2322"
       style="font-style:normal;font-variant:normal;font-weight:bold;font-stretch:normal;font-family:sans-serif;-inkscape-font-specification:'sans-serif Bold';fill:#ffffff;stroke-width:0.84754151"
       d="m 108.77059,16.149997 q -1.46554,0 -2.71036,-0.4326 -1.236,-0.432599 -2.12769,-1.288969 -0.89168,-0.85637 -1.38608,-2.136511 -0.48557,-1.28014 -0.48557,-2.9575663 0,-1.5626546 0.46791,-2.8339669 0.46792,-1.2713122 1.3596,-2.1806536 0.85637,-0.8740271 2.11886,-1.3507692 1.27131,-0.4767421 2.77216,-0.4767421 0.82989,0 1.49203,0.097114 0.67097,0.088286 1.236,0.2383711 0.59151,0.1677426 1.06825,0.3796279 0.48557,0.2030568 0.84754,0.379628 V 6.774069 h -0.38845 q -0.2472,-0.2118854 -0.62683,-0.5032278 -0.3708,-0.2913423 -0.84754,-0.5738562 -0.48557,-0.2825138 -1.0506,-0.476742 -0.56503,-0.1942283 -1.20951,-0.1942283 -0.71512,0 -1.3596,0.2295425 -0.64449,0.2207139 -1.19186,0.7415988 -0.52088,0.5032277 -0.84754,1.3331121 -0.31783,0.8298844 -0.31783,2.012911 0,1.2359979 0.34432,2.0658829 0.35314,0.829884 0.88285,1.306626 0.53855,0.485571 1.20069,0.697456 0.66214,0.203057 1.30662,0.203057 0.618,0 1.21835,-0.1854 0.60917,-0.1854 1.12122,-0.503228 0.4326,-0.256028 0.8034,-0.54737 0.3708,-0.291343 0.60917,-0.503228 h 0.35314 v 3.142966 q -0.4944,0.220714 -0.94465,0.414943 -0.45026,0.194228 -0.94466,0.335485 -0.64448,0.185399 -1.20951,0.282514 -0.56503,0.09711 -1.55383,0.09711 z" />
  </g>
</svg>
