<?xml version="1.0" encoding="UTF-8" standalone="no"?>
<svg
   xmlns:dc="http://purl.org/dc/elements/1.1/"
   xmlns:cc="http://creativecommons.org/ns#"
   xmlns:rdf="http://www.w3.org/1999/02/22-rdf-syntax-ns#"
   xmlns:svg="http://www.w3.org/2000/svg"
   xmlns="http://www.w3.org/2000/svg"
   xmlns:sodipodi="http://sodipodi.sourceforge.net/DTD/sodipodi-0.dtd"
   xmlns:inkscape="http://www.inkscape.org/namespaces/inkscape"
   width="95px"
   height="18px"
   viewBox="0 0 95 18"
   version="1.1"
   id="svg13"
   sodipodi:docname="system.svg"
   inkscape:version="0.92.4 (5da689c313, 2019-01-14)">
  <metadata
     id="metadata17">
    <rdf:RDF>
      <cc:Work
         rdf:about="">
        <dc:format>image/svg+xml</dc:format>
        <dc:type
           rdf:resource="http://purl.org/dc/dcmitype/StillImage" />
      </cc:Work>
    </rdf:RDF>
  </metadata>
  <sodipodi:namedview
     pagecolor="#ffffff"
     bordercolor="#666666"
     borderopacity="1"
     objecttolerance="10"
     gridtolerance="10"
     guidetolerance="10"
     inkscape:pageopacity="0"
     inkscape:pageshadow="2"
     inkscape:window-width="1920"
     inkscape:window-height="1018"
     id="namedview15"
     showgrid="false"
     inkscape:zoom="4"
     inkscape:cx="47.5"
     inkscape:cy="9"
     inkscape:window-x="-8"
     inkscape:window-y="-8"
     inkscape:window-maximized="1"
     inkscape:current-layer="svg13" />
  <!-- Generator: Sketch 45.1 (43504) - http://www.bohemiancoding.com/sketch -->
  <title
     id="title2">system</title>
  <desc
     id="desc4">Created with Sketch.</desc>
  <defs
     id="defs6" />
  <path
     d="m 16.708,14 h -1.862 l -0.84,-2.366 H 10.744 L 9.904,14 H 8.042 l 3.486,-9.8 h 1.694 z M 13.39,9.898 12.368,7.028 11.36,9.898 Z M 23.652,14 H 17.828 V 4.2 h 1.792 v 8.064 h 4.032 z m 7,0 H 24.828 V 4.2 h 1.792 v 8.064 h 4.032 z m 8.526,0.196 c -1.390674,0 -2.536329,-0.468995 -3.437,-1.407 -0.900671,-0.938005 -1.351,-2.172326 -1.351,-3.703 0,-1.5213409 0.452662,-2.748662 1.358,-3.682 0.905338,-0.933338 2.081326,-1.4 3.528,-1.4 0.494669,0 1.021997,0.053666 1.582,0.161 0.560003,0.1073339 1.012665,0.2449992 1.358,0.413 L 42.02,6.286 c -0.914671,-0.3733352 -1.815329,-0.56 -2.702,-0.56 -0.980005,0 -1.719664,0.3056636 -2.219,0.917 -0.499336,0.6113364 -0.749,1.4163283 -0.749,2.415 0,1.036005 0.261331,1.86433 0.784,2.485 0.522669,0.62067 1.278662,0.931 2.268,0.931 0.401335,0 0.849331,-0.05133 1.344,-0.154 V 10.57 H 39.668 V 9.086 h 2.87 v 4.368 c -0.354668,0.205334 -0.86333,0.380333 -1.526,0.525 -0.66267,0.144667 -1.273997,0.217 -1.834,0.217 z M 51.904,14 h -1.862 l -0.84,-2.366 H 45.94 L 45.1,14 h -1.862 l 3.486,-9.8 h 1.694 z M 48.586,9.898 47.564,7.028 46.556,9.898 Z M 62.992,14 H 61.13 L 60.29,7.434 57.784,11.942 55.264,7.448 54.424,14 H 52.562 L 53.92,4.2 h 1.47 l 2.394,4.466 2.38,-4.466 h 1.47 z m 8.036,0 H 64.616 V 4.2 h 6.272 V 5.936 H 66.45 v 2.086 h 3.444 V 9.758 H 66.45 v 2.506 h 4.578 z m 4.382,0.196 c -0.700003,0 -1.33933,-0.07 -1.918,-0.21 -0.57867,-0.140001 -1.021999,-0.307999 -1.33,-0.504 l 0.21,-2.044 c 0.298668,0.289335 0.716331,0.534332 1.253,0.735 0.536669,0.200668 1.145663,0.301 1.827,0.301 1.166673,0 1.75,-0.354663 1.75,-1.064 0,-0.196001 -0.04667,-0.373332 -0.14,-0.532 C 76.96867,10.719333 76.868334,10.588667 76.761,10.486 76.653666,10.383333 76.474001,10.273667 76.222,10.157 75.969999,10.040333 75.774001,9.9563336 75.634,9.905 75.493999,9.8536664 75.256002,9.7720006 74.92,9.66 74.630665,9.5666662 74.430001,9.4966669 74.318,9.45 L 73.758,9.212 C 73.496665,9.1093328 73.305334,9.0183337 73.184,8.939 73.062666,8.8596663 72.913334,8.7476674 72.736,8.603 72.558666,8.4583326 72.428,8.3113341 72.344,8.162 72.26,8.0126659 72.185334,7.833001 72.12,7.623 72.054666,7.412999 72.022,7.1866679 72.022,6.944 c 0,-0.7653372 0.28933,-1.4466637 0.868,-2.044 0.57867,-0.5973363 1.469994,-0.896 2.674,-0.896 0.625336,0 1.229664,0.079333 1.813,0.238 0.583336,0.1586675 1.019665,0.3313324 1.309,0.518 l -0.182,1.834 c -1.073339,-0.5880029 -2.029996,-0.882 -2.87,-0.882 -0.476002,0 -0.893665,0.079333 -1.253,0.238 -0.359335,0.1586675 -0.539,0.4246648 -0.539,0.798 0,0.3546684 0.163332,0.6276657 0.49,0.819 0.326668,0.1913343 0.82133,0.3896656 1.484,0.595 0.345335,0.1026672 0.608999,0.1866663 0.791,0.252 0.182001,0.065334 0.431665,0.1633327 0.749,0.294 0.317335,0.1306673 0.564666,0.2683326 0.742,0.413 0.177334,0.1446674 0.361666,0.321999 0.553,0.532 0.191334,0.210001 0.331333,0.457332 0.42,0.742 0.08867,0.284668 0.133,0.599665 0.133,0.945 0,0.261335 -0.02333,0.506332 -0.07,0.735 -0.04667,0.228668 -0.151666,0.478332 -0.315,0.749 -0.163334,0.270668 -0.377999,0.501666 -0.644,0.693 -0.266001,0.191334 -0.634664,0.352333 -1.106,0.483 -0.471336,0.130667 -1.02433,0.196 -1.659,0.196 z"
     id="ALL-GAMES-Copy"
     inkscape:connector-curvature="0"
     style="fill:#ffffff;fill-rule:evenodd;stroke:none;stroke-width:1" />
  <path
     d="M 94.493919,10.569595 C 94.421158,10.292436 94.2611,10.083796 94.013436,9.9438448 l -2.147593,-1.243299 2.147593,-1.2433556 c 0.247664,-0.139951 0.407807,-0.3484494 0.480483,-0.6256933 0.07256,-0.2772156 0.039,-0.5396131 -0.101012,-0.7871644 L 93.876228,5.1562699 C 93.736305,4.9086337 93.527863,4.74852 93.250506,4.6758439 92.973319,4.6033092 92.711176,4.6369325 92.463427,4.7769684 L 90.315833,6.0120948 V 3.5334714 c 0,-0.2799303 -0.102397,-0.5221369 -0.306964,-0.7266764 C 89.804386,2.6022556 89.562123,2.5 89.282277,2.5 h -1.033302 c -0.279958,0 -0.522137,0.1023404 -0.726676,0.306795 -0.204511,0.2045112 -0.306823,0.4467461 -0.306823,0.7266764 V 6.0120948 L 85.067854,4.7768835 C 84.820218,4.6368477 84.55782,4.6031113 84.280661,4.6757591 84.003445,4.74852 83.794862,4.9085489 83.654911,5.156185 l -0.516679,0.8880909 c -0.140036,0.2475513 -0.173631,0.5099489 -0.100983,0.7871644 0.07279,0.2771591 0.23279,0.4857706 0.480426,0.6256934 l 2.147622,1.2434687 -2.147622,1.2432989 c -0.247636,0.1399507 -0.40775,0.3484777 -0.480426,0.6257497 -0.07262,0.277159 -0.03894,0.539415 0.100983,0.786967 l 0.516707,0.888175 c 0.139895,0.24775 0.348393,0.407807 0.625694,0.480596 0.277272,0.07245 0.539556,0.03888 0.787192,-0.101237 l 2.147622,-1.23524 v 2.478765 c 0,0.279704 0.102284,0.522193 0.306824,0.726591 0.204539,0.204568 0.446802,0.306767 0.726676,0.306767 h 1.033302 c 0.279845,0 0.522193,-0.102171 0.726563,-0.306767 0.204681,-0.204426 0.306965,-0.446915 0.306965,-0.726591 V 11.38911 l 2.147593,1.235239 c 0.24775,0.139923 0.509893,0.173716 0.78708,0.10104 0.277244,-0.07279 0.485799,-0.232733 0.625722,-0.480482 l 0.516679,-0.888091 c 0.140064,-0.247721 0.173659,-0.510062 0.101068,-0.787221 z"
     id="path4676"
     inkscape:connector-curvature="0"
     style="fill:#bba358;fill-rule:nonzero;stroke:none;stroke-width:1" />
</svg>
