<?xml version="1.0" encoding="UTF-8" standalone="no"?>
<svg
   xmlns:dc="http://purl.org/dc/elements/1.1/"
   xmlns:cc="http://creativecommons.org/ns#"
   xmlns:rdf="http://www.w3.org/1999/02/22-rdf-syntax-ns#"
   xmlns:svg="http://www.w3.org/2000/svg"
   xmlns="http://www.w3.org/2000/svg"
   xmlns:sodipodi="http://sodipodi.sourceforge.net/DTD/sodipodi-0.dtd"
   xmlns:inkscape="http://www.inkscape.org/namespaces/inkscape"
   width="117px"
   height="18px"
   viewBox="0 0 117 18"
   version="1.1"
   id="svg12"
   sodipodi:docname="system.svg"
   inkscape:version="0.92.4 (5da689c313, 2019-01-14)">
  <metadata
     id="metadata16">
    <rdf:RDF>
      <cc:Work
         rdf:about="">
        <dc:format>image/svg+xml</dc:format>
        <dc:type
           rdf:resource="http://purl.org/dc/dcmitype/StillImage" />
        <dc:title>system</dc:title>
      </cc:Work>
    </rdf:RDF>
  </metadata>
  <sodipodi:namedview
     pagecolor="#ffffff"
     bordercolor="#666666"
     borderopacity="1"
     objecttolerance="10"
     gridtolerance="10"
     guidetolerance="10"
     inkscape:pageopacity="0"
     inkscape:pageshadow="2"
     inkscape:window-width="1920"
     inkscape:window-height="1018"
     id="namedview14"
     showgrid="false"
     inkscape:zoom="3.2478632"
     inkscape:cx="101.11826"
     inkscape:cy="8.9999999"
     inkscape:window-x="-8"
     inkscape:window-y="-8"
     inkscape:window-maximized="1"
     inkscape:current-layer="svg12" />
  <!-- Generator: Sketch 45 (43475) - http://www.bohemiancoding.com/sketch -->
  <title
     id="title2">system</title>
  <desc
     id="desc4">Created with Sketch.</desc>
  <defs
     id="defs6" />
  <g
     id="text1795"
     style="font-style:normal;font-variant:normal;font-weight:normal;font-stretch:normal;font-size:13.96413803px;line-height:1.25;font-family:sans-serif;-inkscape-font-specification:sans-serif;letter-spacing:0px;word-spacing:0px;fill:#ffffff;fill-opacity:1;stroke:none;stroke-width:0.65456897"
     aria-label="PC ENGINE CD">
    <path
       inkscape:connector-curvature="0"
       id="path1803"
       style="font-style:normal;font-variant:normal;font-weight:bold;font-stretch:normal;font-family:sans-serif;-inkscape-font-specification:'sans-serif Bold';fill:#ffffff;stroke-width:0.65456897"
       d="m 13.130066,6.8530409 q 0,0.6818427 -0.238645,1.3364116 -0.238645,0.6477506 -0.681843,1.0909483 -0.60684,0.6000216 -1.356867,0.9068512 -0.743208,0.306829 -1.8546119,0.306829 h -1.629604 v 3.306937 H 4.7502192 V 3.6483803 h 4.3092457 q 0.9682171,0 1.6296041,0.1704607 0.668206,0.1636422 1.179588,0.4977451 0.613658,0.4022872 0.934124,1.0295825 0.327285,0.6272952 0.327285,1.5068723 z m -2.706916,0.061366 q 0,-0.4295609 -0.231826,-0.7363901 Q 9.9594973,5.864369 9.652668,5.7416373 9.2435624,5.5779951 8.8549121,5.5643582 8.4662618,5.5439029 7.8185112,5.5439029 H 7.3684951 V 8.5849213 H 8.118522 q 0.6682058,0 1.0977667,-0.081821 Q 9.652668,8.421279 9.9458604,8.1758157 10.198142,7.957626 10.307237,7.6576152 10.42315,7.350786 10.42315,6.9144069 Z" />
    <path
       inkscape:connector-curvature="0"
       id="path1805"
       style="font-style:normal;font-variant:normal;font-weight:bold;font-stretch:normal;font-family:sans-serif;-inkscape-font-specification:'sans-serif Bold';fill:#ffffff;stroke-width:0.65456897"
       d="m 19.566661,13.998752 q -1.131859,0 -2.093257,-0.334103 -0.95458,-0.334103 -1.643241,-0.99549 -0.688661,-0.661387 -1.070493,-1.650059 -0.375014,-0.988672 -0.375014,-2.2841733 0,-1.2068616 0.361377,-2.188715 0.361376,-0.9818535 1.050038,-1.6841514 0.661387,-0.6750243 1.636422,-1.0432193 0.981853,-0.3681951 2.140986,-0.3681951 0.640932,0 1.152314,0.075003 0.518201,0.068184 0.95458,0.1840975 0.456834,0.1295501 0.82503,0.2931924 0.375013,0.1568238 0.654568,0.2931923 v 2.4614521 h -0.30001 Q 22.669045,6.5939407 22.375852,6.3689326 22.089478,6.1439245 21.721283,5.9257348 21.34627,5.7075452 20.909891,5.5575398 20.473511,5.4075344 19.975766,5.4075344 q -0.552292,0 -1.050038,0.1772791 -0.497745,0.1704607 -0.920487,0.5727478 -0.402287,0.3886504 -0.654569,1.0295825 -0.245463,0.6409321 -0.245463,1.5546013 0,0.9545797 0.265918,1.5955119 0.272737,0.640932 0.681843,1.009127 0.415924,0.375014 0.927306,0.538656 0.511382,0.156824 1.009127,0.156824 0.47729,0 0.940943,-0.143187 0.470471,-0.143187 0.86594,-0.388651 0.334103,-0.197734 0.620477,-0.422742 0.286374,-0.225008 0.470471,-0.38865 h 0.272737 v 2.42736 q -0.381831,0.17046 -0.729571,0.320466 -0.34774,0.150005 -0.729572,0.2591 -0.497745,0.143187 -0.934124,0.218189 -0.43638,0.075 -1.200043,0.075 z" />
    <path
       inkscape:connector-curvature="0"
       id="path1807"
       style="font-style:normal;font-variant:normal;font-weight:bold;font-stretch:normal;font-family:sans-serif;-inkscape-font-specification:'sans-serif Bold';fill:#ffffff;stroke-width:0.65456897"
       d="M 37.212748,13.801018 H 29.869303 V 3.6483803 h 7.343445 v 1.9637069 h -4.738806 v 1.7523357 h 4.397885 v 1.9637069 h -4.397885 v 2.5091812 h 4.738806 z" />
    <path
       inkscape:connector-curvature="0"
       id="path1809"
       style="font-style:normal;font-variant:normal;font-weight:bold;font-stretch:normal;font-family:sans-serif;-inkscape-font-specification:'sans-serif Bold';fill:#ffffff;stroke-width:0.65456897"
       d="M 48.647252,13.801018 H 46.124434 L 41.815188,6.8325856 V 13.801018 H 39.415102 V 3.6483803 h 3.129658 l 3.702405,5.816118 v -5.816118 h 2.400087 z" />
    <path
       inkscape:connector-curvature="0"
       id="path1811"
       style="font-style:normal;font-variant:normal;font-weight:bold;font-stretch:normal;font-family:sans-serif;-inkscape-font-specification:'sans-serif Bold';fill:#ffffff;stroke-width:0.65456897"
       d="m 60.231758,13.221451 q -0.681843,0.265919 -1.806883,0.531838 -1.12504,0.2591 -2.243262,0.2591 -2.591003,0 -4.056964,-1.404596 -1.465962,-1.411414 -1.465962,-3.8933216 0,-2.3659941 1.479599,-3.8115006 1.479598,-1.4523249 4.125148,-1.4523249 1.002308,0 1.909159,0.1840975 0.906851,0.1772791 2.018255,0.7159349 V 6.7303092 H 59.897655 Q 59.706739,6.5871222 59.338544,6.328022 58.970349,6.0621034 58.629428,5.8780059 58.233959,5.6598162 57.702122,5.5029924 57.177103,5.3461686 56.5839,5.3461686 q -0.69548,0 -1.261409,0.2045528 -0.56593,0.2045528 -1.015946,0.6272952 -0.429561,0.4091056 -0.681842,1.0432193 -0.245464,0.6272953 -0.245464,1.4523249 0,1.6841512 0.893214,2.5773652 0.893214,0.893214 2.638731,0.893214 0.150006,0 0.327285,-0.0068 0.184097,-0.0068 0.334103,-0.02046 V 10.1259 H 55.547499 V 8.2099078 h 4.684259 z" />
    <path
       inkscape:connector-curvature="0"
       id="path1813"
       style="font-style:normal;font-variant:normal;font-weight:bold;font-stretch:normal;font-family:sans-serif;-inkscape-font-specification:'sans-serif Bold';fill:#ffffff;stroke-width:0.65456897"
       d="M 68.059312,13.801018 H 62.113644 V 12.000953 H 63.77734 V 5.448445 H 62.113644 V 3.6483803 h 5.945668 V 5.448445 h -1.663696 v 6.552508 h 1.663696 z" />
    <path
       inkscape:connector-curvature="0"
       id="path1815"
       style="font-style:normal;font-variant:normal;font-weight:bold;font-stretch:normal;font-family:sans-serif;-inkscape-font-specification:'sans-serif Bold';fill:#ffffff;stroke-width:0.65456897"
       d="M 79.439263,13.801018 H 76.916445 L 72.607199,6.8325856 V 13.801018 H 70.207113 V 3.6483803 h 3.129658 l 3.702406,5.816118 v -5.816118 h 2.400086 z" />
    <path
       inkscape:connector-curvature="0"
       id="path1817"
       style="font-style:normal;font-variant:normal;font-weight:bold;font-stretch:normal;font-family:sans-serif;-inkscape-font-specification:'sans-serif Bold';fill:#ffffff;stroke-width:0.65456897"
       d="M 89.387351,13.801018 H 82.043905 V 3.6483803 h 7.343446 v 1.9637069 h -4.738807 v 1.7523357 h 4.397885 v 1.9637069 h -4.397885 v 2.5091812 h 4.738807 z" />
    <path
       inkscape:connector-curvature="0"
       id="path1819"
       style="font-style:normal;font-variant:normal;font-weight:bold;font-stretch:normal;font-family:sans-serif;-inkscape-font-specification:'sans-serif Bold';fill:#ffffff;stroke-width:0.65456897"
       d="m 100.9514,13.998752 q -1.131857,0 -2.093256,-0.334103 -0.954579,-0.334103 -1.64324,-0.99549 -0.688662,-0.661387 -1.070493,-1.650059 -0.375014,-0.988672 -0.375014,-2.2841733 0,-1.2068616 0.361377,-2.188715 0.361376,-0.9818535 1.050037,-1.6841514 0.661388,-0.6750243 1.636423,-1.0432193 0.981853,-0.3681951 2.140986,-0.3681951 0.64093,0 1.15231,0.075003 0.5182,0.068184 0.95458,0.1840975 0.45684,0.1295501 0.82503,0.2931924 0.37502,0.1568238 0.65457,0.2931923 v 2.4614521 h -0.30001 q -0.19091,-0.1636422 -0.48411,-0.3886503 -0.28637,-0.2250081 -0.65457,-0.4431978 -0.37501,-0.2181896 -0.81139,-0.368195 -0.43638,-0.1500054 -0.93412,-0.1500054 -0.5523,0 -1.05004,0.1772791 -0.497746,0.1704607 -0.920488,0.5727478 -0.402288,0.3886504 -0.654569,1.0295825 -0.245464,0.6409321 -0.245464,1.5546013 0,0.9545797 0.265919,1.5955116 0.272737,0.640932 0.681843,1.009127 0.415924,0.375014 0.927309,0.538656 0.51138,0.156824 1.00912,0.156824 0.47729,0 0.94095,-0.143187 0.47047,-0.143187 0.86594,-0.388651 0.3341,-0.197734 0.62047,-0.422742 0.28638,-0.225008 0.47048,-0.38865 h 0.27273 v 2.42736 q -0.38183,0.17046 -0.72957,0.320466 -0.34774,0.150005 -0.72957,0.2591 -0.49775,0.143187 -0.93413,0.218189 -0.43637,0.075 -1.20004,0.075 z" />
    <path
       inkscape:connector-curvature="0"
       id="path1821"
       style="font-style:normal;font-variant:normal;font-weight:bold;font-stretch:normal;font-family:sans-serif;-inkscape-font-specification:'sans-serif Bold';fill:#ffffff;stroke-width:0.65456897"
       d="m 116.07467,8.7349267 q 0,1.4182323 -0.64775,2.5432733 -0.64775,1.118222 -1.63642,1.718243 -0.74321,0.450017 -1.6296,0.627296 -0.8864,0.177279 -2.10008,0.177279 h -3.57967 V 3.6483803 h 3.68195 q 1.24095,0 2.14098,0.2113712 0.90003,0.2045528 1.51369,0.5863847 1.05004,0.6409321 1.65006,1.7318804 0.60684,1.0841299 0.60684,2.5569101 z m -2.70691,-0.020455 q 0,-1.0023087 -0.3682,-1.7114251 -0.36137,-0.7159348 -1.15231,-1.118222 -0.40229,-0.1977344 -0.82503,-0.2659187 -0.41593,-0.075003 -1.26141,-0.075003 h -0.66139 v 6.3547741 h 0.66139 q 0.93412,0 1.3705,-0.08182 0.43638,-0.08864 0.85231,-0.313648 0.71593,-0.409106 1.05003,-1.090948 0.33411,-0.6886614 0.33411,-1.6977893 z" />
  </g>
</svg>
