<?xml version="1.0" encoding="UTF-8" standalone="no"?>
<svg
   xmlns:dc="http://purl.org/dc/elements/1.1/"
   xmlns:cc="http://creativecommons.org/ns#"
   xmlns:rdf="http://www.w3.org/1999/02/22-rdf-syntax-ns#"
   xmlns:svg="http://www.w3.org/2000/svg"
   xmlns="http://www.w3.org/2000/svg"
   xmlns:sodipodi="http://sodipodi.sourceforge.net/DTD/sodipodi-0.dtd"
   xmlns:inkscape="http://www.inkscape.org/namespaces/inkscape"
   width="117px"
   height="18px"
   viewBox="0 0 117 18"
   version="1.1"
   id="svg12"
   sodipodi:docname="system.svg"
   inkscape:version="0.92.4 (5da689c313, 2019-01-14)">
  <metadata
     id="metadata16">
    <rdf:RDF>
      <cc:Work
         rdf:about="">
        <dc:format>image/svg+xml</dc:format>
        <dc:type
           rdf:resource="http://purl.org/dc/dcmitype/StillImage" />
        <dc:title>system</dc:title>
      </cc:Work>
    </rdf:RDF>
  </metadata>
  <sodipodi:namedview
     pagecolor="#ffffff"
     bordercolor="#666666"
     borderopacity="1"
     objecttolerance="10"
     gridtolerance="10"
     guidetolerance="10"
     inkscape:pageopacity="0"
     inkscape:pageshadow="2"
     inkscape:window-width="1920"
     inkscape:window-height="1018"
     id="namedview14"
     showgrid="false"
     inkscape:zoom="3.2478632"
     inkscape:cx="5.1944251"
     inkscape:cy="-59.025832"
     inkscape:window-x="-8"
     inkscape:window-y="-8"
     inkscape:window-maximized="1"
     inkscape:current-layer="svg12" />
  <!-- Generator: Sketch 45 (43475) - http://www.bohemiancoding.com/sketch -->
  <title
     id="title2">system</title>
  <desc
     id="desc4">Created with Sketch.</desc>
  <defs
     id="defs6" />
  <g
     id="text2481"
     style="font-style:normal;font-variant:normal;font-weight:normal;font-stretch:normal;font-size:21.33333397px;line-height:1.25;font-family:sans-serif;-inkscape-font-specification:sans-serif;letter-spacing:0px;word-spacing:0px;fill:#ffffff;fill-opacity:1;stroke:none"
     aria-label="PSP">
    <path
       inkscape:connector-curvature="0"
       id="path2488"
       style="font-style:normal;font-variant:normal;font-weight:bold;font-stretch:normal;font-family:sans-serif;-inkscape-font-specification:'sans-serif Bold';fill:#ffffff"
       d="m 50.189145,6.1538413 q 0,1.0416667 -0.364584,2.0416668 -0.364583,0.9895833 -1.041666,1.6666667 -0.927084,0.9166662 -2.072917,1.3854162 -1.135417,0.468751 -2.833334,0.468751 h -2.489583 v 5.052083 h -4 V 1.2580079 h 6.583333 q 1.479167,0 2.489584,0.2604166 1.020833,0.25 1.802083,0.7604167 0.9375,0.6145834 1.427084,1.5729167 0.5,0.9583334 0.5,2.3020834 z m -4.135417,0.09375 q 0,-0.65625 -0.354167,-1.125 -0.354167,-0.4791667 -0.822917,-0.6666667 -0.625,-0.25 -1.21875,-0.2708333 -0.59375,-0.03125 -1.583333,-0.03125 h -0.6875 v 4.6458335 h 1.145833 q 1.020834,0 1.677084,-0.1250001 0.666666,-0.125 1.114583,-0.5 0.385417,-0.3333333 0.552083,-0.7916667 0.177084,-0.46875 0.177084,-1.1354167 z" />
    <path
       inkscape:connector-curvature="0"
       id="path2490"
       style="font-style:normal;font-variant:normal;font-weight:bold;font-stretch:normal;font-family:sans-serif;-inkscape-font-specification:'sans-serif Bold';fill:#ffffff"
       d="m 65.428728,11.893425 q 0,2.291667 -1.947917,3.729167 -1.9375,1.427083 -5.270833,1.427083 -1.927084,0 -3.364584,-0.333333 -1.427083,-0.34375 -2.677083,-0.864584 v -3.71875 h 0.4375 q 1.239583,0.989584 2.770833,1.520834 1.541667,0.53125 2.958334,0.53125 0.364583,0 0.958333,-0.0625 0.59375,-0.0625 0.96875,-0.208334 0.458333,-0.1875 0.75,-0.46875 0.302083,-0.28125 0.302083,-0.833333 0,-0.510417 -0.4375,-0.875 -0.427083,-0.375 -1.260416,-0.572917 -0.875,-0.208333 -1.854167,-0.385417 -0.96875,-0.1875 -1.822917,-0.46875 -1.958333,-0.6354162 -2.822916,-1.7187496 -0.854167,-1.09375 -0.854167,-2.7083334 0,-2.1666667 1.9375,-3.5312501 1.947917,-1.37500005 5,-1.37500005 1.53125,0 3.020833,0.30208335 1.500001,0.2916667 2.593751,0.7395833 v 3.5729168 h -0.427084 q -0.9375,-0.75 -2.302083,-1.25 -1.354167,-0.5104167 -2.770834,-0.5104167 -0.5,0 -1,0.072917 -0.489583,0.0625 -0.947916,0.25 -0.40625,0.15625 -0.697917,0.4791667 -0.291667,0.3125 -0.291667,0.71875 0,0.6145833 0.46875,0.9479167 0.46875,0.3229167 1.770834,0.59375 0.854166,0.1770833 1.635416,0.34375 0.791667,0.1666667 1.697917,0.4583334 1.78125,0.5833333 2.625,1.59375 0.854167,0.9999996 0.854167,2.6041666 z" />
    <path
       inkscape:connector-curvature="0"
       id="path2492"
       style="font-style:normal;font-variant:normal;font-weight:bold;font-stretch:normal;font-family:sans-serif;-inkscape-font-specification:'sans-serif Bold';fill:#ffffff"
       d="m 80.980813,6.1538413 q 0,1.0416667 -0.364584,2.0416668 -0.364583,0.9895833 -1.041667,1.6666667 -0.927083,0.9166662 -2.072916,1.3854162 -1.135417,0.468751 -2.833334,0.468751 h -2.489583 v 5.052083 h -4 V 1.2580079 h 6.583333 q 1.479167,0 2.489584,0.2604166 1.020833,0.25 1.802083,0.7604167 0.9375,0.6145834 1.427083,1.5729167 0.500001,0.9583334 0.500001,2.3020834 z m -4.135417,0.09375 q 0,-0.65625 -0.354167,-1.125 -0.354167,-0.4791667 -0.822917,-0.6666667 -0.625,-0.25 -1.21875,-0.2708333 -0.59375,-0.03125 -1.583333,-0.03125 h -0.6875 v 4.6458335 h 1.145833 q 1.020834,0 1.677084,-0.1250001 0.666666,-0.125 1.114583,-0.5 0.385417,-0.3333333 0.552083,-0.7916667 0.177084,-0.46875 0.177084,-1.1354167 z" />
  </g>
</svg>
