<?xml version="1.0" encoding="UTF-8" standalone="no"?>
<svg
   xmlns:dc="http://purl.org/dc/elements/1.1/"
   xmlns:cc="http://creativecommons.org/ns#"
   xmlns:rdf="http://www.w3.org/1999/02/22-rdf-syntax-ns#"
   xmlns:svg="http://www.w3.org/2000/svg"
   xmlns="http://www.w3.org/2000/svg"
   xmlns:sodipodi="http://sodipodi.sourceforge.net/DTD/sodipodi-0.dtd"
   xmlns:inkscape="http://www.inkscape.org/namespaces/inkscape"
   width="117px"
   height="18px"
   viewBox="0 0 117 18"
   version="1.1"
   id="svg12"
   sodipodi:docname="system.svg"
   inkscape:version="0.92.4 (5da689c313, 2019-01-14)">
  <metadata
     id="metadata16">
    <rdf:RDF>
      <cc:Work
         rdf:about="">
        <dc:format>image/svg+xml</dc:format>
        <dc:type
           rdf:resource="http://purl.org/dc/dcmitype/StillImage" />
        <dc:title>system</dc:title>
      </cc:Work>
    </rdf:RDF>
  </metadata>
  <sodipodi:namedview
     pagecolor="#ffffff"
     bordercolor="#666666"
     borderopacity="1"
     objecttolerance="10"
     gridtolerance="10"
     guidetolerance="10"
     inkscape:pageopacity="0"
     inkscape:pageshadow="2"
     inkscape:window-width="1920"
     inkscape:window-height="1018"
     id="namedview14"
     showgrid="false"
     inkscape:zoom="3.2478632"
     inkscape:cx="101.11826"
     inkscape:cy="8.9999999"
     inkscape:window-x="-8"
     inkscape:window-y="-8"
     inkscape:window-maximized="1"
     inkscape:current-layer="svg12" />
  <!-- Generator: Sketch 45 (43475) - http://www.bohemiancoding.com/sketch -->
  <title
     id="title2">system</title>
  <desc
     id="desc4">Created with Sketch.</desc>
  <defs
     id="defs6" />
  <g
     id="text1486"
     style="font-style:normal;font-variant:normal;font-weight:bold;font-stretch:normal;font-size:21.33333397px;line-height:1.25;font-family:sans-serif;-inkscape-font-specification:'sans-serif Bold';letter-spacing:0px;word-spacing:0px;fill:#ffffff;fill-opacity:1;stroke:none"
     aria-label="CPS 3">
    <path
       inkscape:connector-curvature="0"
       id="path1494"
       d="m 30.234321,17.686294 q -1.729166,0 -3.197917,-0.510417 -1.458333,-0.510416 -2.510416,-1.520833 -1.052084,-1.010417 -1.635417,-2.520834 -0.572917,-1.510416 -0.572917,-3.489583 0,-1.84375 0.552084,-3.3437501 0.552083,-1.5 1.604166,-2.5729167 1.010417,-1.0312501 2.5,-1.5937501 1.500001,-0.5625 3.270834,-0.5625 0.979167,0 1.760417,0.1145834 0.791666,0.1041666 1.458333,0.28125 0.697917,0.1979166 1.260417,0.4479166 0.572916,0.2395834 1,0.4479167 v 3.7604168 h -0.458334 q -0.291666,-0.25 -0.739583,-0.59375 -0.4375,-0.34375 -1,-0.6770834 -0.572917,-0.3333333 -1.239583,-0.5625 -0.666667,-0.2291667 -1.427084,-0.2291667 -0.84375,0 -1.604166,0.2708334 -0.760417,0.2604167 -1.406251,0.875 -0.614583,0.59375 -1,1.5729167 -0.375,0.9791667 -0.375,2.3750001 0,1.4583333 0.40625,2.4375003 0.416667,0.979166 1.041667,1.541666 0.635417,0.572917 1.416667,0.822917 0.78125,0.239584 1.541667,0.239584 0.729166,0 1.4375,-0.218751 0.71875,-0.21875 1.322916,-0.59375 0.510417,-0.302083 0.947917,-0.645833 0.4375,-0.34375 0.71875,-0.59375 h 0.416667 v 3.708334 q -0.583334,0.260416 -1.114584,0.489583 -0.53125,0.229167 -1.114583,0.395833 -0.760417,0.21875 -1.427083,0.333334 -0.666667,0.114583 -1.833334,0.114583 z" />
    <path
       inkscape:connector-curvature="0"
       id="path1496"
       d="m 51.484322,6.7696269 q 0,1.0416667 -0.364583,2.0416668 -0.364584,0.9895833 -1.041667,1.6666663 -0.927083,0.916667 -2.072917,1.385417 -1.135416,0.46875 -2.833333,0.46875 h -2.489584 v 5.052084 h -4 V 1.8737935 h 6.583334 q 1.479167,0 2.489583,0.2604166 1.020834,0.25 1.802084,0.7604167 0.9375,0.6145834 1.427083,1.5729167 0.5,0.9583334 0.5,2.3020834 z m -4.135417,0.09375 q 0,-0.65625 -0.354166,-1.125 -0.354167,-0.4791667 -0.822917,-0.6666667 -0.625,-0.25 -1.21875,-0.2708333 -0.59375,-0.03125 -1.583334,-0.03125 h -0.6875 v 4.6458334 h 1.145834 q 1.020833,0 1.677083,-0.125 0.666667,-0.125 1.114584,-0.5 0.385416,-0.3333333 0.552083,-0.7916667 0.177083,-0.46875 0.177083,-1.1354167 z" />
    <path
       inkscape:connector-curvature="0"
       id="path1498"
       d="m 66.723905,12.50921 q 0,2.291667 -1.947916,3.729167 -1.9375,1.427084 -5.270834,1.427084 -1.927083,0 -3.364583,-0.333334 -1.427084,-0.34375 -2.677084,-0.864583 v -3.71875 h 0.4375 q 1.239584,0.989583 2.770834,1.520833 1.541666,0.53125 2.958333,0.53125 0.364583,0 0.958334,-0.0625 0.59375,-0.0625 0.96875,-0.208333 0.458333,-0.1875 0.75,-0.46875 0.302083,-0.28125 0.302083,-0.833334 0,-0.510416 -0.4375,-0.875 -0.427083,-0.375 -1.260417,-0.572916 -0.875,-0.208334 -1.854167,-0.385417 -0.96875,-0.1875 -1.822916,-0.46875 -1.958334,-0.635417 -2.822917,-1.71875 -0.854167,-1.09375 -0.854167,-2.7083334 0,-2.1666667 1.9375,-3.5312501 1.947917,-1.3750001 5.000001,-1.3750001 1.53125,0 3.020833,0.3020834 1.5,0.2916667 2.59375,0.7395833 v 3.5729168 h -0.427083 q -0.9375,-0.75 -2.302084,-1.25 -1.354166,-0.5104167 -2.770833,-0.5104167 -0.5,0 -1,0.072917 -0.489584,0.0625 -0.947917,0.25 -0.40625,0.15625 -0.697917,0.4791667 -0.291666,0.3125 -0.291666,0.71875 0,0.6145833 0.46875,0.9479167 0.46875,0.3229167 1.770833,0.59375 0.854167,0.1770833 1.635417,0.34375 0.791667,0.1666667 1.697917,0.4583333 1.78125,0.5833334 2.625,1.5937501 0.854166,1 0.854166,2.604166 z" />
    <path
       inkscape:connector-curvature="0"
       id="path1500"
       d="m 87.369739,10.113377 q 0.510417,0.4375 0.8125,1.020833 0.302084,0.583334 0.302084,1.552084 0,1.09375 -0.4375,2.041667 -0.427084,0.947916 -1.322917,1.625 -0.875,0.65625 -2.0625,1.010416 -1.177084,0.34375 -2.864584,0.34375 -1.927083,0 -3.3125,-0.302083 -1.375,-0.302083 -2.239583,-0.677083 V 13.32171 h 0.40625 q 0.895833,0.541667 2.135417,0.9375 1.25,0.395834 2.28125,0.395834 0.604166,0 1.3125,-0.09375 0.708333,-0.104167 1.197916,-0.4375 0.385417,-0.260417 0.614584,-0.625 0.229167,-0.375 0.229167,-1.072917 0,-0.677083 -0.3125,-1.041667 -0.312501,-0.375 -0.822917,-0.53125 -0.510417,-0.166666 -1.229167,-0.177083 -0.71875,-0.02083 -1.333333,-0.02083 H 79.869739 V 7.8842103 h 0.885417 q 0.8125,0 1.4375,-0.052083 0.625,-0.052083 1.0625,-0.2395834 0.458333,-0.1979166 0.6875,-0.5208333 0.229167,-0.3333334 0.229167,-0.96875 0,-0.4687501 -0.239584,-0.7500001 -0.239583,-0.2916666 -0.604167,-0.4583333 -0.40625,-0.1875 -0.958333,-0.25 -0.552083,-0.0625 -0.947917,-0.0625 -0.979166,0 -2.125,0.34375 -1.145833,0.3333333 -2.21875,0.96875 H 76.692656 V 2.5300435 q 0.854166,-0.34375 2.322916,-0.65625 1.46875,-0.3229167 2.979167,-0.3229167 1.46875,0 2.572917,0.2604167 1.104167,0.25 1.822917,0.6770833 0.854166,0.5104167 1.270833,1.2395834 0.416667,0.7291667 0.416667,1.7083334 0,1.2916667 -0.802084,2.3125 -0.802083,1.0104167 -2.114583,1.2916667 v 0.1458334 q 0.53125,0.072917 1.125,0.2916667 0.59375,0.21875 1.083333,0.6354166 z" />
  </g>
</svg>
