<?xml version="1.0" encoding="UTF-8" standalone="no"?>
<svg
   xmlns:dc="http://purl.org/dc/elements/1.1/"
   xmlns:cc="http://creativecommons.org/ns#"
   xmlns:rdf="http://www.w3.org/1999/02/22-rdf-syntax-ns#"
   xmlns:svg="http://www.w3.org/2000/svg"
   xmlns="http://www.w3.org/2000/svg"
   xmlns:sodipodi="http://sodipodi.sourceforge.net/DTD/sodipodi-0.dtd"
   xmlns:inkscape="http://www.inkscape.org/namespaces/inkscape"
   width="83px"
   height="18px"
   viewBox="0 0 83 18"
   version="1.1"
   id="svg12"
   sodipodi:docname="SUÇA.svg"
   inkscape:version="0.92.4 (5da689c313, 2019-01-14)">
  <metadata
     id="metadata16">
    <rdf:RDF>
      <cc:Work
         rdf:about="">
        <dc:format>image/svg+xml</dc:format>
        <dc:type
           rdf:resource="http://purl.org/dc/dcmitype/StillImage" />
        <dc:title>system</dc:title>
      </cc:Work>
    </rdf:RDF>
  </metadata>
  <sodipodi:namedview
     pagecolor="#ffffff"
     bordercolor="#666666"
     borderopacity="1"
     objecttolerance="10"
     gridtolerance="10"
     guidetolerance="10"
     inkscape:pageopacity="0"
     inkscape:pageshadow="2"
     inkscape:window-width="1920"
     inkscape:window-height="1018"
     id="namedview14"
     showgrid="false"
     inkscape:zoom="4.5783133"
     inkscape:cx="6.6421901"
     inkscape:cy="9.0000001"
     inkscape:window-x="-8"
     inkscape:window-y="-8"
     inkscape:window-maximized="1"
     inkscape:current-layer="svg12" />
  <!-- Generator: Sketch 45 (43475) - http://www.bohemiancoding.com/sketch -->
  <title
     id="title2">system</title>
  <desc
     id="desc4">Created with Sketch.</desc>
  <defs
     id="defs6" />
  <g
     id="g1162">
    <g
       aria-label="SAMMY"
       style="font-style:normal;font-variant:normal;font-weight:bold;font-stretch:normal;font-size:14.20067024px;line-height:1.25;font-family:sans-serif;-inkscape-font-specification:'sans-serif Bold';letter-spacing:0px;word-spacing:0px;fill:#ffffff;fill-opacity:1;stroke:none;stroke-width:0.53252518"
       id="text1158">
      <path
         d="m 22.696155,10.55085 q 0,1.525463 -1.296644,2.482344 -1.289709,0.949947 -3.508564,0.949947 -1.282775,0 -2.239656,-0.221885 -0.949947,-0.22882 -1.782018,-0.575516 v -2.47541 h 0.291225 q 0.825136,0.658723 1.844423,1.012353 1.02622,0.35363 1.969233,0.35363 0.242688,0 0.637921,-0.0416 0.395234,-0.0416 0.644855,-0.138678 0.305092,-0.124811 0.499242,-0.312027 0.201084,-0.187216 0.201084,-0.554713 0,-0.339762 -0.291225,-0.58245 Q 19.38174,10.19722 18.827027,10.065476 18.244577,9.9267972 17.592789,9.8089206 16.947934,9.68411 16.379353,9.4968941 15.075775,9.0739249 14.50026,8.3527971 13.931678,7.6247354 13.931678,6.5499777 q 0,-1.4422556 1.28971,-2.3505992 1.296643,-0.9152776 3.328282,-0.9152776 1.019286,0 2.010837,0.2010837 0.998485,0.1941498 1.726546,0.4923084 v 2.3783349 h -0.28429 Q 21.37871,5.8565856 20.470366,5.5237574 19.568956,5.1839952 18.625943,5.1839952 q -0.332828,0 -0.665656,0.048538 -0.325895,0.041603 -0.630987,0.1664141 -0.270423,0.1040088 -0.464573,0.3189604 -0.19415,0.2080176 -0.19415,0.4784405 0,0.4091013 0.312027,0.6309868 0.312026,0.2149516 1.178766,0.3952335 0.568582,0.1178767 1.088626,0.2288194 0.526978,0.1109427 1.130229,0.3050925 1.185701,0.3882996 1.747348,1.06089 0.568582,0.6656564 0.568582,1.7334796 z"
         style="fill:#ffffff;stroke-width:0.53252518"
         id="path1164"
         inkscape:connector-curvature="0" />
      <path
         d="m 34.067785,13.795925 h -2.752767 l -0.714193,-2.08711 H 26.7733 l -0.714194,2.08711 H 23.375679 L 27.189335,3.4713167 h 3.064794 z M 29.95597,9.8158545 28.687062,6.1131407 27.418155,9.8158545 Z"
         style="fill:#ffffff;stroke-width:0.53252518"
         id="path1166"
         inkscape:connector-curvature="0" />
      <path
         d="M 46.389362,13.795925 H 43.740604 V 6.8828059 L 41.826842,11.369053 H 39.989353 L 38.07559,6.8828059 V 13.795925 H 35.565511 V 3.4713167 h 3.092529 l 2.322863,5.179639 2.31593,-5.179639 h 3.092529 z"
         style="fill:#ffffff;stroke-width:0.53252518"
         id="path1168"
         inkscape:connector-curvature="0" />
      <path
         d="M 59.841171,13.795925 H 57.192413 V 6.8828059 l -1.913762,4.4862471 h -1.83749 L 51.527399,6.8828059 V 13.795925 H 49.01732 V 3.4713167 h 3.092529 l 2.322863,5.179639 2.31593,-5.179639 h 3.092529 z"
         style="fill:#ffffff;stroke-width:0.53252518"
         id="path1170"
         inkscape:connector-curvature="0" />
      <path
         d="M 71.552562,3.4713167 67.745839,9.8019866 V 13.795925 H 65.083213 V 9.9267972 L 61.214085,3.4713167 h 3.02319 l 2.232722,3.9939386 2.15645,-3.9939386 z"
         style="fill:#ffffff;stroke-width:0.53252518"
         id="path1172"
         inkscape:connector-curvature="0" />
    </g>
  </g>
</svg>
