<?xml version="1.0" encoding="UTF-8" standalone="no"?>
<svg
   xmlns:dc="http://purl.org/dc/elements/1.1/"
   xmlns:cc="http://creativecommons.org/ns#"
   xmlns:rdf="http://www.w3.org/1999/02/22-rdf-syntax-ns#"
   xmlns:svg="http://www.w3.org/2000/svg"
   xmlns="http://www.w3.org/2000/svg"
   xmlns:sodipodi="http://sodipodi.sourceforge.net/DTD/sodipodi-0.dtd"
   xmlns:inkscape="http://www.inkscape.org/namespaces/inkscape"
   width="117px"
   height="18px"
   viewBox="0 0 117 18"
   version="1.1"
   id="svg12"
   sodipodi:docname="system.svg"
   inkscape:version="0.92.4 (5da689c313, 2019-01-14)">
  <metadata
     id="metadata16">
    <rdf:RDF>
      <cc:Work
         rdf:about="">
        <dc:format>image/svg+xml</dc:format>
        <dc:type
           rdf:resource="http://purl.org/dc/dcmitype/StillImage" />
        <dc:title>system</dc:title>
      </cc:Work>
    </rdf:RDF>
  </metadata>
  <sodipodi:namedview
     pagecolor="#ffffff"
     bordercolor="#666666"
     borderopacity="1"
     objecttolerance="10"
     gridtolerance="10"
     guidetolerance="10"
     inkscape:pageopacity="0"
     inkscape:pageshadow="2"
     inkscape:window-width="1920"
     inkscape:window-height="1018"
     id="namedview14"
     showgrid="false"
     inkscape:zoom="3.2478632"
     inkscape:cx="5.1944251"
     inkscape:cy="-59.025832"
     inkscape:window-x="-8"
     inkscape:window-y="-8"
     inkscape:window-maximized="1"
     inkscape:current-layer="svg12" />
  <!-- Generator: Sketch 45 (43475) - http://www.bohemiancoding.com/sketch -->
  <title
     id="title2">system</title>
  <desc
     id="desc4">Created with Sketch.</desc>
  <defs
     id="defs6" />
  <g
     id="text2454"
     style="font-style:normal;font-variant:normal;font-weight:normal;font-stretch:normal;font-size:21.33333397px;line-height:1.25;font-family:sans-serif;-inkscape-font-specification:sans-serif;letter-spacing:0px;word-spacing:0px;fill:#ffffff;fill-opacity:1;stroke:none"
     aria-label="PORTS">
    <path
       inkscape:connector-curvature="0"
       id="path2461"
       style="font-style:normal;font-variant:normal;font-weight:bold;font-stretch:normal;font-family:sans-serif;-inkscape-font-specification:'sans-serif Bold';fill:#ffffff"
       d="m 33.254935,6.4617408 q 0,1.0416667 -0.364584,2.0416667 -0.364583,0.9895834 -1.041666,1.6666665 -0.927084,0.916667 -2.072917,1.385417 -1.135417,0.46875 -2.833333,0.46875 h -2.489584 v 5.052083 h -4 V 1.5659073 h 6.583334 q 1.479166,0 2.489583,0.2604167 1.020833,0.25 1.802083,0.7604167 0.9375,0.6145833 1.427084,1.5729167 0.5,0.9583334 0.5,2.3020834 z m -4.135417,0.09375 q 0,-0.65625 -0.354167,-1.125 -0.354166,-0.4791667 -0.822916,-0.6666667 -0.625,-0.25 -1.21875,-0.2708333 -0.59375,-0.03125 -1.583334,-0.03125 h -0.6875 v 4.6458334 h 1.145834 q 1.020833,0 1.677083,-0.125 0.666667,-0.125 1.114583,-0.5 0.385417,-0.3333333 0.552084,-0.7916667 0.177083,-0.46875 0.177083,-1.1354167 z" />
    <path
       inkscape:connector-curvature="0"
       id="path2463"
       style="font-style:normal;font-variant:normal;font-weight:bold;font-stretch:normal;font-family:sans-serif;-inkscape-font-specification:'sans-serif Bold';fill:#ffffff"
       d="m 51.161185,9.3263242 q 0,3.7083338 -2.125,5.8958338 -2.125,2.177083 -5.875,2.177083 -3.739584,0 -5.864584,-2.177083 -2.125,-2.1875 -2.125,-5.8958338 0,-3.7395834 2.125,-5.9062501 2.125,-2.1770834 5.864584,-2.1770834 3.729166,0 5.864583,2.1770834 2.135417,2.1666667 2.135417,5.9062501 z m -5.302084,3.9270838 q 0.583334,-0.708334 0.864584,-1.666667 0.28125,-0.96875 0.28125,-2.2708334 0,-1.3958334 -0.322917,-2.3750001 -0.322917,-0.9791667 -0.84375,-1.5833334 -0.53125,-0.625 -1.229167,-0.90625 -0.6875,-0.28125 -1.4375,-0.28125 -0.760416,0 -1.4375,0.2708333 -0.666666,0.2708334 -1.229166,0.8958334 -0.520834,0.5833333 -0.854167,1.6145834 -0.322917,1.0208333 -0.322917,2.375 0,1.3854168 0.3125,2.3645838 0.322917,0.96875 0.84375,1.583333 0.520834,0.614583 1.21875,0.90625 0.697917,0.291667 1.46875,0.291667 0.770834,0 1.46875,-0.291667 0.697917,-0.302083 1.21875,-0.927083 z" />
    <path
       inkscape:connector-curvature="0"
       id="path2465"
       style="font-style:normal;font-variant:normal;font-weight:bold;font-stretch:normal;font-family:sans-serif;-inkscape-font-specification:'sans-serif Bold';fill:#ffffff"
       d="m 62.900768,6.3159075 q 0,-0.5833334 -0.239583,-1.0000001 -0.239584,-0.4166666 -0.822917,-0.65625 -0.40625,-0.1666666 -0.947917,-0.1979166 -0.541666,-0.041667 -1.260416,-0.041667 h -1.447917 v 4.1770834 h 1.229167 q 0.958333,0 1.604166,-0.09375 0.645834,-0.09375 1.083334,-0.4270833 0.416666,-0.3229167 0.604166,-0.7083334 0.197917,-0.3958333 0.197917,-1.052083 z m 6.239583,10.7604165 h -4.885416 l -4.229167,-5.6875 h -1.84375 v 5.6875 H 54.202851 V 1.5659073 h 6.708334 q 1.375,0 2.364583,0.15625 0.989583,0.15625 1.854167,0.6770834 0.875,0.5208333 1.385416,1.3541667 0.520834,0.8229167 0.520834,2.0729167 0,1.7187501 -0.802084,2.8020834 -0.791666,1.0833334 -2.270833,1.8020835 z" />
    <path
       inkscape:connector-curvature="0"
       id="path2467"
       style="font-style:normal;font-variant:normal;font-weight:bold;font-stretch:normal;font-family:sans-serif;-inkscape-font-specification:'sans-serif Bold';fill:#ffffff"
       d="m 83.046604,4.5659074 h -4.84375 V 17.076324 h -4 V 4.5659074 h -4.84375 V 1.5659073 h 13.6875 z" />
    <path
       inkscape:connector-curvature="0"
       id="path2469"
       style="font-style:normal;font-variant:normal;font-weight:bold;font-stretch:normal;font-family:sans-serif;-inkscape-font-specification:'sans-serif Bold';fill:#ffffff"
       d="m 97.869518,12.201324 q 0,2.291667 -1.947917,3.729167 -1.9375,1.427083 -5.270833,1.427083 -1.927084,0 -3.364584,-0.333333 -1.427083,-0.34375 -2.677083,-0.864583 v -3.71875 h 0.4375 q 1.239583,0.989583 2.770833,1.520833 1.541667,0.53125 2.958334,0.53125 0.364583,0 0.958333,-0.0625 0.59375,-0.0625 0.96875,-0.208333 0.458334,-0.1875 0.75,-0.46875 0.302084,-0.28125 0.302084,-0.833334 0,-0.510416 -0.4375,-0.875 -0.427084,-0.375 -1.260417,-0.572916 -0.875,-0.208334 -1.854167,-0.385417 -0.96875,-0.1875 -1.822917,-0.46875 -1.958333,-0.6354167 -2.822916,-1.7187501 -0.854167,-1.09375 -0.854167,-2.7083334 0,-2.1666668 1.9375,-3.5312501 1.947917,-1.3750001 5,-1.3750001 1.53125,0 3.020834,0.3020834 1.5,0.2916666 2.59375,0.7395833 v 3.5729168 h -0.427084 q -0.9375,-0.75 -2.302083,-1.25 -1.354167,-0.5104167 -2.770833,-0.5104167 -0.5,0 -1,0.072917 -0.489584,0.0625 -0.947917,0.2500001 -0.40625,0.15625 -0.697917,0.4791666 -0.291667,0.3125 -0.291667,0.7187501 0,0.6145833 0.46875,0.9479167 0.46875,0.3229166 1.770834,0.59375 0.854167,0.1770833 1.635417,0.34375 0.791666,0.1666667 1.697916,0.4583333 1.78125,0.5833334 2.625,1.5937501 0.854167,1 0.854167,2.604166 z" />
  </g>
</svg>
