<?xml version="1.0" encoding="UTF-8" standalone="no"?>
<svg
   xmlns:dc="http://purl.org/dc/elements/1.1/"
   xmlns:cc="http://creativecommons.org/ns#"
   xmlns:rdf="http://www.w3.org/1999/02/22-rdf-syntax-ns#"
   xmlns:svg="http://www.w3.org/2000/svg"
   xmlns="http://www.w3.org/2000/svg"
   xmlns:sodipodi="http://sodipodi.sourceforge.net/DTD/sodipodi-0.dtd"
   xmlns:inkscape="http://www.inkscape.org/namespaces/inkscape"
   width="113px"
   height="18px"
   viewBox="0 0 113 18"
   version="1.1"
   id="svg14"
   sodipodi:docname="system.svg"
   inkscape:version="0.92.4 (5da689c313, 2019-01-14)">
  <metadata
     id="metadata18">
    <rdf:RDF>
      <cc:Work
         rdf:about="">
        <dc:format>image/svg+xml</dc:format>
        <dc:type
           rdf:resource="http://purl.org/dc/dcmitype/StillImage" />
      </cc:Work>
    </rdf:RDF>
  </metadata>
  <sodipodi:namedview
     pagecolor="#ffffff"
     bordercolor="#666666"
     borderopacity="1"
     objecttolerance="10"
     gridtolerance="10"
     guidetolerance="10"
     inkscape:pageopacity="0"
     inkscape:pageshadow="2"
     inkscape:window-width="1920"
     inkscape:window-height="1018"
     id="namedview16"
     showgrid="false"
     inkscape:zoom="3.3628319"
     inkscape:cx="56.5"
     inkscape:cy="9"
     inkscape:window-x="-8"
     inkscape:window-y="-8"
     inkscape:window-maximized="1"
     inkscape:current-layer="svg14" />
  <!-- Generator: Sketch 45 (43475) - http://www.bohemiancoding.com/sketch -->
  <title
     id="title2">system</title>
  <desc
     id="desc4">Created with Sketch.</desc>
  <defs
     id="defs6" />
  <path
     d="m 13.32,14.196 c -1.418674,0 -2.578329,-0.468995 -3.479,-1.407 C 8.9403288,11.850995 8.49,10.621341 8.49,9.1 8.49,7.5786591 8.9403288,6.3490047 9.841,5.411 10.741671,4.4729953 11.901326,4.004 13.32,4.004 c 1.073339,0 2.001996,0.1913314 2.786,0.574 L 15.91,6.286 c -0.942671,-0.3733352 -1.805996,-0.56 -2.59,-0.56 -0.924005,0 -1.633331,0.3079969 -2.128,0.924 -0.494669,0.6160031 -0.742,1.4326616 -0.742,2.45 0,1.017338 0.247331,1.833997 0.742,2.45 0.494669,0.616003 1.203995,0.924 2.128,0.924 0.784004,0 1.647329,-0.186665 2.59,-0.56 l 0.196,1.708 c -0.784004,0.382669 -1.712661,0.574 -2.786,0.574 z m 8.4,0 c -1.418674,0 -2.578329,-0.468995 -3.479,-1.407 C 17.340329,11.850995 16.89,10.621341 16.89,9.1 c 0,-1.5213409 0.450329,-2.7509953 1.351,-3.689 0.900671,-0.9380047 2.060326,-1.407 3.479,-1.407 1.418674,0 2.578329,0.4689953 3.479,1.407 0.900671,0.9380047 1.351,2.1676591 1.351,3.689 0,1.521341 -0.450329,2.750995 -1.351,3.689 -0.900671,0.938005 -2.060326,1.407 -3.479,1.407 z m 0,-8.47 c -0.924005,0 -1.633331,0.3079969 -2.128,0.924 -0.494669,0.6160031 -0.742,1.4326616 -0.742,2.45 0,1.017338 0.247331,1.833997 0.742,2.45 0.494669,0.616003 1.203995,0.924 2.128,0.924 0.924005,0 1.633331,-0.307997 2.128,-0.924 C 24.342669,10.933997 24.59,10.117338 24.59,9.1 24.59,8.0826616 24.342669,7.2660031 23.848,6.65 23.353331,6.0339969 22.644005,5.726 21.72,5.726 Z M 33.942,14 H 28.118 V 4.2 h 1.792 v 8.064 h 4.032 z m 7,0 H 35.118 V 4.2 h 1.792 v 8.064 h 4.032 z m 7.588,0 H 42.118 V 4.2 h 6.272 v 1.736 h -4.438 v 2.086 h 3.444 v 1.736 h -3.444 v 2.506 h 4.578 z m 5.656,0.196 c -1.418674,0 -2.578329,-0.468995 -3.479,-1.407 -0.900671,-0.938005 -1.351,-2.167659 -1.351,-3.689 0,-1.5213409 0.450329,-2.7509953 1.351,-3.689 0.900671,-0.9380047 2.060326,-1.407 3.479,-1.407 1.073339,0 2.001996,0.1913314 2.786,0.574 l -0.196,1.708 c -0.942671,-0.3733352 -1.805996,-0.56 -2.59,-0.56 -0.924005,0 -1.633331,0.3079969 -2.128,0.924 -0.494669,0.6160031 -0.742,1.4326616 -0.742,2.45 0,1.017338 0.247331,1.833997 0.742,2.45 0.494669,0.616003 1.203995,0.924 2.128,0.924 0.784004,0 1.647329,-0.186665 2.59,-0.56 l 0.196,1.708 c -0.784004,0.382669 -1.712661,0.574 -2.786,0.574 z M 64.938,5.936 H 62.166 V 14 H 60.374 V 5.936 H 57.602 V 4.2 h 7.336 z M 68.018,14 H 66.226 V 4.2 h 1.792 z m 6.398,0.196 c -1.418674,0 -2.578329,-0.468995 -3.479,-1.407 -0.900671,-0.938005 -1.351,-2.167659 -1.351,-3.689 0,-1.5213409 0.450329,-2.7509953 1.351,-3.689 0.900671,-0.9380047 2.060326,-1.407 3.479,-1.407 1.418674,0 2.578329,0.4689953 3.479,1.407 0.900671,0.9380047 1.351,2.1676591 1.351,3.689 0,1.521341 -0.450329,2.750995 -1.351,3.689 -0.900671,0.938005 -2.060326,1.407 -3.479,1.407 z m 0,-8.47 c -0.924005,0 -1.633331,0.3079969 -2.128,0.924 -0.494669,0.6160031 -0.742,1.4326616 -0.742,2.45 0,1.017338 0.247331,1.833997 0.742,2.45 0.494669,0.616003 1.203995,0.924 2.128,0.924 0.924005,0 1.633331,-0.307997 2.128,-0.924 0.494669,-0.616003 0.742,-1.432662 0.742,-2.45 0,-1.0173384 -0.247331,-1.8339969 -0.742,-2.45 C 76.049331,6.0339969 75.340005,5.726 74.416,5.726 Z M 88.556,14 h -1.47 L 82.606,7.28 V 14 H 80.814 V 4.2 h 1.764 l 4.186,6.328 V 4.2 h 1.792 z m 4.998,0.196 c -0.700004,0 -1.33933,-0.07 -1.918,-0.21 -0.57867,-0.140001 -1.021999,-0.307999 -1.33,-0.504 l 0.21,-2.044 c 0.298668,0.289335 0.716331,0.534332 1.253,0.735 0.536669,0.200668 1.145663,0.301 1.827,0.301 1.166672,0 1.75,-0.354663 1.75,-1.064 0,-0.196001 -0.04667,-0.373332 -0.14,-0.532 C 95.11267,10.719333 95.012334,10.588667 94.905,10.486 94.797666,10.383333 94.618001,10.273667 94.366,10.157 94.113999,10.040333 93.918001,9.9563336 93.778,9.905 93.637999,9.8536664 93.400002,9.7720006 93.064,9.66 92.774665,9.5666662 92.574001,9.4966669 92.462,9.45 L 91.902,9.212 C 91.640665,9.1093328 91.449334,9.0183337 91.328,8.939 91.206666,8.8596663 91.057334,8.7476674 90.88,8.603 90.702666,8.4583326 90.572,8.3113341 90.488,8.162 90.404,8.0126659 90.329334,7.833001 90.264,7.623 90.198666,7.412999 90.166,7.1866679 90.166,6.944 c 0,-0.7653372 0.28933,-1.4466637 0.868,-2.044 0.57867,-0.5973363 1.469994,-0.896 2.674,-0.896 0.625337,0 1.229664,0.079333 1.813,0.238 0.583336,0.1586675 1.019665,0.3313324 1.309,0.518 l -0.182,1.834 c -1.073339,-0.5880029 -2.029996,-0.882 -2.87,-0.882 -0.476002,0 -0.893665,0.079333 -1.253,0.238 -0.359335,0.1586675 -0.539,0.4246648 -0.539,0.798 0,0.3546684 0.163332,0.6276657 0.49,0.819 0.326668,0.1913343 0.82133,0.3896656 1.484,0.595 0.345335,0.1026672 0.608999,0.1866663 0.791,0.252 0.182001,0.065334 0.431665,0.1633327 0.749,0.294 0.317335,0.1306673 0.564666,0.2683326 0.742,0.413 0.177334,0.1446674 0.361666,0.321999 0.553,0.532 0.191334,0.210001 0.331333,0.457332 0.42,0.742 0.08867,0.284668 0.133,0.599665 0.133,0.945 0,0.261335 -0.02333,0.506332 -0.07,0.735 -0.04667,0.228668 -0.151666,0.478332 -0.315,0.749 -0.163334,0.270668 -0.377999,0.501666 -0.644,0.693 -0.266001,0.191334 -0.634664,0.352333 -1.106,0.483 -0.471336,0.130667 -1.02433,0.196 -1.659,0.196 z"
     id="COLLECTIONS-Copy"
     inkscape:connector-curvature="0"
     style="fill:#ffffff;fill-rule:evenodd;stroke:none;stroke-width:1" />
  <path
     d="M 102.12403,3 C 101.50133,3 101,3.5013278 101,4.1240295 v 9.7746015 c 0,0.622702 0.50133,1.124028 1.12403,1.124028 h 9.7746 c 0.6227,0 1.12399,-0.501326 1.12399,-1.124028 V 4.1240295 C 113.02262,3.5013278 112.52133,3 111.89863,3 Z m 0.27861,1.402594 h 9.21743 v 9.217426 h -9.21743 z"
     id="rect7847"
     inkscape:connector-curvature="0"
     style="fill:#bba358;fill-rule:nonzero;stroke:none;stroke-width:1" />
  <polygon
     id="path7858"
     points="103.12076,9.1291059 104.18342,8.0900604 106.0962,10.073693 109.89096,5.8276788 111.0383,6.8488403 106.30874,12.222628 "
     style="fill:#bba358;fill-rule:evenodd;stroke:none;stroke-width:1" />
</svg>
