<?xml version="1.0" encoding="UTF-8" standalone="no"?>
<!-- Svg Vector Icons : http://www.onlinewebfonts.com/icon -->

<svg
   xmlns:dc="http://purl.org/dc/elements/1.1/"
   xmlns:cc="http://creativecommons.org/ns#"
   xmlns:rdf="http://www.w3.org/1999/02/22-rdf-syntax-ns#"
   xmlns:svg="http://www.w3.org/2000/svg"
   xmlns="http://www.w3.org/2000/svg"
   xmlns:sodipodi="http://sodipodi.sourceforge.net/DTD/sodipodi-0.dtd"
   xmlns:inkscape="http://www.inkscape.org/namespaces/inkscape"
   version="1.1"
   x="0px"
   y="0px"
   viewBox="0 0 1000 1000"
   enable-background="new 0 0 1000 1000"
   xml:space="preserve"
   id="svg14"
   sodipodi:docname="pokemini.svg"
   inkscape:version="0.92.4 (5da689c313, 2019-01-14)"><defs
   id="defs18" /><sodipodi:namedview
   pagecolor="#ffffff"
   bordercolor="#666666"
   borderopacity="1"
   objecttolerance="10"
   gridtolerance="10"
   guidetolerance="10"
   inkscape:pageopacity="0"
   inkscape:pageshadow="2"
   inkscape:window-width="1920"
   inkscape:window-height="1018"
   id="namedview16"
   showgrid="false"
   inkscape:zoom="0.236"
   inkscape:cx="500"
   inkscape:cy="500"
   inkscape:window-x="-8"
   inkscape:window-y="-8"
   inkscape:window-maximized="1"
   inkscape:current-layer="svg14" />
<metadata
   id="metadata2"> Svg Vector Icons : http://www.onlinewebfonts.com/icon <rdf:RDF><cc:Work
     rdf:about=""><dc:format>image/svg+xml</dc:format><dc:type
       rdf:resource="http://purl.org/dc/dcmitype/StillImage" /><dc:title></dc:title></cc:Work></rdf:RDF></metadata>
<g
   id="g836"><g
     style="fill:#ffffff"
     transform="matrix(0.1,0,0,-0.1,0,512)"
     id="g10"><path
       style="fill:#ffffff"
       d="m 4646.2,5003.9 c -30.6,-3.8 -139.7,-17.2 -239.2,-28.7 C 3775.6,4904.4 3050.4,4649.9 2474.5,4299.8 1881.4,3938.2 1311.2,3385.2 909.4,2786.3 838.6,2681.1 706.6,2447.6 616.6,2269.7 -72.2,897.8 -72.2,-663.5 616.6,-2035.4 c 271.7,-537.7 558.7,-931.8 989.2,-1348.9 771.1,-750 1722,-1213.1 2801.2,-1360.4 103.3,-15.3 359.7,-24.9 593.2,-24.9 432.4,0 621.9,17.2 1004.5,97.6 482.2,99.5 1079.2,338.7 1521.1,606.5 597,365.4 1169.1,918.4 1570.9,1523 296.6,443.9 574,1102.1 694.6,1651.2 233.4,1050.5 88,2171.7 -407.6,3160.9 -271.7,537.7 -558.7,931.8 -989.2,1348.9 -757.7,736.7 -1685.7,1193.9 -2734.2,1350.8 -181.8,27 -893.6,51.8 -1014.1,34.6 z m 918.4,-373.1 C 6546.2,4510.3 7457,4075.9 8163,3389 c 478.3,-463 836.2,-996.9 1073.4,-1603.4 67,-170.3 183.7,-549.1 183.7,-595.1 0,-15.3 -292.7,-21 -1105.9,-21 h -1106 l -34.5,72.7 c -78.4,162.6 -262.1,407.6 -442,587.4 -354,355.9 -780.7,585.5 -1278.1,692.6 -216.2,45.9 -690.7,45.9 -907,0 -338.7,-72.7 -686.9,-222 -962.4,-417.1 -279.4,-197.1 -631.4,-597 -757.7,-862.9 l -34.4,-72.7 H 1684.3 576.4 l 13.4,72.7 c 30.6,164.6 189.4,598.9 311.9,851.5 231.5,480.3 465,815.1 826.6,1186.3 451.6,466.9 947.1,803.6 1549.8,1052.4 378.8,156.9 918.4,285.1 1348.9,319.5 233.5,17.2 702.3,7.6 937.6,-21.1 z m -321.4,-2430 c 717.5,-80.4 1343.2,-526.2 1641.7,-1169.1 105.2,-231.5 -42.1,-208.6 1370,-212.4 l 1230.3,-3.8 19.1,-76.5 c 24.9,-99.5 24.9,-1144.2 0,-1243.7 l -19.1,-76.5 -1230.4,-3.8 c -1412.1,-3.8 -1264.7,19.1 -1370,-212.4 -271.7,-587.4 -809.4,-1006.4 -1463.7,-1144.2 -222,-45.9 -623.8,-45.9 -841.9,0 -652.4,137.7 -1142.3,514.7 -1452.2,1119.3 -53.6,105.2 -109.1,199 -122.5,206.6 -11.5,7.7 -577.8,19.1 -1257.1,24.9 l -1232.2,9.6 -15.3,76.5 c -47.8,220 -47.8,1023.7 0,1243.7 l 15.3,76.5 1232.2,9.6 c 679.2,5.7 1245.6,17.2 1257.1,24.9 13.4,7.7 68.9,103.3 124.4,208.6 281.3,549.1 717.5,912.7 1291.5,1077.2 277.5,78.4 524.3,99.5 822.8,65 z M 2826.6,-1006 c 78.4,-164.6 262.1,-409.5 442,-589.3 658.2,-660.1 1590,-895.5 2451,-619.9 386.5,122.5 721.3,329.1 1012.2,619.9 179.9,179.9 363.5,424.8 442,589.3 l 34.5,70.8 H 8316.1 9424 l -13.4,-70.8 c -57.4,-319.5 -373.1,-1035.1 -612.3,-1392.9 -357.8,-535.7 -847.6,-1012.2 -1387.2,-1348.9 -231.5,-145.4 -660.1,-348.2 -928,-438.2 -834.2,-281.3 -1775.6,-317.6 -2632.8,-97.6 -1077.3,275.5 -2022.5,947.1 -2648.2,1884.7 -246.8,369.3 -551,1061.9 -612.3,1392.9 l -13.4,70.8 h 1107.9 1107.8 z"
       id="path4"
       inkscape:connector-curvature="0" /><path
       style="fill:#ffffff"
       d="m 4588.8,1812.4 c -95.7,-24.9 -252.6,-84.2 -348.2,-132 -876.3,-440.1 -1234.1,-1486.7 -797.9,-2330.5 187.5,-361.6 442,-612.3 801.7,-792.1 302.3,-149.2 399.9,-172.2 755.8,-172.2 350.1,0 449.6,23 738.6,162.6 373.1,179.9 637.2,442 820.8,813.2 149.2,302.3 172.2,399.9 172.2,755.8 0,355.9 -23,453.5 -172.2,755.8 -179.9,359.7 -430.5,614.2 -792.1,801.7 -252.6,130.1 -480.3,183.7 -774.9,183.7 -178,-2 -271.8,-11.5 -403.8,-46 z m 801.7,-346.3 C 5859.3,1336 6219,972.4 6351,499.8 c 47.8,-172.2 49.8,-591.2 1.9,-763.4 -133.9,-478.3 -493.7,-838.1 -970.1,-970.1 -174.1,-49.8 -591.2,-49.8 -765.4,0 -388.4,107.1 -711.8,376.9 -878.2,727.1 -82.3,176 -116.7,321.4 -130.1,547.2 -22.9,426.7 109.1,786.4 396.1,1071.5 193.3,195.2 405.6,310 683.1,371.2 162.6,38.3 539.6,28.7 702.2,-17.2 z"
       id="path6"
       inkscape:connector-curvature="0" /><path
       style="fill:#ffffff"
       d="m 4755.3,1131.3 c -78.4,-21 -189.4,-65.1 -248.7,-99.5 -139.7,-78.4 -342.5,-281.3 -420.9,-419 -70.8,-126.3 -137.8,-365.5 -137.8,-495.6 0,-130.1 67,-369.3 137.8,-495.6 86.1,-153.1 304.2,-361.6 457.3,-436.3 233.4,-114.8 442,-143.5 665.8,-91.8 398,93.8 721.3,417.1 815.1,815.1 36.4,155 36.4,262.1 0,417.1 -47.8,199 -137.8,359.7 -287,510.9 -160.7,162.6 -298.5,243 -499.4,294.7 -181.8,47.8 -302.4,47.8 -482.2,0 z M 5281.4,763.9 C 5566.5,658.7 5740.6,329.6 5687,-1.5 5635.4,-317.2 5432.5,-520 5120.7,-569.8 c -338.7,-53.6 -660.1,120.5 -771.1,415.2 -59.3,153.1 -59.3,392.2 -1.9,543.4 133.9,352.1 549.1,516.7 933.7,375.1 z"
       id="path8"
       inkscape:connector-curvature="0" /></g></g>
</svg>