<?xml version="1.0" encoding="UTF-8" standalone="no"?>
<svg
   xmlns:dc="http://purl.org/dc/elements/1.1/"
   xmlns:cc="http://creativecommons.org/ns#"
   xmlns:rdf="http://www.w3.org/1999/02/22-rdf-syntax-ns#"
   xmlns:svg="http://www.w3.org/2000/svg"
   xmlns="http://www.w3.org/2000/svg"
   xmlns:sodipodi="http://sodipodi.sourceforge.net/DTD/sodipodi-0.dtd"
   xmlns:inkscape="http://www.inkscape.org/namespaces/inkscape"
   width="132px"
   height="18px"
   viewBox="0 0 132 18"
   version="1.1"
   id="svg12"
   sodipodi:docname="system.svg"
   inkscape:version="0.92.4 (5da689c313, 2019-01-14)">
  <metadata
     id="metadata16">
    <rdf:RDF>
      <cc:Work
         rdf:about="">
        <dc:format>image/svg+xml</dc:format>
        <dc:type
           rdf:resource="http://purl.org/dc/dcmitype/StillImage" />
        <dc:title>system</dc:title>
      </cc:Work>
    </rdf:RDF>
  </metadata>
  <sodipodi:namedview
     pagecolor="#ffffff"
     bordercolor="#666666"
     borderopacity="1"
     objecttolerance="10"
     gridtolerance="10"
     guidetolerance="10"
     inkscape:pageopacity="0"
     inkscape:pageshadow="2"
     inkscape:window-width="1920"
     inkscape:window-height="1018"
     id="namedview14"
     showgrid="false"
     inkscape:zoom="2.8787879"
     inkscape:cx="1.9105268"
     inkscape:cy="9.0000001"
     inkscape:window-x="-8"
     inkscape:window-y="-8"
     inkscape:window-maximized="1"
     inkscape:current-layer="svg12" />
  <!-- Generator: Sketch 45 (43475) - http://www.bohemiancoding.com/sketch -->
  <title
     id="title2">system</title>
  <desc
     id="desc4">Created with Sketch.</desc>
  <defs
     id="defs6" />
  <g
     id="g820">
    <g
       aria-label="POKEMINI"
       style="font-style:normal;font-variant:normal;font-weight:normal;font-stretch:normal;font-size:19.77887344px;line-height:1.25;font-family:sans-serif;-inkscape-font-specification:sans-serif;letter-spacing:0px;word-spacing:0px;fill:#ffffff;fill-opacity:1;stroke:none;stroke-width:0.49447185"
       id="text816">
      <path
         d="m 20.095981,6.0333528 q 0,0.9657653 -0.338017,1.8929 -0.338018,0.917477 -0.965766,1.5452245 -0.859531,0.8498737 -1.921873,1.2844677 -1.052684,0.434594 -2.626881,0.434594 h -2.308179 v 4.683962 H 8.2267259 V 1.4942558 h 6.1036371 q 1.371386,0 2.308179,0.2414414 0.94645,0.2317836 1.670774,0.7050086 0.869188,0.5698016 1.323098,1.4583056 0.463567,0.8885041 0.463567,2.1343414 z m -3.834088,0.086919 q 0,-0.6084321 -0.32836,-1.0430265 -0.32836,-0.444252 -0.762955,-0.6180898 -0.579459,-0.2317836 -1.129945,-0.251099 -0.550486,-0.028973 -1.467963,-0.028973 h -0.637405 v 4.3073132 h 1.062341 q 0.94645,0 1.554883,-0.1158918 0.618089,-0.1158918 1.033368,-0.4635673 0.357334,-0.3090449 0.511856,-0.7339817 0.16418,-0.4345944 0.16418,-1.0526841 z"
         style="font-style:normal;font-variant:normal;font-weight:bold;font-stretch:normal;font-family:sans-serif;-inkscape-font-specification:'sans-serif Bold';fill:#ffffff;stroke-width:0.49447185"
         id="path822"
         inkscape:connector-curvature="0" />
      <path
         d="m 36.697487,8.6892074 q 0,3.4381246 -1.970161,5.4662316 -1.970161,2.018449 -5.446916,2.018449 -3.467098,0 -5.437259,-2.018449 -1.970161,-2.028107 -1.970161,-5.4662316 0,-3.4670975 1.970161,-5.4758893 1.970161,-2.0184495 5.437259,-2.0184495 3.457439,0 5.437258,2.0184495 1.979819,2.0087918 1.979819,5.4758893 z m -4.915745,3.6409356 q 0.540828,-0.656721 0.801585,-1.545225 0.260757,-0.8981617 0.260757,-2.1053683 0,-1.2941255 -0.299388,-2.2019449 Q 32.245309,5.5697854 31.762427,5.0096415 31.269886,4.4301824 30.622823,4.1694257 29.985418,3.9086691 29.290067,3.9086691 q -0.705008,0 -1.332756,0.251099 -0.61809,0.251099 -1.139603,0.8305581 -0.482882,0.5408286 -0.791927,1.4969363 -0.299388,0.94645 -0.299388,2.2019449 0,1.2844678 0.28973,2.1922876 0.299387,0.898161 0.78227,1.467963 0.482883,0.569801 1.129945,0.840216 0.647063,0.270414 1.361729,0.270414 0.714667,0 1.361729,-0.270414 0.647063,-0.280072 1.129946,-0.859531 z"
         style="font-style:normal;font-variant:normal;font-weight:bold;font-stretch:normal;font-family:sans-serif;-inkscape-font-specification:'sans-serif Bold';fill:#ffffff;stroke-width:0.49447185"
         id="path824"
         inkscape:connector-curvature="0" />
      <path
         d="m 52.941658,15.874501 h -4.548755 l -4.297655,-5.755961 -0.869189,1.052684 v 4.703277 H 39.51752 V 1.4942558 h 3.708539 V 8.003514 L 48.36393,1.4942558 h 4.297656 l -5.620754,6.654123 z"
         style="font-style:normal;font-variant:normal;font-weight:bold;font-stretch:normal;font-family:sans-serif;-inkscape-font-specification:'sans-serif Bold';fill:#ffffff;stroke-width:0.49447185"
         id="path826"
         inkscape:connector-curvature="0" />
      <path
         d="M 65.177907,15.874501 H 54.776614 V 1.4942558 h 10.401293 v 2.7814041 h -6.712069 v 2.4820169 h 6.229186 v 2.781404 h -6.229186 v 3.5540162 h 6.712069 z"
         style="font-style:normal;font-variant:normal;font-weight:bold;font-stretch:normal;font-family:sans-serif;-inkscape-font-specification:'sans-serif Bold';fill:#ffffff;stroke-width:0.49447185"
         id="path828"
         inkscape:connector-curvature="0" />
      <path
         d="M 83.372925,15.874501 H 79.683701 V 6.2458211 L 77.018189,12.494323 H 74.458911 L 71.793399,6.2458211 V 15.874501 H 68.297328 V 1.4942558 h 4.307314 l 3.235313,7.2142669 3.225656,-7.2142669 h 4.307314 z"
         style="font-style:normal;font-variant:normal;font-weight:bold;font-stretch:normal;font-family:sans-serif;-inkscape-font-specification:'sans-serif Bold';fill:#ffffff;stroke-width:0.49447185"
         id="path830"
         inkscape:connector-curvature="0" />
      <path
         d="m 94.807586,15.874501 h -8.421473 v -2.54962 H 88.74258 V 4.0438762 H 86.386113 V 1.4942558 h 8.421473 v 2.5496204 h -2.356467 v 9.2810048 h 2.356467 z"
         style="font-style:normal;font-variant:normal;font-weight:bold;font-stretch:normal;font-family:sans-serif;-inkscape-font-specification:'sans-serif Bold';fill:#ffffff;stroke-width:0.49447185"
         id="path832"
         inkscape:connector-curvature="0" />
      <path
         d="m 110.9262,15.874501 h -3.57333 L 101.24924,6.0043798 V 15.874501 H 97.849742 V 1.4942558 h 4.432858 l 5.24411,8.2379781 V 1.4942558 h 3.39949 z"
         style="font-style:normal;font-variant:normal;font-weight:bold;font-stretch:normal;font-family:sans-serif;-inkscape-font-specification:'sans-serif Bold';fill:#ffffff;stroke-width:0.49447185"
         id="path834"
         inkscape:connector-curvature="0" />
      <path
         d="m 122.38984,15.874501 h -8.42147 v -2.54962 h 2.35646 V 4.0438762 h -2.35646 V 1.4942558 h 8.42147 v 2.5496204 h -2.35647 v 9.2810048 h 2.35647 z"
         style="font-style:normal;font-variant:normal;font-weight:bold;font-stretch:normal;font-family:sans-serif;-inkscape-font-specification:'sans-serif Bold';fill:#ffffff;stroke-width:0.49447185"
         id="path836"
         inkscape:connector-curvature="0" />
    </g>
  </g>
</svg>
