<?xml version="1.0" encoding="UTF-8" standalone="no"?>
<svg
   xmlns:dc="http://purl.org/dc/elements/1.1/"
   xmlns:cc="http://creativecommons.org/ns#"
   xmlns:rdf="http://www.w3.org/1999/02/22-rdf-syntax-ns#"
   xmlns:svg="http://www.w3.org/2000/svg"
   xmlns="http://www.w3.org/2000/svg"
   xmlns:sodipodi="http://sodipodi.sourceforge.net/DTD/sodipodi-0.dtd"
   xmlns:inkscape="http://www.inkscape.org/namespaces/inkscape"
   width="179"
   height="18"
   viewBox="0 0 179 18"
   version="1.1"
   id="svg12"
   sodipodi:docname="system.svg"
   inkscape:version="0.92.4 (5da689c313, 2019-01-14)">
  <metadata
     id="metadata16">
    <rdf:RDF>
      <cc:Work
         rdf:about="">
        <dc:format>image/svg+xml</dc:format>
        <dc:type
           rdf:resource="http://purl.org/dc/dcmitype/StillImage" />
        <dc:title>system</dc:title>
      </cc:Work>
    </rdf:RDF>
  </metadata>
  <sodipodi:namedview
     pagecolor="#ffffff"
     bordercolor="#666666"
     borderopacity="1"
     objecttolerance="10"
     gridtolerance="10"
     guidetolerance="10"
     inkscape:pageopacity="0"
     inkscape:pageshadow="2"
     inkscape:window-width="1920"
     inkscape:window-height="1018"
     id="namedview14"
     showgrid="false"
     inkscape:zoom="3.04"
     inkscape:cx="77.676811"
     inkscape:cy="9"
     inkscape:window-x="-8"
     inkscape:window-y="-8"
     inkscape:window-maximized="1"
     inkscape:current-layer="svg12" />
  <!-- Generator: Sketch 45 (43475) - http://www.bohemiancoding.com/sketch -->
  <title
     id="title2">system</title>
  <desc
     id="desc4">Created with Sketch.</desc>
  <defs
     id="defs6" />
  <g
     id="text1233"
     style="font-style:normal;font-variant:normal;font-weight:bold;font-stretch:normal;font-size:15.97424984px;line-height:1.25;font-family:sans-serif;-inkscape-font-specification:'sans-serif Bold';letter-spacing:0px;word-spacing:0px;fill:#000000;fill-opacity:1;stroke:none;stroke-width:0.66559374"
     aria-label="GAME GEAR HACKS">
    <path
       inkscape:connector-curvature="0"
       id="path1247"
       style="fill:#ffffff"
       d="m 17.013391,14.826913 q -0.779993,0.304197 -2.06698,0.608394 -1.286988,0.296397 -2.566176,0.296397 -2.9639725,0 -4.6409567,-1.606785 Q 6.062294,12.510334 6.062294,9.671161 q 0,-2.7065745 1.6925841,-4.360159 1.6925841,-1.6613844 4.7189559,-1.6613844 1.146589,0 2.183979,0.210598 1.03739,0.2027981 2.308779,0.8189923 V 7.4013823 H 16.631195 Q 16.412797,7.2375839 15.991601,6.9411867 15.570405,6.6369895 15.180408,6.4263915 14.728013,6.1767939 14.119618,5.9973955 13.519024,5.8179972 12.84043,5.8179972 q -0.795592,0 -1.442986,0.2339978 Q 10.75005,6.2859928 10.235255,6.7695883 9.7438594,7.2375839 9.4552621,7.9629771 9.1744648,8.6805703 9.1744648,9.6243614 q 0,1.9265816 1.0217902,2.9483726 1.021791,1.02179 3.018572,1.02179 0.171598,0 0.374396,-0.0078 0.210598,-0.0078 0.382197,-0.0234 V 11.285746 H 11.654841 V 9.0939664 h 5.35855 z" />
    <path
       inkscape:connector-curvature="0"
       id="path1249"
       style="fill:#ffffff"
       d="m 30.421465,15.489906 h -3.096571 l -0.803393,-2.347778 h -4.305559 l -0.803393,2.347778 H 18.393978 L 22.683937,3.8758155 h 3.447568 z M 25.796108,11.012748 24.368722,6.8475876 22.941335,11.012748 Z" />
    <path
       inkscape:connector-curvature="0"
       id="path1251"
       style="fill:#ffffff"
       d="M 44.281933,15.489906 H 41.302361 V 7.7133794 L 39.149582,12.759932 H 37.082601 L 34.929821,7.7133794 V 15.489906 H 32.106248 V 3.8758155 h 3.478767 l 2.612976,5.8265452 2.605175,-5.8265452 h 3.478767 z" />
    <path
       inkscape:connector-curvature="0"
       id="path1253"
       style="fill:#ffffff"
       d="M 55.638628,15.489906 H 47.238107 V 3.8758155 h 8.400521 v 2.2463789 h -5.420949 v 2.0045811 h 5.030952 v 2.2463785 h -5.030952 v 2.870373 h 5.420949 z" />
    <path
       inkscape:connector-curvature="0"
       id="path1255"
       style="fill:#ffffff"
       d="m 73.890455,14.826913 q -0.779993,0.304197 -2.066981,0.608394 -1.286988,0.296397 -2.566176,0.296397 -2.963972,0 -4.640956,-1.606785 -1.676984,-1.614585 -1.676984,-4.453758 0,-2.7065745 1.692584,-4.360159 1.692584,-1.6613844 4.718956,-1.6613844 1.146589,0 2.183979,0.210598 1.03739,0.2027981 2.308778,0.8189923 V 7.4013823 H 73.508258 Q 73.28986,7.2375839 72.868664,6.9411867 72.447468,6.6369895 72.057472,6.4263915 71.605076,6.1767939 70.996682,5.9973955 70.396088,5.8179972 69.717494,5.8179972 q -0.795592,0 -1.442986,0.2339978 -0.647394,0.2339978 -1.162189,0.7175933 -0.491396,0.4679956 -0.779993,1.1933888 -0.280797,0.7175932 -0.280797,1.6613843 0,1.9265816 1.02179,2.9483726 1.02179,1.02179 3.018572,1.02179 0.171598,0 0.374396,-0.0078 0.210598,-0.0078 0.382196,-0.0234 V 11.285746 H 68.531905 V 9.0939664 h 5.35855 z" />
    <path
       inkscape:connector-curvature="0"
       id="path1257"
       style="fill:#ffffff"
       d="M 84.966352,15.489906 H 76.565831 V 3.8758155 h 8.400521 v 2.2463789 h -5.420949 v 2.0045811 h 5.030953 v 2.2463785 h -5.030953 v 2.870373 h 5.420949 z" />
    <path
       inkscape:connector-curvature="0"
       id="path1259"
       style="fill:#ffffff"
       d="m 98.218429,15.489906 h -3.096571 l -0.803392,-2.347778 h -4.30556 l -0.803392,2.347778 H 86.190942 L 90.480902,3.8758155 H 93.92847 Z M 93.593073,11.012748 92.165686,6.8475876 90.7383,11.012748 Z" />
    <path
       inkscape:connector-curvature="0"
       id="path1261"
       style="fill:#ffffff"
       d="m 106.41615,7.4325821 q 0,-0.4367959 -0.1794,-0.748793 -0.1794,-0.3119971 -0.61619,-0.4913954 -0.3042,-0.1247988 -0.7098,-0.1481986 -0.40559,-0.0312 -0.94379,-0.0312 h -1.08419 V 9.140766 h 0.92039 q 0.7176,0 1.20119,-0.070199 0.4836,-0.070199 0.8112,-0.319797 0.31199,-0.2417978 0.45239,-0.5303951 0.1482,-0.2963972 0.1482,-0.7877928 z m 4.67216,8.0573239 h -3.65817 l -3.16677,-4.25876 h -1.38059 v 4.25876 H 99.903211 V 3.8758155 h 5.023149 q 1.02959,0 1.77059,0.1169989 0.74099,0.1169989 1.38838,0.5069952 0.6552,0.3899964 1.03739,1.0139905 0.39,0.6161942 0.39,1.5521854 0,1.2869879 -0.60059,2.0981803 -0.5928,0.8111923 -1.70039,1.3493872 z" />
    <path
       inkscape:connector-curvature="0"
       id="path1263"
       style="fill:#ff0000;stroke-width:0.66559374"
       d="m 128.28714,15.489906 h -2.99517 v -5.116752 h -4.42256 v 5.116752 h -2.99517 V 3.8758155 h 2.99517 v 4.25096 h 4.42256 v -4.25096 h 2.99517 z" />
    <path
       inkscape:connector-curvature="0"
       id="path1265"
       style="fill:#ff0000;stroke-width:0.66559374"
       d="m 141.99162,15.489906 h -3.09658 l -0.80339,-2.347778 h -4.30556 l -0.80339,2.347778 h -3.01857 l 4.28996,-11.6140905 h 3.44757 z m -4.62536,-4.477158 -1.42739,-4.1651604 -1.42738,4.1651604 z" />
    <path
       inkscape:connector-curvature="0"
       id="path1267"
       style="fill:#ff0000;stroke-width:0.66559374"
       d="m 148.92575,15.716104 q -1.29478,0 -2.39457,-0.382196 -1.09199,-0.382197 -1.87979,-1.13879 -0.78779,-0.756592 -1.22458,-1.887582 -0.429,-1.130989 -0.429,-2.6129752 0,-1.380587 0.4134,-2.5037765 0.41339,-1.1231894 1.20119,-1.9265819 0.75659,-0.7721927 1.87198,-1.1933887 1.12319,-0.4211961 2.44917,-0.4211961 0.7332,0 1.31819,0.085799 0.5928,0.077999 1.09199,0.210598 0.5226,0.1481986 0.94379,0.3353969 0.429,0.1793983 0.7488,0.3353968 v 2.8157736 h -0.3432 q -0.2184,-0.1871983 -0.5538,-0.4445959 -0.32759,-0.2573976 -0.74879,-0.5069952 -0.42899,-0.2495977 -0.92819,-0.421196 -0.4992,-0.1715984 -1.06859,-0.1715984 -0.63179,0 -1.20119,0.2027981 -0.56939,0.1949981 -1.05299,0.6551938 -0.46019,0.4445958 -0.74879,1.1777889 -0.2808,0.7331931 -0.2808,1.7783833 0,1.0919895 0.3042,1.8251835 0.312,0.733193 0.77999,1.154389 0.4758,0.428996 1.06079,0.616194 0.585,0.179398 1.15439,0.179398 0.54599,0 1.07639,-0.163798 0.53819,-0.163799 0.99059,-0.444596 0.3822,-0.226198 0.70979,-0.483596 0.3276,-0.257397 0.5382,-0.444595 h 0.312 v 2.776774 q -0.4368,0.194998 -0.8346,0.366596 -0.39779,0.171599 -0.83459,0.296397 -0.56939,0.163799 -1.06859,0.249598 -0.49919,0.0858 -1.37279,0.0858 z" />
    <path
       inkscape:connector-curvature="0"
       id="path1269"
       style="fill:#ff0000;stroke-width:0.66559374"
       d="m 166.09339,15.489906 h -3.67376 l -3.47097,-4.648756 -0.702,0.850192 v 3.798564 h -2.99517 V 3.8758155 h 2.99517 v 5.2571506 l 4.14957,-5.2571506 h 3.47096 l -4.53955,5.3741495 z" />
    <path
       inkscape:connector-curvature="0"
       id="path1271"
       style="fill:#ff0000;stroke-width:0.66559374"
       d="m 176.87289,11.839541 q 0,1.715983 -1.45859,2.792373 -1.45078,1.06859 -3.94676,1.06859 -1.44299,0 -2.51938,-0.249597 -1.06859,-0.257398 -2.00458,-0.647394 v -2.784574 h 0.3276 q 0.92819,0.740993 2.07478,1.138789 1.15439,0.397796 2.21518,0.397796 0.273,0 0.71759,-0.0468 0.4446,-0.0468 0.72539,-0.155999 0.3432,-0.140398 0.5616,-0.350996 0.2262,-0.210598 0.2262,-0.623994 0,-0.382197 -0.3276,-0.655194 -0.3198,-0.280798 -0.94379,-0.428996 -0.65519,-0.155999 -1.38839,-0.288598 -0.72539,-0.140398 -1.36499,-0.350996 -1.46638,-0.475796 -2.11378,-1.2869881 -0.63959,-0.8189923 -0.63959,-2.027981 0,-1.6223847 1.45079,-2.6441751 1.45858,-1.0295903 3.74396,-1.0295903 1.14659,0 2.26198,0.2261978 1.12319,0.218398 1.94218,0.5537948 V 7.120585 h -0.31979 q -0.702,-0.5615947 -1.72379,-0.9359912 -1.01399,-0.3821964 -2.07478,-0.3821964 -0.3744,0 -0.74879,0.0546 -0.3666,0.046799 -0.7098,0.1871982 -0.30419,0.1169989 -0.52259,0.3587966 -0.2184,0.2339978 -0.2184,0.538195 0,0.4601956 0.351,0.7097933 0.351,0.2417977 1.32599,0.4445958 0.63959,0.1325988 1.22458,0.2573976 0.5928,0.1247988 1.27139,0.3431968 1.33379,0.4367959 1.96558,1.1933888 0.6396,0.7487925 0.6396,1.9499815 z" />
  </g>
</svg>
