<?xml version="1.0" encoding="UTF-8" standalone="no"?>
<svg
   xmlns:dc="http://purl.org/dc/elements/1.1/"
   xmlns:cc="http://creativecommons.org/ns#"
   xmlns:rdf="http://www.w3.org/1999/02/22-rdf-syntax-ns#"
   xmlns:svg="http://www.w3.org/2000/svg"
   xmlns="http://www.w3.org/2000/svg"
   xmlns:sodipodi="http://sodipodi.sourceforge.net/DTD/sodipodi-0.dtd"
   xmlns:inkscape="http://www.inkscape.org/namespaces/inkscape"
   width="117px"
   height="18px"
   viewBox="0 0 117 18"
   version="1.1"
   id="svg12"
   sodipodi:docname="system.svg"
   inkscape:version="0.92.4 (5da689c313, 2019-01-14)">
  <metadata
     id="metadata16">
    <rdf:RDF>
      <cc:Work
         rdf:about="">
        <dc:format>image/svg+xml</dc:format>
        <dc:type
           rdf:resource="http://purl.org/dc/dcmitype/StillImage" />
        <dc:title>system</dc:title>
      </cc:Work>
    </rdf:RDF>
  </metadata>
  <sodipodi:namedview
     pagecolor="#ffffff"
     bordercolor="#666666"
     borderopacity="1"
     objecttolerance="10"
     gridtolerance="10"
     guidetolerance="10"
     inkscape:pageopacity="0"
     inkscape:pageshadow="2"
     inkscape:window-width="1920"
     inkscape:window-height="1018"
     id="namedview14"
     showgrid="false"
     inkscape:zoom="3.2478632"
     inkscape:cx="94.880589"
     inkscape:cy="8.9999999"
     inkscape:window-x="-8"
     inkscape:window-y="-8"
     inkscape:window-maximized="1"
     inkscape:current-layer="svg12" />
  <!-- Generator: Sketch 45 (43475) - http://www.bohemiancoding.com/sketch -->
  <title
     id="title2">system</title>
  <desc
     id="desc4">Created with Sketch.</desc>
  <defs
     id="defs6" />
  <g
     id="text1097"
     style="font-style:normal;font-variant:normal;font-weight:normal;font-stretch:normal;font-size:26.02786636px;line-height:1.25;font-family:sans-serif;-inkscape-font-specification:sans-serif;letter-spacing:0px;word-spacing:0px;fill:#ffffff;fill-opacity:1;stroke:none;stroke-width:0.65069669"
     aria-label="ATARI 800">
    <path
       inkscape:connector-curvature="0"
       id="path1105"
       style="font-style:normal;font-variant:normal;font-weight:bold;font-stretch:normal;font-size:17.35191154px;font-family:sans-serif;-inkscape-font-specification:'sans-serif Bold';fill:#ffffff;stroke-width:0.65069669"
       d="m 19.848322,14.767801 h -3.363628 l -0.872679,-2.550256 h -4.676882 l -0.872679,2.550256 H 6.7835524 L 11.44349,2.1520804 h 3.744895 z M 14.824062,9.9045214 13.273574,5.380146 11.723086,9.9045214 Z" />
    <path
       inkscape:connector-curvature="0"
       id="path1107"
       style="font-style:normal;font-variant:normal;font-weight:bold;font-stretch:normal;font-size:17.35191154px;font-family:sans-serif;-inkscape-font-specification:'sans-serif Bold';fill:#ffffff;stroke-width:0.65069669"
       d="M 31.549001,4.592193 H 27.609236 V 14.767801 H 24.355752 V 4.592193 H 20.415987 V 2.1520804 h 11.133014 z" />
    <path
       inkscape:connector-curvature="0"
       id="path1109"
       style="font-style:normal;font-variant:normal;font-weight:bold;font-stretch:normal;font-size:17.35191154px;font-family:sans-serif;-inkscape-font-specification:'sans-serif Bold';fill:#ffffff;stroke-width:0.65069669"
       d="m 45.16449,14.767801 h -3.363628 l -0.872679,-2.550256 h -4.676882 l -0.872679,2.550256 H 32.09972 L 36.759657,2.1520804 h 3.744895 z M 40.14023,9.9045214 38.589742,5.380146 37.039254,9.9045214 Z" />
    <path
       inkscape:connector-curvature="0"
       id="path1111"
       style="font-style:normal;font-variant:normal;font-weight:bold;font-stretch:normal;font-size:17.35191154px;font-family:sans-serif;-inkscape-font-specification:'sans-serif Bold';fill:#ffffff;stroke-width:0.65069669"
       d="m 54.069207,6.015592 q 0,-0.4744663 -0.19487,-0.8133709 Q 53.679467,4.8633166 53.205001,4.6684465 52.874569,4.5328847 52.433993,4.5074669 51.993417,4.4735764 51.408807,4.4735764 h -1.177693 v 3.3975179 h 0.999768 q 0.77948,0 1.304782,-0.076254 0.525302,-0.076253 0.881152,-0.3473771 0.338905,-0.262651 0.491412,-0.5761377 0.160979,-0.3219593 0.160979,-0.8557335 z m 5.075096,8.752209 h -3.973656 l -3.439881,-4.626046 h -1.499652 v 4.626046 H 46.994575 V 2.1520804 h 5.456363 q 1.118385,0 1.923283,0.1270892 0.804899,0.1270892 1.508126,0.5507199 0.711699,0.4236306 1.126857,1.1014397 0.423631,0.6693364 0.423631,1.68605 0,1.3979811 -0.652391,2.2791329 -0.643919,0.8811518 -1.84703,1.4657621 z" />
    <path
       inkscape:connector-curvature="0"
       id="path1113"
       style="font-style:normal;font-variant:normal;font-weight:bold;font-stretch:normal;font-size:17.35191154px;font-family:sans-serif;-inkscape-font-specification:'sans-serif Bold';fill:#ffffff;stroke-width:0.65069669"
       d="m 67.405098,14.767801 h -7.388119 v -2.23677 h 2.067318 V 4.3888503 H 60.016979 V 2.1520804 h 7.388119 V 4.3888503 H 65.33778 v 8.1421807 h 2.067318 z" />
    <path
       inkscape:connector-curvature="0"
       id="path1115"
       style="font-style:normal;font-variant:normal;font-weight:bold;font-stretch:normal;font-size:17.35191154px;font-family:sans-serif;-inkscape-font-specification:'sans-serif Bold';fill:#ffffff;stroke-width:0.65069669"
       d="m 85.892342,11.243194 q 0,1.677578 -1.431872,2.745127 -1.423399,1.067549 -3.914347,1.067549 -1.397981,0 -2.397749,-0.288069 -0.999769,-0.288069 -1.65216,-0.796425 -0.643918,-0.499885 -0.957405,-1.169221 -0.305014,-0.669336 -0.305014,-1.440344 0,-0.948933 0.55072,-1.6775776 0.559192,-0.7371173 1.923283,-1.2878371 v -0.050836 q -1.10144,-0.5083568 -1.618269,-1.2793646 -0.51683,-0.7710078 -0.51683,-1.7877213 0,-1.4996526 1.389509,-2.4570578 1.389508,-0.9574053 3.617806,-0.9574053 2.338441,0 3.660169,0.8726791 1.3302,0.8642066 1.3302,2.3130234 0,0.898097 -0.559193,1.6013239 -0.559192,0.7032269 -1.711467,1.1946384 v 0.050836 q 1.321727,0.4998842 1.957173,1.3471455 0.635446,0.8472614 0.635446,1.9995364 z M 82.393153,5.4140365 q 0,-0.6439186 -0.499884,-1.0251862 -0.491412,-0.3812676 -1.313255,-0.3812676 -0.305014,0 -0.626974,0.076253 -0.313486,0.076253 -0.576137,0.220288 -0.245706,0.1440344 -0.406686,0.3812675 -0.160979,0.2287606 -0.160979,0.5253021 0,0.4998841 0.279596,0.7794804 0.288069,0.2795962 0.931987,0.5591924 0.237233,0.1016714 0.643919,0.2541784 0.415158,0.1440344 0.999768,0.3304319 0.38974,-0.4575211 0.559193,-0.8218434 0.169452,-0.3643224 0.169452,-0.8980965 z m 0.262651,5.9731925 q 0,-0.610028 -0.305014,-0.923515 Q 82.045776,10.150227 81.096843,9.7435417 80.817247,9.6164525 80.283472,9.4300551 79.749698,9.2436576 79.385375,9.1080958 79.021053,9.4385277 78.724511,9.912994 q -0.288068,0.465994 -0.288068,1.050604 0,0.881152 0.626973,1.406454 0.635446,0.516829 1.65216,0.516829 0.271123,0 0.635446,-0.07625 0.364322,-0.08473 0.626973,-0.254179 0.305014,-0.19487 0.491411,-0.457521 0.186398,-0.262651 0.186398,-0.711699 z" />
    <path
       inkscape:connector-curvature="0"
       id="path1117"
       style="font-style:normal;font-variant:normal;font-weight:bold;font-stretch:normal;font-size:17.35191154px;font-family:sans-serif;-inkscape-font-specification:'sans-serif Bold';fill:#ffffff;stroke-width:0.65069669"
       d="m 98.118319,8.4557046 q 0,1.5928514 -0.288069,2.8552704 -0.288069,1.253947 -0.898097,2.058845 -0.626973,0.821844 -1.609797,1.245474 -0.982823,0.415158 -2.423167,0.415158 -1.414926,0 -2.414695,-0.42363 -0.999768,-0.423631 -1.618269,-1.253947 -0.626973,-0.830316 -0.906569,-2.058845 -0.279597,-1.237002 -0.279597,-2.8298528 0,-1.643687 0.288069,-2.8552706 0.288069,-1.2115837 0.915043,-2.0503724 0.626973,-0.8303161 1.626741,-1.2454741 0.999769,-0.4151581 2.389277,-0.4151581 1.448817,0 2.43164,0.4321033 0.982823,0.4236307 1.609797,1.270892 0.6185,0.8303161 0.898097,2.0503723 0.279596,1.2115837 0.279596,2.804435 z m -3.278902,0 q 0,-2.2876056 -0.449048,-3.2534835 -0.449049,-0.9743505 -1.49118,-0.9743505 -1.042131,0 -1.49118,0.9743505 -0.449048,0.9658779 -0.449048,3.2704287 0,2.2452422 0.457521,3.2365382 0.457521,0.991296 1.482707,0.991296 1.025186,0 1.482707,-0.991296 0.457521,-0.991296 0.457521,-3.2534834 z" />
    <path
       inkscape:connector-curvature="0"
       id="path1119"
       style="font-style:normal;font-variant:normal;font-weight:bold;font-stretch:normal;font-size:17.35191154px;font-family:sans-serif;-inkscape-font-specification:'sans-serif Bold';fill:#ffffff;stroke-width:0.65069669"
       d="m 110.45445,8.4557046 q 0,1.5928514 -0.28807,2.8552704 -0.28807,1.253947 -0.8981,2.058845 -0.62697,0.821844 -1.6098,1.245474 -0.98282,0.415158 -2.42316,0.415158 -1.41493,0 -2.4147,-0.42363 -0.99977,-0.423631 -1.61827,-1.253947 -0.62697,-0.830316 -0.90657,-2.058845 -0.27959,-1.237002 -0.27959,-2.8298528 0,-1.643687 0.28807,-2.8552706 0.28807,-1.2115837 0.91504,-2.0503724 0.62697,-0.8303161 1.62674,-1.2454741 0.99977,-0.4151581 2.38928,-0.4151581 1.44881,0 2.43164,0.4321033 0.98282,0.4236307 1.60979,1.270892 0.6185,0.8303161 0.8981,2.0503723 0.2796,1.2115837 0.2796,2.804435 z m -3.2789,0 q 0,-2.2876056 -0.44905,-3.2534835 -0.44905,-0.9743505 -1.49118,-0.9743505 -1.04213,0 -1.49118,0.9743505 -0.44905,0.9658779 -0.44905,3.2704287 0,2.2452422 0.45752,3.2365382 0.45752,0.991296 1.48271,0.991296 1.02518,0 1.4827,-0.991296 0.45753,-0.991296 0.45753,-3.2534834 z" />
  </g>
</svg>
