<?xml version="1.0" encoding="UTF-8" standalone="no"?>
<svg
   xmlns:dc="http://purl.org/dc/elements/1.1/"
   xmlns:cc="http://creativecommons.org/ns#"
   xmlns:rdf="http://www.w3.org/1999/02/22-rdf-syntax-ns#"
   xmlns:svg="http://www.w3.org/2000/svg"
   xmlns="http://www.w3.org/2000/svg"
   xmlns:sodipodi="http://sodipodi.sourceforge.net/DTD/sodipodi-0.dtd"
   xmlns:inkscape="http://www.inkscape.org/namespaces/inkscape"
   width="123px"
   height="18px"
   viewBox="0 0 123 18"
   version="1.1"
   id="svg12"
   sodipodi:docname="system.svg"
   inkscape:version="0.92.4 (5da689c313, 2019-01-14)">
  <metadata
     id="metadata16">
    <rdf:RDF>
      <cc:Work
         rdf:about="">
        <dc:format>image/svg+xml</dc:format>
        <dc:type
           rdf:resource="http://purl.org/dc/dcmitype/StillImage" />
      </cc:Work>
    </rdf:RDF>
  </metadata>
  <sodipodi:namedview
     pagecolor="#ffffff"
     bordercolor="#666666"
     borderopacity="1"
     objecttolerance="10"
     gridtolerance="10"
     guidetolerance="10"
     inkscape:pageopacity="0"
     inkscape:pageshadow="2"
     inkscape:window-width="1920"
     inkscape:window-height="1018"
     id="namedview14"
     showgrid="false"
     inkscape:zoom="3.0894309"
     inkscape:cx="61.5"
     inkscape:cy="9"
     inkscape:window-x="-8"
     inkscape:window-y="-8"
     inkscape:window-maximized="1"
     inkscape:current-layer="svg12" />
  <!-- Generator: Sketch 45 (43475) - http://www.bohemiancoding.com/sketch -->
  <title
     id="title2">system</title>
  <desc
     id="desc4">Created with Sketch.</desc>
  <defs
     id="defs6" />
  <path
     style="fill:#ffffff;fill-rule:evenodd;stroke:none;stroke-width:1"
     inkscape:connector-curvature="0"
     id="NEO-GEO-POCKET-Copy"
     d="M 16.82,14 H 15.35 L 10.87,7.28 V 14 H 9.078 V 4.2 h 1.764 l 4.186,6.328 V 4.2 h 1.792 z m 8.568,0 H 18.976 V 4.2 h 6.272 V 5.936 H 20.81 v 2.086 h 3.444 V 9.758 H 20.81 v 2.506 h 4.578 z m 5.656,0.196 c -1.418674,0 -2.578329,-0.468995 -3.479,-1.407 -0.900671,-0.938005 -1.351,-2.167659 -1.351,-3.689 0,-1.5213409 0.450329,-2.7509953 1.351,-3.689 0.900671,-0.9380047 2.060326,-1.407 3.479,-1.407 1.418674,0 2.578329,0.4689953 3.479,1.407 0.900671,0.9380047 1.351,2.1676591 1.351,3.689 0,1.521341 -0.450329,2.750995 -1.351,3.689 -0.900671,0.938005 -2.060326,1.407 -3.479,1.407 z m 0,-8.47 c -0.924005,0 -1.633331,0.3079969 -2.128,0.924 -0.494669,0.6160031 -0.742,1.4326616 -0.742,2.45 0,1.017338 0.247331,1.833997 0.742,2.45 0.494669,0.616003 1.203995,0.924 2.128,0.924 0.924005,0 1.633331,-0.307997 2.128,-0.924 0.494669,-0.616003 0.742,-1.432662 0.742,-2.45 0,-1.0173384 -0.247331,-1.8339969 -0.742,-2.45 C 32.677331,6.0339969 31.968005,5.726 31.044,5.726 Z m 13.748,8.47 c -1.390674,0 -2.536329,-0.468995 -3.437,-1.407 -0.900671,-0.938005 -1.351,-2.172326 -1.351,-3.703 0,-1.5213409 0.452662,-2.748662 1.358,-3.682 0.905338,-0.933338 2.081326,-1.4 3.528,-1.4 0.494669,0 1.021997,0.053666 1.582,0.161 0.560003,0.1073339 1.012665,0.2449992 1.358,0.413 l -0.196,1.708 c -0.914671,-0.3733352 -1.815329,-0.56 -2.702,-0.56 -0.980005,0 -1.719664,0.3056636 -2.219,0.917 -0.499336,0.6113364 -0.749,1.4163283 -0.749,2.415 0,1.036005 0.261331,1.86433 0.784,2.485 0.522669,0.62067 1.278662,0.931 2.268,0.931 0.401335,0 0.849331,-0.05133 1.344,-0.154 V 10.57 H 45.282 V 9.086 h 2.87 v 4.368 c -0.354668,0.205334 -0.86333,0.380333 -1.526,0.525 -0.66267,0.144667 -1.273997,0.217 -1.834,0.217 z M 56.3,14 H 49.888 V 4.2 h 6.272 v 1.736 h -4.438 v 2.086 h 3.444 v 1.736 h -3.444 v 2.506 H 56.3 Z m 5.656,0.196 c -1.418674,0 -2.578329,-0.468995 -3.479,-1.407 -0.900671,-0.938005 -1.351,-2.167659 -1.351,-3.689 0,-1.5213409 0.450329,-2.7509953 1.351,-3.689 0.900671,-0.9380047 2.060326,-1.407 3.479,-1.407 1.418674,0 2.578329,0.4689953 3.479,1.407 0.900671,0.9380047 1.351,2.1676591 1.351,3.689 0,1.521341 -0.450329,2.750995 -1.351,3.689 -0.900671,0.938005 -2.060326,1.407 -3.479,1.407 z m 0,-8.47 c -0.924005,0 -1.633331,0.3079969 -2.128,0.924 -0.494669,0.6160031 -0.742,1.4326616 -0.742,2.45 0,1.017338 0.247331,1.833997 0.742,2.45 0.494669,0.616003 1.203995,0.924 2.128,0.924 0.924005,0 1.633331,-0.307997 2.128,-0.924 0.494669,-0.616003 0.742,-1.432662 0.742,-2.45 0,-1.0173384 -0.247331,-1.8339969 -0.742,-2.45 C 63.589331,6.0339969 62.880005,5.726 61.956,5.726 Z m 13.09,5.054 h -1.75 V 14 H 71.504 V 4.2 h 2.772 c 0.737337,0 1.341664,0.037333 1.813,0.112 0.471336,0.074667 0.900665,0.2193323 1.288,0.434 0.387335,0.2146677 0.667332,0.5296646 0.84,0.945 0.172668,0.4153354 0.259,0.95433 0.259,1.617 0,0.66267 -0.109666,1.2343309 -0.329,1.715 -0.219334,0.4806691 -0.510998,0.8423321 -0.875,1.085 -0.364002,0.242668 -0.727998,0.415333 -1.092,0.518 -0.364002,0.102667 -0.741998,0.154 -1.134,0.154 z m -0.28,-5.082 h -1.47 V 9.1 h 1.512 c 0.66267,0 1.136332,-0.1329987 1.421,-0.399 0.284668,-0.2660013 0.427,-0.7256634 0.427,-1.379 0,-0.5786696 -0.132999,-0.9939987 -0.399,-1.246 C 75.990999,5.8239987 75.494004,5.698 74.766,5.698 Z m 9.324,8.498 c -1.418674,0 -2.578329,-0.468995 -3.479,-1.407 C 79.710329,11.850995 79.26,10.621341 79.26,9.1 c 0,-1.5213409 0.450329,-2.7509953 1.351,-3.689 0.900671,-0.9380047 2.060326,-1.407 3.479,-1.407 1.418674,0 2.578329,0.4689953 3.479,1.407 0.900671,0.9380047 1.351,2.1676591 1.351,3.689 0,1.521341 -0.450329,2.750995 -1.351,3.689 -0.900671,0.938005 -2.060326,1.407 -3.479,1.407 z m 0,-8.47 c -0.924005,0 -1.633331,0.3079969 -2.128,0.924 -0.494669,0.6160031 -0.742,1.4326616 -0.742,2.45 0,1.017338 0.247331,1.833997 0.742,2.45 0.494669,0.616003 1.203995,0.924 2.128,0.924 0.924005,0 1.633331,-0.307997 2.128,-0.924 C 86.712669,10.933997 86.96,10.117338 86.96,9.1 86.96,8.0826616 86.712669,7.2660031 86.218,6.65 85.723331,6.0339969 85.014005,5.726 84.09,5.726 Z m 10.64,8.47 c -1.418674,0 -2.578329,-0.468995 -3.479,-1.407 C 90.350329,11.850995 89.9,10.621341 89.9,9.1 c 0,-1.5213409 0.450329,-2.7509953 1.351,-3.689 0.900671,-0.9380047 2.060326,-1.407 3.479,-1.407 1.073339,0 2.001996,0.1913314 2.786,0.574 L 97.32,6.286 c -0.942671,-0.3733352 -1.805996,-0.56 -2.59,-0.56 -0.924005,0 -1.633331,0.3079969 -2.128,0.924 -0.494669,0.6160031 -0.742,1.4326616 -0.742,2.45 0,1.017338 0.247331,1.833997 0.742,2.45 0.494669,0.616003 1.203995,0.924 2.128,0.924 0.784004,0 1.647329,-0.186665 2.59,-0.56 l 0.196,1.708 c -0.784004,0.382669 -1.712661,0.574 -2.786,0.574 z M 106.588,14 h -2.016 l -3.416,-5.18 3.416,-4.62 h 2.016 l -3.416,4.62 z m -5.782,0 H 99.014 V 4.2 h 1.792 z m 13.314,0 h -6.412 V 4.2 h 6.272 v 1.736 h -4.438 v 2.086 h 3.444 v 1.736 h -3.444 v 2.506 h 4.578 z m 8.008,-8.064 h -2.772 V 14 h -1.792 V 5.936 h -2.772 V 4.2 h 7.336 z" />
</svg>
