<?xml version="1.0" encoding="UTF-8" standalone="no"?>
<svg
   xmlns:dc="http://purl.org/dc/elements/1.1/"
   xmlns:cc="http://creativecommons.org/ns#"
   xmlns:rdf="http://www.w3.org/1999/02/22-rdf-syntax-ns#"
   xmlns:svg="http://www.w3.org/2000/svg"
   xmlns="http://www.w3.org/2000/svg"
   xmlns:sodipodi="http://sodipodi.sourceforge.net/DTD/sodipodi-0.dtd"
   xmlns:inkscape="http://www.inkscape.org/namespaces/inkscape"
   width="117px"
   height="18px"
   viewBox="0 0 117 18"
   version="1.1"
   id="svg12"
   sodipodi:docname="system.svg"
   inkscape:version="0.92.4 (5da689c313, 2019-01-14)">
  <metadata
     id="metadata16">
    <rdf:RDF>
      <cc:Work
         rdf:about="">
        <dc:format>image/svg+xml</dc:format>
        <dc:type
           rdf:resource="http://purl.org/dc/dcmitype/StillImage" />
        <dc:title>system</dc:title>
      </cc:Work>
    </rdf:RDF>
  </metadata>
  <sodipodi:namedview
     pagecolor="#ffffff"
     bordercolor="#666666"
     borderopacity="1"
     objecttolerance="10"
     gridtolerance="10"
     guidetolerance="10"
     inkscape:pageopacity="0"
     inkscape:pageshadow="2"
     inkscape:window-width="1920"
     inkscape:window-height="1018"
     id="namedview14"
     showgrid="false"
     inkscape:zoom="3.2478632"
     inkscape:cx="94.880589"
     inkscape:cy="8.9999999"
     inkscape:window-x="-8"
     inkscape:window-y="-8"
     inkscape:window-maximized="1"
     inkscape:current-layer="svg12" />
  <!-- Generator: Sketch 45 (43475) - http://www.bohemiancoding.com/sketch -->
  <title
     id="title2">system</title>
  <desc
     id="desc4">Created with Sketch.</desc>
  <defs
     id="defs6" />
  <g
     id="text1135"
     style="font-style:normal;font-variant:normal;font-weight:normal;font-stretch:normal;font-size:20.07624435px;line-height:1.25;font-family:sans-serif;-inkscape-font-specification:sans-serif;letter-spacing:0px;word-spacing:0px;fill:#ffffff;fill-opacity:1;stroke:none;stroke-width:0.5019061"
     aria-label="ATARI JAGUAR">
    <path
       inkscape:connector-curvature="0"
       id="path1143"
       style="font-style:normal;font-variant:normal;font-weight:bold;font-stretch:normal;font-size:13.38416195px;font-family:sans-serif;-inkscape-font-specification:'sans-serif Bold';fill:#ffffff;stroke-width:0.5019061"
       d="M 14.084572,13.582638 H 11.490084 L 10.816955,11.615532 H 7.2095047 L 6.5363755,13.582638 H 4.0072394 L 7.6016188,3.8516724 H 10.490193 Z M 10.209178,9.8314127 9.0132297,6.341597 7.8172816,9.8314127 Z" />
    <path
       inkscape:connector-curvature="0"
       id="path1145"
       style="font-style:normal;font-variant:normal;font-weight:bold;font-stretch:normal;font-size:13.38416195px;font-family:sans-serif;-inkscape-font-specification:'sans-serif Bold';fill:#ffffff;stroke-width:0.5019061"
       d="m 23.109732,5.7338202 h -3.038884 v 7.8488178 h -2.50953 V 5.7338202 H 14.522433 V 3.8516724 h 8.587299 z" />
    <path
       inkscape:connector-curvature="0"
       id="path1147"
       style="font-style:normal;font-variant:normal;font-weight:bold;font-stretch:normal;font-size:13.38416195px;font-family:sans-serif;-inkscape-font-specification:'sans-serif Bold';fill:#ffffff;stroke-width:0.5019061"
       d="m 33.611855,13.582638 h -2.594488 l -0.67313,-1.967106 h -3.60745 l -0.673129,1.967106 h -2.529136 l 3.59438,-9.7309656 h 2.888574 z M 29.73646,9.8314127 28.540512,6.341597 27.344564,9.8314127 Z" />
    <path
       inkscape:connector-curvature="0"
       id="path1149"
       style="font-style:normal;font-variant:normal;font-weight:bold;font-stretch:normal;font-size:13.38416195px;font-family:sans-serif;-inkscape-font-specification:'sans-serif Bold';fill:#ffffff;stroke-width:0.5019061"
       d="m 40.480387,6.8317397 q 0,-0.3659732 -0.15031,-0.6273826 Q 40.179767,5.9429477 39.813793,5.7926373 39.558919,5.6880735 39.219087,5.6684678 38.879255,5.6423269 38.428324,5.6423269 h -0.908398 v 2.6206293 h 0.771158 q 0.601241,0 1.006426,-0.058817 0.405184,-0.058817 0.679664,-0.2679446 0.26141,-0.2025923 0.379044,-0.444396 0.124169,-0.248339 0.124169,-0.6600589 z m 3.914606,6.7508983 h -3.065025 l -2.653306,-3.568239 h -1.156736 v 3.568239 h -2.49646 V 3.8516724 h 4.208691 q 0.862652,0 1.483499,0.098028 0.620847,0.098028 1.163272,0.4247903 0.54896,0.3267618 0.869186,0.8495806 0.326762,0.5162836 0.326762,1.3005118 0,1.0783139 -0.503213,1.7579783 -0.496678,0.6796645 -1.424682,1.1305957 z" />
    <path
       inkscape:connector-curvature="0"
       id="path1151"
       style="font-style:normal;font-variant:normal;font-weight:bold;font-stretch:normal;font-size:13.38416195px;font-family:sans-serif;-inkscape-font-specification:'sans-serif Bold';fill:#ffffff;stroke-width:0.5019061"
       d="M 50.766848,13.582638 H 45.068122 V 11.857336 H 46.66272 V 5.5769745 H 45.068122 V 3.8516724 h 5.698726 V 5.5769745 H 49.17225 v 6.2803615 h 1.594598 z" />
    <path
       inkscape:connector-curvature="0"
       id="path1153"
       style="font-style:normal;font-variant:normal;font-weight:bold;font-stretch:normal;font-size:13.38416195px;font-family:sans-serif;-inkscape-font-specification:'sans-serif Bold';fill:#ffffff;stroke-width:0.5019061"
       d="m 62.471456,10.72674 q 0,0.640453 -0.228733,1.202483 -0.228733,0.555495 -0.679664,0.941074 -0.477072,0.41172 -1.150202,0.640453 -0.673129,0.222198 -1.666485,0.222198 -0.673129,0 -1.267835,-0.05228 -0.594707,-0.04575 -1.045638,-0.13724 v -1.973641 h 0.235268 q 0.313692,0.117635 0.653524,0.222198 0.339832,0.09803 0.869186,0.09803 0.6862,0 1.052173,-0.182987 0.372509,-0.182986 0.529354,-0.509748 0.150311,-0.320227 0.169916,-0.69927 0.01961,-0.385579 0.01961,-0.9802856 V 5.6423269 H 57.733411 V 3.8516724 h 4.738045 z" />
    <path
       inkscape:connector-curvature="0"
       id="path1155"
       style="font-style:normal;font-variant:normal;font-weight:bold;font-stretch:normal;font-size:13.38416195px;font-family:sans-serif;-inkscape-font-specification:'sans-serif Bold';fill:#ffffff;stroke-width:0.5019061"
       d="m 73.816624,13.582638 h -2.594488 l -0.67313,-1.967106 h -3.607449 l -0.67313,1.967106 h -2.529136 l 3.59438,-9.7309656 h 2.888574 z M 69.94123,9.8314127 68.745282,6.341597 67.549333,9.8314127 Z" />
    <path
       inkscape:connector-curvature="0"
       id="path1157"
       style="font-style:normal;font-variant:normal;font-weight:bold;font-stretch:normal;font-size:13.38416195px;font-family:sans-serif;-inkscape-font-specification:'sans-serif Bold';fill:#ffffff;stroke-width:0.5019061"
       d="m 83.83514,13.027143 q -0.653524,0.254874 -1.731837,0.509748 -1.078314,0.248339 -2.150093,0.248339 -2.483389,0 -3.888465,-1.346258 -1.405075,-1.352794 -1.405075,-3.7316198 0,-2.2677266 1.418146,-3.6531965 1.418146,-1.3920051 3.953817,-1.3920051 0.96068,0 1.829866,0.1764513 0.869186,0.1699161 1.93443,0.6861997 V 6.8055988 H 83.514913 Q 83.331927,6.6683588 82.979024,6.4200199 82.626121,6.1651457 82.29936,5.9886943 81.920316,5.7795668 81.410568,5.6292564 80.907355,5.478946 80.338789,5.478946 q -0.666594,0 -1.209018,0.196057 -0.542425,0.1960571 -0.973751,0.6012417 -0.411719,0.3921141 -0.653523,0.999891 -0.235269,0.6012416 -0.235269,1.3920051 0,1.6142032 0.856116,2.4703192 0.856116,0.856116 2.529136,0.856116 0.143776,0 0.313692,-0.0065 0.176451,-0.0065 0.320226,-0.01961 v -1.90832 H 79.345433 V 8.2237448 h 4.489707 z" />
    <path
       inkscape:connector-curvature="0"
       id="path1159"
       style="font-style:normal;font-variant:normal;font-weight:bold;font-stretch:normal;font-size:13.38416195px;font-family:sans-serif;-inkscape-font-specification:'sans-serif Bold';fill:#ffffff;stroke-width:0.5019061"
       d="m 94.59867,10.060146 q 0,1.803725 -1.09792,2.764404 -1.097919,0.96068 -3.234941,0.96068 -2.137022,0 -3.234942,-0.96068 -1.091384,-0.960679 -1.091384,-2.757869 V 3.8516724 h 2.522601 V 9.922906 q 0,1.012961 0.42479,1.509639 0.42479,0.496678 1.378935,0.496678 0.941074,0 1.372399,-0.477072 0.437861,-0.477072 0.437861,-1.529245 V 3.8516724 h 2.522601 z" />
    <path
       inkscape:connector-curvature="0"
       id="path1161"
       style="font-style:normal;font-variant:normal;font-weight:bold;font-stretch:normal;font-size:13.38416195px;font-family:sans-serif;-inkscape-font-specification:'sans-serif Bold';fill:#ffffff;stroke-width:0.5019061"
       d="m 105.94384,13.582638 h -2.59449 l -0.67313,-1.967106 h -3.607447 l -0.673129,1.967106 h -2.529136 l 3.594379,-9.7309656 h 2.888573 z M 102.06845,9.8314127 100.8725,6.341597 99.67655,9.8314127 Z" />
    <path
       inkscape:connector-curvature="0"
       id="path1163"
       style="font-style:normal;font-variant:normal;font-weight:bold;font-stretch:normal;font-size:13.38416195px;font-family:sans-serif;-inkscape-font-specification:'sans-serif Bold';fill:#ffffff;stroke-width:0.5019061"
       d="m 112.81238,6.8317397 q 0,-0.3659732 -0.15031,-0.6273826 -0.15031,-0.2614094 -0.51629,-0.4117198 -0.25487,-0.1045638 -0.5947,-0.1241695 -0.33984,-0.026141 -0.79077,-0.026141 h -0.90839 v 2.6206293 h 0.77115 q 0.60124,0 1.00643,-0.058817 0.40518,-0.058817 0.67966,-0.2679446 0.26141,-0.2025923 0.37905,-0.444396 0.12417,-0.248339 0.12417,-0.6600588 z m 3.9146,6.7508983 h -3.06502 l -2.65331,-3.568239 h -1.15673 v 3.568239 h -2.49646 V 3.8516724 h 4.20869 q 0.86265,0 1.4835,0.098028 0.62084,0.098028 1.16327,0.4247903 0.54896,0.3267618 0.86918,0.8495806 0.32677,0.5162836 0.32677,1.3005118 0,1.0783139 -0.50322,1.7579783 -0.49668,0.6796645 -1.42468,1.1305957 z" />
  </g>
</svg>
