<?xml version="1.0" encoding="UTF-8" standalone="no"?>
<svg
   xmlns:dc="http://purl.org/dc/elements/1.1/"
   xmlns:cc="http://creativecommons.org/ns#"
   xmlns:rdf="http://www.w3.org/1999/02/22-rdf-syntax-ns#"
   xmlns:svg="http://www.w3.org/2000/svg"
   xmlns="http://www.w3.org/2000/svg"
   xmlns:sodipodi="http://sodipodi.sourceforge.net/DTD/sodipodi-0.dtd"
   xmlns:inkscape="http://www.inkscape.org/namespaces/inkscape"
   width="81px"
   height="18px"
   viewBox="0 0 81 18"
   version="1.1"
   id="svg12"
   sodipodi:docname="system.svg"
   inkscape:version="0.92.4 (5da689c313, 2019-01-14)">
  <metadata
     id="metadata16">
    <rdf:RDF>
      <cc:Work
         rdf:about="">
        <dc:format>image/svg+xml</dc:format>
        <dc:type
           rdf:resource="http://purl.org/dc/dcmitype/StillImage" />
      </cc:Work>
    </rdf:RDF>
  </metadata>
  <sodipodi:namedview
     pagecolor="#ffffff"
     bordercolor="#666666"
     borderopacity="1"
     objecttolerance="10"
     gridtolerance="10"
     guidetolerance="10"
     inkscape:pageopacity="0"
     inkscape:pageshadow="2"
     inkscape:window-width="1920"
     inkscape:window-height="1018"
     id="namedview14"
     showgrid="false"
     inkscape:zoom="4.691358"
     inkscape:cx="104.2039"
     inkscape:cy="9"
     inkscape:window-x="-8"
     inkscape:window-y="-8"
     inkscape:window-maximized="1"
     inkscape:current-layer="svg12" />
  <!-- Generator: Sketch 45 (43475) - http://www.bohemiancoding.com/sketch -->
  <title
     id="title2">system</title>
  <desc
     id="desc4">Created with Sketch.</desc>
  <defs
     id="defs6" />
  <path
     style="fill:#ffffff;fill-rule:evenodd;stroke:none;stroke-width:1"
     inkscape:connector-curvature="0"
     id="GAMEGEAR-Copy"
     d="m 13.278,14.196 c -1.390674,0 -2.536329,-0.468995 -3.437,-1.407 C 8.9403288,11.850995 8.49,10.616674 8.49,9.086 c 0,-1.5213409 0.4526621,-2.748662 1.358,-3.682 0.905338,-0.933338 2.081326,-1.4 3.528,-1.4 0.494669,0 1.021997,0.053666 1.582,0.161 0.560003,0.1073339 1.012665,0.2449992 1.358,0.413 L 16.12,6.286 c -0.914671,-0.3733352 -1.815329,-0.56 -2.702,-0.56 -0.980005,0 -1.719664,0.3056636 -2.219,0.917 -0.499336,0.6113364 -0.749,1.4163283 -0.749,2.415 0,1.036005 0.261331,1.86433 0.784,2.485 0.522669,0.62067 1.278662,0.931 2.268,0.931 0.401335,0 0.849331,-0.05133 1.344,-0.154 V 10.57 H 13.768 V 9.086 h 2.87 v 4.368 c -0.354668,0.205334 -0.86333,0.380333 -1.526,0.525 -0.66267,0.144667 -1.273997,0.217 -1.834,0.217 z M 26.004,14 h -1.862 l -0.84,-2.366 H 20.04 L 19.2,14 h -1.862 l 3.486,-9.8 h 1.694 z M 22.686,9.898 21.664,7.028 20.656,9.898 Z M 37.092,14 H 35.23 L 34.39,7.434 31.884,11.942 29.364,7.448 28.524,14 H 26.662 L 28.02,4.2 h 1.47 l 2.394,4.466 2.38,-4.466 h 1.47 z m 8.036,0 H 38.716 V 4.2 h 6.272 V 5.936 H 40.55 v 2.086 h 3.444 V 9.758 H 40.55 v 2.506 h 4.578 z m 5.614,0.196 c -1.390674,0 -2.536329,-0.468995 -3.437,-1.407 -0.900671,-0.938005 -1.351,-2.172326 -1.351,-3.703 0,-1.5213409 0.452662,-2.748662 1.358,-3.682 0.905338,-0.933338 2.081326,-1.4 3.528,-1.4 0.494669,0 1.021997,0.053666 1.582,0.161 0.560003,0.1073339 1.012665,0.2449992 1.358,0.413 l -0.196,1.708 c -0.914671,-0.3733352 -1.815329,-0.56 -2.702,-0.56 -0.980005,0 -1.719664,0.3056636 -2.219,0.917 -0.499336,0.6113364 -0.749,1.4163283 -0.749,2.415 0,1.036005 0.261331,1.86433 0.784,2.485 0.522669,0.62067 1.278662,0.931 2.268,0.931 0.401335,0 0.849331,-0.05133 1.344,-0.154 V 10.57 H 51.232 V 9.086 h 2.87 v 4.368 c -0.354668,0.205334 -0.86333,0.380333 -1.526,0.525 -0.66267,0.144667 -1.273997,0.217 -1.834,0.217 z M 62.25,14 H 55.838 V 4.2 h 6.272 v 1.736 h -4.438 v 2.086 h 3.444 v 1.736 h -3.444 v 2.506 h 4.578 z m 9.17,0 h -1.862 l -0.84,-2.366 H 65.456 L 64.616,14 H 62.754 L 66.24,4.2 h 1.694 z M 68.102,9.898 67.08,7.028 66.072,9.898 Z M 80.044,14 h -1.862 l -2.03,-3.64 h -1.82 V 14 H 72.54 V 4.2 h 3.584 c 2.249345,0 3.374,0.9426572 3.374,2.828 0,0.7000035 -0.144665,1.2693311 -0.434,1.708 -0.289335,0.4386689 -0.699997,0.8213317 -1.232,1.148 z M 75.718,5.698 H 74.332 V 8.68 h 1.316 c 0.756004,0 1.273999,-0.1306654 1.554,-0.392 0.280001,-0.2613346 0.42,-0.6393309 0.42,-1.134 0,-0.4946691 -0.135332,-0.8609988 -0.406,-1.099 C 76.945332,5.8169988 76.446004,5.698 75.718,5.698 Z" />
</svg>
