<?xml version="1.0" encoding="UTF-8" standalone="no"?>
<svg
   xmlns:dc="http://purl.org/dc/elements/1.1/"
   xmlns:cc="http://creativecommons.org/ns#"
   xmlns:rdf="http://www.w3.org/1999/02/22-rdf-syntax-ns#"
   xmlns:svg="http://www.w3.org/2000/svg"
   xmlns="http://www.w3.org/2000/svg"
   xmlns:sodipodi="http://sodipodi.sourceforge.net/DTD/sodipodi-0.dtd"
   xmlns:inkscape="http://www.inkscape.org/namespaces/inkscape"
   width="109px"
   height="18px"
   viewBox="0 0 109 18"
   version="1.1"
   id="svg12"
   sodipodi:docname="system.svg"
   inkscape:version="0.92.4 (5da689c313, 2019-01-14)">
  <metadata
     id="metadata16">
    <rdf:RDF>
      <cc:Work
         rdf:about="">
        <dc:format>image/svg+xml</dc:format>
        <dc:type
           rdf:resource="http://purl.org/dc/dcmitype/StillImage" />
      </cc:Work>
    </rdf:RDF>
  </metadata>
  <sodipodi:namedview
     pagecolor="#ffffff"
     bordercolor="#666666"
     borderopacity="1"
     objecttolerance="10"
     gridtolerance="10"
     guidetolerance="10"
     inkscape:pageopacity="0"
     inkscape:pageshadow="2"
     inkscape:window-width="1920"
     inkscape:window-height="1018"
     id="namedview14"
     showgrid="false"
     inkscape:zoom="3.4862385"
     inkscape:cx="54.5"
     inkscape:cy="9"
     inkscape:window-x="-8"
     inkscape:window-y="-8"
     inkscape:window-maximized="1"
     inkscape:current-layer="svg12" />
  <!-- Generator: Sketch 45 (43475) - http://www.bohemiancoding.com/sketch -->
  <title
     id="title2">system</title>
  <desc
     id="desc4">Created with Sketch.</desc>
  <defs
     id="defs6" />
  <path
     style="fill:#ffffff;fill-rule:evenodd;stroke:none;stroke-width:1"
     inkscape:connector-curvature="0"
     id="GAME-&amp;-WATCH-Copy"
     d="m 13.278,14.196 c -1.390674,0 -2.536329,-0.468995 -3.437,-1.407 C 8.9403288,11.850995 8.49,10.616674 8.49,9.086 c 0,-1.5213409 0.4526621,-2.748662 1.358,-3.682 0.905338,-0.933338 2.081326,-1.4 3.528,-1.4 0.494669,0 1.021997,0.053666 1.582,0.161 0.560003,0.1073339 1.012665,0.2449992 1.358,0.413 L 16.12,6.286 c -0.914671,-0.3733352 -1.815329,-0.56 -2.702,-0.56 -0.980005,0 -1.719664,0.3056636 -2.219,0.917 -0.499336,0.6113364 -0.749,1.4163283 -0.749,2.415 0,1.036005 0.261331,1.86433 0.784,2.485 0.522669,0.62067 1.278662,0.931 2.268,0.931 0.401335,0 0.849331,-0.05133 1.344,-0.154 V 10.57 H 13.768 V 9.086 h 2.87 v 4.368 c -0.354668,0.205334 -0.86333,0.380333 -1.526,0.525 -0.66267,0.144667 -1.273997,0.217 -1.834,0.217 z M 26.004,14 h -1.862 l -0.84,-2.366 H 20.04 L 19.2,14 h -1.862 l 3.486,-9.8 h 1.694 z M 22.686,9.898 21.664,7.028 20.656,9.898 Z M 37.092,14 H 35.23 L 34.39,7.434 31.884,11.942 29.364,7.448 28.524,14 H 26.662 L 28.02,4.2 h 1.47 l 2.394,4.466 2.38,-4.466 h 1.47 z m 8.036,0 H 38.716 V 4.2 h 6.272 V 5.936 H 40.55 v 2.086 h 3.444 V 9.758 H 40.55 v 2.506 h 4.578 z m 12.348,0 H 55.46 l -0.434,-0.476 c -0.681337,0.541336 -1.539995,0.812 -2.576,0.812 -1.073339,0 -1.885331,-0.258997 -2.436,-0.777 -0.550669,-0.518003 -0.826,-1.154996 -0.826,-1.911 0,-0.588003 0.151665,-1.101331 0.455,-1.54 0.303335,-0.4386689 0.720997,-0.853998 1.253,-1.246 -0.700004,-0.8773377 -1.05,-1.6753297 -1.05,-2.394 0,-0.7000035 0.279997,-1.2599979 0.84,-1.68 0.560003,-0.4200021 1.22733,-0.63 2.002,-0.63 0.700004,0 1.245998,0.1819982 1.638,0.546 0.392002,0.3640018 0.588,0.8493303 0.588,1.456 0,0.2893348 -0.049,0.5599987 -0.147,0.812 -0.098,0.2520013 -0.263666,0.4946655 -0.497,0.728 -0.233335,0.2333345 -0.431666,0.4153327 -0.595,0.546 -0.163334,0.1306673 -0.412998,0.3173321 -0.749,0.56 l 1.96,2.24 c 0.07467,-0.373335 0.121333,-1.031329 0.14,-1.974 h 1.666 c 0,1.29734 -0.228664,2.379996 -0.686,3.248 z M 52.604,5.544 c -0.308001,0 -0.559999,0.086333 -0.756,0.259 -0.196001,0.1726675 -0.294,0.4176651 -0.294,0.735 0,0.4013353 0.214664,0.872664 0.644,1.414 0.793337,-0.5600028 1.19,-1.0919975 1.19,-1.596 0,-0.541336 -0.261331,-0.812 -0.784,-0.812 z m 1.54,6.986 -2.422,-2.73 c -0.485336,0.513336 -0.728,1.077997 -0.728,1.694 0,0.429336 0.128332,0.788665 0.385,1.078 0.256668,0.289335 0.692997,0.434 1.309,0.434 0.60667,0 1.091998,-0.158665 1.456,-0.476 z M 74.066,4.2 71.196,14 H 69.614 L 67.43,7.462 65.26,14 H 63.566 L 60.808,4.2 h 1.862 l 1.96,6.958 2.184,-6.958 h 1.246 l 2.268,6.776 1.876,-6.776 z m 8.288,9.8 h -1.862 l -0.84,-2.366 H 76.39 L 75.55,14 h -1.862 l 3.486,-9.8 h 1.694 z M 79.036,9.898 78.014,7.028 77.006,9.898 Z M 89.2,5.936 H 86.428 V 14 H 84.636 V 5.936 H 81.864 V 4.2 H 89.2 Z m 5.348,8.26 c -1.418674,0 -2.578329,-0.468995 -3.479,-1.407 -0.900671,-0.938005 -1.351,-2.167659 -1.351,-3.689 0,-1.5213409 0.450329,-2.7509953 1.351,-3.689 0.900671,-0.9380047 2.060326,-1.407 3.479,-1.407 1.073339,0 2.001996,0.1913314 2.786,0.574 l -0.196,1.708 c -0.942671,-0.3733352 -1.805996,-0.56 -2.59,-0.56 -0.924005,0 -1.633331,0.3079969 -2.128,0.924 -0.494669,0.6160031 -0.742,1.4326616 -0.742,2.45 0,1.017338 0.247331,1.833997 0.742,2.45 0.494669,0.616003 1.203995,0.924 2.128,0.924 0.784004,0 1.647329,-0.186665 2.59,-0.56 l 0.196,1.708 c -0.784004,0.382669 -1.712661,0.574 -2.786,0.574 z M 107.036,14 h -1.792 V 9.758 h -4.62 V 14 H 98.832 V 4.2 h 1.792 v 3.822 h 4.62 V 4.2 h 1.792 z" />
</svg>
