<?xml version="1.0" encoding="UTF-8" standalone="no"?>
<svg
   xmlns:dc="http://purl.org/dc/elements/1.1/"
   xmlns:cc="http://creativecommons.org/ns#"
   xmlns:rdf="http://www.w3.org/1999/02/22-rdf-syntax-ns#"
   xmlns:svg="http://www.w3.org/2000/svg"
   xmlns="http://www.w3.org/2000/svg"
   xmlns:sodipodi="http://sodipodi.sourceforge.net/DTD/sodipodi-0.dtd"
   xmlns:inkscape="http://www.inkscape.org/namespaces/inkscape"
   width="83px"
   height="18px"
   viewBox="0 0 83 18"
   version="1.1"
   id="svg12"
   sodipodi:docname="SUÇA.svg"
   inkscape:version="0.92.4 (5da689c313, 2019-01-14)">
  <metadata
     id="metadata16">
    <rdf:RDF>
      <cc:Work
         rdf:about="">
        <dc:format>image/svg+xml</dc:format>
        <dc:type
           rdf:resource="http://purl.org/dc/dcmitype/StillImage" />
        <dc:title>system</dc:title>
      </cc:Work>
    </rdf:RDF>
  </metadata>
  <sodipodi:namedview
     pagecolor="#ffffff"
     bordercolor="#666666"
     borderopacity="1"
     objecttolerance="10"
     gridtolerance="10"
     guidetolerance="10"
     inkscape:pageopacity="0"
     inkscape:pageshadow="2"
     inkscape:window-width="1920"
     inkscape:window-height="1018"
     id="namedview14"
     showgrid="false"
     inkscape:zoom="4.5783133"
     inkscape:cx="6.6421901"
     inkscape:cy="9.0000001"
     inkscape:window-x="-8"
     inkscape:window-y="-8"
     inkscape:window-maximized="1"
     inkscape:current-layer="svg12" />
  <!-- Generator: Sketch 45 (43475) - http://www.bohemiancoding.com/sketch -->
  <title
     id="title2">system</title>
  <desc
     id="desc4">Created with Sketch.</desc>
  <defs
     id="defs6" />
  <g
     id="g1120">
    <g
       aria-label="KANEKO"
       style="font-style:normal;font-variant:normal;font-weight:bold;font-stretch:normal;font-size:14.55338097px;line-height:1.25;font-family:sans-serif;-inkscape-font-specification:'sans-serif Bold';letter-spacing:0px;word-spacing:0px;fill:#ffffff;fill-opacity:1;stroke:none;stroke-width:0.54575181"
       id="text1116">
      <path
         d="m 18.685707,14.251776 h -3.346994 l -3.162233,-4.235262 -0.639553,0.77457 v 3.460692 H 8.8081678 V 3.6707287 h 2.7287592 v 4.7895405 l 3.780468,-4.7895405 h 3.162234 l -4.135776,4.8961326 z"
         style="fill:#ffffff;stroke-width:0.54575181"
         id="path1122"
         inkscape:connector-curvature="0" />
      <path
         d="m 29.813927,14.251776 h -2.821139 l -0.731933,-2.138949 h -3.922591 l -0.731933,2.138949 H 18.856254 L 22.764633,3.6707287 h 3.140915 z M 25.599984,10.17285 24.29956,6.3781692 22.999135,10.17285 Z"
         style="fill:#ffffff;stroke-width:0.54575181"
         id="path1124"
         inkscape:connector-curvature="0" />
      <path
         d="M 40.970571,14.251776 H 38.341298 L 33.850216,6.9892975 V 14.251776 H 31.348853 V 3.6707287 h 3.26172 l 3.858636,6.0615401 V 3.6707287 h 2.501362 z"
         style="fill:#ffffff;stroke-width:0.54575181"
         id="path1126"
         inkscape:connector-curvature="0" />
      <path
         d="M 51.338433,14.251776 H 43.685117 V 3.6707287 h 7.653316 v 2.0465692 h -4.938769 v 1.8262788 h 4.583462 v 2.0465692 h -4.583462 v 2.6150611 h 4.938769 z"
         style="fill:#ffffff;stroke-width:0.54575181"
         id="path1128"
         inkscape:connector-curvature="0" />
      <path
         d="m 63.511257,14.251776 h -3.346994 l -3.162233,-4.235262 -0.639553,0.77457 v 3.460692 H 53.633718 V 3.6707287 h 2.728759 v 4.7895405 l 3.780468,-4.7895405 h 3.162234 l -4.135776,4.8961326 z"
         style="fill:#ffffff;stroke-width:0.54575181"
         id="path1130"
         inkscape:connector-curvature="0" />
      <path
         d="m 75.15112,8.9648053 q 0,2.5297867 -1.449653,4.0220767 -1.449653,1.485184 -4.007865,1.485184 -2.551105,0 -4.000758,-1.485184 -1.449654,-1.49229 -1.449654,-4.0220767 0,-2.5511053 1.449654,-4.0291831 1.449653,-1.4851839 4.000758,-1.4851839 2.543999,0 4.000759,1.4851839 Q 75.15112,6.4137 75.15112,8.9648053 Z m -3.617027,2.6790157 q 0.397944,-0.483217 0.58981,-1.136983 0.191866,-0.6608709 0.191866,-1.5491388 0,-0.9522232 -0.220291,-1.6202006 Q 71.875188,6.6695211 71.519881,6.2573648 71.157468,5.8309962 70.681356,5.6391304 70.212351,5.4472645 69.700708,5.4472645 q -0.518748,0 -0.980647,0.1847597 -0.454794,0.1847597 -0.838525,0.6111283 -0.355308,0.397944 -0.582704,1.1014522 -0.220291,0.696402 -0.220291,1.6202006 0,0.945117 0.213185,1.6130947 0.22029,0.660871 0.575597,1.080134 0.355307,0.419262 0.831419,0.618234 0.476112,0.198972 1.001966,0.198972 0.525855,0 1.001966,-0.198972 0.476112,-0.206078 0.831419,-0.632447 z"
         style="fill:#ffffff;stroke-width:0.54575181"
         id="path1132"
         inkscape:connector-curvature="0" />
    </g>
  </g>
</svg>
