<?xml version="1.0" encoding="UTF-8" standalone="no"?>
<svg
   xmlns:dc="http://purl.org/dc/elements/1.1/"
   xmlns:cc="http://creativecommons.org/ns#"
   xmlns:rdf="http://www.w3.org/1999/02/22-rdf-syntax-ns#"
   xmlns:svg="http://www.w3.org/2000/svg"
   xmlns="http://www.w3.org/2000/svg"
   xmlns:sodipodi="http://sodipodi.sourceforge.net/DTD/sodipodi-0.dtd"
   xmlns:inkscape="http://www.inkscape.org/namespaces/inkscape"
   width="117px"
   height="18px"
   viewBox="0 0 117 18"
   version="1.1"
   id="svg12"
   sodipodi:docname="system.svg"
   inkscape:version="0.92.4 (5da689c313, 2019-01-14)">
  <metadata
     id="metadata16">
    <rdf:RDF>
      <cc:Work
         rdf:about="">
        <dc:format>image/svg+xml</dc:format>
        <dc:type
           rdf:resource="http://purl.org/dc/dcmitype/StillImage" />
      </cc:Work>
    </rdf:RDF>
  </metadata>
  <sodipodi:namedview
     pagecolor="#ffffff"
     bordercolor="#666666"
     borderopacity="1"
     objecttolerance="10"
     gridtolerance="10"
     guidetolerance="10"
     inkscape:pageopacity="0"
     inkscape:pageshadow="2"
     inkscape:window-width="1920"
     inkscape:window-height="1018"
     id="namedview14"
     showgrid="false"
     inkscape:zoom="3.2478632"
     inkscape:cx="58.5"
     inkscape:cy="9"
     inkscape:window-x="-8"
     inkscape:window-y="-8"
     inkscape:window-maximized="1"
     inkscape:current-layer="svg12" />
  <!-- Generator: Sketch 45 (43475) - http://www.bohemiancoding.com/sketch -->
  <title
     id="title2">system</title>
  <desc
     id="desc4">Created with Sketch.</desc>
  <defs
     id="defs6" />
  <path
     style="fill:#ffffff;fill-rule:evenodd;stroke:none;stroke-width:1"
     inkscape:connector-curvature="0"
     id="MASTER-SYSTEM-Copy"
     d="M 19.046,14 H 17.184 L 16.344,7.434 13.838,11.942 11.318,7.448 10.478,14 H 8.616 L 9.974,4.2 h 1.47 l 2.394,4.466 2.38,-4.466 h 1.47 z m 9.324,0 h -1.862 l -0.84,-2.366 H 22.406 L 21.566,14 H 19.704 L 23.19,4.2 h 1.694 z M 25.052,9.898 24.03,7.028 23.022,9.898 Z m 7.28,4.298 c -0.700004,0 -1.33933,-0.07 -1.918,-0.21 -0.57867,-0.140001 -1.021999,-0.307999 -1.33,-0.504 l 0.21,-2.044 c 0.298668,0.289335 0.716331,0.534332 1.253,0.735 0.536669,0.200668 1.145663,0.301 1.827,0.301 1.166672,0 1.75,-0.354663 1.75,-1.064 0,-0.196001 -0.04667,-0.373332 -0.14,-0.532 C 33.89067,10.719333 33.790334,10.588667 33.683,10.486 33.575666,10.383333 33.396001,10.273667 33.144,10.157 32.891999,10.040333 32.696001,9.9563336 32.556,9.905 32.415999,9.8536664 32.178002,9.7720006 31.842,9.66 31.552665,9.5666662 31.352001,9.4966669 31.24,9.45 L 30.68,9.212 C 30.418665,9.1093328 30.227334,9.0183337 30.106,8.939 29.984666,8.8596663 29.835334,8.7476674 29.658,8.603 29.480666,8.4583326 29.35,8.3113341 29.266,8.162 29.182,8.0126659 29.107334,7.833001 29.042,7.623 28.976666,7.412999 28.944,7.1866679 28.944,6.944 c 0,-0.7653372 0.28933,-1.4466637 0.868,-2.044 0.57867,-0.5973363 1.469994,-0.896 2.674,-0.896 0.625336,0 1.229664,0.079333 1.813,0.238 0.583336,0.1586675 1.019665,0.3313324 1.309,0.518 l -0.182,1.834 c -1.073339,-0.5880029 -2.029996,-0.882 -2.87,-0.882 -0.476002,0 -0.893665,0.079333 -1.253,0.238 -0.359335,0.1586675 -0.539,0.4246648 -0.539,0.798 0,0.3546684 0.163332,0.6276657 0.49,0.819 0.326668,0.1913343 0.82133,0.3896656 1.484,0.595 0.345335,0.1026672 0.608999,0.1866663 0.791,0.252 0.182001,0.065334 0.431665,0.1633327 0.749,0.294 0.317335,0.1306673 0.564666,0.2683326 0.742,0.413 0.177334,0.1446674 0.361666,0.321999 0.553,0.532 0.191334,0.210001 0.331333,0.457332 0.42,0.742 0.08867,0.284668 0.133,0.599665 0.133,0.945 0,0.261335 -0.02333,0.506332 -0.07,0.735 -0.04667,0.228668 -0.151666,0.478332 -0.315,0.749 -0.163334,0.270668 -0.377999,0.501666 -0.644,0.693 -0.266001,0.191334 -0.634664,0.352333 -1.106,0.483 -0.471336,0.130667 -1.02433,0.196 -1.659,0.196 z M 44.078,5.936 H 41.306 V 14 H 39.514 V 5.936 H 36.742 V 4.2 h 7.336 z M 51.778,14 H 45.366 V 4.2 h 6.272 V 5.936 H 47.2 v 2.086 h 3.444 V 9.758 H 47.2 v 2.506 h 4.578 z m 9.044,0 H 58.96 L 56.93,10.36 H 55.11 V 14 H 53.318 V 4.2 h 3.584 c 2.249345,0 3.374,0.9426572 3.374,2.828 0,0.7000035 -0.144665,1.2693311 -0.434,1.708 -0.289335,0.4386689 -0.699997,0.8213317 -1.232,1.148 z M 56.496,5.698 H 55.11 V 8.68 h 1.316 c 0.756004,0 1.273999,-0.1306654 1.554,-0.392 C 58.260001,8.0266654 58.4,7.6486691 58.4,7.154 58.4,6.6593309 58.264668,6.2930012 57.994,6.055 57.723332,5.8169988 57.224004,5.698 56.496,5.698 Z m 11.578,8.498 c -0.700003,0 -1.33933,-0.07 -1.918,-0.21 -0.57867,-0.140001 -1.021999,-0.307999 -1.33,-0.504 l 0.21,-2.044 c 0.298668,0.289335 0.716331,0.534332 1.253,0.735 0.536669,0.200668 1.145663,0.301 1.827,0.301 1.166673,0 1.75,-0.354663 1.75,-1.064 0,-0.196001 -0.04667,-0.373332 -0.14,-0.532 C 69.63267,10.719333 69.532334,10.588667 69.425,10.486 69.317666,10.383333 69.138001,10.273667 68.886,10.157 68.633999,10.040333 68.438001,9.9563336 68.298,9.905 68.157999,9.8536664 67.920002,9.7720006 67.584,9.66 67.294665,9.5666662 67.094001,9.4966669 66.982,9.45 L 66.422,9.212 C 66.160665,9.1093328 65.969334,9.0183337 65.848,8.939 65.726666,8.8596663 65.577334,8.7476674 65.4,8.603 65.222666,8.4583326 65.092,8.3113341 65.008,8.162 64.924,8.0126659 64.849334,7.833001 64.784,7.623 64.718666,7.412999 64.686,7.1866679 64.686,6.944 c 0,-0.7653372 0.28933,-1.4466637 0.868,-2.044 0.57867,-0.5973363 1.469994,-0.896 2.674,-0.896 0.625336,0 1.229664,0.079333 1.813,0.238 0.583336,0.1586675 1.019665,0.3313324 1.309,0.518 l -0.182,1.834 c -1.073339,-0.5880029 -2.029996,-0.882 -2.87,-0.882 -0.476002,0 -0.893665,0.079333 -1.253,0.238 -0.359335,0.1586675 -0.539,0.4246648 -0.539,0.798 0,0.3546684 0.163332,0.6276657 0.49,0.819 0.326668,0.1913343 0.82133,0.3896656 1.484,0.595 0.345335,0.1026672 0.608999,0.1866663 0.791,0.252 0.182001,0.065334 0.431665,0.1633327 0.749,0.294 0.317335,0.1306673 0.564666,0.2683326 0.742,0.413 0.177334,0.1446674 0.361666,0.321999 0.553,0.532 0.191334,0.210001 0.331333,0.457332 0.42,0.742 0.08867,0.284668 0.133,0.599665 0.133,0.945 0,0.261335 -0.02333,0.506332 -0.07,0.735 -0.04667,0.228668 -0.151666,0.478332 -0.315,0.749 -0.163334,0.270668 -0.377999,0.501666 -0.644,0.693 -0.266001,0.191334 -0.634664,0.352333 -1.106,0.483 -0.471336,0.130667 -1.02433,0.196 -1.659,0.196 z M 80.744,4.2 77.356,9.66 V 14 H 75.564 V 9.66 L 72.176,4.2 H 74.08 L 76.46,8.064 78.84,4.2 Z m 3.752,9.996 c -0.700004,0 -1.33933,-0.07 -1.918,-0.21 -0.57867,-0.140001 -1.021999,-0.307999 -1.33,-0.504 l 0.21,-2.044 c 0.298668,0.289335 0.716331,0.534332 1.253,0.735 0.536669,0.200668 1.145663,0.301 1.827,0.301 1.166672,0 1.75,-0.354663 1.75,-1.064 0,-0.196001 -0.04667,-0.373332 -0.14,-0.532 C 86.05467,10.719333 85.954334,10.588667 85.847,10.486 85.739666,10.383333 85.560001,10.273667 85.308,10.157 85.055999,10.040333 84.860001,9.9563336 84.72,9.905 84.579999,9.8536664 84.342002,9.7720006 84.006,9.66 83.716665,9.5666662 83.516001,9.4966669 83.404,9.45 L 82.844,9.212 C 82.582665,9.1093328 82.391334,9.0183337 82.27,8.939 82.148666,8.8596663 81.999334,8.7476674 81.822,8.603 81.644666,8.4583326 81.514,8.3113341 81.43,8.162 81.346,8.0126659 81.271334,7.833001 81.206,7.623 81.140666,7.412999 81.108,7.1866679 81.108,6.944 c 0,-0.7653372 0.28933,-1.4466637 0.868,-2.044 0.57867,-0.5973363 1.469994,-0.896 2.674,-0.896 0.625336,0 1.229664,0.079333 1.813,0.238 0.583336,0.1586675 1.019665,0.3313324 1.309,0.518 L 87.59,6.594 C 86.516661,6.0059971 85.560004,5.712 84.72,5.712 c -0.476002,0 -0.893665,0.079333 -1.253,0.238 -0.359335,0.1586675 -0.539,0.4246648 -0.539,0.798 0,0.3546684 0.163332,0.6276657 0.49,0.819 0.326668,0.1913343 0.82133,0.3896656 1.484,0.595 0.345335,0.1026672 0.608999,0.1866663 0.791,0.252 0.182001,0.065334 0.431665,0.1633327 0.749,0.294 0.317335,0.1306673 0.564666,0.2683326 0.742,0.413 0.177334,0.1446674 0.361666,0.321999 0.553,0.532 0.191334,0.210001 0.331333,0.457332 0.42,0.742 0.08867,0.284668 0.133,0.599665 0.133,0.945 0,0.261335 -0.02333,0.506332 -0.07,0.735 -0.04667,0.228668 -0.151666,0.478332 -0.315,0.749 -0.163334,0.270668 -0.377999,0.501666 -0.644,0.693 -0.266001,0.191334 -0.634664,0.352333 -1.106,0.483 -0.471336,0.130667 -1.02433,0.196 -1.659,0.196 z M 96.242,5.936 H 93.47 V 14 H 91.678 V 5.936 H 88.906 V 4.2 h 7.336 z m 7.7,8.064 H 97.53 V 4.2 h 6.272 v 1.736 h -4.438 v 2.086 h 3.444 v 1.736 h -3.444 v 2.506 h 4.578 z m 11.508,0 h -1.862 l -0.84,-6.566 -2.506,4.508 -2.52,-4.494 -0.84,6.552 h -1.862 l 1.358,-9.8 h 1.47 l 2.394,4.466 2.38,-4.466 h 1.47 z" />
</svg>
