<?xml version="1.0" encoding="UTF-8" standalone="no"?>
<svg
   xmlns:dc="http://purl.org/dc/elements/1.1/"
   xmlns:cc="http://creativecommons.org/ns#"
   xmlns:rdf="http://www.w3.org/1999/02/22-rdf-syntax-ns#"
   xmlns:svg="http://www.w3.org/2000/svg"
   xmlns="http://www.w3.org/2000/svg"
   xmlns:sodipodi="http://sodipodi.sourceforge.net/DTD/sodipodi-0.dtd"
   xmlns:inkscape="http://www.inkscape.org/namespaces/inkscape"
   width="179"
   height="18"
   viewBox="0 0 179 18"
   version="1.1"
   id="svg12"
   sodipodi:docname="system.svg"
   inkscape:version="0.92.4 (5da689c313, 2019-01-14)">
  <metadata
     id="metadata16">
    <rdf:RDF>
      <cc:Work
         rdf:about="">
        <dc:format>image/svg+xml</dc:format>
        <dc:type
           rdf:resource="http://purl.org/dc/dcmitype/StillImage" />
        <dc:title>system</dc:title>
      </cc:Work>
    </rdf:RDF>
  </metadata>
  <sodipodi:namedview
     pagecolor="#ffffff"
     bordercolor="#666666"
     borderopacity="1"
     objecttolerance="10"
     gridtolerance="10"
     guidetolerance="10"
     inkscape:pageopacity="0"
     inkscape:pageshadow="2"
     inkscape:window-width="1920"
     inkscape:window-height="1018"
     id="namedview14"
     showgrid="false"
     inkscape:zoom="3.04"
     inkscape:cx="32.006089"
     inkscape:cy="9"
     inkscape:window-x="-8"
     inkscape:window-y="-8"
     inkscape:window-maximized="1"
     inkscape:current-layer="svg12" />
  <!-- Generator: Sketch 45 (43475) - http://www.bohemiancoding.com/sketch -->
  <title
     id="title2">system</title>
  <desc
     id="desc4">Created with Sketch.</desc>
  <defs
     id="defs6" />
  <g
     id="text896"
     style="font-style:normal;font-variant:normal;font-weight:normal;font-stretch:normal;font-size:30.22701836px;line-height:1.25;font-family:sans-serif;-inkscape-font-specification:sans-serif;letter-spacing:0px;word-spacing:0px;fill:#000000;fill-opacity:1;stroke:none;stroke-width:0.75567544"
     aria-label="SUPER NINTENDO HACKS">
    <path
       inkscape:connector-curvature="0"
       id="path910"
       style="fill:#ffffff"
       d="m 11.906467,11.704128 q 0,1.298818 -1.103995,2.11353 -1.0980904,0.808809 -2.987279,0.808809 -1.0921872,0 -1.9068998,-0.188919 Q 5.0994844,14.242726 4.3910387,13.94754 v -2.107626 h 0.247956 q 0.702542,0.560853 1.570388,0.861942 0.8737497,0.30109 1.6766548,0.30109 0.20663,0 0.5431418,-0.03542 0.3365117,-0.03542 0.5490454,-0.118074 0.2597634,-0.106267 0.4250674,-0.265667 0.1712077,-0.1594 0.1712077,-0.472297 0,-0.289282 -0.247956,-0.495912 Q 9.0844916,11.403039 8.6121944,11.290868 8.1162824,11.172794 7.5613333,11.072431 7.0122878,10.966164 6.5281833,10.806764 5.418285,10.446637 4.9282767,9.832651 4.4441721,9.212761 4.4441721,8.2976853 q 0,-1.2279726 1.0980909,-2.0013592 1.1039945,-0.7792903 2.8337828,-0.7792903 0.867846,0 1.7120772,0.1712077 0.850135,0.165304 1.470025,0.4191638 v 2.024974 H 11.316096 Q 10.784761,7.7073138 10.011375,7.4239356 9.2438918,7.1346536 8.4409867,7.1346536 q -0.2833783,0 -0.5667566,0.041326 -0.2774746,0.035422 -0.537238,0.1416891 -0.2302448,0.088556 -0.3955488,0.2715709 -0.165304,0.1771114 -0.165304,0.4073563 0,0.3483191 0.2656671,0.537238 0.2656671,0.1830151 1.0036314,0.3365117 0.4841046,0.1003631 0.9268832,0.1948225 0.4486823,0.09446 0.9623054,0.2597635 1.0095356,0.330608 1.4877356,0.9032684 0.484105,0.566756 0.484105,1.475928 z" />
    <path
       inkscape:connector-curvature="0"
       id="path912"
       style="fill:#ffffff"
       d="m 21.163491,11.284965 q 0,1.629425 -0.991824,2.497271 -0.991824,0.867846 -2.922339,0.867846 -1.930514,0 -2.922338,-0.867846 -0.98592,-0.867846 -0.98592,-2.491368 V 5.6764361 h 2.278833 v 5.4845509 q 0,0.915075 0.383742,1.363758 0.383741,0.448682 1.245683,0.448682 0.850135,0 1.23978,-0.430971 0.395549,-0.430971 0.395549,-1.381469 V 5.6764361 h 2.278834 z" />
    <path
       inkscape:connector-curvature="0"
       id="path914"
       style="fill:#ffffff"
       d="m 30.544494,8.4511819 q 0,0.5903714 -0.20663,1.157128 -0.20663,0.5608531 -0.590371,0.9445941 -0.525431,0.519527 -1.174839,0.785194 -0.643505,0.265667 -1.60581,0.265667 h -1.410988 v 2.863302 H 23.28883 V 5.6764361 h 3.731147 q 0.838327,0 1.410988,0.1475929 0.578564,0.1416891 1.021342,0.4309711 0.531335,0.3483192 0.808809,0.8914609 0.283378,0.5431417 0.283378,1.3047209 z m -2.343774,0.053133 q 0,-0.371934 -0.200726,-0.6376012 Q 27.799267,7.5951433 27.5336,7.4888764 27.179377,7.3471873 26.842866,7.3353798 26.506354,7.3176687 25.945501,7.3176687 h -0.389645 v 2.6330566 h 0.649408 q 0.578564,0 0.950498,-0.070845 Q 27.5336,9.8090362 27.78746,9.5965024 28.005897,9.4075836 28.100357,9.1478201 28.20072,8.882153 28.20072,8.5043149 Z" />
    <path
       inkscape:connector-curvature="0"
       id="path916"
       style="fill:#ffffff"
       d="M 38.502702,14.467067 H 32.144401 V 5.6764361 h 6.358301 V 7.3767058 H 34.39962 v 1.5172546 h 3.807896 V 10.59423 H 34.39962 v 2.172567 h 4.103082 z" />
    <path
       inkscape:connector-curvature="0"
       id="path918"
       style="fill:#ffffff"
       d="m 45.3392,8.3685299 q 0,-0.330608 -0.135785,-0.5667566 -0.135785,-0.2361486 -0.466393,-0.371934 -0.230245,-0.09446 -0.537238,-0.1121706 -0.306994,-0.023615 -0.71435,-0.023615 h -0.820616 v 2.3673895 h 0.696638 q 0.543142,0 0.909172,-0.053133 0.36603,-0.053133 0.613986,-0.2420523 Q 45.120763,9.1832424 45.22703,8.964805 45.3392,8.7404639 45.3392,8.3685299 Z m 3.536325,6.0985371 h -2.768842 l -2.396908,-3.223428 h -1.044957 v 3.223428 H 40.409599 V 5.6764361 h 3.801992 q 0.77929,0 1.340143,0.088556 0.560853,0.088556 1.050861,0.3837415 0.495912,0.2951857 0.785194,0.7674828 0.295186,0.4663935 0.295186,1.1748392 0,0.9741128 -0.454586,1.5880991 -0.448682,0.6139863 -1.28701,1.0213423 z" />
    <path
       inkscape:connector-curvature="0"
       id="path920"
       style="fill:#ffffff"
       d="M 62.005386,14.467067 H 59.821012 L 56.089864,8.4334707 V 14.467067 H 54.011757 V 5.6764361 h 2.709804 l 3.205717,5.0358679 V 5.6764361 h 2.078108 z" />
    <path
       inkscape:connector-curvature="0"
       id="path922"
       style="fill:#ffffff"
       d="m 69.013095,14.467067 h -5.148039 v -1.558581 h 1.440506 V 7.2350167 H 63.865056 V 5.6764361 h 5.148039 v 1.5585806 h -1.440507 v 5.6734693 h 1.440507 z" />
    <path
       inkscape:connector-curvature="0"
       id="path924"
       style="fill:#ffffff"
       d="M 78.866394,14.467067 H 76.682019 L 72.950872,8.4334707 V 14.467067 H 70.872764 V 5.6764361 h 2.709805 l 3.205717,5.0358679 V 5.6764361 h 2.078108 z" />
    <path
       inkscape:connector-curvature="0"
       id="path926"
       style="fill:#ffffff"
       d="M 87.999439,7.3767058 H 85.254212 V 14.467067 H 82.987186 V 7.3767058 H 80.241959 V 5.6764361 h 7.75748 z" />
    <path
       inkscape:connector-curvature="0"
       id="path928"
       style="fill:#ffffff"
       d="m 95.721497,14.467067 h -6.3583 V 5.6764361 h 6.3583 v 1.7002697 h -4.103081 v 1.5172546 h 3.807896 V 10.59423 h -3.807896 v 2.172567 h 4.103081 z" />
    <path
       inkscape:connector-curvature="0"
       id="path930"
       style="fill:#ffffff"
       d="m 105.62202,14.467067 h -2.18437 L 99.706502,8.4334707 V 14.467067 H 97.628395 V 5.6764361 h 2.709805 l 3.20572,5.0358679 V 5.6764361 h 2.0781 z" />
    <path
       inkscape:connector-curvature="0"
       id="path932"
       style="fill:#ffffff"
       d="m 116.18377,10.080607 q 0,1.227973 -0.56085,2.202085 -0.56086,0.96821 -1.4169,1.487736 -0.6435,0.389646 -1.41098,0.543142 -0.76749,0.153497 -1.81835,0.153497 h -3.09945 V 5.6764361 h 3.18801 q 1.07447,0 1.85376,0.1830152 0.7793,0.1771114 1.31063,0.5077194 0.90917,0.5549491 1.4287,1.4995434 0.52543,0.9386906 0.52543,2.2138929 z m -2.34378,-0.01771 q 0,-0.8678461 -0.3188,-1.4818324 -0.31289,-0.61989 -0.99772,-0.9682092 -0.34832,-0.1712077 -0.71435,-0.2302448 -0.36013,-0.064941 -1.09219,-0.064941 h -0.57266 V 12.81993 h 0.57266 q 0.80881,0 1.18665,-0.07084 0.37783,-0.07675 0.73796,-0.271571 0.61989,-0.354223 0.90917,-0.944594 0.28928,-0.596275 0.28928,-1.470025 z" />
    <path
       inkscape:connector-curvature="0"
       id="path934"
       style="fill:#ffffff"
       d="m 126.46214,10.074703 q 0,2.101723 -1.20436,3.341503 -1.20436,1.233876 -3.3297,1.233876 -2.11943,0 -3.32379,-1.233876 -1.20435,-1.23978 -1.20435,-3.341503 0,-2.1194331 1.20435,-3.3474057 1.20436,-1.2338763 3.32379,-1.2338763 2.11353,0 3.3238,1.2338763 1.21026,1.2279726 1.21026,3.3474057 z m -3.00499,2.225701 q 0.3306,-0.401453 0.49,-0.944595 0.15941,-0.549045 0.15941,-1.287009 0,-0.7910981 -0.18302,-1.3460473 -0.18302,-0.5549491 -0.4782,-0.8973646 -0.30109,-0.3542228 -0.69664,-0.5136231 -0.38964,-0.1594003 -0.81471,-0.1594003 -0.43097,0 -0.81471,0.1534966 -0.37784,0.1534965 -0.69664,0.5077194 -0.29519,0.330608 -0.48411,0.9150757 -0.18301,0.578564 -0.18301,1.3460466 0,0.785194 0.17711,1.340143 0.18301,0.549046 0.4782,0.897365 0.29519,0.348319 0.69073,0.513623 0.39555,0.165304 0.83243,0.165304 0.43687,0 0.83242,-0.165304 0.39555,-0.171208 0.69074,-0.52543 z" />
    <path
       inkscape:connector-curvature="0"
       id="path936"
       style="fill:#ff0000"
       d="m 140.20008,14.467067 h -2.26702 V 10.59423 h -3.34741 v 3.872837 h -2.26702 V 5.6764361 h 2.26702 v 3.2175243 h 3.34741 V 5.6764361 h 2.26702 z" />
    <path
       inkscape:connector-curvature="0"
       id="path938"
       style="fill:#ff0000"
       d="m 150.5729,14.467067 h -2.34377 l -0.60808,-1.777018 h -3.25885 l -0.60809,1.777018 h -2.28473 l 3.24704,-8.7906309 h 2.60944 z m -3.5009,-3.388732 -1.08038,-3.1525837 -1.08038,3.1525837 z" />
    <path
       inkscape:connector-curvature="0"
       id="path940"
       style="fill:#ff0000"
       d="m 155.82131,14.638274 q -0.98002,0 -1.81244,-0.289282 -0.82652,-0.289282 -1.4228,-0.861942 -0.59627,-0.57266 -0.92688,-1.428699 -0.32471,-0.856038 -0.32471,-1.977744 0,-1.0449574 0.3129,-1.8950923 0.3129,-0.8501349 0.90917,-1.4582174 0.57266,-0.5844677 1.41689,-0.9032683 0.85014,-0.3188006 1.85377,-0.3188006 0.55495,0 0.99773,0.064941 0.44868,0.059037 0.82652,0.1594002 0.39555,0.1121706 0.71435,0.2538598 0.3247,0.1357854 0.56675,0.2538597 V 8.36853 h -0.25976 q -0.1653,-0.1416892 -0.41916,-0.3365118 -0.24796,-0.1948225 -0.56676,-0.3837414 -0.3247,-0.1889189 -0.70254,-0.3188006 -0.37784,-0.1298817 -0.80881,-0.1298817 -0.4782,0 -0.90917,0.1534966 -0.43097,0.1475928 -0.797,0.495912 -0.34832,0.3365117 -0.56676,0.8914609 -0.21254,0.5549491 -0.21254,1.346047 0,0.82652 0.23025,1.381469 0.23615,0.554949 0.59037,0.87375 0.36013,0.324704 0.80291,0.466393 0.44277,0.135785 0.87375,0.135785 0.41326,0 0.81471,-0.123978 0.40736,-0.123978 0.74977,-0.336511 0.28928,-0.171208 0.53724,-0.366031 0.24795,-0.194822 0.40735,-0.336511 h 0.23615 v 2.101722 q -0.3306,0.147593 -0.63169,0.277475 -0.30109,0.129881 -0.6317,0.224341 -0.43097,0.123978 -0.80881,0.188919 -0.37784,0.06494 -1.03905,0.06494 z" />
    <path
       inkscape:connector-curvature="0"
       id="path942"
       style="fill:#ff0000"
       d="m 168.81538,14.467067 h -2.78065 l -2.62715,-3.518614 -0.53134,0.643505 v 2.875109 h -2.26703 V 5.6764361 h 2.26703 v 3.9791035 l 3.14078,-3.9791035 h 2.62715 l -3.43596,4.0676592 z" />
    <path
       inkscape:connector-curvature="0"
       id="path944"
       style="fill:#ff0000"
       d="m 176.97432,11.704128 q 0,1.298818 -1.10399,2.11353 -1.09809,0.808809 -2.98728,0.808809 -1.09219,0 -1.9069,-0.188919 -0.80881,-0.194822 -1.51726,-0.490008 v -2.107626 h 0.24796 q 0.70254,0.560853 1.57039,0.861942 0.87375,0.30109 1.67665,0.30109 0.20663,0 0.54315,-0.03542 0.33651,-0.03542 0.54904,-0.118074 0.25976,-0.106267 0.42507,-0.265667 0.17121,-0.1594 0.17121,-0.472297 0,-0.289282 -0.24796,-0.495912 -0.24205,-0.212534 -0.71435,-0.324705 -0.49591,-0.118074 -1.05086,-0.218437 -0.54905,-0.106267 -1.03315,-0.265667 -1.1099,-0.360127 -1.59991,-0.974113 -0.4841,-0.61989 -0.4841,-1.5349657 0,-1.2279726 1.09809,-2.0013592 1.10399,-0.7792903 2.83378,-0.7792903 0.86785,0 1.71208,0.1712077 0.85013,0.165304 1.47002,0.4191638 v 2.024974 h -0.24205 q -0.53133,-0.4250675 -1.30472,-0.7084457 -0.76748,-0.289282 -1.57039,-0.289282 -0.28338,0 -0.56675,0.041326 -0.27748,0.035422 -0.53724,0.1416891 -0.23025,0.088556 -0.39555,0.2715709 -0.1653,0.1771114 -0.1653,0.4073563 0,0.3483191 0.26566,0.537238 0.26567,0.1830151 1.00363,0.3365117 0.48411,0.1003631 0.92689,0.1948225 0.44868,0.09446 0.9623,0.2597635 1.00954,0.330608 1.48774,0.9032684 0.4841,0.566756 0.4841,1.475928 z" />
  </g>
</svg>
