<?xml version="1.0" encoding="UTF-8" standalone="no"?>
<svg
   xmlns:dc="http://purl.org/dc/elements/1.1/"
   xmlns:cc="http://creativecommons.org/ns#"
   xmlns:rdf="http://www.w3.org/1999/02/22-rdf-syntax-ns#"
   xmlns:svg="http://www.w3.org/2000/svg"
   xmlns="http://www.w3.org/2000/svg"
   xmlns:sodipodi="http://sodipodi.sourceforge.net/DTD/sodipodi-0.dtd"
   xmlns:inkscape="http://www.inkscape.org/namespaces/inkscape"
   width="179"
   height="18"
   viewBox="0 0 179 18"
   version="1.1"
   id="svg12"
   sodipodi:docname="system.svg"
   inkscape:version="0.92.4 (5da689c313, 2019-01-14)">
  <metadata
     id="metadata16">
    <rdf:RDF>
      <cc:Work
         rdf:about="">
        <dc:format>image/svg+xml</dc:format>
        <dc:type
           rdf:resource="http://purl.org/dc/dcmitype/StillImage" />
        <dc:title>system</dc:title>
      </cc:Work>
    </rdf:RDF>
  </metadata>
  <sodipodi:namedview
     pagecolor="#ffffff"
     bordercolor="#666666"
     borderopacity="1"
     objecttolerance="10"
     gridtolerance="10"
     guidetolerance="10"
     inkscape:pageopacity="0"
     inkscape:pageshadow="2"
     inkscape:window-width="1920"
     inkscape:window-height="1018"
     id="namedview14"
     showgrid="false"
     inkscape:zoom="3.04"
     inkscape:cx="32.006089"
     inkscape:cy="9"
     inkscape:window-x="-8"
     inkscape:window-y="-8"
     inkscape:window-maximized="1"
     inkscape:current-layer="svg12" />
  <!-- Generator: Sketch 45 (43475) - http://www.bohemiancoding.com/sketch -->
  <title
     id="title2">system</title>
  <desc
     id="desc4">Created with Sketch.</desc>
  <defs
     id="defs6" />
  <g
     id="text970"
     style="font-style:normal;font-variant:normal;font-weight:normal;font-stretch:normal;font-size:19.45966148px;line-height:1.25;font-family:sans-serif;-inkscape-font-specification:sans-serif;letter-spacing:0px;word-spacing:0px;fill:#000000;fill-opacity:1;stroke:none;stroke-width:0.48649156"
     aria-label="GAME BOY ADVANCED HACKS">
    <path
       inkscape:connector-curvature="0"
       id="path984"
       style="fill:#ffffff"
       d="m 12.464173,12.445603 q -0.506762,0.197637 -1.342919,0.395274 -0.836158,0.19257 -1.6672474,0.19257 -1.9256956,0 -3.0152339,-1.04393 -1.0895383,-1.048997 -1.0895383,-2.8936111 0,-1.7584641 1.0996735,-2.8327995 1.0996736,-1.0794031 3.0659101,-1.0794031 0.74494,0 1.418934,0.1368257 0.673993,0.1317582 1.500015,0.5321001 V 7.6212285 H 12.215859 Q 12.073966,7.5148085 11.800315,7.3222389 11.526663,7.1246017 11.273282,6.987776 10.97936,6.8256122 10.584086,6.7090569 10.193879,6.5925017 9.7529962,6.5925017 q -0.5168973,0 -0.9375097,0.1520286 Q 8.394874,6.8965588 8.0604111,7.2107513 7.741151,7.5148085 7.5536491,7.9860971 7.3712148,8.4523182 7.3712148,9.0655002 q 0,1.2517018 0.6638582,1.9155608 0.6638582,0.663858 1.9611689,0.663858 0.1114881,0 0.2432461,-0.0051 0.136825,-0.0051 0.248313,-0.0152 V 10.144903 H 8.9827179 V 8.720902 h 3.4814551 z" />
    <path
       inkscape:connector-curvature="0"
       id="path986"
       style="fill:#ffffff"
       d="m 21.175412,12.87635 h -2.011845 l -0.521965,-1.525353 h -2.797326 l -0.521965,1.525353 h -1.961169 l 2.787191,-7.5456857 h 2.239888 z m -3.005099,-2.9088135 -0.927374,-2.706109 -0.927375,2.706109 z" />
    <path
       inkscape:connector-curvature="0"
       id="path988"
       style="fill:#ffffff"
       d="m 30.180572,12.87635 h -1.93583 V 7.8239333 l -1.398663,3.2787497 h -1.34292 L 24.104496,7.8239333 V 12.87635 H 22.270018 V 5.3306643 h 2.260158 l 1.697653,3.7855121 1.692585,-3.7855121 h 2.260158 z" />
    <path
       inkscape:connector-curvature="0"
       id="path990"
       style="fill:#ffffff"
       d="M 37.559027,12.87635 H 32.1012 V 5.3306643 h 5.457827 v 1.4594745 h -3.521996 v 1.3023784 h 3.268615 v 1.4594745 h -3.268615 v 1.8648843 h 3.521996 z" />
    <path
       inkscape:connector-curvature="0"
       id="path992"
       style="fill:#ffffff"
       d="m 49.199348,10.565516 q 0,0.547303 -0.222975,0.97805 -0.217908,0.430748 -0.603047,0.714535 -0.44595,0.334463 -0.983118,0.476356 -0.5321,0.141893 -1.353055,0.141893 H 42.7432 V 5.3306643 h 2.929085 q 0.912171,0 1.332784,0.060811 0.42568,0.060811 0.841225,0.2685839 0.430747,0.2179076 0.63852,0.5878439 0.21284,0.3648686 0.21284,0.8361573 0,0.5473029 -0.288854,0.9679154 -0.288855,0.4155448 -0.815887,0.6486554 v 0.040541 q 0.739872,0.146961 1.17062,0.6081144 0.435815,0.4611534 0.435815,1.2162294 z M 46.706079,7.4641323 q 0,-0.187502 -0.09629,-0.3750039 -0.09122,-0.1875019 -0.329395,-0.2787191 -0.21284,-0.081082 -0.5321,-0.08615 -0.314192,-0.010135 -0.886833,-0.010135 h -0.182435 v 1.5963003 h 0.304057 q 0.461154,0 0.785482,-0.015203 0.324327,-0.015203 0.511829,-0.1013524 0.263516,-0.1165553 0.344598,-0.2989896 0.08108,-0.187502 0.08108,-0.4307477 z m 0.476356,3.0709777 q 0,-0.359801 -0.141893,-0.5523706 -0.136826,-0.1976372 -0.471289,-0.293922 -0.228042,-0.065879 -0.628384,-0.070947 -0.400342,-0.00507 -0.836158,-0.00507 h -0.42568 V 11.49289 h 0.141894 q 0.820954,0 1.175687,-0.0051 0.354734,-0.0051 0.653723,-0.131759 0.304058,-0.12669 0.415545,-0.334463 0.116555,-0.21284 0.116555,-0.486491 z" />
    <path
       inkscape:connector-curvature="0"
       id="path994"
       style="fill:#ffffff"
       d="m 57.986601,9.1060412 q 0,1.8040728 -1.033794,2.8682728 -1.033795,1.059133 -2.858138,1.059133 -1.819276,0 -2.85307,-1.059133 -1.033794,-1.0642 -1.033794,-2.8682728 0,-1.8192756 1.033794,-2.8733406 1.033794,-1.0591325 2.85307,-1.0591325 1.814208,0 2.85307,1.0591325 1.038862,1.054065 1.038862,2.8733406 z m -2.579418,1.9104928 q 0.283786,-0.344598 0.420612,-0.810819 0.136826,-0.471289 0.136826,-1.1047415 0,-0.679061 -0.157096,-1.1554173 Q 55.650428,7.4691999 55.397047,7.1752779 55.138599,6.8712207 54.799068,6.734395 54.464605,6.5975693 54.099737,6.5975693 q -0.369937,0 -0.699332,0.1317581 -0.324328,0.1317581 -0.597979,0.4358153 -0.253381,0.2837867 -0.415545,0.7854811 -0.157096,0.4966268 -0.157096,1.1554174 0,0.6739934 0.152028,1.1503498 0.157097,0.471289 0.410478,0.770278 0.253381,0.29899 0.592911,0.440883 0.339531,0.141893 0.714535,0.141893 0.375004,0 0.714534,-0.141893 0.339531,-0.146961 0.592912,-0.451018 z" />
    <path
       inkscape:connector-curvature="0"
       id="path996"
       style="fill:#ffffff"
       d="m 66.104931,5.3306643 -2.782123,4.626737 V 12.87635 H 61.376841 V 10.048618 L 58.54911,5.3306643 h 2.209482 l 1.631773,2.9189491 1.57603,-2.9189491 z" />
    <path
       inkscape:connector-curvature="0"
       id="path998"
       style="fill:#ffffff"
       d="m 77.628694,12.87635 h -2.011845 l -0.521965,-1.525353 h -2.797326 l -0.521965,1.525353 h -1.961169 l 2.787191,-7.5456857 h 2.239888 z m -3.005098,-2.9088135 -0.927375,-2.706109 -0.927374,2.706109 z" />
    <path
       inkscape:connector-curvature="0"
       id="path1000"
       style="fill:#ffffff"
       d="m 85.853448,9.1111088 q 0,1.0540652 -0.481424,1.8902222 -0.481424,0.83109 -1.216229,1.27704 -0.55237,0.334463 -1.211161,0.466221 -0.65879,0.131758 -1.560827,0.131758 h -2.6605 V 5.3306643 h 2.736515 q 0.922306,0 1.591232,0.1570962 0.668926,0.1520286 1.125012,0.4358153 0.780413,0.4763563 1.226364,1.2871755 0.451018,0.8057516 0.451018,1.9003575 z m -2.011845,-0.015203 q 0,-0.7449401 -0.273652,-1.2719726 -0.268583,-0.5321001 -0.856427,-0.8310897 -0.29899,-0.146961 -0.613182,-0.1976372 -0.309125,-0.055744 -0.93751,-0.055744 h -0.491559 v 4.7230217 h 0.491559 q 0.694264,0 1.018592,-0.06081 0.324327,-0.06588 0.633452,-0.233111 0.5321,-0.304057 0.780414,-0.810819 0.248313,-0.5118296 0.248313,-1.2618382 z" />
    <path
       inkscape:connector-curvature="0"
       id="path1002"
       style="fill:#ffffff"
       d="M 94.179546,5.3306643 91.427828,12.87635 H 89.248752 L 86.497034,5.3306643 h 2.042251 l 1.824343,5.3007307 1.824343,-5.3007307 z" />
    <path
       inkscape:connector-curvature="0"
       id="path1004"
       style="fill:#ffffff"
       d="m 102.23706,12.87635 h -2.01184 l -0.521968,-1.525353 h -2.797326 l -0.521965,1.525353 h -1.961169 l 2.787191,-7.5456857 h 2.239888 z m -3.005096,-2.9088135 -0.927375,-2.706109 -0.927374,2.706109 z" />
    <path
       inkscape:connector-curvature="0"
       id="path1006"
       style="fill:#ffffff"
       d="m 110.19322,12.87635 h -1.87501 L 105.11547,7.6972428 V 12.87635 h -1.7838 V 5.3306643 h 2.32603 l 2.75172,4.3226798 V 5.3306643 h 1.7838 z" />
    <path
       inkscape:connector-curvature="0"
       id="path1008"
       style="fill:#ffffff"
       d="m 115.53956,13.023311 q -0.84122,0 -1.55576,-0.248313 -0.70946,-0.248313 -1.22129,-0.739873 -0.51183,-0.491559 -0.79562,-1.226364 -0.27872,-0.734804 -0.27872,-1.6976522 0,-0.8969688 0.26858,-1.626706 0.26859,-0.7297373 0.78042,-1.2517022 0.49156,-0.5016943 1.21623,-0.7753458 0.72973,-0.2736515 1.59123,-0.2736515 0.47636,0 0.85643,0.055744 0.38514,0.050676 0.70946,0.1368258 0.33953,0.096285 0.61319,0.2179076 0.27871,0.1165553 0.48649,0.2179077 V 7.641499 h -0.22298 q -0.14189,-0.1216229 -0.3598,-0.2888544 -0.21284,-0.1672314 -0.48649,-0.3293953 -0.27872,-0.1621638 -0.60305,-0.2736514 -0.32433,-0.1114877 -0.69426,-0.1114877 -0.41048,0 -0.78041,0.1317582 -0.36994,0.1266904 -0.68413,0.42568 -0.29899,0.2888544 -0.4865,0.7652106 -0.18243,0.4763563 -0.18243,1.1554174 0,0.7094668 0.19764,1.1858226 0.2027,0.476357 0.50676,0.750008 0.30912,0.278719 0.6892,0.400342 0.38007,0.116555 0.75,0.116555 0.35474,0 0.69934,-0.10642 0.34966,-0.10642 0.64358,-0.288854 0.24832,-0.146961 0.46116,-0.314192 0.21284,-0.167232 0.34966,-0.288855 h 0.20271 v 1.804073 q -0.28379,0.126691 -0.54224,0.238178 -0.25845,0.111488 -0.54223,0.19257 -0.36994,0.10642 -0.69427,0.162164 -0.32433,0.05574 -0.8919,0.05574 z" />
    <path
       inkscape:connector-curvature="0"
       id="path1010"
       style="fill:#ffffff"
       d="M 125.10723,12.87635 H 119.6494 V 5.3306643 h 5.45783 v 1.4594745 h -3.522 v 1.3023784 h 3.26862 v 1.4594745 h -3.26862 v 1.8648843 h 3.522 z" />
    <path
       inkscape:connector-curvature="0"
       id="path1012"
       style="fill:#ffffff"
       d="m 133.87421,9.1111088 q 0,1.0540652 -0.48143,1.8902222 -0.48142,0.83109 -1.21623,1.27704 -0.55237,0.334463 -1.21116,0.466221 -0.65879,0.131758 -1.56082,0.131758 h -2.6605 V 5.3306643 h 2.73651 q 0.92231,0 1.59123,0.1570962 0.66893,0.1520286 1.12502,0.4358153 0.78041,0.4763563 1.22636,1.2871755 0.45102,0.8057516 0.45102,1.9003575 z m -2.01185,-0.015203 q 0,-0.7449401 -0.27365,-1.2719726 -0.26858,-0.5321001 -0.85643,-0.8310897 -0.29899,-0.146961 -0.61318,-0.1976372 -0.30912,-0.055744 -0.93751,-0.055744 h -0.49156 v 4.7230217 h 0.49156 q 0.69427,0 1.01859,-0.06081 0.32433,-0.06588 0.63346,-0.233111 0.5321,-0.304057 0.78041,-0.810819 0.24831,-0.5118296 0.24831,-1.2618382 z" />
    <path
       inkscape:connector-curvature="0"
       id="path1014"
       style="fill:#ff0000;stroke-width:0.48649156"
       d="m 145.67163,12.87635 h -1.94596 V 9.5519917 h -2.87335 V 12.87635 h -1.94596 V 5.3306643 h 1.94596 v 2.7618529 h 2.87335 V 5.3306643 h 1.94596 z" />
    <path
       inkscape:connector-curvature="0"
       id="path1016"
       style="fill:#ff0000;stroke-width:0.48649156"
       d="m 154.57543,12.87635 h -2.01184 l -0.52197,-1.525353 h -2.79732 l -0.52197,1.525353 h -1.96117 l 2.78719,-7.5456857 h 2.23989 z m -3.0051,-2.9088135 -0.92737,-2.706109 -0.92737,2.706109 z" />
    <path
       inkscape:connector-curvature="0"
       id="path1018"
       style="fill:#ff0000;stroke-width:0.48649156"
       d="m 159.08055,13.023311 q -0.84122,0 -1.55576,-0.248313 -0.70946,-0.248313 -1.22129,-0.739873 -0.51183,-0.491559 -0.79562,-1.226364 -0.27872,-0.734804 -0.27872,-1.6976522 0,-0.8969688 0.26859,-1.626706 0.26858,-0.7297373 0.78041,-1.2517022 0.49156,-0.5016943 1.21623,-0.7753458 0.72974,-0.2736515 1.59123,-0.2736515 0.47636,0 0.85643,0.055744 0.38514,0.050676 0.70947,0.1368258 0.33953,0.096285 0.61318,0.2179076 0.27872,0.1165553 0.48649,0.2179077 V 7.641499 h -0.22298 q -0.14189,-0.1216229 -0.3598,-0.2888544 -0.21284,-0.1672314 -0.48649,-0.3293953 -0.27872,-0.1621638 -0.60304,-0.2736514 -0.32433,-0.1114877 -0.69427,-0.1114877 -0.41048,0 -0.78041,0.1317582 -0.36994,0.1266904 -0.68413,0.42568 -0.29899,0.2888544 -0.48649,0.7652106 -0.18244,0.4763563 -0.18244,1.1554174 0,0.7094668 0.19764,1.1858226 0.20271,0.476357 0.50676,0.750008 0.30913,0.278719 0.6892,0.400342 0.38007,0.116555 0.75001,0.116555 0.35473,0 0.69933,-0.10642 0.34966,-0.10642 0.64359,-0.288854 0.24831,-0.146961 0.46115,-0.314192 0.21284,-0.167232 0.34967,-0.288855 h 0.2027 v 1.804073 q -0.28379,0.126691 -0.54224,0.238178 -0.25844,0.111488 -0.54223,0.19257 -0.36994,0.10642 -0.69426,0.162164 -0.32433,0.05574 -0.89191,0.05574 z" />
    <path
       inkscape:connector-curvature="0"
       id="path1020"
       style="fill:#ff0000;stroke-width:0.48649156"
       d="m 170.23438,12.87635 h -2.38685 l -2.25509,-3.0203011 -0.45609,0.5523701 v 2.467931 h -1.94596 V 5.3306643 h 1.94596 v 3.4155758 l 2.69598,-3.4155758 h 2.25509 l -2.94936,3.4915901 z" />
    <path
       inkscape:connector-curvature="0"
       id="path1022"
       style="fill:#ff0000;stroke-width:0.48649156"
       d="m 177.23784,10.504704 q 0,1.114877 -0.94764,1.814208 -0.94258,0.694264 -2.56422,0.694264 -0.93751,0 -1.63684,-0.162164 -0.69427,-0.167231 -1.30238,-0.420612 v -1.80914 h 0.21284 q 0.60305,0.481423 1.34799,0.739872 0.75,0.258449 1.4392,0.258449 0.17737,0 0.46622,-0.03041 0.28886,-0.03041 0.47129,-0.101352 0.22298,-0.09122 0.36487,-0.228043 0.14696,-0.136826 0.14696,-0.40541 0,-0.248313 -0.21284,-0.42568 -0.20777,-0.182434 -0.61318,-0.278719 -0.42568,-0.101353 -0.90204,-0.1875021 -0.47129,-0.091217 -0.88683,-0.2280429 -0.95271,-0.3091248 -1.37333,-0.8361573 -0.41554,-0.5321001 -0.41554,-1.3175812 0,-1.0540649 0.94258,-1.7179231 0.94764,-0.6689259 2.43245,-0.6689259 0.74494,0 1.46961,0.146961 0.72974,0.1418934 1.26184,0.359801 v 1.7381937 h -0.20777 q -0.45609,-0.3648687 -1.11995,-0.6081144 -0.65879,-0.2483134 -1.34798,-0.2483134 -0.24325,0 -0.48649,0.035473 -0.23818,0.030406 -0.46116,0.1216228 -0.19763,0.076014 -0.33953,0.2331105 -0.14189,0.1520286 -0.14189,0.3496658 0,0.2989896 0.22804,0.4611534 0.22804,0.1570963 0.8615,0.2888544 0.41554,0.086149 0.79561,0.1672314 0.38514,0.081082 0.82603,0.2229753 0.86656,0.2837867 1.27704,0.7753459 0.41554,0.4864915 0.41554,1.2669051 z" />
  </g>
</svg>
