<?xml version="1.0" encoding="UTF-8" standalone="no"?>
<svg
   xmlns:dc="http://purl.org/dc/elements/1.1/"
   xmlns:cc="http://creativecommons.org/ns#"
   xmlns:rdf="http://www.w3.org/1999/02/22-rdf-syntax-ns#"
   xmlns:svg="http://www.w3.org/2000/svg"
   xmlns="http://www.w3.org/2000/svg"
   xmlns:sodipodi="http://sodipodi.sourceforge.net/DTD/sodipodi-0.dtd"
   xmlns:inkscape="http://www.inkscape.org/namespaces/inkscape"
   width="61px"
   height="18px"
   viewBox="0 0 61 18"
   version="1.1"
   id="svg12"
   sodipodi:docname="system.svg"
   inkscape:version="0.92.4 (5da689c313, 2019-01-14)">
  <metadata
     id="metadata16">
    <rdf:RDF>
      <cc:Work
         rdf:about="">
        <dc:format>image/svg+xml</dc:format>
        <dc:type
           rdf:resource="http://purl.org/dc/dcmitype/StillImage" />
      </cc:Work>
    </rdf:RDF>
  </metadata>
  <sodipodi:namedview
     pagecolor="#ffffff"
     bordercolor="#666666"
     borderopacity="1"
     objecttolerance="10"
     gridtolerance="10"
     guidetolerance="10"
     inkscape:pageopacity="0"
     inkscape:pageshadow="2"
     inkscape:window-width="1920"
     inkscape:window-height="1018"
     id="namedview14"
     showgrid="false"
     inkscape:zoom="6.2295082"
     inkscape:cx="30.5"
     inkscape:cy="9"
     inkscape:window-x="-8"
     inkscape:window-y="-8"
     inkscape:window-maximized="1"
     inkscape:current-layer="svg12" />
  <!-- Generator: Sketch 45 (43475) - http://www.bohemiancoding.com/sketch -->
  <title
     id="title2">system</title>
  <desc
     id="desc4">Created with Sketch.</desc>
  <defs
     id="defs6" />
  <path
     style="fill:#ffffff;fill-rule:evenodd;stroke:none;stroke-width:1"
     inkscape:connector-curvature="0"
     id="ARCADE-Copy"
     d="m 16.708,14 h -1.862 l -0.84,-2.366 H 10.744 L 9.904,14 H 8.042 l 3.486,-9.8 h 1.694 z M 13.39,9.898 12.368,7.028 11.36,9.898 Z M 25.332,14 H 23.47 L 21.44,10.36 H 19.62 V 14 H 17.828 V 4.2 h 3.584 c 2.249345,0 3.374,0.9426572 3.374,2.828 0,0.7000035 -0.144665,1.2693311 -0.434,1.708 -0.289335,0.4386689 -0.699997,0.8213317 -1.232,1.148 z M 21.006,5.698 H 19.62 V 8.68 h 1.316 c 0.756004,0 1.273999,-0.1306654 1.554,-0.392 0.280001,-0.2613346 0.42,-0.6393309 0.42,-1.134 0,-0.4946691 -0.135332,-0.8609988 -0.406,-1.099 C 22.233332,5.8169988 21.734004,5.698 21.006,5.698 Z m 9.828,8.498 c -1.418674,0 -2.578329,-0.468995 -3.479,-1.407 -0.900671,-0.938005 -1.351,-2.167659 -1.351,-3.689 0,-1.5213409 0.450329,-2.7509953 1.351,-3.689 0.900671,-0.9380047 2.060326,-1.407 3.479,-1.407 1.073339,0 2.001996,0.1913314 2.786,0.574 l -0.196,1.708 c -0.942671,-0.3733352 -1.805996,-0.56 -2.59,-0.56 -0.924005,0 -1.633331,0.3079969 -2.128,0.924 -0.494669,0.6160031 -0.742,1.4326616 -0.742,2.45 0,1.017338 0.247331,1.833997 0.742,2.45 0.494669,0.616003 1.203995,0.924 2.128,0.924 0.784004,0 1.647329,-0.186665 2.59,-0.56 l 0.196,1.708 c -0.784004,0.382669 -1.712661,0.574 -2.786,0.574 z M 42.748,14 h -1.862 l -0.84,-2.366 H 36.784 L 35.944,14 h -1.862 l 3.486,-9.8 h 1.694 z M 39.43,9.898 38.408,7.028 37.4,9.898 Z M 47.536,14 H 43.868 V 4.2 h 3.668 c 1.428007,0 2.589996,0.4386623 3.486,1.316 0.896005,0.8773377 1.344,2.0719924 1.344,3.584 0,1.512008 -0.447995,2.706662 -1.344,3.584 C 50.125996,13.561338 48.964007,14 47.536,14 Z m 0,-8.078 H 45.66 v 6.356 h 1.876 c 0.933338,0 1.644997,-0.279997 2.135,-0.84 0.490002,-0.560003 0.735,-1.339328 0.735,-2.338 0,-0.9986717 -0.244998,-1.7779972 -0.735,-2.338 -0.490003,-0.5600028 -1.201662,-0.84 -2.135,-0.84 z M 60.36,14 H 53.948 V 4.2 h 6.272 v 1.736 h -4.438 v 2.086 h 3.444 v 1.736 h -3.444 v 2.506 h 4.578 z" />
</svg>
