<?xml version="1.0" encoding="UTF-8" standalone="no"?>
<svg
   xmlns:dc="http://purl.org/dc/elements/1.1/"
   xmlns:cc="http://creativecommons.org/ns#"
   xmlns:rdf="http://www.w3.org/1999/02/22-rdf-syntax-ns#"
   xmlns:svg="http://www.w3.org/2000/svg"
   xmlns="http://www.w3.org/2000/svg"
   xmlns:sodipodi="http://sodipodi.sourceforge.net/DTD/sodipodi-0.dtd"
   xmlns:inkscape="http://www.inkscape.org/namespaces/inkscape"
   width="132px"
   height="18px"
   viewBox="0 0 132 18"
   version="1.1"
   id="svg12"
   sodipodi:docname="system.svg"
   inkscape:version="0.92.4 (5da689c313, 2019-01-14)">
  <metadata
     id="metadata16">
    <rdf:RDF>
      <cc:Work
         rdf:about="">
        <dc:format>image/svg+xml</dc:format>
        <dc:type
           rdf:resource="http://purl.org/dc/dcmitype/StillImage" />
        <dc:title>system</dc:title>
      </cc:Work>
    </rdf:RDF>
  </metadata>
  <sodipodi:namedview
     pagecolor="#ffffff"
     bordercolor="#666666"
     borderopacity="1"
     objecttolerance="10"
     gridtolerance="10"
     guidetolerance="10"
     inkscape:pageopacity="0"
     inkscape:pageshadow="2"
     inkscape:window-width="1920"
     inkscape:window-height="1018"
     id="namedview14"
     showgrid="false"
     inkscape:zoom="2.8787879"
     inkscape:cx="1.9105268"
     inkscape:cy="9.0000001"
     inkscape:window-x="-8"
     inkscape:window-y="-8"
     inkscape:window-maximized="1"
     inkscape:current-layer="svg12" />
  <!-- Generator: Sketch 45 (43475) - http://www.bohemiancoding.com/sketch -->
  <title
     id="title2">system</title>
  <desc
     id="desc4">Created with Sketch.</desc>
  <defs
     id="defs6" />
  <g
     id="g820">
    <g
       aria-label="LUTRO"
       transform="scale(0.97449613,1.0261713)"
       style="font-style:normal;font-variant:normal;font-weight:normal;font-stretch:normal;font-size:20.65364456px;line-height:1.25;font-family:'X360 by Redge';-inkscape-font-specification:'X360 by Redge';letter-spacing:0px;word-spacing:0px;fill:#ffffff;fill-opacity:1;stroke:none;stroke-width:0.51634109"
       id="text816">
      <path
         d="M 41.373585,16.464293 H 30.542523 V 1.4480441 h 3.872558 V 13.559874 h 6.958504 z"
         style="font-style:normal;font-variant:normal;font-weight:bold;font-stretch:normal;font-family:sans-serif;-inkscape-font-specification:'sans-serif Bold';fill:#ffffff;stroke-width:0.51634109"
         id="path822"
         inkscape:connector-curvature="0" />
      <path
         d="m 56.843648,11.028592 q 0,2.783401 -1.694244,4.265865 -1.694245,1.482464 -4.99197,1.482464 -3.297726,0 -4.99197,-1.482464 -1.684159,-1.482464 -1.684159,-4.25578 V 1.4480441 h 3.892728 v 9.3687679 q 0,1.563142 0.655511,2.329585 0.655511,0.766444 2.12789,0.766444 1.452209,0 2.117805,-0.736189 0.675681,-0.73619 0.675681,-2.35984 V 1.4480441 h 3.892728 z"
         style="font-style:normal;font-variant:normal;font-weight:bold;font-stretch:normal;font-family:sans-serif;-inkscape-font-specification:'sans-serif Bold';fill:#ffffff;stroke-width:0.51634109"
         id="path824"
         inkscape:connector-curvature="0" />
      <path
         d="M 72.222949,4.3524629 H 67.533522 V 16.464293 H 63.660964 V 4.3524629 H 58.971538 V 1.4480441 h 13.251411 z"
         style="font-style:normal;font-variant:normal;font-weight:bold;font-stretch:normal;font-family:sans-serif;-inkscape-font-specification:'sans-serif Bold';fill:#ffffff;stroke-width:0.51634109"
         id="path826"
         inkscape:connector-curvature="0" />
      <path
         d="m 82.97333,6.0467072 q 0,-0.5647481 -0.23195,-0.9681396 Q 82.50943,4.6751761 81.944682,4.443226 81.551375,4.2818694 81.026966,4.251615 80.502557,4.2112759 79.806707,4.2112759 h -1.401786 v 4.0439997 h 1.190005 q 0.927801,0 1.553058,-0.090763 0.625256,-0.090763 1.048818,-0.4134763 0.403391,-0.3126284 0.584917,-0.6857655 0.191611,-0.3832219 0.191611,-1.0185636 z m 6.040788,10.4175858 h -4.729765 l -4.094424,-5.506294 h -1.785008 v 5.506294 H 74.552533 V 1.4480441 h 6.494603 q 1.331192,0 2.289247,0.1512718 0.958054,0.1512718 1.795092,0.6555112 0.847122,0.5042394 1.341276,1.3110224 0.50424,0.7966982 0.50424,2.0068727 0,1.6639899 -0.776529,2.7128078 -0.766444,1.0488178 -2.198484,1.744668 z"
         style="font-style:normal;font-variant:normal;font-weight:bold;font-stretch:normal;font-family:sans-serif;-inkscape-font-specification:'sans-serif Bold';fill:#ffffff;stroke-width:0.51634109"
         id="path828"
         inkscape:connector-curvature="0" />
      <path
         d="m 105.33131,8.9612107 q 0,3.5901843 -2.0573,5.7079893 -2.0573,2.107721 -5.687819,2.107721 -3.620439,0 -5.677736,-2.107721 -2.057296,-2.117805 -2.057296,-5.7079893 0,-3.6204387 2.057296,-5.7180744 2.057297,-2.1077206 5.677736,-2.1077206 3.610349,0 5.677739,2.1077206 2.06738,2.0976357 2.06738,5.7180744 z m -5.13316,3.8019653 q 0.56475,-0.685766 0.83704,-1.613566 0.27229,-0.937886 0.27229,-2.1984841 0,-1.3513615 -0.31263,-2.2993315 -0.31263,-0.94797 -0.81687,-1.5328877 Q 99.663657,4.5138195 98.987976,4.2415302 98.32238,3.969241 97.596275,3.969241 q -0.736189,0 -1.3917,0.2622044 -0.645427,0.2622045 -1.190005,0.8672917 -0.50424,0.5647481 -0.826953,1.5631421 -0.312628,0.9883092 -0.312628,2.2993315 0,1.3412763 0.302544,2.2892463 0.312628,0.937886 0.816867,1.532888 0.50424,0.595003 1.17992,0.877377 0.675681,0.282374 1.421955,0.282374 0.746275,0 1.421955,-0.282374 0.675681,-0.292459 1.17992,-0.897546 z"
         style="font-style:normal;font-variant:normal;font-weight:bold;font-stretch:normal;font-family:sans-serif;-inkscape-font-specification:'sans-serif Bold';fill:#ffffff;stroke-width:0.51634109"
         id="path830"
         inkscape:connector-curvature="0" />
    </g>
  </g>
</svg>
