<?xml version="1.0" encoding="UTF-8" standalone="no"?>
<svg
   xmlns:dc="http://purl.org/dc/elements/1.1/"
   xmlns:cc="http://creativecommons.org/ns#"
   xmlns:rdf="http://www.w3.org/1999/02/22-rdf-syntax-ns#"
   xmlns:svg="http://www.w3.org/2000/svg"
   xmlns="http://www.w3.org/2000/svg"
   xmlns:sodipodi="http://sodipodi.sourceforge.net/DTD/sodipodi-0.dtd"
   xmlns:inkscape="http://www.inkscape.org/namespaces/inkscape"
   width="79px"
   height="18px"
   viewBox="0 0 79 18"
   version="1.1"
   id="svg12"
   sodipodi:docname="system.svg"
   inkscape:version="0.92.4 (5da689c313, 2019-01-14)">
  <metadata
     id="metadata16">
    <rdf:RDF>
      <cc:Work
         rdf:about="">
        <dc:format>image/svg+xml</dc:format>
        <dc:type
           rdf:resource="http://purl.org/dc/dcmitype/StillImage" />
      </cc:Work>
    </rdf:RDF>
  </metadata>
  <sodipodi:namedview
     pagecolor="#ffffff"
     bordercolor="#666666"
     borderopacity="1"
     objecttolerance="10"
     gridtolerance="10"
     guidetolerance="10"
     inkscape:pageopacity="0"
     inkscape:pageshadow="2"
     inkscape:window-width="1920"
     inkscape:window-height="1018"
     id="namedview14"
     showgrid="false"
     inkscape:zoom="4.8101266"
     inkscape:cx="39.5"
     inkscape:cy="9"
     inkscape:window-x="-8"
     inkscape:window-y="-8"
     inkscape:window-maximized="1"
     inkscape:current-layer="svg12" />
  <!-- Generator: Sketch 45 (43475) - http://www.bohemiancoding.com/sketch -->
  <title
     id="title2">system</title>
  <desc
     id="desc4">Created with Sketch.</desc>
  <defs
     id="defs6" />
  <path
     style="fill:#ffffff;fill-rule:evenodd;stroke:none;stroke-width:1"
     inkscape:connector-curvature="0"
     id="NINTENDO-Copy"
     d="M 16.82,14 H 15.35 L 10.87,7.28 V 14 H 9.078 V 4.2 h 1.764 l 4.186,6.328 V 4.2 h 1.792 z m 3.948,0 H 18.976 V 4.2 h 1.792 z m 9.898,0 h -1.47 L 24.716,7.28 V 14 H 22.924 V 4.2 h 1.764 l 4.186,6.328 V 4.2 h 1.792 z M 39.29,5.936 H 36.518 V 14 H 34.726 V 5.936 H 31.954 V 4.2 H 39.29 Z M 46.99,14 H 40.578 V 4.2 h 6.272 v 1.736 h -4.438 v 2.086 h 3.444 v 1.736 h -3.444 v 2.506 h 4.578 z m 9.282,0 h -1.47 L 50.322,7.28 V 14 H 48.53 V 4.2 h 1.764 l 4.186,6.328 V 4.2 h 1.792 z m 5.824,0 H 58.428 V 4.2 h 3.668 c 1.428007,0 2.589996,0.4386623 3.486,1.316 0.896004,0.8773377 1.344,2.0719924 1.344,3.584 0,1.512008 -0.447996,2.706662 -1.344,3.584 C 64.685996,13.561338 63.524007,14 62.096,14 Z m 0,-8.078 H 60.22 v 6.356 h 1.876 c 0.933338,0 1.644998,-0.279997 2.135,-0.84 0.490002,-0.560003 0.735,-1.339328 0.735,-2.338 0,-0.9986717 -0.244998,-1.7779972 -0.735,-2.338 -0.490002,-0.5600028 -1.201662,-0.84 -2.135,-0.84 z m 10.654,8.274 c -1.418674,0 -2.578329,-0.468995 -3.479,-1.407 C 68.370329,11.850995 67.92,10.621341 67.92,9.1 c 0,-1.5213409 0.450329,-2.7509953 1.351,-3.689 0.900671,-0.9380047 2.060326,-1.407 3.479,-1.407 1.418674,0 2.578329,0.4689953 3.479,1.407 0.900671,0.9380047 1.351,2.1676591 1.351,3.689 0,1.521341 -0.450329,2.750995 -1.351,3.689 -0.900671,0.938005 -2.060326,1.407 -3.479,1.407 z m 0,-8.47 c -0.924005,0 -1.633331,0.3079969 -2.128,0.924 -0.494669,0.6160031 -0.742,1.4326616 -0.742,2.45 0,1.017338 0.247331,1.833997 0.742,2.45 0.494669,0.616003 1.203995,0.924 2.128,0.924 0.924005,0 1.633331,-0.307997 2.128,-0.924 C 75.372669,10.933997 75.62,10.117338 75.62,9.1 75.62,8.0826616 75.372669,7.2660031 74.878,6.65 74.383331,6.0339969 73.674005,5.726 72.75,5.726 Z" />
</svg>
