<?xml version="1.0" encoding="UTF-8" standalone="no"?>
<svg
   xmlns:dc="http://purl.org/dc/elements/1.1/"
   xmlns:cc="http://creativecommons.org/ns#"
   xmlns:rdf="http://www.w3.org/1999/02/22-rdf-syntax-ns#"
   xmlns:svg="http://www.w3.org/2000/svg"
   xmlns="http://www.w3.org/2000/svg"
   xmlns:sodipodi="http://sodipodi.sourceforge.net/DTD/sodipodi-0.dtd"
   xmlns:inkscape="http://www.inkscape.org/namespaces/inkscape"
   width="2500"
   height="603"
   viewBox="8.78 12 423.221 102"
   version="1.1"
   id="svg4"
   sodipodi:docname="_moonlight.svg"
   inkscape:version="0.92.4 (5da689c313, 2019-01-14)">
  <metadata
     id="metadata10">
    <rdf:RDF>
      <cc:Work
         rdf:about="">
        <dc:format>image/svg+xml</dc:format>
        <dc:type
           rdf:resource="http://purl.org/dc/dcmitype/StillImage" />
      </cc:Work>
    </rdf:RDF>
  </metadata>
  <defs
     id="defs8" />
  <sodipodi:namedview
     pagecolor="#ffffff"
     bordercolor="#666666"
     borderopacity="1"
     objecttolerance="10"
     gridtolerance="10"
     guidetolerance="10"
     inkscape:pageopacity="0"
     inkscape:pageshadow="2"
     inkscape:window-width="1920"
     inkscape:window-height="1018"
     id="namedview6"
     showgrid="false"
     inkscape:zoom="0.152"
     inkscape:cx="1250"
     inkscape:cy="301.5"
     inkscape:window-x="-8"
     inkscape:window-y="-8"
     inkscape:window-maximized="1"
     inkscape:current-layer="svg4" />
  <g
     id="g818">
    <path
       style="fill:#ff0000"
       id="path2"
       d="m 432,33.4 h -2 v -5 l -2,3.3 h -1 l -1,-3.3 v 5 h -2 v -8.5 h 2 l 2,4.6 2,-4.6 h 2 z m -9,-7 h -2 v 7 h -2 v -7 h -2 v -1.5 h 6 z m -11,31.5 h -6 V 38.7 l -7,12.5 h -4 l -6,-12.5 v 19.2 h -7 v -33 h 7 l 8,17.8 9,-17.8 h 6 z m -39,0 h -7 l -2,-5.8 h -11 l -2,5.8 h -7 l 12,-33 h 5 z m -10,-11.3 -4,-12 -4,12 z m -29,11.3 h -22 v -33 h 22 v 5.7 h -15 v 7.8 h 13 v 5.7 h -13 v 8.1 h 15 z M 302,30.6 h -8 v 27.3 h -7 V 30.6 h -9 v -5.7 h 24 z m -32,17.6 c 0,6.8 -6,9.9 -12,10 -6,0 -10,-1.4 -12,-4.4 l 4,-4.1 c 2,1.8 4,2.8 8,2.8 4,0 6,-1.4 6,-4.1 0,-2.5 -2,-3.6 -4,-4 l -4,-0.5 c -6,-0.8 -9,-3.9 -9,-9.3 0,-3 1,-5.4 3,-7.3 2,-1.8 5,-2.7 8,-2.7 5,0 8,1.3 11,3.8 l -4,4.1 c -2,-1.5 -4,-2.3 -7,-2.3 -3,0.2 -5,1.3 -5,4.2 0,2.3 2,3.4 4,3.6 l 4,0.6 c 5,0.6 9,4 9,9.6 z m -51,-6 c 0,9 -8,16.3 -17,16.3 -9,0 -16,-7.3 -16,-16.3 0,-8.9 7,-16.2 16,-16.2 9,0 17,7.3 17,16.2 z M 202,12 c -16,0 -30,13.4 -30,30.1 l -19,27.1 c -1,-0.101 -1,-0.2 -2,-0.2 -4,0 -8,1.2 -12,3.2 L 53.6,37.8 C 51.3,27.6 42.2,20 31.4,20 19,20 8.78,30.2 8.78,42.7 8.78,55.1 19,65.3 31.4,65.3 c 4.301,0 8.2,-1.1 11.601,-3.2 l 86,34.4 c 2,10.5 11,17.5 22,17.5 11,0 21,-9 22,-20.1 l 29,-21.2 c 17,0 31,-13.6 31,-30.4 C 233,25.6 219,12 202,12 Z m 0,10 c 12,0 21,9.1 21,20.3 0,11.3 -9,20.4 -21,20.4 -11,0 -20,-9.1 -20,-20.4 C 182,31.1 191,22 202,22 Z M 31.4,26 c 6.4,0 12,3.5 14.801,8.8 L 37.9,31.5 C 31.2,29.1 23.8,32.4 21.1,39 18.5,45.7 21.5,53.2 28,56.1 l 7,2.8 c -1.101,0.3 -2.3,0.4 -3.601,0.4 -9.199,0 -16.6,-7.4 -16.6,-16.6 C 14.8,33.4 22.2,26 31.4,26 Z M 151,75 c 9,0 16,7.5 16,16.7 0,9.3 -7,16.3 -16,16.3 -7,0 -12,-3 -15,-8.5 3,1.5 5,2.5 8,3.5 7,3 14,-1 17,-7.4 2,-6.199 0,-14.699 -7,-17.399 l -7,-2.8 C 148,75.2 150,75 151,75 Z"
       inkscape:connector-curvature="0" />
  </g>
</svg>
