<?xml version="1.0" encoding="UTF-8" standalone="no"?>
<!-- Generator: Adobe Illustrator 13.0.0, SVG Export Plug-In . SVG Version: 6.00 Build 14948)  -->

<svg
   xmlns:dc="http://purl.org/dc/elements/1.1/"
   xmlns:cc="http://creativecommons.org/ns#"
   xmlns:rdf="http://www.w3.org/1999/02/22-rdf-syntax-ns#"
   xmlns:svg="http://www.w3.org/2000/svg"
   xmlns="http://www.w3.org/2000/svg"
   xmlns:sodipodi="http://sodipodi.sourceforge.net/DTD/sodipodi-0.dtd"
   xmlns:inkscape="http://www.inkscape.org/namespaces/inkscape"
   version="1.1"
   id="Ebene_1"
   x="0px"
   y="0px"
   width="341.155px"
   height="127.229px"
   viewBox="-0.501 0 341.155 127.229"
   enable-background="new -0.501 0 341.155 127.229"
   xml:space="preserve"
   sodipodi:docname="nintendo.svg"
   inkscape:version="0.92.4 (5da689c313, 2019-01-14)"><metadata
   id="metadata128"><rdf:RDF><cc:Work
       rdf:about=""><dc:format>image/svg+xml</dc:format><dc:type
         rdf:resource="http://purl.org/dc/dcmitype/StillImage" /></cc:Work></rdf:RDF></metadata><defs
   id="defs126" /><sodipodi:namedview
   pagecolor="#ffffff"
   bordercolor="#666666"
   borderopacity="1"
   objecttolerance="10"
   gridtolerance="10"
   guidetolerance="10"
   inkscape:pageopacity="0"
   inkscape:pageshadow="2"
   inkscape:window-width="1920"
   inkscape:window-height="1018"
   id="namedview124"
   showgrid="false"
   inkscape:zoom="1.1138632"
   inkscape:cx="170.5775"
   inkscape:cy="63.614498"
   inkscape:window-x="-8"
   inkscape:window-y="-8"
   inkscape:window-maximized="1"
   inkscape:current-layer="Ebene_1" />










<g
   id="g1021"><g
     transform="matrix(1.1414549,0,0,1.1414549,-22.72181,22.034222)"
     id="g1006"><path
       style="fill:#ff0000"
       inkscape:connector-curvature="0"
       d="M 277.724,70.452 H 62.576 C 43.153,70.452 27.348,54.649 27.348,35.225 27.348,15.801 43.154,0 62.576,0 h 215.146 c 19.426,0 35.229,15.802 35.229,35.226 -0.001,19.423 -15.802,35.226 -35.227,35.226 z M 62.576,8.333 c -14.829,0 -26.895,12.064 -26.895,26.895 0,14.828 12.065,26.894 26.895,26.894 h 215.146 c 14.827,0 26.896,-12.065 26.896,-26.894 0,-14.83 -12.067,-26.895 -26.896,-26.895 H 62.576 Z"
       id="path2" /><path
       style="fill:#ff0000"
       inkscape:connector-curvature="0"
       d="M 90.208,51.562 V 19.047 H 80.429 V 41.782 L 66.006,19.047 H 55.494 v 32.515 h 9.779 V 28.093 l 15.155,23.469 z"
       id="path4" /><path
       style="fill:#ff0000"
       inkscape:connector-curvature="0"
       d="M 106.099,51.562 V 29.56 h -9.778 v 22.002 z"
       id="path6" /><path
       style="fill:#ff0000"
       inkscape:connector-curvature="0"
       d="m 106.099,24.914 v -5.867 h -9.778 v 5.867 z"
       id="path8" /><path
       style="fill:#ff0000"
       inkscape:connector-curvature="0"
       id="_x33_162"
       d="M 140.324,51.562 V 36.403 c 0,-3.178 -6.112,-7.578 -9.289,-7.578 H 128.1 c -2.199,0 -4.645,1.956 -6.845,2.934 V 29.56 h -9.779 v 22.002 h 9.779 V 36.403 c 0,-1.467 3.422,-3.178 4.89,-3.178 1.467,0 4.155,1.711 4.155,3.178 v 15.158 z" /><path
       style="fill:#ff0000"
       inkscape:connector-curvature="0"
       id="_x33_162_1_"
       d="M 222.144,52.319 V 37.162 c 0,-3.179 -6.109,-7.578 -9.293,-7.578 h -2.932 c -2.201,0 -4.646,1.956 -6.848,2.933 v -2.199 h -9.777 V 52.32 h 9.777 V 37.162 c 0,-1.466 3.424,-3.179 4.891,-3.179 1.467,0 4.154,1.713 4.154,3.179 v 15.157 z" /><path
       style="fill:#ff0000"
       inkscape:connector-curvature="0"
       d="M 156.215,51.562 V 29.56 h 5.134 v -2.934 h -5.134 v -4.645 h -10.021 v 4.645 h -5.135 v 2.934 h 5.135 v 22.002 z"
       id="path12" /><path
       style="fill:#ff0000"
       inkscape:connector-curvature="0"
       d="m 175.038,28.826 c -7.822,0 -14.422,5.378 -14.422,11.979 0,6.846 6.6,12.223 14.422,12.223 6.846,0 12.469,-3.911 13.936,-9.045 h -10.021 v 2.934 c 0,2.445 -1.709,3.18 -3.91,3.18 -2.2,0 -3.668,-0.734 -3.668,-3.18 v -6.111 h 18.093 c -0.004,-6.601 -6.36,-11.98 -14.43,-11.98 z m 0,2.2 c 2.201,0 3.912,1.467 3.912,3.912 v 2.199 h -7.578 v -2.199 c 0,-2.445 1.467,-3.912 3.666,-3.912 z"
       id="path14" /><path
       style="fill:#ff0000"
       inkscape:connector-curvature="0"
       d="m 271.364,28.826 c -8.069,0 -14.426,5.378 -14.426,11.979 0,6.846 6.354,12.223 14.426,12.223 7.818,0 14.422,-5.377 14.422,-12.223 -0.004,-6.6 -6.603,-11.979 -14.422,-11.979 z m 0,2.2 c 2.195,0 3.666,1.467 3.666,3.912 v 11.978 c 0,2.444 -1.471,3.179 -3.666,3.179 -2.444,0 -3.914,-0.734 -3.914,-3.179 V 34.938 c -0.002,-2.445 1.467,-3.912 3.914,-3.912 z"
       id="path16" /><path
       style="fill:#ff0000"
       inkscape:connector-curvature="0"
       d="m 243.247,19.047 v 11.979 c 0,0 -2.936,-2.2 -6.848,-2.2 -6.111,0 -11.244,5.378 -11.244,11.246 0,6.112 5.135,12.224 11.244,12.224 3.912,0 6.848,-1.467 6.848,-1.467 v 0.732 h 9.779 V 19.047 Z m -3.668,13.446 c 2.199,0 3.668,1.712 3.668,3.912 v 9.045 c 0,2.201 -1.469,2.934 -3.668,2.934 -2.443,0 -3.912,-0.732 -3.912,-2.934 v -9.045 c 0,-2.2 1.469,-3.912 3.912,-3.912 z"
       id="path18" /><g
       id="g22">
	<path
   d="m 287.006,29.216 c -2.774,0 -5.036,-2.258 -5.036,-5.035 0,-2.959 2.213,-5.28 5.036,-5.28 2.729,0 5.036,2.417 5.036,5.28 0,2.681 -2.35,5.035 -5.036,5.035 z m 0,-9.533 c -2.427,0 -4.253,1.934 -4.253,4.5 0,2.344 1.908,4.254 4.253,4.254 2.229,0 4.254,-2.028 4.254,-4.254 0,-2.399 -1.984,-4.5 -4.254,-4.5 z m 0.884,6.647 -0.863,-1.515 h -1.096 v 1.321 h -0.779 V 21.59 h 2.104 c 0.979,0 1.488,0.813 1.488,1.613 0,0.615 -0.303,1.238 -0.885,1.492 l 0.711,1.248 z m -1.959,-2.294 h 1.321 c 0.22,0 0.396,-0.079 0.521,-0.235 0.119,-0.149 0.188,-0.368 0.188,-0.597 0,-0.311 -0.151,-0.832 -0.709,-0.832 h -1.321 z"
   id="path20"
   inkscape:connector-curvature="0"
   style="fill:#ff0000" />
</g></g></g>



















</svg>