<?xml version="1.0" encoding="UTF-8" standalone="no"?>
<!-- Generator: Adobe Illustrator 13.0.0, SVG Export Plug-In . SVG Version: 6.00 Build 14948)  -->

<svg
   xmlns:a="http://ns.adobe.com/AdobeSVGViewerExtensions/3.0/"
   xmlns:ns="&amp;ns_sfw;"
   xmlns:dc="http://purl.org/dc/elements/1.1/"
   xmlns:cc="http://creativecommons.org/ns#"
   xmlns:rdf="http://www.w3.org/1999/02/22-rdf-syntax-ns#"
   xmlns:svg="http://www.w3.org/2000/svg"
   xmlns="http://www.w3.org/2000/svg"
   xmlns:sodipodi="http://sodipodi.sourceforge.net/DTD/sodipodi-0.dtd"
   xmlns:inkscape="http://www.inkscape.org/namespaces/inkscape"
   version="1.2"
   id="Ebene_1"
   x="0px"
   y="0px"
   width="354.746px"
   height="129.104px"
   viewBox="48.598 9.613 354.746 129.104"
   xml:space="preserve"
   sodipodi:docname="ports.svg"
   inkscape:version="0.92.4 (5da689c313, 2019-01-14)"><defs
   id="defs140">
	
	
	
	
</defs><sodipodi:namedview
   pagecolor="#ffffff"
   bordercolor="#666666"
   borderopacity="1"
   objecttolerance="10"
   gridtolerance="10"
   guidetolerance="10"
   inkscape:pageopacity="0"
   inkscape:pageshadow="2"
   inkscape:window-width="1920"
   inkscape:window-height="1018"
   id="namedview138"
   showgrid="false"
   inkscape:zoom="1.071189"
   inkscape:cx="177.373"
   inkscape:cy="64.552002"
   inkscape:window-x="-8"
   inkscape:window-y="-8"
   inkscape:window-maximized="1"
   inkscape:current-layer="Ebene_1" />
<metadata
   id="metadata27">
	<rdf:RDF>
		<cc:Work
   rdf:about="">
			<dc:format>image/svg+xml</dc:format>
			<dc:type
   rdf:resource="http://purl.org/dc/dcmitype/StillImage" />
			<dc:title />
		</cc:Work>
	</rdf:RDF>
	<ns:sfw>
		<ns:slices />
		<ns:sliceSourceBounds
   height="129.104"
   width="354.746"
   y="476.208"
   x="725.634"
   bottomLeftOrigin="true" />
	</ns:sfw>
</metadata>



























<linearGradient
   id="SVGID_1_"
   gradientUnits="userSpaceOnUse"
   x1="200.2363"
   y1="91.4241"
   x2="200.2363"
   y2="23.4241">
	<stop
   offset="0"
   style="stop-color:#9B9B9B"
   id="stop43" />
	<stop
   offset="1"
   style="stop-color:#5B5C60"
   id="stop45" />
	<a:midPointStop
   offset="0"
   style="stop-color:#9B9B9B" />
	<a:midPointStop
   offset="0.5"
   style="stop-color:#9B9B9B" />
	<a:midPointStop
   offset="1"
   style="stop-color:#5B5C60" />
</linearGradient>

<linearGradient
   id="SVGID_2_"
   gradientUnits="userSpaceOnUse"
   x1="246.4277"
   y1="91.4241"
   x2="246.4277"
   y2="23.4241">
	<stop
   offset="0"
   style="stop-color:#9B9B9B"
   id="stop50" />
	<stop
   offset="1"
   style="stop-color:#5B5C60"
   id="stop52" />
	<a:midPointStop
   offset="0"
   style="stop-color:#9B9B9B" />
	<a:midPointStop
   offset="0.5"
   style="stop-color:#9B9B9B" />
	<a:midPointStop
   offset="1"
   style="stop-color:#5B5C60" />
</linearGradient>

<linearGradient
   id="SVGID_3_"
   gradientUnits="userSpaceOnUse"
   x1="290.7935"
   y1="91.4241"
   x2="290.7935"
   y2="23.4241">
	<stop
   offset="0"
   style="stop-color:#9B9B9B"
   id="stop57" />
	<stop
   offset="1"
   style="stop-color:#5B5C60"
   id="stop59" />
	<a:midPointStop
   offset="0"
   style="stop-color:#9B9B9B" />
	<a:midPointStop
   offset="0.5"
   style="stop-color:#9B9B9B" />
	<a:midPointStop
   offset="1"
   style="stop-color:#5B5C60" />
</linearGradient>

<linearGradient
   id="SVGID_4_"
   gradientUnits="userSpaceOnUse"
   x1="336.7144"
   y1="91.4241"
   x2="336.7144"
   y2="23.4241">
	<stop
   offset="0"
   style="stop-color:#9B9B9B"
   id="stop64" />
	<stop
   offset="1"
   style="stop-color:#5B5C60"
   id="stop66" />
	<a:midPointStop
   offset="0"
   style="stop-color:#9B9B9B" />
	<a:midPointStop
   offset="0.5"
   style="stop-color:#9B9B9B" />
	<a:midPointStop
   offset="1"
   style="stop-color:#5B5C60" />
</linearGradient>

<linearGradient
   id="SVGID_5_"
   gradientUnits="userSpaceOnUse"
   x1="380.4038"
   y1="91.4241"
   x2="380.4038"
   y2="23.4241">
	<stop
   offset="0"
   style="stop-color:#9B9B9B"
   id="stop71" />
	<stop
   offset="1"
   style="stop-color:#5B5C60"
   id="stop73" />
	<a:midPointStop
   offset="0"
   style="stop-color:#9B9B9B" />
	<a:midPointStop
   offset="0.5"
   style="stop-color:#9B9B9B" />
	<a:midPointStop
   offset="1"
   style="stop-color:#5B5C60" />
</linearGradient>

<linearGradient
   id="SVGID_6_"
   gradientUnits="userSpaceOnUse"
   x1="201.0303"
   y1="132.3713"
   x2="201.0303"
   y2="61.6219">
	<stop
   offset="0"
   style="stop-color:#F9DA55"
   id="stop78" />
	<stop
   offset="1"
   style="stop-color:#E04305"
   id="stop80" />
	<a:midPointStop
   offset="0"
   style="stop-color:#F9DA55" />
	<a:midPointStop
   offset="0.5"
   style="stop-color:#F9DA55" />
	<a:midPointStop
   offset="1"
   style="stop-color:#E04305" />
</linearGradient>

<linearGradient
   id="SVGID_7_"
   gradientUnits="userSpaceOnUse"
   x1="246.4106"
   y1="132.3713"
   x2="246.4106"
   y2="61.6219">
	<stop
   offset="0"
   style="stop-color:#F9DA55"
   id="stop85" />
	<stop
   offset="1"
   style="stop-color:#E04305"
   id="stop87" />
	<a:midPointStop
   offset="0"
   style="stop-color:#F9DA55" />
	<a:midPointStop
   offset="0.5"
   style="stop-color:#F9DA55" />
	<a:midPointStop
   offset="1"
   style="stop-color:#E04305" />
</linearGradient>

<linearGradient
   id="SVGID_8_"
   gradientUnits="userSpaceOnUse"
   x1="291.3853"
   y1="132.3713"
   x2="291.3853"
   y2="61.6219">
	<stop
   offset="0"
   style="stop-color:#F9DA55"
   id="stop92" />
	<stop
   offset="1"
   style="stop-color:#E04305"
   id="stop94" />
	<a:midPointStop
   offset="0"
   style="stop-color:#F9DA55" />
	<a:midPointStop
   offset="0.5"
   style="stop-color:#F9DA55" />
	<a:midPointStop
   offset="1"
   style="stop-color:#E04305" />
</linearGradient>

<linearGradient
   id="SVGID_9_"
   gradientUnits="userSpaceOnUse"
   x1="336.4272"
   y1="132.3713"
   x2="336.4272"
   y2="61.6219">
	<stop
   offset="0"
   style="stop-color:#F9DA55"
   id="stop99" />
	<stop
   offset="1"
   style="stop-color:#E04305"
   id="stop101" />
	<a:midPointStop
   offset="0"
   style="stop-color:#F9DA55" />
	<a:midPointStop
   offset="0.5"
   style="stop-color:#F9DA55" />
	<a:midPointStop
   offset="1"
   style="stop-color:#E04305" />
</linearGradient>

<linearGradient
   id="SVGID_10_"
   gradientUnits="userSpaceOnUse"
   x1="381.1987"
   y1="132.3713"
   x2="381.1987"
   y2="61.6219">
	<stop
   offset="0"
   style="stop-color:#F9DA55"
   id="stop106" />
	<stop
   offset="1"
   style="stop-color:#E04305"
   id="stop108" />
	<a:midPointStop
   offset="0"
   style="stop-color:#F9DA55" />
	<a:midPointStop
   offset="0.5"
   style="stop-color:#F9DA55" />
	<a:midPointStop
   offset="1"
   style="stop-color:#E04305" />
</linearGradient>












<g
   id="g1034"><g
     transform="matrix(1.0697074,0,0,1.0697074,-84.245988,-5.4473753)"
     id="g1009"><path
       style="fill:url(#SVGID_1_)"
       inkscape:connector-curvature="0"
       d="m 180.42,127.642 1.082,-2.569 V 25.924 l -2.705,-3.382 h 33.681 l 9.198,5.546 v 46.125 l -25.024,13.932 v 23.536 h 3.382 z m 15.961,-56.405 10.821,-6.493 V 38.503 h -10.821 z"
       id="path48" /><path
       style="fill:url(#SVGID_2_)"
       inkscape:connector-curvature="0"
       d="m 260.766,22.542 5.952,6.899 v 78.724 l -22.048,18.666 -18.531,-17.179 v -79.67 l 5.681,-7.44 z M 241.423,37.151 V 98.019 L 250.486,106 V 37.15 h -9.063 z"
       id="path55" /><path
       style="fill:url(#SVGID_3_)"
       inkscape:connector-curvature="0"
       d="M 271.586,125.343 V 25.924 l -2.705,-3.382 h 33.68 l 9.198,5.546 v 28.541 l -14.203,8.116 14.203,7.575 v 26.106 l 0.947,0.812 -15.691,11.497 V 78.677 l -10.279,-5.411 v 40.715 l 2.029,2.976 -18.667,13.797 z m 14.878,-68.985 10.821,-6.493 V 38.503 h -10.821 z"
       id="path62" /><path
       style="fill:url(#SVGID_4_)"
       inkscape:connector-curvature="0"
       d="m 328.666,38.503 h -12.038 v -12.58 l -2.705,-3.382 h 45.584 l -2.705,3.382 v 12.58 H 343.68 v 77.235 l 2.164,3.247 -18.802,13.526 1.623,-7.305 V 38.503 Z"
       id="path69" /><path
       style="fill:url(#SVGID_5_)"
       inkscape:connector-curvature="0"
       d="m 392.645,22.542 9.198,5.546 V 41.75 h -16.232 v -3.246 h -9.063 v 20.154 l 25.295,13.662 v 22.319 l -41.256,33.004 1.082,-2.569 V 80.705 h 14.879 v 9.604 l 9.063,-6.628 V 78.135 L 361.67,64.609 V 25.924 l -2.705,-3.382 z"
       id="path76" /><path
       style="fill:url(#SVGID_6_)"
       inkscape:connector-curvature="0"
       d="m 221.658,65.205 v 8.955 l -25.024,13.932 v 23.536 h 3.382 l -19.613,15.961 1.082,-2.569 V 88.205"
       id="path83" /><path
       style="fill:url(#SVGID_7_)"
       inkscape:connector-curvature="0"
       d="m 266.7,87.205 v 20.906 l -22.048,18.666 -18.531,-17.179 v -44.81 l 15.284,8.333 v 24.844 l 9.063,7.981 V 78.289 Z"
       id="path90" /><path
       style="fill:url(#SVGID_8_)"
       inkscape:connector-curvature="0"
       d="m 286.718,80.538 v 33.39 l 2.029,2.976 -18.666,13.796 1.487,-5.41 V 87.705 m 36.265,-17.523 3.909,2.085 v 26.105 l 0.947,0.812 -15.691,11.497 V 78.624 l -3.044,-1.602"
       id="path97" /><path
       style="fill:url(#SVGID_9_)"
       inkscape:connector-curvature="0"
       d="m 343.664,78.038 v 37.647 l 2.164,3.247 -18.802,13.526 1.623,-7.305 V 68.622"
       id="path104" /><path
       style="fill:url(#SVGID_10_)"
       inkscape:connector-curvature="0"
       d="m 392.712,67.344 9.114,4.923 v 22.318 l -41.256,33.004 1.082,-2.569 V 80.653 h 14.879 v 9.604 l 9.063,-6.628 v -5.546 l -7.7,-4.351"
       id="path111" /><path
       style="fill:#542209"
       d="m 181.962,87.057 38.251,-22.125 1.001,1.732 -38.249,22.125 z"
       id="polygon113"
       inkscape:connector-curvature="0" /><path
       style="fill:#542209"
       d="m 226.737,66.302 0.954,-1.758 14.189,7.699 -0.951,1.757 z"
       id="polygon115"
       inkscape:connector-curvature="0" /><path
       style="fill:#542209"
       d="m 250.956,79.409 1.016,-1.723 14.625,8.627 -1.017,1.722 z"
       id="polygon117"
       inkscape:connector-curvature="0" /><path
       style="fill:#542209"
       d="m 271.639,86.906 14.374,-7.25 0.903,1.786 -14.375,7.249 z"
       id="polygon119"
       inkscape:connector-curvature="0" /><path
       style="fill:#542209"
       d="m 294.122,75.663 11.374,-6 0.933,1.771 -11.375,6 z"
       id="polygon121"
       inkscape:connector-curvature="0" /><path
       style="fill:#542209"
       d="m 329.037,69.633 1.102,-1.669 12.501,8.249 -1.103,1.67 z"
       id="polygon123"
       inkscape:connector-curvature="0" /><path
       style="fill:#542209"
       d="m 377.924,72.513 12.873,-5.875 0.832,1.82 -12.875,5.876 z"
       id="polygon125"
       inkscape:connector-curvature="0" /><path
       inkscape:connector-curvature="0"
       d="M 180,124.271 V 25.948 l -4.323,-5.406 h 37.217 l 10.28,6.198 V 74.595 L 198.15,88.526 v 21.154 h 6.1 l -22.884,18.624 -4.666,3.796 z m 1.801,3.452 -1.383,-0.582 z m 1.2,-102.827 v 98.209 l 12.81,-10.425 h -0.66 V 86.763 L 220.172,72.83 V 28.433 L 212.06,23.542 181.915,23.54 Z m 11.878,11.607 h 13.822 v 28.59 l -11.551,6.929 -0.771,-1.286 0.771,1.286 -2.271,1.366 z m 3,31.583 7.82,-4.691 V 39.503 l -7.82,-0.002 z"
       id="path127" /><path
       inkscape:connector-curvature="0"
       d="m 224.637,109.804 v -80.83 l 6.438,-8.432 h 29.689 v 1.5 -1.5 h 0.685 l 6.768,7.839 v 79.977 l -23.595,19.976 z m 2.999,-79.815 v 78.508 l 17.077,15.83 20.503,-17.356 V 29.496 l -5.14,-5.955 H 232.56 Z m 12.286,68.207 v -61.545 -1.5 h 12.063 v 73.672 z m 3,-1.355 6.062,5.339 V 38.151 h -6.062 z m -1.5,-58.69 v -1.5 z"
       id="path129" /><path
       inkscape:connector-curvature="0"
       d="m 270.084,124.636 -0.002,-98.688 -4.324,-5.407 h 37.218 l 10.283,6.199 v 30.259 l -12.602,7.199 12.602,6.721 -0.002,26.316 1.861,1.593 -19.604,14.36 V 79.081 l -7.279,-3.831 v 37.768 l 2.582,3.785 -23.318,17.233 z m 3,0.409 -0.393,1.424 14.02,-10.361 -1.477,-2.168 V 70.281 l 13.28,6.988 -0.002,30.004 11.78,-8.631 -0.036,-0.029 V 72.719 L 294.451,64.29 310.256,55.258 V 28.434 l -8.115,-4.893 H 272 l 1.085,1.356 v 99.944 0.204 z m 11.879,-88.542 h 13.821 v 13.709 l -11.549,6.932 -0.772,-1.287 0.772,1.287 -2.272,1.363 z m 2.999,16.705 7.821,-4.693 v -9.013 h -7.821 z"
       id="path131" /><path
       inkscape:connector-curvature="0"
       d="M 327.164,124.543 V 39.502 H 315.126 V 25.948 l -4.323,-5.406 h 51.824 l -4.326,5.408 v 13.552 h -13.122 v 75.282 l 2.716,4.072 -23.173,16.673 z m 3.001,-88.04 v 88.367 l -0.807,3.627 14.433,-10.384 -1.611,-2.421 V 36.503 H 355.3 V 24.897 l 1.084,-1.355 h -39.343 l 1.086,1.355 v 11.606 h 10.538 v 1.5 -1.5 z"
       id="path133" /><path
       inkscape:connector-curvature="0"
       d="M 360.168,124.27 V 78.704 h 17.879 v 8.147 l 6.062,-4.432 V 78.507 L 360.169,64.984 V 25.949 l -4.324,-5.408 h 36.8 v 1.5 -1.5 h 0.417 l 10.283,6.198 v 16.01 h -19.232 v -3.246 h -6.064 v 17.759 l 25.297,13.663 V 94.86 L 356.91,132 Z m 3.001,-1.116 37.171,-29.737 V 72.713 L 375.046,59.051 V 36.502 h 12.063 l -0.002,3.246 h 13.234 V 28.433 l -8.112,-4.891 -30.147,-0.002 1.087,1.358 -0.002,38.335 23.942,13.526 v 7.181 l -12.063,8.824 V 81.705 h -11.877 z"
       id="path135" /></g></g>
</svg>