<?xml version="1.0" encoding="UTF-8" standalone="no"?>
<svg
   xmlns:dc="http://purl.org/dc/elements/1.1/"
   xmlns:cc="http://creativecommons.org/ns#"
   xmlns:rdf="http://www.w3.org/1999/02/22-rdf-syntax-ns#"
   xmlns:svg="http://www.w3.org/2000/svg"
   xmlns="http://www.w3.org/2000/svg"
   xmlns:sodipodi="http://sodipodi.sourceforge.net/DTD/sodipodi-0.dtd"
   xmlns:inkscape="http://www.inkscape.org/namespaces/inkscape"
   width="102px"
   height="18px"
   viewBox="0 0 102 18"
   version="1.1"
   id="svg12"
   sodipodi:docname="system.svg"
   inkscape:version="0.92.4 (5da689c313, 2019-01-14)">
  <metadata
     id="metadata16">
    <rdf:RDF>
      <cc:Work
         rdf:about="">
        <dc:format>image/svg+xml</dc:format>
        <dc:type
           rdf:resource="http://purl.org/dc/dcmitype/StillImage" />
      </cc:Work>
    </rdf:RDF>
  </metadata>
  <sodipodi:namedview
     pagecolor="#ffffff"
     bordercolor="#666666"
     borderopacity="1"
     objecttolerance="10"
     gridtolerance="10"
     guidetolerance="10"
     inkscape:pageopacity="0"
     inkscape:pageshadow="2"
     inkscape:window-width="1920"
     inkscape:window-height="1018"
     id="namedview14"
     showgrid="false"
     inkscape:zoom="3.7254902"
     inkscape:cx="51"
     inkscape:cy="9"
     inkscape:window-x="-8"
     inkscape:window-y="-8"
     inkscape:window-maximized="1"
     inkscape:current-layer="svg12" />
  <!-- Generator: Sketch 45 (43475) - http://www.bohemiancoding.com/sketch -->
  <title
     id="title2">system</title>
  <desc
     id="desc4">Created with Sketch.</desc>
  <defs
     id="defs6" />
  <path
     style="fill:#ffffff;fill-rule:evenodd;stroke:none;stroke-width:1"
     inkscape:connector-curvature="0"
     id="INTELLIVISION-Copy"
     d="M 10.87,14 H 9.078 V 4.2 h 1.792 z m 9.898,0 h -1.47 L 14.818,7.28 V 14 H 13.026 V 4.2 h 1.764 l 4.186,6.328 V 4.2 h 1.792 z M 29.392,5.936 H 26.62 V 14 H 24.828 V 5.936 H 22.056 V 4.2 h 7.336 z M 37.092,14 H 30.68 V 4.2 h 6.272 v 1.736 h -4.438 v 2.086 h 3.444 v 1.736 h -3.444 v 2.506 h 4.578 z m 7.364,0 H 38.632 V 4.2 h 1.792 v 8.064 h 4.032 z m 7,0 H 45.632 V 4.2 h 1.792 v 8.064 h 4.032 z m 2.968,0 H 52.632 V 4.2 h 1.792 z M 64.658,4.2 61.214,14 H 59.03 L 55.502,4.2 h 1.862 L 60.108,11.634 62.81,4.2 Z M 67.57,14 H 65.778 V 4.2 h 1.792 z m 4.998,0.196 c -0.700003,0 -1.33933,-0.07 -1.918,-0.21 -0.57867,-0.140001 -1.021999,-0.307999 -1.33,-0.504 l 0.21,-2.044 c 0.298668,0.289335 0.716331,0.534332 1.253,0.735 0.536669,0.200668 1.145663,0.301 1.827,0.301 1.166673,0 1.75,-0.354663 1.75,-1.064 0,-0.196001 -0.04667,-0.373332 -0.14,-0.532 C 74.12667,10.719333 74.026334,10.588667 73.919,10.486 73.811666,10.383333 73.632001,10.273667 73.38,10.157 73.127999,10.040333 72.932001,9.9563336 72.792,9.905 72.651999,9.8536664 72.414002,9.7720006 72.078,9.66 71.788665,9.5666662 71.588001,9.4966669 71.476,9.45 L 70.916,9.212 C 70.654665,9.1093328 70.463334,9.0183337 70.342,8.939 70.220666,8.8596663 70.071334,8.7476674 69.894,8.603 69.716666,8.4583326 69.586,8.3113341 69.502,8.162 69.418,8.0126659 69.343334,7.833001 69.278,7.623 69.212666,7.412999 69.18,7.1866679 69.18,6.944 c 0,-0.7653372 0.28933,-1.4466637 0.868,-2.044 0.57867,-0.5973363 1.469994,-0.896 2.674,-0.896 0.625336,0 1.229664,0.079333 1.813,0.238 0.583336,0.1586675 1.019665,0.3313324 1.309,0.518 L 75.662,6.594 C 74.588661,6.0059971 73.632004,5.712 72.792,5.712 72.315998,5.712 71.898335,5.7913325 71.539,5.95 71.179665,6.1086675 71,6.3746648 71,6.748 c 0,0.3546684 0.163332,0.6276657 0.49,0.819 0.326668,0.1913343 0.82133,0.3896656 1.484,0.595 0.345335,0.1026672 0.608999,0.1866663 0.791,0.252 0.182001,0.065334 0.431665,0.1633327 0.749,0.294 0.317335,0.1306673 0.564666,0.2683326 0.742,0.413 0.177334,0.1446674 0.361666,0.321999 0.553,0.532 0.191334,0.210001 0.331333,0.457332 0.42,0.742 0.08867,0.284668 0.133,0.599665 0.133,0.945 0,0.261335 -0.02333,0.506332 -0.07,0.735 -0.04667,0.228668 -0.151666,0.478332 -0.315,0.749 -0.163334,0.270668 -0.377999,0.501666 -0.644,0.693 -0.266001,0.191334 -0.634664,0.352333 -1.106,0.483 -0.471336,0.130667 -1.02433,0.196 -1.659,0.196 z M 79.638,14 H 77.846 V 4.2 h 1.792 z m 6.398,0.196 c -1.418674,0 -2.578329,-0.468995 -3.479,-1.407 -0.900671,-0.938005 -1.351,-2.167659 -1.351,-3.689 0,-1.5213409 0.450329,-2.7509953 1.351,-3.689 0.900671,-0.9380047 2.060326,-1.407 3.479,-1.407 1.418674,0 2.578329,0.4689953 3.479,1.407 0.900671,0.9380047 1.351,2.1676591 1.351,3.689 0,1.521341 -0.450329,2.750995 -1.351,3.689 -0.900671,0.938005 -2.060326,1.407 -3.479,1.407 z m 0,-8.47 c -0.924005,0 -1.633331,0.3079969 -2.128,0.924 -0.494669,0.6160031 -0.742,1.4326616 -0.742,2.45 0,1.017338 0.247331,1.833997 0.742,2.45 0.494669,0.616003 1.203995,0.924 2.128,0.924 0.924005,0 1.633331,-0.307997 2.128,-0.924 0.494669,-0.616003 0.742,-1.432662 0.742,-2.45 0,-1.0173384 -0.247331,-1.8339969 -0.742,-2.45 C 87.669331,6.0339969 86.960005,5.726 86.036,5.726 Z M 100.176,14 h -1.47 L 94.226,7.28 V 14 H 92.434 V 4.2 h 1.764 l 4.186,6.328 V 4.2 h 1.792 z" />
</svg>
