<?xml version="1.0" encoding="UTF-8" standalone="no"?>
<svg
   xmlns:dc="http://purl.org/dc/elements/1.1/"
   xmlns:cc="http://creativecommons.org/ns#"
   xmlns:rdf="http://www.w3.org/1999/02/22-rdf-syntax-ns#"
   xmlns:svg="http://www.w3.org/2000/svg"
   xmlns="http://www.w3.org/2000/svg"
   xmlns:sodipodi="http://sodipodi.sourceforge.net/DTD/sodipodi-0.dtd"
   xmlns:inkscape="http://www.inkscape.org/namespaces/inkscape"
   width="117px"
   height="18px"
   viewBox="0 0 117 18"
   version="1.1"
   id="svg12"
   sodipodi:docname="system.svg"
   inkscape:version="0.92.4 (5da689c313, 2019-01-14)">
  <metadata
     id="metadata16">
    <rdf:RDF>
      <cc:Work
         rdf:about="">
        <dc:format>image/svg+xml</dc:format>
        <dc:type
           rdf:resource="http://purl.org/dc/dcmitype/StillImage" />
        <dc:title>system</dc:title>
      </cc:Work>
    </rdf:RDF>
  </metadata>
  <sodipodi:namedview
     pagecolor="#ffffff"
     bordercolor="#666666"
     borderopacity="1"
     objecttolerance="10"
     gridtolerance="10"
     guidetolerance="10"
     inkscape:pageopacity="0"
     inkscape:pageshadow="2"
     inkscape:window-width="1920"
     inkscape:window-height="1018"
     id="namedview14"
     showgrid="false"
     inkscape:zoom="3.2478632"
     inkscape:cx="94.880589"
     inkscape:cy="8.9999999"
     inkscape:window-x="-8"
     inkscape:window-y="-8"
     inkscape:window-maximized="1"
     inkscape:current-layer="svg12" />
  <!-- Generator: Sketch 45 (43475) - http://www.bohemiancoding.com/sketch -->
  <title
     id="title2">system</title>
  <desc
     id="desc4">Created with Sketch.</desc>
  <defs
     id="defs6" />
  <g
     id="text995"
     style="font-style:normal;font-variant:normal;font-weight:normal;font-stretch:normal;font-size:24.61773872px;line-height:1.25;font-family:'X360 by Redge';-inkscape-font-specification:'X360 by Redge';letter-spacing:0px;word-spacing:0px;fill:#ffffff;fill-opacity:1;stroke:none;stroke-width:0.61544347"
     aria-label="ATARI 5200">
    <path
       inkscape:connector-curvature="0"
       id="path1003"
       style="font-style:normal;font-variant:normal;font-weight:bold;font-stretch:normal;font-size:16.41182518px;font-family:sans-serif;-inkscape-font-specification:'sans-serif Bold';fill:#ffffff;stroke-width:0.61544347"
       d="M 17.903663,16.307854 H 14.722269 L 13.89687,13.895764 H 9.4733698 l -0.8253994,2.41209 H 5.5467124 L 9.954185,4.3756234 H 13.49619 Z M 13.151606,11.708055 11.68512,7.4287998 10.218633,11.708055 Z" />
    <path
       inkscape:connector-curvature="0"
       id="path1005"
       style="font-style:normal;font-variant:normal;font-weight:bold;font-stretch:normal;font-size:16.41182518px;font-family:sans-serif;-inkscape-font-specification:'sans-serif Bold';fill:#ffffff;stroke-width:0.61544347"
       d="M 28.970425,6.6835363 H 25.244108 V 16.307854 H 22.166891 V 6.6835363 H 18.440573 V 4.3756234 h 10.529852 z" />
    <path
       inkscape:connector-curvature="0"
       id="path1007"
       style="font-style:normal;font-variant:normal;font-weight:bold;font-stretch:normal;font-size:16.41182518px;font-family:sans-serif;-inkscape-font-specification:'sans-serif Bold';fill:#ffffff;stroke-width:0.61544347"
       d="m 41.848258,16.307854 h -3.181394 l -0.825399,-2.41209 h -4.4235 l -0.825399,2.41209 H 29.491308 L 33.89878,4.3756234 h 3.542006 z M 37.096201,11.708055 35.629715,7.4287998 34.163229,11.708055 Z" />
    <path
       inkscape:connector-curvature="0"
       id="path1009"
       style="font-style:normal;font-variant:normal;font-weight:bold;font-stretch:normal;font-size:16.41182518px;font-family:sans-serif;-inkscape-font-specification:'sans-serif Bold';fill:#ffffff;stroke-width:0.61544347"
       d="m 50.270537,8.0298188 q 0,-0.4487608 -0.184312,-0.7693043 Q 49.901912,6.9399711 49.453151,6.7556586 49.140622,6.6274412 48.723915,6.6034004 48.307209,6.5713461 47.754271,6.5713461 h -1.113888 v 3.2134482 h 0.945603 q 0.73725,0 1.234092,-0.072122 0.496842,-0.072122 0.833413,-0.328557 0.320544,-0.2484212 0.464788,-0.5449239 0.152258,-0.3045163 0.152258,-0.8093726 z m 4.800139,8.2780352 h -3.758373 l -3.253516,-4.375419 h -1.418404 v 4.375419 H 43.579192 V 4.3756234 h 5.16075 q 1.057794,0 1.819084,0.1202038 0.761291,0.1202038 1.426419,0.5208831 0.673141,0.4006793 1.065807,1.0417662 0.400679,0.6330734 0.400679,1.5947038 0,1.3222417 -0.617046,2.1556547 -0.609033,0.833413 -1.746962,1.386351 z" />
    <path
       inkscape:connector-curvature="0"
       id="path1011"
       style="font-style:normal;font-variant:normal;font-weight:bold;font-stretch:normal;font-size:16.41182518px;font-family:sans-serif;-inkscape-font-specification:'sans-serif Bold';fill:#ffffff;stroke-width:0.61544347"
       d="m 62.883924,16.307854 h -6.987848 v -2.115587 h 1.955315 V 6.4912102 H 55.896076 V 4.3756234 h 6.987848 v 2.1155868 h -1.955315 v 7.7010568 h 1.955315 z" />
    <path
       inkscape:connector-curvature="0"
       id="path1013"
       style="font-style:normal;font-variant:normal;font-weight:bold;font-stretch:normal;font-size:16.41182518px;font-family:sans-serif;-inkscape-font-specification:'sans-serif Bold';fill:#ffffff;stroke-width:0.61544347"
       d="m 80.089095,12.269006 q 0,0.929576 -0.352598,1.730935 -0.344584,0.793345 -1.009712,1.362309 -0.73725,0.609033 -1.69888,0.905536 -0.953617,0.288489 -2.179696,0.288489 -1.434432,-0.008 -2.428117,-0.232394 -0.985671,-0.216367 -1.61073,-0.488829 v -2.63647 h 0.33657 q 0.729237,0.432734 1.570663,0.721223 0.841427,0.288489 1.67484,0.288489 0.504856,0 1.089848,-0.11219 0.593005,-0.120204 0.937589,-0.42472 0.272462,-0.248421 0.408693,-0.504856 0.144245,-0.256435 0.144245,-0.793345 0,-0.416707 -0.192326,-0.713209 -0.184313,-0.304517 -0.480816,-0.488829 -0.432733,-0.264449 -1.041766,-0.344584 -0.609032,-0.08815 -1.105875,-0.08815 -0.721223,0 -1.38635,0.128217 -0.657114,0.120204 -1.153957,0.240408 H 71.258122 V 4.3756234 h 8.486389 v 2.2838721 h -5.593484 v 1.9473016 q 0.248421,-0.016027 0.62506,-0.024041 0.384652,-0.016027 0.673141,-0.016027 0.985671,0 1.754976,0.1923261 0.777318,0.1843125 1.338269,0.5208831 0.729236,0.4407473 1.137929,1.1699837 0.408693,0.721223 0.408693,1.819084 z" />
    <path
       inkscape:connector-curvature="0"
       id="path1015"
       style="font-style:normal;font-variant:normal;font-weight:bold;font-stretch:normal;font-size:16.41182518px;font-family:sans-serif;-inkscape-font-specification:'sans-serif Bold';fill:#ffffff;stroke-width:0.61544347"
       d="m 92.013308,16.307854 h -9.367883 v -1.971343 q 1.073821,-0.777317 2.147641,-1.650798 1.081834,-0.873481 1.730935,-1.506555 0.969644,-0.937589 1.378337,-1.6347713 0.408693,-0.697182 0.408693,-1.3783369 0,-0.8173858 -0.528897,-1.2581331 -0.520883,-0.4487608 -1.506554,-0.4487608 -0.73725,0 -1.554636,0.3045163 -0.809372,0.3045162 -1.506554,0.7773179 H 82.957955 V 4.8884929 q 0.568964,-0.2484212 1.674839,-0.4968423 1.113889,-0.2484212 2.227777,-0.2484212 2.243805,0 3.421802,0.9456032 1.177997,0.9375896 1.177997,2.6605107 0,1.1299157 -0.568965,2.1476412 -0.560951,1.0177255 -1.722921,2.0995595 -0.729236,0.673141 -1.466486,1.242106 -0.73725,0.560951 -1.04978,0.785332 h 5.36109 z" />
    <path
       inkscape:connector-curvature="0"
       id="path1017"
       style="font-style:normal;font-variant:normal;font-weight:bold;font-stretch:normal;font-size:16.41182518px;font-family:sans-serif;-inkscape-font-specification:'sans-serif Bold';fill:#ffffff;stroke-width:0.61544347"
       d="m 103.60096,10.337732 q 0,1.506554 -0.27246,2.700578 -0.27247,1.186011 -0.84944,1.947302 -0.59301,0.777318 -1.52259,1.177997 -0.92957,0.392666 -2.291882,0.392666 -1.338269,0 -2.283872,-0.400679 -0.945603,-0.40068 -1.530595,-1.186011 -0.593006,-0.785332 -0.857454,-1.947302 -0.264448,-1.169983 -0.264448,-2.676538 0,-1.5546355 0.272462,-2.7005783 0.272462,-1.1459429 0.865467,-1.939288 0.593005,-0.7853314 1.538609,-1.1779972 0.945603,-0.3926657 2.259831,-0.3926657 1.370322,0 2.299902,0.4086929 0.92957,0.4006793 1.52258,1.202038 0.58499,0.7853315 0.84944,1.9392879 0.26445,1.1459429 0.26445,2.6524974 z m -3.10126,0 q 0,-2.1636686 -0.42472,-3.0772175 -0.424721,-0.9215624 -1.410392,-0.9215624 -0.985671,0 -1.410391,0.9215624 -0.42472,0.9135489 -0.42472,3.0932445 0,2.1236 0.432733,3.06119 0.432734,0.93759 1.402378,0.93759 0.969644,0 1.402382,-0.93759 0.43273,-0.93759 0.43273,-3.077217 z" />
    <path
       inkscape:connector-curvature="0"
       id="path1019"
       style="font-style:normal;font-variant:normal;font-weight:bold;font-stretch:normal;font-size:16.41182518px;font-family:sans-serif;-inkscape-font-specification:'sans-serif Bold';fill:#ffffff;stroke-width:0.61544347"
       d="m 115.26874,10.337732 q 0,1.506554 -0.27247,2.700578 -0.27246,1.186011 -0.84944,1.947302 -0.593,0.777318 -1.52258,1.177997 -0.92957,0.392666 -2.29188,0.392666 -1.33827,0 -2.28388,-0.400679 -0.9456,-0.40068 -1.53059,-1.186011 -0.59301,-0.785332 -0.85745,-1.947302 -0.26445,-1.169983 -0.26445,-2.676538 0,-1.5546355 0.27246,-2.7005783 0.27246,-1.1459429 0.86547,-1.939288 0.593,-0.7853314 1.5386,-1.1779972 0.94561,-0.3926657 2.25984,-0.3926657 1.37032,0 2.2999,0.4086929 0.92957,0.4006793 1.52258,1.202038 0.58499,0.7853315 0.84944,1.9392879 0.26445,1.1459429 0.26445,2.6524974 z m -3.10126,0 q 0,-2.1636686 -0.42472,-3.0772175 -0.42472,-0.9215624 -1.41039,-0.9215624 -0.98568,0 -1.4104,0.9215624 -0.42472,0.9135489 -0.42472,3.0932445 0,2.1236 0.43274,3.06119 0.43273,0.93759 1.40238,0.93759 0.96964,0 1.40237,-0.93759 0.43274,-0.93759 0.43274,-3.077217 z" />
  </g>
</svg>
