<?xml version="1.0" encoding="UTF-8" standalone="no"?>
<svg
   xmlns:dc="http://purl.org/dc/elements/1.1/"
   xmlns:cc="http://creativecommons.org/ns#"
   xmlns:rdf="http://www.w3.org/1999/02/22-rdf-syntax-ns#"
   xmlns:svg="http://www.w3.org/2000/svg"
   xmlns="http://www.w3.org/2000/svg"
   xmlns:sodipodi="http://sodipodi.sourceforge.net/DTD/sodipodi-0.dtd"
   xmlns:inkscape="http://www.inkscape.org/namespaces/inkscape"
   width="117px"
   height="18px"
   viewBox="0 0 117 18"
   version="1.1"
   id="svg12"
   sodipodi:docname="system.svg"
   inkscape:version="0.92.4 (5da689c313, 2019-01-14)">
  <metadata
     id="metadata16">
    <rdf:RDF>
      <cc:Work
         rdf:about="">
        <dc:format>image/svg+xml</dc:format>
        <dc:type
           rdf:resource="http://purl.org/dc/dcmitype/StillImage" />
        <dc:title>system</dc:title>
      </cc:Work>
    </rdf:RDF>
  </metadata>
  <sodipodi:namedview
     pagecolor="#ffffff"
     bordercolor="#666666"
     borderopacity="1"
     objecttolerance="10"
     gridtolerance="10"
     guidetolerance="10"
     inkscape:pageopacity="0"
     inkscape:pageshadow="2"
     inkscape:window-width="1920"
     inkscape:window-height="1018"
     id="namedview14"
     showgrid="false"
     inkscape:zoom="3.2478632"
     inkscape:cx="101.11826"
     inkscape:cy="8.9999999"
     inkscape:window-x="-8"
     inkscape:window-y="-8"
     inkscape:window-maximized="1"
     inkscape:current-layer="svg12" />
  <!-- Generator: Sketch 45 (43475) - http://www.bohemiancoding.com/sketch -->
  <title
     id="title2">system</title>
  <desc
     id="desc4">Created with Sketch.</desc>
  <defs
     id="defs6" />
  <g
     id="text1512"
     style="font-style:normal;font-variant:normal;font-weight:normal;font-stretch:normal;font-size:22.18030357px;line-height:1.25;font-family:sans-serif;-inkscape-font-specification:sans-serif;letter-spacing:0px;word-spacing:0px;fill:#ffffff;fill-opacity:1;stroke:none;stroke-width:1.0397017"
     aria-label="DAPHNE">
    <path
       inkscape:connector-curvature="0"
       id="path1520"
       style="font-style:normal;font-variant:normal;font-weight:bold;font-stretch:normal;font-family:sans-serif;-inkscape-font-specification:'sans-serif Bold';fill:#ffffff;stroke-width:1.0397017"
       d="m 26.151507,9.0294587 q 0,2.2526873 -1.028871,4.0396743 -1.028872,1.776157 -2.599255,2.729217 -1.180494,0.714795 -2.588424,0.996381 -1.407929,0.281586 -3.33571,0.281586 H 10.913379 V 0.95010979 h 5.848322 q 1.971101,0 3.400691,0.33573701 1.42959,0.3249068 2.40431,0.9313995 1.667855,1.0180413 2.620915,2.7508775 0.96389,1.722006 0.96389,4.0613349 z m -4.2996,-0.032491 q 0,-1.5920433 -0.584832,-2.7183868 Q 20.693073,5.1414074 19.436767,4.502424 18.797783,4.1883475 18.126309,4.0800452 17.465666,3.9609127 16.122718,3.9609127 H 15.072186 V 14.054684 h 1.050532 q 1.483741,0 2.176875,-0.129963 0.693135,-0.140793 1.353778,-0.49819 1.137174,-0.649814 1.667855,-1.732837 0.530681,-1.093853 0.530681,-2.6967263 z" />
    <path
       inkscape:connector-curvature="0"
       id="path1522"
       style="font-style:normal;font-variant:normal;font-weight:bold;font-stretch:normal;font-family:sans-serif;-inkscape-font-specification:'sans-serif Bold';fill:#ffffff;stroke-width:1.0397017"
       d="m 44.227155,17.076317 h -4.2996 l -1.115513,-3.259898 h -5.978285 l -1.115514,3.259898 H 27.526946 L 33.48357,0.95010979 h 4.78696 z m -6.422325,-6.21655 -1.981931,-5.783341 -1.981931,5.783341 z" />
    <path
       inkscape:connector-curvature="0"
       id="path1524"
       style="font-style:normal;font-variant:normal;font-weight:bold;font-stretch:normal;font-family:sans-serif;-inkscape-font-specification:'sans-serif Bold';fill:#ffffff;stroke-width:1.0397017"
       d="m 59.876834,6.0403162 q 0,1.0830226 -0.379058,2.1227243 -0.379058,1.0288715 -1.083023,1.7328363 -0.96389,0.9530602 -2.155215,1.4404202 -1.180495,0.48736 -2.945822,0.48736 h -2.588424 v 5.25266 H 46.566485 V 0.95010979 h 6.844703 q 1.537893,0 2.588424,0.27075571 1.061363,0.2599254 1.87363,0.7906065 0.97472,0.6389833 1.483741,1.6353642 0.519851,0.9963808 0.519851,2.39348 z m -4.2996,0.097472 q 0,-0.6823042 -0.368228,-1.1696644 Q 54.840778,4.4699334 54.353418,4.2749893 53.703605,4.0150639 53.086282,3.9934034 52.468959,3.9609127 51.440087,3.9609127 h -0.714795 v 4.830281 h 1.191325 q 1.061362,0 1.743667,-0.1299627 0.693134,-0.1299628 1.158834,-0.5198509 0.400718,-0.3465673 0.574002,-0.8230972 0.184114,-0.4873602 0.184114,-1.1804947 z" />
    <path
       inkscape:connector-curvature="0"
       id="path1526"
       style="font-style:normal;font-variant:normal;font-weight:bold;font-stretch:normal;font-family:sans-serif;-inkscape-font-specification:'sans-serif Bold';fill:#ffffff;stroke-width:1.0397017"
       d="M 77.270176,17.076317 H 73.111369 V 9.9716883 H 66.970631 V 17.076317 H 62.811824 V 0.95010979 h 4.158807 V 6.8525832 h 6.140738 V 0.95010979 h 4.158807 z" />
    <path
       inkscape:connector-curvature="0"
       id="path1528"
       style="font-style:normal;font-variant:normal;font-weight:bold;font-stretch:normal;font-family:sans-serif;-inkscape-font-specification:'sans-serif Bold';fill:#ffffff;stroke-width:1.0397017"
       d="M 96.060621,17.076317 H 92.053438 L 85.208734,6.0078255 V 17.076317 H 81.396495 V 0.95010979 h 4.971074 L 92.248382,10.188293 V 0.95010979 h 3.812239 z" />
    <path
       inkscape:connector-curvature="0"
       id="path1530"
       style="font-style:normal;font-variant:normal;font-weight:bold;font-stretch:normal;font-family:sans-serif;-inkscape-font-specification:'sans-serif Bold';fill:#ffffff;stroke-width:1.0397017"
       d="M 111.86192,17.076317 H 100.19776 V 0.95010979 h 11.66416 V 4.069215 h -7.52701 v 2.7833682 h 6.9855 v 3.1191051 h -6.9855 v 3.9855237 h 7.52701 z" />
  </g>
</svg>
