<?xml version="1.0" encoding="UTF-8" standalone="no"?>
<svg
   xmlns:dc="http://purl.org/dc/elements/1.1/"
   xmlns:cc="http://creativecommons.org/ns#"
   xmlns:rdf="http://www.w3.org/1999/02/22-rdf-syntax-ns#"
   xmlns:svg="http://www.w3.org/2000/svg"
   xmlns="http://www.w3.org/2000/svg"
   xmlns:sodipodi="http://sodipodi.sourceforge.net/DTD/sodipodi-0.dtd"
   xmlns:inkscape="http://www.inkscape.org/namespaces/inkscape"
   width="116px"
   height="18px"
   viewBox="0 0 116 18"
   version="1.1"
   id="svg12"
   sodipodi:docname="system.svg"
   inkscape:version="0.92.4 (5da689c313, 2019-01-14)">
  <metadata
     id="metadata16">
    <rdf:RDF>
      <cc:Work
         rdf:about="">
        <dc:format>image/svg+xml</dc:format>
        <dc:type
           rdf:resource="http://purl.org/dc/dcmitype/StillImage" />
      </cc:Work>
    </rdf:RDF>
  </metadata>
  <sodipodi:namedview
     pagecolor="#ffffff"
     bordercolor="#666666"
     borderopacity="1"
     objecttolerance="10"
     gridtolerance="10"
     guidetolerance="10"
     inkscape:pageopacity="0"
     inkscape:pageshadow="2"
     inkscape:window-width="1920"
     inkscape:window-height="1018"
     id="namedview14"
     showgrid="false"
     inkscape:zoom="3.2758621"
     inkscape:cx="58"
     inkscape:cy="9"
     inkscape:window-x="-8"
     inkscape:window-y="-8"
     inkscape:window-maximized="1"
     inkscape:current-layer="svg12" />
  <!-- Generator: Sketch 45 (43475) - http://www.bohemiancoding.com/sketch -->
  <title
     id="title2">system</title>
  <desc
     id="desc4">Created with Sketch.</desc>
  <defs
     id="defs6" />
  <path
     style="fill:#ffffff;fill-rule:evenodd;stroke:none;stroke-width:1"
     inkscape:connector-curvature="0"
     id="TURBOGRAFX-16-Copy"
     d="M 15.546,5.936 H 12.774 V 14 H 10.982 V 5.936 H 8.21 V 4.2 h 7.336 z m 5.236,8.26 c -1.344007,0 -2.356663,-0.389663 -3.038,-1.169 C 17.062663,12.247663 16.722,11.172007 16.722,9.8 V 4.2 h 1.792 v 4.998 c 0,1.036005 0.160998,1.840997 0.483,2.415 0.322002,0.574003 0.916996,0.861 1.785,0.861 0.868004,0 1.462998,-0.286997 1.785,-0.861 0.322002,-0.574003 0.483,-1.378995 0.483,-2.415 V 4.2 h 1.792 v 5.6 c 0,1.372007 -0.340663,2.447663 -1.022,3.227 -0.681337,0.779337 -1.693993,1.169 -3.038,1.169 z M 34.39,14 h -1.862 l -2.03,-3.64 h -1.82 V 14 H 26.886 V 4.2 h 3.584 c 2.249345,0 3.374,0.9426572 3.374,2.828 0,0.7000035 -0.144665,1.2693311 -0.434,1.708 -0.289335,0.4386689 -0.699997,0.8213317 -1.232,1.148 z M 30.064,5.698 H 28.678 V 8.68 h 1.316 c 0.756004,0 1.273999,-0.1306654 1.554,-0.392 0.280001,-0.2613346 0.42,-0.6393309 0.42,-1.134 0,-0.4946691 -0.135332,-0.8609988 -0.406,-1.099 C 31.291332,5.8169988 30.792004,5.698 30.064,5.698 Z M 39.43,14 H 35.65 V 4.2 h 2.646 c 0.494669,0 0.916998,0.018667 1.267,0.056 0.350002,0.037333 0.690665,0.1073328 1.022,0.21 0.331335,0.1026672 0.597332,0.2449991 0.798,0.427 0.200668,0.1820009 0.361666,0.4246651 0.483,0.728 0.121334,0.3033348 0.182,0.6696645 0.182,1.099 0,0.9053379 -0.275331,1.5866644 -0.826,2.044 0.57867,0.2240011 1.007999,0.5203315 1.288,0.889 0.280001,0.368669 0.42,0.85633 0.42,1.463 0,0.541336 -0.102666,1.007998 -0.308,1.4 -0.205334,0.392002 -0.482998,0.690666 -0.833,0.896 -0.350002,0.205334 -0.718665,0.354666 -1.106,0.448 C 40.295665,13.953334 39.878002,14 39.43,14 Z M 39.024,5.726 h -1.582 v 2.408 h 1.75 c 0.317335,0 0.594999,-0.086333 0.833,-0.259 0.238001,-0.1726675 0.357,-0.4689979 0.357,-0.889 0,-0.4760024 -0.114332,-0.8049991 -0.343,-0.987 C 39.810332,5.8169991 39.472002,5.726 39.024,5.726 Z m 0.28,3.822 h -1.862 v 2.926 h 1.764 c 0.60667,0 1.070998,-0.111999 1.393,-0.336 0.322002,-0.224001 0.483,-0.597331 0.483,-1.12 0,-0.980005 -0.592661,-1.47 -1.778,-1.47 z m 9.352,4.648 c -1.418674,0 -2.578329,-0.468995 -3.479,-1.407 -0.900671,-0.938005 -1.351,-2.167659 -1.351,-3.689 0,-1.5213409 0.450329,-2.7509953 1.351,-3.689 0.900671,-0.9380047 2.060326,-1.407 3.479,-1.407 1.418674,0 2.578329,0.4689953 3.479,1.407 0.900671,0.9380047 1.351,2.1676591 1.351,3.689 0,1.521341 -0.450329,2.750995 -1.351,3.689 -0.900671,0.938005 -2.060326,1.407 -3.479,1.407 z m 0,-8.47 c -0.924005,0 -1.633331,0.3079969 -2.128,0.924 -0.494669,0.6160031 -0.742,1.4326616 -0.742,2.45 0,1.017338 0.247331,1.833997 0.742,2.45 0.494669,0.616003 1.203995,0.924 2.128,0.924 0.924005,0 1.633331,-0.307997 2.128,-0.924 0.494669,-0.616003 0.742,-1.432662 0.742,-2.45 0,-1.0173384 -0.247331,-1.8339969 -0.742,-2.45 C 50.289331,6.0339969 49.580005,5.726 48.656,5.726 Z m 10.598,8.47 c -1.390674,0 -2.536329,-0.468995 -3.437,-1.407 -0.900671,-0.938005 -1.351,-2.172326 -1.351,-3.703 0,-1.5213409 0.452662,-2.748662 1.358,-3.682 0.905338,-0.933338 2.081326,-1.4 3.528,-1.4 0.494669,0 1.021997,0.053666 1.582,0.161 0.560003,0.1073339 1.012665,0.2449992 1.358,0.413 l -0.196,1.708 c -0.914671,-0.3733352 -1.815329,-0.56 -2.702,-0.56 -0.980005,0 -1.719664,0.3056636 -2.219,0.917 -0.499336,0.6113364 -0.749,1.4163283 -0.749,2.415 0,1.036005 0.261331,1.86433 0.784,2.485 0.522669,0.62067 1.278662,0.931 2.268,0.931 0.401335,0 0.849331,-0.05133 1.344,-0.154 V 10.57 H 59.744 V 9.086 h 2.87 v 4.368 c -0.354668,0.205334 -0.86333,0.380333 -1.526,0.525 -0.66267,0.144667 -1.273997,0.217 -1.834,0.217 z M 71.854,14 h -1.862 l -2.03,-3.64 h -1.82 V 14 H 64.35 V 4.2 h 3.584 c 2.249345,0 3.374,0.9426572 3.374,2.828 0,0.7000035 -0.144665,1.2693311 -0.434,1.708 -0.289335,0.4386689 -0.699997,0.8213317 -1.232,1.148 z M 67.528,5.698 H 66.142 V 8.68 h 1.316 c 0.756004,0 1.273999,-0.1306654 1.554,-0.392 0.280001,-0.2613346 0.42,-0.6393309 0.42,-1.134 0,-0.4946691 -0.135332,-0.8609988 -0.406,-1.099 C 68.755332,5.8169988 68.256004,5.698 67.528,5.698 Z M 80.744,14 h -1.862 l -0.84,-2.366 H 74.78 L 73.94,14 h -1.862 l 3.486,-9.8 h 1.694 z M 77.426,9.898 76.404,7.028 75.396,9.898 Z M 87.898,5.936 h -4.242 v 2.086 h 3.276 V 9.758 H 83.656 V 14 H 81.864 V 4.2 h 6.034 z M 96.942,14 H 94.87 L 92.49,10.402 90.18,14 H 88.122 L 91.58,9.114 88.276,4.2 h 2.072 L 92.616,7.644 94.688,4.2 h 2.058 l -3.22,4.718 z m 4.9,-3.22 h -4.34 V 9.464 h 4.34 z m 4.564,3.22 h -1.792 V 6.734 c -0.392,0.2613346 -0.80266,0.429333 -1.232,0.504 l -0.154,-1.512 c 0.308,-0.065334 0.65333,-0.2543318 1.036,-0.567 0.38267,-0.3126682 0.63933,-0.6323317 0.77,-0.959 h 1.372 z m 5.222,0.196 c -0.924,0 -1.66366,-0.300997 -2.219,-0.903 -0.55534,-0.602003 -0.833,-1.546994 -0.833,-2.835 0,-0.858671 0.15633,-1.6939959 0.469,-2.506 0.31267,-0.8120041 0.69066,-1.481664 1.134,-2.009 0.44334,-0.527336 0.90066,-0.9496651 1.372,-1.267 0.47134,-0.3173349 0.87967,-0.476 1.225,-0.476 l 1.176,0.7 c -0.28933,0 -0.69533,0.1889981 -1.218,0.567 -0.52267,0.3780019 -1.015,0.8703303 -1.477,1.477 -0.462,0.6066697 -0.72567,1.1759973 -0.791,1.708 0.28934,-0.3640018 0.83066,-0.546 1.624,-0.546 0.868,0 1.57733,0.2449976 2.128,0.735 0.55067,0.4900025 0.826,1.187662 0.826,2.093 0,0.896004 -0.315,1.663663 -0.945,2.303 -0.63,0.639337 -1.45366,0.959 -2.471,0.959 z m 0.35,-4.634 c -0.49467,0 -0.896,0.135332 -1.204,0.406 -0.308,0.270668 -0.462,0.667331 -0.462,1.19 0,0.448002 0.15633,0.800332 0.469,1.057 0.31267,0.256668 0.65567,0.385 1.029,0.385 0.46667,0 0.847,-0.165665 1.141,-0.497 0.294,-0.331335 0.441,-0.730331 0.441,-1.197 0,-0.345335 -0.12133,-0.655665 -0.364,-0.931 -0.24267,-0.2753347 -0.59266,-0.413 -1.05,-0.413 z" />
</svg>
