<?xml version="1.0" encoding="UTF-8" standalone="no"?>
<svg
   xmlns:dc="http://purl.org/dc/elements/1.1/"
   xmlns:cc="http://creativecommons.org/ns#"
   xmlns:rdf="http://www.w3.org/1999/02/22-rdf-syntax-ns#"
   xmlns:svg="http://www.w3.org/2000/svg"
   xmlns="http://www.w3.org/2000/svg"
   xmlns:sodipodi="http://sodipodi.sourceforge.net/DTD/sodipodi-0.dtd"
   xmlns:inkscape="http://www.inkscape.org/namespaces/inkscape"
   width="98px"
   height="18px"
   viewBox="0 0 98 18"
   version="1.1"
   id="svg12"
   sodipodi:docname="system.svg"
   inkscape:version="0.92.4 (5da689c313, 2019-01-14)">
  <metadata
     id="metadata16">
    <rdf:RDF>
      <cc:Work
         rdf:about="">
        <dc:format>image/svg+xml</dc:format>
        <dc:type
           rdf:resource="http://purl.org/dc/dcmitype/StillImage" />
      </cc:Work>
    </rdf:RDF>
  </metadata>
  <sodipodi:namedview
     pagecolor="#ffffff"
     bordercolor="#666666"
     borderopacity="1"
     objecttolerance="10"
     gridtolerance="10"
     guidetolerance="10"
     inkscape:pageopacity="0"
     inkscape:pageshadow="2"
     inkscape:window-width="1920"
     inkscape:window-height="1018"
     id="namedview14"
     showgrid="false"
     inkscape:zoom="3.877551"
     inkscape:cx="49"
     inkscape:cy="9"
     inkscape:window-x="-8"
     inkscape:window-y="-8"
     inkscape:window-maximized="1"
     inkscape:current-layer="svg12" />
  <!-- Generator: Sketch 45 (43475) - http://www.bohemiancoding.com/sketch -->
  <title
     id="title2">system</title>
  <desc
     id="desc4">Created with Sketch.</desc>
  <defs
     id="defs6" />
  <path
     style="fill:#ffffff;fill-rule:evenodd;stroke:none;stroke-width:1"
     inkscape:connector-curvature="0"
     id="NINTENDO-64-Copy"
     d="M 16.82,14 H 15.35 L 10.87,7.28 V 14 H 9.078 V 4.2 h 1.764 l 4.186,6.328 V 4.2 h 1.792 z m 3.948,0 H 18.976 V 4.2 h 1.792 z m 9.898,0 h -1.47 L 24.716,7.28 V 14 H 22.924 V 4.2 h 1.764 l 4.186,6.328 V 4.2 h 1.792 z M 39.29,5.936 H 36.518 V 14 H 34.726 V 5.936 H 31.954 V 4.2 H 39.29 Z M 46.99,14 H 40.578 V 4.2 h 6.272 v 1.736 h -4.438 v 2.086 h 3.444 v 1.736 h -3.444 v 2.506 h 4.578 z m 9.282,0 h -1.47 L 50.322,7.28 V 14 H 48.53 V 4.2 h 1.764 l 4.186,6.328 V 4.2 h 1.792 z m 5.824,0 H 58.428 V 4.2 h 3.668 c 1.428007,0 2.589996,0.4386623 3.486,1.316 0.896004,0.8773377 1.344,2.0719924 1.344,3.584 0,1.512008 -0.447996,2.706662 -1.344,3.584 C 64.685996,13.561338 63.524007,14 62.096,14 Z m 0,-8.078 H 60.22 v 6.356 h 1.876 c 0.933338,0 1.644998,-0.279997 2.135,-0.84 0.490002,-0.560003 0.735,-1.339328 0.735,-2.338 0,-0.9986717 -0.244998,-1.7779972 -0.735,-2.338 -0.490002,-0.5600028 -1.201662,-0.84 -2.135,-0.84 z m 10.654,8.274 c -1.418674,0 -2.578329,-0.468995 -3.479,-1.407 C 68.370329,11.850995 67.92,10.621341 67.92,9.1 c 0,-1.5213409 0.450329,-2.7509953 1.351,-3.689 0.900671,-0.9380047 2.060326,-1.407 3.479,-1.407 1.418674,0 2.578329,0.4689953 3.479,1.407 0.900671,0.9380047 1.351,2.1676591 1.351,3.689 0,1.521341 -0.450329,2.750995 -1.351,3.689 -0.900671,0.938005 -2.060326,1.407 -3.479,1.407 z m 0,-8.47 c -0.924005,0 -1.633331,0.3079969 -2.128,0.924 -0.494669,0.6160031 -0.742,1.4326616 -0.742,2.45 0,1.017338 0.247331,1.833997 0.742,2.45 0.494669,0.616003 1.203995,0.924 2.128,0.924 0.924005,0 1.633331,-0.307997 2.128,-0.924 C 75.372669,10.933997 75.62,10.117338 75.62,9.1 75.62,8.0826616 75.372669,7.2660031 74.878,6.65 74.383331,6.0339969 73.674005,5.726 72.75,5.726 Z m 12.334,8.47 c -0.924005,0 -1.663664,-0.300997 -2.219,-0.903 -0.555336,-0.602003 -0.833,-1.546994 -0.833,-2.835 0,-0.858671 0.156332,-1.6939959 0.469,-2.506 C 82.813668,7.1399959 83.191664,6.470336 83.635,5.943 84.078335,5.415664 84.535664,4.9933349 85.007,4.676 85.478336,4.3586651 85.886665,4.2 86.232,4.2 l 1.176,0.7 c -0.289335,0 -0.695331,0.1889981 -1.218,0.567 -0.522669,0.3780019 -1.014998,0.8703303 -1.477,1.477 -0.462002,0.6066697 -0.725666,1.1759973 -0.791,1.708 0.289335,-0.3640018 0.830663,-0.546 1.624,-0.546 0.868004,0 1.577331,0.2449976 2.128,0.735 0.550669,0.4900025 0.826,1.187662 0.826,2.093 0,0.896004 -0.314997,1.663663 -0.945,2.303 -0.630003,0.639337 -1.453662,0.959 -2.471,0.959 z m 0.35,-4.634 c -0.494669,0 -0.895999,0.135332 -1.204,0.406 -0.308002,0.270668 -0.462,0.667331 -0.462,1.19 0,0.448002 0.156332,0.800332 0.469,1.057 0.312668,0.256668 0.655665,0.385 1.029,0.385 0.466669,0 0.846999,-0.165665 1.141,-0.497 0.294002,-0.331335 0.441,-0.730331 0.441,-1.197 0,-0.345335 -0.121332,-0.655665 -0.364,-0.931 -0.242668,-0.2753347 -0.592664,-0.413 -1.05,-0.413 z m 10.99,1.778 h -1.19 V 14 H 93.442 V 11.34 H 89.228 L 93.736,4.2 h 1.498 v 5.684 h 1.19 z M 93.442,9.884 v -2.94 l -1.778,2.94 z" />
</svg>
