<?xml version="1.0" encoding="UTF-8" standalone="no"?>
<svg
   xmlns:dc="http://purl.org/dc/elements/1.1/"
   xmlns:cc="http://creativecommons.org/ns#"
   xmlns:rdf="http://www.w3.org/1999/02/22-rdf-syntax-ns#"
   xmlns:svg="http://www.w3.org/2000/svg"
   xmlns="http://www.w3.org/2000/svg"
   xmlns:sodipodi="http://sodipodi.sourceforge.net/DTD/sodipodi-0.dtd"
   xmlns:inkscape="http://www.inkscape.org/namespaces/inkscape"
   width="83px"
   height="18px"
   viewBox="0 0 83 18"
   version="1.1"
   id="svg12"
   sodipodi:docname="SUÇA.svg"
   inkscape:version="0.92.4 (5da689c313, 2019-01-14)">
  <metadata
     id="metadata16">
    <rdf:RDF>
      <cc:Work
         rdf:about="">
        <dc:format>image/svg+xml</dc:format>
        <dc:type
           rdf:resource="http://purl.org/dc/dcmitype/StillImage" />
        <dc:title>system</dc:title>
      </cc:Work>
    </rdf:RDF>
  </metadata>
  <sodipodi:namedview
     pagecolor="#ffffff"
     bordercolor="#666666"
     borderopacity="1"
     objecttolerance="10"
     gridtolerance="10"
     guidetolerance="10"
     inkscape:pageopacity="0"
     inkscape:pageshadow="2"
     inkscape:window-width="1920"
     inkscape:window-height="1018"
     id="namedview14"
     showgrid="false"
     inkscape:zoom="4.5783133"
     inkscape:cx="6.6421901"
     inkscape:cy="9.0000001"
     inkscape:window-x="-8"
     inkscape:window-y="-8"
     inkscape:window-maximized="1"
     inkscape:current-layer="svg12" />
  <!-- Generator: Sketch 45 (43475) - http://www.bohemiancoding.com/sketch -->
  <title
     id="title2">system</title>
  <desc
     id="desc4">Created with Sketch.</desc>
  <defs
     id="defs6" />
  <g
     id="g1196">
    <g
       aria-label="ATARI 2600"
       style="font-style:normal;font-variant:normal;font-weight:bold;font-stretch:normal;font-size:10.57631588px;line-height:1.25;font-family:sans-serif;-inkscape-font-specification:'sans-serif Bold';letter-spacing:0px;word-spacing:0px;fill:#ffffff;fill-opacity:1;stroke:none;stroke-width:0.39661187"
       id="text1192">
      <path
         d="m 15.374546,13.438291 h -2.050195 l -0.531914,-1.55443 H 9.9417895 l -0.5319143,1.55443 H 7.4113233 L 10.251643,5.7487719 h 2.282583 z M 12.312165,10.47403 11.367113,7.7163385 10.422062,10.47403 Z"
         style="fill:#ffffff;stroke-width:0.39661187"
         id="path1198"
         inkscape:connector-curvature="0" />
      <path
         d="m 22.506328,7.2360663 h -2.40136 v 6.2022247 h -1.98306 V 7.2360663 h -2.40136 V 5.7487719 h 6.78578 z"
         style="fill:#ffffff;stroke-width:0.39661187"
         id="path1200"
         inkscape:connector-curvature="0" />
      <path
         d="m 30.805225,13.438291 h -2.050194 l -0.531915,-1.55443 h -2.850647 l -0.531914,1.55443 h -1.998552 l 2.840319,-7.6895191 h 2.282584 z M 27.742844,10.47403 26.797793,7.7163385 25.852741,10.47403 Z"
         style="fill:#ffffff;stroke-width:0.39661187"
         id="path1202"
         inkscape:connector-curvature="0" />
      <path
         d="m 36.232815,8.1036547 q 0,-0.2891961 -0.118777,-0.4957648 -0.118777,-0.2065687 -0.407973,-0.3253457 -0.201404,-0.082627 -0.469943,-0.09812 -0.26854,-0.020657 -0.624871,-0.020657 h -0.717826 v 2.0708509 h 0.609378 q 0.475108,0 0.795289,-0.046478 0.320182,-0.046478 0.537079,-0.2117329 0.206568,-0.1600907 0.299524,-0.3511667 0.09812,-0.1962402 0.09812,-0.5215858 z m 3.093366,5.3346363 h -2.422017 l -2.096672,-2.819663 h -0.914067 v 2.819663 H 31.920694 V 5.7487719 h 3.325756 q 0.681677,0 1.172277,0.077463 0.490601,0.077463 0.919231,0.3356741 0.433794,0.2582108 0.686841,0.6713482 0.25821,0.4079731 0.25821,1.0276791 0,0.8520958 -0.397644,1.3891743 -0.392481,0.5370786 -1.1258,0.8934094 z"
         style="fill:#ffffff;stroke-width:0.39661187"
         id="path1204"
         inkscape:connector-curvature="0" />
      <path
         d="m 44.361294,13.438291 h -4.503197 v -1.363354 h 1.260069 V 7.1121251 H 39.858097 V 5.7487719 h 4.503197 v 1.3633532 h -1.260069 v 4.9628119 h 1.260069 z"
         style="fill:#ffffff;stroke-width:0.39661187"
         id="path1206"
         inkscape:connector-curvature="0" />
      <path
         d="m 55.61412,13.438291 h -6.036969 v -1.270398 q 0.692005,-0.500929 1.38401,-1.063828 0.697169,-0.5629 1.115471,-0.970873 0.62487,-0.6042135 0.888245,-1.0535003 0.263375,-0.4492869 0.263375,-0.8882453 0,-0.5267501 -0.340838,-0.810782 -0.335674,-0.2891962 -0.970873,-0.2891962 -0.475108,0 -1.001858,0.1962403 -0.521586,0.1962402 -0.970873,0.500929 H 49.778555 V 6.0792817 q 0.36666,-0.1600907 1.079322,-0.3201814 0.717826,-0.1600907 1.435652,-0.1600907 1.445981,0 2.205121,0.6093776 0.759139,0.6042133 0.759139,1.7145199 0,0.7281546 -0.366659,1.3840101 -0.361495,0.6558555 -1.110307,1.3530248 -0.469943,0.433794 -0.945051,0.800454 -0.475108,0.361495 -0.676513,0.506093 h 3.454861 z"
         style="fill:#ffffff;stroke-width:0.39661187"
         id="path1208"
         inkscape:connector-curvature="0" />
      <path
         d="m 63.122892,10.820033 q 0,0.593885 -0.216897,1.115471 -0.216897,0.521585 -0.609378,0.877916 -0.418301,0.382152 -0.970872,0.583557 -0.547407,0.201404 -1.28589,0.201404 -0.692005,0 -1.265233,-0.185911 -0.568064,-0.191077 -0.976037,-0.578393 -0.469944,-0.444122 -0.717827,-1.146456 -0.247882,-0.702333 -0.247882,-1.67837 0,-1.0121868 0.23239,-1.7971477 0.23239,-0.784961 0.75914,-1.3891743 0.506093,-0.5783923 1.311711,-0.8985738 0.810782,-0.3201814 1.926253,-0.3201814 0.376987,0 0.826274,0.051642 0.449287,0.051642 0.583557,0.077463 v 1.5131155 h -0.19624 Q 62.136527,7.1792593 61.800853,7.096632 61.470343,7.00884 61.046877,7.00884 q -0.99153,0 -1.544101,0.4854363 -0.552571,0.4854364 -0.666184,1.3530248 0.397645,-0.237554 0.836603,-0.382152 0.444123,-0.1497623 0.95538,-0.1497623 0.449287,0 0.831439,0.1032843 0.387317,0.1032844 0.717826,0.3305099 0.42863,0.2995246 0.686841,0.8056178 0.258211,0.5060932 0.258211,1.2652342 z m -2.349719,1.161948 q 0.160091,-0.175583 0.253047,-0.413137 0.09812,-0.242718 0.09812,-0.655855 0,-0.376988 -0.108448,-0.614542 -0.108449,-0.242718 -0.299525,-0.3873164 -0.185912,-0.1445981 -0.438958,-0.1962403 -0.253047,-0.056806 -0.521586,-0.056806 -0.227226,0 -0.475108,0.051642 -0.247883,0.051642 -0.454451,0.1291054 0,0.051642 -0.0052,0.1704193 -0.0052,0.118777 -0.0052,0.299524 0,0.635199 0.123942,1.048336 0.129105,0.407973 0.340838,0.62487 0.144598,0.160091 0.340838,0.237554 0.19624,0.0723 0.423466,0.0723 0.170419,0 0.376988,-0.07746 0.206568,-0.07746 0.351166,-0.23239 z"
         style="fill:#ffffff;stroke-width:0.39661187"
         id="path1210"
         inkscape:connector-curvature="0" />
      <path
         d="m 70.600679,9.5909491 q 0,0.9708729 -0.175584,1.7403409 -0.175583,0.764304 -0.547407,1.254905 -0.382152,0.500929 -0.981201,0.75914 -0.599049,0.253046 -1.476966,0.253046 -0.862424,0 -1.471802,-0.258211 -0.609377,-0.25821 -0.986365,-0.764304 -0.382152,-0.506093 -0.552571,-1.254904 -0.170419,-0.753976 -0.170419,-1.7248487 0,-1.001858 0.175583,-1.740341 0.175583,-0.738483 0.557735,-1.2497404 0.382152,-0.5060933 0.99153,-0.7591399 0.609377,-0.2530466 1.456309,-0.2530466 0.883081,0 1.48213,0.263375 0.599049,0.2582109 0.981201,0.7746325 0.376988,0.5060933 0.547407,1.2497405 0.17042,0.738483 0.17042,1.7093557 z m -1.998552,0 q 0,-1.3943385 -0.273704,-1.9830592 Q 68.05472,7.014005 67.419521,7.014005 q -0.635199,0 -0.908902,0.5938849 -0.273704,0.5887207 -0.273704,1.9933877 0,1.3685174 0.278868,1.9727304 0.278868,0.604214 0.903738,0.604214 0.62487,0 0.903738,-0.604214 0.278868,-0.604213 0.278868,-1.9830589 z"
         style="fill:#ffffff;stroke-width:0.39661187"
         id="path1212"
         inkscape:connector-curvature="0" />
      <path
         d="m 78.119779,9.5909491 q 0,0.9708729 -0.175584,1.7403409 -0.175583,0.764304 -0.547407,1.254905 -0.382152,0.500929 -0.981201,0.75914 -0.599049,0.253046 -1.476966,0.253046 -0.862424,0 -1.471802,-0.258211 -0.609377,-0.25821 -0.986365,-0.764304 -0.382152,-0.506093 -0.552571,-1.254904 -0.170419,-0.753976 -0.170419,-1.7248487 0,-1.001858 0.175583,-1.740341 0.175583,-0.738483 0.557735,-1.2497404 0.382153,-0.5060933 0.99153,-0.7591399 0.609378,-0.2530466 1.456309,-0.2530466 0.883081,0 1.48213,0.263375 0.59905,0.2582109 0.981202,0.7746325 0.376987,0.5060933 0.547407,1.2497405 0.170419,0.738483 0.170419,1.7093557 z m -1.998552,0 q 0,-1.3943385 -0.273704,-1.9830592 Q 75.57382,7.014005 74.938621,7.014005 q -0.635198,0 -0.908902,0.5938849 -0.273703,0.5887207 -0.273703,1.9933877 0,1.3685174 0.278867,1.9727304 0.278868,0.604214 0.903738,0.604214 0.62487,0 0.903738,-0.604214 0.278868,-0.604213 0.278868,-1.9830589 z"
         style="fill:#ffffff;stroke-width:0.39661187"
         id="path1214"
         inkscape:connector-curvature="0" />
    </g>
  </g>
</svg>
