<?xml version="1.0" encoding="UTF-8" standalone="no"?>
<svg
   xmlns:dc="http://purl.org/dc/elements/1.1/"
   xmlns:cc="http://creativecommons.org/ns#"
   xmlns:rdf="http://www.w3.org/1999/02/22-rdf-syntax-ns#"
   xmlns:svg="http://www.w3.org/2000/svg"
   xmlns="http://www.w3.org/2000/svg"
   xmlns:sodipodi="http://sodipodi.sourceforge.net/DTD/sodipodi-0.dtd"
   xmlns:inkscape="http://www.inkscape.org/namespaces/inkscape"
   width="99px"
   height="18px"
   viewBox="0 0 99 18"
   version="1.1"
   id="svg12"
   sodipodi:docname="system.svg"
   inkscape:version="0.92.4 (5da689c313, 2019-01-14)">
  <metadata
     id="metadata16">
    <rdf:RDF>
      <cc:Work
         rdf:about="">
        <dc:format>image/svg+xml</dc:format>
        <dc:type
           rdf:resource="http://purl.org/dc/dcmitype/StillImage" />
      </cc:Work>
    </rdf:RDF>
  </metadata>
  <sodipodi:namedview
     pagecolor="#ffffff"
     bordercolor="#666666"
     borderopacity="1"
     objecttolerance="10"
     gridtolerance="10"
     guidetolerance="10"
     inkscape:pageopacity="0"
     inkscape:pageshadow="2"
     inkscape:window-width="1920"
     inkscape:window-height="1018"
     id="namedview14"
     showgrid="false"
     inkscape:zoom="3.8383838"
     inkscape:cx="49.5"
     inkscape:cy="9"
     inkscape:window-x="-8"
     inkscape:window-y="-8"
     inkscape:window-maximized="1"
     inkscape:current-layer="svg12" />
  <!-- Generator: Sketch 45 (43475) - http://www.bohemiancoding.com/sketch -->
  <title
     id="title2">system</title>
  <desc
     id="desc4">Created with Sketch.</desc>
  <defs
     id="defs6" />
  <path
     style="fill:#ffffff;fill-rule:evenodd;stroke:none;stroke-width:1"
     inkscape:connector-curvature="0"
     id="ZX-SPECTRUM-Copy"
     d="m 15.574,4.2 -4.508,8.064 h 3.878 V 14 H 8.112 L 12.62,5.936 H 8.742 V 4.2 Z M 24.478,14 H 22.406 L 20.026,10.402 17.716,14 H 15.658 L 19.116,9.114 15.812,4.2 h 2.072 L 20.152,7.644 22.224,4.2 h 2.058 l -3.22,4.718 z m 7.042,0.196 c -0.700004,0 -1.33933,-0.07 -1.918,-0.21 -0.57867,-0.140001 -1.021998,-0.307999 -1.33,-0.504 l 0.21,-2.044 c 0.298668,0.289335 0.716331,0.534332 1.253,0.735 0.536669,0.200668 1.145663,0.301 1.827,0.301 1.166673,0 1.75,-0.354663 1.75,-1.064 0,-0.196001 -0.04667,-0.373332 -0.14,-0.532 C 33.07867,10.719333 32.978334,10.588667 32.871,10.486 32.763666,10.383333 32.584001,10.273667 32.332,10.157 32.079999,10.040333 31.884001,9.9563336 31.744,9.905 31.603999,9.8536664 31.366002,9.7720006 31.03,9.66 30.740665,9.5666662 30.540001,9.4966669 30.428,9.45 L 29.868,9.212 C 29.606665,9.1093328 29.415334,9.0183337 29.294,8.939 29.172666,8.8596663 29.023334,8.7476674 28.846,8.603 28.668666,8.4583326 28.538,8.3113341 28.454,8.162 28.37,8.0126659 28.295334,7.833001 28.23,7.623 28.164666,7.412999 28.132,7.1866679 28.132,6.944 28.132,6.1786628 28.42133,5.4973363 29,4.9 c 0.57867,-0.5973363 1.469994,-0.896 2.674,-0.896 0.625337,0 1.229664,0.079333 1.813,0.238 0.583336,0.1586675 1.019665,0.3313324 1.309,0.518 l -0.182,1.834 c -1.073339,-0.5880029 -2.029996,-0.882 -2.87,-0.882 -0.476002,0 -0.893665,0.079333 -1.253,0.238 -0.359335,0.1586675 -0.539,0.4246648 -0.539,0.798 0,0.3546684 0.163332,0.6276657 0.49,0.819 0.326668,0.1913343 0.82133,0.3896656 1.484,0.595 0.345335,0.1026672 0.608999,0.1866663 0.791,0.252 0.182001,0.065334 0.431665,0.1633327 0.749,0.294 0.317335,0.1306673 0.564666,0.2683326 0.742,0.413 0.177334,0.1446674 0.361666,0.321999 0.553,0.532 0.191334,0.210001 0.331333,0.457332 0.42,0.742 0.08867,0.284668 0.133,0.599665 0.133,0.945 0,0.261335 -0.02333,0.506332 -0.07,0.735 -0.04667,0.228668 -0.151666,0.478332 -0.315,0.749 -0.163334,0.270668 -0.377999,0.501666 -0.644,0.693 -0.266001,0.191334 -0.634664,0.352333 -1.106,0.483 -0.471336,0.130667 -1.02433,0.196 -1.659,0.196 z M 40.34,10.78 H 38.59 V 14 H 36.798 V 4.2 h 2.772 c 0.737337,0 1.341664,0.037333 1.813,0.112 0.471336,0.074667 0.900665,0.2193323 1.288,0.434 0.387335,0.2146677 0.667332,0.5296646 0.84,0.945 0.172667,0.4153354 0.259,0.95433 0.259,1.617 0,0.66267 -0.109666,1.2343309 -0.329,1.715 -0.219334,0.4806691 -0.510998,0.8423321 -0.875,1.085 -0.364002,0.242668 -0.727998,0.415333 -1.092,0.518 -0.364002,0.102667 -0.741998,0.154 -1.134,0.154 z M 40.06,5.698 H 38.59 V 9.1 h 1.512 c 0.66267,0 1.136332,-0.1329987 1.421,-0.399 C 41.807668,8.4349987 41.95,7.9753366 41.95,7.322 41.95,6.7433304 41.817001,6.3280013 41.551,6.076 41.284999,5.8239987 40.788004,5.698 40.06,5.698 Z M 51.554,14 H 45.142 V 4.2 h 6.272 v 1.736 h -4.438 v 2.086 h 3.444 v 1.736 h -3.444 v 2.506 h 4.578 z m 5.656,0.196 c -1.418674,0 -2.578329,-0.468995 -3.479,-1.407 C 52.830329,11.850995 52.38,10.621341 52.38,9.1 c 0,-1.5213409 0.450329,-2.7509953 1.351,-3.689 0.900671,-0.9380047 2.060326,-1.407 3.479,-1.407 1.073339,0 2.001996,0.1913314 2.786,0.574 L 59.8,6.286 c -0.942671,-0.3733352 -1.805996,-0.56 -2.59,-0.56 -0.924005,0 -1.633331,0.3079969 -2.128,0.924 -0.494669,0.6160031 -0.742,1.4326616 -0.742,2.45 0,1.017338 0.247331,1.833997 0.742,2.45 0.494669,0.616003 1.203995,0.924 2.128,0.924 0.784004,0 1.647329,-0.186665 2.59,-0.56 l 0.196,1.708 c -0.784004,0.382669 -1.712661,0.574 -2.786,0.574 z M 67.962,5.936 H 65.19 V 14 H 63.398 V 5.936 H 60.626 V 4.2 h 7.336 z M 76.754,14 h -1.862 l -2.03,-3.64 h -1.82 V 14 H 69.25 V 4.2 h 3.584 c 2.249345,0 3.374,0.9426572 3.374,2.828 0,0.7000035 -0.144665,1.2693311 -0.434,1.708 -0.289335,0.4386689 -0.699997,0.8213317 -1.232,1.148 z M 72.428,5.698 H 71.042 V 8.68 h 1.316 c 0.756004,0 1.273999,-0.1306654 1.554,-0.392 0.280001,-0.2613346 0.42,-0.6393309 0.42,-1.134 0,-0.4946691 -0.135332,-0.8609988 -0.406,-1.099 C 73.655332,5.8169988 73.156004,5.698 72.428,5.698 Z m 9.534,8.498 c -1.344007,0 -2.356663,-0.389663 -3.038,-1.169 C 78.242663,12.247663 77.902,11.172007 77.902,9.8 V 4.2 h 1.792 v 4.998 c 0,1.036005 0.160998,1.840997 0.483,2.415 0.322002,0.574003 0.916996,0.861 1.785,0.861 0.868004,0 1.462998,-0.286997 1.785,-0.861 0.322002,-0.574003 0.483,-1.378995 0.483,-2.415 V 4.2 h 1.792 v 5.6 c 0,1.372007 -0.340663,2.447663 -1.022,3.227 -0.681337,0.779337 -1.693993,1.169 -3.038,1.169 z M 97.908,14 H 96.046 L 95.206,7.434 92.7,11.942 90.18,7.448 89.34,14 h -1.862 l 1.358,-9.8 h 1.47 L 92.7,8.666 95.08,4.2 h 1.47 z" />
</svg>
