<?xml version="1.0" encoding="UTF-8" standalone="no"?>
<svg
   xmlns:dc="http://purl.org/dc/elements/1.1/"
   xmlns:cc="http://creativecommons.org/ns#"
   xmlns:rdf="http://www.w3.org/1999/02/22-rdf-syntax-ns#"
   xmlns:svg="http://www.w3.org/2000/svg"
   xmlns="http://www.w3.org/2000/svg"
   xmlns:sodipodi="http://sodipodi.sourceforge.net/DTD/sodipodi-0.dtd"
   xmlns:inkscape="http://www.inkscape.org/namespaces/inkscape"
   width="117px"
   height="18px"
   viewBox="0 0 117 18"
   version="1.1"
   id="svg12"
   sodipodi:docname="system.svg"
   inkscape:version="0.92.4 (5da689c313, 2019-01-14)">
  <metadata
     id="metadata16">
    <rdf:RDF>
      <cc:Work
         rdf:about="">
        <dc:format>image/svg+xml</dc:format>
        <dc:type
           rdf:resource="http://purl.org/dc/dcmitype/StillImage" />
        <dc:title>system</dc:title>
      </cc:Work>
    </rdf:RDF>
  </metadata>
  <sodipodi:namedview
     pagecolor="#ffffff"
     bordercolor="#666666"
     borderopacity="1"
     objecttolerance="10"
     gridtolerance="10"
     guidetolerance="10"
     inkscape:pageopacity="0"
     inkscape:pageshadow="2"
     inkscape:window-width="1920"
     inkscape:window-height="1018"
     id="namedview14"
     showgrid="false"
     inkscape:zoom="3.2478632"
     inkscape:cx="5.1944251"
     inkscape:cy="8.9999999"
     inkscape:window-x="-8"
     inkscape:window-y="-8"
     inkscape:window-maximized="1"
     inkscape:current-layer="svg12" />
  <!-- Generator: Sketch 45 (43475) - http://www.bohemiancoding.com/sketch -->
  <title
     id="title2">system</title>
  <desc
     id="desc4">Created with Sketch.</desc>
  <defs
     id="defs6" />
  <g
     id="text2000"
     style="font-style:normal;font-variant:normal;font-weight:normal;font-stretch:normal;font-size:14.00587654px;line-height:1.25;font-family:sans-serif;-inkscape-font-specification:sans-serif;letter-spacing:0px;word-spacing:0px;fill:#ffffff;fill-opacity:1;stroke:none;stroke-width:0.65652543"
     aria-label="SEGA-SATURN">
    <path
       inkscape:connector-curvature="0"
       id="path2008"
       style="font-style:normal;font-variant:normal;font-weight:bold;font-stretch:normal;font-family:sans-serif;-inkscape-font-specification:'sans-serif Bold';fill:#ffffff;stroke-width:0.65652543"
       d="m 13.84385,10.599828 q 0,1.504537 -1.278857,2.448293 -1.272018,0.936916 -3.4604359,0.936916 -1.2651793,0 -2.2089346,-0.218842 -0.9369166,-0.22568 -1.7575734,-0.567621 V 10.75712 H 5.425279 q 0.813818,0.649687 1.8191226,0.998466 1.0121434,0.348779 1.9422212,0.348779 0.2393582,0 0.6291702,-0.04103 0.389812,-0.04103 0.636009,-0.136776 0.300908,-0.123098 0.492394,-0.307746 0.198326,-0.184648 0.198326,-0.547105 0,-0.335101 -0.28723,-0.574459 -0.280391,-0.2462 -0.827496,-0.376138 Q 9.4533362,9.984335 8.8104884,9.8680753 8.1744794,9.7449768 7.6136972,9.560329 6.3280015,9.1431618 5.7603805,8.4319259 5.1995983,7.7138511 5.1995983,6.6538361 q 0,-1.4224719 1.2720181,-2.3183556 1.2788569,-0.9027225 3.2826273,-0.9027225 1.0053043,0 1.9832543,0.1983254 0.984788,0.1914866 1.702863,0.4855553 V 6.4623495 H 13.15997 Q 12.544477,5.9699554 11.648593,5.6416927 10.759548,5.3065911 9.8294706,5.3065911 q -0.3282627,0 -0.6565254,0.047872 -0.321424,0.041033 -0.6223315,0.1641313 -0.2667134,0.1025821 -0.4582,0.3145851 -0.1914866,0.2051643 -0.1914866,0.4718777 0,0.4034896 0.3077463,0.6223315 0.3077463,0.212003 1.1625972,0.3898119 0.5607821,0.1162598 1.0736924,0.2256807 0.51975,0.1094209 1.114726,0.3009075 1.169436,0.3829732 1.723379,1.0463374 0.560782,0.6565255 0.560782,1.7097018 z" />
    <path
       inkscape:connector-curvature="0"
       id="path2010"
       style="font-style:normal;font-variant:normal;font-weight:bold;font-stretch:normal;font-family:sans-serif;-inkscape-font-specification:'sans-serif Bold';fill:#ffffff;stroke-width:0.65652543"
       d="M 23.014691,13.800389 H 15.649295 V 3.6174058 h 7.365396 V 5.5869822 H 18.26172 v 1.7575734 h 4.41103 V 9.314132 h -4.41103 v 2.516681 h 4.752971 z" />
    <path
       inkscape:connector-curvature="0"
       id="path2012"
       style="font-style:normal;font-variant:normal;font-weight:bold;font-stretch:normal;font-family:sans-serif;-inkscape-font-specification:'sans-serif Bold';fill:#ffffff;stroke-width:0.65652543"
       d="m 34.230333,13.219091 q -0.683881,0.266713 -1.812284,0.533427 -1.128403,0.259874 -2.249968,0.259874 -2.598746,0 -4.06909,-1.408794 -1.470343,-1.415633 -1.470343,-3.9049587 0,-2.373066 1.484021,-3.822893 1.484021,-1.4566659 4.137478,-1.4566659 1.005305,0 1.914866,0.1846478 0.909561,0.177809 2.024287,0.7180747 V 6.7085465 H 33.895231 Q 33.703744,6.5649316 33.334449,6.3050569 32.965153,6.0383435 32.623213,5.8536957 32.226562,5.6348538 31.693135,5.4775613 31.166547,5.3202687 30.571571,5.3202687 q -0.697558,0 -1.265179,0.2051642 -0.567621,0.2051642 -1.018983,0.6291703 -0.430844,0.4103284 -0.68388,1.0463374 -0.246197,0.6291703 -0.246197,1.4566659 0,1.6891855 0.895883,2.5850695 0.895884,0.895883 2.646619,0.895883 0.150453,0 0.328262,-0.0068 0.184648,-0.0068 0.335102,-0.02052 V 10.114272 H 29.532072 V 8.1925676 h 4.698261 z" />
    <path
       inkscape:connector-curvature="0"
       id="path2014"
       style="font-style:normal;font-variant:normal;font-weight:bold;font-stretch:normal;font-family:sans-serif;-inkscape-font-specification:'sans-serif Bold';fill:#ffffff;stroke-width:0.65652543"
       d="M 45.986243,13.800389 H 43.271237 L 42.56684,11.741908 h -3.775022 l -0.704397,2.058481 H 35.440803 L 39.202147,3.6174058 h 3.022752 z M 41.930831,9.8749141 40.679329,6.2229912 39.427827,9.8749141 Z" />
    <path
       inkscape:connector-curvature="0"
       id="path2016"
       style="font-style:normal;font-variant:normal;font-weight:bold;font-stretch:normal;font-family:sans-serif;-inkscape-font-specification:'sans-serif Bold';fill:#ffffff;stroke-width:0.65652543"
       d="m 52.134329,10.257887 h -5.21801 V 8.2883109 h 5.21801 z" />
    <path
       inkscape:connector-curvature="0"
       id="path2018"
       style="font-style:normal;font-variant:normal;font-weight:bold;font-stretch:normal;font-family:sans-serif;-inkscape-font-specification:'sans-serif Bold';fill:#ffffff;stroke-width:0.65652543"
       d="m 62.34467,10.599828 q 0,1.504537 -1.278856,2.448293 -1.272019,0.936916 -3.460437,0.936916 -1.265179,0 -2.208934,-0.218842 -0.936917,-0.22568 -1.757574,-0.567621 V 10.75712 h 0.28723 q 0.813818,0.649687 1.819123,0.998466 1.012143,0.348779 1.942221,0.348779 0.239358,0 0.62917,-0.04103 0.389812,-0.04103 0.636009,-0.136776 0.300908,-0.123098 0.492394,-0.307746 0.198326,-0.184648 0.198326,-0.547105 0,-0.335101 -0.28723,-0.574459 -0.280391,-0.2462 -0.827496,-0.376138 Q 57.954156,9.984335 57.311309,9.8680753 56.6753,9.7449768 56.114517,9.560329 54.828822,9.1431618 54.261201,8.4319259 53.700419,7.7138511 53.700419,6.6538361 q 0,-1.4224719 1.272018,-2.3183556 1.278856,-0.9027225 3.282627,-0.9027225 1.005305,0 1.983254,0.1983254 0.984788,0.1914866 1.702863,0.4855553 V 6.4623495 H 61.66079 Q 61.045297,5.9699554 60.149413,5.6416927 59.260369,5.3065911 58.330291,5.3065911 q -0.328263,0 -0.656526,0.047872 -0.321424,0.041033 -0.622331,0.1641313 -0.266714,0.1025821 -0.4582,0.3145851 -0.191487,0.2051643 -0.191487,0.4718777 0,0.4034896 0.307747,0.6223315 0.307746,0.212003 1.162597,0.3898119 0.560782,0.1162598 1.073692,0.2256807 0.51975,0.1094209 1.114726,0.3009075 1.169436,0.3829732 1.723379,1.0463374 0.560782,0.6565255 0.560782,1.7097018 z" />
    <path
       inkscape:connector-curvature="0"
       id="path2020"
       style="font-style:normal;font-variant:normal;font-weight:bold;font-stretch:normal;font-family:sans-serif;-inkscape-font-specification:'sans-serif Bold';fill:#ffffff;stroke-width:0.65652543"
       d="M 73.560313,13.800389 H 70.845307 L 70.14091,11.741908 h -3.775022 l -0.704397,2.058481 H 63.014873 L 66.776217,3.6174058 h 3.022752 z M 69.504901,9.8749141 68.253399,6.2229912 67.001897,9.8749141 Z" />
    <path
       inkscape:connector-curvature="0"
       id="path2022"
       style="font-style:normal;font-variant:normal;font-weight:bold;font-stretch:normal;font-family:sans-serif;-inkscape-font-specification:'sans-serif Bold';fill:#ffffff;stroke-width:0.65652543"
       d="M 83.004707,5.5869822 H 79.824662 V 13.800389 H 77.19856 V 5.5869822 H 74.018515 V 3.6174058 h 8.986192 z" />
    <path
       inkscape:connector-curvature="0"
       id="path2024"
       style="font-style:normal;font-variant:normal;font-weight:bold;font-stretch:normal;font-family:sans-serif;-inkscape-font-specification:'sans-serif Bold';fill:#ffffff;stroke-width:0.65652543"
       d="m 93.502276,10.114272 q 0,1.887511 -1.14892,2.892816 -1.14892,1.005304 -3.385209,1.005304 -2.23629,0 -3.38521,-1.005304 -1.142081,-1.005305 -1.142081,-2.885977 V 3.6174058 h 2.63978 v 6.3532516 q 0,1.0600146 0.444522,1.5797646 0.444523,0.519749 1.442989,0.519749 0.984788,0 1.436149,-0.499233 0.4582,-0.499233 0.4582,-1.6002806 V 3.6174058 h 2.63978 z" />
    <path
       inkscape:connector-curvature="0"
       id="path2026"
       style="font-style:normal;font-variant:normal;font-weight:bold;font-stretch:normal;font-family:sans-serif;-inkscape-font-specification:'sans-serif Bold';fill:#ffffff;stroke-width:0.65652543"
       d="m 101.67465,6.7359018 q 0,-0.3829732 -0.15729,-0.6565255 -0.15729,-0.2735523 -0.54027,-0.4308448 -0.26671,-0.109421 -0.62233,-0.1299374 -0.355617,-0.027355 -0.827494,-0.027355 h -0.950594 v 2.7423616 h 0.806979 q 0.629169,0 1.053179,-0.061549 0.424,-0.061549 0.71123,-0.2803911 0.27356,-0.212003 0.39665,-0.4650388 0.12994,-0.2598747 0.12994,-0.69072 z m 4.09645,7.0644872 h -3.2074 l -2.77656,-3.733988 h -1.210468 v 3.733988 H 95.964247 V 3.6174058 h 4.404193 q 0.90272,0 1.55241,0.1025821 0.64968,0.1025821 1.21731,0.4445225 0.57446,0.3419403 0.90956,0.8890449 0.34194,0.5402657 0.34194,1.3609225 0,1.1284032 -0.52659,1.8396391 -0.51975,0.7112359 -1.49086,1.1831136 z" />
    <path
       inkscape:connector-curvature="0"
       id="path2028"
       style="font-style:normal;font-variant:normal;font-weight:bold;font-stretch:normal;font-family:sans-serif;-inkscape-font-specification:'sans-serif Bold';fill:#ffffff;stroke-width:0.65652543"
       d="m 116.19344,13.800389 h -2.53036 l -4.32213,-6.9892604 v 6.9892604 h -2.40726 V 3.6174058 h 3.13901 l 3.71348,5.8335023 V 3.6174058 h 2.40726 z" />
  </g>
</svg>
