<?xml version="1.0" encoding="UTF-8" standalone="no"?>
<svg
   xmlns:dc="http://purl.org/dc/elements/1.1/"
   xmlns:cc="http://creativecommons.org/ns#"
   xmlns:rdf="http://www.w3.org/1999/02/22-rdf-syntax-ns#"
   xmlns:svg="http://www.w3.org/2000/svg"
   xmlns="http://www.w3.org/2000/svg"
   xmlns:sodipodi="http://sodipodi.sourceforge.net/DTD/sodipodi-0.dtd"
   xmlns:inkscape="http://www.inkscape.org/namespaces/inkscape"
   width="91px"
   height="18px"
   viewBox="0 0 91 18"
   version="1.1"
   id="svg12"
   sodipodi:docname="system.svg"
   inkscape:version="0.92.4 (5da689c313, 2019-01-14)">
  <metadata
     id="metadata16">
    <rdf:RDF>
      <cc:Work
         rdf:about="">
        <dc:format>image/svg+xml</dc:format>
        <dc:type
           rdf:resource="http://purl.org/dc/dcmitype/StillImage" />
      </cc:Work>
    </rdf:RDF>
  </metadata>
  <sodipodi:namedview
     pagecolor="#ffffff"
     bordercolor="#666666"
     borderopacity="1"
     objecttolerance="10"
     gridtolerance="10"
     guidetolerance="10"
     inkscape:pageopacity="0"
     inkscape:pageshadow="2"
     inkscape:window-width="1920"
     inkscape:window-height="1018"
     id="namedview14"
     showgrid="false"
     inkscape:zoom="4.1758242"
     inkscape:cx="45.5"
     inkscape:cy="9"
     inkscape:window-x="-8"
     inkscape:window-y="-8"
     inkscape:window-maximized="1"
     inkscape:current-layer="svg12" />
  <!-- Generator: Sketch 45 (43475) - http://www.bohemiancoding.com/sketch -->
  <title
     id="title2">system</title>
  <desc
     id="desc4">Created with Sketch.</desc>
  <defs
     id="defs6" />
  <path
     style="fill:#ffffff;fill-rule:evenodd;stroke:none;stroke-width:1"
     inkscape:connector-curvature="0"
     id="VIRTUALBOY-Copy"
     d="M 17.156,4.2 13.712,14 H 11.528 L 8,4.2 H 9.862 L 12.606,11.634 15.308,4.2 Z M 20.068,14 H 18.276 V 4.2 h 1.792 z m 9.66,0 h -1.862 l -2.03,-3.64 h -1.82 V 14 H 22.224 V 4.2 h 3.584 c 2.249345,0 3.374,0.9426572 3.374,2.828 0,0.7000035 -0.144665,1.2693311 -0.434,1.708 -0.289335,0.4386689 -0.699997,0.8213317 -1.232,1.148 z M 25.402,5.698 H 24.016 V 8.68 h 1.316 c 0.756004,0 1.273999,-0.1306654 1.554,-0.392 0.280001,-0.2613346 0.42,-0.6393309 0.42,-1.134 C 27.306,6.6593309 27.170668,6.2930012 26.9,6.055 26.629332,5.8169988 26.130004,5.698 25.402,5.698 Z M 37.358,5.936 H 34.586 V 14 H 32.794 V 5.936 H 30.022 V 4.2 h 7.336 z m 5.236,8.26 c -1.344007,0 -2.356663,-0.389663 -3.038,-1.169 C 38.874663,12.247663 38.534,11.172007 38.534,9.8 V 4.2 h 1.792 v 4.998 c 0,1.036005 0.160998,1.840997 0.483,2.415 0.322002,0.574003 0.916996,0.861 1.785,0.861 0.868004,0 1.462998,-0.286997 1.785,-0.861 0.322002,-0.574003 0.483,-1.378995 0.483,-2.415 V 4.2 h 1.792 v 5.6 c 0,1.372007 -0.340663,2.447663 -1.022,3.227 -0.681337,0.779337 -1.693993,1.169 -3.038,1.169 z M 56.09,14 h -1.862 l -0.84,-2.366 H 50.126 L 49.286,14 H 47.424 L 50.91,4.2 h 1.694 z M 52.772,9.898 51.75,7.028 50.742,9.898 Z M 63.034,14 H 57.21 V 4.2 h 1.792 v 8.064 h 4.032 z m 4.956,0 H 64.21 V 4.2 h 2.646 c 0.494669,0 0.916998,0.018667 1.267,0.056 0.350002,0.037333 0.690665,0.1073328 1.022,0.21 0.331335,0.1026672 0.597332,0.2449991 0.798,0.427 0.200668,0.1820009 0.361666,0.4246651 0.483,0.728 0.121334,0.3033348 0.182,0.6696645 0.182,1.099 0,0.9053379 -0.275331,1.5866644 -0.826,2.044 0.57867,0.2240011 1.007999,0.5203315 1.288,0.889 0.280001,0.368669 0.42,0.85633 0.42,1.463 0,0.541336 -0.102666,1.007998 -0.308,1.4 -0.205334,0.392002 -0.482998,0.690666 -0.833,0.896 -0.350002,0.205334 -0.718665,0.354666 -1.106,0.448 C 68.855665,13.953334 68.438002,14 67.99,14 Z M 67.584,5.726 h -1.582 v 2.408 h 1.75 c 0.317335,0 0.594999,-0.086333 0.833,-0.259 0.238001,-0.1726675 0.357,-0.4689979 0.357,-0.889 0,-0.4760024 -0.114332,-0.8049991 -0.343,-0.987 C 68.370332,5.8169991 68.032002,5.726 67.584,5.726 Z m 0.28,3.822 h -1.862 v 2.926 h 1.764 c 0.60667,0 1.070998,-0.111999 1.393,-0.336 0.322002,-0.224001 0.483,-0.597331 0.483,-1.12 0,-0.980005 -0.592661,-1.47 -1.778,-1.47 z m 9.352,4.648 c -1.418674,0 -2.578329,-0.468995 -3.479,-1.407 -0.900671,-0.938005 -1.351,-2.167659 -1.351,-3.689 0,-1.5213409 0.450329,-2.7509953 1.351,-3.689 0.900671,-0.9380047 2.060326,-1.407 3.479,-1.407 1.418674,0 2.578329,0.4689953 3.479,1.407 0.900671,0.9380047 1.351,2.1676591 1.351,3.689 0,1.521341 -0.450329,2.750995 -1.351,3.689 -0.900671,0.938005 -2.060326,1.407 -3.479,1.407 z m 0,-8.47 c -0.924005,0 -1.633331,0.3079969 -2.128,0.924 -0.494669,0.6160031 -0.742,1.4326616 -0.742,2.45 0,1.017338 0.247331,1.833997 0.742,2.45 0.494669,0.616003 1.203995,0.924 2.128,0.924 0.924005,0 1.633331,-0.307997 2.128,-0.924 0.494669,-0.616003 0.742,-1.432662 0.742,-2.45 0,-1.0173384 -0.247331,-1.8339969 -0.742,-2.45 C 78.849331,6.0339969 78.140005,5.726 77.216,5.726 Z M 90.642,4.2 87.254,9.66 V 14 H 85.462 V 9.66 L 82.074,4.2 h 1.904 l 2.38,3.864 2.38,-3.864 z" />
</svg>
