<?xml version="1.0" encoding="UTF-8" standalone="no"?>
<svg
   xmlns:dc="http://purl.org/dc/elements/1.1/"
   xmlns:cc="http://creativecommons.org/ns#"
   xmlns:rdf="http://www.w3.org/1999/02/22-rdf-syntax-ns#"
   xmlns:svg="http://www.w3.org/2000/svg"
   xmlns="http://www.w3.org/2000/svg"
   xmlns:sodipodi="http://sodipodi.sourceforge.net/DTD/sodipodi-0.dtd"
   xmlns:inkscape="http://www.inkscape.org/namespaces/inkscape"
   width="99"
   height="24"
   viewBox="0 0 99 24"
   version="1.1"
   id="svg12"
   sodipodi:docname="system.svg"
   inkscape:version="0.92.4 (5da689c313, 2019-01-14)">
  <metadata
     id="metadata16">
    <rdf:RDF>
      <cc:Work
         rdf:about="">
        <dc:format>image/svg+xml</dc:format>
        <dc:type
           rdf:resource="http://purl.org/dc/dcmitype/StillImage" />
        <dc:title>system</dc:title>
      </cc:Work>
    </rdf:RDF>
  </metadata>
  <sodipodi:namedview
     pagecolor="#ffffff"
     bordercolor="#666666"
     borderopacity="1"
     objecttolerance="10"
     gridtolerance="10"
     guidetolerance="10"
     inkscape:pageopacity="0"
     inkscape:pageshadow="2"
     inkscape:window-width="1920"
     inkscape:window-height="1018"
     id="namedview14"
     showgrid="false"
     inkscape:zoom="6.2295082"
     inkscape:cx="-4.3987692"
     inkscape:cy="11.407895"
     inkscape:window-x="-8"
     inkscape:window-y="-8"
     inkscape:window-maximized="1"
     inkscape:current-layer="svg12" />
  <!-- Generator: Sketch 45 (43475) - http://www.bohemiancoding.com/sketch -->
  <title
     id="title2">system</title>
  <desc
     id="desc4">Created with Sketch.</desc>
  <defs
     id="defs6" />
  <g
     id="text1152"
     style="font-style:normal;font-variant:normal;font-weight:normal;font-stretch:normal;font-size:10.9761095px;line-height:1.25;font-family:sans-serif;-inkscape-font-specification:sans-serif;letter-spacing:0px;word-spacing:0px;fill:#ffffff;fill-opacity:1;stroke:none;stroke-width:0.82320821"
     aria-label="AMSTRADCPC"
     transform="matrix(1.0872688,0,0,1.0872688,-0.36759859,4.4221256)">
    <path
       inkscape:connector-curvature="0"
       id="path1159"
       style="font-style:normal;font-variant:normal;font-weight:bold;font-stretch:normal;font-family:sans-serif;-inkscape-font-specification:'sans-serif Bold';fill:#ffffff;stroke-width:0.82320821"
       d="M 15.162596,12.180746 H 13.034902 L 12.482881,10.567558 H 9.5244768 L 8.9724557,12.180746 H 6.8983569 L 9.8460425,4.2005571 H 12.21491 Z M 11.984454,9.1044341 11.003679,6.2424993 10.022904,9.1044341 Z" />
    <path
       inkscape:connector-curvature="0"
       id="path1161"
       style="font-style:normal;font-variant:normal;font-weight:bold;font-stretch:normal;font-family:sans-serif;-inkscape-font-specification:'sans-serif Bold';fill:#ffffff;stroke-width:0.82320821"
       d="M 24.6863,12.180746 H 22.638998 V 6.8373959 L 21.159796,10.304946 H 19.739548 L 18.260345,6.8373959 V 12.180746 H 16.320232 V 4.2005571 h 2.390305 l 1.795409,4.0034931 1.790049,-4.0034931 H 24.6863 Z" />
    <path
       inkscape:connector-curvature="0"
       id="path1163"
       style="font-style:normal;font-variant:normal;font-weight:bold;font-stretch:normal;font-family:sans-serif;-inkscape-font-specification:'sans-serif Bold';fill:#ffffff;stroke-width:0.82320821"
       d="m 33.105961,9.6725336 q 0,1.1790744 -1.002213,1.9186754 -0.996854,0.734242 -2.711871,0.734242 -0.991494,0 -1.731095,-0.171502 -0.734242,-0.176861 -1.377373,-0.444833 V 9.7958004 h 0.225096 q 0.637772,0.5091456 1.425608,0.7824766 0.793195,0.273331 1.522078,0.273331 0.18758,0 0.493067,-0.03216 0.305487,-0.03216 0.498427,-0.107188 0.235815,-0.09647 0.385879,-0.241175 0.155423,-0.144704 0.155423,-0.428754 0,-0.2626119 -0.225096,-0.4501919 Q 30.544154,9.3992027 30.1154,9.2973736 29.665208,9.190185 29.161422,9.0990747 28.662995,9.002605 28.223522,8.8579004 27.215949,8.5309753 26.771117,7.9735947 q -0.439473,-0.56274 -0.439473,-1.3934514 0,-1.1147611 0.996853,-1.8168462 1.002214,-0.7074446 2.572526,-0.7074446 0.787836,0 1.554234,0.1554234 0.771758,0.150064 1.334498,0.3805195 V 6.4300793 H 32.570018 Q 32.08767,6.0442005 31.385585,5.7869479 q -0.696726,-0.262612 -1.425608,-0.262612 -0.257253,0 -0.514505,0.037516 -0.251893,0.032157 -0.487708,0.1286263 -0.209018,0.080391 -0.359082,0.2465337 -0.150064,0.1607829 -0.150064,0.3698006 0,0.3162063 0.241174,0.487708 0.241175,0.1661422 0.911103,0.3054874 0.439473,0.09111 0.84143,0.1768611 0.407317,0.085751 0.873587,0.2358149 0.916462,0.300128 1.350576,0.8199925 0.439473,0.5145052 0.439473,1.3398572 z" />
    <path
       inkscape:connector-curvature="0"
       id="path1165"
       style="font-style:normal;font-variant:normal;font-weight:bold;font-stretch:normal;font-family:sans-serif;-inkscape-font-specification:'sans-serif Bold';fill:#ffffff;stroke-width:0.82320821"
       d="M 40.764586,5.7440725 H 38.272452 V 12.180746 H 36.214431 V 5.7440725 H 33.722297 V 4.2005571 h 7.042289 z" />
    <path
       inkscape:connector-curvature="0"
       id="path1167"
       style="font-style:normal;font-variant:normal;font-weight:bold;font-stretch:normal;font-family:sans-serif;-inkscape-font-specification:'sans-serif Bold';fill:#ffffff;stroke-width:0.82320821"
       d="m 46.477737,6.6444565 q 0,-0.300128 -0.123267,-0.5145052 -0.123267,-0.2143771 -0.423395,-0.337644 -0.209018,-0.085751 -0.487708,-0.1018291 -0.27869,-0.021438 -0.648491,-0.021438 h -0.74496 V 7.818171 h 0.632412 q 0.493068,0 0.825352,-0.048235 0.332285,-0.048235 0.557381,-0.2197365 0.214377,-0.1661423 0.310847,-0.3644412 0.101829,-0.2036582 0.101829,-0.5413018 z m 3.210297,5.5362895 H 47.174462 L 44.998534,9.2544981 H 44.049916 V 12.180746 H 42.002614 V 4.2005571 h 3.451472 q 0.707444,0 1.21659,0.080391 0.509146,0.080391 0.953978,0.3483629 0.450192,0.2679714 0.712804,0.6967257 0.267972,0.4233948 0.267972,1.0665262 0,0.8843057 -0.412676,1.4416863 -0.407317,0.5573806 -1.168356,0.9271811 z" />
    <path
       inkscape:connector-curvature="0"
       id="path1169"
       style="font-style:normal;font-variant:normal;font-weight:bold;font-stretch:normal;font-family:sans-serif;-inkscape-font-specification:'sans-serif Bold';fill:#ffffff;stroke-width:0.82320821"
       d="m 57.973711,12.180746 h -2.127693 l -0.552021,-1.613188 h -2.958405 l -0.552021,1.613188 h -2.074099 l 2.947686,-7.9801889 h 2.368867 z M 54.79557,9.1044341 53.814794,6.2424993 52.834019,9.1044341 Z" />
    <path
       inkscape:connector-curvature="0"
       id="path1171"
       style="font-style:normal;font-variant:normal;font-weight:bold;font-stretch:normal;font-family:sans-serif;-inkscape-font-specification:'sans-serif Bold';fill:#ffffff;stroke-width:0.82320821"
       d="m 66.672064,8.1986907 q 0,1.1147611 -0.509145,1.9990673 -0.509146,0.878946 -1.286263,1.350576 -0.584178,0.353722 -1.280904,0.493067 -0.696725,0.139345 -1.650704,0.139345 H 59.131349 V 4.2005571 h 2.894091 q 0.975416,0 1.68286,0.1661423 0.707445,0.1607828 1.189794,0.4609108 0.825352,0.5037863 1.296981,1.3612949 0.476989,0.8521491 0.476989,2.0097856 z m -2.127693,-0.016078 q 0,-0.7878359 -0.289409,-1.3452165 -0.28405,-0.56274 -0.905743,-0.8789463 -0.316207,-0.1554234 -0.648491,-0.2090177 -0.326925,-0.058954 -0.991494,-0.058954 h -0.519865 v 4.9949878 h 0.519865 q 0.734241,0 1.077245,-0.06431 0.343003,-0.06967 0.669928,-0.246533 0.56274,-0.321566 0.825352,-0.8575089 0.262612,-0.5413022 0.262612,-1.3344977 z" />
    <path
       inkscape:connector-curvature="0"
       id="path1173"
       style="font-style:normal;font-variant:normal;font-weight:bold;font-stretch:normal;font-family:sans-serif;-inkscape-font-specification:'sans-serif Bold';fill:#ffffff;stroke-width:0.82320821"
       d="m 71.849271,12.33617 q -0.889665,0 -1.645345,-0.262612 -0.75032,-0.262612 -1.291622,-0.782477 -0.541302,-0.519865 -0.84143,-1.2969817 -0.294769,-0.7771172 -0.294769,-1.7954086 0,-0.9486188 0.28405,-1.7203765 0.284049,-0.7717577 0.825352,-1.3237788 0.519864,-0.5305835 1.286263,-0.8199926 0.771757,-0.2894091 1.68286,-0.2894091 0.503786,0 0.905744,0.058954 0.407316,0.053594 0.750319,0.1447045 0.359082,0.1018292 0.648491,0.2304555 0.294769,0.1232668 0.514505,0.2304554 V 6.6444565 H 74.437875 Q 74.287811,6.5158302 74.057355,6.338969 73.832259,6.1621079 73.54285,5.9906062 73.248081,5.8191045 72.905078,5.7011971 72.562075,5.5832896 72.170836,5.5832896 q -0.434113,0 -0.825352,0.1393452 -0.391238,0.1339857 -0.723522,0.450192 -0.316207,0.3054874 -0.514506,0.8092737 -0.192939,0.5037862 -0.192939,1.2219497 0,0.7503199 0.209018,1.2541062 0.214377,0.5037863 0.535943,0.7931956 0.326925,0.294768 0.728882,0.423395 0.401957,0.123267 0.793195,0.123267 0.37516,0 0.739601,-0.112548 0.369801,-0.112548 0.680648,-0.305488 0.262612,-0.155423 0.487708,-0.332284 0.225096,-0.1768616 0.3698,-0.3054879 h 0.214377 v 1.9079569 q -0.300128,0.133985 -0.573458,0.251893 -0.273331,0.117907 -0.573459,0.203658 -0.391238,0.112548 -0.734242,0.171502 -0.343003,0.05895 -0.943259,0.05895 z" />
    <path
       inkscape:connector-curvature="0"
       id="path1175"
       style="font-style:normal;font-variant:normal;font-weight:bold;font-stretch:normal;font-family:sans-serif;-inkscape-font-specification:'sans-serif Bold';fill:#ffffff;stroke-width:0.82320821"
       d="m 82.782505,6.7194885 q 0,0.5359428 -0.18758,1.0504479 -0.18758,0.5091458 -0.535943,0.8575086 -0.476989,0.4716297 -1.066526,0.712804 -0.584178,0.2411743 -1.457765,0.2411743 H 78.253788 V 12.180746 H 76.195767 V 4.2005571 h 3.387159 q 0.761039,0 1.280904,0.1339857 0.525224,0.1286263 0.927181,0.3912383 0.482348,0.3162063 0.734241,0.8092737 0.257253,0.4930674 0.257253,1.1844337 z m -2.127693,0.048235 q 0,-0.337644 -0.182221,-0.5788182 Q 80.290371,5.9423713 80.049196,5.8459016 79.727631,5.7172753 79.422143,5.7065565 79.116656,5.6904782 78.60751,5.6904782 h -0.353722 v 2.3903051 h 0.589537 q 0.525224,0 0.862868,-0.064313 0.343003,-0.064313 0.573459,-0.2572526 0.198299,-0.1715017 0.28405,-0.4073166 0.09111,-0.2411743 0.09111,-0.5841776 z" />
    <path
       inkscape:connector-curvature="0"
       id="path1177"
       style="font-style:normal;font-variant:normal;font-weight:bold;font-stretch:normal;font-family:sans-serif;-inkscape-font-specification:'sans-serif Bold';fill:#ffffff;stroke-width:0.82320821"
       d="m 87.841809,12.33617 q -0.889665,0 -1.645344,-0.262612 -0.75032,-0.262612 -1.291623,-0.782477 -0.541302,-0.519865 -0.84143,-1.2969817 -0.294769,-0.7771172 -0.294769,-1.7954086 0,-0.9486188 0.28405,-1.7203765 0.28405,-0.7717577 0.825352,-1.3237788 0.519865,-0.5305835 1.286263,-0.8199926 0.771758,-0.2894091 1.682861,-0.2894091 0.503786,0 0.905743,0.058954 0.407317,0.053594 0.75032,0.1447045 0.359082,0.1018292 0.648491,0.2304555 0.294768,0.1232668 0.514505,0.2304554 V 6.6444565 H 90.430413 Q 90.280349,6.5158302 90.049894,6.338969 89.824798,6.1621079 89.535389,5.9906062 89.24062,5.8191045 88.897617,5.7011971 88.554613,5.5832896 88.163375,5.5832896 q -0.434114,0 -0.825352,0.1393452 -0.391238,0.1339857 -0.723523,0.450192 -0.316206,0.3054874 -0.514505,0.8092737 -0.19294,0.5037862 -0.19294,1.2219497 0,0.7503199 0.209018,1.2541062 0.214377,0.5037863 0.535943,0.7931956 0.326925,0.294768 0.728882,0.423395 0.401957,0.123267 0.793196,0.123267 0.37516,0 0.739601,-0.112548 0.3698,-0.112548 0.680647,-0.305488 0.262612,-0.155423 0.487708,-0.332284 0.225096,-0.1768616 0.369801,-0.3054879 h 0.214377 v 1.9079569 q -0.300128,0.133985 -0.573459,0.251893 -0.273331,0.117907 -0.573459,0.203658 -0.391238,0.112548 -0.734241,0.171502 -0.343004,0.05895 -0.94326,0.05895 z" />
  </g>
</svg>
