<?xml version="1.0" encoding="UTF-8" standalone="no"?>
<svg
   xmlns:dc="http://purl.org/dc/elements/1.1/"
   xmlns:cc="http://creativecommons.org/ns#"
   xmlns:rdf="http://www.w3.org/1999/02/22-rdf-syntax-ns#"
   xmlns:svg="http://www.w3.org/2000/svg"
   xmlns="http://www.w3.org/2000/svg"
   xmlns:sodipodi="http://sodipodi.sourceforge.net/DTD/sodipodi-0.dtd"
   xmlns:inkscape="http://www.inkscape.org/namespaces/inkscape"
   width="83px"
   height="18px"
   viewBox="0 0 83 18"
   version="1.1"
   id="svg12"
   sodipodi:docname="SUÇA.svg"
   inkscape:version="0.92.4 (5da689c313, 2019-01-14)">
  <metadata
     id="metadata16">
    <rdf:RDF>
      <cc:Work
         rdf:about="">
        <dc:format>image/svg+xml</dc:format>
        <dc:type
           rdf:resource="http://purl.org/dc/dcmitype/StillImage" />
        <dc:title>system</dc:title>
      </cc:Work>
    </rdf:RDF>
  </metadata>
  <sodipodi:namedview
     pagecolor="#ffffff"
     bordercolor="#666666"
     borderopacity="1"
     objecttolerance="10"
     gridtolerance="10"
     guidetolerance="10"
     inkscape:pageopacity="0"
     inkscape:pageshadow="2"
     inkscape:window-width="1920"
     inkscape:window-height="1018"
     id="namedview14"
     showgrid="false"
     inkscape:zoom="4.5783133"
     inkscape:cx="6.6421901"
     inkscape:cy="9.0000001"
     inkscape:window-x="-8"
     inkscape:window-y="-8"
     inkscape:window-maximized="1"
     inkscape:current-layer="svg12" />
  <!-- Generator: Sketch 45 (43475) - http://www.bohemiancoding.com/sketch -->
  <title
     id="title2">system</title>
  <desc
     id="desc4">Created with Sketch.</desc>
  <defs
     id="defs6" />
  <g
     id="g1223">
    <g
       aria-label="JALECO"
       style="font-style:normal;font-variant:normal;font-weight:bold;font-stretch:normal;font-size:15.78831196px;line-height:1.25;font-family:sans-serif;-inkscape-font-specification:'sans-serif Bold';letter-spacing:0px;word-spacing:0px;fill:#ffffff;fill-opacity:1;stroke:none;stroke-width:0.5920617"
       id="text1219">
      <path
         d="m 15.970117,11.301033 q 0,0.755495 -0.269819,1.418481 -0.26982,0.655277 -0.801751,1.110116 -0.562767,0.485675 -1.356808,0.755495 -0.794041,0.262111 -1.96583,0.262111 -0.794041,0 -1.495572,-0.06167 -0.7015315,-0.05396 -1.2334619,-0.161892 V 12.295512 H 9.124404 q 0.3700385,0.138764 0.7709136,0.26211 0.4008754,0.115637 1.0253154,0.115637 0.809459,0 1.241171,-0.215856 0.439421,-0.215855 0.62444,-0.601312 0.17731,-0.377748 0.200437,-0.824878 0.02313,-0.454839 0.02313,-1.1563703 V 5.3033246 H 10.380993 V 3.1910211 h 5.589124 z"
         style="fill:#ffffff;stroke-width:0.5920617"
         id="path1225"
         inkscape:connector-curvature="0" />
      <path
         d="m 29.353178,14.669926 h -3.060527 l -0.794041,-2.32045 h -4.255444 l -0.794041,2.32045 H 17.465689 L 21.705715,3.1910211 h 3.407438 z M 24.78166,10.244881 23.370888,6.1282022 21.960116,10.244881 Z"
         style="fill:#ffffff;stroke-width:0.5920617"
         id="path1227"
         inkscape:connector-curvature="0" />
      <path
         d="M 39.297965,14.669926 H 31.018352 V 3.1910211 h 2.960309 v 9.2586729 h 5.319304 z"
         style="fill:#ffffff;stroke-width:0.5920617"
         id="path1229"
         inkscape:connector-curvature="0" />
      <path
         d="m 49.373806,14.669926 h -8.30274 V 3.1910211 h 8.30274 v 2.2202314 h -5.35785 v 1.9812481 h 4.972393 V 9.612732 h -4.972393 v 2.836962 h 5.35785 z"
         style="fill:#ffffff;stroke-width:0.5920617"
         id="path1231"
         inkscape:connector-curvature="0" />
      <path
         d="m 57.052106,14.893491 q -1.279716,0 -2.366705,-0.377748 -1.079279,-0.377748 -1.857902,-1.125534 -0.778622,-0.747786 -1.210334,-1.865611 -0.424003,-1.117825 -0.424003,-2.5825609 0,-1.3645172 0.408585,-2.4746329 0.408584,-1.1101156 1.187207,-1.9041567 0.747786,-0.7632046 1.850192,-1.1794979 1.110116,-0.4162934 2.420669,-0.4162934 0.724659,0 1.302844,0.084801 0.585895,0.077091 1.07928,0.2081467 0.516512,0.1464736 0.932805,0.3314929 0.424003,0.1773101 0.740077,0.3314928 V 6.7063875 H 60.775619 Q 60.559763,6.5213682 60.228271,6.2669667 59.904487,6.0125652 59.488193,5.7658728 59.064191,5.5191804 58.570806,5.3495794 q -0.493385,-0.169601 -1.056152,-0.169601 -0.62444,0 -1.187207,0.2004376 -0.562767,0.1927284 -1.040733,0.6475675 -0.454839,0.4394207 -0.740077,1.1640796 -0.277529,0.7246588 -0.277529,1.7576832 0,1.0792787 0.300656,1.8039377 0.308366,0.724659 0.770914,1.140952 0.470257,0.424003 1.048442,0.609022 0.578186,0.17731 1.140953,0.17731 0.539639,0 1.063861,-0.161891 0.53193,-0.161892 0.97906,-0.439421 0.377748,-0.223565 0.701531,-0.477967 0.323784,-0.254401 0.531931,-0.439421 h 0.308365 v 2.744453 q -0.431711,0.192729 -0.824877,0.36233 -0.393166,0.169601 -0.824878,0.292947 -0.562767,0.161892 -1.056152,0.246692 -0.493384,0.0848 -1.356808,0.0848 z"
         style="fill:#ffffff;stroke-width:0.5920617"
         id="path1233"
         inkscape:connector-curvature="0" />
      <path
         d="m 74.467048,8.934328 q 0,2.744453 -1.572664,4.363371 -1.572664,1.61121 -4.347953,1.61121 -2.76758,0 -4.340244,-1.61121 -1.572664,-1.618918 -1.572664,-4.363371 0,-2.7675801 1.572664,-4.3710805 1.572664,-1.6112096 4.340244,-1.6112096 2.759871,0 4.340244,1.6112096 1.580373,1.6035004 1.580373,4.3710805 z m -3.92395,2.906345 q 0.431711,-0.524222 0.639858,-1.233462 0.208147,-0.7169501 0.208147,-1.6805922 0,-1.0330243 -0.238984,-1.7576831 Q 70.913136,6.4442768 70.527679,5.9971469 70.134513,5.5345987 69.618001,5.326452 69.109198,5.1183053 68.55414,5.1183053 q -0.562767,0 -1.06386,0.2004376 -0.493385,0.2004375 -0.909679,0.6629857 -0.385456,0.4317117 -0.632149,1.1949162 -0.238983,0.7554954 -0.238983,1.7576832 0,1.0253152 0.231274,1.749974 0.238983,0.71695 0.62444,1.171789 0.385457,0.454839 0.901969,0.670695 0.516512,0.215856 1.086988,0.215856 0.570476,0 1.086989,-0.215856 0.516512,-0.223565 0.901969,-0.686113 z"
         style="fill:#ffffff;stroke-width:0.5920617"
         id="path1235"
         inkscape:connector-curvature="0" />
    </g>
  </g>
</svg>
