<?xml version="1.0" encoding="UTF-8" standalone="no"?>
<svg
   xmlns:dc="http://purl.org/dc/elements/1.1/"
   xmlns:cc="http://creativecommons.org/ns#"
   xmlns:rdf="http://www.w3.org/1999/02/22-rdf-syntax-ns#"
   xmlns:svg="http://www.w3.org/2000/svg"
   xmlns="http://www.w3.org/2000/svg"
   xmlns:sodipodi="http://sodipodi.sourceforge.net/DTD/sodipodi-0.dtd"
   xmlns:inkscape="http://www.inkscape.org/namespaces/inkscape"
   width="117px"
   height="18px"
   viewBox="0 0 117 18"
   version="1.1"
   id="svg12"
   sodipodi:docname="system.svg"
   inkscape:version="0.92.4 (5da689c313, 2019-01-14)">
  <metadata
     id="metadata16">
    <rdf:RDF>
      <cc:Work
         rdf:about="">
        <dc:format>image/svg+xml</dc:format>
        <dc:type
           rdf:resource="http://purl.org/dc/dcmitype/StillImage" />
        <dc:title>system</dc:title>
      </cc:Work>
    </rdf:RDF>
  </metadata>
  <sodipodi:namedview
     pagecolor="#ffffff"
     bordercolor="#666666"
     borderopacity="1"
     objecttolerance="10"
     gridtolerance="10"
     guidetolerance="10"
     inkscape:pageopacity="0"
     inkscape:pageshadow="2"
     inkscape:window-width="1920"
     inkscape:window-height="1018"
     id="namedview14"
     showgrid="false"
     inkscape:zoom="3.2478632"
     inkscape:cx="5.1944251"
     inkscape:cy="8.9999999"
     inkscape:window-x="-8"
     inkscape:window-y="-8"
     inkscape:window-maximized="1"
     inkscape:current-layer="svg12" />
  <!-- Generator: Sketch 45 (43475) - http://www.bohemiancoding.com/sketch -->
  <title
     id="title2">system</title>
  <desc
     id="desc4">Created with Sketch.</desc>
  <defs
     id="defs6" />
  <g
     id="text2051"
     style="font-style:normal;font-variant:normal;font-weight:normal;font-stretch:normal;font-size:17.85639px;line-height:1.25;font-family:sans-serif;-inkscape-font-specification:sans-serif;letter-spacing:0px;word-spacing:0px;fill:#ffffff;fill-opacity:1;stroke:none;stroke-width:0.83701831"
     aria-label="SEGA-3000">
    <path
       inkscape:connector-curvature="0"
       id="path2059"
       style="font-style:normal;font-variant:normal;font-weight:bold;font-stretch:normal;font-family:sans-serif;-inkscape-font-specification:'sans-serif Bold';fill:#ffffff;stroke-width:0.83701831"
       d="m 16.545152,11.201115 q 0,1.918167 -1.630442,3.121381 -1.621723,1.194494 -4.411784,1.194494 -1.6130036,0 -2.8162174,-0.279006 -1.1944949,-0.287725 -2.2407677,-0.723672 v -3.112661 h 0.3661955 q 1.0375539,0.828299 2.3192381,1.272965 1.2904032,0.444666 2.4761795,0.444666 0.305163,0 0.802142,-0.05231 0.49698,-0.05231 0.810862,-0.174379 0.383633,-0.156941 0.627763,-0.392352 0.25285,-0.235411 0.25285,-0.697515 0,-0.427228 -0.366196,-0.732391 Q 12.377499,10.756449 11.679983,10.590789 10.947592,10.41641 10.128012,10.268188 9.3171504,10.111247 8.6021973,9.875836 6.9630365,9.3439806 6.2393645,8.4372108 5.5244114,7.521722 5.5244114,6.1702863 q 0,-1.8135396 1.6217229,-2.9557208 1.6304418,-1.1509002 4.1850917,-1.1509002 1.281684,0 2.528492,0.2528493 1.255528,0.2441303 2.171017,0.6190448 V 5.9261559 H 15.673258 Q 14.888553,5.2983922 13.746372,4.8798831 12.61291,4.452655 11.427134,4.452655 q -0.418509,0 -0.837018,0.061033 -0.40979,0.052314 -0.7934238,0.2092546 -0.3400387,0.1307841 -0.584169,0.4010712 -0.2441304,0.2615682 -0.2441304,0.6016069 0,0.5144175 0.3923523,0.7934236 0.3923524,0.2702871 1.4822199,0.4969796 0.714953,0.148222 1.368874,0.287725 0.662639,0.1395031 1.421187,0.3836334 1.490939,0.4882607 2.197173,1.3339979 0.714953,0.8370183 0.714953,2.1797348 z" />
    <path
       inkscape:connector-curvature="0"
       id="path2061"
       style="font-style:normal;font-variant:normal;font-weight:bold;font-stretch:normal;font-family:sans-serif;-inkscape-font-specification:'sans-serif Bold';fill:#ffffff;stroke-width:0.83701831"
       d="M 28.237251,15.281579 H 18.846953 V 2.2990767 h 9.390298 v 2.5110549 h -6.059663 v 2.2407677 h 5.623716 v 2.5110548 h -5.623716 v 3.2085699 h 6.059663 z" />
    <path
       inkscape:connector-curvature="0"
       id="path2063"
       style="font-style:normal;font-variant:normal;font-weight:bold;font-stretch:normal;font-family:sans-serif;-inkscape-font-specification:'sans-serif Bold';fill:#ffffff;stroke-width:0.83701831"
       d="m 42.536314,14.540469 q -0.871894,0.340039 -2.310519,0.680077 -1.438625,0.33132 -2.868531,0.33132 -3.313198,0 -5.18777,-1.796102 -1.874572,-1.80482 -1.874572,-4.9785145 0,-3.0254724 1.89201,-4.8738877 1.89201,-1.8571344 5.274959,-1.8571344 1.281684,0 2.441303,0.2354114 1.159619,0.2266925 2.580807,0.9154888 V 6.2400378 H 42.109086 Q 41.864956,6.05694 41.394133,5.7256203 40.92331,5.3855816 40.487363,5.1501702 39.981665,4.8711641 39.301587,4.6706285 38.630229,4.4700929 37.871681,4.4700929 q -0.889332,0 -1.613004,0.2615682 -0.723672,0.2615682 -1.299122,0.8021425 -0.549293,0.5231364 -0.871894,1.3339979 -0.313882,0.8021425 -0.313882,1.8571343 0,2.1535782 1.142181,3.2957592 1.142182,1.142181 3.37423,1.142181 0.191817,0 0.418509,-0.0087 0.235412,-0.0087 0.427229,-0.02616 V 10.58207 H 36.546402 V 8.1320479 h 5.989912 z" />
    <path
       inkscape:connector-curvature="0"
       id="path2065"
       style="font-style:normal;font-variant:normal;font-weight:bold;font-stretch:normal;font-family:sans-serif;-inkscape-font-specification:'sans-serif Bold';fill:#ffffff;stroke-width:0.83701831"
       d="M 57.52417,15.281579 H 54.062751 L 53.1647,12.657178 h -4.812855 l -0.898051,2.624401 h -3.37423 L 48.874981,2.2990767 h 3.853772 z m -5.170332,-5.004672 -1.595566,-4.655914 -1.595566,4.655914 z" />
    <path
       inkscape:connector-curvature="0"
       id="path2067"
       style="font-style:normal;font-variant:normal;font-weight:bold;font-stretch:normal;font-family:sans-serif;-inkscape-font-specification:'sans-serif Bold';fill:#ffffff;stroke-width:0.83701831"
       d="M 65.362499,10.765168 H 58.709947 V 8.254113 h 6.652552 z" />
    <path
       inkscape:connector-curvature="0"
       id="path2069"
       style="font-style:normal;font-variant:normal;font-weight:bold;font-stretch:normal;font-family:sans-serif;-inkscape-font-specification:'sans-serif Bold';fill:#ffffff;stroke-width:0.83701831"
       d="m 76.862781,9.1957586 q 0.427228,0.3661955 0.680077,0.8544564 0.252849,0.48826 0.252849,1.299122 0,0.915489 -0.366195,1.708912 -0.357477,0.793424 -1.107305,1.360155 -0.732391,0.549293 -1.726351,0.845737 -0.98524,0.287725 -2.397708,0.287725 -1.613004,0 -2.772623,-0.252849 -1.1509,-0.252849 -1.874573,-0.566731 v -2.851094 h 0.340039 q 0.749829,0.453385 1.787383,0.784705 1.046273,0.33132 1.909448,0.33132 0.505698,0 1.098586,-0.07847 0.592888,-0.08719 1.002679,-0.366195 0.3226,-0.217974 0.514417,-0.523137 0.191817,-0.313882 0.191817,-0.898051 0,-0.566731 -0.261569,-0.871894 Q 73.872184,9.9455875 73.444956,9.8148034 73.017728,9.6753003 72.416121,9.6665814 71.814514,9.6491435 71.300097,9.6491435 H 70.585144 V 7.3299053 h 0.74111 q 0.680077,0 1.203213,-0.043595 0.523137,-0.043595 0.889332,-0.2005356 0.383634,-0.1656599 0.57545,-0.435947 0.191817,-0.2790061 0.191817,-0.8108615 0,-0.3923523 -0.200535,-0.6277637 -0.200536,-0.2441303 -0.505699,-0.3836334 -0.340039,-0.1569409 -0.802143,-0.2092545 -0.462103,-0.052314 -0.793423,-0.052314 -0.819581,0 -1.778664,0.2877251 -0.959083,0.2790061 -1.857134,0.8108614 H 67.925867 V 2.84837 q 0.714953,-0.2877251 1.944324,-0.5492933 1.22937,-0.2702871 2.493617,-0.2702871 1.22937,0 2.153578,0.2179735 0.924208,0.2092545 1.525814,0.5667311 0.714954,0.4272281 1.063711,1.0375539 0.348758,0.6103258 0.348758,1.4299062 0,1.0811487 -0.671359,1.9356048 -0.671358,0.8457372 -1.769945,1.0811486 v 0.1220652 q 0.444666,0.061033 0.941646,0.2441303 0.49698,0.1830978 0.90677,0.5318554 z" />
    <path
       inkscape:connector-curvature="0"
       id="path2071"
       style="font-style:normal;font-variant:normal;font-weight:bold;font-stretch:normal;font-family:sans-serif;-inkscape-font-specification:'sans-serif Bold';fill:#ffffff;stroke-width:0.83701831"
       d="m 90.743335,8.7859684 q 0,1.6391606 -0.296444,2.9382826 -0.296444,1.290404 -0.924207,2.118703 -0.645202,0.845737 -1.656599,1.281684 -1.011397,0.427228 -2.493617,0.427228 -1.456063,0 -2.484898,-0.435947 -1.028835,-0.435947 -1.665318,-1.290403 -0.645201,-0.854456 -0.932926,-2.118703 -0.287725,-1.272965 -0.287725,-2.9121257 0,-1.6914744 0.296444,-2.9382829 0.296444,-1.2468085 0.941645,-2.1099836 0.645202,-0.8544561 1.674037,-1.2816842 1.028835,-0.4272281 2.458741,-0.4272281 1.490939,0 2.502336,0.444666 1.011397,0.435947 1.656598,1.307841 0.636483,0.8544562 0.924208,2.1099836 0.287725,1.2468085 0.287725,2.8859693 z m -3.37423,0 q 0,-2.3541139 -0.462104,-3.3480731 -0.462103,-1.0026782 -1.534533,-1.0026782 -1.07243,0 -1.534534,1.0026782 -0.462103,0.9939592 -0.462103,3.365511 0,2.3105187 0.470822,3.3306357 0.470823,1.020116 1.525815,1.020116 1.054992,0 1.525814,-1.020116 0.470823,-1.020117 0.470823,-3.3480736 z" />
    <path
       inkscape:connector-curvature="0"
       id="path2073"
       style="font-style:normal;font-variant:normal;font-weight:bold;font-stretch:normal;font-family:sans-serif;-inkscape-font-specification:'sans-serif Bold';fill:#ffffff;stroke-width:0.83701831"
       d="m 103.43811,8.7859684 q 0,1.6391606 -0.29644,2.9382826 -0.29644,1.290404 -0.92421,2.118703 -0.6452,0.845737 -1.6566,1.281684 -1.011394,0.427228 -2.493614,0.427228 -1.456063,0 -2.484898,-0.435947 -1.028835,-0.435947 -1.665317,-1.290403 -0.645202,-0.854456 -0.932927,-2.118703 -0.287725,-1.272965 -0.287725,-2.9121257 0,-1.6914744 0.296444,-2.9382829 0.296444,-1.2468085 0.941646,-2.1099836 0.645201,-0.8544561 1.674036,-1.2816842 1.028835,-0.4272281 2.458741,-0.4272281 1.490939,0 2.502334,0.444666 1.0114,0.435947 1.6566,1.307841 0.63648,0.8544562 0.92421,2.1099836 0.28772,1.2468085 0.28772,2.8859693 z m -3.37423,0 q 0,-2.3541139 -0.4621,-3.3480731 -0.462104,-1.0026782 -1.534534,-1.0026782 -1.072429,0 -1.534533,1.0026782 -0.462104,0.9939592 -0.462104,3.365511 0,2.3105187 0.470823,3.3306357 0.470823,1.020116 1.525814,1.020116 1.054992,0 1.525815,-1.020116 0.470819,-1.020117 0.470819,-3.3480736 z" />
    <path
       inkscape:connector-curvature="0"
       id="path2075"
       style="font-style:normal;font-variant:normal;font-weight:bold;font-stretch:normal;font-family:sans-serif;-inkscape-font-specification:'sans-serif Bold';fill:#ffffff;stroke-width:0.83701831"
       d="m 116.13289,8.7859684 q 0,1.6391606 -0.29644,2.9382826 -0.29645,1.290404 -0.92421,2.118703 -0.6452,0.845737 -1.6566,1.281684 -1.0114,0.427228 -2.49362,0.427228 -1.45606,0 -2.48489,-0.435947 -1.02884,-0.435947 -1.66532,-1.290403 -0.6452,-0.854456 -0.93293,-2.118703 -0.28772,-1.272965 -0.28772,-2.9121257 0,-1.6914744 0.29644,-2.9382829 0.29645,-1.2468085 0.94165,-2.1099836 0.6452,-0.8544561 1.67403,-1.2816842 1.02884,-0.4272281 2.45874,-0.4272281 1.49094,0 2.50234,0.444666 1.0114,0.435947 1.6566,1.307841 0.63648,0.8544562 0.92421,2.1099836 0.28772,1.2468085 0.28772,2.8859693 z m -3.37423,0 q 0,-2.3541139 -0.4621,-3.3480731 -0.46211,-1.0026782 -1.53454,-1.0026782 -1.07242,0 -1.53453,1.0026782 -0.4621,0.9939592 -0.4621,3.365511 0,2.3105187 0.47082,3.3306357 0.47082,1.020116 1.52581,1.020116 1.055,0 1.52582,-1.020116 0.47082,-1.020117 0.47082,-3.3480736 z" />
  </g>
</svg>
