<?xml version="1.0" encoding="UTF-8" standalone="no"?>
<svg
   xmlns:dc="http://purl.org/dc/elements/1.1/"
   xmlns:cc="http://creativecommons.org/ns#"
   xmlns:rdf="http://www.w3.org/1999/02/22-rdf-syntax-ns#"
   xmlns:svg="http://www.w3.org/2000/svg"
   xmlns="http://www.w3.org/2000/svg"
   xmlns:sodipodi="http://sodipodi.sourceforge.net/DTD/sodipodi-0.dtd"
   xmlns:inkscape="http://www.inkscape.org/namespaces/inkscape"
   width="117px"
   height="18px"
   viewBox="0 0 117 18"
   version="1.1"
   id="svg12"
   sodipodi:docname="system.svg"
   inkscape:version="0.92.4 (5da689c313, 2019-01-14)">
  <metadata
     id="metadata16">
    <rdf:RDF>
      <cc:Work
         rdf:about="">
        <dc:format>image/svg+xml</dc:format>
        <dc:type
           rdf:resource="http://purl.org/dc/dcmitype/StillImage" />
        <dc:title>system</dc:title>
      </cc:Work>
    </rdf:RDF>
  </metadata>
  <sodipodi:namedview
     pagecolor="#ffffff"
     bordercolor="#666666"
     borderopacity="1"
     objecttolerance="10"
     gridtolerance="10"
     guidetolerance="10"
     inkscape:pageopacity="0"
     inkscape:pageshadow="2"
     inkscape:window-width="1920"
     inkscape:window-height="1018"
     id="namedview14"
     showgrid="false"
     inkscape:zoom="3.2478632"
     inkscape:cx="5.1944251"
     inkscape:cy="8.9999999"
     inkscape:window-x="-8"
     inkscape:window-y="-8"
     inkscape:window-maximized="1"
     inkscape:current-layer="svg12" />
  <!-- Generator: Sketch 45 (43475) - http://www.bohemiancoding.com/sketch -->
  <title
     id="title2">system</title>
  <desc
     id="desc4">Created with Sketch.</desc>
  <defs
     id="defs6" />
  <g
     id="text2092"
     style="font-style:normal;font-variant:normal;font-weight:bold;font-stretch:normal;font-size:18.10714722px;line-height:1.25;font-family:sans-serif;-inkscape-font-specification:'sans-serif Bold';letter-spacing:0px;word-spacing:0px;fill:#ffffff;fill-opacity:1;stroke:none;stroke-width:0.84877253"
     aria-label="SEGA-1000">
    <path
       inkscape:connector-curvature="0"
       id="path2100"
       style="fill:#ffffff;stroke-width:0.84877253"
       d="m 15.161547,12.063698 q 0,1.945103 -1.653338,3.165214 -1.644497,1.211269 -4.4737386,1.211269 -1.6356554,0 -2.8557659,-0.282924 -1.2112691,-0.291766 -2.2722348,-0.733835 v -3.156373 h 0.371338 q 1.0521243,0.839932 2.3518072,1.290842 1.3085243,0.45091 2.5109521,0.45091 0.3094483,0 0.813407,-0.05305 0.503959,-0.05305 0.822248,-0.176828 0.389021,-0.159144 0.63658,-0.397862 0.2564,-0.238717 0.2564,-0.70731 0,-0.433228 -0.371338,-0.742676 -0.362497,-0.31829 -1.069807,-0.486276 Q 9.4853808,11.267973 8.6542911,11.11767 7.8320427,10.958525 7.1070495,10.719808 5.44487,10.180484 4.7110354,9.26098 3.9860422,8.3326351 3.9860422,6.9622211 q 0,-1.8390071 1.6444967,-2.997228 1.6533382,-1.1670622 4.2438627,-1.1670622 1.2996824,0 2.5640004,0.2564 1.273159,0.2475587 2.201504,0.627738 V 6.7146624 H 14.277409 Q 13.481685,6.0780831 12.323464,5.6536968 11.174084,5.2204691 9.9716568,5.2204691 q -0.4243863,0 -0.8487726,0.06189 Q 8.7073393,5.3354071 8.3183186,5.4945519 7.9735048,5.6271726 7.7259461,5.9012554 7.4783875,6.1664969 7.4783875,6.5113107 q 0,0.5216414 0.3978621,0.8045656 0.3978621,0.2740828 1.5030347,0.5039587 0.7249927,0.1503035 1.3880967,0.2917656 0.671945,0.1414621 1.441145,0.3890207 1.511876,0.4951173 2.228028,1.3527312 0.724993,0.8487725 0.724993,2.2103455 z" />
    <path
       inkscape:connector-curvature="0"
       id="path2102"
       style="fill:#ffffff;stroke-width:0.84877253"
       d="M 27.017838,16.201464 H 17.495671 V 3.0366482 h 9.522167 v 2.5463175 h -6.144759 v 2.2722348 h 5.70269 v 2.5463175 h -5.70269 v 3.253628 h 6.144759 z" />
    <path
       inkscape:connector-curvature="0"
       id="path2104"
       style="fill:#ffffff;stroke-width:0.84877253"
       d="m 41.517702,15.449946 q -0.884138,0.344814 -2.342966,0.689628 -1.458828,0.335972 -2.908814,0.335972 -3.359725,0 -5.260621,-1.821324 -1.900897,-1.830166 -1.900897,-5.0484281 0,-3.0679591 1.918579,-4.9423317 1.91858,-1.8832141 5.349036,-1.8832141 1.299682,0 2.475586,0.2387173 1.175904,0.2298759 2.617049,0.928345 v 3.0856417 h -0.38018 Q 40.836916,6.8472832 40.359481,6.5113107 39.882047,6.1664969 39.439978,5.9277796 38.927177,5.6448554 38.23755,5.4415037 37.556763,5.2381519 36.787563,5.2381519 q -0.90182,0 -1.635655,0.2652414 -0.733835,0.2652414 -1.317366,0.813407 -0.557007,0.5304829 -0.884138,1.3527312 -0.318289,0.813407 -0.318289,1.8832141 0,2.1838214 1.15822,3.3420414 1.158221,1.158221 3.421615,1.158221 0.19451,0 0.424386,-0.0088 0.238717,-0.0088 0.433228,-0.02652 V 11.43596 h -2.62589 V 8.9515317 h 6.074028 z" />
    <path
       inkscape:connector-curvature="0"
       id="path2106"
       style="fill:#ffffff;stroke-width:0.84877253"
       d="M 56.716034,16.201464 H 53.206006 L 52.295344,13.540208 H 47.414902 L 46.50424,16.201464 H 43.082626 L 47.945385,3.0366482 h 3.90789 z M 51.473096,11.126511 49.855123,6.4052141 48.237151,11.126511 Z" />
    <path
       inkscape:connector-curvature="0"
       id="path2108"
       style="fill:#ffffff;stroke-width:0.84877253"
       d="M 64.664435,11.621629 H 57.918462 V 9.075311 h 6.745973 z" />
    <path
       inkscape:connector-curvature="0"
       id="path2110"
       style="fill:#ffffff;stroke-width:0.84877253"
       d="m 76.78597,16.201464 h -8.788332 v -2.298759 h 2.776194 V 6.9445383 H 67.997638 V 4.7960829 q 0.636579,0 1.220111,-0.070731 Q 69.80128,4.6457794 70.1903,4.4601104 70.650052,4.2390759 70.879928,3.8854207 71.109804,3.5317655 71.14517,3.0012826 h 2.926496 V 13.902705 h 2.714304 z" />
    <path
       inkscape:connector-curvature="0"
       id="path2112"
       style="fill:#ffffff;stroke-width:0.84877253"
       d="m 90.401693,9.6146352 q 0,1.6621798 -0.300607,2.9795448 -0.300607,1.308525 -0.937186,2.148456 -0.654262,0.857614 -1.679862,1.299683 -1.025601,0.433227 -2.528635,0.433227 -1.476511,0 -2.519794,-0.442069 -1.043283,-0.442069 -1.688703,-1.308524 -0.654263,-0.866455 -0.946028,-2.148455 -0.291766,-1.290842 -0.291766,-2.9530214 0,-1.7152278 0.300607,-2.9795452 0.300607,-1.2643174 0.954869,-2.1396141 0.654263,-0.8664553 1.697545,-1.2996829 1.043283,-0.4332276 2.49327,-0.4332276 1.511876,0 2.537476,0.4509104 1.0256,0.442069 1.679862,1.326207 0.645421,0.8664553 0.937187,2.1396141 0.291765,1.2643174 0.291765,2.9264969 z m -3.421614,0 q 0,-2.3871727 -0.468593,-3.3950901 -0.468593,-1.0167587 -1.556083,-1.0167587 -1.08749,0 -1.556083,1.0167587 -0.468593,1.0079174 -0.468593,3.4127729 0,2.342966 0.477434,3.377407 0.477435,1.034442 1.547242,1.034442 1.069807,0 1.547241,-1.034442 0.477435,-1.034441 0.477435,-3.3950898 z" />
    <path
       inkscape:connector-curvature="0"
       id="path2114"
       style="fill:#ffffff;stroke-width:0.84877253"
       d="m 103.27475,9.6146352 q 0,1.6621798 -0.30061,2.9795448 -0.30061,1.308525 -0.93719,2.148456 -0.65426,0.857614 -1.67986,1.299683 -1.025598,0.433227 -2.528633,0.433227 -1.47651,0 -2.519793,-0.442069 -1.043283,-0.442069 -1.688704,-1.308524 -0.654262,-0.866455 -0.946028,-2.148455 -0.291765,-1.290842 -0.291765,-2.9530214 0,-1.7152278 0.300607,-2.9795452 0.300607,-1.2643174 0.954869,-2.1396141 0.654262,-0.8664553 1.697545,-1.2996829 1.043283,-0.4332276 2.493269,-0.4332276 1.511876,0 2.537473,0.4509104 1.0256,0.442069 1.67987,1.326207 0.64542,0.8664553 0.93718,2.1396141 0.29177,1.2643174 0.29177,2.9264969 z m -3.421617,0 q 0,-2.3871727 -0.468593,-3.3950901 -0.468593,-1.0167587 -1.556083,-1.0167587 -1.08749,0 -1.556083,1.0167587 -0.468593,1.0079174 -0.468593,3.4127729 0,2.342966 0.477435,3.377407 0.477434,1.034442 1.547241,1.034442 1.069807,0 1.547242,-1.034442 0.477434,-1.034441 0.477434,-3.3950898 z" />
    <path
       inkscape:connector-curvature="0"
       id="path2116"
       style="fill:#ffffff;stroke-width:0.84877253"
       d="m 116.14779,9.6146352 q 0,1.6621798 -0.3006,2.9795448 -0.30061,1.308525 -0.93719,2.148456 -0.65426,0.857614 -1.67986,1.299683 -1.0256,0.433227 -2.52864,0.433227 -1.47651,0 -2.51979,-0.442069 -1.04328,-0.442069 -1.6887,-1.308524 -0.65427,-0.866455 -0.94603,-2.148455 -0.29177,-1.290842 -0.29177,-2.9530214 0,-1.7152278 0.30061,-2.9795452 0.30061,-1.2643174 0.95487,-2.1396141 0.65426,-0.8664553 1.69754,-1.2996829 1.04329,-0.4332276 2.49327,-0.4332276 1.51188,0 2.53748,0.4509104 1.0256,0.442069 1.67986,1.326207 0.64542,0.8664553 0.93719,2.1396141 0.29176,1.2643174 0.29176,2.9264969 z m -3.42161,0 q 0,-2.3871727 -0.46859,-3.3950901 -0.4686,-1.0167587 -1.55609,-1.0167587 -1.08749,0 -1.55608,1.0167587 -0.46859,1.0079174 -0.46859,3.4127729 0,2.342966 0.47743,3.377407 0.47744,1.034442 1.54724,1.034442 1.06981,0 1.54725,-1.034442 0.47743,-1.034441 0.47743,-3.3950898 z" />
  </g>
</svg>
