<?xml version="1.0" encoding="UTF-8" standalone="no"?>
<svg
   xmlns:dc="http://purl.org/dc/elements/1.1/"
   xmlns:cc="http://creativecommons.org/ns#"
   xmlns:rdf="http://www.w3.org/1999/02/22-rdf-syntax-ns#"
   xmlns:svg="http://www.w3.org/2000/svg"
   xmlns="http://www.w3.org/2000/svg"
   xmlns:sodipodi="http://sodipodi.sourceforge.net/DTD/sodipodi-0.dtd"
   xmlns:inkscape="http://www.inkscape.org/namespaces/inkscape"
   width="95px"
   height="18px"
   viewBox="0 0 95 18"
   version="1.1"
   id="svg12"
   sodipodi:docname="system.svg"
   inkscape:version="0.92.4 (5da689c313, 2019-01-14)">
  <metadata
     id="metadata16">
    <rdf:RDF>
      <cc:Work
         rdf:about="">
        <dc:format>image/svg+xml</dc:format>
        <dc:type
           rdf:resource="http://purl.org/dc/dcmitype/StillImage" />
      </cc:Work>
    </rdf:RDF>
  </metadata>
  <sodipodi:namedview
     pagecolor="#ffffff"
     bordercolor="#666666"
     borderopacity="1"
     objecttolerance="10"
     gridtolerance="10"
     guidetolerance="10"
     inkscape:pageopacity="0"
     inkscape:pageshadow="2"
     inkscape:window-width="1920"
     inkscape:window-height="1018"
     id="namedview14"
     showgrid="false"
     inkscape:zoom="4"
     inkscape:cx="47.5"
     inkscape:cy="9"
     inkscape:window-x="-8"
     inkscape:window-y="-8"
     inkscape:window-maximized="1"
     inkscape:current-layer="svg12" />
  <!-- Generator: Sketch 45 (43475) - http://www.bohemiancoding.com/sketch -->
  <title
     id="title2">system</title>
  <desc
     id="desc4">Created with Sketch.</desc>
  <defs
     id="defs6" />
  <path
     style="fill:#ffffff;fill-rule:evenodd;stroke:none;stroke-width:1"
     inkscape:connector-curvature="0"
     id="PLAYSTATION-Copy"
     d="M 12.62,10.78 H 10.87 V 14 H 9.078 V 4.2 h 2.772 c 0.737337,0 1.341664,0.037333 1.813,0.112 0.471336,0.074667 0.900665,0.2193323 1.288,0.434 0.387335,0.2146677 0.667332,0.5296646 0.84,0.945 0.172668,0.4153354 0.259,0.95433 0.259,1.617 0,0.66267 -0.109666,1.2343309 -0.329,1.715 -0.219334,0.4806691 -0.510998,0.8423321 -0.875,1.085 -0.364002,0.242668 -0.727998,0.415333 -1.092,0.518 -0.364002,0.102667 -0.741998,0.154 -1.134,0.154 z M 12.34,5.698 H 10.87 V 9.1 h 1.512 c 0.66267,0 1.136332,-0.1329987 1.421,-0.399 C 14.087668,8.4349987 14.23,7.9753366 14.23,7.322 14.23,6.7433304 14.097001,6.3280013 13.831,6.076 13.564999,5.8239987 13.068004,5.698 12.34,5.698 Z M 23.246,14 H 17.422 V 4.2 h 1.792 v 8.064 h 4.032 z m 8.806,0 H 30.19 L 29.35,11.634 H 26.088 L 25.248,14 h -1.862 l 3.486,-9.8 h 1.694 z M 28.734,9.898 27.712,7.028 26.704,9.898 Z M 39.668,4.2 36.28,9.66 V 14 H 34.488 V 9.66 L 31.1,4.2 h 1.904 l 2.38,3.864 2.38,-3.864 z m 3.752,9.996 c -0.700004,0 -1.33933,-0.07 -1.918,-0.21 -0.57867,-0.140001 -1.021999,-0.307999 -1.33,-0.504 l 0.21,-2.044 c 0.298668,0.289335 0.716331,0.534332 1.253,0.735 0.536669,0.200668 1.145663,0.301 1.827,0.301 1.166672,0 1.75,-0.354663 1.75,-1.064 0,-0.196001 -0.04667,-0.373332 -0.14,-0.532 C 44.97867,10.719333 44.878334,10.588667 44.771,10.486 44.663666,10.383333 44.484001,10.273667 44.232,10.157 43.979999,10.040333 43.784001,9.9563336 43.644,9.905 43.503999,9.8536664 43.266002,9.7720006 42.93,9.66 42.640665,9.5666662 42.440001,9.4966669 42.328,9.45 L 41.768,9.212 C 41.506665,9.1093328 41.315334,9.0183337 41.194,8.939 41.072666,8.8596663 40.923334,8.7476674 40.746,8.603 40.568666,8.4583326 40.438,8.3113341 40.354,8.162 40.27,8.0126659 40.195334,7.833001 40.13,7.623 40.064666,7.412999 40.032,7.1866679 40.032,6.944 c 0,-0.7653372 0.28933,-1.4466637 0.868,-2.044 0.57867,-0.5973363 1.469994,-0.896 2.674,-0.896 0.625336,0 1.229664,0.079333 1.813,0.238 0.583336,0.1586675 1.019665,0.3313324 1.309,0.518 l -0.182,1.834 c -1.073339,-0.5880029 -2.029996,-0.882 -2.87,-0.882 -0.476002,0 -0.893665,0.079333 -1.253,0.238 -0.359335,0.1586675 -0.539,0.4246648 -0.539,0.798 0,0.3546684 0.163332,0.6276657 0.49,0.819 0.326668,0.1913343 0.82133,0.3896656 1.484,0.595 0.345335,0.1026672 0.608999,0.1866663 0.791,0.252 0.182001,0.065334 0.431665,0.1633327 0.749,0.294 0.317335,0.1306673 0.564666,0.2683326 0.742,0.413 0.177334,0.1446674 0.361666,0.321999 0.553,0.532 0.191334,0.210001 0.331333,0.457332 0.42,0.742 0.08867,0.284668 0.133,0.599665 0.133,0.945 0,0.261335 -0.02333,0.506332 -0.07,0.735 -0.04667,0.228668 -0.151666,0.478332 -0.315,0.749 -0.163334,0.270668 -0.377999,0.501666 -0.644,0.693 -0.266001,0.191334 -0.634664,0.352333 -1.106,0.483 -0.471336,0.130667 -1.02433,0.196 -1.659,0.196 z M 55.166,5.936 H 52.394 V 14 H 50.602 V 5.936 H 47.83 V 4.2 h 7.336 z M 63.342,14 H 61.48 L 60.64,11.634 H 57.378 L 56.538,14 h -1.862 l 3.486,-9.8 h 1.694 z M 60.024,9.898 59.002,7.028 57.994,9.898 Z M 70.188,5.936 H 67.416 V 14 H 65.624 V 5.936 H 62.852 V 4.2 h 7.336 z M 73.268,14 H 71.476 V 4.2 h 1.792 z m 6.398,0.196 c -1.418674,0 -2.578329,-0.468995 -3.479,-1.407 -0.900671,-0.938005 -1.351,-2.167659 -1.351,-3.689 0,-1.5213409 0.450329,-2.7509953 1.351,-3.689 0.900671,-0.9380047 2.060326,-1.407 3.479,-1.407 1.418674,0 2.578329,0.4689953 3.479,1.407 0.900671,0.9380047 1.351,2.1676591 1.351,3.689 0,1.521341 -0.450329,2.750995 -1.351,3.689 -0.900671,0.938005 -2.060326,1.407 -3.479,1.407 z m 0,-8.47 c -0.924005,0 -1.633331,0.3079969 -2.128,0.924 -0.494669,0.6160031 -0.742,1.4326616 -0.742,2.45 0,1.017338 0.247331,1.833997 0.742,2.45 0.494669,0.616003 1.203995,0.924 2.128,0.924 0.924005,0 1.633331,-0.307997 2.128,-0.924 0.494669,-0.616003 0.742,-1.432662 0.742,-2.45 0,-1.0173384 -0.247331,-1.8339969 -0.742,-2.45 C 81.299331,6.0339969 80.590005,5.726 79.666,5.726 Z M 93.806,14 h -1.47 L 87.856,7.28 V 14 H 86.064 V 4.2 h 1.764 l 4.186,6.328 V 4.2 h 1.792 z" />
</svg>
