<?xml version="1.0" encoding="UTF-8" standalone="no"?>
<svg
   xmlns:dc="http://purl.org/dc/elements/1.1/"
   xmlns:cc="http://creativecommons.org/ns#"
   xmlns:rdf="http://www.w3.org/1999/02/22-rdf-syntax-ns#"
   xmlns:svg="http://www.w3.org/2000/svg"
   xmlns="http://www.w3.org/2000/svg"
   xmlns:sodipodi="http://sodipodi.sourceforge.net/DTD/sodipodi-0.dtd"
   xmlns:inkscape="http://www.inkscape.org/namespaces/inkscape"
   width="64px"
   height="18px"
   viewBox="0 0 64 18"
   version="1.1"
   id="svg12"
   sodipodi:docname="system.svg"
   inkscape:version="0.92.4 (5da689c313, 2019-01-14)">
  <metadata
     id="metadata16">
    <rdf:RDF>
      <cc:Work
         rdf:about="">
        <dc:format>image/svg+xml</dc:format>
        <dc:type
           rdf:resource="http://purl.org/dc/dcmitype/StillImage" />
      </cc:Work>
    </rdf:RDF>
  </metadata>
  <sodipodi:namedview
     pagecolor="#ffffff"
     bordercolor="#666666"
     borderopacity="1"
     objecttolerance="10"
     gridtolerance="10"
     guidetolerance="10"
     inkscape:pageopacity="0"
     inkscape:pageshadow="2"
     inkscape:window-width="1920"
     inkscape:window-height="1018"
     id="namedview14"
     showgrid="false"
     inkscape:zoom="5.9375"
     inkscape:cx="32"
     inkscape:cy="9"
     inkscape:window-x="-8"
     inkscape:window-y="-8"
     inkscape:window-maximized="1"
     inkscape:current-layer="svg12" />
  <!-- Generator: Sketch 45 (43475) - http://www.bohemiancoding.com/sketch -->
  <title
     id="title2">system</title>
  <desc
     id="desc4">Created with Sketch.</desc>
  <defs
     id="defs6" />
  <path
     style="fill:#ffffff;fill-rule:evenodd;stroke:none;stroke-width:1"
     inkscape:connector-curvature="0"
     id="GENESIS-Copy"
     d="m 13.278,14.196 c -1.390674,0 -2.536329,-0.468995 -3.437,-1.407 C 8.9403288,11.850995 8.49,10.616674 8.49,9.086 c 0,-1.5213409 0.4526621,-2.748662 1.358,-3.682 0.905338,-0.933338 2.081326,-1.4 3.528,-1.4 0.494669,0 1.021997,0.053666 1.582,0.161 0.560003,0.1073339 1.012665,0.2449992 1.358,0.413 L 16.12,6.286 c -0.914671,-0.3733352 -1.815329,-0.56 -2.702,-0.56 -0.980005,0 -1.719664,0.3056636 -2.219,0.917 -0.499336,0.6113364 -0.749,1.4163283 -0.749,2.415 0,1.036005 0.261331,1.86433 0.784,2.485 0.522669,0.62067 1.278662,0.931 2.268,0.931 0.401335,0 0.849331,-0.05133 1.344,-0.154 V 10.57 H 13.768 V 9.086 h 2.87 v 4.368 c -0.354668,0.205334 -0.86333,0.380333 -1.526,0.525 -0.66267,0.144667 -1.273997,0.217 -1.834,0.217 z M 24.786,14 H 18.374 V 4.2 h 6.272 v 1.736 h -4.438 v 2.086 h 3.444 v 1.736 h -3.444 v 2.506 h 4.578 z m 9.282,0 h -1.47 L 28.118,7.28 V 14 H 26.326 V 4.2 h 1.764 l 4.186,6.328 V 4.2 h 1.792 z m 8.568,0 H 36.224 V 4.2 h 6.272 v 1.736 h -4.438 v 2.086 h 3.444 v 1.736 h -3.444 v 2.506 h 4.578 z m 4.382,0.196 c -0.700004,0 -1.33933,-0.07 -1.918,-0.21 -0.57867,-0.140001 -1.021999,-0.307999 -1.33,-0.504 l 0.21,-2.044 c 0.298668,0.289335 0.716331,0.534332 1.253,0.735 0.536669,0.200668 1.145663,0.301 1.827,0.301 1.166672,0 1.75,-0.354663 1.75,-1.064 0,-0.196001 -0.04667,-0.373332 -0.14,-0.532 C 48.57667,10.719333 48.476334,10.588667 48.369,10.486 48.261666,10.383333 48.082001,10.273667 47.83,10.157 47.577999,10.040333 47.382001,9.9563336 47.242,9.905 47.101999,9.8536664 46.864002,9.7720006 46.528,9.66 46.238665,9.5666662 46.038001,9.4966669 45.926,9.45 L 45.366,9.212 C 45.104665,9.1093328 44.913334,9.0183337 44.792,8.939 44.670666,8.8596663 44.521334,8.7476674 44.344,8.603 44.166666,8.4583326 44.036,8.3113341 43.952,8.162 43.868,8.0126659 43.793334,7.833001 43.728,7.623 43.662666,7.412999 43.63,7.1866679 43.63,6.944 c 0,-0.7653372 0.28933,-1.4466637 0.868,-2.044 0.57867,-0.5973363 1.469994,-0.896 2.674,-0.896 0.625336,0 1.229664,0.079333 1.813,0.238 0.583336,0.1586675 1.019665,0.3313324 1.309,0.518 l -0.182,1.834 c -1.073339,-0.5880029 -2.029996,-0.882 -2.87,-0.882 -0.476002,0 -0.893665,0.079333 -1.253,0.238 -0.359335,0.1586675 -0.539,0.4246648 -0.539,0.798 0,0.3546684 0.163332,0.6276657 0.49,0.819 0.326668,0.1913343 0.82133,0.3896656 1.484,0.595 0.345335,0.1026672 0.608999,0.1866663 0.791,0.252 0.182001,0.065334 0.431665,0.1633327 0.749,0.294 0.317335,0.1306673 0.564666,0.2683326 0.742,0.413 0.177334,0.1446674 0.361666,0.321999 0.553,0.532 0.191334,0.210001 0.331333,0.457332 0.42,0.742 0.08867,0.284668 0.133,0.599665 0.133,0.945 0,0.261335 -0.02333,0.506332 -0.07,0.735 -0.04667,0.228668 -0.151666,0.478332 -0.315,0.749 -0.163334,0.270668 -0.377999,0.501666 -0.644,0.693 -0.266001,0.191334 -0.634664,0.352333 -1.106,0.483 -0.471336,0.130667 -1.02433,0.196 -1.659,0.196 z M 54.088,14 H 52.296 V 4.2 h 1.792 z m 4.998,0.196 c -0.700004,0 -1.33933,-0.07 -1.918,-0.21 -0.57867,-0.140001 -1.021999,-0.307999 -1.33,-0.504 l 0.21,-2.044 c 0.298668,0.289335 0.716331,0.534332 1.253,0.735 0.536669,0.200668 1.145663,0.301 1.827,0.301 1.166672,0 1.75,-0.354663 1.75,-1.064 0,-0.196001 -0.04667,-0.373332 -0.14,-0.532 C 60.64467,10.719333 60.544334,10.588667 60.437,10.486 60.329666,10.383333 60.150001,10.273667 59.898,10.157 59.645999,10.040333 59.450001,9.9563336 59.31,9.905 59.169999,9.8536664 58.932002,9.7720006 58.596,9.66 58.306665,9.5666662 58.106001,9.4966669 57.994,9.45 L 57.434,9.212 C 57.172665,9.1093328 56.981334,9.0183337 56.86,8.939 56.738666,8.8596663 56.589334,8.7476674 56.412,8.603 56.234666,8.4583326 56.104,8.3113341 56.02,8.162 55.936,8.0126659 55.861334,7.833001 55.796,7.623 55.730666,7.412999 55.698,7.1866679 55.698,6.944 c 0,-0.7653372 0.28933,-1.4466637 0.868,-2.044 0.57867,-0.5973363 1.469994,-0.896 2.674,-0.896 0.625336,0 1.229664,0.079333 1.813,0.238 0.583336,0.1586675 1.019665,0.3313324 1.309,0.518 L 62.18,6.594 C 61.106661,6.0059971 60.150004,5.712 59.31,5.712 c -0.476002,0 -0.893665,0.079333 -1.253,0.238 -0.359335,0.1586675 -0.539,0.4246648 -0.539,0.798 0,0.3546684 0.163332,0.6276657 0.49,0.819 0.326668,0.1913343 0.82133,0.3896656 1.484,0.595 0.345335,0.1026672 0.608999,0.1866663 0.791,0.252 0.182001,0.065334 0.431665,0.1633327 0.749,0.294 0.317335,0.1306673 0.564666,0.2683326 0.742,0.413 0.177334,0.1446674 0.361666,0.321999 0.553,0.532 0.191334,0.210001 0.331333,0.457332 0.42,0.742 0.08867,0.284668 0.133,0.599665 0.133,0.945 0,0.261335 -0.02333,0.506332 -0.07,0.735 -0.04667,0.228668 -0.151666,0.478332 -0.315,0.749 -0.163334,0.270668 -0.377999,0.501666 -0.644,0.693 -0.266001,0.191334 -0.634664,0.352333 -1.106,0.483 -0.471336,0.130667 -1.02433,0.196 -1.659,0.196 z" />
</svg>
