<?xml version="1.0" encoding="UTF-8" standalone="no"?>
<svg
   xmlns:dc="http://purl.org/dc/elements/1.1/"
   xmlns:cc="http://creativecommons.org/ns#"
   xmlns:rdf="http://www.w3.org/1999/02/22-rdf-syntax-ns#"
   xmlns:svg="http://www.w3.org/2000/svg"
   xmlns="http://www.w3.org/2000/svg"
   xmlns:sodipodi="http://sodipodi.sourceforge.net/DTD/sodipodi-0.dtd"
   xmlns:inkscape="http://www.inkscape.org/namespaces/inkscape"
   width="132px"
   height="18px"
   viewBox="0 0 132 18"
   version="1.1"
   id="svg12"
   sodipodi:docname="system.svg"
   inkscape:version="0.92.4 (5da689c313, 2019-01-14)">
  <metadata
     id="metadata16">
    <rdf:RDF>
      <cc:Work
         rdf:about="">
        <dc:format>image/svg+xml</dc:format>
        <dc:type
           rdf:resource="http://purl.org/dc/dcmitype/StillImage" />
        <dc:title>system</dc:title>
      </cc:Work>
    </rdf:RDF>
  </metadata>
  <sodipodi:namedview
     pagecolor="#ffffff"
     bordercolor="#666666"
     borderopacity="1"
     objecttolerance="10"
     gridtolerance="10"
     guidetolerance="10"
     inkscape:pageopacity="0"
     inkscape:pageshadow="2"
     inkscape:window-width="1920"
     inkscape:window-height="1018"
     id="namedview14"
     showgrid="false"
     inkscape:zoom="2.8787879"
     inkscape:cx="1.9105268"
     inkscape:cy="9.0000001"
     inkscape:window-x="-8"
     inkscape:window-y="-8"
     inkscape:window-maximized="1"
     inkscape:current-layer="svg12" />
  <!-- Generator: Sketch 45 (43475) - http://www.bohemiancoding.com/sketch -->
  <title
     id="title2">system</title>
  <desc
     id="desc4">Created with Sketch.</desc>
  <defs
     id="defs6" />
  <g
     id="g820">
    <g
       aria-label="SUFAMI"
       style="font-style:normal;font-variant:normal;font-weight:normal;font-stretch:normal;font-size:21.61713409px;line-height:1.25;font-family:sans-serif;-inkscape-font-specification:sans-serif;letter-spacing:0px;word-spacing:0px;fill:#ffffff;fill-opacity:1;stroke:none;stroke-width:0.54042828"
       id="text816">
      <path
         d="m 31.1131,12.296292 q 0,2.322153 -1.97383,3.778776 -1.963275,1.446069 -5.340952,1.446069 -1.95272,0 -3.409343,-0.337768 -1.446068,-0.348323 -2.712697,-0.876085 v -3.768221 h 0.44332 q 1.256074,1.002748 2.807694,1.541065 1.562176,0.538317 2.997689,0.538317 0.369433,0 0.971082,-0.06333 0.601649,-0.06333 0.981638,-0.211105 0.46443,-0.189994 0.759977,-0.474986 0.306102,-0.284991 0.306102,-0.844419 0,-0.517207 -0.44332,-0.886641 -0.432765,-0.379988 -1.277184,-0.580538 -0.886641,-0.211105 -1.878833,-0.390544 -0.981638,-0.189994 -1.847168,-0.474986 -1.984385,-0.643869 -2.86047,-1.7416144 -0.86553,-1.1083003 -0.86553,-2.7443627 0,-2.1954902 1.963275,-3.5782268 1.97383,-1.3932918 5.066516,-1.3932918 1.55162,0 3.06102,0.306102 1.519955,0.2955467 2.628255,0.7494221 V 5.9103712 H 30.057576 Q 29.107604,5.1503938 27.724868,4.6437422 26.352686,4.1265354 24.917174,4.1265354 q -0.506652,0 -1.013304,0.073887 -0.496096,0.063331 -0.960526,0.2533258 -0.411655,0.1583286 -0.707202,0.4855411 -0.295546,0.3166572 -0.295546,0.7283116 0,0.6227592 0.474985,0.960527 0.474986,0.3272124 1.794391,0.6016487 0.86553,0.1794391 1.657173,0.348323 0.802199,0.1688838 1.720505,0.4644306 1.804946,0.5910935 2.65992,1.6149519 0.86553,1.0133029 0.86553,2.6388099 z"
         style="font-style:normal;font-variant:normal;font-weight:bold;font-stretch:normal;font-family:sans-serif;-inkscape-font-specification:'sans-serif Bold';fill:#ffffff;stroke-width:0.54042828"
         id="path822"
         inkscape:connector-curvature="0" />
      <path
         d="m 47.663718,11.54687 q 0,2.913247 -1.77328,4.464867 -1.773281,1.55162 -5.224845,1.55162 -3.451563,0 -5.224844,-1.55162 -1.762725,-1.55162 -1.762725,-4.454312 V 1.5193908 h 4.074323 V 11.32521 q 0,1.636062 0.686091,2.438261 0.68609,0.802198 2.227155,0.802198 1.519955,0 2.216601,-0.770533 0.707201,-0.770532 0.707201,-2.469926 V 1.5193908 h 4.074323 z"
         style="font-style:normal;font-variant:normal;font-weight:bold;font-stretch:normal;font-family:sans-serif;-inkscape-font-specification:'sans-serif Bold';fill:#ffffff;stroke-width:0.54042828"
         id="path824"
         inkscape:connector-curvature="0" />
      <path
         d="m 62.726045,4.5593003 h -7.23034 v 2.9238018 h 6.702578 v 3.0399099 h -6.702578 v 6.713133 H 51.463603 V 1.5193908 h 11.262442 z"
         style="font-style:normal;font-variant:normal;font-weight:bold;font-stretch:normal;font-family:sans-serif;-inkscape-font-specification:'sans-serif Bold';fill:#ffffff;stroke-width:0.54042828"
         id="path826"
         inkscape:connector-curvature="0" />
      <path
         d="m 80.0472,17.236145 h -4.19043 l -1.08719,-3.177128 h -5.826493 l -1.08719,3.177128 H 63.771018 L 69.576401,1.5193908 h 4.665417 z M 73.787942,11.177437 71.856333,5.5409377 69.924724,11.177437 Z"
         style="font-style:normal;font-variant:normal;font-weight:bold;font-stretch:normal;font-family:sans-serif;-inkscape-font-specification:'sans-serif Bold';fill:#ffffff;stroke-width:0.54042828"
         id="path828"
         inkscape:connector-curvature="0" />
      <path
         d="M 98.80386,17.236145 H 94.771758 V 6.7125695 L 91.858511,13.541811 H 89.061372 L 86.148126,6.7125695 V 17.236145 H 82.327128 V 1.5193908 h 4.707638 l 3.536006,7.8847652 3.52545,-7.8847652 h 4.707638 z"
         style="font-style:normal;font-variant:normal;font-weight:bold;font-stretch:normal;font-family:sans-serif;-inkscape-font-specification:'sans-serif Bold';fill:#ffffff;stroke-width:0.54042828"
         id="path830"
         inkscape:connector-curvature="0" />
      <path
         d="m 111.30126,17.236145 h -9.20417 v -2.786584 h 2.57548 V 4.3059745 h -2.57548 V 1.5193908 h 9.20417 v 2.7865837 h -2.57548 V 14.449561 h 2.57548 z"
         style="font-style:normal;font-variant:normal;font-weight:bold;font-stretch:normal;font-family:sans-serif;-inkscape-font-specification:'sans-serif Bold';fill:#ffffff;stroke-width:0.54042828"
         id="path832"
         inkscape:connector-curvature="0" />
    </g>
  </g>
</svg>
