<?xml version="1.0" encoding="UTF-8" standalone="no"?>
<svg
   xmlns:dc="http://purl.org/dc/elements/1.1/"
   xmlns:cc="http://creativecommons.org/ns#"
   xmlns:rdf="http://www.w3.org/1999/02/22-rdf-syntax-ns#"
   xmlns:svg="http://www.w3.org/2000/svg"
   xmlns="http://www.w3.org/2000/svg"
   xmlns:sodipodi="http://sodipodi.sourceforge.net/DTD/sodipodi-0.dtd"
   xmlns:inkscape="http://www.inkscape.org/namespaces/inkscape"
   width="83px"
   height="18px"
   viewBox="0 0 83 18"
   version="1.1"
   id="svg12"
   sodipodi:docname="system.svg"
   inkscape:version="0.92.4 (5da689c313, 2019-01-14)">
  <metadata
     id="metadata16">
    <rdf:RDF>
      <cc:Work
         rdf:about="">
        <dc:format>image/svg+xml</dc:format>
        <dc:type
           rdf:resource="http://purl.org/dc/dcmitype/StillImage" />
        <dc:title>system</dc:title>
      </cc:Work>
    </rdf:RDF>
  </metadata>
  <sodipodi:namedview
     pagecolor="#ffffff"
     bordercolor="#666666"
     borderopacity="1"
     objecttolerance="10"
     gridtolerance="10"
     guidetolerance="10"
     inkscape:pageopacity="0"
     inkscape:pageshadow="2"
     inkscape:window-width="1920"
     inkscape:window-height="1018"
     id="namedview14"
     showgrid="false"
     inkscape:zoom="4.5783133"
     inkscape:cx="-33.656494"
     inkscape:cy="9.0000002"
     inkscape:window-x="-8"
     inkscape:window-y="-8"
     inkscape:window-maximized="1"
     inkscape:current-layer="svg12" />
  <!-- Generator: Sketch 45 (43475) - http://www.bohemiancoding.com/sketch -->
  <title
     id="title2">system</title>
  <desc
     id="desc4">Created with Sketch.</desc>
  <defs
     id="defs6" />
  <g
     id="g836">
    <g
       id="g831">
      <g
         aria-label="NINTENDO MAME"
         style="font-style:normal;font-variant:normal;font-weight:normal;font-stretch:normal;font-size:7.84552193px;line-height:1.25;font-family:sans-serif;-inkscape-font-specification:sans-serif;letter-spacing:0px;word-spacing:0px;fill:#ffffff;fill-opacity:1;stroke:none;stroke-width:0.58841419"
         id="text825">
        <path
           d="M 9.0791802,11.748857 H 7.6617764 L 5.2406974,7.8337572 V 11.748857 H 3.8922483 V 6.0447637 h 1.7583469 l 2.080136,3.2676905 V 6.0447637 h 1.348449 z"
           style="font-style:normal;font-variant:normal;font-weight:bold;font-stretch:normal;font-family:sans-serif;-inkscape-font-specification:'sans-serif Bold';fill:#ffffff;stroke-width:0.58841419"
           id="path838"
           inkscape:connector-curvature="0" />
        <path
           d="M 13.626365,11.748857 H 10.285889 V 10.73752 h 0.93472 V 7.0561005 h -0.93472 V 6.0447637 h 3.340476 v 1.0113368 h -0.93472 V 10.73752 h 0.93472 z"
           style="font-style:normal;font-variant:normal;font-weight:bold;font-stretch:normal;font-family:sans-serif;-inkscape-font-specification:'sans-serif Bold';fill:#ffffff;stroke-width:0.58841419"
           id="path840"
           inkscape:connector-curvature="0" />
        <path
           d="M 20.020006,11.748857 H 18.602602 L 16.181523,7.8337572 V 11.748857 H 14.833074 V 6.0447637 h 1.758347 l 2.080136,3.2676905 V 6.0447637 h 1.348449 z"
           style="font-style:normal;font-variant:normal;font-weight:bold;font-stretch:normal;font-family:sans-serif;-inkscape-font-specification:'sans-serif Bold';fill:#ffffff;stroke-width:0.58841419"
           id="path842"
           inkscape:connector-curvature="0" />
        <path
           d="M 25.946286,7.1480402 H 24.164954 V 11.748857 H 22.693919 V 7.1480402 H 20.912587 V 6.0447637 h 5.033699 z"
           style="font-style:normal;font-variant:normal;font-weight:bold;font-stretch:normal;font-family:sans-serif;-inkscape-font-specification:'sans-serif Bold';fill:#ffffff;stroke-width:0.58841419"
           id="path844"
           inkscape:connector-curvature="0" />
        <path
           d="M 30.957,11.748857 H 26.831205 V 6.0447637 H 30.957 v 1.1032765 h -2.662421 v 0.9845211 h 2.47088 v 1.1032765 h -2.47088 V 10.64558 H 30.957 Z"
           style="font-style:normal;font-variant:normal;font-weight:bold;font-stretch:normal;font-family:sans-serif;-inkscape-font-specification:'sans-serif Bold';fill:#ffffff;stroke-width:0.58841419"
           id="path846"
           inkscape:connector-curvature="0" />
        <path
           d="M 37.381287,11.748857 H 35.963883 L 33.542804,7.8337572 V 11.748857 H 32.194355 V 6.0447637 h 1.758347 l 2.080136,3.2676905 V 6.0447637 h 1.348449 z"
           style="font-style:normal;font-variant:normal;font-weight:bold;font-stretch:normal;font-family:sans-serif;-inkscape-font-specification:'sans-serif Bold';fill:#ffffff;stroke-width:0.58841419"
           id="path848"
           inkscape:connector-curvature="0" />
        <path
           d="m 44.234625,8.9025564 q 0,0.7968108 -0.363928,1.4288966 -0.363928,0.628254 -0.919397,0.965367 -0.417559,0.252834 -0.915566,0.352435 -0.498007,0.0996 -1.179893,0.0996 H 38.84466 V 6.0447637 h 2.068643 q 0.69721,0 1.202878,0.1187555 0.505669,0.1149246 0.850443,0.3294506 0.589946,0.3600972 0.927058,0.9730286 0.340943,0.6091006 0.340943,1.436558 z m -1.520836,-0.011492 q 0,-0.5631307 -0.206864,-0.9615361 Q 42.303892,7.5272915 41.859516,7.3012731 41.633498,7.1901793 41.395987,7.151871 41.162307,7.109732 40.687285,7.109732 h -0.37159 v 3.570325 h 0.37159 q 0.524822,0 0.769995,-0.04597 0.245173,-0.0498 0.478853,-0.176218 0.402236,-0.229849 0.589946,-0.6129316 0.18771,-0.386913 0.18771,-0.9538745 z"
           style="font-style:normal;font-variant:normal;font-weight:bold;font-stretch:normal;font-family:sans-serif;-inkscape-font-specification:'sans-serif Bold';fill:#ffffff;stroke-width:0.58841419"
           id="path850"
           inkscape:connector-curvature="0" />
        <path
           d="m 50.904087,8.8987255 q 0,1.3637725 -0.781488,2.1682445 -0.781487,0.800642 -2.160583,0.800642 -1.375265,0 -2.156752,-0.800642 -0.781488,-0.804472 -0.781488,-2.1682445 0,-1.3752648 0.781488,-2.1720756 0.781487,-0.8006417 2.156752,-0.8006417 1.371434,0 2.156753,0.8006417 0.785318,0.7968108 0.785318,2.1720756 z m -1.949888,1.4442195 q 0.214526,-0.260496 0.317958,-0.6129313 0.103432,-0.3562663 0.103432,-0.835119 0,-0.51333 -0.118755,-0.8734272 Q 49.138078,7.6613703 48.946537,7.4391826 48.751165,7.2093334 48.4945,7.1059012 48.241666,7.002469 47.965847,7.002469 q -0.27965,0 -0.528653,0.099601 -0.245173,0.099601 -0.452037,0.3294506 -0.191541,0.214526 -0.314128,0.5937773 -0.118755,0.3754205 -0.118755,0.8734272 0,0.5094993 0.114925,0.8695965 0.118755,0.3562664 0.310296,0.5822854 0.191541,0.226018 0.448206,0.333281 0.256665,0.107263 0.540146,0.107263 0.283481,0 0.540146,-0.107263 0.256665,-0.111094 0.448206,-0.340943 z"
           style="font-style:normal;font-variant:normal;font-weight:bold;font-stretch:normal;font-family:sans-serif;-inkscape-font-specification:'sans-serif Bold';fill:#ffffff;stroke-width:0.58841419"
           id="path852"
           inkscape:connector-curvature="0" />
        <path
           d="M 60.684172,11.748857 H 59.220798 V 7.9295278 L 58.163492,10.408069 H 57.148324 L 56.091017,7.9295278 V 11.748857 H 54.70426 V 6.0447637 h 1.708546 l 1.283325,2.8616235 1.279495,-2.8616235 h 1.708546 z"
           style="font-style:normal;font-variant:normal;font-weight:bold;font-stretch:normal;font-family:sans-serif;-inkscape-font-specification:'sans-serif Bold';fill:#ffffff;stroke-width:0.58841419"
           id="path854"
           inkscape:connector-curvature="0" />
        <path
           d="m 67.407263,11.748857 h -1.520836 l -0.394574,-1.153078 h -2.114614 l -0.394574,1.153078 h -1.482528 l 2.106952,-5.7040933 h 1.693223 z m -2.271677,-2.1988919 -0.70104,-2.0456585 -0.70104,2.0456585 z"
           style="font-style:normal;font-variant:normal;font-weight:bold;font-stretch:normal;font-family:sans-serif;-inkscape-font-specification:'sans-serif Bold';fill:#ffffff;stroke-width:0.58841419"
           id="path856"
           inkscape:connector-curvature="0" />
        <path
           d="M 74.214636,11.748857 H 72.751262 V 7.9295278 L 71.693956,10.408069 H 70.678788 L 69.621481,7.9295278 V 11.748857 H 68.234724 V 6.0447637 h 1.708546 l 1.283326,2.8616235 1.279494,-2.8616235 h 1.708546 z"
           style="font-style:normal;font-variant:normal;font-weight:bold;font-stretch:normal;font-family:sans-serif;-inkscape-font-specification:'sans-serif Bold';fill:#ffffff;stroke-width:0.58841419"
           id="path858"
           inkscape:connector-curvature="0" />
        <path
           d="M 79.792312,11.748857 H 75.666517 V 6.0447637 h 4.125795 v 1.1032765 h -2.662421 v 0.9845211 h 2.47088 v 1.1032765 h -2.47088 V 10.64558 h 2.662421 z"
           style="font-style:normal;font-variant:normal;font-weight:bold;font-stretch:normal;font-family:sans-serif;-inkscape-font-specification:'sans-serif Bold';fill:#ffffff;stroke-width:0.58841419"
           id="path860"
           inkscape:connector-curvature="0" />
      </g>
    </g>
  </g>
</svg>
