<?xml version="1.0" encoding="UTF-8" standalone="no"?>
<svg
   xmlns:dc="http://purl.org/dc/elements/1.1/"
   xmlns:cc="http://creativecommons.org/ns#"
   xmlns:rdf="http://www.w3.org/1999/02/22-rdf-syntax-ns#"
   xmlns:svg="http://www.w3.org/2000/svg"
   xmlns="http://www.w3.org/2000/svg"
   xmlns:sodipodi="http://sodipodi.sourceforge.net/DTD/sodipodi-0.dtd"
   xmlns:inkscape="http://www.inkscape.org/namespaces/inkscape"
   width="132px"
   height="18px"
   viewBox="0 0 132 18"
   version="1.1"
   id="svg12"
   sodipodi:docname="system.svg"
   inkscape:version="0.92.4 (5da689c313, 2019-01-14)">
  <metadata
     id="metadata16">
    <rdf:RDF>
      <cc:Work
         rdf:about="">
        <dc:format>image/svg+xml</dc:format>
        <dc:type
           rdf:resource="http://purl.org/dc/dcmitype/StillImage" />
        <dc:title>system</dc:title>
      </cc:Work>
    </rdf:RDF>
  </metadata>
  <sodipodi:namedview
     pagecolor="#ffffff"
     bordercolor="#666666"
     borderopacity="1"
     objecttolerance="10"
     gridtolerance="10"
     guidetolerance="10"
     inkscape:pageopacity="0"
     inkscape:pageshadow="2"
     inkscape:window-width="1920"
     inkscape:window-height="1018"
     id="namedview14"
     showgrid="false"
     inkscape:zoom="2.8787879"
     inkscape:cx="66"
     inkscape:cy="9.0000001"
     inkscape:window-x="-8"
     inkscape:window-y="-8"
     inkscape:window-maximized="1"
     inkscape:current-layer="svg12" />
  <!-- Generator: Sketch 45 (43475) - http://www.bohemiancoding.com/sketch -->
  <title
     id="title2">system</title>
  <desc
     id="desc4">Created with Sketch.</desc>
  <defs
     id="defs6" />
  <g
     id="g820">
    <g
       aria-label="MOONLIGHT"
       style="font-style:normal;font-variant:normal;font-weight:normal;font-stretch:normal;font-size:17.89094925px;line-height:1.25;font-family:sans-serif;-inkscape-font-specification:sans-serif;letter-spacing:0px;word-spacing:0px;fill:#ffffff;fill-opacity:1;stroke:none;stroke-width:0.44727376"
       id="text816">
      <path
         d="M 18.45169,16.011992 H 15.114609 V 7.3023839 L 12.703524,12.954456 H 10.388533 L 7.9774476,7.3023839 V 16.011992 H 4.8150826 V 3.0043629 h 3.8961735 l 2.9264979,6.5256538 2.917762,-6.5256538 h 3.896174 z"
         style="font-style:normal;font-variant:normal;font-weight:bold;font-stretch:normal;font-family:sans-serif;-inkscape-font-specification:'sans-serif Bold';fill:#ffffff;stroke-width:0.44727376"
         id="path822"
         inkscape:connector-curvature="0" />
      <path
         d="m 34.412024,9.5125451 q 0,3.1099499 -1.782106,4.9444709 -1.782107,1.825786 -4.927,1.825786 -3.136158,0 -4.918264,-1.825786 -1.782106,-1.834521 -1.782106,-4.9444709 0,-3.1361576 1.782106,-4.9532071 1.782106,-1.8257854 4.918264,-1.8257854 3.127422,0 4.918264,1.8257854 1.790842,1.8170495 1.790842,4.9532071 z m -4.44653,3.2934019 q 0.489206,-0.594035 0.725073,-1.39773 0.235867,-0.812431 0.235867,-1.9044077 0,-1.1705992 -0.270811,-1.9917659 -0.27081,-0.8211666 -0.707601,-1.3278438 -0.445526,-0.5241489 -1.030826,-0.760016 -0.576564,-0.235867 -1.205542,-0.235867 -0.637715,0 -1.205543,0.2271312 -0.559092,0.2271312 -1.030826,0.7512801 -0.436791,0.4892057 -0.716337,1.3540514 -0.27081,0.8561098 -0.27081,1.9917658 0,1.1618629 0.262074,1.9830299 0.270811,0.812431 0.707602,1.327844 0.43679,0.515413 1.02209,0.760016 0.585299,0.244603 1.23175,0.244603 0.64645,0 1.23175,-0.244603 0.585299,-0.253339 1.02209,-0.777488 z"
         style="font-style:normal;font-variant:normal;font-weight:bold;font-stretch:normal;font-family:sans-serif;-inkscape-font-specification:'sans-serif Bold';fill:#ffffff;stroke-width:0.44727376"
         id="path824"
         inkscape:connector-curvature="0" />
      <path
         d="m 49.612343,9.5125451 q 0,3.1099499 -1.782106,4.9444709 -1.782106,1.825786 -4.927,1.825786 -3.136157,0 -4.918264,-1.825786 -1.782106,-1.834521 -1.782106,-4.9444709 0,-3.1361576 1.782106,-4.9532071 1.782107,-1.8257854 4.918264,-1.8257854 3.127422,0 4.918264,1.8257854 1.790842,1.8170495 1.790842,4.9532071 z m -4.44653,3.2934019 q 0.489206,-0.594035 0.725073,-1.39773 0.235867,-0.812431 0.235867,-1.9044077 0,-1.1705992 -0.27081,-1.9917659 -0.27081,-0.8211666 -0.707601,-1.3278438 -0.445527,-0.5241489 -1.030826,-0.760016 -0.576564,-0.235867 -1.205543,-0.235867 -0.637714,0 -1.205542,0.2271312 -0.559093,0.2271312 -1.030827,0.7512801 -0.43679,0.4892057 -0.716336,1.3540514 -0.270811,0.8561098 -0.270811,1.9917658 0,1.1618629 0.262075,1.9830299 0.27081,0.812431 0.707601,1.327844 0.436791,0.515413 1.02209,0.760016 0.5853,0.244603 1.23175,0.244603 0.64645,0 1.23175,-0.244603 0.5853,-0.253339 1.02209,-0.777488 z"
         style="font-style:normal;font-variant:normal;font-weight:bold;font-stretch:normal;font-family:sans-serif;-inkscape-font-specification:'sans-serif Bold';fill:#ffffff;stroke-width:0.44727376"
         id="path826"
         inkscape:connector-curvature="0" />
      <path
         d="M 63.991494,16.011992 H 60.759242 L 55.238207,7.0839885 V 16.011992 H 52.1632 V 3.0043629 h 4.00974 l 4.743547,7.4516501 V 3.0043629 h 3.075007 z"
         style="font-style:normal;font-variant:normal;font-weight:bold;font-stretch:normal;font-family:sans-serif;-inkscape-font-specification:'sans-serif Bold';fill:#ffffff;stroke-width:0.44727376"
         id="path828"
         inkscape:connector-curvature="0" />
      <path
         d="M 76.710841,16.011992 H 67.328575 V 3.0043629 h 3.354553 V 13.496077 h 6.027713 z"
         style="font-style:normal;font-variant:normal;font-weight:bold;font-stretch:normal;font-family:sans-serif;-inkscape-font-specification:'sans-serif Bold';fill:#ffffff;stroke-width:0.44727376"
         id="path830"
         inkscape:connector-curvature="0" />
      <path
         d="m 85.752412,16.011992 h -7.61763 v -2.306256 h 2.131539 V 5.310618 H 78.134782 V 3.0043629 h 7.61763 V 5.310618 h -2.131538 v 8.395118 h 2.131538 z"
         style="font-style:normal;font-variant:normal;font-weight:bold;font-stretch:normal;font-family:sans-serif;-inkscape-font-specification:'sans-serif Bold';fill:#ffffff;stroke-width:0.44727376"
         id="path832"
         inkscape:connector-curvature="0" />
      <path
         d="m 100.00926,15.269447 q -0.873581,0.340697 -2.31499,0.681394 -1.44141,0.331961 -2.874083,0.331961 -3.31961,0 -5.19781,-1.799578 -1.878201,-1.808314 -1.878201,-4.9881505 0,-3.0313279 1.895672,-4.8833207 1.895672,-1.8607286 5.285168,-1.8607286 1.284165,0 2.446029,0.235867 1.161863,0.2271312 2.585801,0.9172606 v 3.0487995 h -0.37564 Q 99.336603,6.7694992 98.864869,6.4375382 98.393135,6.0968414 97.956344,5.8609744 97.449667,5.5814283 96.768273,5.3805046 96.095616,5.1795808 95.3356,5.1795808 q -0.891053,0 -1.616126,0.2620745 -0.725073,0.2620744 -1.301636,0.803695 -0.550357,0.5241489 -0.873582,1.3365797 -0.314489,0.803695 -0.314489,1.8607286 0,2.1577464 1.144391,3.3021384 1.144392,1.144391 3.380761,1.144391 0.192188,0 0.419319,-0.0087 0.235867,-0.0087 0.428055,-0.02621 V 11.303387 H 94.007756 V 8.8486231 h 6.001504 z"
         style="font-style:normal;font-variant:normal;font-weight:bold;font-stretch:normal;font-family:sans-serif;-inkscape-font-specification:'sans-serif Bold';fill:#ffffff;stroke-width:0.44727376"
         id="path834"
         inkscape:connector-curvature="0" />
      <path
         d="m 114.66796,16.011992 h -3.35456 v -5.730695 h -4.95321 v 5.730695 h -3.35455 V 3.0043629 h 3.35455 v 4.7610192 h 4.95321 V 3.0043629 h 3.35456 z"
         style="font-style:normal;font-variant:normal;font-weight:bold;font-stretch:normal;font-family:sans-serif;-inkscape-font-specification:'sans-serif Bold';fill:#ffffff;stroke-width:0.44727376"
         id="path836"
         inkscape:connector-curvature="0" />
      <path
         d="m 128.17353,5.5202776 h -4.06216 V 16.011992 h -3.35455 V 5.5202776 h -4.06215 V 3.0043629 h 11.47886 z"
         style="font-style:normal;font-variant:normal;font-weight:bold;font-stretch:normal;font-family:sans-serif;-inkscape-font-specification:'sans-serif Bold';fill:#ffffff;stroke-width:0.44727376"
         id="path838"
         inkscape:connector-curvature="0" />
    </g>
  </g>
</svg>
