<?xml version="1.0" encoding="UTF-8" standalone="no"?>
<svg
   xmlns:dc="http://purl.org/dc/elements/1.1/"
   xmlns:cc="http://creativecommons.org/ns#"
   xmlns:rdf="http://www.w3.org/1999/02/22-rdf-syntax-ns#"
   xmlns:svg="http://www.w3.org/2000/svg"
   xmlns="http://www.w3.org/2000/svg"
   xmlns:sodipodi="http://sodipodi.sourceforge.net/DTD/sodipodi-0.dtd"
   xmlns:inkscape="http://www.inkscape.org/namespaces/inkscape"
   width="159px"
   height="18px"
   viewBox="0 0 159 18"
   version="1.1"
   id="svg12"
   sodipodi:docname="system.svg"
   inkscape:version="0.92.4 (5da689c313, 2019-01-14)">
  <metadata
     id="metadata16">
    <rdf:RDF>
      <cc:Work
         rdf:about="">
        <dc:format>image/svg+xml</dc:format>
        <dc:type
           rdf:resource="http://purl.org/dc/dcmitype/StillImage" />
      </cc:Work>
    </rdf:RDF>
  </metadata>
  <sodipodi:namedview
     pagecolor="#ffffff"
     bordercolor="#666666"
     borderopacity="1"
     objecttolerance="10"
     gridtolerance="10"
     guidetolerance="10"
     inkscape:pageopacity="0"
     inkscape:pageshadow="2"
     inkscape:window-width="1920"
     inkscape:window-height="1018"
     id="namedview14"
     showgrid="false"
     inkscape:zoom="2.3899371"
     inkscape:cx="79.5"
     inkscape:cy="9"
     inkscape:window-x="-8"
     inkscape:window-y="-8"
     inkscape:window-maximized="1"
     inkscape:current-layer="svg12" />
  <!-- Generator: Sketch 45 (43475) - http://www.bohemiancoding.com/sketch -->
  <title
     id="title2">system</title>
  <desc
     id="desc4">Created with Sketch.</desc>
  <defs
     id="defs6" />
  <path
     style="fill:#ffffff;fill-rule:evenodd;stroke:none;stroke-width:1"
     inkscape:connector-curvature="0"
     id="FAMICOM-DISK-SYSTEM-Copy"
     d="M 15.112,5.936 H 10.87 v 2.086 h 3.276 V 9.758 H 10.87 V 14 H 9.078 V 4.2 h 6.034 z M 23.316,14 h -1.862 l -0.84,-2.366 H 17.352 L 16.512,14 H 14.65 L 18.136,4.2 H 19.83 Z M 19.998,9.898 18.976,7.028 17.968,9.898 Z M 34.404,14 H 32.542 L 31.702,7.434 29.196,11.942 26.676,7.448 25.836,14 h -1.862 l 1.358,-9.8 h 1.47 l 2.394,4.466 2.38,-4.466 h 1.47 z m 3.416,0 H 36.028 V 4.2 h 1.792 z m 6.398,0.196 c -1.418674,0 -2.578329,-0.468995 -3.479,-1.407 -0.900671,-0.938005 -1.351,-2.167659 -1.351,-3.689 0,-1.5213409 0.450329,-2.7509953 1.351,-3.689 0.900671,-0.9380047 2.060326,-1.407 3.479,-1.407 1.073339,0 2.001996,0.1913314 2.786,0.574 l -0.196,1.708 c -0.942671,-0.3733352 -1.805996,-0.56 -2.59,-0.56 -0.924005,0 -1.633331,0.3079969 -2.128,0.924 -0.494669,0.6160031 -0.742,1.4326616 -0.742,2.45 0,1.017338 0.247331,1.833997 0.742,2.45 0.494669,0.616003 1.203995,0.924 2.128,0.924 0.784004,0 1.647329,-0.186665 2.59,-0.56 l 0.196,1.708 c -0.784004,0.382669 -1.712661,0.574 -2.786,0.574 z m 8.4,0 c -1.418674,0 -2.578329,-0.468995 -3.479,-1.407 -0.900671,-0.938005 -1.351,-2.167659 -1.351,-3.689 0,-1.5213409 0.450329,-2.7509953 1.351,-3.689 0.900671,-0.9380047 2.060326,-1.407 3.479,-1.407 1.418674,0 2.578329,0.4689953 3.479,1.407 0.900671,0.9380047 1.351,2.1676591 1.351,3.689 0,1.521341 -0.450329,2.750995 -1.351,3.689 -0.900671,0.938005 -2.060326,1.407 -3.479,1.407 z m 0,-8.47 c -0.924005,0 -1.633331,0.3079969 -2.128,0.924 -0.494669,0.6160031 -0.742,1.4326616 -0.742,2.45 0,1.017338 0.247331,1.833997 0.742,2.45 0.494669,0.616003 1.203995,0.924 2.128,0.924 0.924005,0 1.633331,-0.307997 2.128,-0.924 0.494669,-0.616003 0.742,-1.432662 0.742,-2.45 0,-1.0173384 -0.247331,-1.8339969 -0.742,-2.45 C 54.251331,6.0339969 53.542005,5.726 52.618,5.726 Z M 68.9,14 H 67.038 L 66.198,7.434 63.692,11.942 61.172,7.448 60.332,14 H 58.47 l 1.358,-9.8 h 1.47 l 2.394,4.466 2.38,-4.466 h 1.47 z m 8.512,0 H 73.744 V 4.2 h 3.668 c 1.428007,0 2.589996,0.4386623 3.486,1.316 0.896004,0.8773377 1.344,2.0719924 1.344,3.584 0,1.512008 -0.447996,2.706662 -1.344,3.584 C 80.001996,13.561338 78.840007,14 77.412,14 Z m 0,-8.078 h -1.876 v 6.356 h 1.876 c 0.933338,0 1.644997,-0.279997 2.135,-0.84 0.490002,-0.560003 0.735,-1.339328 0.735,-2.338 0,-0.9986717 -0.244998,-1.7779972 -0.735,-2.338 -0.490003,-0.5600028 -1.201662,-0.84 -2.135,-0.84 z M 85.616,14 H 83.824 V 4.2 h 1.792 z m 4.998,0.196 c -0.700004,0 -1.33933,-0.07 -1.918,-0.21 -0.57867,-0.140001 -1.021998,-0.307999 -1.33,-0.504 l 0.21,-2.044 c 0.298668,0.289335 0.716331,0.534332 1.253,0.735 0.536669,0.200668 1.145663,0.301 1.827,0.301 1.166672,0 1.75,-0.354663 1.75,-1.064 0,-0.196001 -0.04667,-0.373332 -0.14,-0.532 C 92.17267,10.719333 92.072334,10.588667 91.965,10.486 91.857666,10.383333 91.678001,10.273667 91.426,10.157 91.173999,10.040333 90.978001,9.9563336 90.838,9.905 90.697999,9.8536664 90.460002,9.7720006 90.124,9.66 89.834665,9.5666662 89.634001,9.4966669 89.522,9.45 L 88.962,9.212 C 88.700665,9.1093328 88.509334,9.0183337 88.388,8.939 88.266666,8.8596663 88.117334,8.7476674 87.94,8.603 87.762666,8.4583326 87.632,8.3113341 87.548,8.162 87.464,8.0126659 87.389334,7.833001 87.324,7.623 87.258666,7.412999 87.226,7.1866679 87.226,6.944 c 0,-0.7653372 0.28933,-1.4466637 0.868,-2.044 0.57867,-0.5973363 1.469994,-0.896 2.674,-0.896 0.625337,0 1.229664,0.079333 1.813,0.238 0.583336,0.1586675 1.019665,0.3313324 1.309,0.518 l -0.182,1.834 c -1.073339,-0.5880029 -2.029996,-0.882 -2.87,-0.882 -0.476002,0 -0.893665,0.079333 -1.253,0.238 -0.359335,0.1586675 -0.539,0.4246648 -0.539,0.798 0,0.3546684 0.163332,0.6276657 0.49,0.819 0.326668,0.1913343 0.82133,0.3896656 1.484,0.595 0.345335,0.1026672 0.608999,0.1866663 0.791,0.252 0.182001,0.065334 0.431665,0.1633327 0.749,0.294 0.317335,0.1306673 0.564666,0.2683326 0.742,0.413 0.177334,0.1446674 0.361666,0.321999 0.553,0.532 0.191334,0.210001 0.331333,0.457332 0.42,0.742 0.08867,0.284668 0.133,0.599665 0.133,0.945 0,0.261335 -0.02333,0.506332 -0.07,0.735 -0.04667,0.228668 -0.151666,0.478332 -0.315,0.749 -0.163334,0.270668 -0.377999,0.501666 -0.644,0.693 -0.266001,0.191334 -0.634664,0.352333 -1.106,0.483 -0.471336,0.130667 -1.02433,0.196 -1.659,0.196 z M 103.466,14 H 101.45 L 98.034,8.82 101.45,4.2 h 2.016 l -3.416,4.62 z m -5.782,0 H 95.892 V 4.2 h 1.792 z m 12.894,0.196 c -0.7,0 -1.33933,-0.07 -1.918,-0.21 -0.57867,-0.140001 -1.022,-0.307999 -1.33,-0.504 l 0.21,-2.044 c 0.29867,0.289335 0.71633,0.534332 1.253,0.735 0.53667,0.200668 1.14566,0.301 1.827,0.301 1.16667,0 1.75,-0.354663 1.75,-1.064 0,-0.196001 -0.0467,-0.373332 -0.14,-0.532 -0.0933,-0.158667 -0.19367,-0.289333 -0.301,-0.392 -0.10733,-0.102667 -0.287,-0.212333 -0.539,-0.329 -0.252,-0.116667 -0.448,-0.2006664 -0.588,-0.252 -0.14,-0.051334 -0.378,-0.1329994 -0.714,-0.245 -0.28933,-0.093334 -0.49,-0.1633331 -0.602,-0.21 l -0.56,-0.238 c -0.26133,-0.1026672 -0.45267,-0.1936663 -0.574,-0.273 -0.12133,-0.079334 -0.27067,-0.1913326 -0.448,-0.336 -0.17733,-0.1446674 -0.308,-0.2916659 -0.392,-0.441 -0.084,-0.1493341 -0.15867,-0.328999 -0.224,-0.539 -0.0653,-0.210001 -0.098,-0.4363321 -0.098,-0.679 0,-0.7653372 0.28933,-1.4466637 0.868,-2.044 0.57867,-0.5973363 1.46999,-0.896 2.674,-0.896 0.62534,0 1.22966,0.079333 1.813,0.238 0.58334,0.1586675 1.01967,0.3313324 1.309,0.518 l -0.182,1.834 c -1.07334,-0.5880029 -2.03,-0.882 -2.87,-0.882 -0.476,0 -0.89367,0.079333 -1.253,0.238 -0.35933,0.1586675 -0.539,0.4246648 -0.539,0.798 0,0.3546684 0.16333,0.6276657 0.49,0.819 0.32667,0.1913343 0.82133,0.3896656 1.484,0.595 0.34534,0.1026672 0.609,0.1866663 0.791,0.252 0.182,0.065334 0.43167,0.1633327 0.749,0.294 0.31734,0.1306673 0.56467,0.2683326 0.742,0.413 0.17733,0.1446674 0.36167,0.321999 0.553,0.532 0.19133,0.210001 0.33133,0.457332 0.42,0.742 0.0887,0.284668 0.133,0.599665 0.133,0.945 0,0.261335 -0.0233,0.506332 -0.07,0.735 -0.0467,0.228668 -0.15167,0.478332 -0.315,0.749 -0.16333,0.270668 -0.378,0.501666 -0.644,0.693 -0.266,0.191334 -0.63466,0.352333 -1.106,0.483 -0.47134,0.130667 -1.02433,0.196 -1.659,0.196 z M 123.248,4.2 119.86,9.66 V 14 h -1.792 V 9.66 L 114.68,4.2 h 1.904 l 2.38,3.864 2.38,-3.864 z M 127,14.196 c -0.7,0 -1.33933,-0.07 -1.918,-0.21 -0.57867,-0.140001 -1.022,-0.307999 -1.33,-0.504 l 0.21,-2.044 c 0.29867,0.289335 0.71633,0.534332 1.253,0.735 0.53667,0.200668 1.14566,0.301 1.827,0.301 1.16667,0 1.75,-0.354663 1.75,-1.064 0,-0.196001 -0.0467,-0.373332 -0.14,-0.532 -0.0933,-0.158667 -0.19367,-0.289333 -0.301,-0.392 -0.10733,-0.102667 -0.287,-0.212333 -0.539,-0.329 -0.252,-0.116667 -0.448,-0.2006664 -0.588,-0.252 -0.14,-0.051334 -0.378,-0.1329994 -0.714,-0.245 -0.28934,-0.093334 -0.49,-0.1633331 -0.602,-0.21 l -0.56,-0.238 c -0.26134,-0.1026672 -0.45267,-0.1936663 -0.574,-0.273 -0.12133,-0.079334 -0.27067,-0.1913326 -0.448,-0.336 -0.17733,-0.1446674 -0.308,-0.2916659 -0.392,-0.441 -0.084,-0.1493341 -0.15867,-0.328999 -0.224,-0.539 -0.0653,-0.210001 -0.098,-0.4363321 -0.098,-0.679 0,-0.7653372 0.28933,-1.4466637 0.868,-2.044 0.57867,-0.5973363 1.46999,-0.896 2.674,-0.896 0.62534,0 1.22966,0.079333 1.813,0.238 0.58334,0.1586675 1.01966,0.3313324 1.309,0.518 l -0.182,1.834 c -1.07334,-0.5880029 -2.03,-0.882 -2.87,-0.882 -0.476,0 -0.89366,0.079333 -1.253,0.238 -0.35933,0.1586675 -0.539,0.4246648 -0.539,0.798 0,0.3546684 0.16333,0.6276657 0.49,0.819 0.32667,0.1913343 0.82133,0.3896656 1.484,0.595 0.34533,0.1026672 0.609,0.1866663 0.791,0.252 0.182,0.065334 0.43166,0.1633327 0.749,0.294 0.31733,0.1306673 0.56467,0.2683326 0.742,0.413 0.17733,0.1446674 0.36167,0.321999 0.553,0.532 0.19133,0.210001 0.33133,0.457332 0.42,0.742 0.0887,0.284668 0.133,0.599665 0.133,0.945 0,0.261335 -0.0233,0.506332 -0.07,0.735 -0.0467,0.228668 -0.15167,0.478332 -0.315,0.749 -0.16333,0.270668 -0.378,0.501666 -0.644,0.693 -0.266,0.191334 -0.63466,0.352333 -1.106,0.483 -0.47134,0.130667 -1.02433,0.196 -1.659,0.196 z m 11.746,-8.26 h -2.772 V 14 h -1.792 V 5.936 H 131.41 V 4.2 h 7.336 z m 7.7,8.064 h -6.412 V 4.2 h 6.272 v 1.736 h -4.438 v 2.086 h 3.444 v 1.736 h -3.444 v 2.506 h 4.578 z m 11.508,0 h -1.862 l -0.84,-6.566 -2.506,4.508 -2.52,-4.494 -0.84,6.552 h -1.862 l 1.358,-9.8 h 1.47 l 2.394,4.466 2.38,-4.466 h 1.47 z" />
</svg>
