<?xml version="1.0" encoding="UTF-8" standalone="no"?>
<svg
   xmlns:dc="http://purl.org/dc/elements/1.1/"
   xmlns:cc="http://creativecommons.org/ns#"
   xmlns:rdf="http://www.w3.org/1999/02/22-rdf-syntax-ns#"
   xmlns:svg="http://www.w3.org/2000/svg"
   xmlns="http://www.w3.org/2000/svg"
   xmlns:sodipodi="http://sodipodi.sourceforge.net/DTD/sodipodi-0.dtd"
   xmlns:inkscape="http://www.inkscape.org/namespaces/inkscape"
   width="117px"
   height="18px"
   viewBox="0 0 117 18"
   version="1.1"
   id="svg12"
   sodipodi:docname="system.svg"
   inkscape:version="0.92.4 (5da689c313, 2019-01-14)">
  <metadata
     id="metadata16">
    <rdf:RDF>
      <cc:Work
         rdf:about="">
        <dc:format>image/svg+xml</dc:format>
        <dc:type
           rdf:resource="http://purl.org/dc/dcmitype/StillImage" />
        <dc:title>system</dc:title>
      </cc:Work>
    </rdf:RDF>
  </metadata>
  <sodipodi:namedview
     pagecolor="#ffffff"
     bordercolor="#666666"
     borderopacity="1"
     objecttolerance="10"
     gridtolerance="10"
     guidetolerance="10"
     inkscape:pageopacity="0"
     inkscape:pageshadow="2"
     inkscape:window-width="1920"
     inkscape:window-height="1018"
     id="namedview14"
     showgrid="false"
     inkscape:zoom="3.2478632"
     inkscape:cx="101.11826"
     inkscape:cy="8.9999999"
     inkscape:window-x="-8"
     inkscape:window-y="-8"
     inkscape:window-maximized="1"
     inkscape:current-layer="svg12" />
  <!-- Generator: Sketch 45 (43475) - http://www.bohemiancoding.com/sketch -->
  <title
     id="title2">system</title>
  <desc
     id="desc4">Created with Sketch.</desc>
  <defs
     id="defs6" />
  <g
     id="text1308"
     style="font-style:normal;font-variant:normal;font-weight:normal;font-stretch:normal;font-size:11.95052433px;line-height:1.25;font-family:sans-serif;-inkscape-font-specification:sans-serif;letter-spacing:0px;word-spacing:0px;fill:#ffffff;fill-opacity:1;stroke:none;stroke-width:0.56018084"
     aria-label="COMMODORE 18">
    <path
       inkscape:connector-curvature="0"
       id="path1316"
       style="font-style:normal;font-variant:normal;font-weight:bold;font-stretch:normal;font-family:sans-serif;-inkscape-font-specification:'sans-serif Bold';fill:#ffffff;stroke-width:0.56018084"
       d="m 10.126101,13.398669 q -0.9686456,0 -1.7914112,-0.285926 Q 7.5177594,12.826817 6.9284025,12.260801 6.3390456,11.694785 6.0122734,10.848679 5.6913365,10.002572 5.6913365,8.8938812 q 0,-1.0328334 0.3092665,-1.8731047 Q 6.3098695,6.1805053 6.8992264,5.5794779 7.4652424,5.0017915 8.2996785,4.6866897 9.1399497,4.371588 10.131937,4.371588 q 0.54851,0 0.986151,0.064187 0.443477,0.058352 0.816931,0.1575509 0.390959,0.1108691 0.706061,0.2509143 0.320937,0.13421 0.560181,0.2509143 v 2.1065133 h -0.25675 Q 12.781125,7.061623 12.530211,6.8690609 12.285132,6.6764987 11.97003,6.4897718 11.649093,6.3030448 11.275639,6.1746701 10.902185,6.0462953 10.476214,6.0462953 q -0.472652,0 -0.898623,0.1517156 Q 9.1516201,6.3438914 8.7898367,6.6881692 8.4455589,7.0207765 8.2296559,7.5692869 8.0195881,8.1177973 8.0195881,8.8997164 q 0,0.8169304 0.2275734,1.3654406 0.2334087,0.548511 0.5835217,0.863612 0.3559482,0.320937 0.7935895,0.460982 0.4376413,0.13421 0.8636123,0.13421 0.408465,0 0.80526,-0.122539 0.40263,-0.12254 0.741072,-0.332608 0.285926,-0.169221 0.531005,-0.361783 0.245079,-0.192562 0.40263,-0.332607 h 0.233409 v 2.077337 q -0.326772,0.14588 -0.624368,0.274255 -0.297597,0.128375 -0.624369,0.221738 -0.425971,0.12254 -0.799424,0.186727 -0.373454,0.06419 -1.026999,0.06419 z" />
    <path
       inkscape:connector-curvature="0"
       id="path1318"
       style="font-style:normal;font-variant:normal;font-weight:bold;font-stretch:normal;font-family:sans-serif;-inkscape-font-specification:'sans-serif Bold';fill:#ffffff;stroke-width:0.56018084"
       d="m 23.307856,8.8880459 q 0,2.0773371 -1.190384,3.3027331 -1.190384,1.21956 -3.291062,1.21956 -2.094843,0 -3.285227,-1.21956 -1.190385,-1.225396 -1.190385,-3.3027331 0,-2.0948428 1.190385,-3.308568 1.190384,-1.2195603 3.285227,-1.2195603 2.089008,0 3.285227,1.2195603 1.196219,1.2137252 1.196219,3.308568 z m -2.970125,2.1998771 q 0.326772,-0.396795 0.484323,-0.933635 0.157551,-0.5426751 0.157551,-1.2720773 0,-0.781919 -0.180892,-1.3304294 -0.180892,-0.5485104 -0.472652,-0.886953 -0.297596,-0.350113 -0.688556,-0.5076639 -0.385124,-0.1575508 -0.80526,-0.1575508 -0.425971,0 -0.80526,0.1517156 Q 17.653531,6.3030448 17.33843,6.6531579 17.046669,6.97993 16.859942,7.5576165 16.67905,8.1294677 16.67905,8.8880459 q 0,0.7760839 0.175057,1.3245941 0.180891,0.542675 0.472652,0.886953 0.291761,0.344278 0.68272,0.507664 0.39096,0.163386 0.822766,0.163386 0.431806,0 0.822766,-0.163386 0.390959,-0.169221 0.68272,-0.519334 z" />
    <path
       inkscape:connector-curvature="0"
       id="path1320"
       style="font-style:normal;font-variant:normal;font-weight:bold;font-stretch:normal;font-family:sans-serif;-inkscape-font-specification:'sans-serif Bold';fill:#ffffff;stroke-width:0.56018084"
       d="M 34.120514,13.229447 H 31.891461 V 7.4117361 L 30.280942,11.187121 H 28.734609 L 27.124089,7.4117361 V 13.229447 H 25.011741 V 4.5408093 h 2.602506 l 1.954798,4.3589071 1.948963,-4.3589071 h 2.602506 z" />
    <path
       inkscape:connector-curvature="0"
       id="path1322"
       style="font-style:normal;font-variant:normal;font-weight:bold;font-stretch:normal;font-family:sans-serif;-inkscape-font-specification:'sans-serif Bold';fill:#ffffff;stroke-width:0.56018084"
       d="M 45.440834,13.229447 H 43.211782 V 7.4117361 l -1.61052,3.7753849 H 40.054929 L 38.444409,7.4117361 V 13.229447 H 36.332061 V 4.5408093 h 2.602507 l 1.954797,4.3589071 1.948963,-4.3589071 h 2.602506 z" />
    <path
       inkscape:connector-curvature="0"
       id="path1324"
       style="font-style:normal;font-variant:normal;font-weight:bold;font-stretch:normal;font-family:sans-serif;-inkscape-font-specification:'sans-serif Bold';fill:#ffffff;stroke-width:0.56018084"
       d="m 56.101775,8.8880459 q 0,2.0773371 -1.190384,3.3027331 -1.190384,1.21956 -3.291063,1.21956 -2.094842,0 -3.285227,-1.21956 -1.190384,-1.225396 -1.190384,-3.3027331 0,-2.0948428 1.190384,-3.308568 1.190385,-1.2195603 3.285227,-1.2195603 2.089008,0 3.285228,1.2195603 1.196219,1.2137252 1.196219,3.308568 z M 53.13165,11.087923 q 0.326772,-0.396795 0.484323,-0.933635 0.157551,-0.5426751 0.157551,-1.2720773 0,-0.781919 -0.180892,-1.3304294 -0.180892,-0.5485104 -0.472653,-0.886953 -0.297596,-0.350113 -0.688555,-0.5076639 -0.385125,-0.1575508 -0.80526,-0.1575508 -0.425971,0 -0.80526,0.1517156 -0.373454,0.1517156 -0.688556,0.5018287 -0.291761,0.3267721 -0.478488,0.9044586 -0.180891,0.5718512 -0.180891,1.3304294 0,0.7760839 0.175056,1.3245941 0.180892,0.542675 0.472653,0.886953 0.291761,0.344278 0.68272,0.507664 0.39096,0.163386 0.822766,0.163386 0.431806,0 0.822765,-0.163386 0.39096,-0.169221 0.682721,-0.519334 z" />
    <path
       inkscape:connector-curvature="0"
       id="path1326"
       style="font-style:normal;font-variant:normal;font-weight:bold;font-stretch:normal;font-family:sans-serif;-inkscape-font-specification:'sans-serif Bold';fill:#ffffff;stroke-width:0.56018084"
       d="m 66.01581,8.8938812 q 0,1.2137248 -0.554346,2.1765358 -0.554346,0.956976 -1.400452,1.470475 -0.636039,0.385124 -1.394617,0.53684 -0.758578,0.151715 -1.797247,0.151715 H 57.805659 V 4.5408093 h 3.151017 q 1.06201,0 1.832259,0.1808917 0.770248,0.1750565 1.295418,0.5018287 0.898623,0.5485104 1.412122,1.4821451 0.519335,0.9277995 0.519335,2.1882064 z m -2.316582,-0.017506 q 0,-0.8577769 -0.315101,-1.4646394 Q 63.07486,6.7990383 62.397975,6.4547605 62.053697,6.2855392 61.691914,6.227187 61.335966,6.1629996 60.612399,6.1629996 h -0.566016 v 5.4384224 h 0.566016 q 0.799424,0 1.172878,-0.07002 0.373454,-0.07586 0.729402,-0.26842 0.612698,-0.350113 0.898624,-0.933634 0.285925,-0.5893574 0.285925,-1.4529695 z" />
    <path
       inkscape:connector-curvature="0"
       id="path1328"
       style="font-style:normal;font-variant:normal;font-weight:bold;font-stretch:normal;font-family:sans-serif;-inkscape-font-specification:'sans-serif Bold';fill:#ffffff;stroke-width:0.56018084"
       d="m 76.174922,8.8880459 q 0,2.0773371 -1.190384,3.3027331 -1.190385,1.21956 -3.291063,1.21956 -2.094843,0 -3.285227,-1.21956 -1.190384,-1.225396 -1.190384,-3.3027331 0,-2.0948428 1.190384,-3.308568 1.190384,-1.2195603 3.285227,-1.2195603 2.089008,0 3.285227,1.2195603 1.19622,1.2137252 1.19622,3.308568 z m -2.970126,2.1998771 q 0.326773,-0.396795 0.484324,-0.933635 0.15755,-0.5426751 0.15755,-1.2720773 0,-0.781919 -0.180891,-1.3304294 Q 73.484887,7.0032709 73.193126,6.6648283 72.89553,6.3147153 72.50457,6.1571644 72.119446,5.9996136 71.699311,5.9996136 q -0.425971,0 -0.80526,0.1517156 -0.373454,0.1517156 -0.688556,0.5018287 -0.291761,0.3267721 -0.478488,0.9044586 -0.180892,0.5718512 -0.180892,1.3304294 0,0.7760839 0.175057,1.3245941 0.180892,0.542675 0.472653,0.886953 0.29176,0.344278 0.68272,0.507664 0.390959,0.163386 0.822766,0.163386 0.431806,0 0.822765,-0.163386 0.39096,-0.169221 0.68272,-0.519334 z" />
    <path
       inkscape:connector-curvature="0"
       id="path1330"
       style="font-style:normal;font-variant:normal;font-weight:bold;font-stretch:normal;font-family:sans-serif;-inkscape-font-specification:'sans-serif Bold';fill:#ffffff;stroke-width:0.56018084"
       d="m 82.751208,7.2016682 q 0,-0.3267721 -0.13421,-0.5601808 Q 82.482788,6.4080787 82.156016,6.2738688 81.928443,6.1805053 81.625012,6.1629996 81.32158,6.1396588 80.91895,6.1396588 h -0.811095 v 2.339922 h 0.688556 q 0.53684,0 0.898623,-0.052517 0.361784,-0.052517 0.606863,-0.2392439 0.233408,-0.1808917 0.338442,-0.3967947 0.110869,-0.2217383 0.110869,-0.589357 z m 3.495295,6.0277788 h -2.736716 l -2.369098,-3.186028 h -1.032834 v 3.186028 H 77.878802 V 4.5408093 h 3.75788 q 0.770249,0 1.324594,0.087528 0.554346,0.087528 1.038669,0.3792891 0.490158,0.2917608 0.776084,0.7585782 0.291761,0.4609821 0.291761,1.1612082 0,0.9628107 -0.449312,1.5696733 -0.443477,0.6068626 -1.272077,1.0094925 z" />
    <path
       inkscape:connector-curvature="0"
       id="path1332"
       style="font-style:normal;font-variant:normal;font-weight:bold;font-stretch:normal;font-family:sans-serif;-inkscape-font-specification:'sans-serif Bold';fill:#ffffff;stroke-width:0.56018084"
       d="M 93.523019,13.229447 H 87.23849 V 4.5408093 h 6.284529 v 1.6805425 h -4.055476 v 1.4996508 h 3.763715 V 9.401545 h -3.763715 v 2.14736 h 4.055476 z" />
    <path
       inkscape:connector-curvature="0"
       id="path1334"
       style="font-style:normal;font-variant:normal;font-weight:bold;font-stretch:normal;font-family:sans-serif;-inkscape-font-specification:'sans-serif Bold';fill:#ffffff;stroke-width:0.56018084"
       d="m 105.73613,13.229447 h -5.800204 v -1.517156 h 1.832254 V 7.1199752 H 99.935926 V 5.7020175 q 0.420134,0 0.805264,-0.046682 0.38512,-0.052517 0.64187,-0.1750566 0.30343,-0.1458804 0.45515,-0.3792891 0.15171,-0.2334086 0.17505,-0.5835217 h 1.93146 v 7.1948229 h 1.79141 z" />
    <path
       inkscape:connector-curvature="0"
       id="path1336"
       style="font-style:normal;font-variant:normal;font-weight:bold;font-stretch:normal;font-family:sans-serif;-inkscape-font-specification:'sans-serif Bold';fill:#ffffff;stroke-width:0.56018084"
       d="m 114.79822,10.801997 q 0,1.155373 -0.98615,1.89061 -0.98032,0.735238 -2.69587,0.735238 -0.96281,0 -1.65137,-0.198398 -0.68856,-0.198397 -1.13787,-0.54851 -0.44347,-0.344278 -0.65938,-0.80526 -0.21006,-0.460982 -0.21006,-0.991987 0,-0.653544 0.37928,-1.1553728 0.38513,-0.5076639 1.3246,-0.886953 v -0.035011 q -0.75858,-0.350113 -1.11453,-0.8811178 -0.35595,-0.5310047 -0.35595,-1.2312307 0,-1.0328334 0.95698,-1.6922129 0.95698,-0.6593796 2.49164,-0.6593796 1.61052,0 2.52081,0.6010274 0.91613,0.5951921 0.91613,1.5930142 0,0.618533 -0.38512,1.102856 -0.38513,0.484323 -1.17872,0.8227656 v 0.035011 q 0.9103,0.3442778 1.34794,0.9277995 0.43764,0.5835221 0.43764,1.3771111 z m -2.40995,-4.0146292 q 0,-0.4434764 -0.34427,-0.7060612 -0.33845,-0.2625848 -0.90446,-0.2625848 -0.21007,0 -0.43181,0.052517 -0.2159,0.052517 -0.39679,0.1517156 -0.16922,0.099199 -0.28009,0.2625848 -0.11087,0.1575508 -0.11087,0.3617834 0,0.3442778 0.19256,0.53684 0.1984,0.1925622 0.64187,0.3851243 0.16339,0.070023 0.44348,0.1750565 0.28593,0.099199 0.68856,0.2275735 0.26842,-0.3151017 0.38512,-0.5660161 0.1167,-0.2509143 0.1167,-0.618533 z m 0.1809,4.1138282 q 0,-0.420136 -0.21007,-0.636039 -0.21007,-0.215903 -0.86361,-0.4959933 -0.19257,-0.087528 -0.56018,-0.215903 -0.36762,-0.1283748 -0.61854,-0.2217383 -0.25091,0.2275735 -0.45514,0.5543456 -0.1984,0.320937 -0.1984,0.723567 0,0.606863 0.4318,0.968646 0.43765,0.355948 1.13787,0.355948 0.18673,0 0.43764,-0.05252 0.25092,-0.05835 0.43181,-0.175056 0.21007,-0.13421 0.33844,-0.315102 0.12838,-0.180892 0.12838,-0.490158 z" />
  </g>
</svg>
