<?xml version="1.0" encoding="UTF-8" standalone="no"?>
<svg
   xmlns:dc="http://purl.org/dc/elements/1.1/"
   xmlns:cc="http://creativecommons.org/ns#"
   xmlns:rdf="http://www.w3.org/1999/02/22-rdf-syntax-ns#"
   xmlns:svg="http://www.w3.org/2000/svg"
   xmlns="http://www.w3.org/2000/svg"
   xmlns:sodipodi="http://sodipodi.sourceforge.net/DTD/sodipodi-0.dtd"
   xmlns:inkscape="http://www.inkscape.org/namespaces/inkscape"
   width="117px"
   height="18px"
   viewBox="0 0 117 18"
   version="1.1"
   id="svg12"
   sodipodi:docname="system.svg"
   inkscape:version="0.92.4 (5da689c313, 2019-01-14)">
  <metadata
     id="metadata16">
    <rdf:RDF>
      <cc:Work
         rdf:about="">
        <dc:format>image/svg+xml</dc:format>
        <dc:type
           rdf:resource="http://purl.org/dc/dcmitype/StillImage" />
        <dc:title>system</dc:title>
      </cc:Work>
    </rdf:RDF>
  </metadata>
  <sodipodi:namedview
     pagecolor="#ffffff"
     bordercolor="#666666"
     borderopacity="1"
     objecttolerance="10"
     gridtolerance="10"
     guidetolerance="10"
     inkscape:pageopacity="0"
     inkscape:pageshadow="2"
     inkscape:window-width="1920"
     inkscape:window-height="1018"
     id="namedview14"
     showgrid="false"
     inkscape:zoom="3.2478632"
     inkscape:cx="5.1944251"
     inkscape:cy="8.9999999"
     inkscape:window-x="-8"
     inkscape:window-y="-8"
     inkscape:window-maximized="1"
     inkscape:current-layer="svg12" />
  <!-- Generator: Sketch 45 (43475) - http://www.bohemiancoding.com/sketch -->
  <title
     id="title2">system</title>
  <desc
     id="desc4">Created with Sketch.</desc>
  <defs
     id="defs6" />
  <g
     id="text2337"
     style="font-style:normal;font-variant:normal;font-weight:normal;font-stretch:normal;font-size:13.47775173px;line-height:1.25;font-family:sans-serif;-inkscape-font-specification:sans-serif;letter-spacing:0px;word-spacing:0px;fill:#ffffff;fill-opacity:1;stroke:none;stroke-width:0.6317696"
     aria-label="SHARP X68000">
    <path
       inkscape:connector-curvature="0"
       id="path2344"
       style="font-style:normal;font-variant:normal;font-weight:bold;font-stretch:normal;font-family:sans-serif;-inkscape-font-specification:'sans-serif Bold';fill:#ffffff;stroke-width:0.6317696"
       d="m 12.283998,10.740008 q 0,1.447806 -1.230635,2.355975 -1.2240534,0.901587 -3.3299521,0.901587 -1.2174727,0 -2.1256415,-0.210589 Q 4.6961815,13.56981 3.9064695,13.240763 V 10.89137 h 0.2763992 q 0.783131,0.625189 1.7505283,0.960816 0.9739781,0.335628 1.8689851,0.335628 0.2303326,0 0.6054458,-0.03949 0.3751133,-0.03948 0.6120269,-0.131619 0.289561,-0.118456 0.4738272,-0.296142 0.190847,-0.177685 0.190847,-0.526474 0,-0.322466 -0.2763992,-0.552799 Q 9.1383116,10.404381 8.6118369,10.279343 8.0590385,10.147724 7.4404307,10.035849 6.8284039,9.9173917 6.2887674,9.7397065 5.0515519,9.3382696 4.5053344,8.6538525 3.9656979,7.9628545 3.9656979,6.9428098 q 0,-1.3688342 1.2240536,-2.2309365 1.2306345,-0.8686832 3.158848,-0.8686832 0.9673973,0 1.9084705,0.1908471 0.947655,0.1842661 1.638653,0.4672463 V 6.7585436 H 11.625904 Q 11.03362,6.2847164 10.171518,5.9688316 9.3159968,5.6463659 8.4209898,5.6463659 q -0.3158848,0 -0.6317696,0.046067 -0.3093039,0.039486 -0.5988649,0.1579424 -0.2566564,0.098714 -0.4409226,0.302723 -0.1842661,0.197428 -0.1842661,0.4540844 0,0.3882751 0.296142,0.5988649 0.296142,0.204009 1.1187587,0.3751132 0.5396365,0.1118759 1.0332065,0.2171708 0.500151,0.105295 1.0726922,0.2895611 1.12534,0.3685323 1.658395,1.0068828 0.539637,0.6317696 0.539637,1.6452325 z" />
    <path
       inkscape:connector-curvature="0"
       id="path2346"
       style="font-style:normal;font-variant:normal;font-weight:bold;font-stretch:normal;font-family:sans-serif;-inkscape-font-specification:'sans-serif Bold';fill:#ffffff;stroke-width:0.6317696"
       d="M 22.806911,13.819885 H 20.279832 V 9.5027929 H 16.548443 V 13.819885 H 14.021365 V 4.0208753 h 2.527078 v 3.5866088 h 3.731389 V 4.0208753 h 2.527079 z" />
    <path
       inkscape:connector-curvature="0"
       id="path2348"
       style="font-style:normal;font-variant:normal;font-weight:bold;font-stretch:normal;font-family:sans-serif;-inkscape-font-specification:'sans-serif Bold';fill:#ffffff;stroke-width:0.6317696"
       d="M 34.369611,13.819885 H 31.75698 l -0.677836,-1.980861 h -3.632675 l -0.677836,1.980861 h -2.546821 l 3.619513,-9.7990097 h 2.908773 z m -3.902494,-3.777456 -1.20431,-3.514218 -1.204311,3.514218 z" />
    <path
       inkscape:connector-curvature="0"
       id="path2350"
       style="font-style:normal;font-variant:normal;font-weight:bold;font-stretch:normal;font-family:sans-serif;-inkscape-font-specification:'sans-serif Bold';fill:#ffffff;stroke-width:0.6317696"
       d="m 41.286171,7.021781 q 0,-0.3685323 -0.151362,-0.6317696 Q 40.983448,6.126774 40.614916,5.9754126 40.358259,5.8701176 40.016051,5.8503748 39.673842,5.8240511 39.219758,5.8240511 h -0.91475 v 2.6389543 h 0.77655 q 0.605446,0 1.013464,-0.059228 0.408018,-0.059228 0.684417,-0.2698183 0.263237,-0.2040089 0.381694,-0.4475034 0.125038,-0.2500755 0.125038,-0.6646747 z m 3.941979,6.798104 h -3.086458 l -2.671859,-3.593189 h -1.164825 v 3.593189 H 35.791091 V 4.0208753 h 4.238122 q 0.868683,0 1.493871,0.098714 0.625189,0.098714 1.171407,0.4277607 0.552798,0.3290467 0.875264,0.8555214 0.329046,0.5198937 0.329046,1.3096057 0,1.085854 -0.506731,1.7702711 -0.500151,0.6844171 -1.434644,1.1385015 z" />
    <path
       inkscape:connector-curvature="0"
       id="path2352"
       style="font-style:normal;font-variant:normal;font-weight:bold;font-stretch:normal;font-family:sans-serif;-inkscape-font-specification:'sans-serif Bold';fill:#ffffff;stroke-width:0.6317696"
       d="m 54.434879,7.1139141 q 0,0.6580933 -0.230333,1.2898629 -0.230332,0.6251887 -0.658093,1.0529494 -0.585703,0.5791226 -1.309606,0.8752646 -0.717321,0.296142 -1.790014,0.296142 H 48.87399 v 3.191752 H 46.346912 V 4.0208753 h 4.15915 q 0.934492,0 1.572843,0.1645234 0.644931,0.1579424 1.138501,0.4804081 0.592284,0.3882751 0.901588,0.993721 0.315885,0.6054458 0.315885,1.4543863 z m -2.612631,0.059228 q 0,-0.4145989 -0.223751,-0.7107409 Q 51.374745,6.1596787 51.078603,6.0412219 50.683747,5.8832795 50.308634,5.8701176 49.933521,5.8503748 49.308332,5.8503748 H 48.87399 v 2.9350964 h 0.723903 q 0.644931,0 1.05953,-0.078971 0.42118,-0.078971 0.70416,-0.3158849 0.243495,-0.2105898 0.34879,-0.5001509 0.111875,-0.296142 0.111875,-0.7173223 z" />
    <path
       inkscape:connector-curvature="0"
       id="path2354"
       style="font-style:normal;font-variant:normal;font-weight:bold;font-stretch:normal;font-family:sans-serif;-inkscape-font-specification:'sans-serif Bold';fill:#ffffff;stroke-width:0.6317696"
       d="m 69.709222,13.819885 h -2.921934 l -2.11248,-3.224657 -2.151965,3.224657 H 59.732527 L 63.20726,8.8841852 59.804917,4.0208753 h 2.915354 l 2.040089,3.0535532 2.099318,-3.0535532 h 2.796897 l -3.422086,4.7645959 z" />
    <path
       inkscape:connector-curvature="0"
       id="path2356"
       style="font-style:normal;font-variant:normal;font-weight:bold;font-stretch:normal;font-family:sans-serif;-inkscape-font-specification:'sans-serif Bold';fill:#ffffff;stroke-width:0.6317696"
       d="m 78.764586,10.483352 q 0,0.756807 -0.276399,1.421482 -0.276399,0.664674 -0.77655,1.118758 -0.533056,0.486989 -1.237215,0.743646 -0.697579,0.256656 -1.638653,0.256656 -0.881845,0 -1.612329,-0.236913 -0.723902,-0.243495 -1.243796,-0.737065 -0.598865,-0.56596 -0.91475,-1.460967 -0.315885,-0.895007 -0.315885,-2.1388036 0,-1.2898629 0.296142,-2.2901648 0.296142,-1.0003019 0.967398,-1.7702711 0.644931,-0.7370646 1.671557,-1.1450824 1.033206,-0.4080179 2.454688,-0.4080179 0.480408,0 1.052949,0.065809 0.572542,0.065809 0.743646,0.098714 V 5.929346 H 77.685313 Q 77.507628,5.8437939 77.079867,5.738499 76.658688,5.6266231 76.119051,5.6266231 q -1.263539,0 -1.967699,0.6186077 -0.70416,0.6186078 -0.84894,1.7242046 0.506732,-0.3027229 1.066111,-0.4869891 0.56596,-0.190847 1.217473,-0.190847 0.572541,0 1.05953,0.1316186 0.49357,0.1316187 0.91475,0.4211798 0.546217,0.3816941 0.875264,1.0266256 0.329046,0.6449315 0.329046,1.6123287 z m -2.994324,1.48071 q 0.204009,-0.223752 0.322465,-0.526475 0.125038,-0.309304 0.125038,-0.835778 0,-0.480408 -0.138199,-0.7831313 -0.1382,-0.3093039 -0.381695,-0.49357 -0.236913,-0.1842661 -0.559379,-0.2500755 -0.322466,-0.07239 -0.664674,-0.07239 -0.289561,0 -0.605446,0.065809 -0.315885,0.065809 -0.579122,0.1645233 0,0.065809 -0.0066,0.2171708 -0.0066,0.1513615 -0.0066,0.3816942 0,0.8094545 0.157942,1.3359295 0.164524,0.519894 0.434342,0.796293 0.184266,0.204009 0.434342,0.302723 0.250075,0.09213 0.539636,0.09213 0.217171,0 0.480408,-0.09871 0.263238,-0.09871 0.447504,-0.296142 z" />
    <path
       inkscape:connector-curvature="0"
       id="path2358"
       style="font-style:normal;font-variant:normal;font-weight:bold;font-stretch:normal;font-family:sans-serif;-inkscape-font-specification:'sans-serif Bold';fill:#ffffff;stroke-width:0.6317696"
       d="m 88.379332,11.082217 q 0,1.303025 -1.112178,2.132222 -1.105597,0.829198 -3.040391,0.829198 -1.085854,0 -1.862405,-0.223752 -0.77655,-0.223751 -1.283282,-0.618607 -0.500151,-0.388276 -0.743645,-0.908169 -0.236914,-0.519894 -0.236914,-1.118759 0,-0.737065 0.427761,-1.3030248 Q 80.96262,9.298784 82.02215,8.8710233 v -0.039486 q -0.855521,-0.394856 -1.256958,-0.993721 -0.401437,-0.5988649 -0.401437,-1.3885769 0,-1.1648252 1.079273,-1.9084707 1.079273,-0.7436455 2.810058,-0.7436455 1.816338,0 2.842964,0.6778361 1.033206,0.6712552 1.033206,1.7965949 0,0.6975789 -0.434341,1.2437964 -0.434342,0.5462175 -1.329349,0.9279116 v 0.039486 q 1.026626,0.3882751 1.520196,1.0463684 0.49357,0.6580934 0.49357,1.5531004 z M 85.661406,6.5545347 q 0,-0.5001509 -0.388275,-0.7962929 -0.381694,-0.296142 -1.020045,-0.296142 -0.236913,0 -0.486989,0.059228 -0.243494,0.059228 -0.447503,0.1711042 -0.190847,0.1118759 -0.315885,0.296142 -0.125038,0.1776852 -0.125038,0.4080179 0,0.3882751 0.217171,0.6054459 0.223752,0.2171708 0.723903,0.4343416 0.184266,0.078971 0.500151,0.197428 0.322465,0.1118759 0.77655,0.2566564 0.302723,-0.3553704 0.434341,-0.6383505 0.131619,-0.2829802 0.131619,-0.6975786 z m 0.204009,4.6395583 q 0,-0.473827 -0.236914,-0.717322 -0.236913,-0.243494 -0.973978,-0.5593793 -0.217171,-0.098714 -0.631769,-0.2434945 -0.414599,-0.1447806 -0.697579,-0.2500755 -0.28298,0.2566564 -0.513313,0.6251883 -0.223752,0.361952 -0.223752,0.816036 0,0.684417 0.486989,1.092435 0.49357,0.401437 1.283282,0.401437 0.21059,0 0.49357,-0.05923 0.28298,-0.06581 0.486989,-0.197428 0.236914,-0.151362 0.381694,-0.355371 0.144781,-0.204009 0.144781,-0.552798 z" />
    <path
       inkscape:connector-curvature="0"
       id="path2360"
       style="font-style:normal;font-variant:normal;font-weight:bold;font-stretch:normal;font-family:sans-serif;-inkscape-font-specification:'sans-serif Bold';fill:#ffffff;stroke-width:0.6317696"
       d="m 97.87562,8.9170898 q 0,1.2372152 -0.223752,2.2177742 -0.223751,0.973979 -0.697579,1.599167 -0.486989,0.638351 -1.250377,0.967397 -0.763388,0.322466 -1.882147,0.322466 -1.099016,0 -1.875566,-0.329046 -0.77655,-0.329047 -1.256958,-0.973979 -0.486989,-0.644931 -0.70416,-1.599166 -0.217171,-0.960817 -0.217171,-2.1980322 0,-1.2767011 0.223752,-2.2177746 0.223751,-0.9410735 0.710741,-1.5925859 0.486989,-0.6449315 1.263539,-0.9673972 0.77655,-0.3224658 1.855823,-0.3224658 1.12534,0 1.888728,0.3356276 0.763388,0.3290467 1.250377,0.98714 0.480408,0.6449315 0.697579,1.5925859 0.217171,0.9410735 0.217171,2.178289 z m -2.546821,0 q 0,-1.776852 -0.34879,-2.5270784 Q 94.63122,5.633204 93.821765,5.633204 q -0.809455,0 -1.158244,0.7568074 -0.34879,0.7502264 -0.34879,2.5402403 0,1.7439473 0.355371,2.5139163 0.35537,0.769969 1.151663,0.769969 0.796293,0 1.151663,-0.769969 0.355371,-0.769969 0.355371,-2.5270782 z" />
    <path
       inkscape:connector-curvature="0"
       id="path2362"
       style="font-style:normal;font-variant:normal;font-weight:bold;font-stretch:normal;font-family:sans-serif;-inkscape-font-specification:'sans-serif Bold';fill:#ffffff;stroke-width:0.6317696"
       d="m 107.45746,8.9170898 q 0,1.2372152 -0.22375,2.2177742 -0.22375,0.973979 -0.69758,1.599167 -0.48699,0.638351 -1.25038,0.967397 -0.76339,0.322466 -1.88214,0.322466 -1.09902,0 -1.87557,-0.329046 -0.77655,-0.329047 -1.25696,-0.973979 -0.486988,-0.644931 -0.704159,-1.599166 -0.217171,-0.960817 -0.217171,-2.1980322 0,-1.2767011 0.223752,-2.2177746 0.223752,-0.9410735 0.710738,-1.5925859 0.48699,-0.6449315 1.26354,-0.9673972 0.77655,-0.3224658 1.85583,-0.3224658 1.12534,0 1.88872,0.3356276 0.76339,0.3290467 1.25038,0.98714 0.48041,0.6449315 0.69758,1.5925859 0.21717,0.9410735 0.21717,2.178289 z m -2.54682,0 q 0,-1.776852 -0.34879,-2.5270784 -0.34879,-0.7568074 -1.15824,-0.7568074 -0.80946,0 -1.15825,0.7568074 -0.34879,0.7502264 -0.34879,2.5402403 0,1.7439473 0.35537,2.5139163 0.35537,0.769969 1.15167,0.769969 0.79629,0 1.15166,-0.769969 0.35537,-0.769969 0.35537,-2.5270782 z" />
    <path
       inkscape:connector-curvature="0"
       id="path2364"
       style="font-style:normal;font-variant:normal;font-weight:bold;font-stretch:normal;font-family:sans-serif;-inkscape-font-specification:'sans-serif Bold';fill:#ffffff;stroke-width:0.6317696"
       d="m 117.0393,8.9170898 q 0,1.2372152 -0.22375,2.2177742 -0.22375,0.973979 -0.69758,1.599167 -0.48699,0.638351 -1.25038,0.967397 -0.76339,0.322466 -1.88214,0.322466 -1.09902,0 -1.87557,-0.329046 -0.77655,-0.329047 -1.25696,-0.973979 -0.48699,-0.644931 -0.70416,-1.599166 -0.21717,-0.960817 -0.21717,-2.1980322 0,-1.2767011 0.22375,-2.2177746 0.22375,-0.9410735 0.71074,-1.5925859 0.48699,-0.6449315 1.26354,-0.9673972 0.77655,-0.3224658 1.85583,-0.3224658 1.12534,0 1.88872,0.3356276 0.76339,0.3290467 1.25038,0.98714 0.48041,0.6449315 0.69758,1.5925859 0.21717,0.9410735 0.21717,2.178289 z m -2.54682,0 q 0,-1.776852 -0.34879,-2.5270784 -0.34879,-0.7568074 -1.15824,-0.7568074 -0.80946,0 -1.15825,0.7568074 -0.34879,0.7502264 -0.34879,2.5402403 0,1.7439473 0.35537,2.5139163 0.35537,0.769969 1.15167,0.769969 0.79629,0 1.15166,-0.769969 0.35537,-0.769969 0.35537,-2.5270782 z" />
  </g>
</svg>
