<?xml version="1.0" encoding="UTF-8" standalone="no"?>
<svg
   xmlns:dc="http://purl.org/dc/elements/1.1/"
   xmlns:cc="http://creativecommons.org/ns#"
   xmlns:rdf="http://www.w3.org/1999/02/22-rdf-syntax-ns#"
   xmlns:svg="http://www.w3.org/2000/svg"
   xmlns="http://www.w3.org/2000/svg"
   xmlns:sodipodi="http://sodipodi.sourceforge.net/DTD/sodipodi-0.dtd"
   xmlns:inkscape="http://www.inkscape.org/namespaces/inkscape"
   width="117px"
   height="18px"
   viewBox="0 0 117 18"
   version="1.1"
   id="svg12"
   sodipodi:docname="system.svg"
   inkscape:version="0.92.4 (5da689c313, 2019-01-14)">
  <metadata
     id="metadata16">
    <rdf:RDF>
      <cc:Work
         rdf:about="">
        <dc:format>image/svg+xml</dc:format>
        <dc:type
           rdf:resource="http://purl.org/dc/dcmitype/StillImage" />
        <dc:title>system</dc:title>
      </cc:Work>
    </rdf:RDF>
  </metadata>
  <sodipodi:namedview
     pagecolor="#ffffff"
     bordercolor="#666666"
     borderopacity="1"
     objecttolerance="10"
     gridtolerance="10"
     guidetolerance="10"
     inkscape:pageopacity="0"
     inkscape:pageshadow="2"
     inkscape:window-width="1920"
     inkscape:window-height="1018"
     id="namedview14"
     showgrid="false"
     inkscape:zoom="3.2478632"
     inkscape:cx="101.11826"
     inkscape:cy="8.9999999"
     inkscape:window-x="-8"
     inkscape:window-y="-8"
     inkscape:window-maximized="1"
     inkscape:current-layer="svg12" />
  <!-- Generator: Sketch 45 (43475) - http://www.bohemiancoding.com/sketch -->
  <title
     id="title2">system</title>
  <desc
     id="desc4">Created with Sketch.</desc>
  <defs
     id="defs6" />
  <g
     id="text1915"
     style="font-style:normal;font-variant:normal;font-weight:normal;font-stretch:normal;font-size:18.47268677px;line-height:1.25;font-family:sans-serif;-inkscape-font-specification:sans-serif;letter-spacing:0px;word-spacing:0px;fill:#ffffff;fill-opacity:1;stroke:none;stroke-width:0.86590713"
     aria-label="PSP MINIS">
    <path
       inkscape:connector-curvature="0"
       id="path1923"
       style="font-style:normal;font-variant:normal;font-weight:bold;font-stretch:normal;font-family:sans-serif;-inkscape-font-specification:'sans-serif Bold';fill:#ffffff;stroke-width:0.86590713"
       d="m 16.759318,7.3069955 q 0,0.9019866 -0.315695,1.7678938 -0.315696,0.8568873 -0.901987,1.4431787 -0.802768,0.793748 -1.794953,1.199642 -0.983166,0.405894 -2.453404,0.405894 H 9.1375308 V 16.49824 H 5.673902 V 3.0676582 h 5.700556 q 1.280821,0 2.155748,0.2254966 0.883947,0.2164768 1.560437,0.6584503 0.811788,0.5321721 1.235721,1.3619999 0.432954,0.8298277 0.432954,1.9933905 z m -3.580887,0.081179 q 0,-0.5682516 -0.306675,-0.9741456 Q 12.56508,5.9991148 12.159186,5.8367572 11.617994,5.6202804 11.103862,5.6022407 10.589729,5.5751811 9.732842,5.5751811 H 9.1375308 v 4.0228605 h 0.9921852 q 0.883947,0 1.452199,-0.1082384 0.577271,-0.1082384 0.965125,-0.4329536 0.333735,-0.2886357 0.478053,-0.6855099 0.153338,-0.405894 0.153338,-0.9831652 z" />
    <path
       inkscape:connector-curvature="0"
       id="path1925"
       style="font-style:normal;font-variant:normal;font-weight:bold;font-stretch:normal;font-family:sans-serif;-inkscape-font-specification:'sans-serif Bold';fill:#ffffff;stroke-width:0.86590713"
       d="m 29.955382,12.276942 q 0,1.984371 -1.686715,3.229112 -1.677695,1.235722 -4.564052,1.235722 -1.668675,0 -2.913417,-0.288636 -1.235722,-0.297655 -2.318106,-0.748649 v -3.220092 h 0.378835 q 1.073364,0.856887 2.399284,1.3169 1.33494,0.460014 2.561642,0.460014 0.315696,0 0.829828,-0.05412 0.514132,-0.05412 0.838848,-0.180397 0.396874,-0.162358 0.64943,-0.405894 0.261576,-0.243536 0.261576,-0.721589 0,-0.441974 -0.378834,-0.757669 Q 25.643886,11.816929 24.922297,11.645551 24.164628,11.465154 23.316761,11.311816 22.477913,11.149459 21.738284,10.905922 20.042549,10.35571 19.2939,9.4176442 18.554271,8.4705583 18.554271,7.0724789 q 0,-1.8761322 1.677695,-3.0577347 1.686715,-1.1906224 4.329536,-1.1906224 1.325921,0 2.615762,0.2615761 1.29886,0.2525563 2.245946,0.6404105 V 6.8199227 H 29.053396 Q 28.241608,6.1704923 27.060005,5.7375387 25.887423,5.2955652 24.660721,5.2955652 q -0.432954,0 -0.865907,0.063139 -0.423934,0.054119 -0.820808,0.2164768 -0.351775,0.135298 -0.604331,0.4149138 -0.252557,0.270596 -0.252557,0.6223708 0,0.5321722 0.405894,0.8208079 0.405894,0.2796159 1.533378,0.5141324 0.739629,0.1533377 1.416119,0.2976556 0.68551,0.1443179 1.470238,0.3968741 1.542397,0.5051125 2.273006,1.3800394 0.739629,0.865908 0.739629,2.254967 z" />
    <path
       inkscape:connector-curvature="0"
       id="path1927"
       style="font-style:normal;font-variant:normal;font-weight:bold;font-stretch:normal;font-family:sans-serif;-inkscape-font-specification:'sans-serif Bold';fill:#ffffff;stroke-width:0.86590713"
       d="m 43.422043,7.3069955 q 0,0.9019866 -0.315695,1.7678938 -0.315695,0.8568873 -0.901987,1.4431787 -0.802768,0.793748 -1.794953,1.199642 -0.983165,0.405894 -2.453404,0.405894 H 35.800256 V 16.49824 H 32.336627 V 3.0676582 h 5.700556 q 1.280821,0 2.155748,0.2254966 0.883947,0.2164768 1.560437,0.6584503 0.811788,0.5321721 1.235722,1.3619999 0.432953,0.8298277 0.432953,1.9933905 z m -3.580887,0.081179 q 0,-0.5682516 -0.306675,-0.9741456 Q 39.227806,5.9991148 38.821912,5.8367572 38.28072,5.6202804 37.766587,5.6022407 q -0.514132,-0.02706 -1.37102,-0.02706 h -0.595311 v 4.0228605 h 0.992186 q 0.883946,0 1.452198,-0.1082384 0.577272,-0.1082384 0.965126,-0.4329536 0.333735,-0.2886357 0.478053,-0.6855099 0.153337,-0.405894 0.153337,-0.9831648 z" />
    <path
       inkscape:connector-curvature="0"
       id="path1929"
       style="font-style:normal;font-variant:normal;font-weight:bold;font-stretch:normal;font-family:sans-serif;-inkscape-font-specification:'sans-serif Bold';fill:#ffffff;stroke-width:0.86590713"
       d="M 66.260345,16.49824 H 62.814756 V 7.5054325 L 60.325273,13.341286 H 57.935008 L 55.445525,7.5054325 V 16.49824 H 52.180334 V 3.0676582 h 4.02286 l 3.021655,6.7378403 3.012636,-6.7378403 h 4.02286 z" />
    <path
       inkscape:connector-curvature="0"
       id="path1931"
       style="font-style:normal;font-variant:normal;font-weight:bold;font-stretch:normal;font-family:sans-serif;-inkscape-font-specification:'sans-serif Bold';fill:#ffffff;stroke-width:0.86590713"
       d="m 76.939869,16.49824 h -7.865324 v -2.381245 h 2.200848 V 5.4489029 H 69.074545 V 3.0676582 h 7.865324 v 2.3812447 h -2.200847 v 8.6680921 h 2.200847 z" />
    <path
       inkscape:connector-curvature="0"
       id="path1933"
       style="font-style:normal;font-variant:normal;font-weight:bold;font-stretch:normal;font-family:sans-serif;-inkscape-font-specification:'sans-serif Bold';fill:#ffffff;stroke-width:0.86590713"
       d="M 91.994025,16.49824 H 88.656674 L 82.956119,7.2799359 V 16.49824 H 79.781126 V 3.0676582 h 4.140118 l 4.897788,7.6939458 V 3.0676582 h 3.174993 z" />
    <path
       inkscape:connector-curvature="0"
       id="path1935"
       style="font-style:normal;font-variant:normal;font-weight:bold;font-stretch:normal;font-family:sans-serif;-inkscape-font-specification:'sans-serif Bold';fill:#ffffff;stroke-width:0.86590713"
       d="m 102.7006,16.49824 h -7.86532 v -2.381245 h 2.200847 V 5.4489029 H 94.83528 V 3.0676582 h 7.86532 v 2.3812447 h -2.20084 v 8.6680921 h 2.20084 z" />
    <path
       inkscape:connector-curvature="0"
       id="path1937"
       style="font-style:normal;font-variant:normal;font-weight:bold;font-stretch:normal;font-family:sans-serif;-inkscape-font-specification:'sans-serif Bold';fill:#ffffff;stroke-width:0.86590713"
       d="m 116.29355,12.276942 q 0,1.984371 -1.68672,3.229112 -1.67769,1.235722 -4.56405,1.235722 -1.66867,0 -2.91342,-0.288636 -1.23572,-0.297655 -2.3181,-0.748649 v -3.220092 h 0.37883 q 1.07337,0.856887 2.39929,1.3169 1.33494,0.460014 2.56164,0.460014 0.31569,0 0.82983,-0.05412 0.51413,-0.05412 0.83884,-0.180397 0.39688,-0.162358 0.64944,-0.405894 0.26157,-0.243536 0.26157,-0.721589 0,-0.441974 -0.37883,-0.757669 -0.36982,-0.324715 -1.09141,-0.496093 -0.75767,-0.180397 -1.60553,-0.333735 -0.83885,-0.162357 -1.57848,-0.405894 -1.69573,-0.550212 -2.44438,-1.4882778 -0.73963,-0.9470859 -0.73963,-2.3451653 0,-1.8761322 1.67769,-3.0577347 1.68672,-1.1906224 4.32954,-1.1906224 1.32592,0 2.61576,0.2615761 1.29886,0.2525563 2.24595,0.6404105 v 3.0938143 h -0.36982 q -0.81179,-0.6494304 -1.99339,-1.082384 -1.17258,-0.4419735 -2.39928,-0.4419735 -0.43296,0 -0.86591,0.063139 -0.42393,0.054119 -0.82081,0.2164768 -0.35177,0.135298 -0.60433,0.4149138 -0.25256,0.270596 -0.25256,0.6223708 0,0.5321722 0.4059,0.8208079 0.40589,0.2796159 1.53338,0.5141324 0.73962,0.1533377 1.41611,0.2976556 0.68551,0.1443179 1.47024,0.3968741 1.5424,0.5051125 2.27301,1.3800394 0.73963,0.865908 0.73963,2.254967 z" />
  </g>
</svg>
