<?xml version="1.0" encoding="UTF-8" standalone="no"?>
<svg
   xmlns:dc="http://purl.org/dc/elements/1.1/"
   xmlns:cc="http://creativecommons.org/ns#"
   xmlns:rdf="http://www.w3.org/1999/02/22-rdf-syntax-ns#"
   xmlns:svg="http://www.w3.org/2000/svg"
   xmlns="http://www.w3.org/2000/svg"
   xmlns:sodipodi="http://sodipodi.sourceforge.net/DTD/sodipodi-0.dtd"
   xmlns:inkscape="http://www.inkscape.org/namespaces/inkscape"
   width="81px"
   height="18px"
   viewBox="0 0 81 18"
   version="1.1"
   id="svg12"
   sodipodi:docname="system.svg"
   inkscape:version="0.92.4 (5da689c313, 2019-01-14)">
  <metadata
     id="metadata16">
    <rdf:RDF>
      <cc:Work
         rdf:about="">
        <dc:format>image/svg+xml</dc:format>
        <dc:type
           rdf:resource="http://purl.org/dc/dcmitype/StillImage" />
      </cc:Work>
    </rdf:RDF>
  </metadata>
  <sodipodi:namedview
     pagecolor="#ffffff"
     bordercolor="#666666"
     borderopacity="1"
     objecttolerance="10"
     gridtolerance="10"
     guidetolerance="10"
     inkscape:pageopacity="0"
     inkscape:pageshadow="2"
     inkscape:window-width="1920"
     inkscape:window-height="1018"
     id="namedview14"
     showgrid="false"
     inkscape:zoom="4.691358"
     inkscape:cx="40.5"
     inkscape:cy="9"
     inkscape:window-x="-8"
     inkscape:window-y="-8"
     inkscape:window-maximized="1"
     inkscape:current-layer="svg12" />
  <!-- Generator: Sketch 45 (43475) - http://www.bohemiancoding.com/sketch -->
  <title
     id="title2">system</title>
  <desc
     id="desc4">Created with Sketch.</desc>
  <defs
     id="defs6" />
  <path
     style="fill:#ffffff;fill-rule:evenodd;stroke:none;stroke-width:1"
     inkscape:connector-curvature="0"
     id="ATARI-LYNX-Copy"
     d="m 16.708,14 h -1.862 l -0.84,-2.366 H 10.744 L 9.904,14 H 8.042 l 3.486,-9.8 h 1.694 z M 13.39,9.898 12.368,7.028 11.36,9.898 Z M 23.554,5.936 H 20.782 V 14 H 18.99 V 5.936 H 16.218 V 4.2 h 7.336 z M 31.73,14 h -1.862 l -0.84,-2.366 H 25.766 L 24.926,14 H 23.064 L 26.55,4.2 h 1.694 z M 28.412,9.898 27.39,7.028 26.382,9.898 Z M 40.354,14 h -1.862 l -2.03,-3.64 h -1.82 V 14 H 32.85 V 4.2 h 3.584 c 2.249345,0 3.374,0.9426572 3.374,2.828 0,0.7000035 -0.144665,1.2693311 -0.434,1.708 -0.289335,0.4386689 -0.699997,0.8213317 -1.232,1.148 z M 36.028,5.698 H 34.642 V 8.68 h 1.316 c 0.756004,0 1.273999,-0.1306654 1.554,-0.392 0.280001,-0.2613346 0.42,-0.6393309 0.42,-1.134 0,-0.4946691 -0.135332,-0.8609988 -0.406,-1.099 C 37.255332,5.8169988 36.756004,5.698 36.028,5.698 Z M 43.406,14 H 41.614 V 4.2 h 1.792 z m 11.13,0 H 48.712 V 4.2 h 1.792 v 8.064 h 4.032 z M 61.718,4.2 58.33,9.66 V 14 H 56.538 V 9.66 L 53.15,4.2 h 1.904 l 2.38,3.864 2.38,-3.864 z M 70.44,14 H 68.97 L 64.49,7.28 V 14 H 62.698 V 4.2 h 1.764 l 4.186,6.328 V 4.2 h 1.792 z m 9.884,0 H 78.252 L 75.872,10.402 73.562,14 H 71.504 L 74.962,9.114 71.658,4.2 H 73.73 L 75.998,7.644 78.07,4.2 h 2.058 l -3.22,4.718 z" />
</svg>
