<?xml version="1.0" encoding="UTF-8" standalone="no"?>
<svg
   xmlns:dc="http://purl.org/dc/elements/1.1/"
   xmlns:cc="http://creativecommons.org/ns#"
   xmlns:rdf="http://www.w3.org/1999/02/22-rdf-syntax-ns#"
   xmlns:svg="http://www.w3.org/2000/svg"
   xmlns="http://www.w3.org/2000/svg"
   xmlns:sodipodi="http://sodipodi.sourceforge.net/DTD/sodipodi-0.dtd"
   xmlns:inkscape="http://www.inkscape.org/namespaces/inkscape"
   width="117px"
   height="18px"
   viewBox="0 0 117 18"
   version="1.1"
   id="svg12"
   sodipodi:docname="system.svg"
   inkscape:version="0.92.4 (5da689c313, 2019-01-14)">
  <metadata
     id="metadata16">
    <rdf:RDF>
      <cc:Work
         rdf:about="">
        <dc:format>image/svg+xml</dc:format>
        <dc:type
           rdf:resource="http://purl.org/dc/dcmitype/StillImage" />
        <dc:title>system</dc:title>
      </cc:Work>
    </rdf:RDF>
  </metadata>
  <sodipodi:namedview
     pagecolor="#ffffff"
     bordercolor="#666666"
     borderopacity="1"
     objecttolerance="10"
     gridtolerance="10"
     guidetolerance="10"
     inkscape:pageopacity="0"
     inkscape:pageshadow="2"
     inkscape:window-width="1920"
     inkscape:window-height="1018"
     id="namedview14"
     showgrid="false"
     inkscape:zoom="3.2478632"
     inkscape:cx="101.11826"
     inkscape:cy="8.9999999"
     inkscape:window-x="-8"
     inkscape:window-y="-8"
     inkscape:window-maximized="1"
     inkscape:current-layer="svg12" />
  <!-- Generator: Sketch 45 (43475) - http://www.bohemiancoding.com/sketch -->
  <title
     id="title2">system</title>
  <desc
     id="desc4">Created with Sketch.</desc>
  <defs
     id="defs6" />
  <g
     id="text1865"
     style="font-style:normal;font-variant:normal;font-weight:normal;font-stretch:normal;font-size:13.15587616px;line-height:1.25;font-family:sans-serif;-inkscape-font-specification:sans-serif;letter-spacing:0px;word-spacing:0px;fill:#ffffff;fill-opacity:1;stroke:none;stroke-width:0.61668169"
     aria-label="PLAYSTATION2">
    <path
       inkscape:connector-curvature="0"
       id="path1873"
       style="font-style:normal;font-variant:normal;font-weight:bold;font-stretch:normal;font-family:sans-serif;-inkscape-font-specification:'sans-serif Bold';fill:#ffffff;stroke-width:0.61668169"
       d="m 11.876608,7.575327 q 0,0.6423767 -0.224832,1.2590584 -0.224832,0.6102579 -0.642377,1.0278028 -0.571715,0.5652918 -1.2783298,0.8543608 -0.7001907,0.28907 -1.7472648,0.28907 H 6.4485239 v 3.115527 H 3.9817971 V 4.5561562 h 4.0598212 q 0.912175,0 1.5352804,0.1605942 0.6295293,0.1541704 1.1113123,0.468935 0.578139,0.3790023 0.880056,0.9699889 0.308341,0.5909866 0.308341,1.4196527 z M 9.3263718,7.633141 q 0,-0.4046974 -0.2184081,-0.6937669 Q 8.8895556,6.6438807 8.6004861,6.5282528 8.21506,6.3740824 7.8489052,6.3612349 7.4827505,6.3419636 6.8724926,6.3419636 H 6.4485239 v 2.8650003 h 0.7066144 q 0.6295293,0 1.0342266,-0.077085 Q 8.6004861,9.0527935 8.8767081,8.8215379 9.1143875,8.6159773 9.2171677,8.3333315 9.3263718,8.044262 9.3263718,7.633141 Z" />
    <path
       inkscape:connector-curvature="0"
       id="path1875"
       style="font-style:normal;font-variant:normal;font-weight:bold;font-stretch:normal;font-family:sans-serif;-inkscape-font-specification:'sans-serif Bold';fill:#ffffff;stroke-width:0.61668169"
       d="M 20.516575,14.121146 H 13.617449 V 4.5561562 h 2.466726 v 7.7149448 h 4.4324 z" />
    <path
       inkscape:connector-curvature="0"
       id="path1877"
       style="font-style:normal;font-variant:normal;font-weight:bold;font-stretch:normal;font-family:sans-serif;-inkscape-font-specification:'sans-serif Bold';fill:#ffffff;stroke-width:0.61668169"
       d="m 30.833147,14.121146 h -2.550236 l -0.661648,-1.933554 h -3.54592 l -0.661648,1.933554 h -2.485998 l 3.533072,-9.5649898 h 2.839305 z m -3.809295,-3.687242 -1.175549,-3.4302924 -1.17555,3.4302924 z" />
    <path
       inkscape:connector-curvature="0"
       id="path1879"
       style="font-style:normal;font-variant:normal;font-weight:bold;font-stretch:normal;font-family:sans-serif;-inkscape-font-specification:'sans-serif Bold';fill:#ffffff;stroke-width:0.61668169"
       d="m 40.635815,4.5561562 -3.526649,5.8648998 v 3.70009 H 34.64244 V 10.536684 L 31.057977,4.5561562 h 2.800763 l 2.068453,3.7000901 1.997792,-3.7000901 z" />
    <path
       inkscape:connector-curvature="0"
       id="path1881"
       style="font-style:normal;font-variant:normal;font-weight:bold;font-stretch:normal;font-family:sans-serif;-inkscape-font-specification:'sans-serif Bold';fill:#ffffff;stroke-width:0.61668169"
       d="m 49.564851,11.114823 q 0,1.413229 -1.201245,2.299709 -1.194821,0.880056 -3.250426,0.880056 -1.188397,0 -2.074877,-0.205561 -0.880057,-0.211984 -1.650909,-0.533172 V 11.26257 h 0.269799 q 0.764428,0.610258 1.708722,0.93787 0.950717,0.327612 1.82435,0.327612 0.224832,0 0.590986,-0.03854 0.366155,-0.03854 0.597411,-0.128475 0.282646,-0.115628 0.462511,-0.28907 0.186289,-0.173441 0.186289,-0.513901 0,-0.314765 -0.269798,-0.539597 -0.263374,-0.231258 -0.777276,-0.35331 -0.539596,-0.128475 -1.14343,-0.237679 -0.597411,-0.115628 -1.12416,-0.28907 Q 42.50513,9.7465604 41.971957,9.0784886 41.445208,8.403993 41.445208,7.408309 q 0,-1.3361437 1.194821,-2.1776572 1.201245,-0.8479374 3.083408,-0.8479374 0.944294,0 1.862893,0.1862893 0.925023,0.1798655 1.599518,0.4560875 V 7.2284435 H 48.922474 Q 48.344335,6.7659322 47.502821,6.4575914 46.667731,6.1428268 45.794099,6.1428268 q -0.308341,0 -0.616682,0.044966 -0.301917,0.038543 -0.584563,0.1541705 -0.250527,0.096357 -0.430392,0.2954933 -0.179866,0.192713 -0.179866,0.44324 0,0.3790022 0.28907,0.5845628 0.28907,0.1991368 1.09204,0.3661548 0.526749,0.109204 1.008532,0.2119843 0.488206,0.1027803 1.047074,0.2826458 1.098464,0.359731 1.61879,0.9828364 0.526749,0.6166823 0.526749,1.6059423 z" />
    <path
       inkscape:connector-curvature="0"
       id="path1883"
       style="font-style:normal;font-variant:normal;font-weight:bold;font-stretch:normal;font-family:sans-serif;-inkscape-font-specification:'sans-serif Bold';fill:#ffffff;stroke-width:0.61668169"
       d="M 58.744417,6.4062012 H 55.757365 V 14.121146 H 53.290638 V 6.4062012 h -2.987052 v -1.850045 h 8.440831 z" />
    <path
       inkscape:connector-curvature="0"
       id="path1885"
       style="font-style:normal;font-variant:normal;font-weight:bold;font-stretch:normal;font-family:sans-serif;-inkscape-font-specification:'sans-serif Bold';fill:#ffffff;stroke-width:0.61668169"
       d="m 69.067411,14.121146 h -2.550236 l -0.661648,-1.933554 h -3.54592 l -0.661648,1.933554 h -2.485998 l 3.533072,-9.5649898 h 2.839306 z m -3.809294,-3.687242 -1.17555,-3.4302924 -1.175549,3.4302924 z" />
    <path
       inkscape:connector-curvature="0"
       id="path1887"
       style="font-style:normal;font-variant:normal;font-weight:bold;font-stretch:normal;font-family:sans-serif;-inkscape-font-specification:'sans-serif Bold';fill:#ffffff;stroke-width:0.61668169"
       d="M 77.938631,6.4062012 H 74.951579 V 14.121146 H 72.484852 V 6.4062012 H 69.4978 v -1.850045 h 8.440831 z" />
    <path
       inkscape:connector-curvature="0"
       id="path1889"
       style="font-style:normal;font-variant:normal;font-weight:bold;font-stretch:normal;font-family:sans-serif;-inkscape-font-specification:'sans-serif Bold';fill:#ffffff;stroke-width:0.61668169"
       d="m 84.593657,14.121146 h -5.601525 v -1.695874 h 1.567399 V 6.2520308 H 78.992132 V 4.5561562 h 5.601525 v 1.6958746 h -1.567399 v 6.1732412 h 1.567399 z" />
    <path
       inkscape:connector-curvature="0"
       id="path1891"
       style="font-style:normal;font-variant:normal;font-weight:bold;font-stretch:normal;font-family:sans-serif;-inkscape-font-specification:'sans-serif Bold';fill:#ffffff;stroke-width:0.61668169"
       d="m 95.918758,9.3418631 q 0,2.2868609 -1.310448,3.6358529 -1.310449,1.342567 -3.623005,1.342567 -2.306133,0 -3.616582,-1.342567 -1.310448,-1.348992 -1.310448,-3.6358529 0,-2.3061326 1.310448,-3.6422763 1.310449,-1.3425674 3.616582,-1.3425674 2.299708,0 3.616581,1.3425674 1.316872,1.3361437 1.316872,3.6422763 z M 92.64906,11.763623 q 0.359731,-0.436816 0.533173,-1.027802 0.173442,-0.597411 0.173442,-1.4003817 0,-0.8607849 -0.199137,-1.464619 Q 92.957401,7.2669861 92.636213,6.8944076 92.308601,6.5089815 91.878208,6.3355398 91.45424,6.1620981 90.991728,6.1620981 q -0.468935,0 -0.88648,0.1670179 -0.411121,0.167018 -0.758004,0.5524441 -0.321189,0.3597309 -0.526749,0.9956839 -0.199137,0.6295293 -0.199137,1.4646191 0,0.8543609 0.192713,1.4581949 0.199137,0.597411 0.520325,0.976413 0.321189,0.379002 0.751581,0.558868 0.430393,0.179865 0.905751,0.179865 0.475359,0 0.905752,-0.179865 0.430392,-0.186289 0.75158,-0.571716 z" />
    <path
       inkscape:connector-curvature="0"
       id="path1893"
       style="font-style:normal;font-variant:normal;font-weight:bold;font-stretch:normal;font-family:sans-serif;-inkscape-font-specification:'sans-serif Bold';fill:#ffffff;stroke-width:0.61668169"
       d="m 106.49228,14.121146 h -2.3768 L 100.05566,7.5560557 V 14.121146 H 97.794495 V 4.5561562 H 100.743 l 3.48811,5.4794738 V 4.5561562 h 2.26117 z" />
    <path
       inkscape:connector-curvature="0"
       id="path1895"
       style="font-style:normal;font-variant:normal;font-weight:bold;font-stretch:normal;font-family:sans-serif;-inkscape-font-specification:'sans-serif Bold';fill:#ffffff;stroke-width:0.61668169"
       d="m 116.42343,14.121146 h -7.50939 v -1.580247 q 0.86079,-0.623105 1.72157,-1.323296 0.86721,-0.70019 1.38753,-1.207668 0.77728,-0.7515809 1.10489,-1.3104487 0.32762,-0.5588678 0.32762,-1.104888 0,-0.6552243 -0.42397,-1.0085316 -0.41755,-0.3597309 -1.20767,-0.3597309 -0.59099,0 -1.24621,0.2441031 -0.6488,0.2441032 -1.20767,0.6231055 h -0.20556 V 4.9672773 q 0.45609,-0.1991368 1.34257,-0.3982736 0.8929,-0.1991368 1.7858,-0.1991368 1.79866,0 2.74295,0.7580046 0.9443,0.7515808 0.9443,2.1326908 0,0.9057513 -0.45609,1.7215698 -0.44967,0.8158185 -1.38111,1.6830269 -0.58456,0.539597 -1.17555,0.995684 -0.59099,0.449664 -0.84151,0.629529 h 4.2975 z" />
  </g>
</svg>
