<?xml version="1.0" encoding="UTF-8" standalone="no"?>
<svg
   xmlns:dc="http://purl.org/dc/elements/1.1/"
   xmlns:cc="http://creativecommons.org/ns#"
   xmlns:rdf="http://www.w3.org/1999/02/22-rdf-syntax-ns#"
   xmlns:svg="http://www.w3.org/2000/svg"
   xmlns="http://www.w3.org/2000/svg"
   xmlns:sodipodi="http://sodipodi.sourceforge.net/DTD/sodipodi-0.dtd"
   xmlns:inkscape="http://www.inkscape.org/namespaces/inkscape"
   width="86px"
   height="18px"
   viewBox="0 0 86 18"
   version="1.1"
   id="svg12"
   sodipodi:docname="system.svg"
   inkscape:version="0.92.4 (5da689c313, 2019-01-14)">
  <metadata
     id="metadata16">
    <rdf:RDF>
      <cc:Work
         rdf:about="">
        <dc:format>image/svg+xml</dc:format>
        <dc:type
           rdf:resource="http://purl.org/dc/dcmitype/StillImage" />
      </cc:Work>
    </rdf:RDF>
  </metadata>
  <sodipodi:namedview
     pagecolor="#ffffff"
     bordercolor="#666666"
     borderopacity="1"
     objecttolerance="10"
     gridtolerance="10"
     guidetolerance="10"
     inkscape:pageopacity="0"
     inkscape:pageshadow="2"
     inkscape:window-width="1920"
     inkscape:window-height="1018"
     id="namedview14"
     showgrid="false"
     inkscape:zoom="4.4186047"
     inkscape:cx="115.09889"
     inkscape:cy="9"
     inkscape:window-x="-8"
     inkscape:window-y="-8"
     inkscape:window-maximized="1"
     inkscape:current-layer="svg12" />
  <!-- Generator: Sketch 45 (43475) - http://www.bohemiancoding.com/sketch -->
  <title
     id="title2">system</title>
  <desc
     id="desc4">Created with Sketch.</desc>
  <defs
     id="defs6" />
  <path
     style="fill:#ffffff;fill-rule:evenodd;stroke:none;stroke-width:1"
     inkscape:connector-curvature="0"
     id="MEGADRIVE-Copy"
     d="M 19.046,14 H 17.184 L 16.344,7.434 13.838,11.942 11.318,7.448 10.478,14 H 8.616 L 9.974,4.2 h 1.47 l 2.394,4.466 2.38,-4.466 h 1.47 z m 8.036,0 H 20.67 V 4.2 h 6.272 v 1.736 h -4.438 v 2.086 h 3.444 v 1.736 h -3.444 v 2.506 h 4.578 z m 5.614,0.196 c -1.390674,0 -2.536329,-0.468995 -3.437,-1.407 -0.900671,-0.938005 -1.351,-2.172326 -1.351,-3.703 0,-1.5213409 0.452662,-2.748662 1.358,-3.682 0.905338,-0.933338 2.081326,-1.4 3.528,-1.4 0.494669,0 1.021997,0.053666 1.582,0.161 0.560003,0.1073339 1.012665,0.2449992 1.358,0.413 l -0.196,1.708 c -0.914671,-0.3733352 -1.815329,-0.56 -2.702,-0.56 -0.980005,0 -1.719664,0.3056636 -2.219,0.917 -0.499336,0.6113364 -0.749,1.4163283 -0.749,2.415 0,1.036005 0.261331,1.86433 0.784,2.485 0.522669,0.62067 1.278662,0.931 2.268,0.931 0.401335,0 0.849331,-0.05133 1.344,-0.154 V 10.57 H 33.186 V 9.086 h 2.87 v 4.368 c -0.354668,0.205334 -0.86333,0.380333 -1.526,0.525 -0.66267,0.144667 -1.273997,0.217 -1.834,0.217 z M 45.422,14 H 43.56 L 42.72,11.634 H 39.458 L 38.618,14 h -1.862 l 3.486,-9.8 h 1.694 z M 42.104,9.898 41.082,7.028 40.074,9.898 Z M 50.21,14 H 46.542 V 4.2 h 3.668 c 1.428007,0 2.589996,0.4386623 3.486,1.316 0.896005,0.8773377 1.344,2.0719924 1.344,3.584 0,1.512008 -0.447995,2.706662 -1.344,3.584 C 52.799996,13.561338 51.638007,14 50.21,14 Z m 0,-8.078 h -1.876 v 6.356 h 1.876 c 0.933338,0 1.644998,-0.279997 2.135,-0.84 C 52.835002,10.877997 53.08,10.098672 53.08,9.1 53.08,8.1013283 52.835002,7.3220028 52.345,6.762 51.854998,6.2019972 51.143338,5.922 50.21,5.922 Z M 64.126,14 h -1.862 l -2.03,-3.64 h -1.82 V 14 H 56.622 V 4.2 h 3.584 c 2.249345,0 3.374,0.9426572 3.374,2.828 0,0.7000035 -0.144665,1.2693311 -0.434,1.708 -0.289335,0.4386689 -0.699997,0.8213317 -1.232,1.148 z M 59.8,5.698 H 58.414 V 8.68 h 1.316 c 0.756004,0 1.273999,-0.1306654 1.554,-0.392 0.280001,-0.2613346 0.42,-0.6393309 0.42,-1.134 0,-0.4946691 -0.135332,-0.8609988 -0.406,-1.099 C 61.027332,5.8169988 60.528004,5.698 59.8,5.698 Z M 67.178,14 H 65.386 V 4.2 h 1.792 z M 77.412,4.2 73.968,14 H 71.784 L 68.256,4.2 h 1.862 L 72.862,11.634 75.564,4.2 Z M 84.944,14 H 78.532 V 4.2 h 6.272 v 1.736 h -4.438 v 2.086 h 3.444 v 1.736 h -3.444 v 2.506 h 4.578 z" />
</svg>
