<?xml version="1.0" encoding="UTF-8" standalone="no"?>
<svg
   xmlns:dc="http://purl.org/dc/elements/1.1/"
   xmlns:cc="http://creativecommons.org/ns#"
   xmlns:rdf="http://www.w3.org/1999/02/22-rdf-syntax-ns#"
   xmlns:svg="http://www.w3.org/2000/svg"
   xmlns="http://www.w3.org/2000/svg"
   xmlns:sodipodi="http://sodipodi.sourceforge.net/DTD/sodipodi-0.dtd"
   xmlns:inkscape="http://www.inkscape.org/namespaces/inkscape"
   width="117px"
   height="18px"
   viewBox="0 0 117 18"
   version="1.1"
   id="svg12"
   sodipodi:docname="system.svg"
   inkscape:version="0.92.4 (5da689c313, 2019-01-14)">
  <metadata
     id="metadata16">
    <rdf:RDF>
      <cc:Work
         rdf:about="">
        <dc:format>image/svg+xml</dc:format>
        <dc:type
           rdf:resource="http://purl.org/dc/dcmitype/StillImage" />
        <dc:title>system</dc:title>
      </cc:Work>
    </rdf:RDF>
  </metadata>
  <sodipodi:namedview
     pagecolor="#ffffff"
     bordercolor="#666666"
     borderopacity="1"
     objecttolerance="10"
     gridtolerance="10"
     guidetolerance="10"
     inkscape:pageopacity="0"
     inkscape:pageshadow="2"
     inkscape:window-width="1920"
     inkscape:window-height="1018"
     id="namedview14"
     showgrid="false"
     inkscape:zoom="3.2478632"
     inkscape:cx="101.11826"
     inkscape:cy="8.9999999"
     inkscape:window-x="-8"
     inkscape:window-y="-8"
     inkscape:window-maximized="1"
     inkscape:current-layer="svg12" />
  <!-- Generator: Sketch 45 (43475) - http://www.bohemiancoding.com/sketch -->
  <title
     id="title2">system</title>
  <desc
     id="desc4">Created with Sketch.</desc>
  <defs
     id="defs6" />
  <g
     id="text1355"
     style="font-style:normal;font-variant:normal;font-weight:normal;font-stretch:normal;font-size:11.83196545px;line-height:1.25;font-family:sans-serif;-inkscape-font-specification:sans-serif;letter-spacing:0px;word-spacing:0px;fill:#ffffff;fill-opacity:1;stroke:none;stroke-width:0.55462337"
     aria-label="COMMODORE 64">
    <path
       inkscape:connector-curvature="0"
       id="path1363"
       style="font-style:normal;font-variant:normal;font-weight:bold;font-stretch:normal;font-family:sans-serif;-inkscape-font-specification:'sans-serif Bold';fill:#ffffff;stroke-width:0.55462337"
       d="m 12.237369,13.385048 q -0.959037,0 -1.77364,-0.283089 -0.8088256,-0.283089 -1.3923356,-0.84349 -0.58351,-0.560401 -0.9070403,-1.398113 -0.317753,-0.837712 -0.317753,-1.9354044 0,-1.0225869 0.3061983,-1.8545219 Q 8.4589967,6.2384946 9.0425067,5.6434299 9.6029075,5.0714746 10.429065,4.7594989 11.261,4.4475233 12.243146,4.4475233 q 0.543069,0 0.976368,0.06355 0.439077,0.057773 0.808826,0.1559879 0.387081,0.1097692 0.699056,0.248425 0.317753,0.1328785 0.554624,0.2484251 v 2.085615 H 15.027817 Q 14.866052,7.1108709 14.617627,6.9202192 14.374979,6.7295674 14.063004,6.5446929 13.745251,6.3598185 13.375502,6.2327173 13.005753,6.1056161 12.584008,6.1056161 q -0.467963,0 -0.889708,0.1502105 -0.421745,0.1444331 -0.779939,0.4852954 -0.340863,0.3293077 -0.554624,0.8723764 -0.207983,0.5430687 -0.207983,1.3172305 0,0.8088258 0.225315,1.3518941 0.231093,0.543069 0.577733,0.855045 0.352417,0.317753 0.785716,0.456409 0.4333,0.132878 0.855045,0.132878 0.404413,0 0.797271,-0.121324 0.398635,-0.121324 0.73372,-0.329307 0.283089,-0.167543 0.525737,-0.358195 0.242648,-0.190651 0.398636,-0.329307 h 0.231093 v 2.056728 q -0.323531,0.144433 -0.618174,0.271534 -0.294644,0.127102 -0.618174,0.219539 -0.421745,0.121324 -0.791494,0.184874 -0.369749,0.06355 -1.016809,0.06355 z" />
    <path
       inkscape:connector-curvature="0"
       id="path1365"
       style="font-style:normal;font-variant:normal;font-weight:bold;font-stretch:normal;font-family:sans-serif;-inkscape-font-specification:'sans-serif Bold';fill:#ffffff;stroke-width:0.55462337"
       d="m 25.28835,8.9191743 q 0,2.0567287 -1.178575,3.2699667 -1.178574,1.207462 -3.258412,1.207462 -2.07406,0 -3.252635,-1.207462 -1.178575,-1.213238 -1.178575,-3.2699667 0,-2.0740604 1.178575,-3.2757444 1.178575,-1.2074613 3.252635,-1.2074613 2.068283,0 3.252635,1.2074613 1.184352,1.201684 1.184352,3.2757444 z m -2.940659,2.1780517 q 0.32353,-0.392858 0.479518,-0.924372 0.155988,-0.5372912 0.155988,-1.2594571 0,-0.7741618 -0.179098,-1.3172305 Q 22.625002,7.0530977 22.336136,6.7180127 22.041492,6.3713731 21.654411,6.2153853 21.273108,6.0593975 20.85714,6.0593975 q -0.421745,0 -0.797271,0.1502105 -0.369749,0.1502105 -0.681724,0.4968501 -0.288867,0.3235303 -0.473741,0.8954856 -0.179097,0.5661781 -0.179097,1.3172306 0,0.7683844 0.173319,1.3114527 0.179098,0.537292 0.467964,0.878154 0.288866,0.340862 0.675947,0.502628 0.387081,0.161765 0.814603,0.161765 0.427522,0 0.814603,-0.161765 0.387081,-0.167543 0.675948,-0.514183 z" />
    <path
       inkscape:connector-curvature="0"
       id="path1367"
       style="font-style:normal;font-variant:normal;font-weight:bold;font-stretch:normal;font-family:sans-serif;-inkscape-font-specification:'sans-serif Bold';fill:#ffffff;stroke-width:0.55462337"
       d="M 35.993737,13.217505 H 33.786798 V 7.4575106 L 32.192256,11.195441 H 30.661265 L 29.066722,7.4575106 V 13.217505 H 26.97533 V 4.6150657 h 2.576688 l 1.935404,4.3156632 1.929627,-4.3156632 h 2.576688 z" />
    <path
       inkscape:connector-curvature="0"
       id="path1369"
       style="font-style:normal;font-variant:normal;font-weight:bold;font-stretch:normal;font-family:sans-serif;-inkscape-font-specification:'sans-serif Bold';fill:#ffffff;stroke-width:0.55462337"
       d="M 47.201751,13.217505 H 44.994812 V 7.4575106 L 43.40027,11.195441 H 41.869278 L 40.274736,7.4575106 V 13.217505 H 38.183344 V 4.6150657 h 2.576687 l 1.935405,4.3156632 1.929627,-4.3156632 h 2.576688 z" />
    <path
       inkscape:connector-curvature="0"
       id="path1371"
       style="font-style:normal;font-variant:normal;font-weight:bold;font-stretch:normal;font-family:sans-serif;-inkscape-font-specification:'sans-serif Bold';fill:#ffffff;stroke-width:0.55462337"
       d="m 57.756926,8.9191743 q 0,2.0567287 -1.178574,3.2699667 -1.178575,1.207462 -3.258413,1.207462 -2.07406,0 -3.252635,-1.207462 -1.178574,-1.213238 -1.178574,-3.2699667 0,-2.0740604 1.178574,-3.2757444 1.178575,-1.2074613 3.252635,-1.2074613 2.068283,0 3.252635,1.2074613 1.184352,1.201684 1.184352,3.2757444 z m -2.940659,2.1780517 q 0.32353,-0.392858 0.479518,-0.924372 0.155988,-0.5372912 0.155988,-1.2594571 0,-0.7741618 -0.179097,-1.3172305 Q 55.093579,7.0530977 54.804712,6.7180127 54.510069,6.3713731 54.122988,6.2153853 53.741684,6.0593975 53.325717,6.0593975 q -0.421745,0 -0.797271,0.1502105 -0.369749,0.1502105 -0.681725,0.4968501 -0.288866,0.3235303 -0.473741,0.8954856 -0.179097,0.5661781 -0.179097,1.3172306 0,0.7683844 0.17332,1.3114527 0.179097,0.537292 0.467963,0.878154 0.288867,0.340862 0.675948,0.502628 0.38708,0.161765 0.814603,0.161765 0.427522,0 0.814603,-0.161765 0.387081,-0.167543 0.675947,-0.514183 z" />
    <path
       inkscape:connector-curvature="0"
       id="path1373"
       style="font-style:normal;font-variant:normal;font-weight:bold;font-stretch:normal;font-family:sans-serif;-inkscape-font-specification:'sans-serif Bold';fill:#ffffff;stroke-width:0.55462337"
       d="m 67.572607,8.9249516 q 0,1.2016844 -0.548846,2.1549434 -0.548846,0.947481 -1.386558,1.455886 -0.629729,0.381303 -1.380781,0.531514 -0.751053,0.15021 -1.779417,0.15021 H 59.443908 V 4.6150657 h 3.119757 q 1.051473,0 1.81408,0.1790972 0.762608,0.1733198 1.282567,0.4968501 0.889708,0.5430687 1.398113,1.467441 0.514182,0.918595 0.514182,2.1664976 z m -2.293599,-0.017332 q 0,-0.849267 -0.311975,-1.450109 Q 64.660834,6.8508912 63.990665,6.5100289 63.649802,6.3424865 63.291608,6.2847132 62.939191,6.2211626 62.222803,6.2211626 h -0.560401 v 5.3844684 h 0.560401 q 0.791493,0 1.161242,-0.06933 0.369749,-0.07511 0.722166,-0.265757 0.606619,-0.346639 0.889708,-0.924372 0.283089,-0.58351 0.283089,-1.4385544 z" />
    <path
       inkscape:connector-curvature="0"
       id="path1375"
       style="font-style:normal;font-variant:normal;font-weight:bold;font-stretch:normal;font-family:sans-serif;-inkscape-font-specification:'sans-serif Bold';fill:#ffffff;stroke-width:0.55462337"
       d="m 77.630931,8.9191743 q 0,2.0567287 -1.178575,3.2699667 -1.178575,1.207462 -3.258412,1.207462 -2.074061,0 -3.252635,-1.207462 -1.178575,-1.213238 -1.178575,-3.2699667 0,-2.0740604 1.178575,-3.2757444 1.178574,-1.2074613 3.252635,-1.2074613 2.068283,0 3.252635,1.2074613 1.184352,1.201684 1.184352,3.2757444 z m -2.94066,2.1780517 q 0.323531,-0.392858 0.479518,-0.924372 0.155988,-0.5372912 0.155988,-1.2594571 0,-0.7741618 -0.179097,-1.3172305 Q 74.967583,7.0530977 74.678717,6.7180127 74.384073,6.3713731 73.996992,6.2153853 73.615689,6.0593975 73.199721,6.0593975 q -0.421745,0 -0.797271,0.1502105 -0.369749,0.1502105 -0.681725,0.4968501 -0.288866,0.3235303 -0.47374,0.8954856 -0.179098,0.5661781 -0.179098,1.3172306 0,0.7683844 0.17332,1.3114527 0.179097,0.537292 0.467964,0.878154 0.288866,0.340862 0.675947,0.502628 0.387081,0.161765 0.814603,0.161765 0.427522,0 0.814603,-0.161765 0.387081,-0.167543 0.675947,-0.514183 z" />
    <path
       inkscape:connector-curvature="0"
       id="path1377"
       style="font-style:normal;font-variant:normal;font-weight:bold;font-stretch:normal;font-family:sans-serif;-inkscape-font-specification:'sans-serif Bold';fill:#ffffff;stroke-width:0.55462337"
       d="m 84.141977,7.2495268 q 0,-0.3235303 -0.132879,-0.5546234 Q 83.87622,6.4638103 83.552689,6.3309318 83.327374,6.2384946 83.026953,6.2211626 82.726532,6.1980533 82.327896,6.1980533 h -0.803048 v 2.3167081 h 0.681724 q 0.531514,0 0.889709,-0.051996 0.358194,-0.051996 0.600842,-0.2368704 0.231093,-0.1790971 0.335085,-0.3928582 0.109769,-0.2195384 0.109769,-0.58351 z m 3.460619,5.9679782 h -2.709567 l -2.345594,-3.15442 h -1.022587 v 3.15442 H 79.317909 V 4.6150657 h 3.720598 q 0.762608,0 1.311454,0.08666 0.548846,0.08666 1.028364,0.3755263 0.485295,0.2888663 0.768384,0.7510525 0.288867,0.4564088 0.288867,1.149688 0,0.953259 -0.444855,1.554101 -0.439076,0.600842 -1.259457,0.9994775 z" />
    <path
       inkscape:connector-curvature="0"
       id="path1379"
       style="font-style:normal;font-variant:normal;font-weight:bold;font-stretch:normal;font-family:sans-serif;-inkscape-font-specification:'sans-serif Bold';fill:#ffffff;stroke-width:0.55462337"
       d="M 94.806928,13.217505 H 88.584747 V 4.6150657 h 6.222181 v 1.6638702 h -4.015242 v 1.484773 h 3.726376 V 9.427579 h -3.726376 v 2.126056 h 4.015242 z" />
    <path
       inkscape:connector-curvature="0"
       id="path1381"
       style="font-style:normal;font-variant:normal;font-weight:bold;font-stretch:normal;font-family:sans-serif;-inkscape-font-specification:'sans-serif Bold';fill:#ffffff;stroke-width:0.55462337"
       d="m 107.43039,10.288401 q 0,0.664392 -0.24265,1.247902 -0.24265,0.58351 -0.68173,0.982146 -0.46796,0.427522 -1.08613,0.652838 -0.6124,0.225316 -1.43856,0.225316 -0.77416,0 -1.41544,-0.207984 -0.63551,-0.213761 -1.09192,-0.647061 -0.52573,-0.49685 -0.80305,-1.282566 -0.27731,-0.785717 -0.27731,-1.8776316 0,-1.1323561 0.25998,-2.0105097 0.25998,-0.8781537 0.84927,-1.554101 0.56618,-0.6470606 1.46744,-1.0052549 0.90704,-0.3581942 2.15494,-0.3581942 0.42175,0 0.92437,0.057773 0.50263,0.057773 0.65284,0.08666 v 1.6927567 h -0.21954 q -0.15598,-0.075105 -0.53151,-0.1675425 -0.36975,-0.098215 -0.84349,-0.098215 -1.10925,0 -1.72742,0.5430687 -0.61817,0.5430687 -0.74528,1.5136597 0.44486,-0.2657571 0.93593,-0.4275222 0.49685,-0.1675425 1.06881,-0.1675425 0.50262,0 0.93015,0.1155465 0.4333,0.1155466 0.80305,0.3697489 0.47951,0.335085 0.76838,0.901263 0.28887,0.5661781 0.28887,1.4154461 z m -2.62869,1.299898 q 0.1791,-0.196429 0.28309,-0.462186 0.10977,-0.271534 0.10977,-0.73372 0,-0.4217453 -0.12132,-0.6875023 -0.12133,-0.2715344 -0.33509,-0.4332995 -0.20798,-0.1617652 -0.49107,-0.2195384 -0.28309,-0.063551 -0.58351,-0.063551 -0.2542,0 -0.53152,0.057773 -0.27731,0.057773 -0.5084,0.1444332 0,0.057773 -0.006,0.1906518 -0.006,0.1328785 -0.006,0.335085 0,0.7106112 0.13865,1.1727972 0.14443,0.456409 0.3813,0.699056 0.16177,0.179097 0.38131,0.265757 0.21954,0.08088 0.47374,0.08088 0.19065,0 0.42174,-0.08666 0.2311,-0.08666 0.39286,-0.25998 z" />
    <path
       inkscape:connector-curvature="0"
       id="path1383"
       style="font-style:normal;font-variant:normal;font-weight:bold;font-stretch:normal;font-family:sans-serif;-inkscape-font-specification:'sans-serif Bold';fill:#ffffff;stroke-width:0.55462337"
       d="m 115.97505,11.235882 h -1.17279 v 2.004733 h -2.12028 v -2.004733 h -4.16546 V 9.6066762 l 4.0268,-4.9916105 h 2.25894 v 5.0493837 h 1.17279 z M 112.68198,9.6644494 V 6.5562476 l -2.50159,3.1082018 z" />
  </g>
</svg>
