<?xml version="1.0" encoding="UTF-8" standalone="no"?>
<svg
   xmlns:dc="http://purl.org/dc/elements/1.1/"
   xmlns:cc="http://creativecommons.org/ns#"
   xmlns:rdf="http://www.w3.org/1999/02/22-rdf-syntax-ns#"
   xmlns:svg="http://www.w3.org/2000/svg"
   xmlns="http://www.w3.org/2000/svg"
   xmlns:sodipodi="http://sodipodi.sourceforge.net/DTD/sodipodi-0.dtd"
   xmlns:inkscape="http://www.inkscape.org/namespaces/inkscape"
   width="117px"
   height="18px"
   viewBox="0 0 117 18"
   version="1.1"
   id="svg12"
   sodipodi:docname="system.svg"
   inkscape:version="0.92.4 (5da689c313, 2019-01-14)">
  <metadata
     id="metadata16">
    <rdf:RDF>
      <cc:Work
         rdf:about="">
        <dc:format>image/svg+xml</dc:format>
        <dc:type
           rdf:resource="http://purl.org/dc/dcmitype/StillImage" />
        <dc:title>system</dc:title>
      </cc:Work>
    </rdf:RDF>
  </metadata>
  <sodipodi:namedview
     pagecolor="#ffffff"
     bordercolor="#666666"
     borderopacity="1"
     objecttolerance="10"
     gridtolerance="10"
     guidetolerance="10"
     inkscape:pageopacity="0"
     inkscape:pageshadow="2"
     inkscape:window-width="1920"
     inkscape:window-height="1018"
     id="namedview14"
     showgrid="false"
     inkscape:zoom="3.2478632"
     inkscape:cx="101.11826"
     inkscape:cy="8.9999999"
     inkscape:window-x="-8"
     inkscape:window-y="-8"
     inkscape:window-maximized="1"
     inkscape:current-layer="svg12" />
  <!-- Generator: Sketch 45 (43475) - http://www.bohemiancoding.com/sketch -->
  <title
     id="title2">system</title>
  <desc
     id="desc4">Created with Sketch.</desc>
  <defs
     id="defs6" />
  <g
     id="text1261"
     style="font-style:normal;font-variant:normal;font-weight:normal;font-stretch:normal;font-size:20.01246452px;line-height:1.25;font-family:sans-serif;-inkscape-font-specification:sans-serif;letter-spacing:0px;word-spacing:0px;fill:#ffffff;fill-opacity:1;stroke:none;stroke-width:0.50031155"
     aria-label="COMMODORE 16">
    <path
       inkscape:connector-curvature="0"
       id="path1269"
       style="font-style:normal;font-variant:normal;font-weight:bold;font-stretch:normal;font-size:12.00747681px;font-family:sans-serif;-inkscape-font-specification:'sans-serif Bold';fill:#ffffff;stroke-width:0.50031155"
       d="m 10.589246,13.425239 q -0.9732618,0 -1.7999485,-0.287289 Q 7.9684739,12.850662 7.3763083,12.281949 6.7841427,11.713235 6.4558133,10.863096 6.1333468,10.012958 6.1333468,8.8989827 q 0,-1.0377555 0.3107404,-1.8820313 0.3107404,-0.8442757 0.902906,-1.4481673 0.5687135,-0.5804396 1.4071262,-0.897043 0.8442757,-0.3166034 1.8409896,-0.3166034 0.551125,0 0.990852,0.064493 0.44559,0.05863 0.820823,0.1583017 0.392823,0.1113975 0.709427,0.2521101 0.322466,0.1348496 0.56285,0.2521101 V 7.1987052 H 13.421088 Q 13.256923,7.0579926 13.004813,6.8645128 12.758566,6.6710329 12.441963,6.4834161 12.119496,6.2957993 11.744263,6.1668127 11.369029,6.0378261 10.941028,6.0378261 q -0.474905,0 -0.902906,0.1524387 Q 9.6101211,6.3368405 9.2466135,6.682759 8.900695,7.0169514 8.6837631,7.5680759 q -0.211069,0.5511244 -0.211069,1.3367698 0,0.8208237 0.228658,1.3719483 0.2345211,0.551124 0.5863026,0.867728 0.3576446,0.322466 0.7973713,0.463179 0.439727,0.134849 0.867728,0.134849 0.410412,0 0.809098,-0.123123 0.404548,-0.123124 0.744604,-0.334193 0.287288,-0.170028 0.533535,-0.363507 0.246247,-0.19348 0.404549,-0.334193 h 0.234521 v 2.087237 q -0.328329,0.146576 -0.627344,0.275563 -0.299014,0.128986 -0.627343,0.222795 -0.428001,0.123123 -0.803235,0.187616 -0.375234,0.06449 -1.031893,0.06449 z" />
    <path
       inkscape:connector-curvature="0"
       id="path1271"
       style="font-style:normal;font-variant:normal;font-weight:bold;font-stretch:normal;font-size:12.00747681px;font-family:sans-serif;-inkscape-font-specification:'sans-serif Bold';fill:#ffffff;stroke-width:0.50031155"
       d="m 23.833822,8.8931197 q 0,2.0872373 -1.196058,3.3184723 -1.196057,1.225373 -3.306746,1.225373 -2.104826,0 -3.300884,-1.225373 -1.196057,-1.231235 -1.196057,-3.3184723 0,-2.1048263 1.196057,-3.3243356 1.196058,-1.2253724 3.300884,-1.2253724 2.098963,0 3.300883,1.2253724 1.201921,1.2195093 1.201921,3.3243356 z m -2.98428,2.2103603 q 0.328329,-0.398685 0.486631,-0.938084 0.158301,-0.5452611 0.158301,-1.2781393 0,-0.7856455 -0.181753,-1.3367699 Q 21.130967,6.9993624 20.837816,6.6593069 20.538801,6.3075253 20.145979,6.1492236 19.759019,5.9909219 19.336881,5.9909219 q -0.428001,0 -0.809098,0.1524387 -0.375233,0.1524387 -0.691837,0.5042202 -0.293151,0.3283295 -0.480768,0.908769 -0.181754,0.5745765 -0.181754,1.3367699 0,0.7797824 0.175891,1.3309073 0.181754,0.545261 0.474905,0.891179 0.293152,0.345919 0.685974,0.510084 0.392823,0.164164 0.826687,0.164164 0.433864,0 0.826687,-0.164164 0.392822,-0.170028 0.685974,-0.52181 z" />
    <path
       inkscape:connector-curvature="0"
       id="path1273"
       style="font-style:normal;font-variant:normal;font-weight:bold;font-stretch:normal;font-size:12.00747681px;font-family:sans-serif;-inkscape-font-specification:'sans-serif Bold';fill:#ffffff;stroke-width:0.50031155"
       d="M 34.698009,13.255211 H 32.458333 V 7.4097742 L 30.840138,11.203152 H 29.286436 L 27.668241,7.4097742 V 13.255211 H 25.545825 V 4.5251655 h 2.61491 l 1.964113,4.3796802 1.958251,-4.3796802 h 2.61491 z" />
    <path
       inkscape:connector-curvature="0"
       id="path1275"
       style="font-style:normal;font-variant:normal;font-weight:bold;font-stretch:normal;font-size:12.00747681px;font-family:sans-serif;-inkscape-font-specification:'sans-serif Bold';fill:#ffffff;stroke-width:0.50031155"
       d="M 46.072278,13.255211 H 43.832602 V 7.4097742 L 42.214407,11.203152 H 40.660705 L 39.04251,7.4097742 V 13.255211 H 36.920095 V 4.5251655 h 2.614909 l 1.964114,4.3796802 1.958251,-4.3796802 h 2.614909 z" />
    <path
       inkscape:connector-curvature="0"
       id="path1277"
       style="font-style:normal;font-variant:normal;font-weight:bold;font-stretch:normal;font-size:12.00747681px;font-family:sans-serif;-inkscape-font-specification:'sans-serif Bold';fill:#ffffff;stroke-width:0.50031155"
       d="m 56.784028,8.8931197 q 0,2.0872373 -1.196058,3.3184723 -1.196057,1.225373 -3.306746,1.225373 -2.104827,0 -3.300884,-1.225373 -1.196057,-1.231235 -1.196057,-3.3184723 0,-2.1048263 1.196057,-3.3243356 1.196057,-1.2253724 3.300884,-1.2253724 2.098963,0 3.300883,1.2253724 1.201921,1.2195093 1.201921,3.3243356 z M 53.799747,11.10348 q 0.32833,-0.398685 0.486632,-0.938084 0.158301,-0.5452611 0.158301,-1.2781393 0,-0.7856455 -0.181754,-1.3367699 Q 54.081173,6.9993624 53.788021,6.6593069 53.489007,6.3075253 53.096184,6.1492236 52.709225,5.9909219 52.287087,5.9909219 q -0.428001,0 -0.809098,0.1524387 -0.375233,0.1524387 -0.691837,0.5042202 -0.293151,0.3283295 -0.480768,0.908769 -0.181754,0.5745765 -0.181754,1.3367699 0,0.7797824 0.175891,1.3309073 0.181754,0.545261 0.474905,0.891179 0.293151,0.345919 0.685974,0.510084 0.392823,0.164164 0.826687,0.164164 0.433864,0 0.826686,-0.164164 0.392823,-0.170028 0.685974,-0.52181 z" />
    <path
       inkscape:connector-curvature="0"
       id="path1279"
       style="font-style:normal;font-variant:normal;font-weight:bold;font-stretch:normal;font-size:12.00747681px;font-family:sans-serif;-inkscape-font-specification:'sans-serif Bold';fill:#ffffff;stroke-width:0.50031155"
       d="m 66.745307,8.8989827 q 0,1.2195093 -0.556987,2.1869083 -0.556987,0.961537 -1.407126,1.477483 -0.63907,0.38696 -1.401263,0.539398 -0.762194,0.152439 -1.805812,0.152439 H 58.49603 V 4.5251655 h 3.166034 q 1.067071,0 1.84099,0.1817538 0.77392,0.1758908 1.301592,0.5042202 0.902906,0.5511244 1.418852,1.4892085 0.521809,0.9322211 0.521809,2.1986347 z m -2.327621,-0.017589 q 0,-0.8618647 -0.316603,-1.4716194 Q 63.790342,6.7941565 63.110231,6.4482379 62.764313,6.2782102 62.400805,6.2195799 62.043161,6.1550867 61.316146,6.1550867 h -0.568714 v 5.4643403 h 0.568714 q 0.803234,0 1.178468,-0.07036 0.375233,-0.07622 0.732878,-0.269699 0.615618,-0.351781 0.902906,-0.938084 0.287288,-0.5921655 0.287288,-1.4598934 z" />
    <path
       inkscape:connector-curvature="0"
       id="path1281"
       style="font-style:normal;font-variant:normal;font-weight:bold;font-stretch:normal;font-size:12.00747681px;font-family:sans-serif;-inkscape-font-specification:'sans-serif Bold';fill:#ffffff;stroke-width:0.50031155"
       d="m 76.952836,8.8931197 q 0,2.0872373 -1.196058,3.3184723 -1.196057,1.225373 -3.306746,1.225373 -2.104827,0 -3.300884,-1.225373 -1.196057,-1.231235 -1.196057,-3.3184723 0,-2.1048263 1.196057,-3.3243356 1.196057,-1.2253724 3.300884,-1.2253724 2.098963,0 3.300883,1.2253724 1.201921,1.2195093 1.201921,3.3243356 z M 73.968555,11.10348 q 0.32833,-0.398685 0.486632,-0.938084 0.158301,-0.5452611 0.158301,-1.2781393 0,-0.7856455 -0.181754,-1.3367699 Q 74.249981,6.9993624 73.956829,6.6593069 73.657815,6.3075253 73.264992,6.1492236 72.878033,5.9909219 72.455895,5.9909219 q -0.428001,0 -0.809098,0.1524387 -0.375233,0.1524387 -0.691837,0.5042202 -0.293151,0.3283295 -0.480768,0.908769 -0.181754,0.5745765 -0.181754,1.3367699 0,0.7797824 0.175891,1.3309073 0.181754,0.545261 0.474905,0.891179 0.293151,0.345919 0.685974,0.510084 0.392823,0.164164 0.826687,0.164164 0.433864,0 0.826686,-0.164164 0.392823,-0.170028 0.685974,-0.52181 z" />
    <path
       inkscape:connector-curvature="0"
       id="path1283"
       style="font-style:normal;font-variant:normal;font-weight:bold;font-stretch:normal;font-size:12.00747681px;font-family:sans-serif;-inkscape-font-specification:'sans-serif Bold';fill:#ffffff;stroke-width:0.50031155"
       d="m 83.560465,7.1987052 q 0,-0.3283294 -0.13485,-0.5628504 Q 83.290766,6.4013337 82.962436,6.2664841 82.733778,6.1726757 82.428901,6.1550867 82.124023,6.1316345 81.719475,6.1316345 h -0.814961 v 2.3510734 h 0.691837 q 0.539398,0 0.902906,-0.052767 0.363508,-0.052767 0.609755,-0.2403841 0.234521,-0.1817538 0.340055,-0.3986858 0.111398,-0.2227949 0.111398,-0.5921658 z m 3.511952,6.0565058 H 84.322658 L 81.94227,10.053999 h -1.037756 v 3.201212 H 78.664838 V 4.5251655 h 3.775789 q 0.773919,0 1.330907,0.087945 0.556987,0.087945 1.043618,0.3810966 0.492494,0.2931513 0.779783,0.7621934 0.293151,0.463179 0.293151,1.1667421 0,0.9673993 -0.451453,1.577154 -0.44559,0.6097546 -1.27814,1.0143034 z" />
    <path
       inkscape:connector-curvature="0"
       id="path1285"
       style="font-style:normal;font-variant:normal;font-weight:bold;font-stretch:normal;font-size:12.00747681px;font-family:sans-serif;-inkscape-font-specification:'sans-serif Bold';fill:#ffffff;stroke-width:0.50031155"
       d="M 94.383614,13.255211 H 88.069135 V 4.5251655 h 6.314479 v 1.6885514 h -4.074803 v 1.5067976 h 3.781652 V 9.409066 h -3.781652 v 2.157593 h 4.074803 z" />
    <path
       inkscape:connector-curvature="0"
       id="path1287"
       style="font-style:normal;font-variant:normal;font-weight:bold;font-stretch:normal;font-size:12.00747681px;font-family:sans-serif;-inkscape-font-specification:'sans-serif Bold';fill:#ffffff;stroke-width:0.50031155"
       d="m 106.65493,13.255211 h -5.82785 v -1.524387 h 1.84099 V 7.1166229 h -1.84099 V 5.6919076 q 0.42214,0 0.8091,-0.046904 0.38696,-0.052767 0.64493,-0.1758908 0.30488,-0.1465756 0.45732,-0.3810966 0.15244,-0.2345211 0.17589,-0.5863026 h 1.94066 v 7.2291104 h 1.79995 z" />
    <path
       inkscape:connector-curvature="0"
       id="path1289"
       style="font-style:normal;font-variant:normal;font-weight:bold;font-stretch:normal;font-size:12.00747681px;font-family:sans-serif;-inkscape-font-specification:'sans-serif Bold';fill:#ffffff;stroke-width:0.50031155"
       d="m 115.73089,10.282657 q 0,0.674248 -0.24625,1.266413 -0.24625,0.592166 -0.69184,0.996715 -0.4749,0.433864 -1.10225,0.662522 -0.62148,0.228658 -1.45989,0.228658 -0.78565,0 -1.43644,-0.211069 -0.64493,-0.216932 -1.10811,-0.656659 -0.53354,-0.50422 -0.81496,-1.301592 -0.28143,-0.797371 -0.28143,-1.9054832 0,-1.1491531 0.26384,-2.040333 0.26383,-0.8911799 0.86186,-1.577154 0.57458,-0.6566588 1.48921,-1.0201664 0.9205,-0.3635076 2.18691,-0.3635076 0.428,0 0.93808,0.05863 0.51009,0.05863 0.66252,0.087945 V 6.225443 h -0.22279 q -0.1583,-0.076219 -0.5394,-0.1700278 -0.37523,-0.099671 -0.856,-0.099671 -1.1257,0 -1.75304,0.5511244 -0.62735,0.5511244 -0.75634,1.5361128 0.45146,-0.2696992 0.94981,-0.433864 0.50423,-0.1700277 1.08466,-0.1700277 0.51009,0 0.94395,0.1172605 0.43973,0.1172605 0.81496,0.3752337 0.48663,0.3400555 0.77978,0.914632 0.29316,0.5745765 0.29316,1.4364411 z m -2.66768,1.319181 q 0.18175,-0.199343 0.28729,-0.469042 0.1114,-0.275563 0.1114,-0.744605 0,-0.4280006 -0.12313,-0.6976998 -0.12312,-0.2755622 -0.34005,-0.4397269 -0.21107,-0.1641648 -0.49836,-0.222795 -0.28729,-0.064493 -0.59217,-0.064493 -0.25797,0 -0.5394,0.05863 -0.28142,0.05863 -0.51594,0.1465756 0,0.05863 -0.006,0.1934799 -0.006,0.1348495 -0.006,0.3400555 0,0.7211517 0.14072,1.1901937 0.14657,0.46318 0.38695,0.709427 0.16417,0.181753 0.38696,0.269699 0.2228,0.08208 0.48077,0.08208 0.19348,0 0.428,-0.08794 0.23452,-0.08795 0.39869,-0.263836 z" />
  </g>
</svg>
