<?xml version="1.0" encoding="UTF-8" standalone="no"?>
<svg
   xmlns:dc="http://purl.org/dc/elements/1.1/"
   xmlns:cc="http://creativecommons.org/ns#"
   xmlns:rdf="http://www.w3.org/1999/02/22-rdf-syntax-ns#"
   xmlns:svg="http://www.w3.org/2000/svg"
   xmlns="http://www.w3.org/2000/svg"
   xmlns:sodipodi="http://sodipodi.sourceforge.net/DTD/sodipodi-0.dtd"
   xmlns:inkscape="http://www.inkscape.org/namespaces/inkscape"
   width="117px"
   height="18px"
   viewBox="0 0 117 18"
   version="1.1"
   id="svg12"
   sodipodi:docname="system.svg"
   inkscape:version="0.92.4 (5da689c313, 2019-01-14)">
  <metadata
     id="metadata16">
    <rdf:RDF>
      <cc:Work
         rdf:about="">
        <dc:format>image/svg+xml</dc:format>
        <dc:type
           rdf:resource="http://purl.org/dc/dcmitype/StillImage" />
        <dc:title>system</dc:title>
      </cc:Work>
    </rdf:RDF>
  </metadata>
  <sodipodi:namedview
     pagecolor="#ffffff"
     bordercolor="#666666"
     borderopacity="1"
     objecttolerance="10"
     gridtolerance="10"
     guidetolerance="10"
     inkscape:pageopacity="0"
     inkscape:pageshadow="2"
     inkscape:window-width="1920"
     inkscape:window-height="1018"
     id="namedview14"
     showgrid="false"
     inkscape:zoom="3.2478632"
     inkscape:cx="5.1944251"
     inkscape:cy="8.9999999"
     inkscape:window-x="-8"
     inkscape:window-y="-8"
     inkscape:window-maximized="1"
     inkscape:current-layer="svg12" />
  <!-- Generator: Sketch 45 (43475) - http://www.bohemiancoding.com/sketch -->
  <title
     id="title2">system</title>
  <desc
     id="desc4">Created with Sketch.</desc>
  <defs
     id="defs6" />
  <g
     id="text2133"
     style="font-style:normal;font-variant:normal;font-weight:bold;font-stretch:normal;font-size:18.76147461px;line-height:1.25;font-family:sans-serif;-inkscape-font-specification:'sans-serif Bold';letter-spacing:0px;word-spacing:0px;fill:#ffffff;fill-opacity:1;stroke:none;stroke-width:0.87944412"
     aria-label="SNESMSU1">
    <path
       inkscape:connector-curvature="0"
       id="path2141"
       style="fill:#ffffff;stroke-width:0.87944412"
       d="m 16.184054,11.596375 q 0,2.015393 -1.713084,3.279594 -1.703923,1.25504 -4.6354034,1.25504 -1.6947621,0 -2.958963,-0.293148 -1.25504,-0.302309 -2.3543452,-0.760353 v -3.270433 h 0.3847568 q 1.0901443,0.870283 2.4367931,1.337488 1.3558097,0.467205 2.6016889,0.467205 0.3206308,0 0.8428008,-0.05496 0.52217,-0.05497 0.851961,-0.183218 0.403079,-0.164896 0.659583,-0.412239 0.265666,-0.247344 0.265666,-0.732871 0,-0.448882 -0.384757,-0.769513 Q 11.805155,11.12917 11.072285,10.955114 10.302771,10.771896 9.441649,10.616161 8.5896875,10.451265 7.8384956,10.203922 6.1162509,9.6451083 5.3558981,8.6923772 4.6047063,7.7304852 4.6047063,6.3105494 q 0,-1.9054623 1.703923,-3.1055371 1.7130838,-1.2092356 4.3972207,-1.2092356 1.346649,0 2.656654,0.2656654 1.319166,0.2565045 2.281058,0.6504222 V 6.0540448 H 15.267966 Q 14.443487,5.3944618 13.243413,4.9547397 12.052499,4.5058568 10.80662,4.5058568 q -0.439723,0 -0.8794446,0.064126 Q 9.4966142,4.6249481 9.0935357,4.7898439 8.7362615,4.9272571 8.479757,5.2112442 8.2232524,5.4860705 8.2232524,5.8433447 q 0,0.5404917 0.4122394,0.8336397 0.4122395,0.2839872 1.5573492,0.52217 0.751192,0.1557349 1.438257,0.3023089 0.696227,0.146574 1.493223,0.4030786 1.56651,0.513009 2.308541,1.401614 0.751192,0.8794441 0.751192,2.2902191 z" />
    <path
       inkscape:connector-curvature="0"
       id="path2143"
       style="fill:#ffffff;stroke-width:0.87944412"
       d="M 31.006352,15.883665 H 27.616827 L 21.827154,6.5212495 V 15.883665 H 18.602525 V 2.2431203 h 4.204842 l 4.974356,7.8142277 V 2.2431203 h 3.224629 z" />
    <path
       inkscape:connector-curvature="0"
       id="path2145"
       style="fill:#ffffff;stroke-width:0.87944412"
       d="M 44.372069,15.883665 H 34.505805 V 2.2431203 h 9.866264 V 4.8814527 H 38.00526 v 2.3543452 h 5.908765 V 9.8741302 H 38.00526 v 3.3712028 h 6.366809 z" />
    <path
       inkscape:connector-curvature="0"
       id="path2147"
       style="fill:#ffffff;stroke-width:0.87944412"
       d="m 58.250796,11.596375 q 0,2.015393 -1.713084,3.279594 -1.703923,1.25504 -4.635403,1.25504 -1.694763,0 -2.958963,-0.293148 Q 47.688305,15.535552 46.589,15.077508 v -3.270433 h 0.384757 q 1.090144,0.870283 2.436793,1.337488 1.35581,0.467205 2.601689,0.467205 0.320631,0 0.842801,-0.05496 0.52217,-0.05497 0.851961,-0.183218 0.403079,-0.164896 0.659583,-0.412239 0.265666,-0.247344 0.265666,-0.732871 0,-0.448882 -0.384757,-0.769513 Q 53.871897,11.12917 53.139027,10.955114 52.369513,10.771896 51.508391,10.616161 50.656429,10.451265 49.905238,10.203922 48.182993,9.6451083 47.42264,8.6923772 46.671448,7.7304852 46.671448,6.3105494 q 0,-1.9054623 1.703923,-3.1055371 1.713084,-1.2092356 4.397221,-1.2092356 1.346649,0 2.656654,0.2656654 1.319166,0.2565045 2.281058,0.6504222 V 6.0540448 H 57.334708 Q 56.510229,5.3944618 55.310155,4.9547397 54.119241,4.5058568 52.873361,4.5058568 q -0.439722,0 -0.879444,0.064126 -0.430561,0.054965 -0.833639,0.219861 -0.357275,0.1374132 -0.613779,0.4214003 -0.256505,0.2748263 -0.256505,0.6321005 0,0.5404917 0.41224,0.8336397 0.412239,0.2839872 1.557349,0.52217 0.751192,0.1557349 1.438257,0.3023089 0.696227,0.146574 1.493223,0.4030786 1.56651,0.513009 2.308541,1.401614 0.751192,0.8794442 0.751192,2.2902192 z" />
    <path
       inkscape:connector-curvature="0"
       id="path2149"
       style="fill:#ffffff;stroke-width:0.87944412"
       d="M 74.969397,15.883665 H 71.469942 V 6.7502714 L 68.94154,12.677358 H 66.513908 L 63.985506,6.7502714 V 15.883665 H 60.669269 V 2.2431203 h 4.085751 l 3.068893,6.8431746 3.059733,-6.8431746 h 4.085751 z" />
    <path
       inkscape:connector-curvature="0"
       id="path2151"
       style="fill:#ffffff;stroke-width:0.87944412"
       d="m 89.361132,11.596375 q 0,2.015393 -1.713084,3.279594 -1.703923,1.25504 -4.635403,1.25504 -1.694762,0 -2.958963,-0.293148 -1.25504,-0.302309 -2.354345,-0.760353 v -3.270433 h 0.384756 q 1.090145,0.870283 2.436794,1.337488 1.355809,0.467205 2.601688,0.467205 0.320631,0 0.842801,-0.05496 0.52217,-0.05497 0.851962,-0.183218 0.403078,-0.164896 0.659583,-0.412239 0.265665,-0.247344 0.265665,-0.732871 0,-0.448882 -0.384757,-0.769513 Q 84.982233,11.12917 84.249363,10.955114 83.47985,10.771896 82.618727,10.616161 81.766766,10.451265 81.015574,10.203922 79.293329,9.6451083 78.532976,8.6923772 77.781785,7.7304852 77.781785,6.3105494 q 0,-1.9054623 1.703923,-3.1055371 1.713083,-1.2092356 4.39722,-1.2092356 1.346649,0 2.656654,0.2656654 1.319166,0.2565045 2.281058,0.6504222 V 6.0540448 H 88.445045 Q 87.620566,5.3944618 86.420491,4.9547397 85.229577,4.5058568 83.983698,4.5058568 q -0.439722,0 -0.879444,0.064126 -0.430562,0.054965 -0.83364,0.219861 -0.357274,0.1374132 -0.613779,0.4214003 -0.256504,0.2748263 -0.256504,0.6321005 0,0.5404917 0.412239,0.8336397 0.41224,0.2839872 1.557349,0.52217 0.751192,0.1557349 1.438258,0.3023089 0.696226,0.146574 1.493222,0.4030786 1.56651,0.513009 2.308541,1.401614 0.751192,0.8794442 0.751192,2.2902192 z" />
    <path
       inkscape:connector-curvature="0"
       id="path2153"
       style="fill:#ffffff;stroke-width:0.87944412"
       d="m 103.72539,10.945953 q 0,2.528402 -1.53903,3.87505 -1.53902,1.346649 -4.534629,1.346649 -2.995607,0 -4.534634,-1.346649 -1.529866,-1.346648 -1.529866,-3.865889 V 2.2431203 h 3.536098 v 8.5104537 q 0,1.419936 0.595457,2.116163 0.595457,0.696226 1.932945,0.696226 1.319166,0 1.923784,-0.668744 0.613775,-0.668744 0.613775,-2.143645 V 2.2431203 h 3.5361 z" />
    <path
       inkscape:connector-curvature="0"
       id="path2155"
       style="fill:#ffffff;stroke-width:0.87944412"
       d="m 116.82544,15.883665 h -9.10591 v -2.381828 h 2.87652 V 6.2922276 h -2.87652 V 4.0661347 q 0.65959,0 1.2642,-0.073287 0.60462,-0.082448 1.0077,-0.2748263 0.47637,-0.2290219 0.71455,-0.595457 0.23818,-0.366435 0.27483,-0.9160876 h 3.03225 V 13.501837 h 2.81238 z" />
  </g>
</svg>
