<?xml version="1.0" encoding="UTF-8" standalone="no"?>
<svg
   xmlns:dc="http://purl.org/dc/elements/1.1/"
   xmlns:cc="http://creativecommons.org/ns#"
   xmlns:rdf="http://www.w3.org/1999/02/22-rdf-syntax-ns#"
   xmlns:svg="http://www.w3.org/2000/svg"
   xmlns="http://www.w3.org/2000/svg"
   xmlns:sodipodi="http://sodipodi.sourceforge.net/DTD/sodipodi-0.dtd"
   xmlns:inkscape="http://www.inkscape.org/namespaces/inkscape"
   width="74px"
   height="18px"
   viewBox="0 0 74 18"
   version="1.1"
   id="svg12"
   sodipodi:docname="system.svg"
   inkscape:version="0.92.4 (5da689c313, 2019-01-14)">
  <metadata
     id="metadata16">
    <rdf:RDF>
      <cc:Work
         rdf:about="">
        <dc:format>image/svg+xml</dc:format>
        <dc:type
           rdf:resource="http://purl.org/dc/dcmitype/StillImage" />
      </cc:Work>
    </rdf:RDF>
  </metadata>
  <sodipodi:namedview
     pagecolor="#ffffff"
     bordercolor="#666666"
     borderopacity="1"
     objecttolerance="10"
     gridtolerance="10"
     guidetolerance="10"
     inkscape:pageopacity="0"
     inkscape:pageshadow="2"
     inkscape:window-width="1920"
     inkscape:window-height="1018"
     id="namedview14"
     showgrid="false"
     inkscape:zoom="5.1351351"
     inkscape:cx="37"
     inkscape:cy="9"
     inkscape:window-x="-8"
     inkscape:window-y="-8"
     inkscape:window-maximized="1"
     inkscape:current-layer="svg12" />
  <!-- Generator: Sketch 45 (43475) - http://www.bohemiancoding.com/sketch -->
  <title
     id="title2">system</title>
  <desc
     id="desc4">Created with Sketch.</desc>
  <defs
     id="defs6" />
  <path
     style="fill:#ffffff;fill-rule:evenodd;stroke:none;stroke-width:1"
     inkscape:connector-curvature="0"
     id="GAMEBOY-Copy"
     d="m 13.278,14.196 c -1.390674,0 -2.536329,-0.468995 -3.437,-1.407 C 8.9403288,11.850995 8.49,10.616674 8.49,9.086 c 0,-1.5213409 0.4526621,-2.748662 1.358,-3.682 0.905338,-0.933338 2.081326,-1.4 3.528,-1.4 0.494669,0 1.021997,0.053666 1.582,0.161 0.560003,0.1073339 1.012665,0.2449992 1.358,0.413 L 16.12,6.286 c -0.914671,-0.3733352 -1.815329,-0.56 -2.702,-0.56 -0.980005,0 -1.719664,0.3056636 -2.219,0.917 -0.499336,0.6113364 -0.749,1.4163283 -0.749,2.415 0,1.036005 0.261331,1.86433 0.784,2.485 0.522669,0.62067 1.278662,0.931 2.268,0.931 0.401335,0 0.849331,-0.05133 1.344,-0.154 V 10.57 H 13.768 V 9.086 h 2.87 v 4.368 c -0.354668,0.205334 -0.86333,0.380333 -1.526,0.525 -0.66267,0.144667 -1.273997,0.217 -1.834,0.217 z M 26.004,14 h -1.862 l -0.84,-2.366 H 20.04 L 19.2,14 h -1.862 l 3.486,-9.8 h 1.694 z M 22.686,9.898 21.664,7.028 20.656,9.898 Z M 37.092,14 H 35.23 L 34.39,7.434 31.884,11.942 29.364,7.448 28.524,14 H 26.662 L 28.02,4.2 h 1.47 l 2.394,4.466 2.38,-4.466 h 1.47 z m 8.036,0 H 38.716 V 4.2 h 6.272 V 5.936 H 40.55 v 2.086 h 3.444 V 9.758 H 40.55 v 2.506 h 4.578 z m 5.32,0 h -3.78 V 4.2 h 2.646 c 0.494669,0 0.916998,0.018667 1.267,0.056 0.350002,0.037333 0.690665,0.1073328 1.022,0.21 0.331335,0.1026672 0.597332,0.2449991 0.798,0.427 0.200668,0.1820009 0.361666,0.4246651 0.483,0.728 0.121334,0.3033348 0.182,0.6696645 0.182,1.099 0,0.9053379 -0.275331,1.5866644 -0.826,2.044 0.57867,0.2240011 1.007999,0.5203315 1.288,0.889 0.280001,0.368669 0.42,0.85633 0.42,1.463 0,0.541336 -0.102666,1.007998 -0.308,1.4 -0.205334,0.392002 -0.482998,0.690666 -0.833,0.896 -0.350002,0.205334 -0.718665,0.354666 -1.106,0.448 C 51.313665,13.953334 50.896002,14 50.448,14 Z M 50.042,5.726 H 48.46 v 2.408 h 1.75 c 0.317335,0 0.594999,-0.086333 0.833,-0.259 C 51.281001,7.7023325 51.4,7.4060021 51.4,6.986 51.4,6.5099976 51.285668,6.1810009 51.057,5.999 50.828332,5.8169991 50.490002,5.726 50.042,5.726 Z m 0.28,3.822 H 48.46 v 2.926 h 1.764 c 0.60667,0 1.070998,-0.111999 1.393,-0.336 0.322002,-0.224001 0.483,-0.597331 0.483,-1.12 0,-0.980005 -0.592661,-1.47 -1.778,-1.47 z m 9.352,4.648 c -1.418674,0 -2.578329,-0.468995 -3.479,-1.407 -0.900671,-0.938005 -1.351,-2.167659 -1.351,-3.689 0,-1.5213409 0.450329,-2.7509953 1.351,-3.689 0.900671,-0.9380047 2.060326,-1.407 3.479,-1.407 1.418674,0 2.578329,0.4689953 3.479,1.407 0.900671,0.9380047 1.351,2.1676591 1.351,3.689 0,1.521341 -0.450329,2.750995 -1.351,3.689 -0.900671,0.938005 -2.060326,1.407 -3.479,1.407 z m 0,-8.47 c -0.924005,0 -1.633331,0.3079969 -2.128,0.924 -0.494669,0.6160031 -0.742,1.4326616 -0.742,2.45 0,1.017338 0.247331,1.833997 0.742,2.45 0.494669,0.616003 1.203995,0.924 2.128,0.924 0.924005,0 1.633331,-0.307997 2.128,-0.924 0.494669,-0.616003 0.742,-1.432662 0.742,-2.45 0,-1.0173384 -0.247331,-1.8339969 -0.742,-2.45 C 61.307331,6.0339969 60.598005,5.726 59.674,5.726 Z M 73.1,4.2 69.712,9.66 V 14 H 67.92 V 9.66 L 64.532,4.2 h 1.904 l 2.38,3.864 2.38,-3.864 z" />
</svg>
