<?xml version="1.0" encoding="UTF-8" standalone="no"?>
<svg
   xmlns:dc="http://purl.org/dc/elements/1.1/"
   xmlns:cc="http://creativecommons.org/ns#"
   xmlns:rdf="http://www.w3.org/1999/02/22-rdf-syntax-ns#"
   xmlns:svg="http://www.w3.org/2000/svg"
   xmlns="http://www.w3.org/2000/svg"
   xmlns:sodipodi="http://sodipodi.sourceforge.net/DTD/sodipodi-0.dtd"
   xmlns:inkscape="http://www.inkscape.org/namespaces/inkscape"
   width="98px"
   height="18px"
   viewBox="0 0 98 18"
   version="1.1"
   id="svg12"
   sodipodi:docname="system.svg"
   inkscape:version="0.92.4 (5da689c313, 2019-01-14)">
  <metadata
     id="metadata16">
    <rdf:RDF>
      <cc:Work
         rdf:about="">
        <dc:format>image/svg+xml</dc:format>
        <dc:type
           rdf:resource="http://purl.org/dc/dcmitype/StillImage" />
      </cc:Work>
    </rdf:RDF>
  </metadata>
  <sodipodi:namedview
     pagecolor="#ffffff"
     bordercolor="#666666"
     borderopacity="1"
     objecttolerance="10"
     gridtolerance="10"
     guidetolerance="10"
     inkscape:pageopacity="0"
     inkscape:pageshadow="2"
     inkscape:window-width="1920"
     inkscape:window-height="1018"
     id="namedview14"
     showgrid="false"
     inkscape:zoom="3.877551"
     inkscape:cx="49"
     inkscape:cy="9"
     inkscape:window-x="-8"
     inkscape:window-y="-8"
     inkscape:window-maximized="1"
     inkscape:current-layer="svg12" />
  <!-- Generator: Sketch 45 (43475) - http://www.bohemiancoding.com/sketch -->
  <title
     id="title2">system</title>
  <desc
     id="desc4">Created with Sketch.</desc>
  <defs
     id="defs6" />
  <path
     style="fill:#ffffff;fill-rule:evenodd;stroke:none;stroke-width:1"
     inkscape:connector-curvature="0"
     id="SUPER-GRAFX-Copy"
     d="m 11.92,14.196 c -0.700003,0 -1.33933,-0.07 -1.918,-0.21 -0.5786696,-0.140001 -1.0219985,-0.307999 -1.33,-0.504 l 0.21,-2.044 c 0.2986682,0.289335 0.7163306,0.534332 1.253,0.735 0.536669,0.200668 1.145663,0.301 1.827,0.301 1.166673,0 1.75,-0.354663 1.75,-1.064 0,-0.196001 -0.04667,-0.373332 -0.14,-0.532 C 13.47867,10.719333 13.378334,10.588667 13.271,10.486 13.163666,10.383333 12.984001,10.273667 12.732,10.157 12.479999,10.040333 12.284001,9.9563336 12.144,9.905 12.003999,9.8536664 11.766002,9.7720006 11.43,9.66 11.140665,9.5666662 10.940001,9.4966669 10.828,9.45 L 10.268,9.212 C 10.006665,9.1093328 9.8153339,9.0183337 9.694,8.939 9.5726661,8.8596663 9.4233342,8.7476674 9.246,8.603 9.0686658,8.4583326 8.9380004,8.3113341 8.854,8.162 8.7699996,8.0126659 8.6953337,7.833001 8.63,7.623 8.5646663,7.412999 8.532,7.1866679 8.532,6.944 8.532,6.1786628 8.8213304,5.4973363 9.4,4.9 9.9786696,4.3026637 10.869994,4.004 12.074,4.004 c 0.625336,0 1.229664,0.079333 1.813,0.238 0.583336,0.1586675 1.019665,0.3313324 1.309,0.518 l -0.182,1.834 c -1.073339,-0.5880029 -2.029996,-0.882 -2.87,-0.882 -0.476002,0 -0.893665,0.079333 -1.253,0.238 -0.359335,0.1586675 -0.539,0.4246648 -0.539,0.798 0,0.3546684 0.163332,0.6276657 0.49,0.819 0.326668,0.1913343 0.82133,0.3896656 1.484,0.595 0.345335,0.1026672 0.608999,0.1866663 0.791,0.252 0.182001,0.065334 0.431665,0.1633327 0.749,0.294 0.317335,0.1306673 0.564666,0.2683326 0.742,0.413 0.177334,0.1446674 0.361666,0.321999 0.553,0.532 0.191334,0.210001 0.331333,0.457332 0.42,0.742 0.08867,0.284668 0.133,0.599665 0.133,0.945 0,0.261335 -0.02333,0.506332 -0.07,0.735 -0.04667,0.228668 -0.151666,0.478332 -0.315,0.749 -0.163334,0.270668 -0.377999,0.501666 -0.644,0.693 -0.266001,0.191334 -0.634664,0.352333 -1.106,0.483 -0.471336,0.130667 -1.02433,0.196 -1.659,0.196 z m 9.226,0 c -1.344007,0 -2.356663,-0.389663 -3.038,-1.169 C 17.426663,12.247663 17.086,11.172007 17.086,9.8 V 4.2 h 1.792 v 4.998 c 0,1.036005 0.160998,1.840997 0.483,2.415 0.322002,0.574003 0.916996,0.861 1.785,0.861 0.868004,0 1.462998,-0.286997 1.785,-0.861 0.322002,-0.574003 0.483,-1.378995 0.483,-2.415 V 4.2 h 1.792 v 5.6 c 0,1.372007 -0.340663,2.447663 -1.022,3.227 -0.681337,0.779337 -1.693993,1.169 -3.038,1.169 z m 9.646,-3.416 h -1.75 V 14 H 27.25 V 4.2 h 2.772 c 0.737337,0 1.341664,0.037333 1.813,0.112 0.471336,0.074667 0.900665,0.2193323 1.288,0.434 0.387335,0.2146677 0.667332,0.5296646 0.84,0.945 0.172667,0.4153354 0.259,0.95433 0.259,1.617 0,0.66267 -0.109666,1.2343309 -0.329,1.715 -0.219334,0.4806691 -0.510998,0.8423321 -0.875,1.085 -0.364002,0.242668 -0.727998,0.415333 -1.092,0.518 -0.364002,0.102667 -0.741998,0.154 -1.134,0.154 z m -0.28,-5.082 h -1.47 V 9.1 h 1.512 c 0.66267,0 1.136332,-0.1329987 1.421,-0.399 0.284668,-0.2660013 0.427,-0.7256634 0.427,-1.379 0,-0.5786696 -0.132999,-0.9939987 -0.399,-1.246 C 31.736999,5.8239987 31.240004,5.698 30.512,5.698 Z M 42.006,14 H 35.594 V 4.2 h 6.272 v 1.736 h -4.438 v 2.086 h 3.444 v 1.736 h -3.444 v 2.506 h 4.578 z m 9.044,0 h -1.862 l -2.03,-3.64 h -1.82 V 14 H 43.546 V 4.2 h 3.584 c 2.249345,0 3.374,0.9426572 3.374,2.828 0,0.7000035 -0.144665,1.2693311 -0.434,1.708 -0.289335,0.4386689 -0.699997,0.8213317 -1.232,1.148 z M 46.724,5.698 H 45.338 V 8.68 h 1.316 c 0.756004,0 1.273999,-0.1306654 1.554,-0.392 0.280001,-0.2613346 0.42,-0.6393309 0.42,-1.134 0,-0.4946691 -0.135332,-0.8609988 -0.406,-1.099 C 47.951332,5.8169988 47.452004,5.698 46.724,5.698 Z m 12.936,8.498 c -1.390674,0 -2.536329,-0.468995 -3.437,-1.407 -0.900671,-0.938005 -1.351,-2.172326 -1.351,-3.703 0,-1.5213409 0.452662,-2.748662 1.358,-3.682 0.905338,-0.933338 2.081326,-1.4 3.528,-1.4 0.494669,0 1.021997,0.053666 1.582,0.161 0.560003,0.1073339 1.012665,0.2449992 1.358,0.413 L 62.502,6.286 C 61.587329,5.9126648 60.686671,5.726 59.8,5.726 c -0.980005,0 -1.719664,0.3056636 -2.219,0.917 -0.499336,0.6113364 -0.749,1.4163283 -0.749,2.415 0,1.036005 0.261331,1.86433 0.784,2.485 0.522669,0.62067 1.278662,0.931 2.268,0.931 0.401335,0 0.849331,-0.05133 1.344,-0.154 V 10.57 H 60.15 V 9.086 h 2.87 v 4.368 c -0.354668,0.205334 -0.86333,0.380333 -1.526,0.525 -0.66267,0.144667 -1.273997,0.217 -1.834,0.217 z M 72.26,14 h -1.862 l -2.03,-3.64 h -1.82 V 14 H 64.756 V 4.2 h 3.584 c 2.249345,0 3.374,0.9426572 3.374,2.828 0,0.7000035 -0.144665,1.2693311 -0.434,1.708 -0.289335,0.4386689 -0.699997,0.8213317 -1.232,1.148 z M 67.934,5.698 H 66.548 V 8.68 h 1.316 c 0.756004,0 1.273999,-0.1306654 1.554,-0.392 0.280001,-0.2613346 0.42,-0.6393309 0.42,-1.134 0,-0.4946691 -0.135332,-0.8609988 -0.406,-1.099 C 69.161332,5.8169988 68.662004,5.698 67.934,5.698 Z M 81.15,14 h -1.862 l -0.84,-2.366 H 75.186 L 74.346,14 H 72.484 L 75.97,4.2 h 1.694 z M 77.832,9.898 76.81,7.028 75.802,9.898 Z M 88.304,5.936 h -4.242 v 2.086 h 3.276 V 9.758 H 84.062 V 14 H 82.27 V 4.2 h 6.034 z M 97.348,14 H 95.276 L 92.896,10.402 90.586,14 H 88.528 L 91.986,9.114 88.682,4.2 h 2.072 L 93.022,7.644 95.094,4.2 h 2.058 l -3.22,4.718 z" />
</svg>
