<?xml version="1.0" encoding="UTF-8" standalone="no"?>
<svg
   xmlns:dc="http://purl.org/dc/elements/1.1/"
   xmlns:cc="http://creativecommons.org/ns#"
   xmlns:rdf="http://www.w3.org/1999/02/22-rdf-syntax-ns#"
   xmlns:svg="http://www.w3.org/2000/svg"
   xmlns="http://www.w3.org/2000/svg"
   xmlns:sodipodi="http://sodipodi.sourceforge.net/DTD/sodipodi-0.dtd"
   xmlns:inkscape="http://www.inkscape.org/namespaces/inkscape"
   width="117px"
   height="18px"
   viewBox="0 0 117 18"
   version="1.1"
   id="svg12"
   sodipodi:docname="system.svg"
   inkscape:version="0.92.4 (5da689c313, 2019-01-14)">
  <metadata
     id="metadata16">
    <rdf:RDF>
      <cc:Work
         rdf:about="">
        <dc:format>image/svg+xml</dc:format>
        <dc:type
           rdf:resource="http://purl.org/dc/dcmitype/StillImage" />
        <dc:title>system</dc:title>
      </cc:Work>
    </rdf:RDF>
  </metadata>
  <sodipodi:namedview
     pagecolor="#ffffff"
     bordercolor="#666666"
     borderopacity="1"
     objecttolerance="10"
     gridtolerance="10"
     guidetolerance="10"
     inkscape:pageopacity="0"
     inkscape:pageshadow="2"
     inkscape:window-width="1920"
     inkscape:window-height="1018"
     id="namedview14"
     showgrid="false"
     inkscape:zoom="3.2478632"
     inkscape:cx="101.11826"
     inkscape:cy="8.9999999"
     inkscape:window-x="-8"
     inkscape:window-y="-8"
     inkscape:window-maximized="1"
     inkscape:current-layer="svg12" />
  <!-- Generator: Sketch 45 (43475) - http://www.bohemiancoding.com/sketch -->
  <title
     id="title2">system</title>
  <desc
     id="desc4">Created with Sketch.</desc>
  <defs
     id="defs6" />
  <g
     id="text1719"
     style="font-style:normal;font-variant:normal;font-weight:bold;font-stretch:normal;font-size:16.77054214px;line-height:1.25;font-family:sans-serif;-inkscape-font-specification:'sans-serif Bold';letter-spacing:0px;word-spacing:0px;fill:#ffffff;fill-opacity:1;stroke:none;stroke-width:0.7861191"
     aria-label="NEOGEO CD">
    <path
       inkscape:connector-curvature="0"
       id="path1727"
       style="fill:#ffffff;stroke-width:0.7861191"
       d="M 17.685145,14.990117 H 14.655311 L 9.4800263,6.6212235 V 14.990117 H 6.5975893 V 2.7970813 h 3.7586327 l 4.446486,6.9849963 V 2.7970813 h 2.882437 z" />
    <path
       inkscape:connector-curvature="0"
       id="path1729"
       style="fill:#ffffff;stroke-width:0.7861191"
       d="M 29.632519,14.990117 H 20.813245 V 2.7970813 h 8.819274 v 2.3583575 h -5.691175 v 2.1045065 h 5.281738 V 9.6183028 H 23.941344 V 12.63176 h 5.691175 z" />
    <path
       inkscape:connector-curvature="0"
       id="path1731"
       style="fill:#ffffff;stroke-width:0.7861191"
       d="m 44.13478,8.8976936 q 0,2.9151914 -1.670503,4.6348274 -1.670503,1.711447 -4.61845,1.711447 -2.939758,0 -4.610261,-1.711447 -1.670504,-1.719636 -1.670504,-4.6348274 0,-2.9397582 1.670504,-4.6430163 1.670503,-1.711447 4.610261,-1.711447 2.931569,0 4.610261,1.711447 1.678692,1.7032581 1.678692,4.6430163 z m -4.168069,3.0871554 q 0.458569,-0.556834 0.679665,-1.310199 0.221096,-0.7615525 0.221096,-1.7851452 0,-1.0972913 -0.253851,-1.867033 Q 40.35977,6.2527301 39.950333,5.7777831 39.532708,5.2864587 38.984062,5.0653626 q -0.540457,-0.221096 -1.130046,-0.221096 -0.597778,0 -1.130047,0.2129073 -0.524079,0.2129073 -0.966271,0.7042317 -0.409437,0.4585696 -0.671477,1.2692549 -0.253851,0.8024967 -0.253851,1.8670331 0,1.0891025 0.245662,1.8588444 0.253851,0.761553 0.663288,1.244689 0.409437,0.483135 0.958083,0.71242 0.548646,0.229285 1.154613,0.229285 0.605967,0 1.154612,-0.229285 0.548646,-0.237474 0.958083,-0.728798 z" />
    <path
       inkscape:connector-curvature="0"
       id="path1733"
       style="fill:#ffffff;stroke-width:0.7861191"
       d="m 57.310464,14.294074 q -0.818874,0.319361 -2.170016,0.638722 -1.351142,0.311172 -2.694096,0.311172 -3.111722,0 -4.872301,-1.686881 -1.760579,-1.695069 -1.760579,-4.6757709 0,-2.8414932 1.776956,-4.5775064 1.776957,-1.7442019 4.954189,-1.7442019 1.203745,0 2.292848,0.221096 1.089102,0.2129073 2.423867,0.8598179 V 6.4983924 H 56.909216 Q 56.679931,6.3264288 56.237739,6.0152566 55.795547,5.6958957 55.38611,5.4747997 54.911163,5.21276 54.272441,5.0244189 q -0.630533,-0.188341 -1.342953,-0.188341 -0.835252,0 -1.514917,0.2456622 -0.679666,0.2456623 -1.220123,0.7533642 -0.515891,0.4913245 -0.818874,1.2528774 -0.294795,0.7533642 -0.294795,1.7442019 0,2.0226194 1.072725,3.0953444 1.072726,1.072725 3.169043,1.072725 0.180153,0 0.39306,-0.0082 0.221096,-0.0082 0.401248,-0.02457 V 10.576386 H 51.684799 V 8.2753492 h 5.625665 z" />
    <path
       inkscape:connector-curvature="0"
       id="path1735"
       style="fill:#ffffff;stroke-width:0.7861191"
       d="M 68.938478,14.990117 H 60.119203 V 2.7970813 h 8.819275 v 2.3583575 h -5.691175 v 2.1045065 h 5.281738 V 9.6183028 H 63.247303 V 12.63176 h 5.691175 z" />
    <path
       inkscape:connector-curvature="0"
       id="path1737"
       style="fill:#ffffff;stroke-width:0.7861191"
       d="m 83.440742,8.8976936 q 0,2.9151914 -1.670503,4.6348274 -1.670504,1.711447 -4.61845,1.711447 -2.939759,0 -4.610262,-1.711447 -1.670503,-1.719636 -1.670503,-4.6348274 0,-2.9397582 1.670503,-4.6430163 1.670503,-1.711447 4.610262,-1.711447 2.931569,0 4.610261,1.711447 1.678692,1.7032581 1.678692,4.6430163 z m -4.168069,3.0871554 q 0.458569,-0.556834 0.679665,-1.310199 0.221096,-0.7615525 0.221096,-1.7851452 0,-1.0972913 -0.253851,-1.867033 -0.253851,-0.7697417 -0.663288,-1.2446887 -0.417626,-0.4913244 -0.966271,-0.7124205 -0.540457,-0.221096 -1.130047,-0.221096 -0.597778,0 -1.130046,0.2129073 -0.524079,0.2129073 -0.966272,0.7042317 -0.409437,0.4585696 -0.671476,1.2692549 -0.253851,0.8024967 -0.253851,1.8670331 0,1.0891025 0.245662,1.8588444 0.253851,0.761553 0.663288,1.244689 0.409437,0.483135 0.958083,0.71242 0.548645,0.229285 1.154612,0.229285 0.605967,0 1.154613,-0.229285 0.548645,-0.237474 0.958083,-0.728798 z" />
    <path
       inkscape:connector-curvature="0"
       id="path1739"
       style="fill:#ffffff;stroke-width:0.7861191"
       d="m 97.074997,15.227591 q -1.359331,0 -2.513943,-0.401249 -1.146424,-0.401248 -1.973487,-1.195556 -0.827063,-0.794308 -1.285632,-1.981675 -0.450381,-1.187368 -0.450381,-2.7432287 0,-1.4494072 0.434003,-2.628586 0.434003,-1.1791787 1.261066,-2.022619 0.794308,-0.8106854 1.965298,-1.2528775 1.179179,-0.442192 2.571265,-0.442192 0.769742,0 1.383897,0.090076 0.622344,0.081887 1.146424,0.221096 0.548643,0.1555861 0.990833,0.3521159 0.45039,0.188341 0.78612,0.3521158 v 2.9561356 h -0.3603 q -0.22929,-0.1965296 -0.5814,-0.466758 -0.34393,-0.2702285 -0.786121,-0.5322682 -0.45038,-0.2620397 -0.97446,-0.442192 -0.524079,-0.1801523 -1.121857,-0.1801523 -0.663288,0 -1.261067,0.2129072 -0.597778,0.2047186 -1.10548,0.6878543 -0.483135,0.4667582 -0.786119,1.2364999 -0.294794,0.7697417 -0.294794,1.867033 0,1.146424 0.31936,1.916166 0.32755,0.769741 0.818875,1.211933 0.499513,0.450381 1.113668,0.646911 0.614156,0.188341 1.211934,0.188341 0.573212,0 1.130046,-0.171964 0.565024,-0.171963 1.039971,-0.466758 0.401244,-0.237473 0.745174,-0.507702 0.34393,-0.270228 0.56502,-0.466758 h 0.32755 v 2.915192 q -0.45857,0.204718 -0.87619,0.384871 -0.41763,0.180152 -0.876197,0.311172 -0.597778,0.171963 -1.121857,0.262039 -0.52408,0.09008 -1.441219,0.09008 z" />
    <path
       inkscape:connector-curvature="0"
       id="path1741"
       style="fill:#ffffff;stroke-width:0.7861191"
       d="m 115.23763,8.9058823 q 0,1.7032577 -0.77794,3.0544007 -0.77793,1.342953 -1.96529,2.063563 -0.89258,0.540457 -1.95711,0.753364 -1.06454,0.212907 -2.52213,0.212907 h -4.29909 V 2.7970813 h 4.42192 q 1.49035,0 2.57126,0.253851 1.08092,0.2456622 1.8179,0.7042317 1.26107,0.7697417 1.98168,2.0799403 0.7288,1.3020099 0.7288,3.070778 z m -3.25094,-0.024566 q 0,-1.203745 -0.44219,-2.0553741 -0.434,-0.8598178 -1.38389,-1.3429536 -0.48314,-0.2374735 -0.99084,-0.3193609 -0.49952,-0.090076 -1.51492,-0.090076 h -0.79431 v 7.6319063 h 0.79431 q 1.12186,0 1.64594,-0.09826 0.52408,-0.106453 1.02359,-0.376682 0.85982,-0.491324 1.26107,-1.310198 0.40124,-0.827063 0.40124,-2.0389966 z" />
  </g>
</svg>
