<?xml version="1.0" encoding="UTF-8" standalone="no"?>
<svg
   xmlns:dc="http://purl.org/dc/elements/1.1/"
   xmlns:cc="http://creativecommons.org/ns#"
   xmlns:rdf="http://www.w3.org/1999/02/22-rdf-syntax-ns#"
   xmlns:svg="http://www.w3.org/2000/svg"
   xmlns="http://www.w3.org/2000/svg"
   xmlns:sodipodi="http://sodipodi.sourceforge.net/DTD/sodipodi-0.dtd"
   xmlns:inkscape="http://www.inkscape.org/namespaces/inkscape"
   width="117px"
   height="18px"
   viewBox="0 0 117 18"
   version="1.1"
   id="svg12"
   sodipodi:docname="system.svg"
   inkscape:version="0.92.4 (5da689c313, 2019-01-14)">
  <metadata
     id="metadata16">
    <rdf:RDF>
      <cc:Work
         rdf:about="">
        <dc:format>image/svg+xml</dc:format>
        <dc:type
           rdf:resource="http://purl.org/dc/dcmitype/StillImage" />
        <dc:title>system</dc:title>
      </cc:Work>
    </rdf:RDF>
  </metadata>
  <sodipodi:namedview
     pagecolor="#ffffff"
     bordercolor="#666666"
     borderopacity="1"
     objecttolerance="10"
     gridtolerance="10"
     guidetolerance="10"
     inkscape:pageopacity="0"
     inkscape:pageshadow="2"
     inkscape:window-width="1920"
     inkscape:window-height="1018"
     id="namedview14"
     showgrid="false"
     inkscape:zoom="3.2478632"
     inkscape:cx="101.11826"
     inkscape:cy="8.9999999"
     inkscape:window-x="-8"
     inkscape:window-y="-8"
     inkscape:window-maximized="1"
     inkscape:current-layer="svg12" />
  <!-- Generator: Sketch 45 (43475) - http://www.bohemiancoding.com/sketch -->
  <title
     id="title2">system</title>
  <desc
     id="desc4">Created with Sketch.</desc>
  <defs
     id="defs6" />
  <g
     id="text1757"
     style="font-style:normal;font-variant:normal;font-weight:bold;font-stretch:normal;font-size:17.66464424px;line-height:1.25;font-family:sans-serif;-inkscape-font-specification:'sans-serif Bold';letter-spacing:0px;word-spacing:0px;fill:#ffffff;fill-opacity:1;stroke:none;stroke-width:0.82803017"
     aria-label="ODYSSEY 2">
    <path
       inkscape:connector-curvature="0"
       id="path1765"
       style="fill:#ffffff;stroke-width:0.82803017"
       d="m 18.623301,8.5593485 q 0,3.0706115 -1.759564,4.8819285 -1.759564,1.80269 -4.864677,1.80269 -3.0964881,0 -4.8560523,-1.80269 -1.7595642,-1.811317 -1.7595642,-4.8819285 0,-3.0964879 1.7595642,-4.8905534 1.7595642,-1.8026907 4.8560523,-1.8026907 3.087862,0 4.856052,1.8026907 1.768189,1.7940655 1.768189,4.8905534 z m -4.390285,3.2517435 q 0.483018,-0.586521 0.715901,-1.38005 0.232884,-0.8021545 0.232884,-1.8803188 0,-1.1557922 -0.267385,-1.9665718 Q 14.647031,5.7733719 14.215766,5.2731036 13.775875,4.7555848 13.197979,4.5227013 12.628708,4.2898178 12.007685,4.2898178 q -0.629648,0 -1.190293,0.2242582 Q 10.265372,4.7383341 9.7996046,5.255853 9.3683389,5.7388706 9.0923288,6.5927768 8.824944,7.4380576 8.824944,8.5593485 q 0,1.1471668 0.2587595,1.9579465 0.2673847,0.802154 0.6986505,1.311048 0.431266,0.508893 1.009162,0.750402 0.577896,0.241509 1.216169,0.241509 0.638273,0 1.216169,-0.241509 0.577897,-0.250134 1.009162,-0.767653 z" />
    <path
       inkscape:connector-curvature="0"
       id="path1767"
       style="fill:#ffffff;stroke-width:0.82803017"
       d="m 33.277711,8.5679738 q 0,1.7940652 -0.819405,3.2172422 -0.819405,1.414552 -2.070076,2.173579 -0.940159,0.569271 -2.06145,0.793529 -1.121291,0.224259 -2.656597,0.224259 h -4.52829 V 2.1334891 h 4.65767 q 1.569807,0 2.708349,0.2673848 1.138541,0.2587594 1.914819,0.741777 1.328299,0.8107796 2.087327,2.1908299 0.767653,1.3714251 0.767653,3.234493 z m -3.42425,-0.025876 q 0,-1.2679213 -0.465767,-2.164954 Q 28.930552,5.4714859 27.930016,4.9625923 27.421122,4.7124582 26.886353,4.626205 26.360208,4.5313266 25.290669,4.5313266 H 24.454014 V 12.57012 h 0.836655 q 1.181668,0 1.733689,-0.103504 0.55202,-0.112129 1.078164,-0.396764 0.905658,-0.517519 1.328298,-1.380051 0.422641,-0.8711566 0.422641,-2.1477032 z" />
    <path
       inkscape:connector-curvature="0"
       id="path1769"
       style="fill:#ffffff;stroke-width:0.82803017"
       d="m 47.10409,2.1334891 -4.735298,7.8749119 v 4.968182 H 39.056671 V 10.163657 L 34.243745,2.1334891 h 3.760638 l 2.777351,4.9681812 2.682473,-4.9681812 z" />
    <path
       inkscape:connector-curvature="0"
       id="path1771"
       style="fill:#ffffff;stroke-width:0.82803017"
       d="m 59.093276,10.939935 q 0,1.89757 -1.612934,3.087863 -1.604309,1.181668 -4.364409,1.181668 -1.595684,0 -2.785977,-0.27601 -1.181668,-0.284635 -2.216706,-0.715901 v -3.079237 h 0.362263 q 1.026413,0.819404 2.294334,1.259295 1.276547,0.439892 2.449589,0.439892 0.301886,0 0.793529,-0.05175 0.491643,-0.05175 0.802155,-0.172507 0.379513,-0.155255 0.621022,-0.388139 0.250134,-0.232883 0.250134,-0.690025 0,-0.42264 -0.362263,-0.724526 Q 54.970375,10.500044 54.28035,10.336163 53.555824,10.163657 52.745044,10.017027 51.94289,9.861771 51.235614,9.6288875 49.614055,9.1027433 48.898154,8.2057106 48.190878,7.3000526 48.190878,5.9631288 q 0,-1.7940654 1.604309,-2.9239816 1.612933,-1.1385416 4.140151,-1.1385416 1.267921,0 2.501341,0.2501342 1.242045,0.2415088 2.147703,0.6123973 V 5.72162 H 58.230744 Q 57.454466,5.1005973 56.32455,4.6865822 55.203259,4.2639418 54.030216,4.2639418 q -0.414015,0 -0.82803,0.060377 -0.40539,0.051752 -0.784904,0.2070076 -0.336387,0.1293797 -0.577896,0.3967645 -0.241509,0.2587594 -0.241509,0.5951467 0,0.5088935 0.388139,0.7849036 0.38814,0.2673847 1.466304,0.4916429 0.707276,0.1466304 1.354174,0.2846354 0.655524,0.138005 1.405927,0.3795138 1.474928,0.4830177 2.173579,1.3196732 0.707276,0.8280302 0.707276,2.1563285 z" />
    <path
       inkscape:connector-curvature="0"
       id="path1773"
       style="fill:#ffffff;stroke-width:0.82803017"
       d="m 71.651736,10.939935 q 0,1.89757 -1.612934,3.087863 -1.604308,1.181668 -4.364409,1.181668 -1.595683,0 -2.785977,-0.27601 -1.181668,-0.284635 -2.216706,-0.715901 v -3.079237 h 0.362264 q 1.026412,0.819404 2.294333,1.259295 1.276547,0.439892 2.44959,0.439892 0.301886,0 0.793529,-0.05175 0.491643,-0.05175 0.802154,-0.172507 0.379514,-0.155255 0.621023,-0.388139 0.250134,-0.232883 0.250134,-0.690025 0,-0.42264 -0.362264,-0.724526 Q 67.528836,10.500044 66.83881,10.336163 66.114284,10.163657 65.303504,10.017027 64.50135,9.861771 63.794074,9.6288875 62.172515,9.1027433 61.456614,8.2057106 60.749338,7.3000526 60.749338,5.9631288 q 0,-1.7940654 1.604309,-2.9239816 1.612934,-1.1385416 4.140151,-1.1385416 1.267921,0 2.501341,0.2501342 1.242045,0.2415088 2.147703,0.6123973 V 5.72162 H 70.789204 Q 70.012926,5.1005973 68.88301,4.6865822 67.761719,4.2639418 66.588676,4.2639418 q -0.414015,0 -0.82803,0.060377 -0.40539,0.051752 -0.784904,0.2070076 -0.336387,0.1293797 -0.577896,0.3967645 -0.241508,0.2587594 -0.241508,0.5951467 0,0.5088935 0.388139,0.7849036 0.388139,0.2673847 1.466303,0.4916429 0.707276,0.1466304 1.354175,0.2846354 0.655523,0.138005 1.405926,0.3795138 1.474929,0.4830177 2.173579,1.3196732 0.707276,0.8280302 0.707276,2.1563285 z" />
    <path
       inkscape:connector-curvature="0"
       id="path1775"
       style="fill:#ffffff;stroke-width:0.82803017"
       d="M 83.218285,14.976583 H 73.928821 V 2.1334891 h 9.289464 v 2.4840906 h -5.994594 v 2.2167059 h 5.563328 v 2.4840906 h -5.563328 v 3.1741158 h 5.994594 z" />
    <path
       inkscape:connector-curvature="0"
       id="path1777"
       style="fill:#ffffff;stroke-width:0.82803017"
       d="m 97.303423,2.1334891 -4.735298,7.8749119 v 4.968182 H 89.256004 V 10.163657 L 84.443079,2.1334891 h 3.760637 l 2.777351,4.9681812 2.682473,-4.9681812 z" />
    <path
       inkscape:connector-curvature="0"
       id="path1779"
       style="fill:#ffffff;stroke-width:0.82803017"
       d="m 115.08882,14.976583 h -10.08299 v -2.121828 q 1.15579,-0.836655 2.31158,-1.776815 1.16442,-0.940159 1.86307,-1.6215588 1.04366,-1.0091618 1.48355,-1.7595642 0.43989,-0.7504023 0.43989,-1.4835541 0,-0.8797821 -0.56927,-1.3541744 -0.56064,-0.4830176 -1.62156,-0.4830176 -0.79352,0 -1.67331,0.327762 -0.87115,0.3277619 -1.62156,0.8366555 h -0.27601 V 2.6855093 q 0.6124,-0.2673848 1.8027,-0.5347695 1.19891,-0.2673848 2.39783,-0.2673848 2.41509,0 3.68301,1.0177871 1.26792,1.0091618 1.26792,2.8636045 0,1.2161693 -0.61239,2.3115843 -0.60378,1.0954149 -1.85445,2.2598321 -0.7849,0.724527 -1.57843,1.336924 -0.79353,0.603772 -1.12992,0.845281 h 5.77034 z" />
  </g>
</svg>
