<?xml version="1.0" encoding="UTF-8" standalone="no"?>
<svg
   xmlns:dc="http://purl.org/dc/elements/1.1/"
   xmlns:cc="http://creativecommons.org/ns#"
   xmlns:rdf="http://www.w3.org/1999/02/22-rdf-syntax-ns#"
   xmlns:svg="http://www.w3.org/2000/svg"
   xmlns="http://www.w3.org/2000/svg"
   xmlns:sodipodi="http://sodipodi.sourceforge.net/DTD/sodipodi-0.dtd"
   xmlns:inkscape="http://www.inkscape.org/namespaces/inkscape"
   width="108px"
   height="18px"
   viewBox="0 0 108 18"
   version="1.1"
   id="svg15"
   sodipodi:docname="SD.svg"
   inkscape:version="0.92.4 (5da689c313, 2019-01-14)">
  <metadata
     id="metadata19">
    <rdf:RDF>
      <cc:Work
         rdf:about="">
        <dc:format>image/svg+xml</dc:format>
        <dc:type
           rdf:resource="http://purl.org/dc/dcmitype/StillImage" />
        <dc:title>system</dc:title>
      </cc:Work>
    </rdf:RDF>
  </metadata>
  <sodipodi:namedview
     pagecolor="#ffffff"
     bordercolor="#666666"
     borderopacity="1"
     objecttolerance="10"
     gridtolerance="10"
     guidetolerance="10"
     inkscape:pageopacity="0"
     inkscape:pageshadow="2"
     inkscape:window-width="1920"
     inkscape:window-height="1018"
     id="namedview17"
     showgrid="false"
     inkscape:zoom="3.5185185"
     inkscape:cx="1.5631576"
     inkscape:cy="9"
     inkscape:window-x="-8"
     inkscape:window-y="-8"
     inkscape:window-maximized="1"
     inkscape:current-layer="svg15" />
  <!-- Generator: Sketch 45 (43475) - http://www.bohemiancoding.com/sketch -->
  <title
     id="title2">system</title>
  <desc
     id="desc4">Created with Sketch.</desc>
  <defs
     id="defs6" />
  <g
     id="g827">
    <path
       d="m 101.38769,3.0828613 c -2.909283,0 -5.33666,2.0691544 -5.891298,4.81653 h -1.065913 c -0.04713,6.9e-6 -0.09021,0.026635 -0.111289,0.068786 -0.02108,0.042151 -0.01654,0.092593 0.01172,0.1303047 l 1.60551,2.14068 c 0.0235,0.03134 0.06039,0.04979 0.09956,0.04979 0.03918,0 0.07606,-0.01845 0.09957,-0.04979 l 1.60551,-2.14068 c 0.02826,-0.037711 0.0328,-0.088154 0.01172,-0.1303047 -0.02108,-0.042151 -0.06416,-0.068779 -0.111289,-0.068786 h -0.788204 c 0.529041,-2.011631 2.355313,-3.4972966 4.534393,-3.4972966 2.5931,0 4.69208,2.0989803 4.69208,4.6920834 0,2.5931029 -2.09898,4.6920839 -4.69208,4.6920839 -1.626463,0 -3.05821,-0.826835 -3.900231,-2.082802 -0.0231,-0.03448 -0.06187,-0.05517 -0.103378,-0.05517 h -1.239999 c -0.04333,1.2e-5 -0.08354,0.02256 -0.10614,0.05953 -0.0226,0.03697 -0.02435,0.08303 -0.0046,0.121606 0.99575,1.945036 3.0203,3.276072 5.354368,3.276072 3.3184,0 6.01131,-2.692914 6.01131,-6.0113167 0,-3.318423 -2.69291,-6.0113168 -6.01131,-6.0113168 z"
       id="path4921"
       inkscape:connector-curvature="0"
       style="fill:#bba358;fill-rule:nonzero;stroke:none;stroke-width:1" />
    <path
       d="m 100.98819,5.6889048 c -0.0994,10e-8 -0.17991,0.080547 -0.17991,0.1799067 v 3.9163819 c 1e-5,0.0637 0.0337,0.1226482 0.0886,0.1549846 l 2.78878,1.643467 c 0.0856,0.05041 0.1958,0.02196 0.24627,-0.06358 l 0.27189,-0.460772 c 0.0503,-0.08536 0.0222,-0.195367 -0.063,-0.246025 L 101.70326,9.3638946 V 5.8688115 c 0,-0.09936 -0.0805,-0.1799066 -0.1799,-0.1799067 z"
       id="polygon4923"
       inkscape:connector-curvature="0"
       style="fill:#bba358;fill-rule:nonzero;stroke:none;stroke-width:1" />
    <g
       aria-label="NEVERPLAYED"
       style="font-style:normal;font-variant:normal;font-weight:bold;font-stretch:normal;font-size:11.52514935px;line-height:1.25;font-family:sans-serif;-inkscape-font-specification:'sans-serif Bold';letter-spacing:0px;word-spacing:0px;fill:#ffffff;fill-opacity:1;stroke:none;stroke-width:0.2881287"
       id="text821">
      <path
         d="M 8.6049303,13.736843 H 6.52275 L 2.9661609,7.9855235 V 13.736843 H 0.9852759 V 5.3574743 H 3.568305 L 6.6240453,10.157744 V 5.3574743 h 1.980885 z"
         style="font-style:normal;font-variant:normal;font-weight:bold;font-stretch:normal;font-family:sans-serif;-inkscape-font-specification:'sans-serif Bold';fill:#ffffff;stroke-width:0.2881287"
         id="path829"
         inkscape:connector-curvature="0" />
      <path
         d="M 16.815474,13.736843 H 10.754641 V 5.3574743 h 6.060833 v 1.6207241 h -3.911122 v 1.4462712 h 3.629746 v 1.6207244 h -3.629746 v 2.070925 h 3.911122 z"
         style="font-style:normal;font-variant:normal;font-weight:bold;font-stretch:normal;font-family:sans-serif;-inkscape-font-specification:'sans-serif Bold';fill:#ffffff;stroke-width:0.2881287"
         id="path831"
         inkscape:connector-curvature="0" />
      <path
         d="m 26.230305,5.3574743 -3.055741,8.3793687 h -2.419831 l -3.05574,-8.3793687 h 2.267888 l 2.025905,5.8863797 2.025905,-5.8863797 z"
         style="font-style:normal;font-variant:normal;font-weight:bold;font-stretch:normal;font-family:sans-serif;-inkscape-font-specification:'sans-serif Bold';fill:#ffffff;stroke-width:0.2881287"
         id="path833"
         inkscape:connector-curvature="0" />
      <path
         d="M 33.495427,13.736843 H 27.434594 V 5.3574743 h 6.060833 v 1.6207241 h -3.911123 v 1.4462712 h 3.629747 v 1.6207244 h -3.629747 v 2.070925 h 3.911123 z"
         style="font-style:normal;font-variant:normal;font-weight:bold;font-stretch:normal;font-family:sans-serif;-inkscape-font-specification:'sans-serif Bold';fill:#ffffff;stroke-width:0.2881287"
         id="path835"
         inkscape:connector-curvature="0" />
      <path
         d="m 40.012089,7.9236208 q 0,-0.3151408 -0.129433,-0.5402414 Q 39.753224,7.1582789 39.438083,7.028846 39.21861,6.9388058 38.925979,6.9219233 38.633348,6.8994132 38.24505,6.8994132 h -0.782225 v 2.2566332 h 0.664047 q 0.517731,0 0.866637,-0.050648 0.348906,-0.050648 0.585262,-0.2307281 0.2251,-0.1744529 0.326395,-0.3826709 0.106923,-0.2138456 0.106923,-0.5683786 z M 43.38297,13.736843 H 40.743666 L 38.458895,10.66422 h -0.99607 v 3.072623 h -2.14971 V 5.3574743 h 3.624119 q 0.742832,0 1.277446,0.084413 0.534614,0.084413 1.001697,0.3657884 0.472712,0.2813757 0.74846,0.7315769 0.281375,0.4445736 0.281375,1.1198753 0,0.9285399 -0.433318,1.5138014 -0.427691,0.5852615 -1.226798,0.9735597 z"
         style="font-style:normal;font-variant:normal;font-weight:bold;font-stretch:normal;font-family:sans-serif;-inkscape-font-specification:'sans-serif Bold';fill:#ffffff;stroke-width:0.2881287"
         id="path837"
         inkscape:connector-curvature="0" />
      <path
         d="m 51.255861,8.002406 q 0,0.5627514 -0.196963,1.1029928 -0.196963,0.5346139 -0.562751,0.9004022 -0.500849,0.495221 -1.119876,0.74846 -0.613399,0.253238 -1.530684,0.253238 h -1.344975 v 2.729344 H 44.339646 V 5.3574743 h 3.556589 q 0.799107,0 1.344976,0.1406878 0.551496,0.1350604 0.97356,0.4108086 0.506476,0.3320233 0.770969,0.8497546 0.270121,0.5177314 0.270121,1.2436807 z m -2.234123,0.050648 q 0,-0.3545334 -0.191336,-0.6077715 Q 48.639067,7.1864164 48.385829,7.0851212 48.048178,6.9500608 47.72741,6.9388058 47.406641,6.9219233 46.872027,6.9219233 h -0.371415 v 2.5098713 h 0.619026 q 0.551496,0 0.90603,-0.06753 0.360161,-0.06753 0.602144,-0.2701207 0.208218,-0.1800805 0.298258,-0.4276911 0.09567,-0.2532381 0.09567,-0.6133991 z"
         style="font-style:normal;font-variant:normal;font-weight:bold;font-stretch:normal;font-family:sans-serif;-inkscape-font-specification:'sans-serif Bold';fill:#ffffff;stroke-width:0.2881287"
         id="path839"
         inkscape:connector-curvature="0" />
      <path
         d="m 58.824869,13.736843 h -6.04395 V 5.3574743 h 2.160965 v 6.7586447 h 3.882985 z"
         style="font-style:normal;font-variant:normal;font-weight:bold;font-stretch:normal;font-family:sans-serif;-inkscape-font-specification:'sans-serif Bold';fill:#ffffff;stroke-width:0.2881287"
         id="path841"
         inkscape:connector-curvature="0" />
      <path
         d="m 67.862658,13.736843 h -2.234123 l -0.579634,-1.693882 h -3.106388 l -0.579634,1.693882 h -2.177848 l 3.095133,-8.3793687 h 2.487361 z M 64.525542,10.50665 63.495707,7.5015572 62.465872,10.50665 Z"
         style="font-style:normal;font-variant:normal;font-weight:bold;font-stretch:normal;font-family:sans-serif;-inkscape-font-specification:'sans-serif Bold';fill:#ffffff;stroke-width:0.2881287"
         id="path843"
         inkscape:connector-curvature="0" />
      <path
         d="M 76.450246,5.3574743 73.36074,10.495395 v 3.241448 H 71.199775 V 10.59669 L 68.059622,5.3574743 h 2.453596 l 1.81206,3.2414482 1.750157,-3.2414482 z"
         style="font-style:normal;font-variant:normal;font-weight:bold;font-stretch:normal;font-family:sans-serif;-inkscape-font-specification:'sans-serif Bold';fill:#ffffff;stroke-width:0.2881287"
         id="path845"
         inkscape:connector-curvature="0" />
      <path
         d="M 83.625325,13.736843 H 77.564492 V 5.3574743 h 6.060833 v 1.6207241 h -3.911123 v 1.4462712 h 3.629747 v 1.6207244 h -3.629747 v 2.070925 h 3.911123 z"
         style="font-style:normal;font-variant:normal;font-weight:bold;font-stretch:normal;font-family:sans-serif;-inkscape-font-specification:'sans-serif Bold';fill:#ffffff;stroke-width:0.2881287"
         id="path847"
         inkscape:connector-curvature="0" />
      <path
         d="m 93.360922,9.5556 q 0,1.170523 -0.534614,2.099063 -0.534614,0.922912 -1.350604,1.418133 -0.613399,0.371416 -1.344976,0.517732 -0.731576,0.146315 -1.733274,0.146315 H 85.443009 V 5.3574743 h 3.038858 q 1.024207,0 1.767039,0.1744529 0.742832,0.1688254 1.249308,0.4839663 0.866638,0.5289863 1.361859,1.4293886 0.500849,0.8947748 0.500849,2.1103179 z M 91.126799,9.538717 q 0,-0.8272446 -0.303886,-1.4125061 Q 90.524654,7.5353223 89.871863,7.203299 89.539839,7.0401011 89.190934,6.9838259 88.847655,6.9219233 88.149843,6.9219233 h -0.545868 v 5.2448437 h 0.545868 q 0.77097,0 1.131131,-0.06753 0.360161,-0.07316 0.703439,-0.258865 0.590889,-0.337651 0.866637,-0.900403 0.275749,-0.568378 0.275749,-1.4012506 z"
         style="font-style:normal;font-variant:normal;font-weight:bold;font-stretch:normal;font-family:sans-serif;-inkscape-font-specification:'sans-serif Bold';fill:#ffffff;stroke-width:0.2881287"
         id="path849"
         inkscape:connector-curvature="0" />
    </g>
  </g>
</svg>
