<?xml version="1.0" encoding="UTF-8" standalone="no"?>
<svg
   xmlns:dc="http://purl.org/dc/elements/1.1/"
   xmlns:cc="http://creativecommons.org/ns#"
   xmlns:rdf="http://www.w3.org/1999/02/22-rdf-syntax-ns#"
   xmlns:svg="http://www.w3.org/2000/svg"
   xmlns="http://www.w3.org/2000/svg"
   xmlns:sodipodi="http://sodipodi.sourceforge.net/DTD/sodipodi-0.dtd"
   xmlns:inkscape="http://www.inkscape.org/namespaces/inkscape"
   width="83px"
   height="18px"
   viewBox="0 0 83 18"
   version="1.1"
   id="svg12"
   sodipodi:docname="system.svg"
   inkscape:version="0.92.4 (5da689c313, 2019-01-14)">
  <metadata
     id="metadata16">
    <rdf:RDF>
      <cc:Work
         rdf:about="">
        <dc:format>image/svg+xml</dc:format>
        <dc:type
           rdf:resource="http://purl.org/dc/dcmitype/StillImage" />
        <dc:title>system</dc:title>
      </cc:Work>
    </rdf:RDF>
  </metadata>
  <sodipodi:namedview
     pagecolor="#ffffff"
     bordercolor="#666666"
     borderopacity="1"
     objecttolerance="10"
     gridtolerance="10"
     guidetolerance="10"
     inkscape:pageopacity="0"
     inkscape:pageshadow="2"
     inkscape:window-width="1920"
     inkscape:window-height="1018"
     id="namedview14"
     showgrid="false"
     inkscape:zoom="4.5783133"
     inkscape:cx="-33.656494"
     inkscape:cy="9.0000002"
     inkscape:window-x="-8"
     inkscape:window-y="-8"
     inkscape:window-maximized="1"
     inkscape:current-layer="svg12" />
  <!-- Generator: Sketch 45 (43475) - http://www.bohemiancoding.com/sketch -->
  <title
     id="title2">system</title>
  <desc
     id="desc4">Created with Sketch.</desc>
  <defs
     id="defs6" />
  <g
     id="g835">
    <g
       style="fill:#ffffff"
       transform="matrix(0.97543946,0,0,0.97543946,4.0553973,0.32325454)"
       id="g1278">
      <g
         id="text1274"
         style="font-style:normal;font-variant:normal;font-weight:bold;font-stretch:normal;font-size:11.74288464px;line-height:1.25;font-family:sans-serif;-inkscape-font-specification:'sans-serif Bold';letter-spacing:0px;word-spacing:0px;fill:#ffffff;fill-opacity:1;stroke:none;stroke-width:0.44035822"
         aria-label="BANPRESTO">
        <path
           inkscape:connector-curvature="0"
           id="path1280"
           style="fill:#ffffff;stroke-width:0.44035822"
           d="m 9.5604395,10.369167 q 0,0.619253 -0.2522885,1.106629 -0.2465547,0.487375 -0.6823258,0.80847 -0.5045771,0.378433 -1.1123631,0.53898 -0.6020522,0.160547 -1.5309327,0.160547 H 2.2555396 V 4.4461198 h 3.314154 q 1.0320894,0 1.5079974,0.068806 0.4816417,0.068806 0.9518158,0.303893 0.4873756,0.2465547 0.7224626,0.6651243 0.2408209,0.4128358 0.2408209,0.946082 0,0.6192537 -0.3268283,1.0951616 Q 8.3391336,7.9953608 7.7428153,8.259117 V 8.304988 Q 8.5799545,8.471269 9.0673301,8.9930476 9.5604395,9.5148262 9.5604395,10.369167 Z M 6.739395,6.8600624 q 0,-0.2121517 -0.1089428,-0.4243034 Q 6.5272432,6.2236072 6.2577532,6.1203983 6.0169323,6.028657 5.655701,6.0229232 5.3002035,6.0114555 4.6522807,6.0114555 H 4.4458628 v 1.8061566 h 0.3440298 q 0.5217786,0 0.8887437,-0.017201 Q 6.0456015,7.7832091 6.2577532,7.685734 6.5559124,7.5538559 6.6476537,7.347438 6.739395,7.1352863 6.739395,6.8600624 Z m 0.53898,3.4747016 q 0,-0.4071023 -0.1605472,-0.6249879 Q 6.9630143,9.4861567 6.5845815,9.3772139 6.3265592,9.3026741 5.8735866,9.2969403 5.420614,9.2912065 4.9275046,9.2912065 H 4.4458628 v 2.1272515 h 0.1605473 q 0.9288805,0 1.3302486,-0.0057 0.4013681,-0.0057 0.7396641,-0.14908 0.3440299,-0.14338 0.4701741,-0.378467 Q 7.278375,10.64439 7.278375,10.334764 Z" />
        <path
           inkscape:connector-curvature="0"
           id="path1282"
           style="fill:#ffffff;stroke-width:0.44035822"
           d="M 19.090066,12.983793 H 16.813735 L 16.223151,11.25791 h -3.165075 l -0.590584,1.725883 h -2.218993 l 3.153607,-8.5376732 h 2.534353 z M 15.689904,9.6925746 14.640613,6.6307092 13.591322,9.6925746 Z" />
        <path
           inkscape:connector-curvature="0"
           id="path1284"
           style="fill:#ffffff;stroke-width:0.44035822"
           d="M 28.092178,12.983793 H 25.970661 L 22.34688,7.1238186 V 12.983793 H 20.328572 V 4.4461198 H 22.9604 l 3.11347,4.8909573 V 4.4461198 h 2.018308 z" />
        <path
           inkscape:connector-curvature="0"
           id="path1286"
           style="fill:#ffffff;stroke-width:0.44035822"
           d="m 37.329379,7.1410201 q 0,0.573383 -0.200684,1.1238307 -0.200684,0.5447139 -0.573383,0.9174129 -0.510311,0.5045771 -1.141032,0.7625995 -0.624987,0.2580228 -1.559602,0.2580228 h -1.370385 v 2.780907 H 30.282502 V 4.4461198 h 3.623781 q 0.814204,0 1.370385,0.1433458 0.561916,0.1376119 0.991953,0.4185696 0.516045,0.338296 0.785535,0.8658084 0.275223,0.5275124 0.275223,1.2671765 z m -2.27633,0.051604 q 0,-0.3612313 -0.19495,-0.6192537 Q 34.663148,6.3096147 34.405126,6.2064057 34.061096,6.0687938 33.734268,6.0573261 33.407439,6.0401247 32.862726,6.0401247 H 32.484293 V 8.597413 h 0.630721 q 0.561915,0 0.923147,-0.068806 0.366965,-0.068806 0.61352,-0.2752238 0.212151,-0.1834826 0.303893,-0.4357711 0.09748,-0.2580224 0.09748,-0.6249875 z" />
        <path
           inkscape:connector-curvature="0"
           id="path1288"
           style="fill:#ffffff;stroke-width:0.44035822"
           d="m 43.670996,7.0607465 q 0,-0.3210945 -0.131878,-0.5504478 Q 43.40724,6.2809455 43.086146,6.1490674 42.862526,6.0573261 42.564367,6.0401247 42.266208,6.0171893 41.870574,6.0171893 h -0.797003 v 2.299266 h 0.676592 q 0.527513,0 0.88301,-0.051604 0.355498,-0.051604 0.596318,-0.235087 0.229354,-0.1777487 0.332563,-0.3899005 0.108942,-0.2178855 0.108942,-0.5791173 z m 3.434565,5.9230465 H 44.416394 L 42.088459,9.8531219 H 41.073571 V 12.983793 H 38.883248 V 4.4461198 h 3.692587 q 0.756865,0 1.301579,0.086008 0.544714,0.086007 1.020622,0.3726989 0.481642,0.2866916 0.7626,0.745398 0.286691,0.4529726 0.286691,1.1410322 0,0.9460821 -0.441505,1.5424004 -0.435771,0.5963184 -1.249975,0.9919527 z" />
        <path
           inkscape:connector-curvature="0"
           id="path1290"
           style="fill:#ffffff;stroke-width:0.44035822"
           d="M 54.255647,12.983793 H 48.080311 V 4.4461198 h 6.175336 V 6.097463 h -3.985012 v 1.4735944 h 3.69832 v 1.6513431 h -3.69832 V 11.33245 h 3.985012 z" />
        <path
           inkscape:connector-curvature="0"
           id="path1292"
           style="fill:#ffffff;stroke-width:0.44035822"
           d="m 62.9424,10.300361 q 0,1.261442 -1.072226,2.052711 -1.066493,0.785535 -2.901318,0.785535 -1.060759,0 -1.852028,-0.183483 -0.785534,-0.189216 -1.473594,-0.475908 v -2.046977 h 0.240821 q 0.682326,0.544714 1.525199,0.837139 0.848607,0.292425 1.628408,0.292425 0.200684,0 0.527512,-0.0344 0.326828,-0.0344 0.533246,-0.114676 0.252289,-0.103209 0.412836,-0.258023 0.166281,-0.154813 0.166281,-0.458706 0,-0.280958 -0.240821,-0.481642 Q 60.201629,10.007935 59.742923,9.8989925 59.261281,9.7843159 58.722301,9.6868408 58.189055,9.5836318 57.718881,9.4288184 56.640921,9.0790548 56.165013,8.4827364 55.694839,7.8806842 55.694839,6.9919405 q 0,-1.1926367 1.066492,-1.9437685 1.072226,-0.7568656 2.752239,-0.7568656 0.842873,0 1.66281,0.1662811 0.825672,0.1605472 1.427724,0.4071019 V 6.8313933 H 62.369017 Q 61.852972,6.4185575 61.101841,6.1433336 60.356443,5.8623759 59.576642,5.8623759 q -0.275224,0 -0.550448,0.040137 -0.26949,0.034403 -0.521779,0.137612 -0.223619,0.086007 -0.384166,0.2637562 -0.160547,0.1720149 -0.160547,0.3956343 0,0.3382959 0.258022,0.5217785 0.258022,0.1777488 0.974751,0.3268284 0.470174,0.097475 0.900211,0.1892164 0.435772,0.091741 0.934615,0.2522885 0.980485,0.3210945 1.444925,0.877276 Q 62.9424,9.417351 62.9424,10.300361 Z" />
        <path
           inkscape:connector-curvature="0"
           id="path1294"
           style="fill:#ffffff;stroke-width:0.44035822"
           d="m 71.136044,6.097463 h -2.666231 v 6.88633 H 66.268022 V 6.097463 H 63.601791 V 4.4461198 h 7.534253 z" />
        <path
           inkscape:connector-curvature="0"
           id="path1296"
           style="fill:#ffffff;stroke-width:0.44035822"
           d="m 80.763143,8.7178234 q 0,2.0412436 -1.169701,3.2453476 -1.169702,1.198371 -3.233881,1.198371 -2.058445,0 -3.228146,-1.198371 -1.169702,-1.204104 -1.169702,-3.2453476 0,-2.0584451 1.169702,-3.2510818 1.169701,-1.1983705 3.228146,-1.1983705 2.052712,0 3.228147,1.1983705 1.175435,1.1926367 1.175435,3.2510818 z m -2.91852,2.1616546 q 0.321095,-0.389901 0.475908,-0.9174134 0.154814,-0.5332462 0.154814,-1.249975 0,-0.7683333 -0.177749,-1.3073133 Q 78.119847,6.8657962 77.833156,6.5332341 77.54073,6.1892042 77.156564,6.0343908 76.778131,5.8795774 76.365295,5.8795774 q -0.418569,0 -0.791268,0.1490796 -0.366966,0.1490796 -0.676592,0.4931094 -0.286692,0.3210945 -0.470174,0.8887437 -0.177749,0.5619154 -0.177749,1.3073133 0,0.7625995 0.172015,1.3015796 0.177748,0.533246 0.46444,0.871542 0.286691,0.338296 0.670858,0.498843 0.384167,0.160548 0.80847,0.160548 0.424304,0 0.80847,-0.160548 0.384167,-0.166281 0.670858,-0.51031 z" />
      </g>
    </g>
  </g>
</svg>
