<?xml version="1.0" encoding="UTF-8" standalone="no"?>
<svg
   xmlns:dc="http://purl.org/dc/elements/1.1/"
   xmlns:cc="http://creativecommons.org/ns#"
   xmlns:rdf="http://www.w3.org/1999/02/22-rdf-syntax-ns#"
   xmlns:svg="http://www.w3.org/2000/svg"
   xmlns="http://www.w3.org/2000/svg"
   xmlns:sodipodi="http://sodipodi.sourceforge.net/DTD/sodipodi-0.dtd"
   xmlns:inkscape="http://www.inkscape.org/namespaces/inkscape"
   viewBox="0 0 24.60742 125.24963749999999"
   x="0px"
   y="0px"
   version="1.1"
   id="svg104"
   sodipodi:docname="noun_Wiimote_1593371.svg"
   inkscape:version="0.92.4 (5da689c313, 2019-01-14)">
  <metadata
     id="metadata110">
    <rdf:RDF>
      <cc:Work
         rdf:about="">
        <dc:format>image/svg+xml</dc:format>
        <dc:type
           rdf:resource="http://purl.org/dc/dcmitype/StillImage" />
        <dc:title>Fichier 3Wii Controller 2</dc:title>
      </cc:Work>
    </rdf:RDF>
  </metadata>
  <defs
     id="defs108" />
  <sodipodi:namedview
     pagecolor="#ffffff"
     bordercolor="#666666"
     borderopacity="1"
     objecttolerance="10"
     gridtolerance="10"
     guidetolerance="10"
     inkscape:pageopacity="0"
     inkscape:pageshadow="2"
     inkscape:window-width="1920"
     inkscape:window-height="1018"
     id="namedview106"
     showgrid="false"
     inkscape:zoom="1.884237"
     inkscape:cx="12.30371"
     inkscape:cy="62.624817"
     inkscape:window-x="-8"
     inkscape:window-y="-8"
     inkscape:window-maximized="1"
     inkscape:current-layer="svg104" />
  <title
     id="title2">Fichier 3Wii Controller 2</title>
  <g
     id="g1061">
    <g
       style="fill:#ffffff"
       id="g1011">
      <g
         style="fill:#ffffff"
         id="g96"
         data-name="Calque 2"
         transform="translate(0,12)">
        <g
           style="fill:#ffffff"
           id="g94">
          <path
             style="fill:#ffffff"
             inkscape:connector-curvature="0"
             id="path4"
             d="M 20.4043,0 H 4.20313 A 4.20818,4.20818 0 0 0 0,4.20313 v 91.79345 a 4.20818,4.20818 0 0 0 4.20313,4.20313 H 20.4043 a 4.20818,4.20818 0 0 0 4.20312,-4.20313 V 4.20313 A 4.20818,4.20818 0 0 0 20.4043,0 Z m 3.68847,4.20313 V 95.99658 A 3.69346,3.69346 0 0 1 20.4043,99.68506 H 4.20313 A 3.69346,3.69346 0 0 1 0.51465,95.99658 V 4.20313 A 3.69262,3.69262 0 0 1 4.20313,0.51563 H 20.4043 a 3.69262,3.69262 0 0 1 3.68847,3.6875 z" />
          <path
             style="fill:#ffffff"
             inkscape:connector-curvature="0"
             id="path6"
             d="m 12.51367,27.5166 a 3.94019,3.94019 0 1 0 3.94043,3.93994 3.94384,3.94384 0 0 0 -3.94043,-3.93994 z m 3.42578,3.93994 a 3.42529,3.42529 0 1 1 -3.42578,-3.42431 3.42912,3.42912 0 0 1 3.42578,3.42431 z" />
          <path
             style="fill:#ffffff"
             inkscape:connector-curvature="0"
             id="path8"
             d="M 5.99121,7.14844 A 2.25684,2.25684 0 1 0 3.73438,4.8916 2.25913,2.25913 0 0 0 5.99121,7.14844 Z M 4.25,4.8916 A 1.74121,1.74121 0 1 1 5.99121,6.63281 1.743,1.743 0 0 1 4.25,4.8916 Z" />
          <path
             style="fill:#ffffff"
             inkscape:connector-curvature="0"
             id="path10"
             d="M 5.67578,45.665 A 2.25659,2.25659 0 1 0 7.93164,47.92184 2.25912,2.25912 0 0 0 5.67578,45.665 Z M 7.417,47.92188 A 1.7417,1.7417 0 1 1 5.67579,46.18066 1.74378,1.74378 0 0 1 7.417,47.92188 Z" />
          <path
             style="fill:#ffffff"
             inkscape:connector-curvature="0"
             id="path12"
             d="m 12.46191,45.63867 a 2.2566,2.2566 0 1 0 2.25586,2.25684 2.25913,2.25913 0 0 0 -2.25586,-2.25684 z m 1.74122,2.25684 a 1.7417,1.7417 0 1 1 -1.74122,-1.74121 1.74379,1.74379 0 0 1 1.74122,1.74121 z" />
          <path
             style="fill:#ffffff"
             inkscape:connector-curvature="0"
             id="path14"
             d="m 19.14258,45.665 a 2.25659,2.25659 0 1 0 2.25586,2.25684 2.25913,2.25913 0 0 0 -2.25586,-2.25684 z m 1.74121,2.25684 a 1.7417,1.7417 0 1 1 -1.74121,-1.74122 1.74378,1.74378 0 0 1 1.74121,1.74126 z" />
          <path
             style="fill:#ffffff"
             inkscape:connector-curvature="0"
             id="path16"
             d="m 12.51367,76.74268 a 2.93995,2.93995 0 1 0 -2.93945,-2.93946 2.94326,2.94326 0 0 0 2.93945,2.93946 z m -2.4248,-2.93946 a 2.42529,2.42529 0 1 1 2.4248,2.42481 2.42855,2.42855 0 0 1 -2.4248,-2.42481 z" />
          <path
             style="fill:#ffffff"
             inkscape:connector-curvature="0"
             id="path18"
             d="m 15.4541,82.53467 a 2.93994,2.93994 0 1 0 -2.94043,2.94043 2.94326,2.94326 0 0 0 2.94043,-2.94043 z m -0.51465,0 a 2.42529,2.42529 0 1 1 -2.42578,-2.42481 2.42938,2.42938 0 0 1 2.42578,2.42481 z" />
          <path
             style="fill:#ffffff"
             inkscape:connector-curvature="0"
             id="path20"
             d="m 10.81836,56.47705 a 0.33594,0.33594 0 1 0 -0.33594,-0.33594 0.33675,0.33675 0 0 0 0.33594,0.33594 z" />
          <path
             style="fill:#ffffff"
             inkscape:connector-curvature="0"
             id="path22"
             d="m 12.54785,56.47705 a 0.33594,0.33594 0 1 0 -0.33691,-0.33594 0.33592,0.33592 0 0 0 0.33691,0.33594 z" />
          <path
             style="fill:#ffffff"
             d="m 14.61231,56.141109 a 0.33594,0.33594 0 0 1 -0.33594,0.33594 0.33594,0.33594 0 0 1 -0.33594,-0.33594 0.33594,0.33594 0 0 1 0.33594,-0.33594 0.33594,0.33594 0 0 1 0.33594,0.33594 z"
             id="circle24"
             inkscape:connector-curvature="0" />
          <path
             style="fill:#ffffff"
             inkscape:connector-curvature="0"
             id="path26"
             d="m 10.81836,58.33447 a 0.36621,0.36621 0 1 0 -0.36621,-0.36621 0.36656,0.36656 0 0 0 0.36621,0.36621 z" />
          <path
             style="fill:#ffffff"
             inkscape:connector-curvature="0"
             id="path28"
             d="m 12.54785,58.33447 a 0.36621,0.36621 0 1 0 -0.36719,-0.36621 0.36634,0.36634 0 0 0 0.36719,0.36621 z" />
          <path
             style="fill:#ffffff"
             d="m 14.64258,57.968262 a 0.36621001,0.36621001 0 0 1 -0.36621,0.36621 0.36621001,0.36621001 0 0 1 -0.36621,-0.36621 0.36621001,0.36621001 0 0 1 0.36621,-0.36621 0.36621001,0.36621001 0 0 1 0.36621,0.36621 z"
             id="circle30"
             inkscape:connector-curvature="0" />
          <path
             style="fill:#ffffff"
             inkscape:connector-curvature="0"
             id="path32"
             d="m 10.81836,63.07373 a 0.36621,0.36621 0 1 0 0.36719,0.36621 0.36634,0.36634 0 0 0 -0.36719,-0.36621 z" />
          <path
             style="fill:#ffffff"
             inkscape:connector-curvature="0"
             id="path34"
             d="m 12.54785,63.07373 a 0.36621,0.36621 0 1 0 0.36621,0.36621 0.36656,0.36656 0 0 0 -0.36621,-0.36621 z" />
          <path
             style="fill:#ffffff"
             d="m 14.64258,63.439941 a 0.36621001,0.36621001 0 0 1 -0.36621,0.36621 0.36621001,0.36621001 0 0 1 -0.36621,-0.36621 0.36621001,0.36621001 0 0 1 0.36621,-0.36621 0.36621001,0.36621001 0 0 1 0.36621,0.36621 z"
             id="circle36"
             inkscape:connector-curvature="0" />
          <path
             style="fill:#ffffff"
             inkscape:connector-curvature="0"
             id="path38"
             d="m 10.81836,59.30713 a 0.47461,0.47461 0 1 0 0.47559,0.47461 0.47512,0.47512 0 0 0 -0.47559,-0.47461 z" />
          <path
             style="fill:#ffffff"
             inkscape:connector-curvature="0"
             id="path40"
             d="m 10.81836,61.09814 a 0.47461,0.47461 0 1 0 0.47559,0.47461 0.47513,0.47513 0 0 0 -0.47559,-0.47461 z" />
          <path
             style="fill:#ffffff"
             d="m 13.02246,59.781738 a 0.47461,0.47461 0 0 1 -0.47461,0.47461 0.47461,0.47461 0 0 1 -0.47461,-0.47461 0.47461,0.47461 0 0 1 0.47461,-0.47461 0.47461,0.47461 0 0 1 0.47461,0.47461 z"
             id="circle42"
             inkscape:connector-curvature="0" />
          <path
             style="fill:#ffffff"
             d="m 13.02246,61.57275 a 0.47461,0.47461 0 0 1 -0.47461,0.47461 0.47461,0.47461 0 0 1 -0.47461,-0.47461 0.47461,0.47461 0 0 1 0.47461,-0.47461 0.47461,0.47461 0 0 1 0.47461,0.47461 z"
             id="circle44"
             inkscape:connector-curvature="0" />
          <path
             style="fill:#ffffff"
             d="m 14.75098,59.781738 a 0.47461,0.47461 0 0 1 -0.47461,0.47461 0.47461,0.47461 0 0 1 -0.47461,-0.47461 0.47461,0.47461 0 0 1 0.47461,-0.47461 0.47461,0.47461 0 0 1 0.47461,0.47461 z"
             id="circle46"
             inkscape:connector-curvature="0" />
          <path
             style="fill:#ffffff"
             d="m 14.75098,61.57275 a 0.47461,0.47461 0 0 1 -0.47461,0.47461 0.47461,0.47461 0 0 1 -0.47461,-0.47461 0.47461,0.47461 0 0 1 0.47461,-0.47461 0.47461,0.47461 0 0 1 0.47461,0.47461 z"
             id="circle48"
             inkscape:connector-curvature="0" />
          <path
             style="fill:#ffffff"
             inkscape:connector-curvature="0"
             id="path50"
             d="m 10.81836,64.91846 a 0.33643,0.33643 0 1 0 0.33691,0.33593 0.33592,0.33592 0 0 0 -0.33691,-0.33593 z" />
          <path
             style="fill:#ffffff"
             inkscape:connector-curvature="0"
             id="path52"
             d="m 12.54785,64.91846 a 0.33643,0.33643 0 1 0 0.33594,0.33593 0.33675,0.33675 0 0 0 -0.33594,-0.33593 z" />
          <path
             style="fill:#ffffff"
             inkscape:connector-curvature="0"
             id="path54"
             d="m 14.27637,64.91846 a 0.33643,0.33643 0 1 0 0.33593,0.33593 0.33592,0.33592 0 0 0 -0.33593,-0.33593 z" />
          <path
             style="fill:#ffffff"
             inkscape:connector-curvature="0"
             id="path56"
             d="M 5.06934,90.44678 H 6.794 V 88.72119 H 5.06934 Z M 6.4375,89.07861 v 1.01075 H 5.42676 v -1.01075 z" />
          <path
             style="fill:#ffffff"
             inkscape:connector-curvature="0"
             id="path58"
             d="m 6.15039,88.51318 a 0.17046,0.17046 0 0 0 0.1709,-0.17089 v -0.43653 a 0.17047,0.17047 0 0 0 -0.1709,-0.1709 H 5.71387 a 0.17047,0.17047 0 0 0 -0.1709,0.1709 v 0.43653 a 0.17046,0.17046 0 0 0 0.1709,0.17089 z m -0.10742,-0.5 v 0.22168 H 5.82129 v -0.22168 z" />
          <path
             style="fill:#ffffff"
             inkscape:connector-curvature="0"
             id="path60"
             d="M 9.46289,90.44678 H 11.1875 V 88.72119 H 9.46289 Z m 1.36816,-1.36817 v 1.01075 H 9.82031 v -1.01075 z" />
          <path
             style="fill:#ffffff"
             inkscape:connector-curvature="0"
             id="path62"
             d="m 10.11035,88.51318 a 0.17025,0.17025 0 0 0 0.16992,-0.17089 v -0.43653 a 0.17026,0.17026 0 0 0 -0.16992,-0.1709 h -0.4375 a 0.17026,0.17026 0 0 0 -0.16992,0.1709 v 0.43653 a 0.17025,0.17025 0 0 0 0.16992,0.17089 z m -0.10742,-0.5 v 0.22168 H 9.78125 v -0.22168 z" />
          <path
             style="fill:#ffffff"
             inkscape:connector-curvature="0"
             id="path64"
             d="m 10.97754,88.51318 a 0.17046,0.17046 0 0 0 0.1709,-0.17089 v -0.43653 a 0.17047,0.17047 0 0 0 -0.1709,-0.1709 H 10.541 a 0.17027,0.17027 0 0 0 -0.16993,0.1709 v 0.43653 a 0.17026,0.17026 0 0 0 0.16993,0.17089 z m -0.10742,-0.5 v 0.22168 h -0.22168 v -0.22168 z" />
          <path
             style="fill:#ffffff"
             inkscape:connector-curvature="0"
             id="path66"
             d="m 13.85645,90.44678 h 1.7246 v -1.72559 h -1.7246 z m 1.36816,-1.36817 v 1.01075 h -1.01074 v -1.01075 z" />
          <path
             style="fill:#ffffff"
             inkscape:connector-curvature="0"
             id="path68"
             d="m 14.24023,88.34229 v -0.43653 a 0.17047,0.17047 0 0 0 -0.17089,-0.1709 h -0.43653 a 0.17047,0.17047 0 0 0 -0.1709,0.1709 v 0.43653 a 0.17047,0.17047 0 0 0 0.1709,0.17089 h 0.43653 a 0.17046,0.17046 0 0 0 0.17089,-0.17089 z m -0.27832,-0.32911 v 0.22168 h -0.22168 v -0.22168 z" />
          <path
             style="fill:#ffffff"
             inkscape:connector-curvature="0"
             id="path70"
             d="m 14.501,87.73486 a 0.17047,0.17047 0 0 0 -0.1709,0.1709 v 0.43653 a 0.17046,0.17046 0 0 0 0.1709,0.17089 h 0.43652 a 0.17046,0.17046 0 0 0 0.1709,-0.17089 v -0.43653 a 0.17047,0.17047 0 0 0 -0.1709,-0.1709 z m 0.10742,0.5 v -0.22168 h 0.22168 v 0.22168 z" />
          <path
             style="fill:#ffffff"
             inkscape:connector-curvature="0"
             id="path72"
             d="m 15.80566,87.73486 h -0.43652 a 0.17047,0.17047 0 0 0 -0.1709,0.1709 v 0.43653 a 0.17046,0.17046 0 0 0 0.1709,0.17089 h 0.43652 a 0.17026,0.17026 0 0 0 0.16993,-0.17089 v -0.43653 a 0.17027,0.17027 0 0 0 -0.16993,-0.1709 z m -0.3291,0.5 v -0.22168 h 0.22168 v 0.22168 z" />
          <path
             style="fill:#ffffff"
             inkscape:connector-curvature="0"
             id="path74"
             d="m 18.25,90.44678 h 1.72461 V 88.72119 H 18.25 Z m 1.36816,-1.36817 v 1.01075 h -1.01074 v -1.01075 z" />
          <path
             style="fill:#ffffff"
             inkscape:connector-curvature="0"
             id="path76"
             d="m 18.03516,87.73486 h -0.43653 a 0.17026,0.17026 0 0 0 -0.16992,0.1709 v 0.43653 a 0.17025,0.17025 0 0 0 0.16992,0.17089 h 0.43653 a 0.17046,0.17046 0 0 0 0.17089,-0.17089 v -0.43653 a 0.17047,0.17047 0 0 0 -0.17089,-0.1709 z m -0.32911,0.5 v -0.22168 h 0.22168 v 0.22168 z" />
          <path
             style="fill:#ffffff"
             inkscape:connector-curvature="0"
             id="path78"
             d="m 18.89941,88.51318 a 0.17026,0.17026 0 0 0 0.16993,-0.17089 v -0.43653 a 0.17027,0.17027 0 0 0 -0.16993,-0.1709 h -0.43652 a 0.17047,0.17047 0 0 0 -0.1709,0.1709 v 0.43653 a 0.17046,0.17046 0 0 0 0.1709,0.17089 z m -0.10742,-0.5 v 0.22168 h -0.22168 v -0.22168 z" />
          <path
             style="fill:#ffffff"
             inkscape:connector-curvature="0"
             id="path80"
             d="m 19.7627,88.51318 a 0.17046,0.17046 0 0 0 0.17089,-0.17089 v -0.43653 a 0.17047,0.17047 0 0 0 -0.17089,-0.1709 h -0.43653 a 0.17047,0.17047 0 0 0 -0.1709,0.1709 v 0.43653 a 0.17047,0.17047 0 0 0 0.1709,0.17089 z m -0.10743,-0.5 v 0.22168 h -0.22168 v -0.22168 z" />
          <path
             style="fill:#ffffff"
             inkscape:connector-curvature="0"
             id="path82"
             d="m 20.626,87.73486 h -0.43653 a 0.17047,0.17047 0 0 0 -0.1709,0.1709 v 0.43653 a 0.17047,0.17047 0 0 0 0.1709,0.17089 H 20.626 a 0.17047,0.17047 0 0 0 0.1709,-0.17089 v -0.43653 a 0.17047,0.17047 0 0 0 -0.1709,-0.1709 z m -0.3291,0.5 v -0.22168 h 0.22167 v 0.22168 z" />
          <path
             style="fill:#ffffff"
             inkscape:connector-curvature="0"
             id="path84"
             d="m 5.98047,14.834 v 3.07715 a 0.73144,0.73144 0 0 0 0.73047,0.73145 h 3.11719 a 0.21579,0.21579 0 0 1 0.21582,0.21533 v 3.11717 a 0.73216,0.73216 0 0 0 0.73144,0.731 h 3.07715 a 0.73133,0.73133 0 0 0 0.73047,-0.73095 v -3.11724 a 0.21579,0.21579 0 0 1 0.21582,-0.21533 H 17.916 a 0.73144,0.73144 0 0 0 0.73046,-0.73145 V 14.834 A 0.73143,0.73143 0 0 0 17.916,14.10256 H 14.79883 A 0.21579,0.21579 0 0 1 14.58301,13.88723 V 10.77 a 0.73134,0.73134 0 0 0 -0.73047,-0.731 h -3.07715 a 0.73217,0.73217 0 0 0 -0.73144,0.731 v 3.11719 A 0.21579,0.21579 0 0 1 9.82813,14.10252 H 6.71094 A 0.73144,0.73144 0 0 0 5.98047,14.834 Z m 8.81836,-0.21582 H 17.916 a 0.21589,0.21589 0 0 1 0.21582,0.21582 v 3.07715 A 0.21589,0.21589 0 0 1 17.916,18.12697 h -3.11717 a 0.73134,0.73134 0 0 0 -0.73047,0.731 v 3.11713 a 0.21579,0.21579 0 0 1 -0.21582,0.21533 h -3.07715 a 0.21663,0.21663 0 0 1 -0.2168,-0.21533 v -3.11719 a 0.73133,0.73133 0 0 0 -0.73046,-0.731 H 6.71094 A 0.21589,0.21589 0 0 1 6.49512,17.91109 V 14.834 a 0.21589,0.21589 0 0 1 0.21582,-0.21582 h 3.11719 a 0.73132,0.73132 0 0 0 0.73046,-0.73095 V 10.77 a 0.21663,0.21663 0 0 1 0.2168,-0.21533 h 3.07715 A 0.21579,0.21579 0 0 1 14.06836,10.77 v 3.11719 a 0.73133,0.73133 0 0 0 0.73047,0.73097 z" />
          <path
             style="fill:#ffffff"
             d="m 12.06641,11.57764 h 0.51465 v 2.48828 h -0.51465 z"
             id="rect86"
             inkscape:connector-curvature="0" />
          <path
             style="fill:#ffffff"
             d="m 12.05664,18.679199 h 0.51465 v 2.48828 h -0.51465 z"
             id="rect88"
             inkscape:connector-curvature="0" />
          <path
             style="fill:#ffffff"
             d="M 7.6279302,16.11475 H 10.11523 v 0.51563 H 7.6279302 Z"
             id="rect90"
             inkscape:connector-curvature="0" />
          <path
             style="fill:#ffffff"
             d="m 14.72949,16.154301 h 2.4873 v 0.51563 h -2.4873 z"
             id="rect92"
             inkscape:connector-curvature="0" />
        </g>
      </g>
    </g>
  </g>
</svg>
