<?xml version="1.0" encoding="UTF-8" standalone="no"?>
<svg
   xmlns:dc="http://purl.org/dc/elements/1.1/"
   xmlns:cc="http://creativecommons.org/ns#"
   xmlns:rdf="http://www.w3.org/1999/02/22-rdf-syntax-ns#"
   xmlns:svg="http://www.w3.org/2000/svg"
   xmlns="http://www.w3.org/2000/svg"
   xmlns:sodipodi="http://sodipodi.sourceforge.net/DTD/sodipodi-0.dtd"
   xmlns:inkscape="http://www.inkscape.org/namespaces/inkscape"
   width="117px"
   height="18px"
   viewBox="0 0 117 18"
   version="1.1"
   id="svg12"
   sodipodi:docname="system.svg"
   inkscape:version="0.92.4 (5da689c313, 2019-01-14)">
  <metadata
     id="metadata16">
    <rdf:RDF>
      <cc:Work
         rdf:about="">
        <dc:format>image/svg+xml</dc:format>
        <dc:type
           rdf:resource="http://purl.org/dc/dcmitype/StillImage" />
        <dc:title>system</dc:title>
      </cc:Work>
    </rdf:RDF>
  </metadata>
  <sodipodi:namedview
     pagecolor="#ffffff"
     bordercolor="#666666"
     borderopacity="1"
     objecttolerance="10"
     gridtolerance="10"
     guidetolerance="10"
     inkscape:pageopacity="0"
     inkscape:pageshadow="2"
     inkscape:window-width="1920"
     inkscape:window-height="1018"
     id="namedview14"
     showgrid="false"
     inkscape:zoom="3.2478632"
     inkscape:cx="101.11826"
     inkscape:cy="8.9999999"
     inkscape:window-x="-8"
     inkscape:window-y="-8"
     inkscape:window-maximized="1"
     inkscape:current-layer="svg12" />
  <!-- Generator: Sketch 45 (43475) - http://www.bohemiancoding.com/sketch -->
  <title
     id="title2">system</title>
  <desc
     id="desc4">Created with Sketch.</desc>
  <defs
     id="defs6" />
  <g
     id="g881">
    <path
       inkscape:connector-curvature="0"
       id="path1590"
       style="font-style:normal;font-variant:normal;font-weight:bold;font-stretch:normal;font-size:10.24021053px;line-height:1.25;font-family:sans-serif;-inkscape-font-specification:'sans-serif Bold';letter-spacing:0px;word-spacing:0px;fill:#ffffff;fill-opacity:1;stroke:none;stroke-width:0.54858279"
       d="m 12.615879,12.432812 h -1.91004 V 7.4477092 L 9.3258111,10.682776 H 8.0007838 L 6.6207554,7.4477092 V 12.432812 H 4.8107182 V 4.9876587 H 7.0407641 L 8.7157985,8.7227355 10.385833,4.9876587 h 2.230046 z" />
    <path
       inkscape:connector-curvature="0"
       id="path1592"
       style="font-style:normal;font-variant:normal;font-weight:bold;font-stretch:normal;font-size:10.24021053px;line-height:1.25;font-family:sans-serif;-inkscape-font-specification:'sans-serif Bold';letter-spacing:0px;word-spacing:0px;fill:#ffffff;fill-opacity:1;stroke:none;stroke-width:0.54858279"
       d="M 19.896028,12.432812 H 14.510917 V 4.9876587 h 5.385111 v 1.4400296 h -3.475071 v 1.2850264 h 3.225066 v 1.4400296 h -3.225066 v 1.8400377 h 3.475071 z" />
    <path
       inkscape:connector-curvature="0"
       id="path1594"
       style="font-style:normal;font-variant:normal;font-weight:bold;font-stretch:normal;font-size:10.24021053px;line-height:1.25;font-family:sans-serif;-inkscape-font-specification:'sans-serif Bold';letter-spacing:0px;word-spacing:0px;fill:#ffffff;fill-opacity:1;stroke:none;stroke-width:0.54858279"
       d="m 28.096198,12.007803 q -0.500011,0.195004 -1.325028,0.390008 -0.825016,0.190004 -1.645033,0.190004 -1.900039,0 -2.975062,-1.030021 -1.075022,-1.035022 -1.075022,-2.855059 0,-1.7350356 1.085023,-2.7950574 1.085022,-1.0650219 3.025062,-1.0650219 0.735015,0 1.400029,0.1350028 0.665013,0.1300026 1.48003,0.5250108 V 7.2477051 H 27.851193 Q 27.71119,7.142703 27.441184,6.9526991 27.171179,6.7576951 26.921174,6.6226923 26.631168,6.462689 26.24116,6.3476866 25.856152,6.2326843 25.421143,6.2326843 q -0.510011,0 -0.925019,0.150003 -0.415009,0.1500031 -0.745016,0.4600095 -0.315006,0.3000062 -0.50001,0.7650157 -0.180004,0.4600095 -0.180004,1.0650219 0,1.2350254 0.655014,1.8900386 0.655013,0.655014 1.93504,0.655014 0.110002,0 0.240005,-0.005 0.135002,-0.005 0.245005,-0.015 V 9.7377563 H 24.661127 V 8.3327274 h 3.435071 z" />
    <path
       inkscape:connector-curvature="0"
       id="path1596"
       style="font-style:normal;font-variant:normal;font-weight:bold;font-stretch:normal;font-size:10.24021053px;line-height:1.25;font-family:sans-serif;-inkscape-font-specification:'sans-serif Bold';letter-spacing:0px;word-spacing:0px;fill:#ffffff;fill-opacity:1;stroke:none;stroke-width:0.54858279"
       d="m 36.691375,12.432812 h -1.985041 l -0.515011,-1.505031 h -2.760056 l -0.515011,1.505031 h -1.93504 l 2.750057,-7.4451533 h 2.210045 z M 33.726314,9.5627527 32.811295,6.8926978 31.896276,9.5627527 Z" />
    <path
       inkscape:connector-curvature="0"
       id="path1598"
       style="font-style:normal;font-variant:normal;font-weight:bold;font-stretch:normal;font-size:10.24021053px;line-height:1.25;font-family:sans-serif;-inkscape-font-specification:'sans-serif Bold';letter-spacing:0px;word-spacing:0px;fill:#ffffff;fill-opacity:1;stroke:none;stroke-width:0.54858279"
       d="m 44.806541,8.7177354 q 0,1.0400213 -0.47501,1.8650386 -0.47501,0.820017 -1.200024,1.260026 -0.545012,0.330006 -1.195025,0.460009 -0.650013,0.130003 -1.540032,0.130003 H 37.771396 V 4.9876587 h 2.700056 q 0.910019,0 1.570032,0.1550032 0.660014,0.150003 1.110023,0.4300088 0.770016,0.4700097 1.210025,1.2700261 0.445009,0.7950164 0.445009,1.8750386 z m -1.985041,-0.015 q 0,-0.7350151 -0.270005,-1.2550258 -0.265006,-0.5250107 -0.845018,-0.8200168 -0.295006,-0.145003 -0.605012,-0.195004 -0.305006,-0.055001 -0.925019,-0.055001 h -0.48501 v 4.6600962 h 0.48501 q 0.685014,0 1.00502,-0.06 0.320007,-0.065 0.625013,-0.230005 Q 42.33149,10.447771 42.576495,9.9477606 42.8215,9.4427503 42.8215,8.7027354 Z" />
    <path
       inkscape:connector-curvature="0"
       id="path1600"
       style="font-style:normal;font-variant:normal;font-weight:bold;font-stretch:normal;font-size:10.24021053px;line-height:1.25;font-family:sans-serif;-inkscape-font-specification:'sans-serif Bold';letter-spacing:0px;word-spacing:0px;fill:#ffffff;fill-opacity:1;stroke:none;stroke-width:0.54858279"
       d="m 50.446658,7.2677055 q 0,-0.2800057 -0.115003,-0.4800098 -0.115002,-0.2000041 -0.395008,-0.3150065 -0.195004,-0.080002 -0.455009,-0.095002 -0.260006,-0.02 -0.605013,-0.02 h -0.695014 v 2.0050413 h 0.590012 q 0.46001,0 0.770016,-0.045001 0.310006,-0.045001 0.520011,-0.2050042 0.200004,-0.1550032 0.290006,-0.340007 0.095,-0.1900039 0.095,-0.5050104 z m 2.995061,5.1651065 H 51.096671 L 49.066629,9.7027556 H 48.181611 V 12.432812 H 46.271572 V 4.9876587 h 3.220066 q 0.660014,0 1.135023,0.075001 0.47501,0.075002 0.890019,0.3250067 0.420008,0.2500051 0.665013,0.6500134 0.250005,0.3950081 0.250005,0.9950204 0,0.825017 -0.385007,1.3450277 -0.380008,0.5200107 -1.090023,0.8650178 z" />
    <path
       inkscape:connector-curvature="0"
       id="path1602"
       style="font-style:normal;font-variant:normal;font-weight:bold;font-stretch:normal;font-size:10.24021053px;line-height:1.25;font-family:sans-serif;-inkscape-font-specification:'sans-serif Bold';letter-spacing:0px;word-spacing:0px;fill:#ffffff;fill-opacity:1;stroke:none;stroke-width:0.54858279"
       d="m 58.316819,12.432812 h -4.36009 v -1.320027 h 1.220025 V 6.3076858 H 53.956729 V 4.9876587 h 4.36009 v 1.3200271 h -1.220025 v 4.8050992 h 1.220025 z" />
    <path
       inkscape:connector-curvature="0"
       id="path1604"
       style="font-style:normal;font-variant:normal;font-weight:bold;font-stretch:normal;font-size:10.24021053px;line-height:1.25;font-family:sans-serif;-inkscape-font-specification:'sans-serif Bold';letter-spacing:0px;word-spacing:0px;fill:#ffffff;fill-opacity:1;stroke:none;stroke-width:0.54858279"
       d="M 66.641988,4.9876587 63.926932,12.432812 H 61.776888 L 59.061832,4.9876587 h 2.015042 l 1.800037,5.2301073 1.800037,-5.2301073 z" />
    <path
       inkscape:connector-curvature="0"
       id="path1606"
       style="font-style:normal;font-variant:normal;font-weight:bold;font-stretch:normal;font-size:10.24021053px;line-height:1.25;font-family:sans-serif;-inkscape-font-specification:'sans-serif Bold';letter-spacing:0px;word-spacing:0px;fill:#ffffff;fill-opacity:1;stroke:none;stroke-width:0.54858279"
       d="M 73.09712,12.432812 H 67.712009 V 4.9876587 h 5.385111 v 1.4400296 h -3.475072 v 1.2850264 h 3.225067 v 1.4400296 h -3.225067 v 1.8400377 h 3.475072 z" />
    <path
       inkscape:connector-curvature="0"
       id="path1608"
       style="font-style:normal;font-variant:normal;font-weight:bold;font-stretch:normal;font-size:10.24021053px;line-height:1.25;font-family:sans-serif;-inkscape-font-specification:'sans-serif Bold';letter-spacing:0px;word-spacing:0px;fill:#ffffff;fill-opacity:1;stroke:none;stroke-width:0.54858279"
       d="M 78.127224,9.8427585 H 74.312146 V 8.4027289 h 3.815078 z" />
    <path
       inkscape:connector-curvature="0"
       id="path1610"
       style="font-style:normal;font-variant:normal;font-weight:bold;font-stretch:normal;font-size:10.24021053px;line-height:1.25;font-family:sans-serif;-inkscape-font-specification:'sans-serif Bold';letter-spacing:0px;word-spacing:0px;fill:#ffffff;fill-opacity:1;stroke:none;stroke-width:0.54858279"
       d="m 83.512339,10.247767 q 0,0.49001 -0.175004,0.920019 -0.175003,0.425008 -0.52001,0.720015 -0.365008,0.315006 -0.880019,0.49001 -0.51501,0.170003 -1.275026,0.170003 -0.51501,0 -0.97002,-0.04 -0.455009,-0.035 -0.800016,-0.105002 V 10.89278 h 0.180004 q 0.240004,0.09 0.50001,0.170004 0.260005,0.075 0.665014,0.075 0.52501,0 0.805016,-0.140003 0.285006,-0.140003 0.405008,-0.390008 0.115003,-0.245005 0.130003,-0.535011 0.015,-0.2950058 0.015,-0.7500152 v -2.96506 H 79.887264 V 4.9876587 h 3.625075 z" />
    <path
       inkscape:connector-curvature="0"
       id="path1612"
       style="font-style:normal;font-variant:normal;font-weight:bold;font-stretch:normal;font-size:10.24021053px;line-height:1.25;font-family:sans-serif;-inkscape-font-specification:'sans-serif Bold';letter-spacing:0px;word-spacing:0px;fill:#ffffff;fill-opacity:1;stroke:none;stroke-width:0.54858279"
       d="m 92.192515,12.432812 h -1.985041 l -0.51501,-1.505031 h -2.760057 l -0.51501,1.505031 h -1.93504 l 2.750056,-7.4451533 h 2.210046 z M 89.227454,9.5627527 88.312435,6.8926978 87.397417,9.5627527 Z" />
    <path
       inkscape:connector-curvature="0"
       id="path1614"
       style="font-style:normal;font-variant:normal;font-weight:bold;font-stretch:normal;font-size:10.24021053px;line-height:1.25;font-family:sans-serif;-inkscape-font-specification:'sans-serif Bold';letter-spacing:0px;word-spacing:0px;fill:#ffffff;fill-opacity:1;stroke:none;stroke-width:0.54858279"
       d="m 99.417659,7.337707 q 0,0.5000103 -0.175003,0.9800201 -0.175004,0.4750098 -0.50001,0.8000165 -0.44501,0.440009 -0.995021,0.6650137 -0.545011,0.2250047 -1.360028,0.2250047 h -1.195024 v 2.42505 h -1.92004 V 4.9876587 h 3.160065 q 0.710015,0 1.195025,0.1250025 0.49001,0.1200025 0.865017,0.3650075 0.45001,0.2950061 0.685015,0.7550156 0.240004,0.4600094 0.240004,1.1050227 z m -1.98504,0.045001 q 0,-0.3150065 -0.170004,-0.5400111 -0.170003,-0.2300047 -0.395008,-0.3200066 -0.300006,-0.1200024 -0.585012,-0.1300026 -0.285006,-0.015 -0.760016,-0.015 h -0.330006 v 2.2300459 h 0.550011 q 0.49001,0 0.805016,-0.060001 0.320007,-0.060001 0.535011,-0.240005 0.185004,-0.1600033 0.265006,-0.3800078 0.085,-0.2250046 0.085,-0.5450112 z" />
    <path
       inkscape:connector-curvature="0"
       id="path1616"
       style="font-style:normal;font-variant:normal;font-weight:bold;font-stretch:normal;font-size:10.24021053px;line-height:1.25;font-family:sans-serif;-inkscape-font-specification:'sans-serif Bold';letter-spacing:0px;word-spacing:0px;fill:#ffffff;fill-opacity:1;stroke:none;stroke-width:0.54858279"
       d="m 107.65283,12.432812 h -1.98504 l -0.51501,-1.505031 h -2.76005 l -0.51501,1.505031 h -1.935044 l 2.750054,-7.4451533 h 2.21005 z m -2.96506,-2.8700593 -0.91501,-2.6700549 -0.91502,2.6700549 z" />
    <path
       inkscape:connector-curvature="0"
       id="path1618"
       style="font-style:normal;font-variant:normal;font-weight:bold;font-stretch:normal;font-size:10.24021053px;line-height:1.25;font-family:sans-serif;-inkscape-font-specification:'sans-serif Bold';letter-spacing:0px;word-spacing:0px;fill:#ffffff;fill-opacity:1;stroke:none;stroke-width:0.54858279"
       d="m 115.50299,12.432812 h -1.85004 l -3.16006,-5.1101053 v 5.1101053 h -1.76004 V 4.9876587 h 2.29505 l 2.71506,4.2650877 V 4.9876587 h 1.76003 z" />
  </g>
</svg>
