<?xml version="1.0" encoding="UTF-8" standalone="no"?>
<svg
   xmlns:dc="http://purl.org/dc/elements/1.1/"
   xmlns:cc="http://creativecommons.org/ns#"
   xmlns:rdf="http://www.w3.org/1999/02/22-rdf-syntax-ns#"
   xmlns:svg="http://www.w3.org/2000/svg"
   xmlns="http://www.w3.org/2000/svg"
   xmlns:sodipodi="http://sodipodi.sourceforge.net/DTD/sodipodi-0.dtd"
   xmlns:inkscape="http://www.inkscape.org/namespaces/inkscape"
   width="83px"
   height="18px"
   viewBox="0 0 83 18"
   version="1.1"
   id="svg12"
   sodipodi:docname="SUÇA.svg"
   inkscape:version="0.92.4 (5da689c313, 2019-01-14)">
  <metadata
     id="metadata16">
    <rdf:RDF>
      <cc:Work
         rdf:about="">
        <dc:format>image/svg+xml</dc:format>
        <dc:type
           rdf:resource="http://purl.org/dc/dcmitype/StillImage" />
        <dc:title>system</dc:title>
      </cc:Work>
    </rdf:RDF>
  </metadata>
  <sodipodi:namedview
     pagecolor="#ffffff"
     bordercolor="#666666"
     borderopacity="1"
     objecttolerance="10"
     gridtolerance="10"
     guidetolerance="10"
     inkscape:pageopacity="0"
     inkscape:pageshadow="2"
     inkscape:window-width="1920"
     inkscape:window-height="1018"
     id="namedview14"
     showgrid="false"
     inkscape:zoom="4.5783133"
     inkscape:cx="6.6421901"
     inkscape:cy="9.0000001"
     inkscape:window-x="-8"
     inkscape:window-y="-8"
     inkscape:window-maximized="1"
     inkscape:current-layer="svg12" />
  <!-- Generator: Sketch 45 (43475) - http://www.bohemiancoding.com/sketch -->
  <title
     id="title2">system</title>
  <desc
     id="desc4">Created with Sketch.</desc>
  <defs
     id="defs6" />
  <g
     id="g1141">
    <g
       aria-label="PSIKYO"
       style="font-style:normal;font-variant:normal;font-weight:bold;font-stretch:normal;font-size:13.3997345px;line-height:1.25;font-family:sans-serif;-inkscape-font-specification:'sans-serif Bold';letter-spacing:0px;word-spacing:0px;fill:#ffffff;fill-opacity:1;stroke:none;stroke-width:0.50249004"
       id="text1137">
      <path
         d="m 23.620369,6.9468215 q 0,0.6542839 -0.228999,1.2823965 -0.228999,0.6215697 -0.654284,1.0468542 -0.582313,0.5757699 -1.302025,0.8701978 -0.713169,0.294428 -1.779652,0.294428 H 18.09167 v 3.173277 H 15.57922 V 3.8716871 h 4.135074 q 0.929083,0 1.563739,0.163571 0.641198,0.1570282 1.131911,0.4776273 0.588856,0.3860275 0.896369,0.9879687 0.314056,0.6019412 0.314056,1.4459674 z m -2.597507,0.058886 q 0,-0.4121989 -0.222456,-0.7066267 Q 20.577949,5.9981098 20.283521,5.8803387 19.890951,5.7233106 19.518009,5.7102249 19.145067,5.6905964 18.523498,5.6905964 H 18.09167 v 2.9181063 h 0.719713 q 0.641198,0 1.053397,-0.078514 0.418741,-0.078514 0.700083,-0.3140563 0.242085,-0.2093708 0.346771,-0.4972558 0.111228,-0.2944277 0.111228,-0.7131691 z"
         style="fill:#ffffff;stroke-width:0.50249004"
         id="path1143"
         inkscape:connector-curvature="0" />
      <path
         d="m 33.192543,10.551926 q 0,1.439424 -1.223511,2.342336 -1.216968,0.896369 -3.310677,0.896369 -1.210425,0 -2.113337,-0.209371 -0.896369,-0.215913 -1.681509,-0.543055 v -2.335794 h 0.274799 q 0.778598,0.62157 1.740395,0.955255 0.96834,0.333684 1.858166,0.333684 0.229,0 0.601942,-0.03926 0.372941,-0.03926 0.608484,-0.130856 0.287884,-0.117771 0.471084,-0.294428 0.189742,-0.176657 0.189742,-0.523427 0,-0.320599 -0.274799,-0.549599 Q 30.065066,10.218241 29.541639,10.093927 28.99204,9.9630703 28.377013,9.8518421 27.768529,9.734071 27.232016,9.5574143 26.001963,9.1583011 25.458907,8.4778459 24.922394,7.7908478 24.922394,6.7767077 q 0,-1.3609105 1.216968,-2.2180225 1.223511,-0.8636547 3.140563,-0.8636547 0.961797,0 1.897423,0.1897423 0.942169,0.1831995 1.629167,0.4645416 V 6.5935082 H 32.538259 Q 31.949403,6.1224238 31.092291,5.8083675 30.241722,5.4877684 29.351896,5.4877684 q -0.314056,0 -0.628112,0.0458 -0.307514,0.039257 -0.595399,0.1570281 -0.25517,0.098143 -0.43837,0.3009706 -0.183199,0.1962852 -0.183199,0.4514559 0,0.3860275 0.294427,0.5953984 0.294428,0.202828 1.112283,0.3729418 0.536513,0.1112283 1.027226,0.2159137 0.497256,0.1046854 1.066483,0.2878849 1.118825,0.366399 1.648795,1.0010544 0.536513,0.6281125 0.536513,1.6357098 z"
         style="fill:#ffffff;stroke-width:0.50249004"
         id="path1145"
         inkscape:connector-curvature="0" />
      <path
         d="m 40.186839,13.613975 h -5.705356 v -1.72731 h 1.596453 V 5.5989967 H 34.481483 V 3.8716871 h 5.705356 v 1.7273096 h -1.596453 v 6.2876683 h 1.596453 z"
         style="fill:#ffffff;stroke-width:0.50249004"
         id="path1147"
         inkscape:connector-curvature="0" />
      <path
         d="M 51.34238,13.613975 H 48.260703 L 45.349139,9.7144425 44.760284,10.427612 v 3.186363 H 42.247833 V 3.8716871 h 2.512451 v 4.4098736 l 3.48079,-4.4098736 h 2.911563 l -3.807932,4.5080162 z"
         style="fill:#ffffff;stroke-width:0.50249004"
         id="path1149"
         inkscape:connector-curvature="0" />
      <path
         d="M 61.156637,3.8716871 57.564619,9.8452992 V 13.613975 H 55.052168 V 9.9630703 L 51.401264,3.8716871 h 2.852678 l 2.106794,3.7686754 2.034823,-3.7686754 z"
         style="fill:#ffffff;stroke-width:0.50249004"
         id="path1151"
         inkscape:connector-curvature="0" />
      <path
         d="m 71.926149,8.7461023 q 0,2.3292507 -1.334739,3.7032467 -1.334739,1.367454 -3.690161,1.367454 -2.34888,0 -3.683619,-1.367454 -1.334739,-1.373996 -1.334739,-3.7032467 0,-2.3488793 1.334739,-3.7097898 1.334739,-1.3674534 3.683619,-1.3674534 2.342336,0 3.683618,1.3674534 1.341282,1.3609105 1.341282,3.7097898 z m -3.330305,2.4666507 q 0.366399,-0.444913 0.543056,-1.046855 0.176656,-0.6084837 0.176656,-1.4263386 0,-0.8767404 -0.202828,-1.4917673 Q 68.9099,6.6327652 68.582758,6.2532806 68.249074,5.8607102 67.810703,5.6840536 67.378876,5.5073969 66.907792,5.5073969 q -0.477628,0 -0.902912,0.1701138 -0.418742,0.1701138 -0.772055,0.5626842 -0.327142,0.366399 -0.536513,1.0141401 -0.202828,0.6411982 -0.202828,1.4917673 0,0.8701976 0.196285,1.4852247 0.202828,0.608484 0.52997,0.994511 0.327142,0.386028 0.765512,0.569227 0.43837,0.1832 0.922541,0.1832 0.48417,0 0.92254,-0.1832 0.43837,-0.189742 0.765512,-0.582312 z"
         style="fill:#ffffff;stroke-width:0.50249004"
         id="path1153"
         inkscape:connector-curvature="0" />
    </g>
  </g>
</svg>
