<?xml version="1.0" encoding="UTF-8" standalone="no"?>
<svg
   xmlns:dc="http://purl.org/dc/elements/1.1/"
   xmlns:cc="http://creativecommons.org/ns#"
   xmlns:rdf="http://www.w3.org/1999/02/22-rdf-syntax-ns#"
   xmlns:svg="http://www.w3.org/2000/svg"
   xmlns="http://www.w3.org/2000/svg"
   xmlns:sodipodi="http://sodipodi.sourceforge.net/DTD/sodipodi-0.dtd"
   xmlns:inkscape="http://www.inkscape.org/namespaces/inkscape"
   width="179"
   height="18"
   viewBox="0 0 179 18"
   version="1.1"
   id="svg12"
   sodipodi:docname="system.svg"
   inkscape:version="0.92.4 (5da689c313, 2019-01-14)">
  <metadata
     id="metadata16">
    <rdf:RDF>
      <cc:Work
         rdf:about="">
        <dc:format>image/svg+xml</dc:format>
        <dc:type
           rdf:resource="http://purl.org/dc/dcmitype/StillImage" />
        <dc:title>system</dc:title>
      </cc:Work>
    </rdf:RDF>
  </metadata>
  <sodipodi:namedview
     pagecolor="#ffffff"
     bordercolor="#666666"
     borderopacity="1"
     objecttolerance="10"
     gridtolerance="10"
     guidetolerance="10"
     inkscape:pageopacity="0"
     inkscape:pageshadow="2"
     inkscape:window-width="1920"
     inkscape:window-height="1018"
     id="namedview14"
     showgrid="false"
     inkscape:zoom="3.04"
     inkscape:cx="77.676811"
     inkscape:cy="9"
     inkscape:window-x="-8"
     inkscape:window-y="-8"
     inkscape:window-maximized="1"
     inkscape:current-layer="svg12" />
  <!-- Generator: Sketch 45 (43475) - http://www.bohemiancoding.com/sketch -->
  <title
     id="title2">system</title>
  <desc
     id="desc4">Created with Sketch.</desc>
  <defs
     id="defs6" />
  <g
     id="text1292"
     style="font-style:normal;font-variant:normal;font-weight:bold;font-stretch:normal;font-size:16.83312607px;line-height:1.25;font-family:sans-serif;-inkscape-font-specification:'sans-serif Bold';letter-spacing:0px;word-spacing:0px;fill:#000000;fill-opacity:1;stroke:none;stroke-width:0.70138025"
     aria-label="NINTENDO HACKS">
    <path
       inkscape:connector-curvature="0"
       id="path1306"
       style="fill:#ffffff"
       d="M 17.302864,14.819011 H 14.261723 L 9.0671256,6.4188863 V 14.819011 H 6.1739321 V 2.5804733 H 9.9465907 L 14.409671,9.591536 V 2.5804733 h 2.893193 z" />
    <path
       inkscape:connector-curvature="0"
       id="path1308"
       style="fill:#ffffff"
       d="m 27.059173,14.819011 h -7.16723 v -2.169895 h 2.00551 V 4.7503684 h -2.00551 V 2.5804733 h 7.16723 v 2.1698951 h -2.005509 v 7.8987476 h 2.005509 z" />
    <path
       inkscape:connector-curvature="0"
       id="path1310"
       style="fill:#ffffff"
       d="M 40.777184,14.819011 H 37.736043 L 32.541445,6.4188863 V 14.819011 H 29.648252 V 2.5804733 H 33.42091 L 37.88399,9.591536 V 2.5804733 h 2.893194 z" />
    <path
       inkscape:connector-curvature="0"
       id="path1312"
       style="fill:#ffffff"
       d="M 53.492443,4.9476316 H 49.670469 V 14.819011 H 46.514258 V 4.9476316 H 42.692283 V 2.5804733 h 10.80016 z" />
    <path
       inkscape:connector-curvature="0"
       id="path1314"
       style="fill:#ffffff"
       d="M 64.243285,14.819011 H 55.391099 V 2.5804733 h 8.852186 V 4.9476316 H 58.530872 V 7.0599917 H 63.83232 V 9.42715 h -5.301448 v 3.024702 h 5.712413 z" />
    <path
       inkscape:connector-curvature="0"
       id="path1316"
       style="fill:#ffffff"
       d="M 78.027054,14.819011 H 74.985913 L 69.791315,6.4188863 V 14.819011 H 66.898122 V 2.5804733 H 70.67078 L 75.13386,9.591536 V 2.5804733 h 2.893194 z" />
    <path
       inkscape:connector-curvature="0"
       id="path1318"
       style="fill:#ffffff"
       d="m 92.731376,8.712071 q 0,1.709614 -0.780833,3.065799 -0.780834,1.347965 -1.972632,2.071263 -0.895904,0.542474 -1.964413,0.756176 -1.068509,0.213702 -2.531544,0.213702 H 81.166821 V 2.5804733 h 4.438422 q 1.495913,0 2.580861,0.2547983 1.084947,0.246579 1.824684,0.7068598 1.265772,0.7726141 1.989071,2.0877021 0.731517,1.3068687 0.731517,3.0822375 z M 89.468314,8.687413 q 0,-1.2082371 -0.443842,-2.0630443 Q 88.588849,5.7613423 87.63541,5.2764036 87.150472,5.0380439 86.640875,4.9558509 86.139498,4.8654386 85.120305,4.8654386 h -0.797272 v 7.6603874 h 0.797272 q 1.126044,0 1.652079,-0.09863 0.526035,-0.10685 1.027412,-0.378087 0.863027,-0.493158 1.265773,-1.315088 0.402745,-0.8301496 0.402745,-2.0466059 z" />
    <path
       inkscape:connector-curvature="0"
       id="path1320"
       style="fill:#ffffff"
       d="m 107.04118,8.7038517 q 0,2.9260703 -1.67674,4.6521233 -1.67674,1.717834 -4.63569,1.717834 -2.950724,0 -4.627462,-1.717834 -1.676737,-1.726053 -1.676737,-4.6521233 0,-2.9507287 1.676737,-4.6603431 1.676738,-1.7178336 4.627462,-1.7178336 2.94251,0 4.62747,1.7178336 1.68496,1.7096144 1.68496,4.6603431 z m -4.18363,3.0986763 q 0.46028,-0.558913 0.6822,-1.315088 0.22193,-0.7643952 0.22193,-1.7918076 0,-1.1013862 -0.2548,-1.8740004 -0.2548,-0.7726142 -0.66577,-1.2493336 -0.41918,-0.493158 -0.96987,-0.7150791 -0.54248,-0.2219211 -1.13427,-0.2219211 -0.60001,0 -1.13426,0.2137018 -0.526035,0.2137018 -0.969877,0.7068598 -0.410965,0.4602808 -0.673983,1.2739915 -0.254798,0.8054914 -0.254798,1.8740004 0,1.0931668 0.246579,1.8657813 0.254798,0.764395 0.665763,1.249333 0.410965,0.484939 0.961658,0.715079 0.550698,0.230141 1.158918,0.230141 0.60823,0 1.15892,-0.230141 0.5507,-0.238359 0.96166,-0.731517 z" />
    <path
       inkscape:connector-curvature="0"
       id="path1322"
       style="fill:#ff0000;stroke-width:0.70138025"
       d="m 126.16749,14.819011 h -3.15621 V 9.42715 h -4.66035 v 5.391861 h -3.15621 V 2.5804733 h 3.15621 v 4.4795184 h 4.66035 V 2.5804733 h 3.15621 z" />
    <path
       inkscape:connector-curvature="0"
       id="path1324"
       style="fill:#ff0000;stroke-width:0.70138025"
       d="m 140.6088,14.819011 h -3.26306 l -0.84659,-2.47401 h -4.53705 l -0.84659,2.47401 h -3.18087 l 4.52062,-12.2385377 h 3.63293 z m -4.87404,-4.717878 -1.50413,-4.3891065 -1.50414,4.3891065 z" />
    <path
       inkscape:connector-curvature="0"
       id="path1326"
       style="fill:#ff0000;stroke-width:0.70138025"
       d="m 147.91576,15.05737 q -1.36441,0 -2.52333,-0.402745 -1.1507,-0.402746 -1.98085,-1.200018 -0.83015,-0.797272 -1.29043,-1.989071 -0.45206,-1.191798 -0.45206,-2.753465 0,-1.4548161 0.43562,-2.6383953 0.43562,-1.1835792 1.26577,-2.0301671 0.79728,-0.8137106 1.97264,-1.2575528 1.18357,-0.4438422 2.58086,-0.4438422 0.77261,0 1.38906,0.090412 0.62466,0.082193 1.1507,0.2219211 0.55069,0.1561667 0.99453,0.3534299 0.45207,0.1890439 0.78906,0.3534299 V 6.328474 h -0.36165 q -0.23014,-0.1972632 -0.58357,-0.4685001 -0.34521,-0.2712369 -0.78905,-0.5342545 -0.45207,-0.2630176 -0.9781,-0.4438422 -0.52604,-0.1808246 -1.12605,-0.1808246 -0.66576,0 -1.26577,0.2137018 -0.60001,0.2054825 -1.1096,0.6904212 -0.48494,0.4685001 -0.78906,1.2411143 -0.29589,0.7726142 -0.29589,1.8740004 0,1.1507019 0.32055,1.9233157 0.32877,0.772615 0.82193,1.216457 0.50138,0.452061 1.11783,0.649324 0.61644,0.189044 1.21645,0.189044 0.57535,0 1.13427,-0.172605 0.56713,-0.172605 1.04385,-0.4685 0.40274,-0.23836 0.74795,-0.509597 0.34521,-0.271236 0.56714,-0.4685 h 0.32877 V 14.0053 q -0.46028,0.205483 -0.87947,0.386307 -0.41918,0.180825 -0.87946,0.312334 -0.60001,0.172605 -1.12605,0.263017 -0.52603,0.09041 -1.44659,0.09041 z" />
    <path
       inkscape:connector-curvature="0"
       id="path1328"
       style="fill:#ff0000;stroke-width:0.70138025"
       d="m 166.00644,14.819011 h -3.87129 l -3.65759,-4.898703 -0.73973,0.895904 v 4.002799 h -3.15621 V 2.5804733 h 3.15621 v 5.5398081 l 4.37267,-5.5398081 h 3.65758 l -4.78363,5.6630976 z" />
    <path
       inkscape:connector-curvature="0"
       id="path1330"
       style="fill:#ff0000;stroke-width:0.70138025"
       d="m 177.3655,10.972378 q 0,1.808246 -1.53701,2.94251 -1.52879,1.126044 -4.15896,1.126044 -1.52057,0 -2.65484,-0.263018 -1.12604,-0.271237 -2.11236,-0.682202 v -2.93429 h 0.34521 q 0.9781,0.780834 2.18634,1.200018 1.21645,0.419184 2.33428,0.419184 0.28767,0 0.75617,-0.04931 0.46851,-0.04932 0.7644,-0.164386 0.36165,-0.147948 0.59179,-0.369869 0.23836,-0.221921 0.23836,-0.657544 0,-0.402746 -0.34521,-0.690421 -0.33699,-0.295895 -0.99454,-0.452062 -0.69042,-0.164386 -1.46303,-0.304114 -0.7644,-0.1479471 -1.43838,-0.3698682 -1.54523,-0.5013773 -2.22743,-1.3561844 -0.67398,-0.8630265 -0.67398,-2.137018 0,-1.7096144 1.52879,-2.7863426 1.53701,-1.0849476 3.94526,-1.0849476 1.20824,0 2.3836,0.2383597 1.18358,0.2301404 2.0466,0.5835703 V 5.999702 h -0.33699 q -0.73973,-0.5917896 -1.81646,-0.986316 -1.06851,-0.4027457 -2.18634,-0.4027457 -0.39452,0 -0.78905,0.057535 -0.38631,0.049316 -0.74796,0.1972632 -0.32055,0.1232895 -0.55069,0.3780878 -0.23014,0.246579 -0.23014,0.5671317 0,0.4849387 0.36987,0.7479563 0.36987,0.2547983 1.39728,0.4685001 0.67398,0.1397281 1.29043,0.2712369 0.62467,0.1315088 1.33975,0.3616492 1.4055,0.4602808 2.07126,1.2575529 0.67398,0.7890527 0.67398,2.0548246 z" />
  </g>
</svg>
