<?xml version="1.0" encoding="UTF-8" standalone="no"?>
<svg
   xmlns:dc="http://purl.org/dc/elements/1.1/"
   xmlns:cc="http://creativecommons.org/ns#"
   xmlns:rdf="http://www.w3.org/1999/02/22-rdf-syntax-ns#"
   xmlns:svg="http://www.w3.org/2000/svg"
   xmlns="http://www.w3.org/2000/svg"
   xmlns:sodipodi="http://sodipodi.sourceforge.net/DTD/sodipodi-0.dtd"
   xmlns:inkscape="http://www.inkscape.org/namespaces/inkscape"
   width="92"
   height="18"
   viewBox="0 0 92 18"
   version="1.1"
   id="svg12"
   sodipodi:docname="system.svg"
   inkscape:version="0.92.4 (5da689c313, 2019-01-14)">
  <metadata
     id="metadata16">
    <rdf:RDF>
      <cc:Work
         rdf:about="">
        <dc:format>image/svg+xml</dc:format>
        <dc:type
           rdf:resource="http://purl.org/dc/dcmitype/StillImage" />
        <dc:title>system</dc:title>
      </cc:Work>
    </rdf:RDF>
  </metadata>
  <sodipodi:namedview
     pagecolor="#ffffff"
     bordercolor="#666666"
     borderopacity="1"
     objecttolerance="10"
     gridtolerance="10"
     guidetolerance="10"
     inkscape:pageopacity="0"
     inkscape:pageshadow="2"
     inkscape:window-width="1920"
     inkscape:window-height="1018"
     id="namedview14"
     showgrid="false"
     inkscape:zoom="6.2295082"
     inkscape:cx="6.7941624"
     inkscape:cy="24.830264"
     inkscape:window-x="-8"
     inkscape:window-y="-8"
     inkscape:window-maximized="1"
     inkscape:current-layer="svg12" />
  <!-- Generator: Sketch 45 (43475) - http://www.bohemiancoding.com/sketch -->
  <title
     id="title2">system</title>
  <desc
     id="desc4">Created with Sketch.</desc>
  <defs
     id="defs6" />
  <g
     id="g4529">
    <g
       aria-label="AMIGA CD32"
       transform="scale(1.0235942,0.97694966)"
       style="font-style:normal;font-variant:normal;font-weight:bold;font-stretch:normal;font-size:11.79003906px;line-height:1.25;font-family:sans-serif;-inkscape-font-specification:'sans-serif Bold';letter-spacing:0px;word-spacing:0px;fill:#ffffff;fill-opacity:1;stroke:none;stroke-width:0.63160926"
       id="text4525">
      <path
         d="M 11.057534,13.606035 H 8.7720621 L 8.179106,11.873222 H 5.001322 L 4.408366,13.606035 H 2.1804631 L 5.3467333,5.0340781 H 7.8912632 Z M 7.6437185,10.3016 6.590214,7.2274399 5.5367095,10.3016 Z"
         style="fill:#ffffff;stroke-width:0.63160926"
         id="path4531"
         inkscape:connector-curvature="0" />
      <path
         d="M 21.287465,13.606035 H 19.088346 V 7.8664508 L 17.499454,11.591136 H 15.973888 L 14.384996,7.8664508 V 13.606035 H 12.301014 V 5.0340781 h 2.567558 l 1.928546,4.3003707 1.92279,-4.3003707 h 2.567557 z"
         style="fill:#ffffff;stroke-width:0.63160926"
         id="path4533"
         inkscape:connector-curvature="0" />
      <path
         d="m 28.103581,13.606035 h -5.019977 v -1.519809 h 1.404672 V 6.5538878 H 23.083604 V 5.0340781 h 5.019977 v 1.5198097 h -1.404672 v 5.5323382 h 1.404672 z"
         style="fill:#ffffff;stroke-width:0.63160926"
         id="path4535"
         inkscape:connector-curvature="0" />
      <path
         d="m 37.498769,13.116703 q -0.575686,0.224517 -1.525567,0.449034 -0.949881,0.218761 -1.894005,0.218761 -2.187605,0 -3.425329,-1.185912 -1.237724,-1.191669 -1.237724,-3.2871646 0,-1.9976287 1.249238,-3.218082 1.249237,-1.2262101 3.482897,-1.2262101 0.846258,0 1.611919,0.1554351 0.765662,0.1496782 1.704029,0.6044698 V 7.6361766 H 37.216683 Q 37.055491,7.5152826 36.744621,7.2965221 36.43375,7.0720048 36.145908,6.9165697 35.81201,6.7323503 35.362975,6.5999427 34.919698,6.467535 34.418851,6.467535 q -0.587199,0 -1.065018,0.1727057 -0.477819,0.1727056 -0.857771,0.5296306 -0.362682,0.3454113 -0.575686,0.8807988 -0.207247,0.5296307 -0.207247,1.2262102 0,1.4219427 0.754148,2.1760907 0.754148,0.754148 2.227903,0.754148 0.126651,0 0.276329,-0.0058 0.155435,-0.0058 0.282086,-0.01727 V 10.50309 H 33.543809 V 8.8854141 h 3.95496 z"
         style="fill:#ffffff;stroke-width:0.63160926"
         id="path4537"
         inkscape:connector-curvature="0" />
      <path
         d="m 47.394802,13.606035 h -2.285471 l -0.592956,-1.732813 h -3.177784 l -0.592956,1.732813 h -2.227903 l 3.16627,-8.5719569 h 2.54453 z M 43.980987,10.3016 42.927483,7.2274399 41.873978,10.3016 Z"
         style="fill:#ffffff;stroke-width:0.63160926"
         id="path4539"
         inkscape:connector-curvature="0" />
      <path
         d="m 56.542447,13.772984 q -0.955638,0 -1.767355,-0.282086 -0.805959,-0.282086 -1.387402,-0.840501 -0.581442,-0.558415 -0.903826,-1.393159 -0.316627,-0.834744 -0.316627,-1.928546 0,-1.0189634 0.305113,-1.8479505 0.305114,-0.8289871 0.886556,-1.4219432 0.558415,-0.5699286 1.381645,-0.8807988 0.828987,-0.3108702 1.807653,-0.3108702 0.541144,0 0.972908,0.063325 0.437521,0.057569 0.80596,0.1554351 0.385709,0.1093803 0.696579,0.2475448 0.316627,0.1324076 0.552658,0.2475447 V 7.659204 H 59.323008 Q 59.161816,7.5210395 58.914271,7.3310633 58.672483,7.1410871 58.361613,6.9568677 58.044986,6.7726483 57.676547,6.6459975 57.308109,6.5193467 56.887858,6.5193467 q -0.466305,0 -0.886556,0.1496782 -0.42025,0.1439214 -0.777175,0.4835759 -0.339654,0.3281407 -0.552658,0.8692851 -0.207247,0.5411443 -0.207247,1.3125629 0,0.8059602 0.224518,1.3471042 0.230274,0.541144 0.575685,0.852014 0.351168,0.316627 0.782932,0.454792 0.431764,0.132408 0.852015,0.132408 0.40298,0 0.794446,-0.120894 0.397223,-0.120894 0.73112,-0.328141 0.282086,-0.166949 0.523874,-0.356925 0.241788,-0.189976 0.397223,-0.328141 h 0.230274 v 2.049441 q -0.322383,0.143921 -0.615983,0.270572 -0.2936,0.126651 -0.615984,0.21876 -0.42025,0.120894 -0.788689,0.18422 -0.368438,0.06332 -1.013206,0.06332 z"
         style="fill:#ffffff;stroke-width:0.63160926"
         id="path4541"
         inkscape:connector-curvature="0" />
      <path
         d="m 69.311149,9.328692 q 0,1.197426 -0.546901,2.147307 -0.546901,0.944124 -1.381645,1.450727 -0.627497,0.379953 -1.375888,0.529631 -0.748392,0.149678 -1.773112,0.149678 H 61.211254 V 5.0340781 h 3.108702 q 1.047748,0 1.807653,0.1784625 0.759904,0.1727057 1.278021,0.4950896 0.886556,0.5411443 1.393159,1.4622411 0.51236,0.91534 0.51236,2.1588207 z M 67.025678,9.311421 q 0,-0.8462577 -0.31087,-1.4449706 Q 66.409694,7.261981 65.741899,6.9223266 65.402245,6.7553778 65.04532,6.6978092 64.694152,6.6344838 63.980302,6.6344838 h -0.558415 v 5.3653892 h 0.558415 q 0.788689,0 1.157127,-0.06908 0.368439,-0.07484 0.719607,-0.264815 0.60447,-0.345411 0.886556,-0.921097 0.282086,-0.581442 0.282086,-1.4334566 z"
         style="fill:#ffffff;stroke-width:0.63160926"
         id="path4543"
         inkscape:connector-curvature="0" />
      <path
         d="m 76.858388,9.5877504 q 0.282086,0.2417879 0.449035,0.5641716 0.166949,0.322384 0.166949,0.857772 0,0.604469 -0.241788,1.128343 -0.236031,0.523874 -0.731121,0.89807 -0.483576,0.362681 -1.139857,0.558415 -0.650525,0.189976 -1.583135,0.189976 -1.065018,0 -1.83068,-0.166949 -0.759905,-0.166949 -1.237724,-0.374196 v -1.882491 h 0.224517 q 0.49509,0.299356 1.180156,0.518117 0.690822,0.21876 1.260751,0.21876 0.333897,0 0.725364,-0.05181 0.391466,-0.05757 0.662038,-0.241788 0.213004,-0.143922 0.339654,-0.345412 0.126651,-0.207246 0.126651,-0.592956 0,-0.374195 -0.172705,-0.575685 -0.172706,-0.207247 -0.454792,-0.2935999 -0.282086,-0.09211 -0.679309,-0.097867 -0.397223,-0.011514 -0.736877,-0.011514 H 72.713453 V 8.3557835 h 0.489332 q 0.449035,0 0.794446,-0.028784 0.345412,-0.028784 0.587199,-0.1324077 0.253302,-0.1093802 0.379953,-0.2878427 0.126651,-0.1842194 0.126651,-0.5353875 0,-0.2590585 -0.132408,-0.4144936 -0.132408,-0.1611919 -0.333898,-0.2533016 -0.224517,-0.1036234 -0.52963,-0.1381645 -0.305114,-0.034541 -0.523874,-0.034541 -0.541144,0 -1.174398,0.1899762 -0.633254,0.1842194 -1.226211,0.5353876 H 70.957612 V 5.39676 q 0.472062,-0.1899762 1.283778,-0.3626819 0.811717,-0.1784625 1.646461,-0.1784625 0.811717,0 1.421943,0.1439214 0.610227,0.1381645 1.00745,0.3741956 0.472062,0.2820859 0.702336,0.6850657 0.230274,0.4029799 0.230274,0.9441242 0,0.7138501 -0.443278,1.2780218 -0.443277,0.558415 -1.168641,0.7138501 v 0.080596 q 0.2936,0.040298 0.62174,0.161192 0.328141,0.1208939 0.598713,0.351168 z"
         style="fill:#ffffff;stroke-width:0.63160926"
         id="path4545"
         inkscape:connector-curvature="0" />
      <path
         d="m 86.08087,13.606035 h -6.729764 v -1.416186 q 0.771419,-0.558415 1.542838,-1.185912 0.777175,-0.627497 1.24348,-1.082289 0.69658,-0.673552 0.990179,-1.1743984 0.2936,-0.5008464 0.2936,-0.9901791 0,-0.5871992 -0.379953,-0.9038262 -0.374195,-0.3223839 -1.082288,-0.3223839 -0.529631,0 -1.11683,0.2187605 -0.581443,0.2187605 -1.082289,0.558415 H 79.575624 V 5.4025168 q 0.408736,-0.1784625 1.203182,-0.356925 0.800203,-0.1784625 1.600406,-0.1784625 1.61192,0 2.458177,0.6793089 0.846258,0.6735521 0.846258,1.9112759 0,0.8117165 -0.408737,1.5428371 -0.40298,0.7311206 -1.237724,1.5082958 -0.523873,0.483576 -1.053504,0.892313 -0.529631,0.40298 -0.754148,0.564172 h 3.851336 z"
         style="fill:#ffffff;stroke-width:0.63160926"
         id="path4547"
         inkscape:connector-curvature="0" />
    </g>
  </g>
</svg>
