<?xml version="1.0" encoding="UTF-8" standalone="no"?>
<svg
   xmlns:dc="http://purl.org/dc/elements/1.1/"
   xmlns:cc="http://creativecommons.org/ns#"
   xmlns:rdf="http://www.w3.org/1999/02/22-rdf-syntax-ns#"
   xmlns:svg="http://www.w3.org/2000/svg"
   xmlns="http://www.w3.org/2000/svg"
   xmlns:sodipodi="http://sodipodi.sourceforge.net/DTD/sodipodi-0.dtd"
   xmlns:inkscape="http://www.inkscape.org/namespaces/inkscape"
   width="92"
   height="18"
   viewBox="0 0 92 18"
   version="1.1"
   id="svg12"
   sodipodi:docname="system.svg"
   inkscape:version="0.92.4 (5da689c313, 2019-01-14)">
  <metadata
     id="metadata16">
    <rdf:RDF>
      <cc:Work
         rdf:about="">
        <dc:format>image/svg+xml</dc:format>
        <dc:type
           rdf:resource="http://purl.org/dc/dcmitype/StillImage" />
        <dc:title>system</dc:title>
      </cc:Work>
    </rdf:RDF>
  </metadata>
  <sodipodi:namedview
     pagecolor="#ffffff"
     bordercolor="#666666"
     borderopacity="1"
     objecttolerance="10"
     gridtolerance="10"
     guidetolerance="10"
     inkscape:pageopacity="0"
     inkscape:pageshadow="2"
     inkscape:window-width="1920"
     inkscape:window-height="1018"
     id="namedview14"
     showgrid="false"
     inkscape:zoom="6.2295082"
     inkscape:cx="63.460526"
     inkscape:cy="11.407895"
     inkscape:window-x="-8"
     inkscape:window-y="-8"
     inkscape:window-maximized="1"
     inkscape:current-layer="svg12" />
  <!-- Generator: Sketch 45 (43475) - http://www.bohemiancoding.com/sketch -->
  <title
     id="title2">system</title>
  <desc
     id="desc4">Created with Sketch.</desc>
  <defs
     id="defs6" />
  <g
     id="text1062"
     style="font-style:normal;font-variant:normal;font-weight:normal;font-stretch:normal;font-size:14.02817345px;line-height:1.25;font-family:sans-serif;-inkscape-font-specification:sans-serif;letter-spacing:0px;word-spacing:0px;fill:#ffffff;fill-opacity:1;stroke:none;stroke-width:0.6575706"
     aria-label="NINTENDO DS">
    <path
       inkscape:connector-curvature="0"
       id="path1069"
       style="font-style:normal;font-variant:normal;font-weight:bold;font-stretch:normal;font-size:10.52112961px;font-family:sans-serif;-inkscape-font-specification:'sans-serif Bold';fill:#ffffff;stroke-width:0.6575706"
       d="m 14.219185,12.551353 h -1.90079 L 9.0716405,7.3010632 V 12.551353 H 7.2633214 V 4.901958 H 9.6213285 L 12.410866,9.2840495 V 4.901958 h 1.808319 z" />
    <path
       inkscape:connector-curvature="0"
       id="path1071"
       style="font-style:normal;font-variant:normal;font-weight:bold;font-stretch:normal;font-size:10.52112961px;font-family:sans-serif;-inkscape-font-specification:'sans-serif Bold';fill:#ffffff;stroke-width:0.6575706"
       d="m 20.317126,12.551353 h -4.4797 V 11.195114 H 17.09092 V 6.2581973 H 15.837426 V 4.901958 h 4.4797 v 1.3562393 h -1.253494 v 4.9369167 h 1.253494 z" />
    <path
       inkscape:connector-curvature="0"
       id="path1073"
       style="font-style:normal;font-variant:normal;font-weight:bold;font-stretch:normal;font-size:10.52112961px;font-family:sans-serif;-inkscape-font-specification:'sans-serif Bold';fill:#ffffff;stroke-width:0.6575706"
       d="M 28.89123,12.551353 H 26.99044 L 23.743685,7.3010632 V 12.551353 H 21.935366 V 4.901958 h 2.358007 l 2.789538,4.3820915 V 4.901958 h 1.808319 z" />
    <path
       inkscape:connector-curvature="0"
       id="path1075"
       style="font-style:normal;font-variant:normal;font-weight:bold;font-stretch:normal;font-size:10.52112961px;font-family:sans-serif;-inkscape-font-specification:'sans-serif Bold';fill:#ffffff;stroke-width:0.6575706"
       d="M 36.838587,6.3814918 H 34.449756 V 12.551353 H 32.477044 V 6.3814918 H 30.088213 V 4.901958 h 6.750374 z" />
    <path
       inkscape:connector-curvature="0"
       id="path1077"
       style="font-style:normal;font-variant:normal;font-weight:bold;font-stretch:normal;font-size:10.52112961px;font-family:sans-serif;-inkscape-font-specification:'sans-serif Bold';fill:#ffffff;stroke-width:0.6575706"
       d="m 43.558136,12.551353 h -5.53284 V 4.901958 h 5.53284 v 1.4795338 h -3.570403 v 1.3202785 h 3.313539 V 9.1813041 H 39.987733 V 11.07182 h 3.570403 z" />
    <path
       inkscape:connector-curvature="0"
       id="path1079"
       style="font-style:normal;font-variant:normal;font-weight:bold;font-stretch:normal;font-size:10.52112961px;font-family:sans-serif;-inkscape-font-specification:'sans-serif Bold';fill:#ffffff;stroke-width:0.6575706"
       d="M 52.17334,12.551353 H 50.27255 L 47.025796,7.3010632 v 5.2502898 h -1.80832 V 4.901958 h 2.358007 l 2.789538,4.3820915 V 4.901958 h 1.808319 z" />
    <path
       inkscape:connector-curvature="0"
       id="path1081"
       style="font-style:normal;font-variant:normal;font-weight:bold;font-stretch:normal;font-size:10.52112961px;font-family:sans-serif;-inkscape-font-specification:'sans-serif Bold';fill:#ffffff;stroke-width:0.6575706"
       d="m 61.363916,8.7343616 q 0,1.0685522 -0.48804,1.9162014 -0.488041,0.842513 -1.232945,1.294593 -0.559963,0.339059 -1.227808,0.472628 -0.667845,0.133569 -1.582279,0.133569 H 54.135777 V 4.901958 h 2.774126 q 0.934983,0 1.613103,0.1592553 0.67812,0.1541181 1.140474,0.4418053 0.791139,0.4829034 1.243219,1.3048666 0.457217,0.816826 0.457217,1.9264764 z M 59.32442,8.7189498 q 0,-0.7551787 -0.277413,-1.2894549 -0.272275,-0.5394133 -0.868198,-0.8425123 -0.303099,-0.1489808 -0.62161,-0.2003535 -0.313373,-0.05651 -0.950395,-0.05651 h -0.498315 v 4.7879359 h 0.498315 q 0.703806,0 1.032591,-0.06165 0.328786,-0.06678 0.642159,-0.236315 0.539414,-0.308236 0.79114,-0.8219629 0.251726,-0.5188643 0.251726,-1.2791803 z" />
    <path
       inkscape:connector-curvature="0"
       id="path1083"
       style="font-style:normal;font-variant:normal;font-weight:bold;font-stretch:normal;font-size:10.52112961px;font-family:sans-serif;-inkscape-font-specification:'sans-serif Bold';fill:#ffffff;stroke-width:0.6575706"
       d="m 70.307905,8.7292243 q 0,1.8288687 -1.048003,2.9076947 -1.048004,1.07369 -2.897421,1.07369 -1.84428,0 -2.892283,-1.07369 -1.048003,-1.078826 -1.048003,-2.9076947 0,-1.84428 1.048003,-2.9128322 1.048003,-1.0736895 2.892283,-1.0736895 1.839143,0 2.892283,1.0736895 1.053141,1.0685522 1.053141,2.9128322 z m -2.614871,1.9367507 q 0.287687,-0.349334 0.426394,-0.821963 0.138706,-0.4777661 0.138706,-1.1199249 0,-0.6883943 -0.159256,-1.1712977 Q 67.939623,7.069886 67.68276,6.7719243 67.420759,6.4636881 67.076562,6.3249818 66.737502,6.1862755 66.367618,6.1862755 q -0.37502,0 -0.708943,0.1335691 -0.328785,0.133569 -0.606198,0.4418052 -0.256863,0.2876871 -0.421256,0.7962769 -0.159255,0.5034525 -0.159255,1.1712976 0,0.683257 0.154118,1.1661604 0.159255,0.4777663 0.416119,0.7808653 0.256863,0.303099 0.60106,0.446942 0.344197,0.143844 0.724355,0.143844 0.380158,0 0.724355,-0.143844 0.344198,-0.148981 0.601061,-0.457217 z" />
    <path
       inkscape:connector-curvature="0"
       id="path1085"
       style="font-style:normal;font-variant:normal;font-weight:bold;font-stretch:normal;font-size:10.52112961px;font-family:sans-serif;-inkscape-font-specification:'sans-serif Bold';fill:#ffffff;stroke-width:0.6575706"
       d="m 82.632215,8.7343616 q 0,1.0685522 -0.48804,1.9162014 -0.488041,0.842513 -1.232945,1.294593 -0.559963,0.339059 -1.227808,0.472628 -0.667845,0.133569 -1.582279,0.133569 H 75.404076 V 4.901958 h 2.774126 q 0.934983,0 1.613103,0.1592553 0.67812,0.1541181 1.140474,0.4418053 0.79114,0.4829034 1.243219,1.3048666 0.457217,0.816826 0.457217,1.9264764 z m -2.039496,-0.015412 q 0,-0.7551787 -0.277412,-1.2894549 -0.272276,-0.5394133 -0.868199,-0.8425123 -0.303099,-0.1489808 -0.62161,-0.2003535 -0.313373,-0.05651 -0.950395,-0.05651 h -0.498315 v 4.7879361 h 0.498315 q 0.703806,0 1.032591,-0.06165 0.328786,-0.06678 0.642159,-0.236315 0.539414,-0.308236 0.79114,-0.8219631 0.251726,-0.5188643 0.251726,-1.2791803 z" />
    <path
       inkscape:connector-curvature="0"
       id="path1087"
       style="font-style:normal;font-variant:normal;font-weight:bold;font-stretch:normal;font-size:10.52112961px;font-family:sans-serif;-inkscape-font-specification:'sans-serif Bold';fill:#ffffff;stroke-width:0.6575706"
       d="m 90.261063,10.147111 q 0,1.130199 -0.96067,1.839143 -0.955532,0.703806 -2.599459,0.703806 -0.950395,0 -1.659338,-0.164393 -0.703806,-0.16953 -1.320279,-0.426393 v -1.834006 h 0.215766 q 0.611335,0.488041 1.366514,0.750042 0.760316,0.262 1.458985,0.262 0.179804,0 0.472628,-0.03082 0.292825,-0.03082 0.477767,-0.102746 0.226039,-0.09247 0.369883,-0.231177 0.148981,-0.138706 0.148981,-0.410981 0,-0.251727 -0.215766,-0.431531 Q 87.805447,9.8851102 87.394466,9.787502 86.962935,9.6847566 86.480032,9.597423 86.002266,9.5049522 85.581009,9.3662459 84.615203,9.0528724 84.188809,8.5185963 83.767553,7.9791829 83.767553,7.182906 q 0,-1.0685523 0.955532,-1.7415347 0.96067,-0.6781196 2.46589,-0.6781196 0.755179,0 1.489808,0.1489808 0.739767,0.1438436 1.279181,0.3647462 V 7.0390624 H 89.747336 Q 89.284981,6.6691789 88.611999,6.42259 87.944154,6.1708637 87.245485,6.1708637 q -0.246589,0 -0.493178,0.035961 -0.241452,0.030824 -0.467492,0.1232945 -0.200353,0.077059 -0.344197,0.2363144 -0.143843,0.1541181 -0.143843,0.3544717 0,0.3030989 0.231177,0.4674916 0.231177,0.1592554 0.873336,0.2928244 0.421256,0.087334 0.806551,0.1695299 0.390433,0.082196 0.837375,0.2260399 0.878474,0.2876871 1.294592,0.7860024 0.421257,0.4931779 0.421257,1.2843175 z" />
  </g>
</svg>
