<?xml version="1.0" encoding="UTF-8" standalone="no"?>
<svg
   xmlns:dc="http://purl.org/dc/elements/1.1/"
   xmlns:cc="http://creativecommons.org/ns#"
   xmlns:rdf="http://www.w3.org/1999/02/22-rdf-syntax-ns#"
   xmlns:svg="http://www.w3.org/2000/svg"
   xmlns="http://www.w3.org/2000/svg"
   xmlns:sodipodi="http://sodipodi.sourceforge.net/DTD/sodipodi-0.dtd"
   xmlns:inkscape="http://www.inkscape.org/namespaces/inkscape"
   width="132px"
   height="18px"
   viewBox="0 0 132 18"
   version="1.1"
   id="svg12"
   sodipodi:docname="system.svg"
   inkscape:version="0.92.4 (5da689c313, 2019-01-14)">
  <metadata
     id="metadata16">
    <rdf:RDF>
      <cc:Work
         rdf:about="">
        <dc:format>image/svg+xml</dc:format>
        <dc:type
           rdf:resource="http://purl.org/dc/dcmitype/StillImage" />
      </cc:Work>
    </rdf:RDF>
  </metadata>
  <sodipodi:namedview
     pagecolor="#ffffff"
     bordercolor="#666666"
     borderopacity="1"
     objecttolerance="10"
     gridtolerance="10"
     guidetolerance="10"
     inkscape:pageopacity="0"
     inkscape:pageshadow="2"
     inkscape:window-width="1920"
     inkscape:window-height="1018"
     id="namedview14"
     showgrid="false"
     inkscape:zoom="2.8787879"
     inkscape:cx="66"
     inkscape:cy="9"
     inkscape:window-x="-8"
     inkscape:window-y="-8"
     inkscape:window-maximized="1"
     inkscape:current-layer="svg12" />
  <!-- Generator: Sketch 45 (43475) - http://www.bohemiancoding.com/sketch -->
  <title
     id="title2">system</title>
  <desc
     id="desc4">Created with Sketch.</desc>
  <defs
     id="defs6" />
  <path
     style="fill:#ffffff;fill-rule:evenodd;stroke:none;stroke-width:1"
     inkscape:connector-curvature="0"
     id="FINAL-BURN-ALPHA-Copy"
     d="M 15.112,5.936 H 10.87 v 2.086 h 3.276 V 9.758 H 10.87 V 14 H 9.078 V 4.2 h 6.034 z M 18.22,14 H 16.428 V 4.2 h 1.792 z m 9.898,0 h -1.47 L 22.168,7.28 V 14 H 20.376 V 4.2 h 1.764 l 4.186,6.328 V 4.2 h 1.792 z m 9.786,0 h -1.862 l -0.84,-2.366 H 31.94 L 31.1,14 h -1.862 l 3.486,-9.8 h 1.694 z M 34.586,9.898 33.564,7.028 32.556,9.898 Z M 44.848,14 H 39.024 V 4.2 h 1.792 v 8.064 h 4.032 z m 8.106,0 h -3.78 V 4.2 h 2.646 c 0.494669,0 0.916998,0.018667 1.267,0.056 0.350002,0.037333 0.690665,0.1073328 1.022,0.21 0.331335,0.1026672 0.597332,0.2449991 0.798,0.427 0.200668,0.1820009 0.361666,0.4246651 0.483,0.728 0.121334,0.3033348 0.182,0.6696645 0.182,1.099 0,0.9053379 -0.275331,1.5866644 -0.826,2.044 0.57867,0.2240011 1.007999,0.5203315 1.288,0.889 0.280001,0.368669 0.42,0.85633 0.42,1.463 0,0.541336 -0.102666,1.007998 -0.308,1.4 -0.205334,0.392002 -0.482998,0.690666 -0.833,0.896 -0.350002,0.205334 -0.718665,0.354666 -1.106,0.448 C 53.819665,13.953334 53.402002,14 52.954,14 Z M 52.548,5.726 h -1.582 v 2.408 h 1.75 c 0.317335,0 0.594999,-0.086333 0.833,-0.259 0.238001,-0.1726675 0.357,-0.4689979 0.357,-0.889 0,-0.4760024 -0.114332,-0.8049991 -0.343,-0.987 C 53.334332,5.8169991 52.996002,5.726 52.548,5.726 Z m 0.28,3.822 h -1.862 v 2.926 h 1.764 c 0.60667,0 1.070998,-0.111999 1.393,-0.336 0.322002,-0.224001 0.483,-0.597331 0.483,-1.12 0,-0.980005 -0.592661,-1.47 -1.778,-1.47 z m 9.058,4.648 c -1.344007,0 -2.356663,-0.389663 -3.038,-1.169 C 58.166663,12.247663 57.826,11.172007 57.826,9.8 V 4.2 h 1.792 v 4.998 c 0,1.036005 0.160998,1.840997 0.483,2.415 0.322002,0.574003 0.916996,0.861 1.785,0.861 0.868004,0 1.462998,-0.286997 1.785,-0.861 0.322002,-0.574003 0.483,-1.378995 0.483,-2.415 V 4.2 h 1.792 v 5.6 c 0,1.372007 -0.340663,2.447663 -1.022,3.227 -0.681337,0.779337 -1.693993,1.169 -3.038,1.169 z M 75.494,14 h -1.862 l -2.03,-3.64 h -1.82 V 14 H 67.99 V 4.2 h 3.584 c 2.249345,0 3.374,0.9426572 3.374,2.828 0,0.7000035 -0.144665,1.2693311 -0.434,1.708 -0.289335,0.4386689 -0.699997,0.8213317 -1.232,1.148 z M 71.168,5.698 H 69.782 V 8.68 h 1.316 c 0.756004,0 1.273999,-0.1306654 1.554,-0.392 0.280001,-0.2613346 0.42,-0.6393309 0.42,-1.134 0,-0.4946691 -0.135332,-0.8609988 -0.406,-1.099 C 72.395332,5.8169988 71.896004,5.698 71.168,5.698 Z M 84.496,14 h -1.47 L 78.546,7.28 V 14 H 76.754 V 4.2 h 1.764 l 4.186,6.328 V 4.2 h 1.792 z m 12.936,0 H 95.57 L 94.73,11.634 H 91.468 L 90.628,14 h -1.862 l 3.486,-9.8 h 1.694 z M 94.114,9.898 93.092,7.028 92.084,9.898 Z M 104.376,14 H 98.552 V 4.2 h 1.792 v 8.064 h 4.032 z m 4.718,-3.22 h -1.75 V 14 h -1.792 V 4.2 h 2.772 c 0.73734,0 1.34166,0.037333 1.813,0.112 0.47134,0.074667 0.90067,0.2193323 1.288,0.434 0.38734,0.2146677 0.66733,0.5296646 0.84,0.945 0.17267,0.4153354 0.259,0.95433 0.259,1.617 0,0.66267 -0.10967,1.2343309 -0.329,1.715 -0.21933,0.4806691 -0.511,0.8423321 -0.875,1.085 -0.364,0.242668 -0.728,0.415333 -1.092,0.518 -0.364,0.102667 -0.742,0.154 -1.134,0.154 z m -0.28,-5.082 h -1.47 V 9.1 h 1.512 c 0.66267,0 1.13633,-0.1329987 1.421,-0.399 0.28467,-0.2660013 0.427,-0.7256634 0.427,-1.379 0,-0.5786696 -0.133,-0.9939987 -0.399,-1.246 -0.266,-0.2520013 -0.763,-0.378 -1.491,-0.378 z M 122.1,14 h -1.792 V 9.758 h -4.62 V 14 h -1.792 V 4.2 h 1.792 v 3.822 h 4.62 V 4.2 h 1.792 z m 9.786,0 h -1.862 l -0.84,-2.366 h -3.262 L 125.082,14 h -1.862 l 3.486,-9.8 h 1.694 z m -3.318,-4.102 -1.022,-2.87 -1.008,2.87 z" />
</svg>
