<?xml version="1.0" encoding="UTF-8" standalone="no"?>
<svg
   xmlns:dc="http://purl.org/dc/elements/1.1/"
   xmlns:cc="http://creativecommons.org/ns#"
   xmlns:rdf="http://www.w3.org/1999/02/22-rdf-syntax-ns#"
   xmlns:svg="http://www.w3.org/2000/svg"
   xmlns="http://www.w3.org/2000/svg"
   xmlns:sodipodi="http://sodipodi.sourceforge.net/DTD/sodipodi-0.dtd"
   xmlns:inkscape="http://www.inkscape.org/namespaces/inkscape"
   width="117px"
   height="18px"
   viewBox="0 0 117 18"
   version="1.1"
   id="svg12"
   sodipodi:docname="system.svg"
   inkscape:version="0.92.4 (5da689c313, 2019-01-14)">
  <metadata
     id="metadata16">
    <rdf:RDF>
      <cc:Work
         rdf:about="">
        <dc:format>image/svg+xml</dc:format>
        <dc:type
           rdf:resource="http://purl.org/dc/dcmitype/StillImage" />
        <dc:title>system</dc:title>
      </cc:Work>
    </rdf:RDF>
  </metadata>
  <sodipodi:namedview
     pagecolor="#ffffff"
     bordercolor="#666666"
     borderopacity="1"
     objecttolerance="10"
     gridtolerance="10"
     guidetolerance="10"
     inkscape:pageopacity="0"
     inkscape:pageshadow="2"
     inkscape:window-width="1920"
     inkscape:window-height="1018"
     id="namedview14"
     showgrid="false"
     inkscape:zoom="3.2478632"
     inkscape:cx="94.880589"
     inkscape:cy="8.9999999"
     inkscape:window-x="-8"
     inkscape:window-y="-8"
     inkscape:window-maximized="1"
     inkscape:current-layer="svg12" />
  <!-- Generator: Sketch 45 (43475) - http://www.bohemiancoding.com/sketch -->
  <title
     id="title2">system</title>
  <desc
     id="desc4">Created with Sketch.</desc>
  <defs
     id="defs6" />
  <g
     id="g857">
    <g
       aria-label="NINTENDO 3DS"
       style="font-style:normal;font-variant:normal;font-weight:normal;font-stretch:normal;font-size:31.22818184px;line-height:1.25;font-family:'X360 by Redge';-inkscape-font-specification:'X360 by Redge';letter-spacing:0px;word-spacing:0px;fill:#ffffff;fill-opacity:1;stroke:none;stroke-width:0.78070456"
       id="text878">
      <path
         d="M 15.900661,14.666269 H 13.643936 L 9.7892077,8.4328313 V 14.666269 H 7.6422701 V 5.5844796 h 2.7995579 l 3.311895,5.2026644 V 5.5844796 h 2.146938 z"
         style="font-style:normal;font-variant:normal;font-weight:bold;font-stretch:normal;font-size:12.49127293px;font-family:sans-serif;-inkscape-font-specification:'sans-serif Bold';fill:#ffffff;stroke-width:0.78070456"
         id="path886"
         inkscape:connector-curvature="0" />
      <path
         d="m 23.140475,14.666269 h -5.318549 v -1.610203 h 1.488218 V 7.1946827 H 17.821926 V 5.5844796 h 5.318549 v 1.6102031 h -1.488218 v 5.8613833 h 1.488218 z"
         style="font-style:normal;font-variant:normal;font-weight:bold;font-stretch:normal;font-size:12.49127293px;font-family:sans-serif;-inkscape-font-specification:'sans-serif Bold';fill:#ffffff;stroke-width:0.78070456"
         id="path888"
         inkscape:connector-curvature="0" />
      <path
         d="M 33.32013,14.666269 H 31.063406 L 27.208677,8.4328313 V 14.666269 H 25.06174 V 5.5844796 h 2.799558 l 3.311895,5.2026644 V 5.5844796 h 2.146937 z"
         style="font-style:normal;font-variant:normal;font-weight:bold;font-stretch:normal;font-size:12.49127293px;font-family:sans-serif;-inkscape-font-specification:'sans-serif Bold';fill:#ffffff;stroke-width:0.78070456"
         id="path890"
         inkscape:connector-curvature="0" />
      <path
         d="M 42.755678,7.3410648 H 39.919524 V 14.666269 H 37.577411 V 7.3410648 H 34.741257 V 5.5844796 h 8.014421 z"
         style="font-style:normal;font-variant:normal;font-weight:bold;font-stretch:normal;font-size:12.49127293px;font-family:sans-serif;-inkscape-font-specification:'sans-serif Bold';fill:#ffffff;stroke-width:0.78070456"
         id="path892"
         inkscape:connector-curvature="0" />
      <path
         d="M 50.733502,14.666269 H 44.164605 V 5.5844796 h 6.568897 V 7.3410648 H 46.49452 v 1.5675084 h 3.934019 V 10.665158 H 46.49452 v 2.244526 h 4.238982 z"
         style="font-style:normal;font-variant:normal;font-weight:bold;font-stretch:normal;font-size:12.49127293px;font-family:sans-serif;-inkscape-font-specification:'sans-serif Bold';fill:#ffffff;stroke-width:0.78070456"
         id="path894"
         inkscape:connector-curvature="0" />
      <path
         d="M 60.961951,14.666269 H 58.705227 L 54.850498,8.4328313 V 14.666269 H 52.703561 V 5.5844796 h 2.799558 l 3.311895,5.2026644 V 5.5844796 h 2.146937 z"
         style="font-style:normal;font-variant:normal;font-weight:bold;font-stretch:normal;font-size:12.49127293px;font-family:sans-serif;-inkscape-font-specification:'sans-serif Bold';fill:#ffffff;stroke-width:0.78070456"
         id="path896"
         inkscape:connector-curvature="0" />
      <path
         d="m 71.873518,10.134523 q 0,1.268645 -0.579429,2.275022 -0.579429,1.000278 -1.463821,1.537012 -0.664819,0.402551 -1.457722,0.561132 -0.792903,0.15858 -1.87857,0.15858 H 63.291867 V 5.5844796 h 3.293598 q 1.110064,0 1.915166,0.1890768 0.805101,0.1829777 1.354034,0.5245359 0.939285,0.5733299 1.47602,1.5492106 0.542833,0.9697815 0.542833,2.2872201 z m -2.421404,-0.0183 q 0,-0.8965908 -0.32936,-1.5309133 Q 68.799494,7.944891 68.09198,7.585035 67.732124,7.4081566 67.353971,7.3471641 66.981916,7.2800723 66.225609,7.2800723 h -0.591628 v 5.6845047 h 0.591628 q 0.835597,0 1.22595,-0.07319 0.390352,-0.07929 0.762407,-0.280565 0.640421,-0.365956 0.939285,-0.975881 0.298863,-0.616025 0.298863,-1.518714 z"
         style="font-style:normal;font-variant:normal;font-weight:bold;font-stretch:normal;font-size:12.49127293px;font-family:sans-serif;-inkscape-font-specification:'sans-serif Bold';fill:#ffffff;stroke-width:0.78070456"
         id="path898"
         inkscape:connector-curvature="0" />
      <path
         d="m 82.492316,10.128424 q 0,2.171335 -1.244248,3.452178 -1.244248,1.274744 -3.439979,1.274744 -2.189632,0 -3.43388,-1.274744 -1.244248,-1.280843 -1.244248,-3.452178 0,-2.1896323 1.244248,-3.4582772 1.244248,-1.2747441 3.43388,-1.2747441 2.183533,0 3.43388,1.2747441 1.250347,1.2686449 1.250347,3.4582772 z m -3.10452,2.299419 q 0.341558,-0.414749 0.506238,-0.975881 0.16468,-0.56723 0.16468,-1.329637 0,-0.8173003 -0.189077,-1.3906302 Q 79.68056,8.1583649 79.375597,7.8046081 79.064535,7.4386529 78.655885,7.273973 78.253334,7.1092932 77.814188,7.1092932 q -0.445245,0 -0.841697,0.1585806 -0.390352,0.1585806 -0.719712,0.5245358 -0.304963,0.3415583 -0.500139,0.9453845 -0.189077,0.5977269 -0.189077,1.3906299 0,0.811201 0.182978,1.384531 0.189077,0.56723 0.49404,0.927086 0.304962,0.359856 0.713612,0.530636 0.40865,0.170779 0.859995,0.170779 0.451345,0 0.859995,-0.170779 0.40865,-0.176879 0.713613,-0.542834 z"
         style="font-style:normal;font-variant:normal;font-weight:bold;font-stretch:normal;font-size:12.49127293px;font-family:sans-serif;-inkscape-font-specification:'sans-serif Bold';fill:#ffffff;stroke-width:0.78070456"
         id="path900"
         inkscape:connector-curvature="0" />
      <path
         d="m 94.751816,10.40899 q 0.298864,0.256168 0.475742,0.597727 0.176878,0.341558 0.176878,0.908789 0,0.640421 -0.256168,1.195453 -0.25007,0.555033 -0.774606,0.951484 -0.512337,0.384253 -1.207652,0.591628 -0.689216,0.201275 -1.677295,0.201275 -1.128362,0 -1.939563,-0.176878 -0.805101,-0.176879 -1.31134,-0.396452 V 12.28756 h 0.237871 q 0.524536,0.317161 1.250348,0.548933 0.73191,0.231772 1.335736,0.231772 0.353757,0 0.768506,-0.05489 0.41475,-0.06099 0.701415,-0.256168 0.225672,-0.152482 0.359856,-0.365956 0.134183,-0.219573 0.134183,-0.628223 0,-0.396451 -0.182977,-0.609925 -0.182978,-0.219573 -0.481842,-0.311062 -0.298863,-0.09759 -0.719712,-0.103688 -0.420848,-0.0122 -0.780704,-0.0122 H 90.360353 V 9.1037493 h 0.518437 q 0.475741,0 0.841697,-0.030496 0.365955,-0.030496 0.622124,-0.1402829 0.268367,-0.1158858 0.40255,-0.3049627 0.134184,-0.1951762 0.134184,-0.5672307 0,-0.2744664 -0.140283,-0.4391463 -0.140283,-0.1707791 -0.353757,-0.2683672 -0.23787,-0.1097866 -0.561131,-0.1463821 -0.32326,-0.036595 -0.555032,-0.036595 -0.57333,0 -1.244248,0.2012754 -0.670918,0.1951761 -1.299141,0.5672306 H 88.50008 V 5.9687326 q 0.500139,-0.2012754 1.360134,-0.384253 0.859995,-0.1890769 1.744387,-0.1890769 0.859995,0 1.506516,0.1524813 0.646521,0.1463821 1.067369,0.3964516 0.500139,0.2988634 0.744109,0.7258112 0.24397,0.4269478 0.24397,1.0002778 0,0.7563075 -0.469642,1.3540344 -0.469643,0.5916277 -1.238149,0.7563076 v 0.085389 q 0.311062,0.042695 0.65872,0.1707784 0.347657,0.128086 0.634322,0.372056 z"
         style="font-style:normal;font-variant:normal;font-weight:bold;font-stretch:normal;font-size:12.49127293px;font-family:sans-serif;-inkscape-font-specification:'sans-serif Bold';fill:#ffffff;stroke-width:0.78070456"
         id="path902"
         inkscape:connector-curvature="0" />
      <path
         d="m 106.00494,10.134523 q 0,1.268645 -0.57943,2.275022 -0.57943,1.000278 -1.46382,1.537012 -0.66482,0.402551 -1.45772,0.561132 -0.7929,0.15858 -1.87857,0.15858 H 97.423291 V 5.5844796 h 3.293599 q 1.11006,0 1.91516,0.1890768 0.80511,0.1829777 1.35404,0.5245359 0.93928,0.5733299 1.47602,1.5492106 0.54283,0.9697815 0.54283,2.2872201 z m -2.4214,-0.0183 q 0,-0.8965908 -0.32936,-1.5309133 -0.32326,-0.6404217 -1.03078,-1.0002777 -0.35985,-0.1768784 -0.73801,-0.2378709 -0.37205,-0.067092 -1.12836,-0.067092 h -0.591625 v 5.6845049 h 0.591625 q 0.8356,0 1.22595,-0.07319 0.39035,-0.07929 0.76241,-0.280565 0.64042,-0.365956 0.93928,-0.975881 0.29887,-0.616025 0.29887,-1.518715 z"
         style="font-style:normal;font-variant:normal;font-weight:bold;font-stretch:normal;font-size:12.49127293px;font-family:sans-serif;-inkscape-font-specification:'sans-serif Bold';fill:#ffffff;stroke-width:0.78070456"
         id="path904"
         inkscape:connector-curvature="0" />
      <path
         d="m 115.06234,11.811818 q 0,1.341836 -1.14056,2.183533 -1.13446,0.835598 -3.08622,0.835598 -1.12837,0 -1.97006,-0.195176 -0.8356,-0.201275 -1.56751,-0.506238 v -2.177434 h 0.25617 q 0.72581,0.579429 1.6224,0.890491 0.90269,0.311062 1.73219,0.311062 0.21347,0 0.56113,-0.0366 0.34766,-0.0366 0.56723,-0.121985 0.26837,-0.109787 0.43914,-0.274467 0.17688,-0.16468 0.17688,-0.48794 0,-0.298864 -0.25617,-0.512338 -0.25006,-0.219573 -0.73801,-0.335459 -0.51233,-0.121985 -1.08566,-0.225672 -0.56723,-0.109787 -1.06737,-0.274466 -1.14666,-0.372055 -1.6529,-1.0063774 -0.50014,-0.6404217 -0.50014,-1.5858061 0,-1.2686449 1.13446,-2.0676472 1.14056,-0.8051016 2.92764,-0.8051016 0.89659,0 1.76879,0.1768784 0.87829,0.1707791 1.51871,0.433047 v 2.0920443 h -0.25007 q -0.54893,-0.4391463 -1.34793,-0.7319105 -0.79291,-0.2988635 -1.6224,-0.2988635 -0.29277,0 -0.58553,0.042695 -0.28667,0.036595 -0.55503,0.1463821 -0.23788,0.091489 -0.40865,0.2805657 -0.17078,0.1829776 -0.17078,0.4208485 0,0.359856 0.27446,0.5550322 0.27447,0.1890769 1.03688,0.3476575 0.50014,0.1036873 0.95758,0.2012754 0.46354,0.097588 0.99418,0.2683672 1.04297,0.3415582 1.53701,0.933186 0.50014,0.585528 0.50014,1.524813 z"
         style="font-style:normal;font-variant:normal;font-weight:bold;font-stretch:normal;font-size:12.49127293px;font-family:sans-serif;-inkscape-font-specification:'sans-serif Bold';fill:#ffffff;stroke-width:0.78070456"
         id="path906"
         inkscape:connector-curvature="0" />
    </g>
  </g>
</svg>
