<?xml version="1.0" encoding="UTF-8" standalone="no"?>
<svg
   xmlns:dc="http://purl.org/dc/elements/1.1/"
   xmlns:cc="http://creativecommons.org/ns#"
   xmlns:rdf="http://www.w3.org/1999/02/22-rdf-syntax-ns#"
   xmlns:svg="http://www.w3.org/2000/svg"
   xmlns="http://www.w3.org/2000/svg"
   xmlns:sodipodi="http://sodipodi.sourceforge.net/DTD/sodipodi-0.dtd"
   xmlns:inkscape="http://www.inkscape.org/namespaces/inkscape"
   width="117px"
   height="18px"
   viewBox="0 0 117 18"
   version="1.1"
   id="svg12"
   sodipodi:docname="system.svg"
   inkscape:version="0.92.4 (5da689c313, 2019-01-14)">
  <metadata
     id="metadata16">
    <rdf:RDF>
      <cc:Work
         rdf:about="">
        <dc:format>image/svg+xml</dc:format>
        <dc:type
           rdf:resource="http://purl.org/dc/dcmitype/StillImage" />
        <dc:title>system</dc:title>
      </cc:Work>
    </rdf:RDF>
  </metadata>
  <sodipodi:namedview
     pagecolor="#ffffff"
     bordercolor="#666666"
     borderopacity="1"
     objecttolerance="10"
     gridtolerance="10"
     guidetolerance="10"
     inkscape:pageopacity="0"
     inkscape:pageshadow="2"
     inkscape:window-width="1920"
     inkscape:window-height="1018"
     id="namedview14"
     showgrid="false"
     inkscape:zoom="3.2478632"
     inkscape:cx="5.1944251"
     inkscape:cy="8.9999999"
     inkscape:window-x="-8"
     inkscape:window-y="-8"
     inkscape:window-maximized="1"
     inkscape:current-layer="svg12" />
  <!-- Generator: Sketch 45 (43475) - http://www.bohemiancoding.com/sketch -->
  <title
     id="title2">system</title>
  <desc
     id="desc4">Created with Sketch.</desc>
  <defs
     id="defs6" />
  <g
     id="text2268"
     style="font-style:normal;font-variant:normal;font-weight:normal;font-stretch:normal;font-size:21.33333397px;line-height:1.25;font-family:sans-serif;-inkscape-font-specification:sans-serif;letter-spacing:0px;word-spacing:0px;fill:#ffffff;fill-opacity:1;stroke:none"
     aria-label="VECTREX">
    <path
       inkscape:connector-curvature="0"
       id="path2275"
       style="font-style:normal;font-variant:normal;font-weight:bold;font-stretch:normal;font-family:sans-serif;-inkscape-font-specification:'sans-serif Bold';fill:#ffffff"
       d="M 22.354824,1.2580021 16.698574,16.768419 H 12.219407 L 6.5631571,1.2580021 h 4.1979169 l 3.75,10.8958339 3.75,-10.8958339 z" />
    <path
       inkscape:connector-curvature="0"
       id="path2277"
       style="font-style:normal;font-variant:normal;font-weight:bold;font-stretch:normal;font-family:sans-serif;-inkscape-font-specification:'sans-serif Bold';fill:#ffffff"
       d="M 35.802742,16.768419 H 24.583992 V 1.2580021 h 11.21875 v 3.0000001 h -7.239583 v 2.6770834 h 6.71875 v 3.0000001 h -6.71875 v 3.8333333 h 7.239583 z" />
    <path
       inkscape:connector-curvature="0"
       id="path2279"
       style="font-style:normal;font-variant:normal;font-weight:bold;font-stretch:normal;font-family:sans-serif;-inkscape-font-specification:'sans-serif Bold';fill:#ffffff"
       d="m 46.177743,17.070503 q -1.729167,0 -3.197917,-0.510417 -1.458334,-0.510417 -2.510417,-1.520833 -1.052083,-1.010417 -1.635417,-2.520834 -0.572916,-1.510417 -0.572916,-3.4895833 0,-1.8437501 0.552083,-3.3437501 0.552083,-1.5 1.604167,-2.5729167 1.010416,-1.0312501 2.5,-1.5937501 1.5,-0.56250001 3.270833,-0.56250001 0.979167,0 1.760417,0.11458331 0.791667,0.1041667 1.458333,0.28125 0.697917,0.1979167 1.260417,0.4479167 0.572917,0.2395834 1,0.4479167 v 3.7604168 h -0.458333 q -0.291667,-0.25 -0.739584,-0.59375 -0.4375,-0.34375 -1,-0.6770834 -0.572916,-0.3333333 -1.239583,-0.5625 -0.666667,-0.2291667 -1.427083,-0.2291667 -0.84375,0 -1.604167,0.2708334 -0.760417,0.2604166 -1.40625,0.875 -0.614583,0.59375 -1,1.5729167 -0.375,0.9791667 -0.375,2.3750001 0,1.4583336 0.40625,2.4374996 0.416667,0.979167 1.041667,1.541667 0.635416,0.572917 1.416666,0.822917 0.78125,0.239583 1.541667,0.239583 0.729167,0 1.4375,-0.21875 0.71875,-0.21875 1.322917,-0.59375 0.510416,-0.302083 0.947916,-0.645833 0.4375,-0.34375 0.71875,-0.59375 h 0.416667 v 3.708333 q -0.583333,0.260417 -1.114583,0.489584 -0.53125,0.229166 -1.114584,0.395833 -0.760416,0.21875 -1.427083,0.333333 -0.666667,0.114584 -1.833333,0.114584 z" />
    <path
       inkscape:connector-curvature="0"
       id="path2281"
       style="font-style:normal;font-variant:normal;font-weight:bold;font-stretch:normal;font-family:sans-serif;-inkscape-font-specification:'sans-serif Bold';fill:#ffffff"
       d="m 66.761077,4.2580022 h -4.84375 V 16.768419 H 57.917326 V 4.2580022 h -4.84375 V 1.2580021 h 13.687501 z" />
    <path
       inkscape:connector-curvature="0"
       id="path2283"
       style="font-style:normal;font-variant:normal;font-weight:bold;font-stretch:normal;font-family:sans-serif;-inkscape-font-specification:'sans-serif Bold';fill:#ffffff"
       d="m 77.865245,6.0080023 q 0,-0.5833334 -0.239584,-1.0000001 -0.239583,-0.4166666 -0.822916,-0.65625 -0.40625,-0.1666666 -0.947917,-0.1979166 -0.541667,-0.041667 -1.260417,-0.041667 H 73.146494 V 8.289252 h 1.229167 q 0.958333,0 1.604167,-0.09375 0.645833,-0.09375 1.083333,-0.4270833 0.416667,-0.3229167 0.604167,-0.7083334 0.197917,-0.3958333 0.197917,-1.052083 z m 6.239583,10.7604167 h -4.885417 l -4.229167,-5.6875 h -1.84375 v 5.6875 H 69.167328 V 1.2580021 h 6.708333 q 1.375,0 2.364584,0.15625 0.989583,0.15625 1.854166,0.6770834 0.875,0.5208333 1.385417,1.3541667 0.520833,0.8229167 0.520833,2.0729167 0,1.7187501 -0.802083,2.8020834 -0.791667,1.0833334 -2.270833,1.8020837 z" />
    <path
       inkscape:connector-curvature="0"
       id="path2285"
       style="font-style:normal;font-variant:normal;font-weight:bold;font-stretch:normal;font-family:sans-serif;-inkscape-font-specification:'sans-serif Bold';fill:#ffffff"
       d="M 97.09441,16.768419 H 85.87566 V 1.2580021 h 11.21875 v 3.0000001 h -7.239584 v 2.6770834 h 6.718751 v 3.0000001 h -6.718751 v 3.8333333 h 7.239584 z" />
    <path
       inkscape:connector-curvature="0"
       id="path2287"
       style="font-style:normal;font-variant:normal;font-weight:bold;font-stretch:normal;font-family:sans-serif;-inkscape-font-specification:'sans-serif Bold';fill:#ffffff"
       d="m 114.5215,16.768419 h -4.625 l -3.34375,-5.104167 -3.40625,5.104167 h -4.416671 l 5.500001,-7.8125 -5.385418,-7.6979169 H 103.459 l 3.22916,4.8333335 3.32292,-4.8333335 h 4.42708 L 109.0215,8.799669 Z" />
  </g>
</svg>
