<?xml version="1.0" encoding="UTF-8" standalone="no"?>
<svg
   xmlns:dc="http://purl.org/dc/elements/1.1/"
   xmlns:cc="http://creativecommons.org/ns#"
   xmlns:rdf="http://www.w3.org/1999/02/22-rdf-syntax-ns#"
   xmlns:svg="http://www.w3.org/2000/svg"
   xmlns="http://www.w3.org/2000/svg"
   xmlns:sodipodi="http://sodipodi.sourceforge.net/DTD/sodipodi-0.dtd"
   xmlns:inkscape="http://www.inkscape.org/namespaces/inkscape"
   height="512"
   viewBox="0 0 128 128"
   width="512"
   version="1.1"
   id="svg9"
   sodipodi:docname="doom.svg"
   inkscape:version="0.92.4 (5da689c313, 2019-01-14)">
  <metadata
     id="metadata15">
    <rdf:RDF>
      <cc:Work
         rdf:about="">
        <dc:format>image/svg+xml</dc:format>
        <dc:type
           rdf:resource="http://purl.org/dc/dcmitype/StillImage" />
        <dc:title></dc:title>
      </cc:Work>
    </rdf:RDF>
  </metadata>
  <defs
     id="defs13" />
  <sodipodi:namedview
     pagecolor="#ffffff"
     bordercolor="#666666"
     borderopacity="1"
     objecttolerance="10"
     gridtolerance="10"
     guidetolerance="10"
     inkscape:pageopacity="0"
     inkscape:pageshadow="2"
     inkscape:window-width="1920"
     inkscape:window-height="1018"
     id="namedview11"
     showgrid="false"
     inkscape:zoom="0.4609375"
     inkscape:cx="256"
     inkscape:cy="256"
     inkscape:window-x="-8"
     inkscape:window-y="-8"
     inkscape:window-maximized="1"
     inkscape:current-layer="svg9" />
  <g
     id="g831">
    <path
       style="fill:#ffffff"
       d="m 121.5,28.44 h -16.333 v -4.248 a 1.75,1.75 0 0 0 -1.75,-1.75 h -7.584 a 1.75,1.75 0 0 0 -1.75,1.75 V 28.44 H 19.17 a 1.751,1.751 0 0 0 -1.7,1.343 40.177,40.177 0 0 1 -2.916,8.169 l -4.417,-2.973 a 1.75,1.75 0 1 0 -1.954,2.9 l 4.7,3.167 a 33.388,33.388 0 0 1 -7.423,8.876 1.75,1.75 0 0 0 -0.623,1.955 1.728,1.728 0 0 0 0.208,0.4 H 5.04 c 0.006,0.012 0.015,0.021 0.022,0.032 0.02,0.029 0.038,0.058 0.059,0.086 0.021,0.028 0.018,0.029 0.029,0.042 6.32,7.65 6.59,16.49 1.29,42.98 a 8.492,8.492 0 0 0 8.32,10.14 h 19.1 A 7.283,7.283 0 0 0 35.09,91.1 L 39.756,78.975 H 56.333 A 16.352,16.352 0 0 0 72.667,62.641 V 61.37 H 110 a 1.75,1.75 0 0 0 1.75,-1.75 v -6.54 h 9.75 a 1.75,1.75 0 0 0 1.75,-1.75 V 30.19 a 1.75,1.75 0 0 0 -1.75,-1.75 z m -23.917,-2.5 h 4.083 v 2.5 h -4.083 z m -19.917,6 v 2.5 H 60.618 v -2.5 z M 31.14,93.74 a 1.748,1.748 0 0 0 1.44,0.76 h 1.28 a 3.78,3.78 0 1 1 0,7.56 H 14.76 A 4.975,4.975 0 0 1 9.88,96.1 C 14.51,72.89 15.36,61.81 9.92,53.08 H 45.97 L 30.95,92.12 a 1.759,1.759 0 0 0 0.19,1.62 z M 69.166,62.64 A 12.848,12.848 0 0 1 56.333,75.475 H 41.1 l 5.427,-14.1 h 6.436 l 2.386,8.424 a 1.75,1.75 0 1 0 3.367,-0.954 L 56.6,61.37 H 69.167 Z M 108.25,57.87 H 70.965 c -0.016,0 -0.032,0 -0.048,0 -0.016,0 -0.032,0 -0.048,0 H 47.877 l 1.843,-4.79 h 58.53 z m 11.5,-8.29 H 10.925 a 40.717,40.717 0 0 0 5.745,-8.036 c 0.009,-0.013 0.022,-0.022 0.031,-0.036 a 1.742,1.742 0 0 0 0.186,-0.373 43.775,43.775 0 0 0 3.642,-9.2 h 36.589 v 4.252 a 1.75,1.75 0 0 0 1.75,1.75 h 20.549 a 1.75,1.75 0 0 0 1.75,-1.75 V 31.94 h 14.642 0.024 7.583 0.024 16.31 z"
       id="path2"
       inkscape:connector-curvature="0" />
    <path
       style="fill:#ffffff"
       d="m 44.312,36.013 h -12 a 1.75,1.75 0 0 0 0,3.5 h 12 a 1.75,1.75 0 0 0 0,-3.5 z"
       id="path4"
       inkscape:connector-curvature="0" />
    <path
       style="fill:#ffffff"
       d="m 44.312,42.013 h -12 a 1.75,1.75 0 0 0 0,3.5 h 12 a 1.75,1.75 0 0 0 0,-3.5 z"
       id="path6"
       inkscape:connector-curvature="0" />
  </g>
</svg>
