<?xml version="1.0" encoding="UTF-8" standalone="no"?>
<svg
   xmlns:dc="http://purl.org/dc/elements/1.1/"
   xmlns:cc="http://creativecommons.org/ns#"
   xmlns:rdf="http://www.w3.org/1999/02/22-rdf-syntax-ns#"
   xmlns:svg="http://www.w3.org/2000/svg"
   xmlns="http://www.w3.org/2000/svg"
   xmlns:sodipodi="http://sodipodi.sourceforge.net/DTD/sodipodi-0.dtd"
   xmlns:inkscape="http://www.inkscape.org/namespaces/inkscape"
   width="116px"
   height="18px"
   viewBox="0 0 116 18"
   version="1.1"
   id="svg12"
   sodipodi:docname="system.svg"
   inkscape:version="0.92.4 (5da689c313, 2019-01-14)">
  <metadata
     id="metadata16">
    <rdf:RDF>
      <cc:Work
         rdf:about="">
        <dc:format>image/svg+xml</dc:format>
        <dc:type
           rdf:resource="http://purl.org/dc/dcmitype/StillImage" />
        <dc:title>system</dc:title>
      </cc:Work>
    </rdf:RDF>
  </metadata>
  <sodipodi:namedview
     pagecolor="#ffffff"
     bordercolor="#666666"
     borderopacity="1"
     objecttolerance="10"
     gridtolerance="10"
     guidetolerance="10"
     inkscape:pageopacity="0"
     inkscape:pageshadow="2"
     inkscape:window-width="1920"
     inkscape:window-height="1018"
     id="namedview14"
     showgrid="false"
     inkscape:zoom="3.2758621"
     inkscape:cx="1.6789479"
     inkscape:cy="9.0000001"
     inkscape:window-x="-8"
     inkscape:window-y="-8"
     inkscape:window-maximized="1"
     inkscape:current-layer="svg12" />
  <!-- Generator: Sketch 45 (43475) - http://www.bohemiancoding.com/sketch -->
  <title
     id="title2">system</title>
  <desc
     id="desc4">Created with Sketch.</desc>
  <defs
     id="defs6" />
  <g
     id="g820">
    <g
       aria-label="DOOM"
       style="font-style:normal;font-variant:normal;font-weight:normal;font-stretch:normal;font-size:22.26442719px;line-height:1.25;font-family:sans-serif;-inkscape-font-specification:sans-serif;letter-spacing:0px;word-spacing:0px;fill:#ffffff;fill-opacity:1;stroke:none;stroke-width:0.5566107"
       id="text816">
      <path
         d="m 35.048966,8.9700314 q 0,2.2612306 -1.032774,4.0549956 -1.032773,1.782894 -2.609112,2.739568 -1.184972,0.717506 -2.598242,1.00016 -1.413269,0.282654 -3.348361,0.282654 H 19.753044 V 0.86003988 h 5.870503 q 1.978577,0 3.413589,0.33701042 1.435012,0.326139 2.413429,0.934932 1.674181,1.0219024 2.630855,2.7613107 0.967546,1.7285371 0.967546,4.0767384 z m -4.315907,-0.032614 q 0,-1.5980814 -0.58705,-2.7286969 Q 29.56983,5.0672339 28.308759,4.425827 27.667352,4.1105593 26.993331,4.0018463 26.330182,3.8822619 24.98214,3.8822619 H 23.927624 V 14.014316 h 1.054516 q 1.489368,0 2.185132,-0.130456 0.695763,-0.141327 1.358913,-0.50008 1.141486,-0.652278 1.67418,-1.739408 0.532694,-1.098002 0.532694,-2.7069546 z"
         style="font-style:normal;font-variant:normal;font-weight:bold;font-stretch:normal;font-family:sans-serif;-inkscape-font-specification:'sans-serif Bold';fill:#ffffff;stroke-width:0.5566107"
         id="path822"
         inkscape:connector-curvature="0" />
      <path
         d="m 53.975904,8.9591601 q 0,3.8701839 -2.217746,6.1531569 -2.217745,2.272102 -6.131414,2.272102 -3.902798,0 -6.120543,-2.272102 -2.217746,-2.282973 -2.217746,-6.1531569 0,-3.9027975 2.217746,-6.1640284 2.217745,-2.27210219 6.120543,-2.27210219 3.891926,0 6.120543,2.27210219 2.228617,2.2612309 2.228617,6.1640284 z m -5.533493,4.0984809 q 0.608793,-0.739248 0.902318,-1.739408 0.293525,-1.011031 0.293525,-2.3699442 0,-1.4567545 -0.33701,-2.4786569 -0.33701,-1.0219024 -0.880576,-1.652438 -0.554436,-0.6522781 -1.282813,-0.9458033 -0.717506,-0.2935251 -1.50024,-0.2935251 -0.793605,0 -1.50024,0.2826538 -0.695763,0.2826539 -1.282813,0.934932 -0.543565,0.608793 -0.891447,1.6850519 -0.337011,1.0653876 -0.337011,2.4786569 0,1.4458829 0.32614,2.4677859 0.33701,1.011031 0.880575,1.652438 0.543565,0.641407 1.271942,0.945803 0.728378,0.304396 1.532854,0.304396 0.804476,0 1.532854,-0.304396 0.728377,-0.315268 1.271942,-0.967546 z"
         style="font-style:normal;font-variant:normal;font-weight:bold;font-stretch:normal;font-family:sans-serif;-inkscape-font-specification:'sans-serif Bold';fill:#ffffff;stroke-width:0.5566107"
         id="path824"
         inkscape:connector-curvature="0" />
      <path
         d="m 72.891967,8.9591601 q 0,3.8701839 -2.217745,6.1531569 -2.217746,2.272102 -6.131415,2.272102 -3.902797,0 -6.120543,-2.272102 -2.217746,-2.282973 -2.217746,-6.1531569 0,-3.9027975 2.217746,-6.1640284 2.217746,-2.27210219 6.120543,-2.27210219 3.891926,0 6.120543,2.27210219 2.228617,2.2612309 2.228617,6.1640284 z m -5.533493,4.0984809 q 0.608793,-0.739248 0.902318,-1.739408 0.293526,-1.011031 0.293526,-2.3699442 0,-1.4567545 -0.337011,-2.4786569 -0.33701,-1.0219024 -0.880575,-1.652438 -0.554437,-0.6522781 -1.282814,-0.9458033 -0.717506,-0.2935251 -1.50024,-0.2935251 -0.793605,0 -1.500239,0.2826538 -0.695764,0.2826539 -1.282814,0.934932 -0.543565,0.608793 -0.891447,1.6850519 -0.33701,1.0653876 -0.33701,2.4786569 0,1.4458829 0.326139,2.4677859 0.33701,1.011031 0.880575,1.652438 0.543565,0.641407 1.271943,0.945803 0.728377,0.304396 1.532853,0.304396 0.804477,0 1.532854,-0.304396 0.728377,-0.315268 1.271942,-0.967546 z"
         style="font-style:normal;font-variant:normal;font-weight:bold;font-stretch:normal;font-family:sans-serif;-inkscape-font-specification:'sans-serif Bold';fill:#ffffff;stroke-width:0.5566107"
         id="path826"
         inkscape:connector-curvature="0" />
      <path
         d="M 93.036493,17.047409 H 88.883656 V 6.2087206 L 85.883177,13.242453 H 83.002281 L 80.001802,6.2087206 V 17.047409 H 76.06639 V 0.86003988 h 4.848601 l 3.641887,8.12086282 3.631015,-8.12086282 h 4.8486 z"
         style="font-style:normal;font-variant:normal;font-weight:bold;font-stretch:normal;font-family:sans-serif;-inkscape-font-specification:'sans-serif Bold';fill:#ffffff;stroke-width:0.5566107"
         id="path828"
         inkscape:connector-curvature="0" />
    </g>
  </g>
</svg>
