<?xml version="1.0" encoding="UTF-8" standalone="no"?>
<svg
   xmlns:dc="http://purl.org/dc/elements/1.1/"
   xmlns:cc="http://creativecommons.org/ns#"
   xmlns:rdf="http://www.w3.org/1999/02/22-rdf-syntax-ns#"
   xmlns:svg="http://www.w3.org/2000/svg"
   xmlns="http://www.w3.org/2000/svg"
   xmlns:sodipodi="http://sodipodi.sourceforge.net/DTD/sodipodi-0.dtd"
   xmlns:inkscape="http://www.inkscape.org/namespaces/inkscape"
   width="117px"
   height="18px"
   viewBox="0 0 117 18"
   version="1.1"
   id="svg12"
   sodipodi:docname="system.svg"
   inkscape:version="0.92.4 (5da689c313, 2019-01-14)">
  <metadata
     id="metadata16">
    <rdf:RDF>
      <cc:Work
         rdf:about="">
        <dc:format>image/svg+xml</dc:format>
        <dc:type
           rdf:resource="http://purl.org/dc/dcmitype/StillImage" />
        <dc:title>system</dc:title>
      </cc:Work>
    </rdf:RDF>
  </metadata>
  <sodipodi:namedview
     pagecolor="#ffffff"
     bordercolor="#666666"
     borderopacity="1"
     objecttolerance="10"
     gridtolerance="10"
     guidetolerance="10"
     inkscape:pageopacity="0"
     inkscape:pageshadow="2"
     inkscape:window-width="1920"
     inkscape:window-height="1018"
     id="namedview14"
     showgrid="false"
     inkscape:zoom="3.2478632"
     inkscape:cx="5.1944251"
     inkscape:cy="8.9999999"
     inkscape:window-x="-8"
     inkscape:window-y="-8"
     inkscape:window-maximized="1"
     inkscape:current-layer="svg12" />
  <!-- Generator: Sketch 45 (43475) - http://www.bohemiancoding.com/sketch -->
  <title
     id="title2">system</title>
  <desc
     id="desc4">Created with Sketch.</desc>
  <defs
     id="defs6" />
  <g
     id="text2171"
     style="font-style:normal;font-variant:normal;font-weight:normal;font-stretch:normal;font-size:11.6573px;line-height:1.25;font-family:sans-serif;-inkscape-font-specification:sans-serif;letter-spacing:0px;word-spacing:0px;fill:#ffffff;fill-opacity:1;stroke:none;stroke-width:0.54643589"
     aria-label="TURBOGRAFX-CD">
    <path
       inkscape:connector-curvature="0"
       id="path2179"
       style="font-style:normal;font-variant:normal;font-weight:bold;font-stretch:normal;font-family:sans-serif;-inkscape-font-specification:'sans-serif Bold';fill:#ffffff;stroke-width:0.54643589"
       d="M 11.573172,7.3076929 H 8.926373 V 14.143834 H 6.7406292 V 7.3076929 H 4.0938301 V 5.668385 h 7.4793419 z" />
    <path
       inkscape:connector-curvature="0"
       id="path2181"
       style="font-style:normal;font-variant:normal;font-weight:bold;font-stretch:normal;font-family:sans-serif;-inkscape-font-specification:'sans-serif Bold';fill:#ffffff;stroke-width:0.54643589"
       d="m 20.310455,11.075824 q 0,1.571003 -0.956263,2.407733 -0.956263,0.83673 -2.81756,0.83673 -1.861298,0 -2.81756,-0.83673 -0.950571,-0.83673 -0.950571,-2.402041 V 5.668385 h 2.197127 v 5.287906 q 0,0.882267 0.369983,1.314862 0.369983,0.432595 1.201021,0.432595 0.819654,0 1.195328,-0.415519 0.381367,-0.415519 0.381367,-1.331938 V 5.668385 h 2.197128 z" />
    <path
       inkscape:connector-curvature="0"
       id="path2183"
       style="font-style:normal;font-variant:normal;font-weight:bold;font-stretch:normal;font-family:sans-serif;-inkscape-font-specification:'sans-serif Bold';fill:#ffffff;stroke-width:0.54643589"
       d="m 27.112445,8.2639557 q 0,-0.3187542 -0.130917,-0.5464359 Q 26.850611,7.4898382 26.531857,7.3589212 26.309867,7.2678486 26.013881,7.2507724 25.717895,7.2280043 25.325144,7.2280043 H 24.53395 v 2.2825084 h 0.671661 q 0.523668,0 0.876574,-0.051228 0.352907,-0.051228 0.591973,-0.2333737 0.227681,-0.1764533 0.330138,-0.3870588 0.108149,-0.2162976 0.108149,-0.5748965 z m 3.409532,5.8798783 H 27.85241 L 25.541442,11.03598 H 24.53395 v 3.107854 H 22.359591 V 5.668385 h 3.665674 q 0.751349,0 1.292093,0.085381 0.540744,0.085381 1.013184,0.3699826 0.478131,0.2846021 0.757041,0.7399654 0.284602,0.4496712 0.284602,1.1327161 0,0.9391868 -0.438287,1.5311591 -0.432595,0.5919718 -1.240865,0.9847228 z" />
    <path
       inkscape:connector-curvature="0"
       id="path2185"
       style="font-style:normal;font-variant:normal;font-weight:bold;font-stretch:normal;font-family:sans-serif;-inkscape-font-specification:'sans-serif Bold';fill:#ffffff;stroke-width:0.54643589"
       d="m 38.741284,11.548263 q 0,0.614741 -0.250449,1.098564 -0.244758,0.483824 -0.677353,0.802578 -0.5009,0.375675 -1.104256,0.535052 -0.597665,0.159377 -1.519775,0.159377 H 31.489624 V 5.668385 h 3.29 q 1.024567,0 1.497007,0.068304 0.478131,0.068304 0.944878,0.3016782 0.483824,0.2447578 0.717198,0.6602768 0.239065,0.4098269 0.239065,0.9391867 0,0.6147405 -0.324446,1.0871799 -0.324446,0.4667473 -0.916419,0.7285812 v 0.045536 q 0.831038,0.1650692 1.314862,0.6830452 0.489515,0.517975 0.489515,1.36609 z M 35.9408,8.0647343 q 0,-0.2106055 -0.108149,-0.421211 Q 35.730195,7.4329178 35.462669,7.330461 35.223603,7.2393884 34.865004,7.2336963 34.512098,7.2223122 33.868897,7.2223122 h -0.204913 v 1.792993 h 0.341522 q 0.517976,0 0.882267,-0.017076 0.36429,-0.017076 0.574896,-0.1138408 0.295986,-0.1309169 0.387059,-0.3358304 0.09107,-0.2106055 0.09107,-0.4838235 z m 0.535052,3.4493767 q 0,-0.404135 -0.159377,-0.620432 -0.153685,-0.22199 -0.52936,-0.330139 -0.256142,-0.074 -0.705813,-0.07969 -0.449671,-0.0057 -0.939187,-0.0057 h -0.478131 v 2.111747 h 0.159377 q 0.922111,0 1.320553,-0.0057 0.398443,-0.0057 0.734274,-0.147993 0.341522,-0.142301 0.466747,-0.375675 0.130917,-0.239066 0.130917,-0.546436 z" />
    <path
       inkscape:connector-curvature="0"
       id="path2187"
       style="font-style:normal;font-variant:normal;font-weight:bold;font-stretch:normal;font-family:sans-serif;-inkscape-font-specification:'sans-serif Bold';fill:#ffffff;stroke-width:0.54643589"
       d="m 48.611285,9.9089556 q 0,2.0263664 -1.161177,3.2216954 -1.161176,1.189636 -3.210311,1.189636 -2.043442,0 -3.204619,-1.189636 -1.161176,-1.195329 -1.161176,-3.2216954 0,-2.0434427 1.161176,-3.2273873 1.161177,-1.1896365 3.204619,-1.1896365 2.037751,0 3.204619,1.1896365 1.166869,1.1839446 1.166869,3.2273873 z m -2.897249,2.1458994 q 0.318754,-0.387059 0.472439,-0.910726 0.153685,-0.52936 0.153685,-1.2408654 0,-0.7627335 -0.176453,-1.2977854 Q 45.987254,8.0704264 45.702652,7.740288 45.412358,7.3987655 45.030991,7.2450804 44.655316,7.0913953 44.245489,7.0913953 q -0.415519,0 -0.785501,0.1479931 -0.364291,0.147993 -0.671661,0.4895155 -0.284602,0.3187543 -0.466748,0.8822663 -0.176453,0.5578201 -0.176453,1.2977854 0,0.7570414 0.170761,1.2920934 0.176454,0.52936 0.461056,0.86519 0.284602,0.335831 0.665969,0.495208 0.381366,0.159377 0.802577,0.159377 0.421211,0 0.802578,-0.159377 0.381367,-0.165069 0.665969,-0.506592 z" />
    <path
       inkscape:connector-curvature="0"
       id="path2189"
       style="font-style:normal;font-variant:normal;font-weight:bold;font-stretch:normal;font-family:sans-serif;-inkscape-font-specification:'sans-serif Bold';fill:#ffffff;stroke-width:0.54643589"
       d="m 57.769776,13.660011 q -0.569205,0.221989 -1.508391,0.443979 -0.939187,0.216297 -1.872682,0.216297 -2.162975,0 -3.386764,-1.17256 -1.223789,-1.178253 -1.223789,-3.2501555 0,-1.9751382 1.235173,-3.1818509 1.235173,-1.2124047 3.443685,-1.2124047 0.83673,0 1.593771,0.1536851 0.757042,0.147993 1.684844,0.5976643 V 8.2411876 H 57.490866 Q 57.331488,8.1216547 57.024118,7.9053572 56.716748,7.6833676 56.432146,7.5296825 56.102008,7.3475371 55.658028,7.2166202 55.219741,7.0857033 54.724534,7.0857033 q -0.580589,0 -1.053028,0.1707612 -0.472439,0.1707612 -0.848114,0.5236678 -0.358599,0.3415224 -0.569204,0.8708822 -0.204914,0.5236678 -0.204914,1.2124048 0,1.4059337 0.745658,2.1515917 0.745657,0.745657 2.20282,0.745657 0.125224,0 0.273218,-0.0057 0.153685,-0.0057 0.27891,-0.01708 V 11.075824 H 53.859343 V 9.4763605 h 3.910433 z" />
    <path
       inkscape:connector-curvature="0"
       id="path2191"
       style="font-style:normal;font-variant:normal;font-weight:bold;font-stretch:normal;font-family:sans-serif;-inkscape-font-specification:'sans-serif Bold';fill:#ffffff;stroke-width:0.54643589"
       d="m 64.474999,8.2639557 q 0,-0.3187542 -0.130916,-0.5464359 Q 64.213166,7.4898382 63.894411,7.3589212 63.672422,7.2678486 63.376436,7.2507724 63.080449,7.2280043 62.687699,7.2280043 h -0.791194 v 2.2825084 h 0.671661 q 0.523667,0 0.876574,-0.051228 0.352907,-0.051228 0.591972,-0.2333737 0.227682,-0.1764533 0.330139,-0.3870588 0.108148,-0.2162976 0.108148,-0.5748965 z m 3.409533,5.8798783 H 65.214965 L 62.903996,11.03598 h -1.007491 v 3.107854 h -2.17436 V 5.668385 h 3.665675 q 0.751349,0 1.292093,0.085381 0.540744,0.085381 1.013183,0.3699826 0.478132,0.2846021 0.757042,0.7399654 0.284602,0.4496712 0.284602,1.1327161 0,0.9391868 -0.438287,1.5311591 -0.432596,0.5919718 -1.240865,0.9847228 z" />
    <path
       inkscape:connector-curvature="0"
       id="path2193"
       style="font-style:normal;font-variant:normal;font-weight:bold;font-stretch:normal;font-family:sans-serif;-inkscape-font-specification:'sans-serif Bold';fill:#ffffff;stroke-width:0.54643589"
       d="m 76.684429,14.143834 h -2.25974 l -0.58628,-1.713304 h -3.142007 l -0.58628,1.713304 h -2.20282 l 3.130622,-8.475449 h 2.515882 z m -3.37538,-3.267231 -1.041644,-3.0395503 -1.041643,3.0395503 z" />
    <path
       inkscape:connector-curvature="0"
       id="path2195"
       style="font-style:normal;font-variant:normal;font-weight:bold;font-stretch:normal;font-family:sans-serif;-inkscape-font-specification:'sans-serif Bold';fill:#ffffff;stroke-width:0.54643589"
       d="m 83.987314,7.3076929 h -3.899048 v 1.5766953 h 3.614446 v 1.6393078 h -3.614446 v 3.620138 h -2.17436 V 5.668385 h 6.073408 z" />
    <path
       inkscape:connector-curvature="0"
       id="path2197"
       style="font-style:normal;font-variant:normal;font-weight:bold;font-stretch:normal;font-family:sans-serif;-inkscape-font-specification:'sans-serif Bold';fill:#ffffff;stroke-width:0.54643589"
       d="m 93.179964,14.143834 h -2.527266 l -1.827145,-2.7891 -1.861298,2.7891 H 84.55083 L 87.556227,9.8748034 84.613442,5.668385 h 2.521574 L 88.899549,8.3094921 90.71531,5.668385 h 2.419118 l -2.959862,4.1210377 z" />
    <path
       inkscape:connector-curvature="0"
       id="path2199"
       style="font-style:normal;font-variant:normal;font-weight:bold;font-stretch:normal;font-family:sans-serif;-inkscape-font-specification:'sans-serif Bold';fill:#ffffff;stroke-width:0.54643589"
       d="M 98.285724,11.195357 H 93.942697 V 9.5560491 h 4.343027 z" />
    <path
       inkscape:connector-curvature="0"
       id="path2201"
       style="font-style:normal;font-variant:normal;font-weight:bold;font-stretch:normal;font-family:sans-serif;-inkscape-font-specification:'sans-serif Bold';fill:#ffffff;stroke-width:0.54643589"
       d="m 103.82977,14.308903 q -0.94488,0 -1.74746,-0.27891 -0.79688,-0.27891 -1.37178,-0.831038 -0.57489,-0.552128 -0.893648,-1.377474 -0.313062,-0.825346 -0.313062,-1.9068334 0,-1.0074912 0.301678,-1.8271451 0.301682,-0.8196539 0.876572,-1.4059342 0.55213,-0.563512 1.36609,-0.8708822 0.81966,-0.3073702 1.7873,-0.3073702 0.53505,0 0.96196,0.062612 0.43259,0.05692 0.79688,0.1536851 0.38137,0.1081488 0.68874,0.2447578 0.31306,0.1309169 0.54644,0.2447577 v 2.0548268 h -0.25045 Q 106.41965,8.1273464 106.17489,7.939509 105.93583,7.7516717 105.62846,7.5695263 105.31539,7.387381 104.9511,7.2621561 q -0.36429,-0.1252249 -0.77981,-0.1252249 -0.46105,0 -0.87657,0.1479931 -0.41552,0.142301 -0.76843,0.4781314 -0.33583,0.3244464 -0.54643,0.8594982 -0.20492,0.5350519 -0.20492,1.2977854 0,0.7968857 0.22199,1.3319377 0.22769,0.535052 0.56921,0.842422 0.34721,0.313063 0.77412,0.449672 0.4269,0.130917 0.84242,0.130917 0.39844,0 0.7855,-0.119533 0.39275,-0.119533 0.72289,-0.324447 0.27891,-0.165069 0.51797,-0.352906 0.23907,-0.187838 0.39275,-0.324447 h 0.22769 v 2.026367 q -0.31876,0.142301 -0.60905,0.267526 -0.2903,0.125225 -0.60905,0.216298 -0.41552,0.119532 -0.77981,0.182145 -0.36429,0.06261 -1.0018,0.06261 z" />
    <path
       inkscape:connector-curvature="0"
       id="path2203"
       style="font-style:normal;font-variant:normal;font-weight:bold;font-stretch:normal;font-family:sans-serif;-inkscape-font-specification:'sans-serif Bold';fill:#ffffff;stroke-width:0.54643589"
       d="m 116.45472,9.9146476 q 0,1.1839444 -0.54074,2.1231314 -0.54075,0.933495 -1.36609,1.434394 -0.62044,0.375675 -1.3604,0.523668 -0.73997,0.147993 -1.75315,0.147993 h -2.98832 V 5.668385 h 3.0737 q 1.03595,0 1.7873,0.1764533 0.75135,0.1707612 1.26363,0.4895155 0.87658,0.5350519 1.37748,1.4457785 0.50659,0.9050345 0.50659,2.1345153 z m -2.25974,-0.017076 q 0,-0.83673 -0.30737,-1.4287023 Q 113.58593,7.871205 112.92565,7.5353746 112.58982,7.3703054 112.23692,7.313385 111.8897,7.250772 111.18389,7.250772 h -0.55213 v 5.304983 h 0.55213 q 0.77981,0 1.1441,-0.0683 0.36429,-0.074 0.71151,-0.261834 0.59766,-0.341522 0.87657,-0.910726 0.27891,-0.574896 0.27891,-1.4173189 z" />
  </g>
</svg>
