<?xml version="1.0" encoding="UTF-8" standalone="no"?>
<svg
   xmlns:dc="http://purl.org/dc/elements/1.1/"
   xmlns:cc="http://creativecommons.org/ns#"
   xmlns:rdf="http://www.w3.org/1999/02/22-rdf-syntax-ns#"
   xmlns:svg="http://www.w3.org/2000/svg"
   xmlns="http://www.w3.org/2000/svg"
   xmlns:sodipodi="http://sodipodi.sourceforge.net/DTD/sodipodi-0.dtd"
   xmlns:inkscape="http://www.inkscape.org/namespaces/inkscape"
   width="157px"
   height="18px"
   viewBox="0 0 157 18"
   version="1.1"
   id="svg12"
   sodipodi:docname="system.svg"
   inkscape:version="0.92.4 (5da689c313, 2019-01-14)">
  <metadata
     id="metadata16">
    <rdf:RDF>
      <cc:Work
         rdf:about="">
        <dc:format>image/svg+xml</dc:format>
        <dc:type
           rdf:resource="http://purl.org/dc/dcmitype/StillImage" />
      </cc:Work>
    </rdf:RDF>
  </metadata>
  <sodipodi:namedview
     pagecolor="#ffffff"
     bordercolor="#666666"
     borderopacity="1"
     objecttolerance="10"
     gridtolerance="10"
     guidetolerance="10"
     inkscape:pageopacity="0"
     inkscape:pageshadow="2"
     inkscape:window-width="1920"
     inkscape:window-height="1018"
     id="namedview14"
     showgrid="false"
     inkscape:zoom="2.4203822"
     inkscape:cx="78.5"
     inkscape:cy="9"
     inkscape:window-x="-8"
     inkscape:window-y="-8"
     inkscape:window-maximized="1"
     inkscape:current-layer="svg12" />
  <!-- Generator: Sketch 45 (43475) - http://www.bohemiancoding.com/sketch -->
  <title
     id="title2">system</title>
  <desc
     id="desc4">Created with Sketch.</desc>
  <defs
     id="defs6" />
  <path
     style="fill:#ffffff;fill-rule:evenodd;stroke:none;stroke-width:1"
     inkscape:connector-curvature="0"
     id="WONDERSWAN-COLOR-Copy"
     d="M 21.398,4.2 18.528,14 H 16.946 L 14.762,7.462 12.592,14 H 10.898 L 8.14,4.2 h 1.862 l 1.96,6.958 2.184,-6.958 h 1.246 L 17.66,10.976 19.536,4.2 Z m 5.306,9.996 c -1.418674,0 -2.578329,-0.468995 -3.479,-1.407 -0.900671,-0.938005 -1.351,-2.167659 -1.351,-3.689 0,-1.5213409 0.450329,-2.7509953 1.351,-3.689 0.900671,-0.9380047 2.060326,-1.407 3.479,-1.407 1.418674,0 2.578329,0.4689953 3.479,1.407 0.900671,0.9380047 1.351,2.1676591 1.351,3.689 0,1.521341 -0.450329,2.750995 -1.351,3.689 -0.900671,0.938005 -2.060326,1.407 -3.479,1.407 z m 0,-8.47 c -0.924005,0 -1.633331,0.3079969 -2.128,0.924 -0.494669,0.6160031 -0.742,1.4326616 -0.742,2.45 0,1.017338 0.247331,1.833997 0.742,2.45 0.494669,0.616003 1.203995,0.924 2.128,0.924 0.924005,0 1.633331,-0.307997 2.128,-0.924 0.494669,-0.616003 0.742,-1.432662 0.742,-2.45 0,-1.0173384 -0.247331,-1.8339969 -0.742,-2.45 C 28.337331,6.0339969 27.628005,5.726 26.704,5.726 Z M 40.844,14 h -1.47 L 34.894,7.28 V 14 H 33.102 V 4.2 h 1.764 l 4.186,6.328 V 4.2 h 1.792 z m 5.824,0 H 43 V 4.2 h 3.668 c 1.428007,0 2.589995,0.4386623 3.486,1.316 0.896004,0.8773377 1.344,2.0719924 1.344,3.584 0,1.512008 -0.447996,2.706662 -1.344,3.584 C 49.257995,13.561338 48.096007,14 46.668,14 Z m 0,-8.078 h -1.876 v 6.356 h 1.876 c 0.933338,0 1.644998,-0.279997 2.135,-0.84 0.490002,-0.560003 0.735,-1.339328 0.735,-2.338 0,-0.9986717 -0.244998,-1.7779972 -0.735,-2.338 -0.490002,-0.5600028 -1.201662,-0.84 -2.135,-0.84 z M 59.492,14 H 53.08 V 4.2 h 6.272 v 1.736 h -4.438 v 2.086 h 3.444 v 1.736 h -3.444 v 2.506 h 4.578 z m 9.044,0 h -1.862 l -2.03,-3.64 h -1.82 V 14 H 61.032 V 4.2 h 3.584 c 2.249345,0 3.374,0.9426572 3.374,2.828 0,0.7000035 -0.144665,1.2693311 -0.434,1.708 -0.289335,0.4386689 -0.699997,0.8213317 -1.232,1.148 z M 64.21,5.698 H 62.824 V 8.68 h 1.316 c 0.756004,0 1.273999,-0.1306654 1.554,-0.392 0.280001,-0.2613346 0.42,-0.6393309 0.42,-1.134 0,-0.4946691 -0.135332,-0.8609988 -0.406,-1.099 C 65.437332,5.8169988 64.938004,5.698 64.21,5.698 Z m 8.428,8.498 c -0.700004,0 -1.33933,-0.07 -1.918,-0.21 -0.57867,-0.140001 -1.021998,-0.307999 -1.33,-0.504 l 0.21,-2.044 c 0.298668,0.289335 0.716331,0.534332 1.253,0.735 0.536669,0.200668 1.145663,0.301 1.827,0.301 1.166672,0 1.75,-0.354663 1.75,-1.064 0,-0.196001 -0.04667,-0.373332 -0.14,-0.532 C 74.19667,10.719333 74.096334,10.588667 73.989,10.486 73.881666,10.383333 73.702001,10.273667 73.45,10.157 73.197999,10.040333 73.002001,9.9563336 72.862,9.905 72.721999,9.8536664 72.484002,9.7720006 72.148,9.66 71.858665,9.5666662 71.658001,9.4966669 71.546,9.45 L 70.986,9.212 C 70.724665,9.1093328 70.533334,9.0183337 70.412,8.939 70.290666,8.8596663 70.141334,8.7476674 69.964,8.603 69.786666,8.4583326 69.656,8.3113341 69.572,8.162 69.488,8.0126659 69.413334,7.833001 69.348,7.623 69.282666,7.412999 69.25,7.1866679 69.25,6.944 c 0,-0.7653372 0.28933,-1.4466637 0.868,-2.044 0.57867,-0.5973363 1.469994,-0.896 2.674,-0.896 0.625337,0 1.229664,0.079333 1.813,0.238 0.583336,0.1586675 1.019665,0.3313324 1.309,0.518 l -0.182,1.834 c -1.073339,-0.5880029 -2.029996,-0.882 -2.87,-0.882 -0.476002,0 -0.893665,0.079333 -1.253,0.238 -0.359335,0.1586675 -0.539,0.4246648 -0.539,0.798 0,0.3546684 0.163332,0.6276657 0.49,0.819 0.326668,0.1913343 0.82133,0.3896656 1.484,0.595 0.345335,0.1026672 0.608999,0.1866663 0.791,0.252 0.182001,0.065334 0.431665,0.1633327 0.749,0.294 0.317335,0.1306673 0.564666,0.2683326 0.742,0.413 0.177334,0.1446674 0.361666,0.321999 0.553,0.532 0.191334,0.210001 0.331333,0.457332 0.42,0.742 0.08867,0.284668 0.133,0.599665 0.133,0.945 0,0.261335 -0.02333,0.506332 -0.07,0.735 -0.04667,0.228668 -0.151666,0.478332 -0.315,0.749 -0.163334,0.270668 -0.377999,0.501666 -0.644,0.693 -0.266001,0.191334 -0.634664,0.352333 -1.106,0.483 -0.471336,0.130667 -1.02433,0.196 -1.659,0.196 z M 90.236,4.2 87.366,14 H 85.784 L 83.6,7.462 81.43,14 H 79.736 L 76.978,4.2 H 78.84 L 80.8,11.158 82.984,4.2 h 1.246 l 2.268,6.776 1.876,-6.776 z m 8.288,9.8 h -1.862 l -0.84,-2.366 H 92.56 L 91.72,14 h -1.862 l 3.486,-9.8 h 1.694 z M 95.206,9.898 94.184,7.028 93.176,9.898 Z M 107.386,14 h -1.47 l -4.48,-6.72 V 14 H 99.644 V 4.2 h 1.764 l 4.186,6.328 V 4.2 h 1.792 z m 9.548,0.196 c -1.41867,0 -2.57833,-0.468995 -3.479,-1.407 -0.90067,-0.938005 -1.351,-2.167659 -1.351,-3.689 0,-1.5213409 0.45033,-2.7509953 1.351,-3.689 0.90067,-0.9380047 2.06033,-1.407 3.479,-1.407 1.07334,0 2.002,0.1913314 2.786,0.574 l -0.196,1.708 c -0.94267,-0.3733352 -1.806,-0.56 -2.59,-0.56 -0.924,0 -1.63333,0.3079969 -2.128,0.924 -0.49467,0.6160031 -0.742,1.4326616 -0.742,2.45 0,1.017338 0.24733,1.833997 0.742,2.45 0.49467,0.616003 1.204,0.924 2.128,0.924 0.784,0 1.64733,-0.186665 2.59,-0.56 l 0.196,1.708 c -0.784,0.382669 -1.71266,0.574 -2.786,0.574 z m 8.4,0 c -1.41867,0 -2.57833,-0.468995 -3.479,-1.407 -0.90067,-0.938005 -1.351,-2.167659 -1.351,-3.689 0,-1.5213409 0.45033,-2.7509953 1.351,-3.689 0.90067,-0.9380047 2.06033,-1.407 3.479,-1.407 1.41867,0 2.57833,0.4689953 3.479,1.407 0.90067,0.9380047 1.351,2.1676591 1.351,3.689 0,1.521341 -0.45033,2.750995 -1.351,3.689 -0.90067,0.938005 -2.06033,1.407 -3.479,1.407 z m 0,-8.47 c -0.92401,0 -1.63333,0.3079969 -2.128,0.924 -0.49467,0.6160031 -0.742,1.4326616 -0.742,2.45 0,1.017338 0.24733,1.833997 0.742,2.45 0.49467,0.616003 1.20399,0.924 2.128,0.924 0.924,0 1.63333,-0.307997 2.128,-0.924 0.49467,-0.616003 0.742,-1.432662 0.742,-2.45 0,-1.0173384 -0.24733,-1.8339969 -0.742,-2.45 -0.49467,-0.6160031 -1.204,-0.924 -2.128,-0.924 z M 137.556,14 h -5.824 V 4.2 h 1.792 v 8.064 h 4.032 z m 5.236,0.196 c -1.41867,0 -2.57833,-0.468995 -3.479,-1.407 -0.90067,-0.938005 -1.351,-2.167659 -1.351,-3.689 0,-1.5213409 0.45033,-2.7509953 1.351,-3.689 0.90067,-0.9380047 2.06033,-1.407 3.479,-1.407 1.41867,0 2.57833,0.4689953 3.479,1.407 0.90067,0.9380047 1.351,2.1676591 1.351,3.689 0,1.521341 -0.45033,2.750995 -1.351,3.689 -0.90067,0.938005 -2.06033,1.407 -3.479,1.407 z m 0,-8.47 c -0.92401,0 -1.63333,0.3079969 -2.128,0.924 -0.49467,0.6160031 -0.742,1.4326616 -0.742,2.45 0,1.017338 0.24733,1.833997 0.742,2.45 0.49467,0.616003 1.20399,0.924 2.128,0.924 0.924,0 1.63333,-0.307997 2.128,-0.924 0.49467,-0.616003 0.742,-1.432662 0.742,-2.45 0,-1.0173384 -0.24733,-1.8339969 -0.742,-2.45 -0.49467,-0.6160031 -1.204,-0.924 -2.128,-0.924 z M 156.694,14 h -1.862 l -2.03,-3.64 h -1.82 V 14 H 149.19 V 4.2 h 3.584 c 2.24934,0 3.374,0.9426572 3.374,2.828 0,0.7000035 -0.14467,1.2693311 -0.434,1.708 -0.28934,0.4386689 -0.7,0.8213317 -1.232,1.148 z m -4.326,-8.302 h -1.386 V 8.68 h 1.316 c 0.756,0 1.274,-0.1306654 1.554,-0.392 0.28,-0.2613346 0.42,-0.6393309 0.42,-1.134 0,-0.4946691 -0.13533,-0.8609988 -0.406,-1.099 -0.27067,-0.2380012 -0.77,-0.357 -1.498,-0.357 z" />
</svg>
