<?xml version="1.0" encoding="UTF-8" standalone="no"?>
<svg
   xmlns:dc="http://purl.org/dc/elements/1.1/"
   xmlns:cc="http://creativecommons.org/ns#"
   xmlns:rdf="http://www.w3.org/1999/02/22-rdf-syntax-ns#"
   xmlns:svg="http://www.w3.org/2000/svg"
   xmlns="http://www.w3.org/2000/svg"
   xmlns:sodipodi="http://sodipodi.sourceforge.net/DTD/sodipodi-0.dtd"
   xmlns:inkscape="http://www.inkscape.org/namespaces/inkscape"
   width="117px"
   height="18px"
   viewBox="0 0 117 18"
   version="1.1"
   id="svg12"
   sodipodi:docname="system.svg"
   inkscape:version="0.92.4 (5da689c313, 2019-01-14)">
  <metadata
     id="metadata16">
    <rdf:RDF>
      <cc:Work
         rdf:about="">
        <dc:format>image/svg+xml</dc:format>
        <dc:type
           rdf:resource="http://purl.org/dc/dcmitype/StillImage" />
        <dc:title>system</dc:title>
      </cc:Work>
    </rdf:RDF>
  </metadata>
  <sodipodi:namedview
     pagecolor="#ffffff"
     bordercolor="#666666"
     borderopacity="1"
     objecttolerance="10"
     gridtolerance="10"
     guidetolerance="10"
     inkscape:pageopacity="0"
     inkscape:pageshadow="2"
     inkscape:window-width="1920"
     inkscape:window-height="1018"
     id="namedview14"
     showgrid="false"
     inkscape:zoom="3.2478632"
     inkscape:cx="101.11826"
     inkscape:cy="8.9999999"
     inkscape:window-x="-8"
     inkscape:window-y="-8"
     inkscape:window-maximized="1"
     inkscape:current-layer="svg12" />
  <!-- Generator: Sketch 45 (43475) - http://www.bohemiancoding.com/sketch -->
  <title
     id="title2">system</title>
  <desc
     id="desc4">Created with Sketch.</desc>
  <defs
     id="defs6" />
  <g
     id="text1544"
     style="font-style:normal;font-variant:normal;font-weight:normal;font-stretch:normal;font-size:17.38722229px;line-height:1.25;font-family:sans-serif;-inkscape-font-specification:sans-serif;letter-spacing:0px;word-spacing:0px;fill:#ffffff;fill-opacity:1;stroke:none;stroke-width:0.81502604"
     aria-label="GAMECUBE">
    <path
       inkscape:connector-curvature="0"
       id="path1552"
       style="font-style:normal;font-variant:normal;font-weight:bold;font-stretch:normal;font-family:sans-serif;-inkscape-font-specification:'sans-serif Bold';fill:#ffffff;stroke-width:0.81502604"
       d="m 21.30583,14.874934 q -0.848986,0.331105 -2.249812,0.662209 -1.400826,0.322614 -2.793162,0.322614 -3.226145,0 -5.051464,-1.74891 -1.8253184,-1.7574 -1.8253184,-4.8477066 0,-2.9459796 1.8422984,-4.7458288 1.842299,-1.808339 5.136362,-1.808339 1.248009,0 2.377159,0.2292261 1.129151,0.2207362 2.512997,0.8914347 V 6.7925927 H 20.889827 Q 20.652111,6.6143057 20.193659,6.2916912 19.735206,5.9605869 19.310714,5.7313608 18.818302,5.4596855 18.156093,5.2644188 17.502375,5.0691522 16.763757,5.0691522 q -0.865965,0 -1.570623,0.2546956 -0.704658,0.2546957 -1.264988,0.7810666 -0.534861,0.5093913 -0.848986,1.2989478 -0.305634,0.7810666 -0.305634,1.808339 0,2.0969938 1.112171,3.2091648 1.112171,1.112171 3.285573,1.112171 0.186777,0 0.407513,-0.0085 0.229226,-0.0085 0.416003,-0.02547 V 11.02054 H 15.473299 V 8.6348911 h 5.832531 z" />
    <path
       inkscape:connector-curvature="0"
       id="path1554"
       style="font-style:normal;font-variant:normal;font-weight:bold;font-stretch:normal;font-family:sans-serif;-inkscape-font-specification:'sans-serif Bold';fill:#ffffff;stroke-width:0.81502604"
       d="m 35.89989,15.596572 h -3.370473 l -0.874455,-2.555446 h -4.686399 l -0.874455,2.555446 h -3.285574 l 4.66942,-12.6413936 h 3.752516 z m -5.034484,-4.873177 -1.553644,-4.533582 -1.553643,4.533582 z" />
    <path
       inkscape:connector-curvature="0"
       id="path1556"
       style="font-style:normal;font-variant:normal;font-weight:bold;font-stretch:normal;font-family:sans-serif;-inkscape-font-specification:'sans-serif Bold';fill:#ffffff;stroke-width:0.81502604"
       d="M 50.986361,15.596572 H 47.743236 V 7.1321869 l -2.343199,5.4929361 h -2.249812 l -2.3432,-5.4929361 V 15.596572 H 37.733698 V 2.9551784 h 3.786475 l 2.844101,6.3419214 2.835612,-6.3419214 h 3.786475 z" />
    <path
       inkscape:connector-curvature="0"
       id="path1558"
       style="font-style:normal;font-variant:normal;font-weight:bold;font-stretch:normal;font-family:sans-serif;-inkscape-font-specification:'sans-serif Bold';fill:#ffffff;stroke-width:0.81502604"
       d="M 63.347587,15.596572 H 54.204014 V 2.9551784 h 9.143573 v 2.4450781 h -5.900449 v 2.1818926 h 5.475957 v 2.4450779 h -5.475957 v 3.124267 h 5.900449 z" />
    <path
       inkscape:connector-curvature="0"
       id="path1560"
       style="font-style:normal;font-variant:normal;font-weight:bold;font-stretch:normal;font-family:sans-serif;-inkscape-font-specification:'sans-serif Bold';fill:#ffffff;stroke-width:0.81502604"
       d="m 71.803485,15.842778 q -1.409315,0 -2.606385,-0.416003 -1.18858,-0.416003 -2.046055,-1.239519 -0.857475,-0.823516 -1.332907,-2.054545 -0.466942,-1.231029 -0.466942,-2.8441011 0,-1.5027042 0.449962,-2.7252433 0.449962,-1.2225391 1.307438,-2.0969941 0.823516,-0.8404956 2.037565,-1.2989478 1.222539,-0.4584521 2.665814,-0.4584521 0.798047,0 1.434786,0.093388 0.645229,0.084898 1.188579,0.2292261 0.568821,0.1613072 1.027273,0.3650637 0.466942,0.1952667 0.815026,0.3650638 V 6.8265521 H 75.904085 Q 75.666369,6.6227956 75.301305,6.3426304 74.944732,6.0624652 74.486279,5.7907898 74.019337,5.5191145 73.475987,5.3323377 72.932636,5.1455609 72.312877,5.1455609 q -0.687679,0 -1.307438,0.2207362 -0.619759,0.2122464 -1.14613,0.7131478 -0.500902,0.4839217 -0.815026,1.281968 -0.305635,0.7980464 -0.305635,1.9356869 0,1.1885792 0.331104,1.9866262 0.339594,0.798046 0.848986,1.256498 0.517881,0.466942 1.15462,0.670699 0.636739,0.195266 1.256498,0.195266 0.59429,0 1.1716,-0.178287 0.5858,-0.178286 1.078212,-0.483921 0.416003,-0.246206 0.772577,-0.526371 0.356574,-0.280165 0.5858,-0.483922 h 0.339594 v 3.022388 q -0.475432,0.212247 -0.908415,0.399023 -0.432982,0.186777 -0.908414,0.322615 -0.61976,0.178287 -1.16311,0.271675 -0.543351,0.09339 -1.494215,0.09339 z" />
    <path
       inkscape:connector-curvature="0"
       id="path1562"
       style="font-style:normal;font-variant:normal;font-weight:bold;font-stretch:normal;font-family:sans-serif;-inkscape-font-specification:'sans-serif Bold';fill:#ffffff;stroke-width:0.81502604"
       d="m 89.759525,11.02054 q 0,2.3432 -1.426295,3.591209 -1.426296,1.248008 -4.202478,1.248008 -2.776183,0 -4.202478,-1.248008 Q 78.510468,13.36374 78.510468,11.02903 V 2.9551784 h 3.277084 v 7.8870746 q 0,1.315928 0.551841,1.961157 0.55184,0.645229 1.791359,0.645229 1.222539,0 1.782869,-0.61976 0.568821,-0.619759 0.568821,-1.986626 V 2.9551784 h 3.277083 z" />
    <path
       inkscape:connector-curvature="0"
       id="path1564"
       style="font-style:normal;font-variant:normal;font-weight:bold;font-stretch:normal;font-family:sans-serif;-inkscape-font-specification:'sans-serif Bold';fill:#ffffff;stroke-width:0.81502604"
       d="m 103.63195,11.725198 q 0,0.916905 -0.37355,1.638542 -0.36507,0.721638 -1.0103,1.19707 -0.7471,0.56033 -1.64703,0.798046 -0.891432,0.237716 -2.266788,0.237716 H 92.815876 V 2.9551784 h 4.907136 q 1.528174,0 2.232832,0.1018782 0.713146,0.1018783 1.409316,0.4499623 0.72164,0.3650638 1.06972,0.9848232 0.35658,0.6112695 0.35658,1.400826 0,0.9169043 -0.48393,1.6215622 -0.48392,0.6961681 -1.36686,1.0867014 v 0.067919 q 1.23952,0.2462058 1.96115,1.0187826 0.73013,0.7725767 0.73013,2.0375647 z M 99.454942,6.5294072 q 0,-0.3141246 -0.161307,-0.6282493 -0.152817,-0.3141246 -0.55184,-0.466942 -0.356574,-0.1358376 -0.891435,-0.1443275 -0.526371,-0.01698 -1.485725,-0.01698 H 96.059 v 2.6743042 h 0.509392 q 0.772577,0 1.315927,-0.02547 0.543351,-0.025469 0.857476,-0.1697971 0.441472,-0.1952666 0.57731,-0.5009014 0.135837,-0.3141246 0.135837,-0.7216369 z m 0.798048,5.1448518 q 0,-0.60278 -0.23772,-0.925394 -0.229223,-0.331104 -0.789554,-0.492412 -0.382043,-0.110368 -1.052742,-0.118858 -0.670698,-0.0085 -1.400826,-0.0085 H 96.059 v 3.149736 h 0.237716 q 1.375357,0 1.969647,-0.0085 0.594289,-0.0085 1.095191,-0.220736 0.509391,-0.212247 0.696166,-0.560331 0.19527,-0.356574 0.19527,-0.815026 z" />
    <path
       inkscape:connector-curvature="0"
       id="path1566"
       style="font-style:normal;font-variant:normal;font-weight:bold;font-stretch:normal;font-family:sans-serif;-inkscape-font-specification:'sans-serif Bold';fill:#ffffff;stroke-width:0.81502604"
       d="m 115.20362,15.596572 h -9.14357 V 2.9551784 h 9.14357 v 2.4450781 h -5.90045 v 2.1818926 h 5.47596 v 2.4450779 h -5.47596 v 3.124267 h 5.90045 z" />
  </g>
</svg>
