<?xml version="1.0" encoding="UTF-8" standalone="no"?>
<svg
   xmlns:dc="http://purl.org/dc/elements/1.1/"
   xmlns:cc="http://creativecommons.org/ns#"
   xmlns:rdf="http://www.w3.org/1999/02/22-rdf-syntax-ns#"
   xmlns:svg="http://www.w3.org/2000/svg"
   xmlns="http://www.w3.org/2000/svg"
   xmlns:sodipodi="http://sodipodi.sourceforge.net/DTD/sodipodi-0.dtd"
   xmlns:inkscape="http://www.inkscape.org/namespaces/inkscape"
   width="179"
   height="18"
   viewBox="0 0 179 18"
   version="1.1"
   id="svg12"
   sodipodi:docname="system.svg"
   inkscape:version="0.92.4 (5da689c313, 2019-01-14)">
  <metadata
     id="metadata16">
    <rdf:RDF>
      <cc:Work
         rdf:about="">
        <dc:format>image/svg+xml</dc:format>
        <dc:type
           rdf:resource="http://purl.org/dc/dcmitype/StillImage" />
        <dc:title>system</dc:title>
      </cc:Work>
    </rdf:RDF>
  </metadata>
  <sodipodi:namedview
     pagecolor="#ffffff"
     bordercolor="#666666"
     borderopacity="1"
     objecttolerance="10"
     gridtolerance="10"
     guidetolerance="10"
     inkscape:pageopacity="0"
     inkscape:pageshadow="2"
     inkscape:window-width="1920"
     inkscape:window-height="1018"
     id="namedview14"
     showgrid="false"
     inkscape:zoom="3.04"
     inkscape:cx="57.195721"
     inkscape:cy="9"
     inkscape:window-x="-8"
     inkscape:window-y="-8"
     inkscape:window-maximized="1"
     inkscape:current-layer="svg12" />
  <!-- Generator: Sketch 45 (43475) - http://www.bohemiancoding.com/sketch -->
  <title
     id="title2">system</title>
  <desc
     id="desc4">Created with Sketch.</desc>
  <defs
     id="defs6" />
  <g
     id="text1121"
     style="font-style:normal;font-variant:normal;font-weight:bold;font-stretch:normal;font-size:17.16461372px;line-height:1.25;font-family:sans-serif;-inkscape-font-specification:'sans-serif Bold';letter-spacing:0px;word-spacing:0px;fill:#000000;fill-opacity:1;stroke:none;stroke-width:0.42911533"
     aria-label="GAME BOY HACKS">
    <path
       inkscape:connector-curvature="0"
       id="path1135"
       style="fill:#ffffff"
       d="m 18.055181,13.91041 q -0.838116,0.326865 -2.221007,0.65373 -1.382891,0.318484 -2.757401,0.318484 -3.1848406,0 -4.9867898,-1.726518 -1.8019492,-1.7349 -1.8019492,-4.7856422 0,-2.9082622 1.8187115,-4.6850679 1.8187116,-1.7851869 5.0706015,-1.7851869 1.23203,0 2.346724,0.2262913 1.114694,0.2179102 2.480823,0.8800217 V 5.9315465 H 17.644505 Q 17.409832,5.7555422 16.957249,5.4370581 16.504667,5.1101929 16.085609,4.8839016 15.599502,4.6157046 14.945771,4.4229379 14.300422,4.2301712 13.571261,4.2301712 q -0.854878,0 -1.550514,0.2514348 Q 11.325111,4.7330408 10.771954,5.2526726 10.243941,5.7555422 9.9338382,6.53499 9.6321165,7.3060566 9.6321165,8.3201769 q 0,2.0701461 1.0979315,3.1680781 1.097932,1.097932 3.243509,1.097932 0.184385,0 0.402296,-0.0084 0.226291,-0.0084 0.410676,-0.02514 V 10.105364 H 12.297325 V 7.750258 h 5.757856 z" />
    <path
       inkscape:connector-curvature="0"
       id="path1137"
       style="fill:#ffffff"
       d="m 32.462393,14.622808 h -3.32732 L 28.271814,12.10008 h -4.6264 l -0.863259,2.522728 H 19.538646 L 24.148283,2.1432626 h 3.704473 z m -4.970027,-4.8107848 -1.533752,-4.475539 -1.533752,4.475539 z" />
    <path
       inkscape:connector-curvature="0"
       id="path1139"
       style="fill:#ffffff"
       d="M 47.355712,14.622808 H 44.154109 V 6.2667929 l -2.3132,5.4226101 h -2.221007 l -2.3132,-5.4226101 v 8.3560151 h -3.03398 V 2.1432626 h 3.737997 l 2.807689,6.2607258 2.799307,-6.2607258 h 3.737997 z" />
    <path
       inkscape:connector-curvature="0"
       id="path1141"
       style="fill:#ffffff"
       d="M 59.55868,14.622808 H 50.532171 V 2.1432626 h 9.026509 v 2.4137738 h -5.824906 v 2.1539579 h 5.405848 v 2.4137738 h -5.405848 v 3.0842669 h 5.824906 z" />
    <path
       inkscape:connector-curvature="0"
       id="path1143"
       style="fill:#ffffff"
       d="m 78.810201,10.801 q 0,0.905165 -0.368771,1.617564 -0.360389,0.712398 -0.997358,1.181743 -0.737542,0.553157 -1.625944,0.787829 -0.880022,0.234672 -2.23777,0.234672 H 68.132605 V 2.1432626 h 4.84431 q 1.508608,0 2.204244,0.1005739 0.704018,0.100574 1.391273,0.4442015 0.712398,0.3603898 1.056026,0.9722144 0.352009,0.6034435 0.352009,1.3828913 0,0.9051651 -0.477726,1.6008013 -0.477727,0.6872551 -1.349367,1.0727884 v 0.067049 q 1.223649,0.2430536 1.936048,1.0057391 0.720779,0.7626854 0.720779,2.0114785 z m -4.12353,-5.1292694 q 0,-0.3101029 -0.159242,-0.6202058 Q 74.376568,4.7414219 73.982654,4.5905611 73.630645,4.4564625 73.102632,4.4480814 72.583,4.4313191 71.635929,4.4313191 h -0.301722 v 2.6400651 h 0.50287 q 0.762685,0 1.29908,-0.025143 0.536394,-0.025144 0.846497,-0.1676232 0.43582,-0.1927667 0.569919,-0.4944884 0.134098,-0.3101029 0.134098,-0.712399 z M 75.4745,10.750713 q 0,-0.595062 -0.234672,-0.9135464 Q 75.013536,9.5103014 74.46038,9.3510594 74.083228,9.2421043 73.421116,9.2337232 72.759005,9.225342 72.038225,9.225342 h -0.704018 v 3.10941 h 0.234673 q 1.357748,0 1.944429,-0.0084 0.586681,-0.0084 1.081169,-0.21791 0.50287,-0.209529 0.687255,-0.553157 0.192767,-0.352008 0.192767,-0.804591 z" />
    <path
       inkscape:connector-curvature="0"
       id="path1145"
       style="fill:#ffffff"
       d="m 93.343131,8.3872261 q 0,2.9836929 -1.709757,4.7437359 -1.709756,1.751662 -4.726973,1.751662 -3.008836,0 -4.718593,-1.751662 -1.709756,-1.760043 -1.709756,-4.7437359 0,-3.0088361 1.709756,-4.7521172 1.709757,-1.7516622 4.718593,-1.7516622 3.000455,0 4.718592,1.7516622 1.718138,1.7432811 1.718138,4.7521172 z m -4.26601,3.1596969 q 0.469345,-0.569919 0.695636,-1.340985 0.226291,-0.7794482 0.226291,-1.827093 0,-1.1230753 -0.259816,-1.9109043 -0.259815,-0.7878289 -0.678873,-1.2739362 -0.42744,-0.5028695 -0.988977,-0.7291608 -0.553157,-0.2262913 -1.1566,-0.2262913 -0.611825,0 -1.1566,0.2179101 -0.536394,0.2179102 -0.988977,0.7207797 -0.419058,0.4693449 -0.687255,1.2990797 -0.259816,0.8213536 -0.259816,1.9109042 0,1.1146942 0.251435,1.9025229 0.259816,0.779448 0.678874,1.273936 0.419058,0.494489 0.980595,0.729161 0.561538,0.234673 1.181744,0.234673 0.620206,0 1.181743,-0.234673 0.561538,-0.243053 0.980596,-0.745923 z" />
    <path
       inkscape:connector-curvature="0"
       id="path1147"
       style="fill:#ffffff"
       d="M 106.76975,2.1432626 102.1685,9.7952608 V 14.622808 H 98.950131 V 9.9461217 L 94.273444,2.1432626 h 3.654186 l 2.69873,4.8275476 2.60654,-4.8275476 z" />
    <path
       inkscape:connector-curvature="0"
       id="path1149"
       style="fill:#ff0000"
       d="m 125.48488,14.622808 h -3.21836 V 9.1247681 h -4.75212 v 5.4980399 h -3.21837 V 2.1432626 h 3.21837 v 4.5677317 h 4.75212 V 2.1432626 h 3.21836 z" />
    <path
       inkscape:connector-curvature="0"
       id="path1151"
       style="fill:#ff0000"
       d="m 140.21057,14.622808 h -3.32732 l -0.86326,-2.522728 h -4.6264 l -0.86326,2.522728 h -3.2435 l 4.60963,-12.4795454 h 3.70448 z m -4.97002,-4.8107848 -1.53376,-4.475539 -1.53375,4.475539 z" />
    <path
       inkscape:connector-curvature="0"
       id="path1153"
       style="fill:#ff0000"
       d="m 147.66142,14.865862 q -1.39127,0 -2.57301,-0.410677 -1.17337,-0.410677 -2.01986,-1.223649 -0.8465,-0.812972 -1.31584,-2.02824 -0.46097,-1.2152685 -0.46097,-2.8076887 0,-1.4834652 0.4442,-2.6903521 0.4442,-1.2068869 1.2907,-2.0701463 0.81297,-0.8297347 2.01148,-1.2823173 1.20689,-0.4525826 2.63168,-0.4525826 0.78783,0 1.41642,0.092193 0.63697,0.083812 1.17336,0.2262913 0.56154,0.159242 1.01412,0.3603898 0.46097,0.1927667 0.80459,0.3603898 v 3.0255985 h -0.36877 Q 151.47485,5.7639235 151.11446,5.4873453 150.76245,5.210767 150.30987,4.94257 q -0.46096,-0.2681971 -0.99736,-0.4525826 -0.53639,-0.1843855 -1.14822,-0.1843855 -0.67887,0 -1.2907,0.2179101 -0.61182,0.209529 -1.13145,0.7040174 -0.49449,0.477726 -0.80459,1.265555 -0.30173,0.7878289 -0.30173,1.9109042 0,1.1733623 0.32687,1.9611914 0.33525,0.787829 0.83812,1.240411 0.51125,0.460964 1.13983,0.662112 0.62859,0.192766 1.24041,0.192766 0.58669,0 1.1566,-0.176004 0.5783,-0.176004 1.06441,-0.477726 0.41068,-0.243054 0.76269,-0.519632 0.35201,-0.276578 0.5783,-0.477726 h 0.33524 v 2.983693 q -0.46934,0.209529 -0.89678,0.393914 -0.42744,0.184386 -0.89678,0.318484 -0.61183,0.176005 -1.14822,0.268197 -0.5364,0.09219 -1.47509,0.09219 z" />
    <path
       inkscape:connector-curvature="0"
       id="path1155"
       style="fill:#ff0000"
       d="m 166.10835,14.622808 h -3.94752 l -3.72962,-4.9951703 -0.7543,0.9135463 v 4.081624 h -3.21837 V 2.1432626 h 3.21837 v 5.6489012 l 4.45877,-5.6489012 h 3.72962 l -4.87784,5.7746186 z" />
    <path
       inkscape:connector-curvature="0"
       id="path1157"
       style="fill:#ff0000"
       d="m 177.69111,10.700426 q 0,1.843855 -1.56727,3.000455 -1.5589,1.148219 -4.24087,1.148219 -1.55051,0 -2.70711,-0.268197 -1.14822,-0.276579 -2.15396,-0.695637 v -2.992073 h 0.35201 q 0.99736,0.79621 2.22939,1.223649 1.24041,0.427439 2.38025,0.427439 0.29334,0 0.77106,-0.05029 0.47773,-0.05029 0.77945,-0.167623 0.36877,-0.150861 0.60344,-0.377152 0.24306,-0.226292 0.24306,-0.670493 0,-0.410677 -0.35201,-0.704017 -0.34363,-0.301722 -1.01412,-0.460964 -0.70402,-0.1676233 -1.49185,-0.310103 -0.77945,-0.1508609 -1.4667,-0.3771522 -1.57566,-0.5112507 -2.2713,-1.3828912 -0.68725,-0.8800217 -0.68725,-2.1791013 0,-1.7432811 1.5589,-2.841213 1.56727,-1.106313 4.02295,-1.106313 1.23203,0 2.43054,0.2430537 1.20688,0.2346724 2.08691,0.5950622 V 5.6298248 H 176.853 q -0.75431,-0.6034434 -1.85224,-1.0057391 -1.08955,-0.4106768 -2.22939,-0.4106768 -0.40229,0 -0.80459,0.058668 -0.39391,0.050287 -0.76268,0.2011479 -0.32687,0.1257173 -0.56154,0.3855333 -0.23467,0.2514347 -0.23467,0.5782999 0,0.4944884 0.37715,0.7626855 0.37715,0.2598159 1.4248,0.4777261 0.68725,0.1424797 1.31584,0.2765782 0.63697,0.1340986 1.36613,0.368771 1.43318,0.4693449 2.11205,1.2823174 0.68725,0.8045912 0.68725,2.0952898 z" />
  </g>
</svg>
