<?xml version="1.0" encoding="UTF-8" standalone="no"?>
<svg
   xmlns:dc="http://purl.org/dc/elements/1.1/"
   xmlns:cc="http://creativecommons.org/ns#"
   xmlns:rdf="http://www.w3.org/1999/02/22-rdf-syntax-ns#"
   xmlns:svg="http://www.w3.org/2000/svg"
   xmlns="http://www.w3.org/2000/svg"
   xmlns:sodipodi="http://sodipodi.sourceforge.net/DTD/sodipodi-0.dtd"
   xmlns:inkscape="http://www.inkscape.org/namespaces/inkscape"
   width="92"
   height="18"
   viewBox="0 0 92 18"
   version="1.1"
   id="svg12"
   sodipodi:docname="system.svg"
   inkscape:version="0.92.4 (5da689c313, 2019-01-14)">
  <metadata
     id="metadata16">
    <rdf:RDF>
      <cc:Work
         rdf:about="">
        <dc:format>image/svg+xml</dc:format>
        <dc:type
           rdf:resource="http://purl.org/dc/dcmitype/StillImage" />
        <dc:title>system</dc:title>
      </cc:Work>
    </rdf:RDF>
  </metadata>
  <sodipodi:namedview
     pagecolor="#ffffff"
     bordercolor="#666666"
     borderopacity="1"
     objecttolerance="10"
     gridtolerance="10"
     guidetolerance="10"
     inkscape:pageopacity="0"
     inkscape:pageshadow="2"
     inkscape:window-width="1920"
     inkscape:window-height="1018"
     id="namedview14"
     showgrid="false"
     inkscape:zoom="6.2295082"
     inkscape:cx="57.000207"
     inkscape:cy="11.407895"
     inkscape:window-x="-8"
     inkscape:window-y="-8"
     inkscape:window-maximized="1"
     inkscape:current-layer="svg12" />
  <!-- Generator: Sketch 45 (43475) - http://www.bohemiancoding.com/sketch -->
  <title
     id="title2">system</title>
  <desc
     id="desc4">Created with Sketch.</desc>
  <defs
     id="defs6" />
  <g
     id="g831">
    <g
       aria-label="3DO"
       style="font-style:normal;font-variant:normal;font-weight:normal;font-stretch:normal;font-size:17.37604523px;line-height:1.25;font-family:sans-serif;-inkscape-font-specification:sans-serif;letter-spacing:0px;word-spacing:0px;fill:#ffffff;fill-opacity:1;stroke:none;stroke-width:0.81450206"
       id="text1104">
      <path
         d="m 35.080197,10.272002 q 0.415735,0.356344 0.661783,0.831471 0.246047,0.475126 0.246047,1.264175 0,0.890861 -0.356344,1.662942 -0.347861,0.77208 -1.077519,1.323566 -0.712689,0.534517 -1.67991,0.822986 -0.958737,0.279985 -2.33321,0.279985 -1.569613,0 -2.698038,-0.246047 -1.11994,-0.246048 -1.824145,-0.551486 v -2.774398 h 0.330891 q 0.729658,0.441189 1.739302,0.763596 1.018127,0.322407 1.858083,0.322407 0.492095,0 1.069034,-0.07636 0.576939,-0.08484 0.975705,-0.356344 0.313923,-0.21211 0.50058,-0.509064 0.186656,-0.305439 0.186656,-0.873893 0,-0.551486 -0.254531,-0.84844 -0.254532,-0.305438 -0.670268,-0.432704 -0.415735,-0.13575 -1.001159,-0.144235 -0.585423,-0.01697 -1.086003,-0.01697 h -0.69572 V 8.4563407 h 0.721174 q 0.661783,0 1.170846,-0.042422 0.509064,-0.042422 0.865409,-0.1951411 0.373313,-0.1612035 0.55997,-0.4242198 0.186657,-0.2715007 0.186657,-0.789049 0,-0.3817978 -0.195141,-0.6108766 -0.195141,-0.2375631 -0.492095,-0.3733134 -0.330892,-0.1527192 -0.780565,-0.2036256 -0.449673,-0.050906 -0.77208,-0.050906 -0.797533,0 -1.730817,0.2799851 -0.933284,0.2715007 -1.807176,0.7890489 H 26.38369 V 4.0953606 q 0.69572,-0.2799851 1.89202,-0.534517 1.1963,-0.2630163 2.426538,-0.2630163 1.1963,0 2.095646,0.2121099 0.899346,0.2036256 1.48477,0.5514858 0.69572,0.4157355 1.035096,1.0096433 0.339376,0.5939078 0.339376,1.3914411 0,1.0520653 -0.653299,1.8835362 -0.653298,0.8229865 -1.722332,1.0520652 v 0.1187816 q 0.432704,0.059391 0.916315,0.2375631 0.48361,0.1781723 0.882377,0.5175485 z"
         style="font-style:normal;font-variant:normal;font-weight:bold;font-stretch:normal;font-family:sans-serif;-inkscape-font-specification:'sans-serif Bold';fill:#ffffff;stroke-width:0.81450206"
         id="path1111"
         inkscape:connector-curvature="0" />
      <path
         d="m 50.733909,9.8902038 q 0,1.7647542 -0.806017,3.1646802 -0.806018,1.391441 -2.036256,2.138068 -0.924799,0.55997 -2.027771,0.780565 -1.102971,0.220594 -2.613194,0.220594 H 38.796363 V 3.5608436 h 4.581574 q 1.54416,0 2.664101,0.2630163 1.11994,0.2545319 1.883536,0.7296582 1.306597,0.7975333 2.053224,2.1550368 0.755111,1.3490192 0.755111,3.1816489 z m -3.368305,-0.025453 q 0,-1.2472063 -0.458158,-2.1295836 Q 46.457773,6.8443053 45.473583,6.3437259 44.973004,6.0976783 44.446971,6.0128344 43.929423,5.919506 42.877358,5.919506 h -0.822987 v 7.907458 h 0.822987 q 1.162362,0 1.705363,-0.101813 0.543002,-0.110297 1.06055,-0.390282 0.890862,-0.509064 1.306597,-1.357503 0.415736,-0.856925 0.415736,-2.1126152 z"
         style="font-style:normal;font-variant:normal;font-weight:bold;font-stretch:normal;font-family:sans-serif;-inkscape-font-specification:'sans-serif Bold';fill:#ffffff;stroke-width:0.81450206"
         id="path1113"
         inkscape:connector-curvature="0" />
      <path
         d="m 65.505244,9.8817194 q 0,3.0204456 -1.730817,4.8021686 -1.730817,1.773239 -4.7852,1.773239 -3.045899,0 -4.776716,-1.773239 -1.730817,-1.781723 -1.730817,-4.8021686 0,-3.0458985 1.730817,-4.8106531 1.730817,-1.773239 4.776716,-1.773239 3.037414,0 4.776715,1.773239 1.739302,1.7647546 1.739302,4.8106531 z m -4.318558,3.1986176 q 0.475126,-0.576939 0.704205,-1.357503 0.229078,-0.789049 0.229078,-1.849599 0,-1.1369092 -0.263016,-1.9344425 Q 61.593937,7.1412592 61.169717,6.6491642 60.737013,6.1401003 60.168558,5.9110216 59.608588,5.6819429 58.997711,5.6819429 q -0.619361,0 -1.170847,0.2205943 -0.543001,0.2205943 -1.001158,0.7296582 -0.42422,0.4751262 -0.695721,1.3150815 -0.263016,0.8314709 -0.263016,1.9344425 0,1.1284246 0.254532,1.9259586 0.263016,0.789049 0.687236,1.289628 0.42422,0.500579 0.992674,0.738142 0.568455,0.237564 1.1963,0.237564 0.627846,0 1.1963,-0.237564 0.568455,-0.246047 0.992675,-0.755111 z"
         style="font-style:normal;font-variant:normal;font-weight:bold;font-stretch:normal;font-family:sans-serif;-inkscape-font-specification:'sans-serif Bold';fill:#ffffff;stroke-width:0.81450206"
         id="path1115"
         inkscape:connector-curvature="0" />
    </g>
  </g>
</svg>
