<?xml version="1.0" encoding="UTF-8" standalone="no"?>
<svg
   xmlns:dc="http://purl.org/dc/elements/1.1/"
   xmlns:cc="http://creativecommons.org/ns#"
   xmlns:rdf="http://www.w3.org/1999/02/22-rdf-syntax-ns#"
   xmlns:svg="http://www.w3.org/2000/svg"
   xmlns="http://www.w3.org/2000/svg"
   xmlns:sodipodi="http://sodipodi.sourceforge.net/DTD/sodipodi-0.dtd"
   xmlns:inkscape="http://www.inkscape.org/namespaces/inkscape"
   width="92"
   height="18"
   viewBox="0 0 92 18"
   version="1.1"
   id="svg12"
   sodipodi:docname="system.svg"
   inkscape:version="0.92.4 (5da689c313, 2019-01-14)">
  <metadata
     id="metadata16">
    <rdf:RDF>
      <cc:Work
         rdf:about="">
        <dc:format>image/svg+xml</dc:format>
        <dc:type
           rdf:resource="http://purl.org/dc/dcmitype/StillImage" />
        <dc:title>system</dc:title>
      </cc:Work>
    </rdf:RDF>
  </metadata>
  <sodipodi:namedview
     pagecolor="#ffffff"
     bordercolor="#666666"
     borderopacity="1"
     objecttolerance="10"
     gridtolerance="10"
     guidetolerance="10"
     inkscape:pageopacity="0"
     inkscape:pageshadow="2"
     inkscape:window-width="1920"
     inkscape:window-height="1018"
     id="namedview14"
     showgrid="false"
     inkscape:zoom="6.2295082"
     inkscape:cx="63.460526"
     inkscape:cy="9"
     inkscape:window-x="-8"
     inkscape:window-y="-8"
     inkscape:window-maximized="1"
     inkscape:current-layer="svg12" />
  <!-- Generator: Sketch 45 (43475) - http://www.bohemiancoding.com/sketch -->
  <title
     id="title2">system</title>
  <desc
     id="desc4">Created with Sketch.</desc>
  <defs
     id="defs6" />
  <g
     id="text1020"
     style="font-style:normal;font-variant:normal;font-weight:normal;font-stretch:normal;font-size:13.28825188px;line-height:1.25;font-family:sans-serif;-inkscape-font-specification:sans-serif;letter-spacing:0px;word-spacing:0px;fill:#ffffff;fill-opacity:1;stroke:none;stroke-width:0.62288672"
     aria-label="RESIDUALVM">
    <path
       inkscape:connector-curvature="0"
       id="path1027"
       style="font-style:normal;font-variant:normal;font-weight:bold;font-stretch:normal;font-size:11.62721825px;font-family:sans-serif;-inkscape-font-specification:'sans-serif Bold';fill:#ffffff;stroke-width:0.62288672"
       d="m 10.164462,7.5865839 q 0,-0.3179318 -0.130579,-0.5450259 Q 9.9033035,6.8144639 9.5853718,6.6838848 9.363955,6.5930472 9.0687327,6.5760151 8.7735103,6.5533057 8.381773,6.5533057 H 7.592621 v 2.2766184 h 0.6699276 q 0.5223164,0 0.8743123,-0.051096 0.3519959,-0.051096 0.5904447,-0.2327714 0.2270941,-0.175998 0.3292864,-0.38606 0.10787,-0.2157394 0.10787,-0.5734128 z m 3.400734,5.8647051 H 10.902518 L 8.5975124,10.351455 H 7.592621 v 3.099834 H 5.4238723 V 4.9977111 h 3.6562151 q 0.7494105,0 1.2887586,0.08516 0.539349,0.08516 1.010569,0.3690279 0.476898,0.2838676 0.755088,0.7380558 0.283868,0.4485109 0.283868,1.1297932 0,0.9367632 -0.437156,1.5272079 -0.431479,0.5904446 -1.237663,0.982182 z" />
    <path
       inkscape:connector-curvature="0"
       id="path1029"
       style="font-style:normal;font-variant:normal;font-weight:bold;font-stretch:normal;font-size:11.62721825px;font-family:sans-serif;-inkscape-font-specification:'sans-serif Bold';fill:#ffffff;stroke-width:0.62288672"
       d="M 20.644855,13.451289 H 14.530346 V 4.9977111 h 6.114509 v 1.6350775 h -3.94576 v 1.4590797 h 3.661892 v 1.6350775 h -3.661892 v 2.0892662 h 3.94576 z" />
    <path
       inkscape:connector-curvature="0"
       id="path1031"
       style="font-style:normal;font-variant:normal;font-weight:bold;font-stretch:normal;font-size:11.62721825px;font-family:sans-serif;-inkscape-font-specification:'sans-serif Bold';fill:#ffffff;stroke-width:0.62288672"
       d="m 29.246044,10.794288 q 0,1.249018 -1.061665,2.032492 -1.055987,0.777798 -2.87274,0.777798 -1.05031,0 -1.833785,-0.181676 -0.777797,-0.187352 -1.45908,-0.47122 v -2.026815 h 0.238449 q 0.675605,0.539349 1.510176,0.828894 0.840248,0.289545 1.612368,0.289545 0.198707,0 0.522317,-0.03406 0.323609,-0.03407 0.527993,-0.113547 0.249804,-0.102193 0.40877,-0.255481 0.164643,-0.153289 0.164643,-0.454189 0,-0.27819 -0.238449,-0.476897 Q 26.53227,10.504743 26.078081,10.396873 25.601184,10.283326 25.067513,10.186811 24.539519,10.084619 24.073976,9.9313305 23.006634,9.585012 22.535413,8.9945673 22.06987,8.3984453 22.06987,7.5184556 q 0,-1.1808893 1.055988,-1.9246225 1.061665,-0.7494106 2.725129,-0.7494106 0.834571,0 1.646433,0.1646433 0.817538,0.1589658 1.41366,0.403092 v 1.947332 H 28.678309 Q 28.167347,6.9507204 27.423614,6.6782075 26.685558,6.4000172 25.913438,6.4000172 q -0.272513,0 -0.545026,0.039741 -0.266835,0.034064 -0.516639,0.1362565 -0.221416,0.08516 -0.380382,0.2611582 -0.158966,0.1703206 -0.158966,0.3917374 0,0.3349638 0.255481,0.5166391 0.255481,0.1759979 0.96515,0.3236091 0.465543,0.096515 0.891344,0.1873526 0.431479,0.090838 0.925408,0.2498035 0.970828,0.3179318 1.430693,0.868635 0.465543,0.5450258 0.465543,1.4193384 z" />
    <path
       inkscape:connector-curvature="0"
       id="path1033"
       style="font-style:normal;font-variant:normal;font-weight:bold;font-stretch:normal;font-size:11.62721825px;font-family:sans-serif;-inkscape-font-specification:'sans-serif Bold';fill:#ffffff;stroke-width:0.62288672"
       d="m 35.315135,13.451289 h -4.950652 v -1.498821 h 1.385274 V 6.4965322 H 30.364483 V 4.9977111 h 4.950652 v 1.4988211 h -1.385274 v 5.4559358 h 1.385274 z" />
    <path
       inkscape:connector-curvature="0"
       id="path1035"
       style="font-style:normal;font-variant:normal;font-weight:bold;font-stretch:normal;font-size:11.62721825px;font-family:sans-serif;-inkscape-font-specification:'sans-serif Bold';fill:#ffffff;stroke-width:0.62288672"
       d="m 45.091536,9.2330162 q 0,1.1808898 -0.539349,2.1176528 -0.539348,0.931086 -1.362564,1.430693 -0.618832,0.374705 -1.356888,0.522316 -0.738055,0.147611 -1.748624,0.147611 h -2.98061 V 4.9977111 h 3.06577 q 1.033278,0 1.782689,0.1759979 0.74941,0.1703206 1.260372,0.4882523 0.874312,0.5336712 1.373919,1.4420476 0.505285,0.9026991 0.505285,2.1290073 z m -2.253909,-0.017032 q 0,-0.8345708 -0.306577,-1.4250155 Q 42.23015,7.1948465 41.571577,6.8598827 41.236613,6.6952395 40.884618,6.638466 40.538299,6.5760151 39.834307,6.5760151 h -0.550703 v 5.2912929 h 0.550703 q 0.777798,0 1.141148,-0.06813 0.363351,-0.07381 0.709669,-0.261159 0.596122,-0.340641 0.874313,-0.908376 0.27819,-0.573413 0.27819,-1.4136609 z" />
    <path
       inkscape:connector-curvature="0"
       id="path1037"
       style="font-style:normal;font-variant:normal;font-weight:bold;font-stretch:normal;font-size:11.62721825px;font-family:sans-serif;-inkscape-font-specification:'sans-serif Bold';fill:#ffffff;stroke-width:0.62288672"
       d="m 54.158267,10.391196 q 0,1.566949 -0.953795,2.40152 -0.953795,0.834571 -2.81029,0.834571 -1.856494,0 -2.810289,-0.834571 -0.948118,-0.834571 -0.948118,-2.395843 V 4.9977111 h 2.191458 v 5.2742609 q 0,0.879989 0.369028,1.311468 0.369028,0.431479 1.197921,0.431479 0.817539,0 1.192245,-0.414447 0.380382,-0.414447 0.380382,-1.3285 V 4.9977111 h 2.191458 z" />
    <path
       inkscape:connector-curvature="0"
       id="path1039"
       style="font-style:normal;font-variant:normal;font-weight:bold;font-stretch:normal;font-size:11.62721825px;font-family:sans-serif;-inkscape-font-specification:'sans-serif Bold';fill:#ffffff;stroke-width:0.62288672"
       d="m 64.014154,13.451289 h -2.253909 l -0.584768,-1.708883 h -3.133898 l -0.584768,1.708883 H 55.259676 L 58.38222,4.9977111 h 2.50939 z m -3.366671,-3.2588 -1.038955,-3.0317066 -1.038956,3.0317066 z" />
    <path
       inkscape:connector-curvature="0"
       id="path1041"
       style="font-style:normal;font-variant:normal;font-weight:bold;font-stretch:normal;font-size:11.62721825px;font-family:sans-serif;-inkscape-font-specification:'sans-serif Bold';fill:#ffffff;stroke-width:0.62288672"
       d="M 71.337938,13.451289 H 65.240462 V 4.9977111 h 2.180103 v 6.8185009 h 3.917373 z" />
    <path
       inkscape:connector-curvature="0"
       id="path1043"
       style="font-style:normal;font-variant:normal;font-weight:bold;font-stretch:normal;font-size:11.62721825px;font-family:sans-serif;-inkscape-font-specification:'sans-serif Bold';fill:#ffffff;stroke-width:0.62288672"
       d="M 80.308155,4.9977111 77.225352,13.451289 H 74.78409 L 71.701288,4.9977111 h 2.287973 l 2.043847,5.9385109 2.043847,-5.9385109 z" />
    <path
       inkscape:connector-curvature="0"
       id="path1045"
       style="font-style:normal;font-variant:normal;font-weight:bold;font-stretch:normal;font-size:11.62721825px;font-family:sans-serif;-inkscape-font-specification:'sans-serif Bold';fill:#ffffff;stroke-width:0.62288672"
       d="M 90.385455,13.451289 H 88.216707 V 7.7909686 l -1.56695,3.6732474 H 85.145259 L 83.578309,7.7909686 V 13.451289 H 81.523108 V 4.9977111 h 2.532099 l 1.901913,4.2409824 1.896236,-4.2409824 h 2.532099 z" />
  </g>
</svg>
