<?xml version="1.0" encoding="UTF-8" standalone="no"?>
<svg
   xmlns:dc="http://purl.org/dc/elements/1.1/"
   xmlns:cc="http://creativecommons.org/ns#"
   xmlns:rdf="http://www.w3.org/1999/02/22-rdf-syntax-ns#"
   xmlns:svg="http://www.w3.org/2000/svg"
   xmlns="http://www.w3.org/2000/svg"
   xmlns:sodipodi="http://sodipodi.sourceforge.net/DTD/sodipodi-0.dtd"
   xmlns:inkscape="http://www.inkscape.org/namespaces/inkscape"
   width="117px"
   height="18px"
   viewBox="0 0 117 18"
   version="1.1"
   id="svg12"
   sodipodi:docname="system.svg"
   inkscape:version="0.92.4 (5da689c313, 2019-01-14)">
  <metadata
     id="metadata16">
    <rdf:RDF>
      <cc:Work
         rdf:about="">
        <dc:format>image/svg+xml</dc:format>
        <dc:type
           rdf:resource="http://purl.org/dc/dcmitype/StillImage" />
        <dc:title>system</dc:title>
      </cc:Work>
    </rdf:RDF>
  </metadata>
  <sodipodi:namedview
     pagecolor="#ffffff"
     bordercolor="#666666"
     borderopacity="1"
     objecttolerance="10"
     gridtolerance="10"
     guidetolerance="10"
     inkscape:pageopacity="0"
     inkscape:pageshadow="2"
     inkscape:window-width="1920"
     inkscape:window-height="1018"
     id="namedview14"
     showgrid="false"
     inkscape:zoom="3.2478632"
     inkscape:cx="80.428949"
     inkscape:cy="8.9999999"
     inkscape:window-x="-8"
     inkscape:window-y="-8"
     inkscape:window-maximized="1"
     inkscape:current-layer="svg12" />
  <!-- Generator: Sketch 45 (43475) - http://www.bohemiancoding.com/sketch -->
  <title
     id="title2">system</title>
  <desc
     id="desc4">Created with Sketch.</desc>
  <defs
     id="defs6" />
  <g
     id="text828"
     style="font-style:normal;font-variant:normal;font-weight:normal;font-stretch:normal;font-size:12.68735027px;line-height:1.25;font-family:'X360 by Redge';-inkscape-font-specification:'X360 by Redge';letter-spacing:0px;word-spacing:0px;fill:#ffffff;fill-opacity:1;stroke:none;stroke-width:0.31718376"
     aria-label="COLECOVISION">
    <path
       inkscape:connector-curvature="0"
       id="path836"
       style="font-style:normal;font-variant:normal;font-weight:bold;font-stretch:normal;font-family:sans-serif;-inkscape-font-specification:'sans-serif Bold';fill:#ffffff;stroke-width:0.31718376"
       d="m 9.9514931,14.127289 q -1.0283692,0 -1.9018635,-0.303555 Q 7.1823302,13.520179 6.5566357,12.919265 5.9309412,12.31835 5.5840215,11.420076 5.2432967,10.521801 5.2432967,9.3447523 q 0,-1.0965142 0.3283348,-1.9885935 Q 5.8999662,6.4640795 6.5256607,5.825995 7.1265753,5.2126904 8.0124596,4.8781607 8.9045389,4.543631 9.9576881,4.543631 q 0.5823299,0 1.0469539,0.068145 0.47082,0.06195 0.8673,0.1672649 0.415064,0.1177049 0.749594,0.2663848 0.340725,0.1424849 0.59472,0.2663848 v 2.2363932 h -0.27258 Q 12.770216,7.3995238 12.503831,7.1950889 12.243641,6.9906541 11.909112,6.7924142 11.568387,6.5941744 11.171907,6.4578845 10.775427,6.3215946 10.323193,6.3215946 q -0.5017948,0 -0.9540294,0.1610699 Q 8.9169289,6.6375393 8.5328392,7.0030441 8.1673345,7.3561588 7.9381197,7.9384884 7.7150998,8.5208179 7.7150998,9.3509473 q 0,0.8672997 0.2416048,1.4496287 0.2477999,0.58233 0.6194996,0.916859 0.3778947,0.340725 0.8425193,0.489405 0.4646247,0.142485 0.9168595,0.142485 0.433649,0 0.854909,-0.130095 0.427455,-0.130095 0.786765,-0.353115 0.303554,-0.179655 0.563744,-0.384089 0.26019,-0.204435 0.427455,-0.353115 h 0.2478 v 2.205418 q -0.34692,0.154875 -0.662865,0.291165 -0.315945,0.13629 -0.662864,0.23541 -0.452235,0.130095 -0.848715,0.19824 -0.396479,0.06814 -1.0903189,0.06814 z" />
    <path
       inkscape:connector-curvature="0"
       id="path838"
       style="font-style:normal;font-variant:normal;font-weight:bold;font-stretch:normal;font-family:sans-serif;-inkscape-font-specification:'sans-serif Bold';fill:#ffffff;stroke-width:0.31718376"
       d="m 23.945987,9.3385573 q 0,2.2054187 -1.263779,3.5063677 -1.263779,1.294754 -3.493977,1.294754 -2.224003,0 -3.487783,-1.294754 -1.263779,-1.300949 -1.263779,-3.5063677 0,-2.2240033 1.263779,-3.5125623 1.26378,-1.294754 3.487783,-1.294754 2.217808,0 3.487782,1.294754 1.269974,1.288559 1.269974,3.5125623 z M 20.792735,11.67407 q 0.346919,-0.421259 0.514184,-0.991199 0.167265,-0.576134 0.167265,-1.3505087 0,-0.8301294 -0.192045,-1.4124589 Q 21.090094,7.3375738 20.780345,6.9782641 20.4644,6.6065644 20.049335,6.4392995 19.640465,6.2720346 19.194426,6.2720346 q -0.452235,0 -0.85491,0.1610699 -0.396479,0.1610699 -0.731009,0.5327696 -0.30975,0.3469197 -0.50799,0.9602243 -0.192044,0.6071095 -0.192044,1.4124589 0,0.8239347 0.185849,1.4062637 0.192045,0.576135 0.501795,0.941639 0.30975,0.365505 0.724814,0.538965 0.415065,0.17346 0.873495,0.17346 0.458429,0 0.873494,-0.17346 0.415065,-0.179655 0.724815,-0.551355 z" />
    <path
       inkscape:connector-curvature="0"
       id="path840"
       style="font-style:normal;font-variant:normal;font-weight:bold;font-stretch:normal;font-family:sans-serif;-inkscape-font-specification:'sans-serif Bold';fill:#ffffff;stroke-width:0.31718376"
       d="M 32.40835,13.947634 H 25.754925 V 4.7232858 h 2.378878 v 7.4401892 h 4.274547 z" />
    <path
       inkscape:connector-curvature="0"
       id="path842"
       style="font-style:normal;font-variant:normal;font-weight:bold;font-stretch:normal;font-family:sans-serif;-inkscape-font-specification:'sans-serif Bold';fill:#ffffff;stroke-width:0.31718376"
       d="m 40.505209,13.947634 h -6.67201 V 4.7232858 h 6.67201 v 1.7841586 h -4.305522 v 1.5921138 h 3.995772 v 1.7841587 h -3.995772 v 2.2797581 h 4.305522 z" />
    <path
       inkscape:connector-curvature="0"
       id="path844"
       style="font-style:normal;font-variant:normal;font-weight:bold;font-stretch:normal;font-family:sans-serif;-inkscape-font-specification:'sans-serif Bold';fill:#ffffff;stroke-width:0.31718376"
       d="m 46.675423,14.127289 q -1.028369,0 -1.901863,-0.303555 -0.867299,-0.303555 -1.492994,-0.904469 -0.625694,-0.600915 -0.972614,-1.499189 -0.340725,-0.898275 -0.340725,-2.0753237 0,-1.0965142 0.328335,-1.9885935 0.328335,-0.8920793 0.954029,-1.5301638 0.600915,-0.6133046 1.486799,-0.9478343 0.892079,-0.3345297 1.945228,-0.3345297 0.58233,0 1.046955,0.068145 0.470819,0.06195 0.867299,0.1672649 0.415065,0.1177049 0.749594,0.2663848 0.340725,0.1424849 0.59472,0.2663848 v 2.2363932 h -0.27258 Q 49.494146,7.3995238 49.227762,7.1950889 48.967572,6.9906541 48.633042,6.7924142 48.292317,6.5941744 47.895838,6.4578845 47.499358,6.3215946 47.047123,6.3215946 q -0.501794,0 -0.954029,0.1610699 -0.452235,0.1548748 -0.836324,0.5203796 -0.365505,0.3531147 -0.59472,0.9354443 -0.22302,0.5823295 -0.22302,1.4124589 0,0.8672997 0.241605,1.4496287 0.2478,0.58233 0.6195,0.916859 0.377894,0.340725 0.842519,0.489405 0.464625,0.142485 0.916859,0.142485 0.43365,0 0.85491,-0.130095 0.427454,-0.130095 0.786764,-0.353115 0.303555,-0.179655 0.563744,-0.384089 0.26019,-0.204435 0.427455,-0.353115 h 0.2478 v 2.205418 q -0.34692,0.154875 -0.662865,0.291165 -0.315944,0.13629 -0.662864,0.23541 -0.452235,0.130095 -0.848714,0.19824 -0.39648,0.06814 -1.09032,0.06814 z" />
    <path
       inkscape:connector-curvature="0"
       id="path846"
       style="font-style:normal;font-variant:normal;font-weight:bold;font-stretch:normal;font-family:sans-serif;-inkscape-font-specification:'sans-serif Bold';fill:#ffffff;stroke-width:0.31718376"
       d="m 60.669919,9.3385573 q 0,2.2054187 -1.263779,3.5063677 -1.263779,1.294754 -3.493977,1.294754 -2.224003,0 -3.487782,-1.294754 -1.263779,-1.300949 -1.263779,-3.5063677 0,-2.2240033 1.263779,-3.5125623 1.263779,-1.294754 3.487782,-1.294754 2.217808,0 3.487782,1.294754 1.269974,1.288559 1.269974,3.5125623 z M 57.516667,11.67407 q 0.34692,-0.421259 0.514184,-0.991199 0.167265,-0.576134 0.167265,-1.3505087 0,-0.8301294 -0.192045,-1.4124589 Q 57.814027,7.3375738 57.504277,6.9782641 57.188332,6.6065644 56.773267,6.4392995 56.364398,6.2720346 55.918358,6.2720346 q -0.452235,0 -0.854909,0.1610699 -0.39648,0.1610699 -0.73101,0.5327696 -0.309749,0.3469197 -0.507989,0.9602243 -0.192045,0.6071095 -0.192045,1.4124589 0,0.8239347 0.18585,1.4062637 0.192045,0.576135 0.501794,0.941639 0.30975,0.365505 0.724815,0.538965 0.415064,0.17346 0.873494,0.17346 0.45843,0 0.873494,-0.17346 0.415065,-0.179655 0.724815,-0.551355 z" />
    <path
       inkscape:connector-curvature="0"
       id="path848"
       style="font-style:normal;font-variant:normal;font-weight:bold;font-stretch:normal;font-family:sans-serif;-inkscape-font-specification:'sans-serif Bold';fill:#ffffff;stroke-width:0.31718376"
       d="M 70.842103,4.7232858 67.478221,13.947634 H 64.814373 L 61.45049,4.7232858 h 2.496583 l 2.230199,6.4799652 2.230198,-6.4799652 z" />
    <path
       inkscape:connector-curvature="0"
       id="path850"
       style="font-style:normal;font-variant:normal;font-weight:bold;font-stretch:normal;font-family:sans-serif;-inkscape-font-specification:'sans-serif Bold';fill:#ffffff;stroke-width:0.31718376"
       d="m 77.154799,13.947634 h -5.402036 v -1.635479 h 1.511579 V 6.3587646 H 71.752763 V 4.7232858 h 5.402036 V 6.3587646 H 75.64322 v 5.9533904 h 1.511579 z" />
    <path
       inkscape:connector-curvature="0"
       id="path852"
       style="font-style:normal;font-variant:normal;font-weight:bold;font-stretch:normal;font-family:sans-serif;-inkscape-font-specification:'sans-serif Bold';fill:#ffffff;stroke-width:0.31718376"
       d="m 86.490663,11.048376 q 0,1.362899 -1.158464,2.217808 -1.15227,0.848715 -3.134668,0.848715 -1.146074,0 -2.000984,-0.19824 -0.848714,-0.204435 -1.592113,-0.514185 v -2.211613 h 0.260189 q 0.737205,0.588524 1.647869,0.904469 0.91686,0.315945 1.759379,0.315945 0.216825,0 0.569939,-0.03717 0.353115,-0.03717 0.576135,-0.1239 0.27258,-0.11151 0.44604,-0.278775 0.179655,-0.167265 0.179655,-0.495599 0,-0.303555 -0.26019,-0.52038 -0.253995,-0.22302 -0.749595,-0.340725 -0.520379,-0.1239 -1.102709,-0.229215 Q 81.355012,10.274002 80.847022,10.106737 79.682363,9.728842 79.168178,9.0845625 78.660189,8.434088 78.660189,7.4738637 q 0,-1.288559 1.152269,-2.1001034 1.158464,-0.8177394 2.973597,-0.8177394 0.910665,0 1.796549,0.1796549 0.892079,0.1734599 1.542554,0.4398447 V 7.3004038 H 85.871163 Q 85.313614,6.8543642 84.502069,6.5570044 83.69672,6.2534496 82.8542,6.2534496 q -0.297359,0 -0.594719,0.043365 -0.291165,0.03717 -0.563745,0.1486799 -0.241605,0.092925 -0.415064,0.2849698 -0.17346,0.1858498 -0.17346,0.4274546 0,0.3655048 0.278775,0.5637446 0.278774,0.1920449 1.053149,0.3531147 0.507989,0.105315 0.972614,0.2044349 0.47082,0.09912 1.009784,0.2725798 1.059344,0.3469197 1.561139,0.9478343 0.50799,0.5947198 0.50799,1.5487488 z" />
    <path
       inkscape:connector-curvature="0"
       id="path854"
       style="font-style:normal;font-variant:normal;font-weight:bold;font-stretch:normal;font-family:sans-serif;-inkscape-font-specification:'sans-serif Bold';fill:#ffffff;stroke-width:0.31718376"
       d="m 93.113112,13.947634 h -5.402036 v -1.635479 h 1.511579 V 6.3587646 H 87.711076 V 4.7232858 h 5.402036 v 1.6354788 h -1.511579 v 5.9533904 h 1.511579 z" />
    <path
       inkscape:connector-curvature="0"
       id="path856"
       style="font-style:normal;font-variant:normal;font-weight:bold;font-stretch:normal;font-family:sans-serif;-inkscape-font-specification:'sans-serif Bold';fill:#ffffff;stroke-width:0.31718376"
       d="m 104.03489,9.3385573 q 0,2.2054187 -1.26378,3.5063677 -1.26378,1.294754 -3.49398,1.294754 -2.224003,0 -3.487782,-1.294754 -1.263779,-1.300949 -1.263779,-3.5063677 0,-2.2240033 1.263779,-3.5125623 1.263779,-1.294754 3.487782,-1.294754 2.21781,0 3.48778,1.294754 1.26998,1.288559 1.26998,3.5125623 z m -3.15326,2.3355127 q 0.34692,-0.421259 0.51419,-0.991199 0.16726,-0.576134 0.16726,-1.3505087 0,-0.8301294 -0.19204,-1.4124589 -0.19205,-0.5823296 -0.5018,-0.9416393 -0.31594,-0.3716997 -0.73101,-0.5389646 -0.408865,-0.1672649 -0.854905,-0.1672649 -0.452234,0 -0.854909,0.1610699 -0.39648,0.1610699 -0.731009,0.5327696 -0.30975,0.3469197 -0.50799,0.9602243 -0.192045,0.6071095 -0.192045,1.4124589 0,0.8239347 0.18585,1.4062637 0.192045,0.576135 0.501795,0.941639 0.309749,0.365505 0.724814,0.538965 0.415065,0.17346 0.873494,0.17346 0.45843,0 0.873495,-0.17346 0.41506,-0.179655 0.72481,-0.551355 z" />
    <path
       inkscape:connector-curvature="0"
       id="path858"
       style="font-style:normal;font-variant:normal;font-weight:bold;font-stretch:normal;font-family:sans-serif;-inkscape-font-specification:'sans-serif Bold';fill:#ffffff;stroke-width:0.31718376"
       d="m 114.23185,13.947634 h -2.29215 l -3.91524,-6.3312854 v 6.3312854 h -2.18064 V 4.7232858 h 2.84351 l 3.36388,5.2843312 V 4.7232858 h 2.18064 z" />
  </g>
</svg>
