<?xml version="1.0" encoding="UTF-8" standalone="no"?>
<svg
   xmlns:dc="http://purl.org/dc/elements/1.1/"
   xmlns:cc="http://creativecommons.org/ns#"
   xmlns:rdf="http://www.w3.org/1999/02/22-rdf-syntax-ns#"
   xmlns:svg="http://www.w3.org/2000/svg"
   xmlns="http://www.w3.org/2000/svg"
   xmlns:sodipodi="http://sodipodi.sourceforge.net/DTD/sodipodi-0.dtd"
   xmlns:inkscape="http://www.inkscape.org/namespaces/inkscape"
   width="83px"
   height="18px"
   viewBox="0 0 83 18"
   version="1.1"
   id="svg12"
   sodipodi:docname="SUÇA.svg"
   inkscape:version="0.92.4 (5da689c313, 2019-01-14)">
  <metadata
     id="metadata16">
    <rdf:RDF>
      <cc:Work
         rdf:about="">
        <dc:format>image/svg+xml</dc:format>
        <dc:type
           rdf:resource="http://purl.org/dc/dcmitype/StillImage" />
        <dc:title>system</dc:title>
      </cc:Work>
    </rdf:RDF>
  </metadata>
  <sodipodi:namedview
     pagecolor="#ffffff"
     bordercolor="#666666"
     borderopacity="1"
     objecttolerance="10"
     gridtolerance="10"
     guidetolerance="10"
     inkscape:pageopacity="0"
     inkscape:pageshadow="2"
     inkscape:window-width="1920"
     inkscape:window-height="1018"
     id="namedview14"
     showgrid="false"
     inkscape:zoom="4.5783133"
     inkscape:cx="1.2013162"
     inkscape:cy="9.0000001"
     inkscape:window-x="-8"
     inkscape:window-y="-8"
     inkscape:window-maximized="1"
     inkscape:current-layer="svg12" />
  <!-- Generator: Sketch 45 (43475) - http://www.bohemiancoding.com/sketch -->
  <title
     id="title2">system</title>
  <desc
     id="desc4">Created with Sketch.</desc>
  <defs
     id="defs6" />
  <g
     id="g835">
    <g
       aria-label="SEGA ARCADE"
       style="font-style:normal;font-variant:normal;font-weight:bold;font-stretch:normal;font-size:10.54278183px;line-height:1.25;font-family:sans-serif;-inkscape-font-specification:'sans-serif Bold';letter-spacing:0px;word-spacing:0px;fill:#ffffff;fill-opacity:1;stroke:none;stroke-width:0.39535433"
       id="text831">
      <path
         d="m 7.1673161,10.845401 q 0,1.132525 -0.9626466,1.842927 -0.9574987,0.705255 -2.6048084,0.705255 -0.9523509,0 -1.6627531,-0.164731 -0.7052545,-0.169879 -1.32299562,-0.427271 v -1.83778 h 0.21620939 q 0.61259333,0.489045 1.36932613,0.751585 0.7618807,0.26254 1.4619874,0.26254 0.1801744,0 0.4736015,-0.03089 0.293427,-0.03089 0.4787493,-0.102957 0.2265051,-0.09266 0.3706447,-0.231653 0.1492875,-0.138992 0.1492875,-0.411827 0,-0.252245 -0.2162094,-0.432419 Q 4.7066473,10.582861 4.2948199,10.485052 3.8624011,10.382095 3.3785039,10.294581 2.8997545,10.20192 2.4776314,10.062929 1.509837,9.7489101 1.0825661,9.2135345 0.66044296,8.673011 0.66044296,7.8750954 q 0,-1.0707513 0.95749874,-1.7451187 0.9626466,-0.6795152 2.4709645,-0.6795152 0.7567329,0 1.4928744,0.1492874 0.7412893,0.1441396 1.2818128,0.3654968 V 7.7309558 H 6.6525319 Q 6.189226,7.3603111 5.5148586,7.1132147 4.8456391,6.8609704 4.1455325,6.8609704 q -0.2470965,0 -0.4941929,0.036035 Q 3.409391,6.9278923 3.1828859,7.0205535 2.98212,7.0977711 2.8379804,7.2573543 2.6938408,7.4117895 2.6938408,7.6125554 q 0,0.3037227 0.2316529,0.4684537 0.231653,0.1595831 0.8751333,0.293427 0.4221231,0.087513 0.8082113,0.1698788 0.3912361,0.082365 0.8390984,0.2265051 0.8802811,0.2882792 1.2972563,0.7876199 0.4221231,0.4941931 0.4221231,1.2869611 z"
         style="fill:#ffffff;stroke-width:0.39535433"
         id="path837"
         inkscape:connector-curvature="0" />
      <path
         d="M 14.070573,13.254591 H 8.5263464 V 5.5894532 h 5.5442266 v 1.4825787 h -3.577751 v 1.3229956 h 3.320359 v 1.4825787 h -3.320359 v 1.8944058 h 3.577751 z"
         style="fill:#ffffff;stroke-width:0.39535433"
         id="path839"
         inkscape:connector-curvature="0" />
      <path
         d="m 22.513035,12.817024 q -0.514785,0.200766 -1.364179,0.401532 -0.849394,0.195618 -1.69364,0.195618 -1.95618,0 -3.062966,-1.060455 -1.106787,-1.065604 -1.106787,-2.9394187 0,-1.7863014 1.117082,-2.877644 1.117082,-1.0964905 3.114445,-1.0964905 0.756733,0 1.441396,0.1389917 0.684663,0.1338439 1.523761,0.5405235 V 7.9162781 H 22.26079 Q 22.116651,7.8081734 21.838667,7.6125554 21.560684,7.4117895 21.303292,7.2727978 21.004717,7.1080668 20.603185,6.9896664 20.206801,6.8712661 19.758939,6.8712661 q -0.52508,0 -0.952351,0.1544352 -0.427271,0.1544353 -0.767029,0.4736016 -0.324314,0.3088705 -0.514784,0.7876199 -0.185322,0.4736015 -0.185322,1.0964905 0,1.2715167 0.674367,1.9458847 0.674367,0.674367 1.992215,0.674367 0.113253,0 0.247097,-0.0051 0.138991,-0.0051 0.252244,-0.01544 v -1.50317 H 18.976467 V 9.03336 h 3.536568 z"
         style="fill:#ffffff;stroke-width:0.39535433"
         id="path841"
         inkscape:connector-curvature="0" />
      <path
         d="M 31.362177,13.254591 H 29.318483 L 28.788256,11.70509 h -2.84161 l -0.530227,1.549501 h -1.992215 l 2.831313,-7.6651378 h 2.275346 z M 28.309506,10.299729 27.367451,7.5507813 26.425396,10.299729 Z"
         style="fill:#ffffff;stroke-width:0.39535433"
         id="path843"
         inkscape:connector-curvature="0" />
      <path
         d="M 43.161032,13.254591 H 41.117338 L 40.58711,11.70509 h -2.841609 l -0.530228,1.549501 h -1.992215 l 2.831314,-7.6651378 h 2.275346 z M 40.108361,10.299729 39.166306,7.5507813 38.224251,10.299729 Z"
         style="fill:#ffffff;stroke-width:0.39535433"
         id="path845"
         inkscape:connector-curvature="0" />
      <path
         d="m 48.571415,7.9368695 q 0,-0.2882792 -0.118401,-0.4941929 -0.1184,-0.2059137 -0.406679,-0.3243141 -0.200766,-0.082365 -0.468454,-0.097809 -0.267688,-0.020591 -0.622889,-0.020591 h -0.71555 V 9.064247 h 0.607445 q 0.473602,0 0.792768,-0.04633 0.319167,-0.046331 0.535376,-0.2110616 0.205914,-0.1595831 0.298575,-0.3500533 0.09781,-0.195618 0.09781,-0.5199321 z m 3.083558,5.3177215 H 49.240634 L 47.15061,10.443869 h -0.911168 v 2.810722 H 44.272966 V 5.5894532 h 3.315211 q 0.679515,0 1.16856,0.077218 0.489045,0.077218 0.916316,0.3346097 0.432419,0.2573922 0.684663,0.6692196 0.257392,0.4066796 0.257392,1.0244207 0,0.849394 -0.396384,1.3847697 -0.391236,0.5353756 -1.122229,0.8905768 z"
         style="fill:#ffffff;stroke-width:0.39535433"
         id="path847"
         inkscape:connector-curvature="0" />
      <path
         d="m 55.994605,13.403878 q -0.854541,0 -1.580387,-0.252244 -0.720698,-0.252244 -1.24063,-0.751585 -0.519933,-0.499341 -0.808212,-1.245778 -0.283131,-0.746437 -0.283131,-1.7245271 0,-0.9111682 0.272836,-1.6524575 0.272835,-0.7412894 0.792767,-1.2715172 0.499341,-0.5096364 1.235483,-0.7876199 0.741289,-0.2779835 1.616422,-0.2779835 0.483897,0 0.869986,0.056626 0.391236,0.051478 0.720698,0.1389917 0.344905,0.097809 0.622889,0.2213572 0.283131,0.1184004 0.494192,0.2213573 V 7.9368695 H 58.481013 Q 58.336874,7.8133213 58.115517,7.6434425 57.899307,7.4735636 57.621324,7.3088327 57.338192,7.1441017 57.00873,7.0308492 56.679268,6.9175966 56.303476,6.9175966 q -0.416975,0 -0.792768,0.1338439 -0.375792,0.1286961 -0.694959,0.4324188 -0.303722,0.2934271 -0.494192,0.7773243 -0.185323,0.4838972 -0.185323,1.1737081 0,0.7206983 0.200766,1.2045953 0.205914,0.483897 0.514784,0.761881 0.314019,0.283131 0.700107,0.406679 0.386088,0.118401 0.761881,0.118401 0.360349,0 0.710402,-0.108105 0.355201,-0.108105 0.653776,-0.293427 0.252244,-0.149288 0.468454,-0.319166 0.216209,-0.169879 0.355201,-0.293427 h 0.205913 v 1.832632 q -0.288279,0.128696 -0.550819,0.241948 -0.26254,0.113253 -0.550819,0.195618 -0.375792,0.108105 -0.705254,0.164731 -0.329462,0.05663 -0.906021,0.05663 z"
         style="fill:#ffffff;stroke-width:0.39535433"
         id="path849"
         inkscape:connector-curvature="0" />
      <path
         d="M 67.252935,13.254591 H 65.209242 L 64.679014,11.70509 h -2.841609 l -0.530228,1.549501 h -1.992215 l 2.831314,-7.6651378 h 2.275346 z M 64.200265,10.299729 63.25821,7.5507813 62.316154,10.299729 Z"
         style="fill:#ffffff;stroke-width:0.39535433"
         id="path851"
         inkscape:connector-curvature="0" />
      <path
         d="m 75.607888,9.4297439 q 0,1.0707511 -0.489045,1.9201451 -0.489045,0.844246 -1.235482,1.297257 -0.561115,0.339757 -1.230334,0.473601 -0.66922,0.133844 -1.585536,0.133844 H 68.364874 V 5.5894532 h 2.779835 q 0.936907,0 1.616422,0.1595831 0.679516,0.1544353 1.142821,0.4427145 0.792768,0.4838972 1.245778,1.3075521 0.458158,0.8185069 0.458158,1.930441 z m -2.043693,-0.015444 q 0,-0.7567328 -0.277984,-1.2921085 Q 73.013376,7.5816683 72.416226,7.2779456 72.112503,7.1286582 71.793337,7.0771798 71.479318,7.0205535 70.840986,7.0205535 h -0.499341 v 4.7977895 h 0.499341 q 0.705254,0 1.034716,-0.06177 0.329462,-0.06692 0.643481,-0.236801 0.540523,-0.308871 0.792767,-0.823655 0.252245,-0.519932 0.252245,-1.2818127 z"
         style="fill:#ffffff;stroke-width:0.39535433"
         id="path853"
         inkscape:connector-curvature="0" />
      <path
         d="M 82.660428,13.254591 H 77.116201 V 5.5894532 h 5.544227 v 1.4825787 h -3.577751 v 1.3229956 h 3.320359 v 1.4825787 h -3.320359 v 1.8944058 h 3.577751 z"
         style="fill:#ffffff;stroke-width:0.39535433"
         id="path855"
         inkscape:connector-curvature="0" />
    </g>
  </g>
</svg>
