<?xml version="1.0" encoding="UTF-8" standalone="no"?>
<svg
   xmlns:dc="http://purl.org/dc/elements/1.1/"
   xmlns:cc="http://creativecommons.org/ns#"
   xmlns:rdf="http://www.w3.org/1999/02/22-rdf-syntax-ns#"
   xmlns:svg="http://www.w3.org/2000/svg"
   xmlns="http://www.w3.org/2000/svg"
   xmlns:sodipodi="http://sodipodi.sourceforge.net/DTD/sodipodi-0.dtd"
   xmlns:inkscape="http://www.inkscape.org/namespaces/inkscape"
   width="179"
   height="18"
   viewBox="0 0 179 18"
   version="1.1"
   id="svg12"
   sodipodi:docname="system.svg"
   inkscape:version="0.92.4 (5da689c313, 2019-01-14)">
  <metadata
     id="metadata16">
    <rdf:RDF>
      <cc:Work
         rdf:about="">
        <dc:format>image/svg+xml</dc:format>
        <dc:type
           rdf:resource="http://purl.org/dc/dcmitype/StillImage" />
        <dc:title>system</dc:title>
      </cc:Work>
    </rdf:RDF>
  </metadata>
  <sodipodi:namedview
     pagecolor="#ffffff"
     bordercolor="#666666"
     borderopacity="1"
     objecttolerance="10"
     gridtolerance="10"
     guidetolerance="10"
     inkscape:pageopacity="0"
     inkscape:pageshadow="2"
     inkscape:window-width="1920"
     inkscape:window-height="1018"
     id="namedview14"
     showgrid="false"
     inkscape:zoom="3.04"
     inkscape:cx="77.676811"
     inkscape:cy="9"
     inkscape:window-x="-8"
     inkscape:window-y="-8"
     inkscape:window-maximized="1"
     inkscape:current-layer="svg12" />
  <!-- Generator: Sketch 45 (43475) - http://www.bohemiancoding.com/sketch -->
  <title
     id="title2">system</title>
  <desc
     id="desc4">Created with Sketch.</desc>
  <defs
     id="defs6" />
  <g
     id="text1177"
     style="font-style:normal;font-variant:normal;font-weight:normal;font-stretch:normal;font-size:27.60490608px;line-height:1.25;font-family:sans-serif;-inkscape-font-specification:sans-serif;letter-spacing:0px;word-spacing:0px;fill:#000000;fill-opacity:1;stroke:none;stroke-width:0.6901226"
     aria-label="GENESIS HACKS">
    <path
       inkscape:connector-curvature="0"
       id="path1191"
       style="fill:#ffffff"
       d="m 19.878503,14.0718 q -0.898597,0.350453 -2.381283,0.700906 -1.482685,0.341467 -2.956384,0.341467 -3.41467,0 -5.3466537,-1.851111 -1.931984,-1.860096 -1.931984,-5.1309896 0,-3.1181323 1.949956,-5.0231584 1.9499557,-1.914012 5.4365127,-1.914012 1.320938,0 2.516073,0.2426212 1.195134,0.2336353 2.659847,0.9435271 V 5.5171545 H 19.43819 Q 19.186583,5.3284491 18.701341,4.9869822 18.216098,4.6365293 17.7668,4.393908 17.245613,4.1063569 16.544707,3.8996796 15.852788,3.6930022 15.071008,3.6930022 q -0.916569,0 -1.662405,0.2695792 -0.745835,0.2695791 -1.33891,0.8267094 -0.566116,0.5391583 -0.898597,1.3748537 -0.323495,0.8267094 -0.323495,1.9140121 0,2.2195354 1.177163,3.3966974 1.177162,1.177162 3.477571,1.177162 0.197691,0 0.431326,-0.009 0.242622,-0.009 0.440313,-0.02696 V 9.9921686 H 13.70514 V 7.4671105 h 6.173363 z" />
    <path
       inkscape:connector-curvature="0"
       id="path1193"
       style="fill:#ffffff"
       d="M 32.638583,14.835608 H 22.960692 V 1.4554952 h 9.677891 v 2.5879599 h -6.24525 v 2.3093948 h 5.795952 v 2.58796 h -5.795952 v 3.3068381 h 6.24525 z" />
    <path
       inkscape:connector-curvature="0"
       id="path1195"
       style="fill:#ffffff"
       d="M 47.708058,14.835608 H 44.383249 L 38.704114,5.6519441 V 14.835608 H 35.541052 V 1.4554952 h 4.124561 l 4.879383,7.6650341 V 1.4554952 h 3.163062 z" />
    <path
       inkscape:connector-curvature="0"
       id="path1197"
       style="fill:#ffffff"
       d="M 60.818591,14.835608 H 51.1407 V 1.4554952 h 9.677891 v 2.5879599 h -6.24525 v 2.3093948 h 5.795952 v 2.58796 h -5.795952 v 3.3068381 h 6.24525 z" />
    <path
       inkscape:connector-curvature="0"
       id="path1199"
       style="fill:#ffffff"
       d="m 74.432339,10.630173 q 0,1.976913 -1.680377,3.216978 -1.671391,1.231078 -4.546902,1.231078 -1.662405,0 -2.902469,-0.287551 -1.231078,-0.296537 -2.309395,-0.745836 V 10.83685 h 0.377411 q 1.069331,0.853667 2.390269,1.311952 1.329923,0.458284 2.552016,0.458284 0.314509,0 0.826709,-0.05391 0.512201,-0.05392 0.835696,-0.17972 0.395382,-0.161747 0.646989,-0.404369 0.260594,-0.242621 0.260594,-0.718877 0,-0.440313 -0.377411,-0.754822 -0.368425,-0.3235 -1.087303,-0.494233 Q 68.663345,9.8214351 67.818663,9.6686736 66.982968,9.5069261 66.246118,9.2643049 64.556755,8.7161606 63.81092,7.7816195 63.07407,6.8380924 63.07407,5.4452668 q 0,-1.8690822 1.671391,-3.0462446 1.680377,-1.1861483 4.313266,-1.1861483 1.320938,0 2.605932,0.2605932 1.29398,0.2516072 2.237507,0.638004 V 5.1936595 H 73.533741 Q 72.725004,4.5466696 71.547842,4.1153429 70.379665,3.6750303 69.157573,3.6750303 q -0.431327,0 -0.862653,0.062902 -0.422341,0.053916 -0.817724,0.2156633 -0.350453,0.1347896 -0.60206,0.4133547 -0.251607,0.2695792 -0.251607,0.6200321 0,0.5301723 0.404369,0.8177234 0.404368,0.2785652 1.527615,0.5122004 0.73685,0.1527616 1.410798,0.2965371 0.682933,0.1437756 1.464713,0.3953828 1.536601,0.5032144 2.264465,1.3748537 0.73685,0.8626533 0.73685,2.2464932 z" />
    <path
       inkscape:connector-curvature="0"
       id="path1201"
       style="fill:#ffffff"
       d="m 84.038344,14.835608 h -7.835768 v -2.372297 h 2.192577 V 3.8277918 H 76.202576 V 1.4554952 h 7.835768 v 2.3722966 h -2.192578 v 8.6355192 h 2.192578 z" />
    <path
       inkscape:connector-curvature="0"
       id="path1203"
       style="fill:#ffffff"
       d="m 97.5802,10.630173 q 0,1.976913 -1.680377,3.216978 -1.67139,1.231078 -4.546902,1.231078 -1.662404,0 -2.902468,-0.287551 -1.231079,-0.296537 -2.309395,-0.745836 V 10.83685 h 0.377411 q 1.06933,0.853667 2.390268,1.311952 1.329924,0.458284 2.552016,0.458284 0.314509,0 0.82671,-0.05391 0.5122,-0.05392 0.835695,-0.17972 0.395383,-0.161747 0.64699,-0.404369 0.260593,-0.242621 0.260593,-0.718877 0,-0.440313 -0.377411,-0.754822 -0.368425,-0.3235 -1.087302,-0.494233 Q 91.811206,9.8214351 90.966525,9.6686736 90.130829,9.5069261 89.39398,9.2643049 87.704617,8.7161606 86.958781,7.7816195 q -0.73685,-0.9435271 -0.73685,-2.3363527 0,-1.8690822 1.671391,-3.0462446 1.680377,-1.1861483 4.313267,-1.1861483 1.320938,0 2.605932,0.2605932 1.29398,0.2516072 2.237507,0.638004 v 3.0821884 h -0.368425 q -0.808738,-0.6469899 -1.9859,-1.0783166 -1.168176,-0.4403126 -2.390268,-0.4403126 -0.431327,0 -0.862654,0.062902 -0.42234,0.053916 -0.817723,0.2156633 -0.350453,0.1347896 -0.60206,0.4133547 -0.251608,0.2695792 -0.251608,0.6200321 0,0.5301723 0.404369,0.8177234 0.404369,0.2785652 1.527615,0.5122004 0.73685,0.1527616 1.410798,0.2965371 0.682934,0.1437756 1.464713,0.3953828 1.536602,0.5032144 2.264465,1.3748537 0.73685,0.8626533 0.73685,2.2464932 z" />
    <path
       inkscape:connector-curvature="0"
       id="path1205"
       style="fill:#ff0000;stroke-width:0.6901226"
       d="m 118.23895,14.835608 h -3.45061 V 8.9408099 h -5.09505 v 5.8947981 h -3.45061 V 1.4554952 h 3.45061 v 4.8973547 h 5.09505 V 1.4554952 h 3.45061 z" />
    <path
       inkscape:connector-curvature="0"
       id="path1207"
       style="fill:#ff0000;stroke-width:0.6901226"
       d="m 134.0273,14.835608 h -3.56743 l -0.92555,-2.704778 h -4.96026 l -0.92555,2.704778 h -3.47757 l 4.94228,-13.3801128 h 3.9718 z m -5.32868,-5.1579484 -1.64443,-4.7985091 -1.64443,4.7985091 z" />
    <path
       inkscape:connector-curvature="0"
       id="path1209"
       style="fill:#ff0000;stroke-width:0.6901226"
       d="m 142.01584,15.096201 q -1.49167,0 -2.7587,-0.440313 -1.25803,-0.440313 -2.16561,-1.311952 -0.90759,-0.871639 -1.4108,-2.174605 -0.49423,-1.302966 -0.49423,-3.0103007 0,-1.590517 0.47626,-2.884497 0.47625,-1.29398 1.38384,-2.2195351 0.87163,-0.8896112 2.15663,-1.3748537 1.29398,-0.4852425 2.82159,-0.4852425 0.84469,0 1.51863,0.098846 0.68294,0.08986 1.25804,0.2426212 0.60206,0.1707335 1.0873,0.3863968 0.49423,0.2066774 0.86266,0.3863968 v 3.2439359 h -0.39539 q -0.2516,-0.2156633 -0.638,-0.5122004 -0.37741,-0.2965371 -0.86265,-0.5840882 -0.49423,-0.2875511 -1.06934,-0.4852425 -0.5751,-0.1976913 -1.23107,-0.1976913 -0.72787,0 -1.38384,0.2336352 -0.65598,0.2246493 -1.21311,0.7548217 -0.53017,0.5122004 -0.86265,1.3568818 -0.3235,0.8446813 -0.3235,2.0488016 0,1.2580361 0.35046,2.1027174 0.35943,0.844681 0.89859,1.329924 0.54815,0.494228 1.22209,0.709891 0.67395,0.206678 1.32993,0.206678 0.62902,0 1.24006,-0.188706 0.62003,-0.188705 1.14122,-0.5122 0.44031,-0.260593 0.81772,-0.55713 0.37742,-0.296537 0.62004,-0.512201 h 0.35944 v 3.199006 q -0.50322,0.22465 -0.9615,0.422341 -0.45829,0.197691 -0.9615,0.341467 -0.65598,0.188705 -1.23108,0.287551 -0.5751,0.09885 -1.58153,0.09885 z" />
    <path
       inkscape:connector-curvature="0"
       id="path1211"
       style="fill:#ff0000;stroke-width:0.6901226"
       d="m 161.79395,14.835608 h -4.23239 l -3.99876,-5.3556398 -0.80873,0.9794708 v 4.376169 h -3.45062 V 1.4554952 h 3.45062 v 6.0565451 l 4.78053,-6.0565451 h 3.99876 l -5.22983,6.1913347 z" />
    <path
       inkscape:connector-curvature="0"
       id="path1213"
       style="fill:#ff0000;stroke-width:0.6901226"
       d="m 174.21258,10.630173 q 0,1.976913 -1.68038,3.216978 -1.67139,1.231078 -4.5469,1.231078 -1.66241,0 -2.90247,-0.287551 -1.23108,-0.296537 -2.30939,-0.745836 V 10.83685 h 0.37741 q 1.06933,0.853667 2.39026,1.311952 1.32993,0.458284 2.55202,0.458284 0.31451,0 0.82671,-0.05391 0.5122,-0.05392 0.8357,-0.17972 0.39538,-0.161747 0.64699,-0.404369 0.26059,-0.242621 0.26059,-0.718877 0,-0.440313 -0.37741,-0.754822 -0.36843,-0.323495 -1.0873,-0.494228 -0.75483,-0.1797199 -1.59951,-0.3324814 -0.83569,-0.1617475 -1.57254,-0.4043687 -1.68937,-0.5481443 -2.4352,-1.4826854 -0.73685,-0.9435271 -0.73685,-2.3363527 0,-1.8690822 1.67139,-3.0462446 1.68038,-1.1861483 4.31327,-1.1861483 1.32093,0 2.60593,0.2605932 1.29398,0.2516072 2.23751,0.638004 v 3.0821884 h -0.36843 q -0.80874,-0.6469899 -1.9859,-1.0783166 -1.16818,-0.4403126 -2.39027,-0.4403126 -0.43132,0 -0.86265,0.062902 -0.42234,0.053916 -0.81772,0.2156633 -0.35046,0.1347896 -0.60206,0.4133547 -0.25161,0.2695792 -0.25161,0.6200321 0,0.5301723 0.40437,0.8177234 0.40437,0.2785652 1.52761,0.5122004 0.73685,0.1527616 1.4108,0.2965371 0.68293,0.1437756 1.46471,0.3953828 1.5366,0.5032144 2.26447,1.3748537 0.73685,0.8626533 0.73685,2.2464932 z" />
  </g>
</svg>
