<?xml version="1.0" encoding="UTF-8" standalone="no"?>
<svg
   xmlns:dc="http://purl.org/dc/elements/1.1/"
   xmlns:cc="http://creativecommons.org/ns#"
   xmlns:rdf="http://www.w3.org/1999/02/22-rdf-syntax-ns#"
   xmlns:svg="http://www.w3.org/2000/svg"
   xmlns="http://www.w3.org/2000/svg"
   xmlns:sodipodi="http://sodipodi.sourceforge.net/DTD/sodipodi-0.dtd"
   xmlns:inkscape="http://www.inkscape.org/namespaces/inkscape"
   width="117px"
   height="18px"
   viewBox="0 0 117 18"
   version="1.1"
   id="svg12"
   sodipodi:docname="system.svg"
   inkscape:version="0.92.4 (5da689c313, 2019-01-14)">
  <metadata
     id="metadata16">
    <rdf:RDF>
      <cc:Work
         rdf:about="">
        <dc:format>image/svg+xml</dc:format>
        <dc:type
           rdf:resource="http://purl.org/dc/dcmitype/StillImage" />
        <dc:title>system</dc:title>
      </cc:Work>
    </rdf:RDF>
  </metadata>
  <sodipodi:namedview
     pagecolor="#ffffff"
     bordercolor="#666666"
     borderopacity="1"
     objecttolerance="10"
     gridtolerance="10"
     guidetolerance="10"
     inkscape:pageopacity="0"
     inkscape:pageshadow="2"
     inkscape:window-width="1920"
     inkscape:window-height="1018"
     id="namedview14"
     showgrid="false"
     inkscape:zoom="3.2478632"
     inkscape:cx="54.275987"
     inkscape:cy="8.9999998"
     inkscape:window-x="-8"
     inkscape:window-y="-8"
     inkscape:window-maximized="1"
     inkscape:current-layer="svg12" />
  <!-- Generator: Sketch 45 (43475) - http://www.bohemiancoding.com/sketch -->
  <title
     id="title2">system</title>
  <desc
     id="desc4">Created with Sketch.</desc>
  <defs
     id="defs6" />
  <g
     id="g838">
    <g
       aria-label="HOMEBREW"
       style="font-style:normal;font-variant:normal;font-weight:normal;font-stretch:normal;font-size:17.33177948px;line-height:1.25;font-family:sans-serif;-inkscape-font-specification:sans-serif;letter-spacing:0px;word-spacing:0px;fill:#ffffff;fill-opacity:1;stroke:none;stroke-width:0.43329453"
       id="text834">
      <path
         d="M 14.085069,15.502733 H 10.83536 V 9.9511476 H 6.0369624 V 15.502733 H 2.7872537 V 2.9016494 H 6.0369624 V 7.5138661 H 10.83536 V 2.9016494 h 3.249709 z"
         style="font-style:normal;font-variant:normal;font-weight:bold;font-stretch:normal;font-family:sans-serif;-inkscape-font-specification:'sans-serif Bold';fill:#ffffff;stroke-width:0.43329453"
         id="path840"
         inkscape:connector-curvature="0" />
      <path
         d="m 29.563499,9.2064227 q 0,3.0127503 -1.726408,4.7899353 -1.726407,1.768722 -4.773009,1.768722 -3.038139,0 -4.764547,-1.768722 -1.726408,-1.777185 -1.726408,-4.7899353 0,-3.0381391 1.726408,-4.7983979 1.726408,-1.7687217 4.764547,-1.7687217 3.029676,0 4.764547,1.7687217 1.73487,1.7602588 1.73487,4.7983979 z m -4.307556,3.1904693 q 0.473916,-0.575469 0.702411,-1.354045 0.228495,-0.787039 0.228495,-1.8448871 0,-1.1340129 -0.262346,-1.9295145 -0.262347,-0.7955016 -0.685486,-1.286343 -0.431602,-0.507767 -0.998608,-0.7362621 -0.558544,-0.2284951 -1.167864,-0.2284951 -0.617783,0 -1.167864,0.2200323 -0.541618,0.2200324 -0.998609,0.7277993 -0.423139,0.4739159 -0.693948,1.3117314 -0.262346,0.8293527 -0.262346,1.9295145 0,1.1255503 0.253883,1.9210513 0.262347,0.787039 0.685486,1.286343 0.423139,0.499305 0.990145,0.736263 0.567007,0.236957 1.193253,0.236957 0.626246,0 1.193252,-0.236957 0.567007,-0.245421 0.990146,-0.753188 z"
         style="font-style:normal;font-variant:normal;font-weight:bold;font-stretch:normal;font-family:sans-serif;-inkscape-font-specification:'sans-serif Bold';fill:#ffffff;stroke-width:0.43329453"
         id="path842"
         inkscape:connector-curvature="0" />
      <path
         d="M 45.245037,15.502733 H 42.012254 V 7.0653386 L 39.676526,12.540759 H 37.433889 L 35.09816,7.0653386 V 15.502733 H 32.034633 V 2.9016494 h 3.774401 l 2.835033,6.3216989 2.826569,-6.3216989 h 3.774401 z"
         style="font-style:normal;font-variant:normal;font-weight:bold;font-stretch:normal;font-family:sans-serif;-inkscape-font-specification:'sans-serif Bold';fill:#ffffff;stroke-width:0.43329453"
         id="path844"
         inkscape:connector-curvature="0" />
      <path
         d="M 57.566847,15.502733 H 48.45243 V 2.9016494 h 9.114417 v 2.4372815 h -5.881634 v 2.1749352 h 5.458495 v 2.4372815 h -5.458495 v 3.1143044 h 5.881634 z"
         style="font-style:normal;font-variant:normal;font-weight:bold;font-stretch:normal;font-family:sans-serif;-inkscape-font-specification:'sans-serif Bold';fill:#ffffff;stroke-width:0.43329453"
         id="path846"
         inkscape:connector-curvature="0" />
      <path
         d="m 71.081912,11.643704 q 0,0.913981 -0.372362,1.633317 -0.3639,0.719337 -1.007071,1.193253 -0.744725,0.558543 -1.64178,0.795501 -0.888593,0.236958 -2.259563,0.236958 H 60.300327 V 2.9016494 h 4.891488 q 1.523301,0 2.225712,0.1015534 0.710874,0.1015534 1.404822,0.4485275 0.719337,0.3638997 1.066311,0.9816828 0.355437,0.6093204 0.355437,1.3963592 0,0.9139806 -0.482379,1.6163916 -0.482379,0.6939482 -1.362508,1.0832362 v 0.067702 q 1.235566,0.2454207 1.954903,1.015534 0.727799,0.7701139 0.727799,2.0310679 z M 66.918223,6.464481 q 0,-0.3131229 -0.160793,-0.6262459 Q 66.6051,5.5251121 66.207349,5.372782 65.851912,5.2373775 65.318757,5.2289147 64.794064,5.2119892 63.83777,5.2119892 h -0.30466 v 2.6657766 h 0.507767 q 0.770113,0 1.311731,-0.025388 0.541618,-0.025388 0.854741,-0.1692556 0.440065,-0.194644 0.575469,-0.4993042 0.135405,-0.313123 0.135405,-0.719337 z m 0.795502,5.128447 q 0,-0.600858 -0.236958,-0.922444 -0.228495,-0.330048 -0.787039,-0.490841 -0.380825,-0.110016 -1.049385,-0.118479 -0.66856,-0.0085 -1.396359,-0.0085 H 63.53311 v 3.139692 h 0.236958 q 1.370971,0 1.963365,-0.0085 0.592395,-0.0085 1.091699,-0.220033 0.507767,-0.211569 0.693949,-0.558543 0.194644,-0.355437 0.194644,-0.812427 z"
         style="font-style:normal;font-variant:normal;font-weight:bold;font-stretch:normal;font-family:sans-serif;-inkscape-font-specification:'sans-serif Bold';fill:#ffffff;stroke-width:0.43329453"
         id="path848"
         inkscape:connector-curvature="0" />
      <path
         d="m 80.568689,6.7606784 q 0,-0.4739158 -0.194644,-0.8124271 Q 80.179401,5.60974 79.705485,5.415096 79.375437,5.2796914 78.935372,5.2543031 78.495307,5.2204519 77.911375,5.2204519 h -1.176327 v 3.393576 h 0.998609 q 0.778576,0 1.303268,-0.076165 0.524693,-0.076165 0.88013,-0.3469741 0.338511,-0.2623463 0.490841,-0.5754693 0.160793,-0.3215857 0.160793,-0.8547411 z m 5.069207,8.7420546 h -3.969045 l -3.43589,-4.620679 h -1.497913 v 4.620679 H 73.502265 V 2.9016494 h 5.450033 q 1.117087,0 1.921051,0.1269418 0.803965,0.1269417 1.506376,0.5500809 0.710873,0.4231391 1.12555,1.1001617 0.423139,0.6685599 0.423139,1.6840938 0,1.3963592 -0.651634,2.2764887 -0.643172,0.8801294 -1.844887,1.4640617 z"
         style="font-style:normal;font-variant:normal;font-weight:bold;font-stretch:normal;font-family:sans-serif;-inkscape-font-specification:'sans-serif Bold';fill:#ffffff;stroke-width:0.43329453"
         id="path850"
         inkscape:connector-curvature="0" />
      <path
         d="M 96.190993,15.502733 H 87.076576 V 2.9016494 h 9.114417 v 2.4372815 h -5.881634 v 2.1749352 h 5.458495 v 2.4372815 h -5.458495 v 3.1143044 h 5.881634 z"
         style="font-style:normal;font-variant:normal;font-weight:bold;font-stretch:normal;font-family:sans-serif;-inkscape-font-specification:'sans-serif Bold';fill:#ffffff;stroke-width:0.43329453"
         id="path852"
         inkscape:connector-curvature="0" />
      <path
         d="m 116.31549,2.9016494 -3.39358,12.6010836 h -3.59668 l -2.25956,-8.2088992 -2.20033,8.2088992 h -3.59668 L 97.875083,2.9016494 h 3.393577 l 1.93798,8.6743526 2.3188,-8.6743526 h 3.24124 l 2.20879,8.6743526 2.03107,-8.6743526 z"
         style="font-style:normal;font-variant:normal;font-weight:bold;font-stretch:normal;font-family:sans-serif;-inkscape-font-specification:'sans-serif Bold';fill:#ffffff;stroke-width:0.43329453"
         id="path854"
         inkscape:connector-curvature="0" />
    </g>
  </g>
</svg>
